M48
; DRILL file {KiCad 6.0.0} date Sun 09 Jan 2022 06:31:53 PM CET
; FORMAT={-:-/ absolute / metric / decimal}
; #@! TF.CreationDate,2022-01-09T18:31:53+01:00
; #@! TF.GenerationSoftware,Kicad,Pcbnew,6.0.0
; #@! TF.FileFunction,MixedPlating,1,2
FMAT,2
METRIC
; #@! TA.AperFunction,Plated,PTH,ViaDrill
T1C0.300
; #@! TA.AperFunction,Plated,PTH,ComponentDrill
T2C0.300
; #@! TA.AperFunction,Plated,PTH,ViaDrill
T3C0.400
; #@! TA.AperFunction,Plated,PTH,ComponentDrill
T4C0.600
; #@! TA.AperFunction,Plated,PTH,ComponentDrill
T5C1.000
; #@! TA.AperFunction,Plated,PTH,ComponentDrill
T6C1.500
; #@! TA.AperFunction,NonPlated,NPTH,ComponentDrill
T7C0.500
; #@! TA.AperFunction,NonPlated,NPTH,ComponentDrill
T8C1.500
; #@! TA.AperFunction,NonPlated,NPTH,ComponentDrill
T9C1.750
; #@! TA.AperFunction,NonPlated,NPTH,ComponentDrill
T10C4.000
%
G90
G05
T1
X55.195Y-51.597
X55.195Y-115.597
X55.198Y-50.542
X55.198Y-114.542
X55.671Y-52.339
X55.671Y-116.339
X55.713Y-51.068
X55.713Y-115.068
X56.223Y-52.994
X56.223Y-116.994
X56.622Y-44.474
X56.622Y-108.474
X56.95Y-53.004
X56.95Y-117.004
X57.041Y-45.069
X57.041Y-109.069
X57.678Y-53.022
X57.678Y-117.022
X57.812Y-32.429
X57.812Y-96.429
X58.326Y-32.944
X58.326Y-96.944
X62.225Y-28.035
X62.225Y-92.035
X62.487Y-51.773
X62.487Y-115.773
X62.76Y-29.11
X62.76Y-93.11
X62.989Y-52.301
X62.989Y-116.301
X66.522Y-43.892
X66.522Y-107.892
X69.135Y-43.395
X69.135Y-107.395
X119.195Y-51.597
X119.195Y-115.597
X119.198Y-50.542
X119.198Y-114.542
X119.671Y-52.339
X119.671Y-116.339
X119.713Y-51.068
X119.713Y-115.068
X120.223Y-52.994
X120.223Y-116.994
X120.622Y-44.474
X120.622Y-108.474
X120.95Y-53.004
X120.95Y-117.004
X121.041Y-45.069
X121.041Y-109.069
X121.678Y-53.022
X121.678Y-117.022
X121.812Y-32.429
X121.812Y-96.429
X122.326Y-32.944
X122.326Y-96.944
X126.225Y-28.035
X126.225Y-92.035
X126.487Y-51.773
X126.487Y-115.773
X126.76Y-29.11
X126.76Y-93.11
X126.989Y-52.301
X126.989Y-116.301
X130.522Y-43.892
X130.522Y-107.892
X133.135Y-43.395
X133.135Y-107.395
T2
X56.572Y-48.436
X56.572Y-112.436
X58.233Y-46.774
X58.233Y-48.436
X58.233Y-50.097
X58.233Y-110.774
X58.233Y-112.436
X58.233Y-114.097
X59.895Y-45.112
X59.895Y-46.774
X59.895Y-48.436
X59.895Y-50.097
X59.895Y-51.759
X59.895Y-109.112
X59.895Y-110.774
X59.895Y-112.436
X59.895Y-114.097
X59.895Y-115.759
X61.557Y-46.774
X61.557Y-48.436
X61.557Y-50.097
X61.557Y-110.774
X61.557Y-112.436
X61.557Y-114.097
X63.218Y-48.436
X63.218Y-112.436
X120.572Y-48.436
X120.572Y-112.436
X122.233Y-46.774
X122.233Y-48.436
X122.233Y-50.097
X122.233Y-110.774
X122.233Y-112.436
X122.233Y-114.097
X123.895Y-45.112
X123.895Y-46.774
X123.895Y-48.436
X123.895Y-50.097
X123.895Y-51.759
X123.895Y-109.112
X123.895Y-110.774
X123.895Y-112.436
X123.895Y-114.097
X123.895Y-115.759
X125.557Y-46.774
X125.557Y-48.436
X125.557Y-50.097
X125.557Y-110.774
X125.557Y-112.436
X125.557Y-114.097
X127.218Y-48.436
X127.218Y-112.436
T3
X25.181Y-34.149
X25.181Y-98.149
X31.753Y-72.736
X31.753Y-136.736
X38.891Y-40.579
X38.891Y-104.579
X40.171Y-53.649
X40.171Y-117.649
X42.901Y-55.189
X42.901Y-119.189
X51.391Y-45.459
X51.391Y-109.459
X52.231Y-36.049
X52.231Y-100.049
X54.565Y-43.05
X54.565Y-107.05
X54.791Y-33.008
X54.791Y-97.008
X55.465Y-48.125
X55.465Y-112.125
X55.865Y-43.825
X55.865Y-107.825
X55.981Y-41.429
X55.981Y-105.429
X57.911Y-35.709
X57.911Y-99.709
X58.479Y-53.244
X58.479Y-117.244
X58.605Y-27.125
X58.605Y-91.125
X58.842Y-26.089
X58.842Y-90.089
X58.911Y-33.919
X58.911Y-97.919
X60.721Y-28.719
X60.721Y-92.719
X60.952Y-43.275
X60.952Y-107.275
X61.808Y-33.206
X61.808Y-97.206
X61.821Y-30.492
X61.821Y-94.492
X63.565Y-57.725
X63.565Y-121.725
X63.665Y-45.175
X63.665Y-109.175
X63.715Y-43.075
X63.715Y-107.075
X63.825Y-55.685
X63.825Y-119.685
X63.949Y-51.041
X63.949Y-115.041
X66.095Y-34.815
X66.095Y-98.815
X67.055Y-51.955
X67.055Y-115.955
X67.975Y-73.935
X67.975Y-137.935
X68.33Y-26.069
X68.33Y-90.069
X68.518Y-27.15
X68.518Y-91.15
X68.521Y-37.549
X68.521Y-101.549
X69.521Y-26.589
X69.521Y-90.589
X69.925Y-64.865
X69.925Y-128.865
X71.201Y-32.469
X71.201Y-96.469
X74.853Y-29.707
X74.853Y-93.707
X74.857Y-32.127
X74.857Y-96.127
X89.181Y-34.149
X89.181Y-98.149
X95.753Y-72.736
X95.753Y-136.736
X102.891Y-40.579
X102.891Y-104.579
X104.171Y-53.649
X104.171Y-117.649
X106.901Y-55.189
X106.901Y-119.189
X115.391Y-45.459
X115.391Y-109.459
X116.231Y-36.049
X116.231Y-100.049
X118.565Y-43.05
X118.565Y-107.05
X118.791Y-33.008
X118.791Y-97.008
X119.465Y-48.125
X119.465Y-112.125
X119.865Y-43.825
X119.865Y-107.825
X119.981Y-41.429
X119.981Y-105.429
X121.911Y-35.709
X121.911Y-99.709
X122.479Y-53.244
X122.479Y-117.244
X122.605Y-27.125
X122.605Y-91.125
X122.842Y-26.089
X122.842Y-90.089
X122.911Y-33.919
X122.911Y-97.919
X124.721Y-28.719
X124.721Y-92.719
X124.952Y-43.275
X124.952Y-107.275
X125.808Y-33.206
X125.808Y-97.206
X125.821Y-30.492
X125.821Y-94.492
X127.565Y-57.725
X127.565Y-121.725
X127.665Y-45.175
X127.665Y-109.175
X127.715Y-43.075
X127.715Y-107.075
X127.825Y-55.685
X127.825Y-119.685
X127.949Y-51.041
X127.949Y-115.041
X130.095Y-34.815
X130.095Y-98.815
X131.055Y-51.955
X131.055Y-115.955
X131.975Y-73.935
X131.975Y-137.935
X132.33Y-26.069
X132.33Y-90.069
X132.518Y-27.15
X132.518Y-91.15
X132.521Y-37.549
X132.521Y-101.549
X133.521Y-26.589
X133.521Y-90.589
X133.925Y-64.865
X133.925Y-128.865
X135.201Y-32.469
X135.201Y-96.469
X138.853Y-29.707
X138.853Y-93.707
X138.857Y-32.127
X138.857Y-96.127
T5
X31.925Y-20.685
X31.925Y-84.685
X34.465Y-20.685
X34.465Y-84.685
X37.005Y-20.685
X37.005Y-84.685
X39.545Y-20.685
X39.545Y-84.685
X64.846Y-28.419
X64.846Y-33.419
X64.846Y-92.419
X64.846Y-97.419
X69.1Y-39.08
X69.1Y-41.62
X69.1Y-103.08
X69.1Y-105.62
X71.64Y-39.08
X71.64Y-41.62
X71.64Y-103.08
X71.64Y-105.62
X74.18Y-39.08
X74.18Y-41.62
X74.18Y-103.08
X74.18Y-105.62
X79.346Y-28.419
X79.346Y-30.919
X79.346Y-33.419
X79.346Y-92.419
X79.346Y-94.919
X79.346Y-97.419
X95.925Y-20.685
X95.925Y-84.685
X98.465Y-20.685
X98.465Y-84.685
X101.005Y-20.685
X101.005Y-84.685
X103.545Y-20.685
X103.545Y-84.685
X128.846Y-28.419
X128.846Y-33.419
X128.846Y-92.419
X128.846Y-97.419
X133.1Y-39.08
X133.1Y-41.62
X133.1Y-103.08
X133.1Y-105.62
X135.64Y-39.08
X135.64Y-41.62
X135.64Y-103.08
X135.64Y-105.62
X138.18Y-39.08
X138.18Y-41.62
X138.18Y-103.08
X138.18Y-105.62
X143.346Y-28.419
X143.346Y-30.919
X143.346Y-33.419
X143.346Y-92.419
X143.346Y-94.919
X143.346Y-97.419
T6
X24.086Y-28.379
X24.086Y-47.429
X24.086Y-66.479
X24.086Y-92.379
X24.086Y-111.429
X24.086Y-130.479
X30.436Y-25.839
X30.436Y-44.889
X30.436Y-63.939
X30.436Y-89.839
X30.436Y-108.889
X30.436Y-127.939
X43.136Y-28.379
X43.136Y-47.429
X43.136Y-66.479
X43.136Y-92.379
X43.136Y-111.429
X43.136Y-130.479
X49.486Y-25.839
X49.486Y-44.889
X49.486Y-63.939
X49.486Y-89.839
X49.486Y-108.889
X49.486Y-127.939
X68.286Y-47.429
X68.286Y-66.479
X68.286Y-111.429
X68.286Y-130.479
X74.636Y-44.889
X74.636Y-63.939
X74.636Y-108.889
X74.636Y-127.939
X88.086Y-28.379
X88.086Y-47.429
X88.086Y-66.479
X88.086Y-92.379
X88.086Y-111.429
X88.086Y-130.479
X94.436Y-25.839
X94.436Y-44.889
X94.436Y-63.939
X94.436Y-89.839
X94.436Y-108.889
X94.436Y-127.939
X107.136Y-28.379
X107.136Y-47.429
X107.136Y-66.479
X107.136Y-92.379
X107.136Y-111.429
X107.136Y-130.479
X113.486Y-25.839
X113.486Y-44.889
X113.486Y-63.939
X113.486Y-89.839
X113.486Y-108.889
X113.486Y-127.939
X132.286Y-47.429
X132.286Y-66.479
X132.286Y-111.429
X132.286Y-130.479
X138.636Y-44.889
X138.636Y-63.939
X138.636Y-108.889
X138.636Y-127.939
T7
X10.201Y-19.001
X10.201Y-144.999
X10.901Y-19.001
X10.901Y-144.999
X11.601Y-19.001
X11.601Y-144.999
X12.301Y-19.001
X12.301Y-144.999
X13.001Y-19.001
X13.001Y-144.999
X13.702Y-19.001
X13.702Y-144.999
X14.402Y-19.001
X14.402Y-144.999
X15.102Y-19.001
X15.102Y-144.999
X15.802Y-19.001
X15.802Y-144.999
X19.001Y-10.199
X19.001Y-10.899
X19.001Y-11.599
X19.001Y-12.299
X19.001Y-12.999
X19.001Y-13.7
X19.001Y-14.4
X19.001Y-15.1
X19.001Y-15.8
X19.001Y-148.2
X19.001Y-148.9
X19.001Y-149.6
X19.001Y-150.3
X19.001Y-151.0
X19.001Y-151.701
X19.001Y-152.401
X19.001Y-153.101
X19.001Y-153.801
X19.201Y-52.969
X19.201Y-116.969
X19.201Y-52.219
X19.201Y-116.219
X19.201Y-51.469
X19.201Y-115.469
X19.201Y-50.719
X19.201Y-114.719
X19.201Y-49.219
X19.201Y-49.969
X19.201Y-113.219
X19.201Y-113.969
X19.201Y-48.469
X19.201Y-112.469
X19.201Y-47.719
X19.201Y-111.719
X19.201Y-46.969
X19.201Y-110.969
X47.041Y-19.201
X47.041Y-80.799
X47.041Y-83.201
X47.041Y-144.799
X47.791Y-19.201
X47.791Y-80.799
X47.791Y-83.201
X47.791Y-144.799
X48.541Y-19.201
X48.541Y-80.799
X48.541Y-83.201
X48.541Y-144.799
X49.291Y-19.201
X49.291Y-80.799
X49.291Y-83.201
X49.291Y-144.799
X50.041Y-19.201
X50.041Y-80.799
X50.041Y-83.201
X50.041Y-144.799
X50.791Y-19.201
X50.791Y-80.799
X50.791Y-83.201
X50.791Y-144.799
X51.541Y-19.201
X51.541Y-80.799
X51.541Y-83.201
X51.541Y-144.799
X52.291Y-19.201
X52.291Y-80.799
X52.291Y-83.201
X52.291Y-144.799
X53.041Y-19.201
X53.041Y-80.799
X53.041Y-83.201
X53.041Y-144.799
X80.799Y-46.979
X80.799Y-110.979
X80.799Y-47.729
X80.799Y-111.729
X80.799Y-48.479
X80.799Y-49.229
X80.799Y-112.479
X80.799Y-113.229
X80.799Y-49.979
X80.799Y-113.979
X80.799Y-50.729
X80.799Y-114.729
X80.799Y-51.479
X80.799Y-115.479
X80.799Y-52.229
X80.799Y-116.229
X80.799Y-52.979
X80.799Y-116.979
X83.201Y-52.969
X83.201Y-116.969
X83.201Y-52.219
X83.201Y-116.219
X83.201Y-51.469
X83.201Y-115.469
X83.201Y-50.719
X83.201Y-114.719
X83.201Y-49.969
X83.201Y-113.969
X83.201Y-49.219
X83.201Y-113.219
X83.201Y-48.469
X83.201Y-112.469
X83.201Y-47.719
X83.201Y-111.719
X83.201Y-46.969
X83.201Y-110.969
X111.041Y-19.201
X111.041Y-80.799
X111.041Y-83.201
X111.041Y-144.799
X111.791Y-19.201
X111.791Y-80.799
X111.791Y-83.201
X111.791Y-144.799
X112.541Y-19.201
X112.541Y-80.799
X112.541Y-83.201
X112.541Y-144.799
X113.291Y-19.201
X113.291Y-80.799
X113.291Y-83.201
X113.291Y-144.799
X114.041Y-19.201
X114.041Y-80.799
X114.041Y-83.201
X114.041Y-144.799
X114.791Y-19.201
X114.791Y-80.799
X114.791Y-83.201
X114.791Y-144.799
X115.541Y-19.201
X115.541Y-80.799
X115.541Y-83.201
X115.541Y-144.799
X116.291Y-19.201
X116.291Y-80.799
X116.291Y-83.201
X116.291Y-144.799
X117.041Y-19.201
X117.041Y-80.799
X117.041Y-83.201
X117.041Y-144.799
X144.799Y-46.979
X144.799Y-110.979
X144.799Y-47.729
X144.799Y-111.729
X144.799Y-48.479
X144.799Y-112.479
X144.799Y-49.229
X144.799Y-113.229
X144.799Y-49.979
X144.799Y-113.979
X144.799Y-50.729
X144.799Y-114.729
X144.799Y-51.479
X144.799Y-115.479
X144.799Y-52.229
X144.799Y-116.229
X144.799Y-52.979
X144.799Y-116.979
X144.999Y-10.199
X144.999Y-10.899
X144.999Y-11.599
X144.999Y-12.299
X144.999Y-12.999
X144.999Y-13.7
X144.999Y-14.4
X144.999Y-15.1
X144.999Y-15.8
X144.999Y-148.2
X144.999Y-148.9
X144.999Y-149.6
X144.999Y-150.3
X144.999Y-151.0
X144.999Y-151.701
X144.999Y-152.401
X144.999Y-153.101
X144.999Y-153.801
X148.198Y-19.001
X148.198Y-144.999
X148.898Y-19.001
X148.898Y-144.999
X149.598Y-19.001
X149.598Y-144.999
X150.298Y-19.001
X150.298Y-144.999
X150.998Y-19.001
X150.998Y-144.999
X151.699Y-19.001
X151.699Y-144.999
X152.399Y-19.001
X152.399Y-144.999
X153.099Y-19.001
X153.099Y-144.999
X153.799Y-19.001
X153.799Y-144.999
T8
X13.001Y-12.999
X13.001Y-151.001
X150.999Y-12.999
T9
X22.816Y-30.919
X22.816Y-49.969
X22.816Y-69.019
X22.816Y-94.919
X22.816Y-113.969
X22.816Y-133.019
X32.976Y-30.919
X32.976Y-49.969
X32.976Y-69.019
X32.976Y-94.919
X32.976Y-113.969
X32.976Y-133.019
X41.866Y-30.919
X41.866Y-49.969
X41.866Y-69.019
X41.866Y-94.919
X41.866Y-113.969
X41.866Y-133.019
X52.026Y-30.919
X52.026Y-49.969
X52.026Y-69.019
X52.026Y-94.919
X52.026Y-113.969
X52.026Y-133.019
X67.016Y-49.969
X67.016Y-69.019
X67.016Y-113.969
X67.016Y-133.019
X77.176Y-49.969
X77.176Y-69.019
X77.176Y-113.969
X77.176Y-133.019
X86.816Y-30.919
X86.816Y-49.969
X86.816Y-69.019
X86.816Y-94.919
X86.816Y-113.969
X86.816Y-133.019
X96.976Y-30.919
X96.976Y-49.969
X96.976Y-69.019
X96.976Y-94.919
X96.976Y-113.969
X96.976Y-133.019
X105.866Y-30.919
X105.866Y-49.969
X105.866Y-69.019
X105.866Y-94.919
X105.866Y-113.969
X105.866Y-133.019
X116.026Y-30.919
X116.026Y-49.969
X116.026Y-69.019
X116.026Y-94.919
X116.026Y-113.969
X116.026Y-133.019
X131.016Y-49.969
X131.016Y-69.019
X131.016Y-113.969
X131.016Y-133.019
X141.176Y-49.969
X141.176Y-69.019
X141.176Y-113.969
X141.176Y-133.019
T10
X27.896Y-30.919
X27.896Y-49.969
X27.896Y-69.019
X27.896Y-94.919
X27.896Y-113.969
X27.896Y-133.019
X46.946Y-30.919
X46.946Y-49.969
X46.946Y-69.019
X46.946Y-94.919
X46.946Y-113.969
X46.946Y-133.019
X72.096Y-49.969
X72.096Y-69.019
X72.096Y-113.969
X72.096Y-133.019
X91.896Y-30.919
X91.896Y-49.969
X91.896Y-69.019
X91.896Y-94.919
X91.896Y-113.969
X91.896Y-133.019
X110.946Y-30.919
X110.946Y-49.969
X110.946Y-69.019
X110.946Y-94.919
X110.946Y-113.969
X110.946Y-133.019
X136.096Y-49.969
X136.096Y-69.019
X136.096Y-113.969
X136.096Y-133.019
T4
G00X57.94Y-20.475
M15
G01X57.94Y-21.675
M16
G05
G00X57.94Y-24.675
M15
G01X57.94Y-25.475
M16
G05
G00X57.94Y-84.475
M15
G01X57.94Y-85.675
M16
G05
G00X57.94Y-88.675
M15
G01X57.94Y-89.475
M16
G05
G00X69.18Y-20.475
M15
G01X69.18Y-21.675
M16
G05
G00X69.18Y-24.675
M15
G01X69.18Y-25.475
M16
G05
G00X69.18Y-84.475
M15
G01X69.18Y-85.675
M16
G05
G00X69.18Y-88.675
M15
G01X69.18Y-89.475
M16
G05
G00X121.94Y-20.475
M15
G01X121.94Y-21.675
M16
G05
G00X121.94Y-24.675
M15
G01X121.94Y-25.475
M16
G05
G00X121.94Y-84.475
M15
G01X121.94Y-85.675
M16
G05
G00X121.94Y-88.675
M15
G01X121.94Y-89.475
M16
G05
G00X133.18Y-20.475
M15
G01X133.18Y-21.675
M16
G05
G00X133.18Y-24.675
M15
G01X133.18Y-25.475
M16
G05
G00X133.18Y-84.475
M15
G01X133.18Y-85.675
M16
G05
G00X133.18Y-88.675
M15
G01X133.18Y-89.475
M16
G05
T6
G00X72.496Y-25.319
M15
G01X71.196Y-25.319
M16
G05
G00X72.496Y-36.519
M15
G01X71.196Y-36.519
M16
G05
G00X72.496Y-89.319
M15
G01X71.196Y-89.319
M16
G05
G00X72.496Y-100.519
M15
G01X71.196Y-100.519
M16
G05
G00X136.496Y-25.319
M15
G01X135.196Y-25.319
M16
G05
G00X136.496Y-36.519
M15
G01X135.196Y-36.519
M16
G05
G00X136.496Y-89.319
M15
G01X135.196Y-89.319
M16
G05
G00X136.496Y-100.519
M15
G01X135.196Y-100.519
M16
G05
T0
M30
