%TF.GenerationSoftware,KiCad,Pcbnew,6.0.0*%
%TF.CreationDate,2022-01-09T18:32:07+01:00*%
%TF.ProjectId,panel,70616e65-6c2e-46b6-9963-61645f706362,rev?*%
%TF.SameCoordinates,Original*%
%TF.FileFunction,Paste,Bot*%
%TF.FilePolarity,Positive*%
%FSLAX46Y46*%
G04 Gerber Fmt 4.6, Leading zero omitted, Abs format (unit mm)*
G04 Created by KiCad (PCBNEW 6.0.0) date 2022-01-09 18:32:07*
%MOMM*%
%LPD*%
G01*
G04 APERTURE LIST*
G04 Aperture macros list*
%AMRoundRect*
0 Rectangle with rounded corners*
0 $1 Rounding radius*
0 $2 $3 $4 $5 $6 $7 $8 $9 X,Y pos of 4 corners*
0 Add a 4 corners polygon primitive as box body*
4,1,4,$2,$3,$4,$5,$6,$7,$8,$9,$2,$3,0*
0 Add four circle primitives for the rounded corners*
1,1,$1+$1,$2,$3*
1,1,$1+$1,$4,$5*
1,1,$1+$1,$6,$7*
1,1,$1+$1,$8,$9*
0 Add four rect primitives between the rounded corners*
20,1,$1+$1,$2,$3,$4,$5,0*
20,1,$1+$1,$4,$5,$6,$7,0*
20,1,$1+$1,$6,$7,$8,$9,0*
20,1,$1+$1,$8,$9,$2,$3,0*%
G04 Aperture macros list end*
%ADD10RoundRect,0.082000X-0.718000X0.328000X-0.718000X-0.328000X0.718000X-0.328000X0.718000X0.328000X0*%
%ADD11C,1.500000*%
%ADD12RoundRect,0.200000X-0.275000X0.200000X-0.275000X-0.200000X0.275000X-0.200000X0.275000X0.200000X0*%
%ADD13RoundRect,0.225000X0.225000X0.250000X-0.225000X0.250000X-0.225000X-0.250000X0.225000X-0.250000X0*%
%ADD14RoundRect,0.225000X-0.250000X0.225000X-0.250000X-0.225000X0.250000X-0.225000X0.250000X0.225000X0*%
%ADD15RoundRect,0.170000X-0.330000X0.255000X-0.330000X-0.255000X0.330000X-0.255000X0.330000X0.255000X0*%
%ADD16R,1.500000X1.000000*%
%ADD17RoundRect,0.225000X-0.017678X0.335876X-0.335876X0.017678X0.017678X-0.335876X0.335876X-0.017678X0*%
%ADD18R,1.100000X1.100000*%
%ADD19R,1.700000X1.000000*%
%ADD20RoundRect,0.225000X-0.225000X-0.250000X0.225000X-0.250000X0.225000X0.250000X-0.225000X0.250000X0*%
%ADD21RoundRect,0.200000X0.275000X-0.200000X0.275000X0.200000X-0.275000X0.200000X-0.275000X-0.200000X0*%
%ADD22RoundRect,0.243750X0.243750X0.456250X-0.243750X0.456250X-0.243750X-0.456250X0.243750X-0.456250X0*%
%ADD23R,0.800000X0.500000*%
%ADD24R,0.800000X0.400000*%
%ADD25RoundRect,0.230000X0.063640X0.502046X-0.502046X-0.063640X-0.063640X-0.502046X0.502046X0.063640X0*%
%ADD26RoundRect,0.170000X-0.255000X-0.330000X0.255000X-0.330000X0.255000X0.330000X-0.255000X0.330000X0*%
%ADD27RoundRect,0.150000X-0.150000X0.512500X-0.150000X-0.512500X0.150000X-0.512500X0.150000X0.512500X0*%
%ADD28RoundRect,0.225000X0.250000X-0.225000X0.250000X0.225000X-0.250000X0.225000X-0.250000X-0.225000X0*%
%ADD29RoundRect,0.225000X0.017678X-0.335876X0.335876X-0.017678X-0.017678X0.335876X-0.335876X0.017678X0*%
%ADD30RoundRect,0.250000X0.000000X0.358486X-0.358486X0.000000X0.000000X-0.358486X0.358486X0.000000X0*%
%ADD31RoundRect,0.062500X0.291682X0.380070X-0.380070X-0.291682X-0.291682X-0.380070X0.380070X0.291682X0*%
%ADD32RoundRect,0.062500X-0.291682X0.380070X-0.380070X0.291682X0.291682X-0.380070X0.380070X-0.291682X0*%
G04 APERTURE END LIST*
D10*
%TO.C,D2*%
X108346186Y-35248680D03*
X108346186Y-36748680D03*
X113546186Y-36748680D03*
X113546186Y-35248680D03*
%TD*%
%TO.C,D7*%
X108346186Y-137348688D03*
X108346186Y-138848688D03*
X113546186Y-138848688D03*
X113546186Y-137348688D03*
%TD*%
%TO.C,D6*%
X89296186Y-137348688D03*
X89296186Y-138848688D03*
X94496186Y-138848688D03*
X94496186Y-137348688D03*
%TD*%
%TO.C,D6*%
X89296186Y-73348680D03*
X89296186Y-74848680D03*
X94496186Y-74848680D03*
X94496186Y-73348680D03*
%TD*%
D11*
%TO.C,REF\u002A\u002A*%
X13000934Y-151000999D03*
%TD*%
D10*
%TO.C,D2*%
X108346186Y-99248688D03*
X108346186Y-100748688D03*
X113546186Y-100748688D03*
X113546186Y-99248688D03*
%TD*%
%TO.C,D3*%
X89296186Y-118298688D03*
X89296186Y-119798688D03*
X94496186Y-119798688D03*
X94496186Y-118298688D03*
%TD*%
%TO.C,D3*%
X89296186Y-54298680D03*
X89296186Y-55798680D03*
X94496186Y-55798680D03*
X94496186Y-54298680D03*
%TD*%
%TO.C,D6*%
X25296183Y-137348688D03*
X25296183Y-138848688D03*
X30496183Y-138848688D03*
X30496183Y-137348688D03*
%TD*%
%TO.C,D4*%
X44346183Y-54298680D03*
X44346183Y-55798680D03*
X49546183Y-55798680D03*
X49546183Y-54298680D03*
%TD*%
%TO.C,D4*%
X108346186Y-54298680D03*
X108346186Y-55798680D03*
X113546186Y-55798680D03*
X113546186Y-54298680D03*
%TD*%
%TO.C,D2*%
X44346183Y-35248680D03*
X44346183Y-36748680D03*
X49546183Y-36748680D03*
X49546183Y-35248680D03*
%TD*%
%TO.C,D1*%
X25296183Y-99248688D03*
X25296183Y-100748688D03*
X30496183Y-100748688D03*
X30496183Y-99248688D03*
%TD*%
%TO.C,D1*%
X89296186Y-99248688D03*
X89296186Y-100748688D03*
X94496186Y-100748688D03*
X94496186Y-99248688D03*
%TD*%
%TO.C,D5*%
X69496183Y-54298680D03*
X69496183Y-55798680D03*
X74696183Y-55798680D03*
X74696183Y-54298680D03*
%TD*%
%TO.C,D5*%
X133496186Y-118298688D03*
X133496186Y-119798688D03*
X138696186Y-119798688D03*
X138696186Y-118298688D03*
%TD*%
%TO.C,D6*%
X25296183Y-73348680D03*
X25296183Y-74848680D03*
X30496183Y-74848680D03*
X30496183Y-73348680D03*
%TD*%
%TO.C,D3*%
X25296183Y-118298688D03*
X25296183Y-119798688D03*
X30496183Y-119798688D03*
X30496183Y-118298688D03*
%TD*%
D11*
%TO.C,REF\u002A\u002A*%
X13000934Y-12998932D03*
%TD*%
D10*
%TO.C,D3*%
X25296183Y-54298680D03*
X25296183Y-55798680D03*
X30496183Y-55798680D03*
X30496183Y-54298680D03*
%TD*%
%TO.C,D8*%
X69496183Y-73348680D03*
X69496183Y-74848680D03*
X74696183Y-74848680D03*
X74696183Y-73348680D03*
%TD*%
%TO.C,D2*%
X44346183Y-99248688D03*
X44346183Y-100748688D03*
X49546183Y-100748688D03*
X49546183Y-99248688D03*
%TD*%
%TO.C,D1*%
X25296183Y-35248680D03*
X25296183Y-36748680D03*
X30496183Y-36748680D03*
X30496183Y-35248680D03*
%TD*%
%TO.C,D7*%
X108346186Y-73348680D03*
X108346186Y-74848680D03*
X113546186Y-74848680D03*
X113546186Y-73348680D03*
%TD*%
%TO.C,D7*%
X44346183Y-73348680D03*
X44346183Y-74848680D03*
X49546183Y-74848680D03*
X49546183Y-73348680D03*
%TD*%
%TO.C,D5*%
X133496186Y-54298680D03*
X133496186Y-55798680D03*
X138696186Y-55798680D03*
X138696186Y-54298680D03*
%TD*%
%TO.C,D7*%
X44346183Y-137348688D03*
X44346183Y-138848688D03*
X49546183Y-138848688D03*
X49546183Y-137348688D03*
%TD*%
%TO.C,D8*%
X133496186Y-73348680D03*
X133496186Y-74848680D03*
X138696186Y-74848680D03*
X138696186Y-73348680D03*
%TD*%
%TO.C,D4*%
X108346186Y-118298688D03*
X108346186Y-119798688D03*
X113546186Y-119798688D03*
X113546186Y-118298688D03*
%TD*%
%TO.C,D4*%
X44346183Y-118298688D03*
X44346183Y-119798688D03*
X49546183Y-119798688D03*
X49546183Y-118298688D03*
%TD*%
%TO.C,D8*%
X69496183Y-137348688D03*
X69496183Y-138848688D03*
X74696183Y-138848688D03*
X74696183Y-137348688D03*
%TD*%
D11*
%TO.C,REF\u002A\u002A*%
X150998999Y-12998932D03*
%TD*%
D10*
%TO.C,D1*%
X89296186Y-35248680D03*
X89296186Y-36748680D03*
X94496186Y-36748680D03*
X94496186Y-35248680D03*
%TD*%
%TO.C,D8*%
X133496186Y-137348688D03*
X133496186Y-138848688D03*
X138696186Y-138848688D03*
X138696186Y-137348688D03*
%TD*%
%TO.C,D5*%
X69496183Y-118298688D03*
X69496183Y-119798688D03*
X74696183Y-119798688D03*
X74696183Y-118298688D03*
%TD*%
D12*
%TO.C,R1*%
X67839933Y-26344931D03*
X67839933Y-27994931D03*
%TD*%
D13*
%TO.C,C8*%
X55289933Y-107824939D03*
X53739933Y-107824939D03*
%TD*%
D14*
%TO.C,C6*%
X23314933Y-99249939D03*
X23314933Y-100799939D03*
%TD*%
D15*
%TO.C,FB1*%
X120474936Y-87444939D03*
X120474936Y-89044939D03*
%TD*%
D16*
%TO.C,D12*%
X124114936Y-125093689D03*
X124114936Y-121893689D03*
X129014936Y-121893689D03*
X129014936Y-125093689D03*
%TD*%
D13*
%TO.C,C5*%
X119489936Y-97674939D03*
X117939936Y-97674939D03*
%TD*%
D17*
%TO.C,C11*%
X132992944Y-51396923D03*
X131896928Y-52492939D03*
%TD*%
D18*
%TO.C,D9*%
X117929936Y-88409939D03*
X117929936Y-91209939D03*
%TD*%
D19*
%TO.C,SW1*%
X126714936Y-137649939D03*
X120414936Y-137649939D03*
X126714936Y-141449939D03*
X120414936Y-141449939D03*
%TD*%
D20*
%TO.C,C9*%
X62889933Y-108024939D03*
X64439933Y-108024939D03*
%TD*%
D21*
%TO.C,R4*%
X125049936Y-99604939D03*
X125049936Y-97954939D03*
%TD*%
D13*
%TO.C,C8*%
X119289936Y-107824939D03*
X117739936Y-107824939D03*
%TD*%
D15*
%TO.C,FB1*%
X120474936Y-23444931D03*
X120474936Y-25044931D03*
%TD*%
D22*
%TO.C,F1*%
X121747436Y-91239939D03*
X119872436Y-91239939D03*
%TD*%
D19*
%TO.C,SW1*%
X62714933Y-137649939D03*
X56414933Y-137649939D03*
X56414933Y-141449939D03*
X62714933Y-141449939D03*
%TD*%
D13*
%TO.C,C10*%
X119289936Y-45324931D03*
X117739936Y-45324931D03*
%TD*%
D12*
%TO.C,R1*%
X131839936Y-90344939D03*
X131839936Y-91994939D03*
%TD*%
D20*
%TO.C,C9*%
X62889933Y-44024931D03*
X64439933Y-44024931D03*
%TD*%
D23*
%TO.C,RN1*%
X73827433Y-32118681D03*
D24*
X73827433Y-31318681D03*
X73827433Y-30518681D03*
D23*
X73827433Y-29718681D03*
X75627433Y-29718681D03*
D24*
X75627433Y-30518681D03*
X75627433Y-31318681D03*
D23*
X75627433Y-32118681D03*
%TD*%
D13*
%TO.C,C7*%
X55289933Y-42324931D03*
X53739933Y-42324931D03*
%TD*%
%TO.C,C3*%
X119464936Y-96149939D03*
X117914936Y-96149939D03*
%TD*%
D14*
%TO.C,C6*%
X87314936Y-35249931D03*
X87314936Y-36799931D03*
%TD*%
D25*
%TO.C,Y1*%
X66833791Y-53458154D03*
X65278156Y-55013789D03*
X64076075Y-53811708D03*
X65631710Y-52256073D03*
%TD*%
D19*
%TO.C,SW1*%
X120414936Y-73649931D03*
X126714936Y-73649931D03*
X120414936Y-77449931D03*
X126714936Y-77449931D03*
%TD*%
D14*
%TO.C,C12*%
X23364933Y-118249939D03*
X23364933Y-119799939D03*
%TD*%
D16*
%TO.C,D11*%
X98971186Y-42043681D03*
X98971186Y-38843681D03*
X103871186Y-38843681D03*
X103871186Y-42043681D03*
%TD*%
D13*
%TO.C,C10*%
X119289936Y-109324939D03*
X117739936Y-109324939D03*
%TD*%
D12*
%TO.C,R6*%
X53764933Y-110749939D03*
X53764933Y-112399939D03*
%TD*%
D16*
%TO.C,D12*%
X60114933Y-61093681D03*
X60114933Y-57893681D03*
X65014933Y-57893681D03*
X65014933Y-61093681D03*
%TD*%
D17*
%TO.C,C11*%
X132992944Y-115396931D03*
X131896928Y-116492947D03*
%TD*%
D14*
%TO.C,C4*%
X136384936Y-31629931D03*
X136384936Y-33179931D03*
%TD*%
D25*
%TO.C,Y1*%
X130833794Y-53458154D03*
X129278159Y-55013789D03*
X128076078Y-53811708D03*
X129631713Y-52256073D03*
%TD*%
D26*
%TO.C,FB2*%
X53899933Y-94589939D03*
X55499933Y-94589939D03*
%TD*%
D27*
%TO.C,U2*%
X60859933Y-94062439D03*
X61809933Y-94062439D03*
X62759933Y-94062439D03*
X62759933Y-96337439D03*
X61809933Y-96337439D03*
X60859933Y-96337439D03*
%TD*%
D14*
%TO.C,C14*%
X87314936Y-137299939D03*
X87314936Y-138849939D03*
%TD*%
D28*
%TO.C,C2*%
X72384933Y-94189939D03*
X72384933Y-92639939D03*
%TD*%
D13*
%TO.C,C7*%
X55289933Y-106324939D03*
X53739933Y-106324939D03*
%TD*%
D16*
%TO.C,D12*%
X60114933Y-125093689D03*
X60114933Y-121893689D03*
X65014933Y-121893689D03*
X65014933Y-125093689D03*
%TD*%
%TO.C,D11*%
X98971186Y-106043689D03*
X98971186Y-102843689D03*
X103871186Y-102843689D03*
X103871186Y-106043689D03*
%TD*%
D29*
%TO.C,C13*%
X125936928Y-119922947D03*
X127032944Y-118826931D03*
%TD*%
D13*
%TO.C,C5*%
X119489936Y-33674931D03*
X117939936Y-33674931D03*
%TD*%
D20*
%TO.C,C1*%
X117914936Y-29009931D03*
X119464936Y-29009931D03*
%TD*%
D21*
%TO.C,R2*%
X123289936Y-27969931D03*
X123289936Y-26319931D03*
%TD*%
D14*
%TO.C,C4*%
X136384936Y-95629939D03*
X136384936Y-97179939D03*
%TD*%
D15*
%TO.C,FB1*%
X56474933Y-23444931D03*
X56474933Y-25044931D03*
%TD*%
D21*
%TO.C,R2*%
X123289936Y-91969939D03*
X123289936Y-90319939D03*
%TD*%
D29*
%TO.C,C13*%
X61936925Y-55922939D03*
X63032941Y-54826923D03*
%TD*%
D28*
%TO.C,C2*%
X136384936Y-94189939D03*
X136384936Y-92639939D03*
%TD*%
D16*
%TO.C,D11*%
X34971183Y-42043681D03*
X34971183Y-38843681D03*
X39871183Y-38843681D03*
X39871183Y-42043681D03*
%TD*%
D22*
%TO.C,F1*%
X121747436Y-27239931D03*
X119872436Y-27239931D03*
%TD*%
D21*
%TO.C,R5*%
X138189936Y-37574931D03*
X138189936Y-35924931D03*
%TD*%
%TO.C,R4*%
X125049936Y-35604931D03*
X125049936Y-33954931D03*
%TD*%
D13*
%TO.C,C7*%
X119289936Y-106324939D03*
X117739936Y-106324939D03*
%TD*%
%TO.C,C10*%
X55289933Y-109324939D03*
X53739933Y-109324939D03*
%TD*%
D21*
%TO.C,R4*%
X61049933Y-35604931D03*
X61049933Y-33954931D03*
%TD*%
%TO.C,R3*%
X62559933Y-99604939D03*
X62559933Y-97954939D03*
%TD*%
D13*
%TO.C,C7*%
X119289936Y-42324931D03*
X117739936Y-42324931D03*
%TD*%
D29*
%TO.C,C13*%
X125936928Y-55922939D03*
X127032944Y-54826923D03*
%TD*%
D14*
%TO.C,C14*%
X87314936Y-73299931D03*
X87314936Y-74849931D03*
%TD*%
D23*
%TO.C,RN1*%
X137827436Y-96118689D03*
D24*
X137827436Y-95318689D03*
X137827436Y-94518689D03*
D23*
X137827436Y-93718689D03*
X139627436Y-93718689D03*
D24*
X139627436Y-94518689D03*
X139627436Y-95318689D03*
D23*
X139627436Y-96118689D03*
%TD*%
D27*
%TO.C,U2*%
X60859933Y-30062431D03*
X61809933Y-30062431D03*
X62759933Y-30062431D03*
X62759933Y-32337431D03*
X61809933Y-32337431D03*
X60859933Y-32337431D03*
%TD*%
D16*
%TO.C,D13*%
X34971183Y-61093681D03*
X34971183Y-57893681D03*
X39871183Y-57893681D03*
X39871183Y-61093681D03*
%TD*%
D21*
%TO.C,R4*%
X61049933Y-99604939D03*
X61049933Y-97954939D03*
%TD*%
D23*
%TO.C,RN1*%
X73827433Y-96118689D03*
D24*
X73827433Y-95318689D03*
X73827433Y-94518689D03*
D23*
X73827433Y-93718689D03*
X75627433Y-93718689D03*
D24*
X75627433Y-94518689D03*
X75627433Y-95318689D03*
D23*
X75627433Y-96118689D03*
%TD*%
D21*
%TO.C,R2*%
X59289933Y-91969939D03*
X59289933Y-90319939D03*
%TD*%
D14*
%TO.C,C14*%
X23314933Y-137299939D03*
X23314933Y-138849939D03*
%TD*%
D13*
%TO.C,C8*%
X55289933Y-43824931D03*
X53739933Y-43824931D03*
%TD*%
D20*
%TO.C,C9*%
X126889936Y-44024931D03*
X128439936Y-44024931D03*
%TD*%
D27*
%TO.C,U2*%
X124859936Y-30062431D03*
X125809936Y-30062431D03*
X126759936Y-30062431D03*
X126759936Y-32337431D03*
X125809936Y-32337431D03*
X124859936Y-32337431D03*
%TD*%
D16*
%TO.C,D12*%
X124114936Y-61093681D03*
X124114936Y-57893681D03*
X129014936Y-57893681D03*
X129014936Y-61093681D03*
%TD*%
D13*
%TO.C,C3*%
X55464933Y-96149939D03*
X53914933Y-96149939D03*
%TD*%
D21*
%TO.C,R5*%
X138189936Y-101574939D03*
X138189936Y-99924939D03*
%TD*%
D16*
%TO.C,D10*%
X60114933Y-106024939D03*
X60114933Y-102824939D03*
X65014933Y-102824939D03*
X65014933Y-106024939D03*
%TD*%
D20*
%TO.C,C1*%
X117914936Y-93009939D03*
X119464936Y-93009939D03*
%TD*%
D25*
%TO.C,Y1*%
X130833794Y-117458162D03*
X129278159Y-119013797D03*
X128076078Y-117811716D03*
X129631713Y-116256081D03*
%TD*%
D12*
%TO.C,R6*%
X53764933Y-46749931D03*
X53764933Y-48399931D03*
%TD*%
D17*
%TO.C,C11*%
X68992941Y-115396931D03*
X67896925Y-116492947D03*
%TD*%
D21*
%TO.C,R3*%
X126559936Y-99604939D03*
X126559936Y-97954939D03*
%TD*%
D13*
%TO.C,C3*%
X119464936Y-32149931D03*
X117914936Y-32149931D03*
%TD*%
%TO.C,C3*%
X55464933Y-32149931D03*
X53914933Y-32149931D03*
%TD*%
D21*
%TO.C,R3*%
X126559936Y-35604931D03*
X126559936Y-33954931D03*
%TD*%
D30*
%TO.C,U3*%
X59064083Y-48435781D03*
X57402382Y-48435781D03*
X62387484Y-48435781D03*
X59894933Y-45943230D03*
X59064083Y-46774080D03*
X59894933Y-49266631D03*
X60725783Y-50097482D03*
X59894933Y-50928332D03*
X61556634Y-47604931D03*
X59894933Y-47604931D03*
X61556634Y-49266631D03*
X60725783Y-48435781D03*
X60725783Y-46774080D03*
X58233232Y-49266631D03*
X59064083Y-50097482D03*
X58233232Y-47604931D03*
D31*
X60487135Y-44308045D03*
X60840688Y-44661599D03*
X61194242Y-45015152D03*
X61547795Y-45368705D03*
X61901348Y-45722259D03*
X62254902Y-46075812D03*
X62608455Y-46429366D03*
X62962009Y-46782919D03*
X63315562Y-47136472D03*
X63669115Y-47490026D03*
X64022669Y-47843579D03*
D32*
X64022669Y-49027983D03*
X63669115Y-49381536D03*
X63315562Y-49735090D03*
X62962009Y-50088643D03*
X62608455Y-50442196D03*
X62254902Y-50795750D03*
X61901348Y-51149303D03*
X61547795Y-51502857D03*
X61194242Y-51856410D03*
X60840688Y-52209963D03*
X60487135Y-52563517D03*
D31*
X59302731Y-52563517D03*
X58949178Y-52209963D03*
X58595624Y-51856410D03*
X58242071Y-51502857D03*
X57888518Y-51149303D03*
X57534964Y-50795750D03*
X57181411Y-50442196D03*
X56827857Y-50088643D03*
X56474304Y-49735090D03*
X56120751Y-49381536D03*
X55767197Y-49027983D03*
D32*
X55767197Y-47843579D03*
X56120751Y-47490026D03*
X56474304Y-47136472D03*
X56827857Y-46782919D03*
X57181411Y-46429366D03*
X57534964Y-46075812D03*
X57888518Y-45722259D03*
X58242071Y-45368705D03*
X58595624Y-45015152D03*
X58949178Y-44661599D03*
X59302731Y-44308045D03*
%TD*%
D26*
%TO.C,FB2*%
X117899936Y-30589931D03*
X119499936Y-30589931D03*
%TD*%
D29*
%TO.C,C13*%
X61936925Y-119922947D03*
X63032941Y-118826931D03*
%TD*%
D22*
%TO.C,F1*%
X57747433Y-91239939D03*
X55872433Y-91239939D03*
%TD*%
D16*
%TO.C,D10*%
X124114936Y-106024939D03*
X124114936Y-102824939D03*
X129014936Y-102824939D03*
X129014936Y-106024939D03*
%TD*%
D28*
%TO.C,C2*%
X72384933Y-30189931D03*
X72384933Y-28639931D03*
%TD*%
D13*
%TO.C,C10*%
X55289933Y-45324931D03*
X53739933Y-45324931D03*
%TD*%
D14*
%TO.C,C6*%
X87314936Y-99249939D03*
X87314936Y-100799939D03*
%TD*%
%TO.C,C6*%
X23314933Y-35249931D03*
X23314933Y-36799931D03*
%TD*%
D23*
%TO.C,RN1*%
X137827436Y-32118681D03*
D24*
X137827436Y-31318681D03*
X137827436Y-30518681D03*
D23*
X137827436Y-29718681D03*
X139627436Y-29718681D03*
D24*
X139627436Y-30518681D03*
X139627436Y-31318681D03*
D23*
X139627436Y-32118681D03*
%TD*%
D20*
%TO.C,C1*%
X53914933Y-29009931D03*
X55464933Y-29009931D03*
%TD*%
D21*
%TO.C,R5*%
X74189933Y-37574931D03*
X74189933Y-35924931D03*
%TD*%
%TO.C,R5*%
X74189933Y-101574939D03*
X74189933Y-99924939D03*
%TD*%
D16*
%TO.C,D11*%
X34971183Y-106043689D03*
X34971183Y-102843689D03*
X39871183Y-102843689D03*
X39871183Y-106043689D03*
%TD*%
D18*
%TO.C,D9*%
X117929936Y-24409931D03*
X117929936Y-27209931D03*
%TD*%
D25*
%TO.C,Y1*%
X66833791Y-117458162D03*
X65278156Y-119013797D03*
X64076075Y-117811716D03*
X65631710Y-116256081D03*
%TD*%
D19*
%TO.C,SW1*%
X56414933Y-73649931D03*
X62714933Y-73649931D03*
X56414933Y-77449931D03*
X62714933Y-77449931D03*
%TD*%
D14*
%TO.C,C12*%
X87364936Y-54249931D03*
X87364936Y-55799931D03*
%TD*%
D13*
%TO.C,C5*%
X55489933Y-33674931D03*
X53939933Y-33674931D03*
%TD*%
D12*
%TO.C,R6*%
X117764936Y-110749939D03*
X117764936Y-112399939D03*
%TD*%
D13*
%TO.C,C5*%
X55489933Y-97674939D03*
X53939933Y-97674939D03*
%TD*%
D21*
%TO.C,R2*%
X59289933Y-27969931D03*
X59289933Y-26319931D03*
%TD*%
D15*
%TO.C,FB1*%
X56474933Y-87444939D03*
X56474933Y-89044939D03*
%TD*%
D13*
%TO.C,C8*%
X119289936Y-43824931D03*
X117739936Y-43824931D03*
%TD*%
D12*
%TO.C,R1*%
X131839936Y-26344931D03*
X131839936Y-27994931D03*
%TD*%
D16*
%TO.C,D10*%
X60114933Y-42024931D03*
X60114933Y-38824931D03*
X65014933Y-38824931D03*
X65014933Y-42024931D03*
%TD*%
D14*
%TO.C,C14*%
X23314933Y-73299931D03*
X23314933Y-74849931D03*
%TD*%
D30*
%TO.C,U3*%
X123894936Y-109943238D03*
X122233235Y-111604939D03*
X122233235Y-113266639D03*
X123894936Y-111604939D03*
X125556637Y-113266639D03*
X121402385Y-112435789D03*
X124725786Y-114097490D03*
X124725786Y-112435789D03*
X123894936Y-114928340D03*
X124725786Y-110774088D03*
X123894936Y-113266639D03*
X123064086Y-114097490D03*
X125556637Y-111604939D03*
X126387487Y-112435789D03*
X123064086Y-110774088D03*
X123064086Y-112435789D03*
D31*
X124487138Y-108308053D03*
X124840691Y-108661607D03*
X125194245Y-109015160D03*
X125547798Y-109368713D03*
X125901351Y-109722267D03*
X126254905Y-110075820D03*
X126608458Y-110429374D03*
X126962012Y-110782927D03*
X127315565Y-111136480D03*
X127669118Y-111490034D03*
X128022672Y-111843587D03*
D32*
X128022672Y-113027991D03*
X127669118Y-113381544D03*
X127315565Y-113735098D03*
X126962012Y-114088651D03*
X126608458Y-114442204D03*
X126254905Y-114795758D03*
X125901351Y-115149311D03*
X125547798Y-115502865D03*
X125194245Y-115856418D03*
X124840691Y-116209971D03*
X124487138Y-116563525D03*
D31*
X123302734Y-116563525D03*
X122949181Y-116209971D03*
X122595627Y-115856418D03*
X122242074Y-115502865D03*
X121888521Y-115149311D03*
X121534967Y-114795758D03*
X121181414Y-114442204D03*
X120827860Y-114088651D03*
X120474307Y-113735098D03*
X120120754Y-113381544D03*
X119767200Y-113027991D03*
D32*
X119767200Y-111843587D03*
X120120754Y-111490034D03*
X120474307Y-111136480D03*
X120827860Y-110782927D03*
X121181414Y-110429374D03*
X121534967Y-110075820D03*
X121888521Y-109722267D03*
X122242074Y-109368713D03*
X122595627Y-109015160D03*
X122949181Y-108661607D03*
X123302734Y-108308053D03*
%TD*%
D14*
%TO.C,C12*%
X87364936Y-118249939D03*
X87364936Y-119799939D03*
%TD*%
D21*
%TO.C,R3*%
X62559933Y-35604931D03*
X62559933Y-33954931D03*
%TD*%
D14*
%TO.C,C12*%
X23364933Y-54249931D03*
X23364933Y-55799931D03*
%TD*%
D16*
%TO.C,D13*%
X98971186Y-61093681D03*
X98971186Y-57893681D03*
X103871186Y-57893681D03*
X103871186Y-61093681D03*
%TD*%
D12*
%TO.C,R1*%
X67839933Y-90344939D03*
X67839933Y-91994939D03*
%TD*%
D30*
%TO.C,U3*%
X123064086Y-50097482D03*
X123894936Y-50928332D03*
X123894936Y-45943230D03*
X124725786Y-50097482D03*
X122233235Y-49266631D03*
X121402385Y-48435781D03*
X125556637Y-49266631D03*
X123064086Y-48435781D03*
X123894936Y-49266631D03*
X122233235Y-47604931D03*
X124725786Y-46774080D03*
X124725786Y-48435781D03*
X126387487Y-48435781D03*
X123064086Y-46774080D03*
X125556637Y-47604931D03*
X123894936Y-47604931D03*
D31*
X124487138Y-44308045D03*
X124840691Y-44661599D03*
X125194245Y-45015152D03*
X125547798Y-45368705D03*
X125901351Y-45722259D03*
X126254905Y-46075812D03*
X126608458Y-46429366D03*
X126962012Y-46782919D03*
X127315565Y-47136472D03*
X127669118Y-47490026D03*
X128022672Y-47843579D03*
D32*
X128022672Y-49027983D03*
X127669118Y-49381536D03*
X127315565Y-49735090D03*
X126962012Y-50088643D03*
X126608458Y-50442196D03*
X126254905Y-50795750D03*
X125901351Y-51149303D03*
X125547798Y-51502857D03*
X125194245Y-51856410D03*
X124840691Y-52209963D03*
X124487138Y-52563517D03*
D31*
X123302734Y-52563517D03*
X122949181Y-52209963D03*
X122595627Y-51856410D03*
X122242074Y-51502857D03*
X121888521Y-51149303D03*
X121534967Y-50795750D03*
X121181414Y-50442196D03*
X120827860Y-50088643D03*
X120474307Y-49735090D03*
X120120754Y-49381536D03*
X119767200Y-49027983D03*
D32*
X119767200Y-47843579D03*
X120120754Y-47490026D03*
X120474307Y-47136472D03*
X120827860Y-46782919D03*
X121181414Y-46429366D03*
X121534967Y-46075812D03*
X121888521Y-45722259D03*
X122242074Y-45368705D03*
X122595627Y-45015152D03*
X122949181Y-44661599D03*
X123302734Y-44308045D03*
%TD*%
D20*
%TO.C,C1*%
X53914933Y-93009939D03*
X55464933Y-93009939D03*
%TD*%
D26*
%TO.C,FB2*%
X53899933Y-30589931D03*
X55499933Y-30589931D03*
%TD*%
D22*
%TO.C,F1*%
X57747433Y-27239931D03*
X55872433Y-27239931D03*
%TD*%
D17*
%TO.C,C11*%
X68992941Y-51396923D03*
X67896925Y-52492939D03*
%TD*%
D18*
%TO.C,D9*%
X53929933Y-24409931D03*
X53929933Y-27209931D03*
%TD*%
D16*
%TO.C,D10*%
X124114936Y-42024931D03*
X124114936Y-38824931D03*
X129014936Y-38824931D03*
X129014936Y-42024931D03*
%TD*%
D26*
%TO.C,FB2*%
X117899936Y-94589939D03*
X119499936Y-94589939D03*
%TD*%
D30*
%TO.C,U3*%
X59064083Y-110774088D03*
X60725783Y-114097490D03*
X60725783Y-112435789D03*
X59894933Y-114928340D03*
X59064083Y-112435789D03*
X57402382Y-112435789D03*
X58233232Y-113266639D03*
X59064083Y-114097490D03*
X60725783Y-110774088D03*
X61556634Y-113266639D03*
X62387484Y-112435789D03*
X61556634Y-111604939D03*
X59894933Y-111604939D03*
X59894933Y-109943238D03*
X59894933Y-113266639D03*
X58233232Y-111604939D03*
D31*
X60487135Y-108308053D03*
X60840688Y-108661607D03*
X61194242Y-109015160D03*
X61547795Y-109368713D03*
X61901348Y-109722267D03*
X62254902Y-110075820D03*
X62608455Y-110429374D03*
X62962009Y-110782927D03*
X63315562Y-111136480D03*
X63669115Y-111490034D03*
X64022669Y-111843587D03*
D32*
X64022669Y-113027991D03*
X63669115Y-113381544D03*
X63315562Y-113735098D03*
X62962009Y-114088651D03*
X62608455Y-114442204D03*
X62254902Y-114795758D03*
X61901348Y-115149311D03*
X61547795Y-115502865D03*
X61194242Y-115856418D03*
X60840688Y-116209971D03*
X60487135Y-116563525D03*
D31*
X59302731Y-116563525D03*
X58949178Y-116209971D03*
X58595624Y-115856418D03*
X58242071Y-115502865D03*
X57888518Y-115149311D03*
X57534964Y-114795758D03*
X57181411Y-114442204D03*
X56827857Y-114088651D03*
X56474304Y-113735098D03*
X56120751Y-113381544D03*
X55767197Y-113027991D03*
D32*
X55767197Y-111843587D03*
X56120751Y-111490034D03*
X56474304Y-111136480D03*
X56827857Y-110782927D03*
X57181411Y-110429374D03*
X57534964Y-110075820D03*
X57888518Y-109722267D03*
X58242071Y-109368713D03*
X58595624Y-109015160D03*
X58949178Y-108661607D03*
X59302731Y-108308053D03*
%TD*%
D16*
%TO.C,D13*%
X98971186Y-125093689D03*
X98971186Y-121893689D03*
X103871186Y-121893689D03*
X103871186Y-125093689D03*
%TD*%
D27*
%TO.C,U2*%
X124859936Y-94062439D03*
X125809936Y-94062439D03*
X126759936Y-94062439D03*
X126759936Y-96337439D03*
X125809936Y-96337439D03*
X124859936Y-96337439D03*
%TD*%
D14*
%TO.C,C4*%
X72384933Y-31629931D03*
X72384933Y-33179931D03*
%TD*%
D12*
%TO.C,R6*%
X117764936Y-46749931D03*
X117764936Y-48399931D03*
%TD*%
D18*
%TO.C,D9*%
X53929933Y-88409939D03*
X53929933Y-91209939D03*
%TD*%
D16*
%TO.C,D13*%
X34971183Y-125093689D03*
X34971183Y-121893689D03*
X39871183Y-121893689D03*
X39871183Y-125093689D03*
%TD*%
D20*
%TO.C,C9*%
X126889936Y-108024939D03*
X128439936Y-108024939D03*
%TD*%
D14*
%TO.C,C4*%
X72384933Y-95629939D03*
X72384933Y-97179939D03*
%TD*%
D28*
%TO.C,C2*%
X136384936Y-30189931D03*
X136384936Y-28639931D03*
%TD*%
M02*
