%TF.GenerationSoftware,KiCad,Pcbnew,7.0.1*%
%TF.CreationDate,2023-04-24T23:04:33+02:00*%
%TF.ProjectId,pcb,7063622e-6b69-4636-9164-5f7063625858,rev?*%
%TF.SameCoordinates,Original*%
%TF.FileFunction,Copper,L1,Top*%
%TF.FilePolarity,Positive*%
%FSLAX46Y46*%
G04 Gerber Fmt 4.6, Leading zero omitted, Abs format (unit mm)*
G04 Created by KiCad (PCBNEW 7.0.1) date 2023-04-24 23:04:33*
%MOMM*%
%LPD*%
G01*
G04 APERTURE LIST*
G04 Aperture macros list*
%AMRoundRect*
0 Rectangle with rounded corners*
0 $1 Rounding radius*
0 $2 $3 $4 $5 $6 $7 $8 $9 X,Y pos of 4 corners*
0 Add a 4 corners polygon primitive as box body*
4,1,4,$2,$3,$4,$5,$6,$7,$8,$9,$2,$3,0*
0 Add four circle primitives for the rounded corners*
1,1,$1+$1,$2,$3*
1,1,$1+$1,$4,$5*
1,1,$1+$1,$6,$7*
1,1,$1+$1,$8,$9*
0 Add four rect primitives between the rounded corners*
20,1,$1+$1,$2,$3,$4,$5,0*
20,1,$1+$1,$4,$5,$6,$7,0*
20,1,$1+$1,$6,$7,$8,$9,0*
20,1,$1+$1,$8,$9,$2,$3,0*%
G04 Aperture macros list end*
%TA.AperFunction,SMDPad,CuDef*%
%ADD10R,0.300000X3.000000*%
%TD*%
%TA.AperFunction,ComponentPad*%
%ADD11C,2.000000*%
%TD*%
%TA.AperFunction,ComponentPad*%
%ADD12RoundRect,0.500000X0.500000X-0.500000X0.500000X0.500000X-0.500000X0.500000X-0.500000X-0.500000X0*%
%TD*%
%TA.AperFunction,Conductor*%
%ADD13C,0.300000*%
%TD*%
G04 APERTURE END LIST*
D10*
%TO.P,J1,1,Pin_1*%
%TO.N,GND*%
X133394000Y-98020000D03*
%TO.P,J1,2,Pin_2*%
X133894000Y-98020000D03*
%TO.P,J1,3,Pin_3*%
%TO.N,/i2c_sda*%
X134394000Y-98020000D03*
%TO.P,J1,4,Pin_4*%
%TO.N,/i2c_scl*%
X134894000Y-98020000D03*
%TO.P,J1,5,Pin_5*%
%TO.N,/spi_cs*%
X135394000Y-98020000D03*
%TO.P,J1,6,Pin_6*%
%TO.N,/spi_dc*%
X135894000Y-98020000D03*
%TO.P,J1,7,Pin_7*%
%TO.N,/spi_sdo*%
X136394000Y-98020000D03*
%TO.P,J1,8,Pin_8*%
%TO.N,/spi_sdi*%
X136894000Y-98020000D03*
%TO.P,J1,9,Pin_9*%
%TO.N,/spi_rst*%
X137394000Y-98020000D03*
%TO.P,J1,10,Pin_10*%
%TO.N,/misc*%
X137894000Y-98020000D03*
%TO.P,J1,11,Pin_11*%
%TO.N,VCC*%
X138394000Y-98020000D03*
%TO.P,J1,12,Pin_12*%
X138894000Y-98020000D03*
%TD*%
D11*
%TO.P,J2,4,Pin_4*%
%TO.N,/i2c_sda*%
X132304000Y-55118000D03*
%TO.P,J2,3,Pin_3*%
%TO.N,/i2c_scl*%
X134844000Y-55118000D03*
%TO.P,J2,2,Pin_2*%
%TO.N,VCC*%
X137384000Y-55118000D03*
D12*
%TO.P,J2,1,Pin_1*%
%TO.N,GND*%
X139924000Y-55118000D03*
%TD*%
D13*
%TO.N,VCC*%
X138639992Y-96467708D02*
G75*
G03*
X138340000Y-96167708I-299992J8D01*
G01*
X136650000Y-95219749D02*
X136650000Y-56890062D01*
X138640000Y-98020000D02*
X138640000Y-96467708D01*
X136650060Y-95219749D02*
G75*
G03*
X137506886Y-96167708I954740J1749D01*
G01*
X137384020Y-55118020D02*
G75*
G03*
X136650000Y-56890062I1772080J-1772080D01*
G01*
X138340000Y-96167708D02*
X137506886Y-96167708D01*
%TO.N,/i2c_scl*%
X136150015Y-58270970D02*
G75*
G03*
X134844000Y-55118000I-4459015J-30D01*
G01*
%TO.N,/i2c_sda*%
X135650024Y-61897077D02*
G75*
G03*
X132842000Y-55118000I-9587024J-23D01*
G01*
%TO.N,/i2c_scl*%
X135194000Y-96170000D02*
G75*
G03*
X134894000Y-96470000I0J-300000D01*
G01*
%TO.N,/i2c_sda*%
X135150000Y-95630000D02*
G75*
G03*
X134394000Y-96386010I0J-756000D01*
G01*
%TO.N,/i2c_scl*%
X135194000Y-96170000D02*
G75*
G03*
X136150000Y-95214000I0J956000D01*
G01*
%TO.N,/i2c_sda*%
X135150000Y-95630000D02*
G75*
G03*
X135650000Y-95130000I0J500000D01*
G01*
X132842000Y-55118000D02*
X132304000Y-55118000D01*
X134394000Y-98020000D02*
X134394000Y-96386010D01*
X135650000Y-95130000D02*
X135650000Y-61897077D01*
%TO.N,/i2c_scl*%
X136150000Y-95214000D02*
X136150000Y-58270970D01*
X134894000Y-98020000D02*
X134894000Y-96470000D01*
%TD*%
%TA.AperFunction,Conductor*%
%TO.N,GND*%
G36*
X141399392Y-52968972D02*
G01*
X141411433Y-52970025D01*
X141438880Y-52972426D01*
X141439961Y-52972526D01*
X141565771Y-52984918D01*
X141585689Y-52988542D01*
X141650411Y-53005884D01*
X141654185Y-53006961D01*
X141745584Y-53034687D01*
X141761963Y-53040954D01*
X141827852Y-53071679D01*
X141833867Y-53074686D01*
X141866443Y-53092098D01*
X141913048Y-53117010D01*
X141925717Y-53124793D01*
X141986886Y-53167624D01*
X141994427Y-53173345D01*
X142062463Y-53229180D01*
X142071480Y-53237353D01*
X142124645Y-53290518D01*
X142132818Y-53299535D01*
X142188653Y-53367571D01*
X142194374Y-53375112D01*
X142237205Y-53436281D01*
X142244988Y-53448950D01*
X142287307Y-53528122D01*
X142290331Y-53534170D01*
X142321038Y-53600020D01*
X142327317Y-53616430D01*
X142355014Y-53707734D01*
X142356128Y-53711637D01*
X142373454Y-53776300D01*
X142377082Y-53796240D01*
X142389456Y-53921882D01*
X142389581Y-53923223D01*
X142393028Y-53962604D01*
X142393500Y-53973416D01*
X142393500Y-56462584D01*
X142393028Y-56473397D01*
X142389581Y-56512776D01*
X142389456Y-56514116D01*
X142377082Y-56639758D01*
X142373454Y-56659698D01*
X142356128Y-56724361D01*
X142355014Y-56728264D01*
X142327317Y-56819568D01*
X142321038Y-56835978D01*
X142290331Y-56901828D01*
X142287307Y-56907876D01*
X142244988Y-56987048D01*
X142237205Y-56999717D01*
X142194374Y-57060886D01*
X142188653Y-57068427D01*
X142132818Y-57136463D01*
X142124645Y-57145480D01*
X142071480Y-57198645D01*
X142062463Y-57206818D01*
X141994427Y-57262653D01*
X141986886Y-57268374D01*
X141925717Y-57311205D01*
X141913048Y-57318988D01*
X141833876Y-57361307D01*
X141827828Y-57364331D01*
X141761978Y-57395038D01*
X141745568Y-57401317D01*
X141654264Y-57429014D01*
X141650361Y-57430128D01*
X141585698Y-57447454D01*
X141565758Y-57451082D01*
X141440116Y-57463456D01*
X141438776Y-57463581D01*
X141403760Y-57466646D01*
X141399392Y-57467028D01*
X141388584Y-57467500D01*
X140306467Y-57467500D01*
X140134064Y-57497898D01*
X139969552Y-57557776D01*
X139817945Y-57645307D01*
X139683837Y-57757837D01*
X139571307Y-57891945D01*
X139483776Y-58043552D01*
X139423898Y-58208064D01*
X139393500Y-58380467D01*
X139393500Y-96280402D01*
X139375858Y-96344151D01*
X139327953Y-96389760D01*
X139263415Y-96404253D01*
X139200609Y-96383504D01*
X139122230Y-96331132D01*
X139051769Y-96317117D01*
X139052229Y-96314802D01*
X139002562Y-96300493D01*
X138956814Y-96249300D01*
X138894278Y-96119438D01*
X138894278Y-96119437D01*
X138802884Y-96004828D01*
X138770580Y-95979066D01*
X138688278Y-95913430D01*
X138556206Y-95849827D01*
X138413294Y-95817208D01*
X138398488Y-95817208D01*
X137546962Y-95817208D01*
X137521421Y-95814549D01*
X137489375Y-95807803D01*
X137431964Y-95795719D01*
X137407292Y-95787756D01*
X137315611Y-95747151D01*
X137293134Y-95734232D01*
X137279916Y-95724668D01*
X137211900Y-95675452D01*
X137192607Y-95658146D01*
X137125371Y-95583759D01*
X137110095Y-95562817D01*
X137059796Y-95476075D01*
X137049208Y-95452415D01*
X137018045Y-95357109D01*
X137012610Y-95331767D01*
X137006764Y-95277117D01*
X137001202Y-95225125D01*
X137000500Y-95211940D01*
X137000500Y-56893550D01*
X137000695Y-56886596D01*
X137013666Y-56655675D01*
X137015221Y-56641867D01*
X137053385Y-56417267D01*
X137056477Y-56403727D01*
X137059636Y-56392760D01*
X137089958Y-56340568D01*
X137141329Y-56308876D01*
X137201573Y-56305193D01*
X137272757Y-56318500D01*
X137495241Y-56318500D01*
X137495243Y-56318500D01*
X137713940Y-56277618D01*
X137921401Y-56197247D01*
X138110562Y-56080124D01*
X138274981Y-55930236D01*
X138409058Y-55752689D01*
X138508229Y-55553528D01*
X138514351Y-55532014D01*
X138534734Y-55460374D01*
X138569115Y-55339536D01*
X138589643Y-55118000D01*
X138569115Y-54896464D01*
X138546227Y-54816021D01*
X138508230Y-54682473D01*
X138409058Y-54483311D01*
X138274980Y-54305762D01*
X138110562Y-54155875D01*
X137921404Y-54038754D01*
X137860174Y-54015033D01*
X137713940Y-53958382D01*
X137495243Y-53917500D01*
X137272757Y-53917500D01*
X137054059Y-53958382D01*
X137054060Y-53958382D01*
X136846595Y-54038754D01*
X136657437Y-54155875D01*
X136493019Y-54305762D01*
X136358941Y-54483311D01*
X136259769Y-54682473D01*
X136233266Y-54775625D01*
X136200867Y-54830179D01*
X136145724Y-54861564D01*
X136082276Y-54861564D01*
X136027133Y-54830179D01*
X135994734Y-54775625D01*
X135968230Y-54682473D01*
X135869058Y-54483311D01*
X135734980Y-54305762D01*
X135570562Y-54155875D01*
X135381404Y-54038754D01*
X135320174Y-54015033D01*
X135173940Y-53958382D01*
X134955243Y-53917500D01*
X134732757Y-53917500D01*
X134514059Y-53958382D01*
X134514060Y-53958382D01*
X134306595Y-54038754D01*
X134117437Y-54155875D01*
X133953019Y-54305762D01*
X133818941Y-54483311D01*
X133719769Y-54682473D01*
X133693266Y-54775625D01*
X133660867Y-54830179D01*
X133605724Y-54861564D01*
X133542276Y-54861564D01*
X133487133Y-54830179D01*
X133454734Y-54775625D01*
X133428230Y-54682473D01*
X133329058Y-54483311D01*
X133194980Y-54305762D01*
X133030562Y-54155875D01*
X132841404Y-54038754D01*
X132780174Y-54015033D01*
X132633940Y-53958382D01*
X132415243Y-53917500D01*
X132192757Y-53917500D01*
X131974059Y-53958382D01*
X131974060Y-53958382D01*
X131766595Y-54038754D01*
X131577437Y-54155875D01*
X131413019Y-54305762D01*
X131278941Y-54483311D01*
X131179769Y-54682473D01*
X131118885Y-54896462D01*
X131098357Y-55117999D01*
X131118885Y-55339537D01*
X131179769Y-55553526D01*
X131278941Y-55752688D01*
X131413019Y-55930237D01*
X131577437Y-56080124D01*
X131766595Y-56197245D01*
X131766597Y-56197245D01*
X131766599Y-56197247D01*
X131974060Y-56277618D01*
X132192757Y-56318500D01*
X132415241Y-56318500D01*
X132415243Y-56318500D01*
X132633940Y-56277618D01*
X132841401Y-56197247D01*
X133030562Y-56080124D01*
X133049971Y-56062429D01*
X133108776Y-56032559D01*
X133174582Y-56037067D01*
X133228764Y-56074679D01*
X133238154Y-56085946D01*
X133331404Y-56197837D01*
X133336023Y-56203733D01*
X133662252Y-56647084D01*
X133666508Y-56653249D01*
X133965381Y-57115504D01*
X133969256Y-57121914D01*
X134239669Y-57601362D01*
X134243149Y-57607994D01*
X134484127Y-58102905D01*
X134487202Y-58109736D01*
X134697850Y-58618280D01*
X134700506Y-58625283D01*
X134880069Y-59145631D01*
X134882297Y-59152782D01*
X135030111Y-59683005D01*
X135031904Y-59690278D01*
X135147437Y-60228478D01*
X135148787Y-60235846D01*
X135231611Y-60780025D01*
X135232514Y-60787461D01*
X135282332Y-61335660D01*
X135282784Y-61343136D01*
X135299443Y-61894397D01*
X135299500Y-61898143D01*
X135299500Y-95117789D01*
X135297117Y-95141976D01*
X135292932Y-95163020D01*
X135274415Y-95207719D01*
X135269412Y-95215206D01*
X135235206Y-95249412D01*
X135227719Y-95254415D01*
X135183020Y-95272931D01*
X135161976Y-95277117D01*
X135137789Y-95279500D01*
X135053192Y-95279500D01*
X134862522Y-95313120D01*
X134775692Y-95344724D01*
X134680583Y-95379341D01*
X134680581Y-95379341D01*
X134680581Y-95379342D01*
X134512907Y-95476149D01*
X134364592Y-95600602D01*
X134240140Y-95748921D01*
X134143336Y-95916593D01*
X134077116Y-96098534D01*
X134043498Y-96289206D01*
X134043500Y-96362064D01*
X134043500Y-99395500D01*
X134026887Y-99457500D01*
X133981500Y-99502887D01*
X133919500Y-99519500D01*
X133203761Y-99519500D01*
X133184106Y-99517932D01*
X133183807Y-99517884D01*
X133179270Y-99517069D01*
X133107803Y-99502853D01*
X133075707Y-99491724D01*
X133062638Y-99485066D01*
X133050035Y-99477680D01*
X133009865Y-99450839D01*
X132991075Y-99435418D01*
X132978580Y-99422923D01*
X132963162Y-99404137D01*
X132936312Y-99363953D01*
X132928938Y-99351370D01*
X132922274Y-99338291D01*
X132911145Y-99306196D01*
X132896920Y-99234684D01*
X132896032Y-99229673D01*
X132895983Y-99229359D01*
X132894500Y-99210240D01*
X132894500Y-58380467D01*
X132864101Y-58208064D01*
X132864101Y-58208062D01*
X132804225Y-58043555D01*
X132716692Y-57891945D01*
X132604163Y-57757837D01*
X132470055Y-57645308D01*
X132470054Y-57645307D01*
X132318447Y-57557776D01*
X132318446Y-57557775D01*
X132318445Y-57557775D01*
X132153938Y-57497899D01*
X132153937Y-57497898D01*
X132153935Y-57497898D01*
X131981533Y-57467500D01*
X131981532Y-57467500D01*
X131894099Y-57467500D01*
X130899416Y-57467500D01*
X130888606Y-57467028D01*
X130886001Y-57466800D01*
X130849223Y-57463581D01*
X130847882Y-57463456D01*
X130722240Y-57451082D01*
X130702300Y-57447454D01*
X130637637Y-57430128D01*
X130633734Y-57429014D01*
X130542430Y-57401317D01*
X130526020Y-57395038D01*
X130460170Y-57364331D01*
X130454122Y-57361307D01*
X130374950Y-57318988D01*
X130362281Y-57311205D01*
X130301112Y-57268374D01*
X130293571Y-57262653D01*
X130225535Y-57206818D01*
X130216518Y-57198645D01*
X130163353Y-57145480D01*
X130155180Y-57136463D01*
X130099345Y-57068427D01*
X130093624Y-57060886D01*
X130050793Y-56999717D01*
X130043010Y-56987048D01*
X130000691Y-56907876D01*
X129997679Y-56901852D01*
X129966954Y-56835963D01*
X129960687Y-56819584D01*
X129932961Y-56728185D01*
X129931884Y-56724411D01*
X129914542Y-56659689D01*
X129910918Y-56639771D01*
X129898526Y-56513961D01*
X129898417Y-56512776D01*
X129894972Y-56473392D01*
X129894500Y-56462587D01*
X129894500Y-53973412D01*
X129894972Y-53962605D01*
X129898415Y-53923250D01*
X129898540Y-53921904D01*
X129898974Y-53917500D01*
X129910918Y-53796223D01*
X129914540Y-53776316D01*
X129931892Y-53711556D01*
X129932958Y-53707827D01*
X129960689Y-53616411D01*
X129966958Y-53600028D01*
X129997679Y-53534146D01*
X130000662Y-53528180D01*
X130043025Y-53448924D01*
X130050793Y-53436281D01*
X130093624Y-53375112D01*
X130099318Y-53367606D01*
X130155203Y-53299509D01*
X130163336Y-53290536D01*
X130216536Y-53237336D01*
X130225509Y-53229203D01*
X130293606Y-53173318D01*
X130301123Y-53167616D01*
X130362282Y-53124792D01*
X130374924Y-53117025D01*
X130454180Y-53074662D01*
X130460146Y-53071679D01*
X130526028Y-53040958D01*
X130542411Y-53034689D01*
X130633827Y-53006958D01*
X130637556Y-53005892D01*
X130702316Y-52988540D01*
X130722223Y-52984918D01*
X130847927Y-52972537D01*
X130849204Y-52972419D01*
X130888605Y-52968971D01*
X130899412Y-52968500D01*
X141388587Y-52968500D01*
X141399392Y-52968972D01*
G37*
%TD.AperFunction*%
%TD*%
%TA.AperFunction,NonConductor*%
G36*
X136200867Y-55405820D02*
G01*
X136233266Y-55460374D01*
X136259769Y-55553526D01*
X136358941Y-55752688D01*
X136432963Y-55850709D01*
X136456091Y-55903708D01*
X136452669Y-55961432D01*
X136381774Y-56195133D01*
X136349644Y-56356651D01*
X136322316Y-56412991D01*
X136270945Y-56448794D01*
X136208629Y-56454931D01*
X136151259Y-56429837D01*
X136113467Y-56379913D01*
X136062092Y-56255883D01*
X135890515Y-55919146D01*
X135868754Y-55883635D01*
X135851886Y-55837452D01*
X135854293Y-55788340D01*
X135865995Y-55764000D01*
X135863936Y-55762975D01*
X135968230Y-55553526D01*
X135994734Y-55460374D01*
X136027133Y-55405820D01*
X136082275Y-55374435D01*
X136145725Y-55374435D01*
X136200867Y-55405820D01*
G37*
%TD.AperFunction*%
%TA.AperFunction,NonConductor*%
G36*
X135233265Y-56277760D02*
G01*
X135280317Y-56300664D01*
X135313729Y-56340935D01*
X135340707Y-56392760D01*
X135412072Y-56529850D01*
X135416644Y-56539654D01*
X135549663Y-56860787D01*
X135553363Y-56870952D01*
X135657887Y-57202455D01*
X135660687Y-57212904D01*
X135735923Y-57552262D01*
X135737801Y-57562915D01*
X135783172Y-57907525D01*
X135784115Y-57918301D01*
X135799382Y-58267926D01*
X135799500Y-58273336D01*
X135799500Y-58924794D01*
X135780036Y-58991489D01*
X135727754Y-59037246D01*
X135659067Y-59047700D01*
X135595540Y-59019569D01*
X135557115Y-58961685D01*
X135461216Y-58653938D01*
X135449006Y-58621743D01*
X135248247Y-58092393D01*
X135248243Y-58092384D01*
X135001764Y-57544737D01*
X134722667Y-57012970D01*
X134706996Y-56987048D01*
X134411968Y-56499018D01*
X134392297Y-56470520D01*
X134371429Y-56416426D01*
X134377435Y-56358757D01*
X134409002Y-56310123D01*
X134459228Y-56281157D01*
X134517126Y-56278191D01*
X134732757Y-56318500D01*
X134955239Y-56318500D01*
X134955243Y-56318500D01*
X135173940Y-56277618D01*
X135173948Y-56277614D01*
X135180955Y-56276305D01*
X135233265Y-56277760D01*
G37*
%TD.AperFunction*%
%TA.AperFunction,NonConductor*%
G36*
X136464924Y-95887082D02*
G01*
X136495572Y-95920414D01*
X136497625Y-95918843D01*
X136633334Y-96096074D01*
X136642985Y-96105144D01*
X136675008Y-96154270D01*
X136680876Y-96212617D01*
X136659277Y-96267136D01*
X136615042Y-96305634D01*
X136558063Y-96319500D01*
X136235533Y-96319500D01*
X136179238Y-96305985D01*
X136135215Y-96268385D01*
X136113060Y-96214898D01*
X136117602Y-96157182D01*
X136147852Y-96107819D01*
X136190538Y-96065132D01*
X136190542Y-96065128D01*
X136297226Y-95918288D01*
X136345082Y-95878821D01*
X136406070Y-95867471D01*
X136464924Y-95887082D01*
G37*
%TD.AperFunction*%
%TA.AperFunction,Conductor*%
%TO.N,VCC*%
G36*
X138876000Y-96536613D02*
G01*
X138921387Y-96582000D01*
X138938000Y-96644000D01*
X138938000Y-99395500D01*
X138921387Y-99457500D01*
X138876000Y-99502887D01*
X138814000Y-99519500D01*
X138554000Y-99519500D01*
X138492000Y-99502887D01*
X138446613Y-99457500D01*
X138430000Y-99395500D01*
X138430000Y-96644000D01*
X138446613Y-96582000D01*
X138492000Y-96536613D01*
X138554000Y-96520000D01*
X138814000Y-96520000D01*
X138876000Y-96536613D01*
G37*
%TD.AperFunction*%
%TD*%
M02*
