%TF.GenerationSoftware,KiCad,Pcbnew,7.0.4*%
%TF.CreationDate,2023-05-29T14:02:58+02:00*%
%TF.ProjectId,pcb,7063622e-6b69-4636-9164-5f7063625858,rev?*%
%TF.SameCoordinates,Original*%
%TF.FileFunction,Soldermask,Top*%
%TF.FilePolarity,Negative*%
%FSLAX46Y46*%
G04 Gerber Fmt 4.6, Leading zero omitted, Abs format (unit mm)*
G04 Created by KiCad (PCBNEW 7.0.4) date 2023-05-29 14:02:58*
%MOMM*%
%LPD*%
G01*
G04 APERTURE LIST*
G04 Aperture macros list*
%AMRoundRect*
0 Rectangle with rounded corners*
0 $1 Rounding radius*
0 $2 $3 $4 $5 $6 $7 $8 $9 X,Y pos of 4 corners*
0 Add a 4 corners polygon primitive as box body*
4,1,4,$2,$3,$4,$5,$6,$7,$8,$9,$2,$3,0*
0 Add four circle primitives for the rounded corners*
1,1,$1+$1,$2,$3*
1,1,$1+$1,$4,$5*
1,1,$1+$1,$6,$7*
1,1,$1+$1,$8,$9*
0 Add four rect primitives between the rounded corners*
20,1,$1+$1,$2,$3,$4,$5,0*
20,1,$1+$1,$4,$5,$6,$7,0*
20,1,$1+$1,$6,$7,$8,$9,0*
20,1,$1+$1,$8,$9,$2,$3,0*%
G04 Aperture macros list end*
%ADD10C,0.300000*%
%ADD11R,0.300000X3.000000*%
%ADD12RoundRect,0.500000X0.500000X-0.500000X0.500000X0.500000X-0.500000X0.500000X-0.500000X-0.500000X0*%
%ADD13C,2.000000*%
G04 APERTURE END LIST*
D10*
G36*
X137984103Y-69965584D02*
G01*
X137612976Y-69403581D01*
X137969448Y-69403581D01*
X138193297Y-69779837D01*
X138418977Y-69403581D01*
X138775450Y-69403581D01*
X138399926Y-69972911D01*
X138792303Y-70552500D01*
X138435830Y-70552500D01*
X138193297Y-70164153D01*
X137950397Y-70552500D01*
X137593925Y-70552500D01*
X137984103Y-69965584D01*
G37*
G36*
X138351200Y-71801582D02*
G01*
X138328594Y-71802131D01*
X138306664Y-71803780D01*
X138285409Y-71806528D01*
X138264830Y-71810375D01*
X138244926Y-71815321D01*
X138225698Y-71821366D01*
X138207145Y-71828510D01*
X138189267Y-71836753D01*
X138172065Y-71846095D01*
X138155539Y-71856536D01*
X138139688Y-71868077D01*
X138124512Y-71880717D01*
X138110012Y-71894455D01*
X138096188Y-71909293D01*
X138083039Y-71925230D01*
X138070565Y-71942266D01*
X138058809Y-71960210D01*
X138047811Y-71978965D01*
X138037571Y-71998530D01*
X138028090Y-72018905D01*
X138019367Y-72040089D01*
X138011403Y-72062084D01*
X138004197Y-72084889D01*
X137997750Y-72108504D01*
X137992062Y-72132928D01*
X137987131Y-72158163D01*
X137982960Y-72184208D01*
X137979547Y-72211063D01*
X137976892Y-72238727D01*
X137974996Y-72267202D01*
X137973858Y-72296487D01*
X137973573Y-72311433D01*
X137973479Y-72326582D01*
X137973566Y-72341861D01*
X137973828Y-72356923D01*
X137974264Y-72371768D01*
X137975661Y-72400808D01*
X137977756Y-72428981D01*
X137980550Y-72456287D01*
X137984042Y-72482725D01*
X137988232Y-72508296D01*
X137993121Y-72533000D01*
X137998708Y-72556836D01*
X138004993Y-72579806D01*
X138011977Y-72601908D01*
X138019659Y-72623143D01*
X138028040Y-72643510D01*
X138037119Y-72663011D01*
X138046896Y-72681644D01*
X138057372Y-72699409D01*
X138062872Y-72707967D01*
X138074516Y-72724293D01*
X138087011Y-72739566D01*
X138100357Y-72753785D01*
X138114552Y-72766952D01*
X138129597Y-72779065D01*
X138145492Y-72790124D01*
X138162238Y-72800131D01*
X138179833Y-72809084D01*
X138198279Y-72816983D01*
X138217575Y-72823830D01*
X138237720Y-72829623D01*
X138258716Y-72834363D01*
X138280562Y-72838049D01*
X138303258Y-72840683D01*
X138326804Y-72842262D01*
X138351200Y-72842789D01*
X138368570Y-72842602D01*
X138385920Y-72842042D01*
X138403251Y-72841108D01*
X138420563Y-72839801D01*
X138437856Y-72838120D01*
X138455129Y-72836066D01*
X138472383Y-72833638D01*
X138489617Y-72830836D01*
X138506832Y-72827662D01*
X138524028Y-72824113D01*
X138535481Y-72821540D01*
X138552862Y-72817339D01*
X138570519Y-72812842D01*
X138588454Y-72808048D01*
X138606665Y-72802958D01*
X138625153Y-72797572D01*
X138643918Y-72791890D01*
X138662960Y-72785912D01*
X138682279Y-72779637D01*
X138701875Y-72773066D01*
X138721748Y-72766199D01*
X138735150Y-72761456D01*
X138735150Y-73022674D01*
X138716553Y-73029572D01*
X138697995Y-73036116D01*
X138679476Y-73042306D01*
X138660996Y-73048142D01*
X138642554Y-73053624D01*
X138624150Y-73058751D01*
X138605785Y-73063524D01*
X138587459Y-73067943D01*
X138569172Y-73072008D01*
X138550923Y-73075718D01*
X138538779Y-73077995D01*
X138520372Y-73081203D01*
X138501560Y-73084096D01*
X138482342Y-73086673D01*
X138462718Y-73088934D01*
X138442689Y-73090880D01*
X138422253Y-73092511D01*
X138401413Y-73093826D01*
X138380166Y-73094825D01*
X138358514Y-73095509D01*
X138343853Y-73095789D01*
X138329013Y-73095929D01*
X138321525Y-73095947D01*
X138292808Y-73095572D01*
X138264727Y-73094447D01*
X138237281Y-73092572D01*
X138210471Y-73089948D01*
X138184296Y-73086573D01*
X138158756Y-73082449D01*
X138133852Y-73077574D01*
X138109583Y-73071950D01*
X138085950Y-73065576D01*
X138062952Y-73058452D01*
X138040589Y-73050578D01*
X138018862Y-73041954D01*
X137997770Y-73032580D01*
X137977314Y-73022456D01*
X137957493Y-73011583D01*
X137938308Y-72999959D01*
X137919793Y-72987658D01*
X137901895Y-72974749D01*
X137884611Y-72961234D01*
X137867943Y-72947111D01*
X137851890Y-72932382D01*
X137836453Y-72917047D01*
X137821631Y-72901104D01*
X137807424Y-72884555D01*
X137793833Y-72867398D01*
X137780857Y-72849636D01*
X137768496Y-72831266D01*
X137756751Y-72812289D01*
X137745622Y-72792706D01*
X137735107Y-72772516D01*
X137725208Y-72751719D01*
X137715925Y-72730315D01*
X137707229Y-72708336D01*
X137699095Y-72685905D01*
X137691521Y-72663022D01*
X137684509Y-72639686D01*
X137678057Y-72615898D01*
X137672167Y-72591658D01*
X137666837Y-72566965D01*
X137662069Y-72541821D01*
X137657862Y-72516224D01*
X137654215Y-72490175D01*
X137651130Y-72463674D01*
X137648605Y-72436720D01*
X137646642Y-72409314D01*
X137645239Y-72381456D01*
X137644398Y-72353146D01*
X137644117Y-72324384D01*
X137644438Y-72296106D01*
X137645399Y-72268244D01*
X137647002Y-72240797D01*
X137649246Y-72213765D01*
X137652131Y-72187147D01*
X137655658Y-72160945D01*
X137659825Y-72135158D01*
X137664634Y-72109786D01*
X137670083Y-72084829D01*
X137676174Y-72060287D01*
X137682906Y-72036159D01*
X137690279Y-72012447D01*
X137698293Y-71989150D01*
X137706949Y-71966268D01*
X137716245Y-71943801D01*
X137726183Y-71921749D01*
X137736779Y-71900157D01*
X137747959Y-71879159D01*
X137759722Y-71858758D01*
X137772070Y-71838951D01*
X137785001Y-71819740D01*
X137798517Y-71801124D01*
X137812616Y-71783103D01*
X137827299Y-71765678D01*
X137842566Y-71748848D01*
X137858417Y-71732614D01*
X137874852Y-71716975D01*
X137891871Y-71701931D01*
X137909474Y-71687482D01*
X137927660Y-71673629D01*
X137946431Y-71660371D01*
X137965785Y-71647709D01*
X137985752Y-71635686D01*
X138006268Y-71624439D01*
X138027334Y-71613968D01*
X138048950Y-71604272D01*
X138071115Y-71595352D01*
X138093829Y-71587207D01*
X138117093Y-71579838D01*
X138140907Y-71573245D01*
X138165270Y-71567428D01*
X138190183Y-71562386D01*
X138215645Y-71558120D01*
X138241657Y-71554629D01*
X138268219Y-71551915D01*
X138295330Y-71549975D01*
X138322990Y-71548812D01*
X138351200Y-71548424D01*
X138372161Y-71548669D01*
X138393142Y-71549403D01*
X138414142Y-71550627D01*
X138435161Y-71552340D01*
X138456199Y-71554542D01*
X138477257Y-71557234D01*
X138498334Y-71560415D01*
X138519430Y-71564086D01*
X138540546Y-71568246D01*
X138561681Y-71572896D01*
X138575782Y-71576268D01*
X138596859Y-71581594D01*
X138617775Y-71587267D01*
X138638530Y-71593289D01*
X138659124Y-71599658D01*
X138679557Y-71606375D01*
X138699829Y-71613439D01*
X138719940Y-71620852D01*
X138739890Y-71628612D01*
X138759679Y-71636720D01*
X138779307Y-71645176D01*
X138792303Y-71651006D01*
X138688622Y-71910758D01*
X138672809Y-71902615D01*
X138656971Y-71894671D01*
X138641107Y-71886927D01*
X138625218Y-71879383D01*
X138609302Y-71872038D01*
X138593361Y-71864893D01*
X138577394Y-71857947D01*
X138561402Y-71851201D01*
X138545383Y-71844655D01*
X138529339Y-71838308D01*
X138518629Y-71834188D01*
X138502652Y-71828361D01*
X138486734Y-71823107D01*
X138470873Y-71818426D01*
X138455070Y-71814319D01*
X138439325Y-71810784D01*
X138423639Y-71807823D01*
X138408010Y-71805435D01*
X138392439Y-71803620D01*
X138376926Y-71802378D01*
X138361471Y-71801709D01*
X138351200Y-71801582D01*
G37*
G36*
X138161462Y-74091953D02*
G01*
X138179896Y-74092199D01*
X138198041Y-74092609D01*
X138215897Y-74093182D01*
X138233464Y-74093920D01*
X138250742Y-74094821D01*
X138267731Y-74095886D01*
X138284430Y-74097115D01*
X138300841Y-74098508D01*
X138316962Y-74100065D01*
X138332795Y-74101785D01*
X138348338Y-74103670D01*
X138363592Y-74105718D01*
X138378557Y-74107930D01*
X138393234Y-74110306D01*
X138421718Y-74115550D01*
X138449047Y-74121449D01*
X138475219Y-74128003D01*
X138500235Y-74135213D01*
X138524094Y-74143078D01*
X138546797Y-74151599D01*
X138568344Y-74160775D01*
X138588735Y-74170607D01*
X138598496Y-74175769D01*
X138617174Y-74186755D01*
X138634646Y-74198741D01*
X138650914Y-74211726D01*
X138665976Y-74225709D01*
X138679833Y-74240691D01*
X138692486Y-74256672D01*
X138703933Y-74273653D01*
X138714176Y-74291632D01*
X138723213Y-74310610D01*
X138731046Y-74330586D01*
X138737673Y-74351562D01*
X138743096Y-74373537D01*
X138747313Y-74396510D01*
X138750326Y-74420483D01*
X138752133Y-74445454D01*
X138752736Y-74471425D01*
X138752499Y-74487296D01*
X138751791Y-74502852D01*
X138750610Y-74518093D01*
X138748957Y-74533020D01*
X138746832Y-74547631D01*
X138742759Y-74568959D01*
X138737623Y-74589577D01*
X138731425Y-74609488D01*
X138724163Y-74628690D01*
X138715840Y-74647183D01*
X138706453Y-74664968D01*
X138696005Y-74682045D01*
X138692286Y-74687580D01*
X138680566Y-74703461D01*
X138667938Y-74718131D01*
X138654402Y-74731591D01*
X138639958Y-74743840D01*
X138624606Y-74754878D01*
X138608347Y-74764705D01*
X138591179Y-74773322D01*
X138573103Y-74780728D01*
X138554119Y-74786923D01*
X138534227Y-74791908D01*
X138520461Y-74794558D01*
X138520461Y-74805183D01*
X138539277Y-74809213D01*
X138557624Y-74813975D01*
X138575501Y-74819471D01*
X138592909Y-74825699D01*
X138609848Y-74832660D01*
X138626317Y-74840354D01*
X138642317Y-74848780D01*
X138657847Y-74857939D01*
X138672742Y-74867905D01*
X138686836Y-74878936D01*
X138700128Y-74891032D01*
X138712619Y-74904193D01*
X138724308Y-74918418D01*
X138735196Y-74933708D01*
X138745282Y-74950063D01*
X138752321Y-74963027D01*
X138754567Y-74967482D01*
X138760984Y-74981283D01*
X138766769Y-74995895D01*
X138771923Y-75011319D01*
X138776446Y-75027554D01*
X138780338Y-75044601D01*
X138783599Y-75062459D01*
X138786229Y-75081129D01*
X138788227Y-75100610D01*
X138789595Y-75120902D01*
X138790331Y-75142006D01*
X138790471Y-75156526D01*
X138789894Y-75181734D01*
X138788164Y-75206249D01*
X138785280Y-75230071D01*
X138781243Y-75253200D01*
X138776053Y-75275637D01*
X138769709Y-75297382D01*
X138762211Y-75318433D01*
X138753560Y-75338792D01*
X138743755Y-75358459D01*
X138732797Y-75377432D01*
X138720686Y-75395713D01*
X138707421Y-75413302D01*
X138693002Y-75430197D01*
X138677431Y-75446400D01*
X138660705Y-75461911D01*
X138642826Y-75476728D01*
X138623941Y-75490748D01*
X138604198Y-75503862D01*
X138583596Y-75516072D01*
X138562135Y-75527378D01*
X138539815Y-75537780D01*
X138516637Y-75547276D01*
X138492600Y-75555869D01*
X138467704Y-75563557D01*
X138441950Y-75570340D01*
X138415337Y-75576219D01*
X138387865Y-75581194D01*
X138359535Y-75585264D01*
X138330346Y-75588429D01*
X138315430Y-75589673D01*
X138300299Y-75590691D01*
X138284953Y-75591482D01*
X138269392Y-75592047D01*
X138253617Y-75592386D01*
X138237627Y-75592500D01*
X137674159Y-75592500D01*
X137674159Y-74935975D01*
X137992896Y-74935975D01*
X137992896Y-75339342D01*
X138201724Y-75339342D01*
X138219336Y-75339117D01*
X138236271Y-75338443D01*
X138252527Y-75337320D01*
X138268104Y-75335747D01*
X138283004Y-75333725D01*
X138304081Y-75329849D01*
X138323631Y-75324962D01*
X138341656Y-75319064D01*
X138358154Y-75312155D01*
X138373126Y-75304235D01*
X138386572Y-75295304D01*
X138398491Y-75285361D01*
X138402125Y-75281823D01*
X138412339Y-75270706D01*
X138421548Y-75258926D01*
X138429753Y-75246483D01*
X138436953Y-75233377D01*
X138443148Y-75219607D01*
X138448338Y-75205174D01*
X138452524Y-75190077D01*
X138455706Y-75174318D01*
X138457882Y-75157895D01*
X138459055Y-75140808D01*
X138459278Y-75129049D01*
X138458766Y-75113065D01*
X138457230Y-75097673D01*
X138454670Y-75082874D01*
X138449664Y-75064063D01*
X138442838Y-75046306D01*
X138434191Y-75029602D01*
X138423724Y-75013952D01*
X138411436Y-74999354D01*
X138401026Y-74989098D01*
X138389348Y-74979604D01*
X138376022Y-74971044D01*
X138361046Y-74963418D01*
X138344423Y-74956726D01*
X138326150Y-74950967D01*
X138306229Y-74946143D01*
X138284659Y-74942252D01*
X138269364Y-74940177D01*
X138253335Y-74938517D01*
X138236574Y-74937272D01*
X138219080Y-74936442D01*
X138200854Y-74936027D01*
X138191466Y-74935975D01*
X137992896Y-74935975D01*
X137674159Y-74935975D01*
X137674159Y-74345029D01*
X137992896Y-74345029D01*
X137992896Y-74682817D01*
X138178643Y-74682817D01*
X138195712Y-74682642D01*
X138212114Y-74682119D01*
X138227849Y-74681246D01*
X138242917Y-74680023D01*
X138264269Y-74677536D01*
X138284120Y-74674262D01*
X138302471Y-74670202D01*
X138319321Y-74665357D01*
X138334671Y-74659727D01*
X138348520Y-74653310D01*
X138364651Y-74643533D01*
X138371717Y-74638121D01*
X138384339Y-74626323D01*
X138395279Y-74613276D01*
X138404535Y-74598983D01*
X138412108Y-74583441D01*
X138417999Y-74566651D01*
X138422206Y-74548613D01*
X138424731Y-74529328D01*
X138425520Y-74514044D01*
X138425572Y-74508794D01*
X138425015Y-74492876D01*
X138423344Y-74477822D01*
X138419383Y-74459092D01*
X138413441Y-74441895D01*
X138405518Y-74426233D01*
X138395615Y-74412105D01*
X138383731Y-74399512D01*
X138369866Y-74388452D01*
X138362191Y-74383497D01*
X138345195Y-74374481D01*
X138330938Y-74368508D01*
X138315387Y-74363211D01*
X138298541Y-74358591D01*
X138280400Y-74354646D01*
X138260966Y-74351378D01*
X138240236Y-74348786D01*
X138218213Y-74346870D01*
X138202811Y-74345968D01*
X138186834Y-74345367D01*
X138170282Y-74345067D01*
X138161790Y-74345029D01*
X137992896Y-74345029D01*
X137674159Y-74345029D01*
X137674159Y-74091871D01*
X138142739Y-74091871D01*
X138161462Y-74091953D01*
G37*
G36*
X138461476Y-80632500D02*
G01*
X138142739Y-80632500D01*
X138142739Y-79774841D01*
X138142811Y-79757197D01*
X138142971Y-79741910D01*
X138143223Y-79725581D01*
X138143566Y-79708210D01*
X138144001Y-79689797D01*
X138144528Y-79670343D01*
X138144983Y-79655068D01*
X138145490Y-79639208D01*
X138145670Y-79633790D01*
X138146279Y-79617560D01*
X138146868Y-79601702D01*
X138147438Y-79586218D01*
X138147988Y-79571108D01*
X138148520Y-79556371D01*
X138149198Y-79537303D01*
X138149842Y-79518899D01*
X138150452Y-79501159D01*
X138151027Y-79484083D01*
X138151166Y-79479918D01*
X138141004Y-79490819D01*
X138130024Y-79501684D01*
X138117938Y-79513219D01*
X138105736Y-79524614D01*
X138092878Y-79536446D01*
X138080406Y-79547764D01*
X138068320Y-79558566D01*
X138056621Y-79568852D01*
X138045308Y-79578624D01*
X138041623Y-79581767D01*
X137868332Y-79719153D01*
X137714459Y-79529743D01*
X138199892Y-79131871D01*
X138461476Y-79131871D01*
X138461476Y-80632500D01*
G37*
G36*
X138668106Y-81990026D02*
G01*
X138667739Y-82009469D01*
X138666640Y-82028414D01*
X138664808Y-82046861D01*
X138662244Y-82064810D01*
X138658946Y-82082261D01*
X138654916Y-82099214D01*
X138650154Y-82115669D01*
X138644658Y-82131625D01*
X138638430Y-82147084D01*
X138631469Y-82162045D01*
X138623775Y-82176508D01*
X138615349Y-82190473D01*
X138606190Y-82203939D01*
X138596298Y-82216908D01*
X138585674Y-82229379D01*
X138574316Y-82241352D01*
X138562422Y-82252798D01*
X138550188Y-82263780D01*
X138537613Y-82274299D01*
X138524697Y-82284354D01*
X138511440Y-82293945D01*
X138497843Y-82303072D01*
X138483906Y-82311736D01*
X138469628Y-82319937D01*
X138455009Y-82327673D01*
X138440050Y-82334946D01*
X138424750Y-82341755D01*
X138409109Y-82348101D01*
X138393128Y-82353983D01*
X138376806Y-82359401D01*
X138360143Y-82364356D01*
X138343140Y-82368846D01*
X138343140Y-82375075D01*
X138365512Y-82377947D01*
X138387196Y-82381343D01*
X138408193Y-82385263D01*
X138428503Y-82389706D01*
X138448127Y-82394674D01*
X138467063Y-82400165D01*
X138485313Y-82406180D01*
X138502875Y-82412718D01*
X138519751Y-82419781D01*
X138535940Y-82427367D01*
X138551441Y-82435477D01*
X138566256Y-82444111D01*
X138580384Y-82453269D01*
X138593825Y-82462950D01*
X138606579Y-82473156D01*
X138618646Y-82483885D01*
X138630004Y-82495112D01*
X138640628Y-82506811D01*
X138650520Y-82518983D01*
X138659679Y-82531627D01*
X138668106Y-82544743D01*
X138675799Y-82558331D01*
X138682760Y-82572392D01*
X138688988Y-82586925D01*
X138694484Y-82601930D01*
X138699247Y-82617407D01*
X138703277Y-82633357D01*
X138706574Y-82649779D01*
X138709138Y-82666673D01*
X138710970Y-82684040D01*
X138712069Y-82701879D01*
X138712436Y-82720190D01*
X138712184Y-82736300D01*
X138711428Y-82752206D01*
X138710169Y-82767910D01*
X138708406Y-82783410D01*
X138706139Y-82798708D01*
X138703368Y-82813801D01*
X138700094Y-82828692D01*
X138696316Y-82843380D01*
X138692034Y-82857864D01*
X138687248Y-82872145D01*
X138681959Y-82886223D01*
X138676166Y-82900097D01*
X138669869Y-82913769D01*
X138663068Y-82927237D01*
X138655764Y-82940502D01*
X138647956Y-82953564D01*
X138639668Y-82966308D01*
X138630834Y-82978711D01*
X138621453Y-82990774D01*
X138611525Y-83002496D01*
X138601051Y-83013878D01*
X138590030Y-83024919D01*
X138578462Y-83035619D01*
X138566348Y-83045979D01*
X138553687Y-83055998D01*
X138540479Y-83065677D01*
X138526725Y-83075015D01*
X138512424Y-83084012D01*
X138497576Y-83092669D01*
X138482181Y-83100985D01*
X138466240Y-83108961D01*
X138449752Y-83116596D01*
X138432691Y-83123783D01*
X138415028Y-83130506D01*
X138396764Y-83136766D01*
X138377899Y-83142562D01*
X138358433Y-83147894D01*
X138338366Y-83152763D01*
X138317698Y-83157168D01*
X138296429Y-83161109D01*
X138274559Y-83164587D01*
X138252087Y-83167601D01*
X138229015Y-83170151D01*
X138205342Y-83172237D01*
X138181067Y-83173860D01*
X138156192Y-83175019D01*
X138130715Y-83175715D01*
X138104637Y-83175947D01*
X138089395Y-83175867D01*
X138074261Y-83175626D01*
X138059233Y-83175226D01*
X138044313Y-83174665D01*
X138029500Y-83173943D01*
X138014795Y-83173062D01*
X137985706Y-83170818D01*
X137957047Y-83167933D01*
X137928817Y-83164406D01*
X137901016Y-83160239D01*
X137873645Y-83155430D01*
X137846703Y-83149981D01*
X137820190Y-83143890D01*
X137794106Y-83137158D01*
X137768452Y-83129785D01*
X137743228Y-83121771D01*
X137718432Y-83113115D01*
X137694066Y-83103819D01*
X137670129Y-83093881D01*
X137670129Y-82826802D01*
X137688417Y-82835398D01*
X137706872Y-82843601D01*
X137725494Y-82851412D01*
X137744284Y-82858830D01*
X137763241Y-82865855D01*
X137782366Y-82872487D01*
X137801658Y-82878726D01*
X137821117Y-82884573D01*
X137840744Y-82890026D01*
X137860539Y-82895087D01*
X137873828Y-82898243D01*
X137893676Y-82902629D01*
X137913241Y-82906585D01*
X137932522Y-82910108D01*
X137951520Y-82913201D01*
X137970235Y-82915861D01*
X137988666Y-82918091D01*
X138006814Y-82919889D01*
X138024678Y-82921255D01*
X138042259Y-82922190D01*
X138059557Y-82922693D01*
X138070932Y-82922789D01*
X138091918Y-82922566D01*
X138112102Y-82921896D01*
X138131485Y-82920780D01*
X138150066Y-82919217D01*
X138167847Y-82917208D01*
X138184825Y-82914752D01*
X138201003Y-82911850D01*
X138216378Y-82908501D01*
X138230953Y-82904706D01*
X138251312Y-82898175D01*
X138269868Y-82890641D01*
X138286620Y-82882101D01*
X138301570Y-82872557D01*
X138310534Y-82865636D01*
X138322778Y-82854436D01*
X138333817Y-82842405D01*
X138343652Y-82829543D01*
X138352282Y-82815851D01*
X138359709Y-82801328D01*
X138365931Y-82785974D01*
X138370949Y-82769789D01*
X138374762Y-82752773D01*
X138377372Y-82734927D01*
X138378777Y-82716250D01*
X138379044Y-82703337D01*
X138378546Y-82688259D01*
X138376523Y-82670280D01*
X138372943Y-82653268D01*
X138367807Y-82637222D01*
X138361115Y-82622141D01*
X138352867Y-82608027D01*
X138347170Y-82600022D01*
X138336162Y-82587357D01*
X138322827Y-82575693D01*
X138310485Y-82567084D01*
X138296655Y-82559115D01*
X138281337Y-82551788D01*
X138264530Y-82545102D01*
X138246234Y-82539057D01*
X138236528Y-82536275D01*
X138221147Y-82532412D01*
X138204676Y-82528929D01*
X138187118Y-82525826D01*
X138168471Y-82523103D01*
X138148735Y-82520760D01*
X138127911Y-82518797D01*
X138105999Y-82517213D01*
X138090787Y-82516369D01*
X138075090Y-82515694D01*
X138058910Y-82515187D01*
X138042246Y-82514849D01*
X138025099Y-82514680D01*
X138016344Y-82514659D01*
X137902038Y-82514659D01*
X137902038Y-82261502D01*
X138018175Y-82261502D01*
X138035319Y-82261397D01*
X138051944Y-82261084D01*
X138068051Y-82260561D01*
X138083640Y-82259830D01*
X138098711Y-82258890D01*
X138120346Y-82257088D01*
X138140816Y-82254815D01*
X138160120Y-82252073D01*
X138178258Y-82248861D01*
X138195231Y-82245178D01*
X138211037Y-82241025D01*
X138225679Y-82236402D01*
X138230300Y-82234757D01*
X138247800Y-82227767D01*
X138263845Y-82220171D01*
X138278437Y-82211968D01*
X138291575Y-82203158D01*
X138303258Y-82193741D01*
X138315818Y-82181117D01*
X138326106Y-82167545D01*
X138329585Y-82161851D01*
X138337184Y-82147085D01*
X138343495Y-82131640D01*
X138348519Y-82115515D01*
X138352254Y-82098710D01*
X138354701Y-82081225D01*
X138355860Y-82063061D01*
X138355963Y-82055605D01*
X138355525Y-82040599D01*
X138353579Y-82021562D01*
X138350076Y-82003636D01*
X138345015Y-81986820D01*
X138338398Y-81971115D01*
X138330223Y-81956521D01*
X138320492Y-81943037D01*
X138309203Y-81930664D01*
X138306138Y-81927744D01*
X138292731Y-81916925D01*
X138277241Y-81907548D01*
X138259667Y-81899614D01*
X138245119Y-81894610D01*
X138229399Y-81890418D01*
X138212507Y-81887037D01*
X138194442Y-81884467D01*
X138175206Y-81882709D01*
X138154798Y-81881762D01*
X138140541Y-81881582D01*
X138120662Y-81881914D01*
X138101278Y-81882908D01*
X138082391Y-81884567D01*
X138063999Y-81886888D01*
X138046104Y-81889873D01*
X138028704Y-81893522D01*
X138011800Y-81897833D01*
X137995392Y-81902808D01*
X137979480Y-81908446D01*
X137964064Y-81914748D01*
X137954062Y-81919317D01*
X137939436Y-81926383D01*
X137925236Y-81933430D01*
X137911461Y-81940457D01*
X137898111Y-81947464D01*
X137885186Y-81954453D01*
X137868614Y-81963741D01*
X137852797Y-81972994D01*
X137837736Y-81982214D01*
X137823431Y-81991398D01*
X137819972Y-81993689D01*
X137672327Y-81775336D01*
X137689218Y-81763708D01*
X137706644Y-81752453D01*
X137724604Y-81741571D01*
X137743099Y-81731063D01*
X137762128Y-81720929D01*
X137781691Y-81711168D01*
X137795031Y-81704868D01*
X137808608Y-81698735D01*
X137822422Y-81692767D01*
X137836474Y-81686965D01*
X137850764Y-81681329D01*
X137865291Y-81675860D01*
X137880056Y-81670556D01*
X137895118Y-81665454D01*
X137910539Y-81660681D01*
X137926317Y-81656238D01*
X137942452Y-81652123D01*
X137958946Y-81648338D01*
X137975797Y-81644882D01*
X137993006Y-81641755D01*
X138010573Y-81638957D01*
X138028498Y-81636488D01*
X138046780Y-81634349D01*
X138065421Y-81632539D01*
X138084419Y-81631057D01*
X138103774Y-81629905D01*
X138123488Y-81629082D01*
X138143559Y-81628589D01*
X138163988Y-81628424D01*
X138192602Y-81628795D01*
X138220466Y-81629907D01*
X138247579Y-81631760D01*
X138273943Y-81634355D01*
X138299557Y-81637691D01*
X138324422Y-81641768D01*
X138348536Y-81646586D01*
X138371900Y-81652146D01*
X138394514Y-81658447D01*
X138416379Y-81665490D01*
X138437494Y-81673274D01*
X138457858Y-81681799D01*
X138477473Y-81691065D01*
X138496338Y-81701073D01*
X138514453Y-81711822D01*
X138531818Y-81723312D01*
X138548322Y-81735431D01*
X138563760Y-81748157D01*
X138578134Y-81761489D01*
X138591444Y-81775428D01*
X138603688Y-81789974D01*
X138614868Y-81805126D01*
X138624983Y-81820886D01*
X138634034Y-81837252D01*
X138642019Y-81854225D01*
X138648940Y-81871804D01*
X138654796Y-81889991D01*
X138659588Y-81908784D01*
X138663314Y-81928185D01*
X138665976Y-81948191D01*
X138667573Y-81968805D01*
X138668106Y-81990026D01*
G37*
G36*
X138668106Y-84510026D02*
G01*
X138667739Y-84529469D01*
X138666640Y-84548414D01*
X138664808Y-84566861D01*
X138662244Y-84584810D01*
X138658946Y-84602261D01*
X138654916Y-84619214D01*
X138650154Y-84635669D01*
X138644658Y-84651625D01*
X138638430Y-84667084D01*
X138631469Y-84682045D01*
X138623775Y-84696508D01*
X138615349Y-84710473D01*
X138606190Y-84723939D01*
X138596298Y-84736908D01*
X138585674Y-84749379D01*
X138574316Y-84761352D01*
X138562422Y-84772798D01*
X138550188Y-84783780D01*
X138537613Y-84794299D01*
X138524697Y-84804354D01*
X138511440Y-84813945D01*
X138497843Y-84823072D01*
X138483906Y-84831736D01*
X138469628Y-84839937D01*
X138455009Y-84847673D01*
X138440050Y-84854946D01*
X138424750Y-84861755D01*
X138409109Y-84868101D01*
X138393128Y-84873983D01*
X138376806Y-84879401D01*
X138360143Y-84884356D01*
X138343140Y-84888846D01*
X138343140Y-84895075D01*
X138365512Y-84897947D01*
X138387196Y-84901343D01*
X138408193Y-84905263D01*
X138428503Y-84909706D01*
X138448127Y-84914674D01*
X138467063Y-84920165D01*
X138485313Y-84926180D01*
X138502875Y-84932718D01*
X138519751Y-84939781D01*
X138535940Y-84947367D01*
X138551441Y-84955477D01*
X138566256Y-84964111D01*
X138580384Y-84973269D01*
X138593825Y-84982950D01*
X138606579Y-84993156D01*
X138618646Y-85003885D01*
X138630004Y-85015112D01*
X138640628Y-85026811D01*
X138650520Y-85038983D01*
X138659679Y-85051627D01*
X138668106Y-85064743D01*
X138675799Y-85078331D01*
X138682760Y-85092392D01*
X138688988Y-85106925D01*
X138694484Y-85121930D01*
X138699247Y-85137407D01*
X138703277Y-85153357D01*
X138706574Y-85169779D01*
X138709138Y-85186673D01*
X138710970Y-85204040D01*
X138712069Y-85221879D01*
X138712436Y-85240190D01*
X138712184Y-85256300D01*
X138711428Y-85272206D01*
X138710169Y-85287910D01*
X138708406Y-85303410D01*
X138706139Y-85318708D01*
X138703368Y-85333801D01*
X138700094Y-85348692D01*
X138696316Y-85363380D01*
X138692034Y-85377864D01*
X138687248Y-85392145D01*
X138681959Y-85406223D01*
X138676166Y-85420097D01*
X138669869Y-85433769D01*
X138663068Y-85447237D01*
X138655764Y-85460502D01*
X138647956Y-85473564D01*
X138639668Y-85486308D01*
X138630834Y-85498711D01*
X138621453Y-85510774D01*
X138611525Y-85522496D01*
X138601051Y-85533878D01*
X138590030Y-85544919D01*
X138578462Y-85555619D01*
X138566348Y-85565979D01*
X138553687Y-85575998D01*
X138540479Y-85585677D01*
X138526725Y-85595015D01*
X138512424Y-85604012D01*
X138497576Y-85612669D01*
X138482181Y-85620985D01*
X138466240Y-85628961D01*
X138449752Y-85636596D01*
X138432691Y-85643783D01*
X138415028Y-85650506D01*
X138396764Y-85656766D01*
X138377899Y-85662562D01*
X138358433Y-85667894D01*
X138338366Y-85672763D01*
X138317698Y-85677168D01*
X138296429Y-85681109D01*
X138274559Y-85684587D01*
X138252087Y-85687601D01*
X138229015Y-85690151D01*
X138205342Y-85692237D01*
X138181067Y-85693860D01*
X138156192Y-85695019D01*
X138130715Y-85695715D01*
X138104637Y-85695947D01*
X138089395Y-85695867D01*
X138074261Y-85695626D01*
X138059233Y-85695226D01*
X138044313Y-85694665D01*
X138029500Y-85693943D01*
X138014795Y-85693062D01*
X137985706Y-85690818D01*
X137957047Y-85687933D01*
X137928817Y-85684406D01*
X137901016Y-85680239D01*
X137873645Y-85675430D01*
X137846703Y-85669981D01*
X137820190Y-85663890D01*
X137794106Y-85657158D01*
X137768452Y-85649785D01*
X137743228Y-85641771D01*
X137718432Y-85633115D01*
X137694066Y-85623819D01*
X137670129Y-85613881D01*
X137670129Y-85346802D01*
X137688417Y-85355398D01*
X137706872Y-85363601D01*
X137725494Y-85371412D01*
X137744284Y-85378830D01*
X137763241Y-85385855D01*
X137782366Y-85392487D01*
X137801658Y-85398726D01*
X137821117Y-85404573D01*
X137840744Y-85410026D01*
X137860539Y-85415087D01*
X137873828Y-85418243D01*
X137893676Y-85422629D01*
X137913241Y-85426585D01*
X137932522Y-85430108D01*
X137951520Y-85433201D01*
X137970235Y-85435861D01*
X137988666Y-85438091D01*
X138006814Y-85439889D01*
X138024678Y-85441255D01*
X138042259Y-85442190D01*
X138059557Y-85442693D01*
X138070932Y-85442789D01*
X138091918Y-85442566D01*
X138112102Y-85441896D01*
X138131485Y-85440780D01*
X138150066Y-85439217D01*
X138167847Y-85437208D01*
X138184825Y-85434752D01*
X138201003Y-85431850D01*
X138216378Y-85428501D01*
X138230953Y-85424706D01*
X138251312Y-85418175D01*
X138269868Y-85410641D01*
X138286620Y-85402101D01*
X138301570Y-85392557D01*
X138310534Y-85385636D01*
X138322778Y-85374436D01*
X138333817Y-85362405D01*
X138343652Y-85349543D01*
X138352282Y-85335851D01*
X138359709Y-85321328D01*
X138365931Y-85305974D01*
X138370949Y-85289789D01*
X138374762Y-85272773D01*
X138377372Y-85254927D01*
X138378777Y-85236250D01*
X138379044Y-85223337D01*
X138378546Y-85208259D01*
X138376523Y-85190280D01*
X138372943Y-85173268D01*
X138367807Y-85157222D01*
X138361115Y-85142141D01*
X138352867Y-85128027D01*
X138347170Y-85120022D01*
X138336162Y-85107357D01*
X138322827Y-85095693D01*
X138310485Y-85087084D01*
X138296655Y-85079115D01*
X138281337Y-85071788D01*
X138264530Y-85065102D01*
X138246234Y-85059057D01*
X138236528Y-85056275D01*
X138221147Y-85052412D01*
X138204676Y-85048929D01*
X138187118Y-85045826D01*
X138168471Y-85043103D01*
X138148735Y-85040760D01*
X138127911Y-85038797D01*
X138105999Y-85037213D01*
X138090787Y-85036369D01*
X138075090Y-85035694D01*
X138058910Y-85035187D01*
X138042246Y-85034849D01*
X138025099Y-85034680D01*
X138016344Y-85034659D01*
X137902038Y-85034659D01*
X137902038Y-84781502D01*
X138018175Y-84781502D01*
X138035319Y-84781397D01*
X138051944Y-84781084D01*
X138068051Y-84780561D01*
X138083640Y-84779830D01*
X138098711Y-84778890D01*
X138120346Y-84777088D01*
X138140816Y-84774815D01*
X138160120Y-84772073D01*
X138178258Y-84768861D01*
X138195231Y-84765178D01*
X138211037Y-84761025D01*
X138225679Y-84756402D01*
X138230300Y-84754757D01*
X138247800Y-84747767D01*
X138263845Y-84740171D01*
X138278437Y-84731968D01*
X138291575Y-84723158D01*
X138303258Y-84713741D01*
X138315818Y-84701117D01*
X138326106Y-84687545D01*
X138329585Y-84681851D01*
X138337184Y-84667085D01*
X138343495Y-84651640D01*
X138348519Y-84635515D01*
X138352254Y-84618710D01*
X138354701Y-84601225D01*
X138355860Y-84583061D01*
X138355963Y-84575605D01*
X138355525Y-84560599D01*
X138353579Y-84541562D01*
X138350076Y-84523636D01*
X138345015Y-84506820D01*
X138338398Y-84491115D01*
X138330223Y-84476521D01*
X138320492Y-84463037D01*
X138309203Y-84450664D01*
X138306138Y-84447744D01*
X138292731Y-84436925D01*
X138277241Y-84427548D01*
X138259667Y-84419614D01*
X138245119Y-84414610D01*
X138229399Y-84410418D01*
X138212507Y-84407037D01*
X138194442Y-84404467D01*
X138175206Y-84402709D01*
X138154798Y-84401762D01*
X138140541Y-84401582D01*
X138120662Y-84401914D01*
X138101278Y-84402908D01*
X138082391Y-84404567D01*
X138063999Y-84406888D01*
X138046104Y-84409873D01*
X138028704Y-84413522D01*
X138011800Y-84417833D01*
X137995392Y-84422808D01*
X137979480Y-84428446D01*
X137964064Y-84434748D01*
X137954062Y-84439317D01*
X137939436Y-84446383D01*
X137925236Y-84453430D01*
X137911461Y-84460457D01*
X137898111Y-84467464D01*
X137885186Y-84474453D01*
X137868614Y-84483741D01*
X137852797Y-84492994D01*
X137837736Y-84502214D01*
X137823431Y-84511398D01*
X137819972Y-84513689D01*
X137672327Y-84295336D01*
X137689218Y-84283708D01*
X137706644Y-84272453D01*
X137724604Y-84261571D01*
X137743099Y-84251063D01*
X137762128Y-84240929D01*
X137781691Y-84231168D01*
X137795031Y-84224868D01*
X137808608Y-84218735D01*
X137822422Y-84212767D01*
X137836474Y-84206965D01*
X137850764Y-84201329D01*
X137865291Y-84195860D01*
X137880056Y-84190556D01*
X137895118Y-84185454D01*
X137910539Y-84180681D01*
X137926317Y-84176238D01*
X137942452Y-84172123D01*
X137958946Y-84168338D01*
X137975797Y-84164882D01*
X137993006Y-84161755D01*
X138010573Y-84158957D01*
X138028498Y-84156488D01*
X138046780Y-84154349D01*
X138065421Y-84152539D01*
X138084419Y-84151057D01*
X138103774Y-84149905D01*
X138123488Y-84149082D01*
X138143559Y-84148589D01*
X138163988Y-84148424D01*
X138192602Y-84148795D01*
X138220466Y-84149907D01*
X138247579Y-84151760D01*
X138273943Y-84154355D01*
X138299557Y-84157691D01*
X138324422Y-84161768D01*
X138348536Y-84166586D01*
X138371900Y-84172146D01*
X138394514Y-84178447D01*
X138416379Y-84185490D01*
X138437494Y-84193274D01*
X138457858Y-84201799D01*
X138477473Y-84211065D01*
X138496338Y-84221073D01*
X138514453Y-84231822D01*
X138531818Y-84243312D01*
X138548322Y-84255431D01*
X138563760Y-84268157D01*
X138578134Y-84281489D01*
X138591444Y-84295428D01*
X138603688Y-84309974D01*
X138614868Y-84325126D01*
X138624983Y-84340886D01*
X138634034Y-84357252D01*
X138642019Y-84374225D01*
X138648940Y-84391804D01*
X138654796Y-84409991D01*
X138659588Y-84428784D01*
X138663314Y-84448185D01*
X138665976Y-84468191D01*
X138667573Y-84488805D01*
X138668106Y-84510026D01*
G37*
G36*
X137824002Y-88192500D02*
G01*
X138389669Y-86949792D01*
X137647048Y-86949792D01*
X137647048Y-86691871D01*
X138727457Y-86691871D01*
X138727457Y-86885678D01*
X138157394Y-88192500D01*
X137824002Y-88192500D01*
G37*
G36*
X138218203Y-67246124D02*
G01*
X138234665Y-67246723D01*
X138250850Y-67247721D01*
X138266759Y-67249118D01*
X138282391Y-67250915D01*
X138297748Y-67253111D01*
X138312828Y-67255706D01*
X138327632Y-67258701D01*
X138342160Y-67262095D01*
X138356412Y-67265888D01*
X138384087Y-67274672D01*
X138410657Y-67285054D01*
X138436122Y-67297032D01*
X138460482Y-67310607D01*
X138483738Y-67325780D01*
X138505889Y-67342550D01*
X138526934Y-67360917D01*
X138546876Y-67380881D01*
X138565712Y-67402442D01*
X138583443Y-67425600D01*
X138591895Y-67437778D01*
X138600070Y-67450355D01*
X138608004Y-67463268D01*
X138615686Y-67476497D01*
X138623117Y-67490044D01*
X138630295Y-67503908D01*
X138637222Y-67518088D01*
X138643896Y-67532586D01*
X138650319Y-67547400D01*
X138656490Y-67562532D01*
X138662409Y-67577980D01*
X138668076Y-67593746D01*
X138673492Y-67609828D01*
X138678655Y-67626227D01*
X138683567Y-67642944D01*
X138688226Y-67659977D01*
X138692634Y-67677328D01*
X138696790Y-67694995D01*
X138700694Y-67712980D01*
X138704346Y-67731281D01*
X138707747Y-67749899D01*
X138710895Y-67768835D01*
X138713792Y-67788087D01*
X138716436Y-67807656D01*
X138718829Y-67827543D01*
X138720970Y-67847746D01*
X138722859Y-67868266D01*
X138724496Y-67889104D01*
X138725882Y-67910258D01*
X138727015Y-67931729D01*
X138727897Y-67953518D01*
X138728526Y-67975623D01*
X138728904Y-67998045D01*
X138729030Y-68020785D01*
X138728979Y-68035852D01*
X138728827Y-68050784D01*
X138728573Y-68065579D01*
X138728217Y-68080239D01*
X138727201Y-68109150D01*
X138725779Y-68137517D01*
X138723950Y-68165341D01*
X138721714Y-68192621D01*
X138719073Y-68219357D01*
X138716024Y-68245549D01*
X138712570Y-68271197D01*
X138708708Y-68296302D01*
X138704441Y-68320863D01*
X138699767Y-68344880D01*
X138694686Y-68368353D01*
X138689200Y-68391282D01*
X138683306Y-68413667D01*
X138677006Y-68435509D01*
X138670302Y-68456767D01*
X138663102Y-68477400D01*
X138655407Y-68497410D01*
X138647216Y-68516796D01*
X138638531Y-68535558D01*
X138629350Y-68553696D01*
X138619675Y-68571210D01*
X138609504Y-68588100D01*
X138598838Y-68604366D01*
X138587677Y-68620008D01*
X138576020Y-68635026D01*
X138563869Y-68649420D01*
X138551222Y-68663190D01*
X138538080Y-68676336D01*
X138524443Y-68688858D01*
X138510311Y-68700757D01*
X138495666Y-68711981D01*
X138480401Y-68722481D01*
X138464514Y-68732257D01*
X138448006Y-68741309D01*
X138430877Y-68749636D01*
X138413127Y-68757240D01*
X138394756Y-68764119D01*
X138375763Y-68770274D01*
X138356150Y-68775705D01*
X138335916Y-68780412D01*
X138315060Y-68784395D01*
X138293583Y-68787654D01*
X138271486Y-68790188D01*
X138248767Y-68791999D01*
X138225427Y-68793085D01*
X138201466Y-68793447D01*
X138184595Y-68793246D01*
X138168008Y-68792645D01*
X138151705Y-68791644D01*
X138135686Y-68790241D01*
X138119951Y-68788438D01*
X138104501Y-68786234D01*
X138089334Y-68783629D01*
X138074452Y-68780624D01*
X138059853Y-68777218D01*
X138045539Y-68773411D01*
X138017763Y-68764596D01*
X137991122Y-68754177D01*
X137965619Y-68742156D01*
X137941251Y-68728532D01*
X137918020Y-68713305D01*
X137895925Y-68696475D01*
X137874966Y-68678042D01*
X137855144Y-68658007D01*
X137836458Y-68636368D01*
X137818908Y-68613127D01*
X137810560Y-68600905D01*
X137802495Y-68588283D01*
X137794696Y-68575284D01*
X137787145Y-68561980D01*
X137779841Y-68548371D01*
X137772785Y-68534456D01*
X137765977Y-68520235D01*
X137759416Y-68505709D01*
X137753102Y-68490878D01*
X137747037Y-68475740D01*
X137741218Y-68460298D01*
X137735648Y-68444549D01*
X137730325Y-68428495D01*
X137725249Y-68412136D01*
X137720421Y-68395471D01*
X137715841Y-68378501D01*
X137711509Y-68361225D01*
X137707423Y-68343643D01*
X137703586Y-68325756D01*
X137699996Y-68307563D01*
X137696654Y-68289065D01*
X137693559Y-68270261D01*
X137690712Y-68251152D01*
X137688112Y-68231737D01*
X137685760Y-68212017D01*
X137683656Y-68191991D01*
X137681799Y-68171660D01*
X137680189Y-68151023D01*
X137678828Y-68130080D01*
X137677714Y-68108832D01*
X137676847Y-68087279D01*
X137676228Y-68065419D01*
X137675857Y-68043255D01*
X137675733Y-68020785D01*
X137992272Y-68020785D01*
X137992315Y-68036825D01*
X137992445Y-68052615D01*
X137992661Y-68068155D01*
X137992964Y-68083444D01*
X137993354Y-68098483D01*
X137993830Y-68113272D01*
X137995042Y-68142097D01*
X137996601Y-68169921D01*
X137998506Y-68196742D01*
X138000757Y-68222563D01*
X138003354Y-68247381D01*
X138006298Y-68271197D01*
X138009588Y-68294012D01*
X138013225Y-68315825D01*
X138017207Y-68336636D01*
X138021536Y-68356446D01*
X138026212Y-68375253D01*
X138031234Y-68393059D01*
X138036602Y-68409863D01*
X138042441Y-68425657D01*
X138048875Y-68440432D01*
X138055905Y-68454188D01*
X138063529Y-68466925D01*
X138076083Y-68484119D01*
X138089976Y-68499022D01*
X138105209Y-68511631D01*
X138121781Y-68521948D01*
X138139693Y-68529972D01*
X138158944Y-68535704D01*
X138179535Y-68539143D01*
X138201466Y-68540289D01*
X138222957Y-68539152D01*
X138243193Y-68535742D01*
X138262172Y-68530059D01*
X138279896Y-68522103D01*
X138296364Y-68511873D01*
X138311577Y-68499369D01*
X138325533Y-68484593D01*
X138338234Y-68467543D01*
X138346003Y-68454913D01*
X138353215Y-68441273D01*
X138359868Y-68426623D01*
X138365963Y-68410963D01*
X138371597Y-68394283D01*
X138376868Y-68376576D01*
X138381776Y-68357841D01*
X138386319Y-68338079D01*
X138390500Y-68317289D01*
X138394316Y-68295472D01*
X138397770Y-68272627D01*
X138400859Y-68248755D01*
X138403586Y-68223855D01*
X138405948Y-68197927D01*
X138407948Y-68170972D01*
X138409583Y-68142990D01*
X138410856Y-68113980D01*
X138411356Y-68099090D01*
X138411764Y-68083942D01*
X138412083Y-68068538D01*
X138412310Y-68052877D01*
X138412446Y-68036959D01*
X138412491Y-68020785D01*
X138412446Y-68004743D01*
X138412310Y-67988950D01*
X138412083Y-67973404D01*
X138411764Y-67958108D01*
X138411356Y-67943059D01*
X138410856Y-67928259D01*
X138409583Y-67899404D01*
X138407948Y-67871541D01*
X138405948Y-67844672D01*
X138403586Y-67818796D01*
X138400859Y-67793913D01*
X138397770Y-67770024D01*
X138394316Y-67747128D01*
X138390500Y-67725224D01*
X138386319Y-67704315D01*
X138381776Y-67684398D01*
X138376868Y-67665474D01*
X138371597Y-67647544D01*
X138365963Y-67630607D01*
X138359868Y-67614680D01*
X138353215Y-67599780D01*
X138346003Y-67585909D01*
X138338234Y-67573065D01*
X138325533Y-67555725D01*
X138311577Y-67540697D01*
X138296364Y-67527981D01*
X138279896Y-67517578D01*
X138262172Y-67509486D01*
X138243193Y-67503706D01*
X138222957Y-67500238D01*
X138201466Y-67499082D01*
X138186697Y-67499596D01*
X138165659Y-67502293D01*
X138145961Y-67507302D01*
X138127603Y-67514623D01*
X138110584Y-67524257D01*
X138094905Y-67536202D01*
X138080565Y-67550459D01*
X138067565Y-67567028D01*
X138059643Y-67579358D01*
X138052315Y-67592716D01*
X138045583Y-67607102D01*
X138039447Y-67622515D01*
X138036602Y-67630607D01*
X138031234Y-67647544D01*
X138026212Y-67665474D01*
X138021536Y-67684398D01*
X138017207Y-67704315D01*
X138013225Y-67725224D01*
X138009588Y-67747128D01*
X138006298Y-67770024D01*
X138003354Y-67793913D01*
X138000757Y-67818796D01*
X137998506Y-67844672D01*
X137996601Y-67871541D01*
X137995042Y-67899404D01*
X137993830Y-67928259D01*
X137993354Y-67943059D01*
X137992964Y-67958108D01*
X137992661Y-67973404D01*
X137992445Y-67988950D01*
X137992315Y-68004743D01*
X137992272Y-68020785D01*
X137675733Y-68020785D01*
X137675782Y-68005582D01*
X137675930Y-67990519D01*
X137676177Y-67975597D01*
X137676523Y-67960815D01*
X137677510Y-67931672D01*
X137678893Y-67903090D01*
X137680670Y-67875069D01*
X137682843Y-67847609D01*
X137685410Y-67820710D01*
X137688372Y-67794371D01*
X137691730Y-67768594D01*
X137695482Y-67743378D01*
X137699630Y-67718723D01*
X137704172Y-67694629D01*
X137709109Y-67671096D01*
X137714442Y-67648123D01*
X137720169Y-67625712D01*
X137726291Y-67603862D01*
X137732910Y-67582604D01*
X137740036Y-67561971D01*
X137747668Y-67541961D01*
X137755806Y-67522575D01*
X137764452Y-67503813D01*
X137773604Y-67485675D01*
X137783262Y-67468161D01*
X137793427Y-67451271D01*
X137804099Y-67435005D01*
X137815278Y-67419363D01*
X137826963Y-67404345D01*
X137839154Y-67389951D01*
X137851853Y-67376181D01*
X137865057Y-67363035D01*
X137878769Y-67350513D01*
X137892987Y-67338614D01*
X137907802Y-67327390D01*
X137923212Y-67316890D01*
X137939218Y-67307114D01*
X137955818Y-67298062D01*
X137973015Y-67289735D01*
X137990806Y-67282131D01*
X138009193Y-67275252D01*
X138028175Y-67269097D01*
X138047753Y-67263666D01*
X138067926Y-67258959D01*
X138088694Y-67254976D01*
X138110058Y-67251717D01*
X138132017Y-67249183D01*
X138154571Y-67247372D01*
X138177721Y-67246286D01*
X138201466Y-67245924D01*
X138218203Y-67246124D01*
G37*
D11*
%TO.C,J1*%
X133394000Y-98020000D03*
X133894000Y-98020000D03*
X134394000Y-98020000D03*
X134894000Y-98020000D03*
X135394000Y-98020000D03*
X135894000Y-98020000D03*
X136394000Y-98020000D03*
X136894000Y-98020000D03*
X137394000Y-98020000D03*
X137894000Y-98020000D03*
X138394000Y-98020000D03*
X138894000Y-98020000D03*
%TD*%
D12*
%TO.C,J2*%
X139954000Y-58250000D03*
D13*
X137414000Y-58250000D03*
X134874000Y-58250000D03*
X132334000Y-58250000D03*
%TD*%
M02*
