%TF.GenerationSoftware,KiCad,Pcbnew,7.0.4*%
%TF.CreationDate,2023-05-29T14:02:58+02:00*%
%TF.ProjectId,pcb,7063622e-6b69-4636-9164-5f7063625858,rev?*%
%TF.SameCoordinates,Original*%
%TF.FileFunction,Copper,L1,Top*%
%TF.FilePolarity,Positive*%
%FSLAX46Y46*%
G04 Gerber Fmt 4.6, Leading zero omitted, Abs format (unit mm)*
G04 Created by KiCad (PCBNEW 7.0.4) date 2023-05-29 14:02:58*
%MOMM*%
%LPD*%
G01*
G04 APERTURE LIST*
G04 Aperture macros list*
%AMRoundRect*
0 Rectangle with rounded corners*
0 $1 Rounding radius*
0 $2 $3 $4 $5 $6 $7 $8 $9 X,Y pos of 4 corners*
0 Add a 4 corners polygon primitive as box body*
4,1,4,$2,$3,$4,$5,$6,$7,$8,$9,$2,$3,0*
0 Add four circle primitives for the rounded corners*
1,1,$1+$1,$2,$3*
1,1,$1+$1,$4,$5*
1,1,$1+$1,$6,$7*
1,1,$1+$1,$8,$9*
0 Add four rect primitives between the rounded corners*
20,1,$1+$1,$2,$3,$4,$5,0*
20,1,$1+$1,$4,$5,$6,$7,0*
20,1,$1+$1,$6,$7,$8,$9,0*
20,1,$1+$1,$8,$9,$2,$3,0*%
G04 Aperture macros list end*
%TA.AperFunction,SMDPad,CuDef*%
%ADD10R,0.300000X3.000000*%
%TD*%
%TA.AperFunction,ComponentPad*%
%ADD11RoundRect,0.500000X0.500000X-0.500000X0.500000X0.500000X-0.500000X0.500000X-0.500000X-0.500000X0*%
%TD*%
%TA.AperFunction,ComponentPad*%
%ADD12C,2.000000*%
%TD*%
%TA.AperFunction,Conductor*%
%ADD13C,0.250000*%
%TD*%
G04 APERTURE END LIST*
D10*
%TO.P,J1,1,Pin_1*%
%TO.N,VCC*%
X133394000Y-98020000D03*
%TO.P,J1,2,Pin_2*%
X133894000Y-98020000D03*
%TO.P,J1,3,Pin_3*%
%TO.N,/misc*%
X134394000Y-98020000D03*
%TO.P,J1,4,Pin_4*%
%TO.N,/spi_rst*%
X134894000Y-98020000D03*
%TO.P,J1,5,Pin_5*%
%TO.N,/spi_sdi*%
X135394000Y-98020000D03*
%TO.P,J1,6,Pin_6*%
%TO.N,/spi_sdo*%
X135894000Y-98020000D03*
%TO.P,J1,7,Pin_7*%
%TO.N,/spi_dc*%
X136394000Y-98020000D03*
%TO.P,J1,8,Pin_8*%
%TO.N,/spi_cs*%
X136894000Y-98020000D03*
%TO.P,J1,9,Pin_9*%
%TO.N,/i2c_scl*%
X137394000Y-98020000D03*
%TO.P,J1,10,Pin_10*%
%TO.N,/i2c_sda*%
X137894000Y-98020000D03*
%TO.P,J1,11,Pin_11*%
%TO.N,GND*%
X138394000Y-98020000D03*
%TO.P,J1,12,Pin_12*%
X138894000Y-98020000D03*
%TD*%
D11*
%TO.P,J2,1,Pin_1*%
%TO.N,GND*%
X139954000Y-58250000D03*
D12*
%TO.P,J2,2,Pin_2*%
%TO.N,VCC*%
X137414000Y-58250000D03*
%TO.P,J2,3,Pin_3*%
%TO.N,/i2c_scl*%
X134874000Y-58250000D03*
%TO.P,J2,4,Pin_4*%
%TO.N,/i2c_sda*%
X132334000Y-58250000D03*
%TD*%
D13*
%TO.N,VCC*%
X130550000Y-58175000D02*
X130550000Y-58325000D01*
X133128769Y-56475000D02*
X132250000Y-56475000D01*
X133641717Y-96669377D02*
X133641717Y-97767717D01*
X135719823Y-66171660D02*
X135719823Y-95116892D01*
X133641717Y-97767717D02*
X133894000Y-98020000D01*
X132250000Y-60025000D02*
X132587994Y-60025000D01*
X134641717Y-96195000D02*
X134116111Y-96194992D01*
X134641717Y-96195023D02*
G75*
G03*
X135719823Y-95116892I-17J1078123D01*
G01*
X137414009Y-58249991D02*
G75*
G03*
X133128769Y-56475000I-4285209J-4285209D01*
G01*
X134116111Y-96195017D02*
G75*
G03*
X133641717Y-96669377I-11J-474383D01*
G01*
X132250000Y-56475000D02*
G75*
G03*
X130550000Y-58175000I0J-1700000D01*
G01*
X135719858Y-66171660D02*
G75*
G03*
X133295101Y-60317893I-8278458J-40D01*
G01*
X130550000Y-58325000D02*
G75*
G03*
X132250000Y-60025000I1700000J0D01*
G01*
X133295104Y-60317890D02*
G75*
G03*
X132587994Y-60025000I-707104J-707110D01*
G01*
%TO.N,/i2c_scl*%
X132300000Y-56925000D02*
X132569994Y-56925000D01*
X132774390Y-59575000D02*
X132300000Y-59575000D01*
X131000000Y-58275000D02*
X131000000Y-58225000D01*
X136169823Y-95348947D02*
X136169823Y-66008461D01*
X134241261Y-57617261D02*
X134874000Y-58250000D01*
X137394000Y-98020000D02*
X137394000Y-96573123D01*
X133728718Y-60115114D02*
X133481497Y-59867893D01*
X136169777Y-95348947D02*
G75*
G03*
X136894000Y-96073123I724223J47D01*
G01*
X136169858Y-66008461D02*
G75*
G03*
X133728718Y-60115114I-8334458J-39D01*
G01*
X137393977Y-96573123D02*
G75*
G03*
X136894000Y-96073123I-499977J23D01*
G01*
X134241258Y-57617264D02*
G75*
G03*
X132569994Y-56925000I-1671258J-1671236D01*
G01*
X132300000Y-56925000D02*
G75*
G03*
X131000000Y-58225000I0J-1300000D01*
G01*
X131000000Y-58275000D02*
G75*
G03*
X132300000Y-59575000I1300000J0D01*
G01*
X133481502Y-59867888D02*
G75*
G03*
X132774390Y-59575000I-707102J-707112D01*
G01*
%TO.N,/i2c_sda*%
X132334000Y-58250000D02*
X132687500Y-58250000D01*
X132687500Y-58250000D02*
X134200187Y-59762687D01*
X136619823Y-65604204D02*
X136619823Y-95093759D01*
X137894000Y-96367935D02*
X137894000Y-98020000D01*
X136619841Y-95093759D02*
G75*
G03*
X137119823Y-95593759I499959J-41D01*
G01*
X137893941Y-96367935D02*
G75*
G03*
X137119823Y-95593759I-774141J35D01*
G01*
X136619828Y-65604204D02*
G75*
G03*
X134200187Y-59762687I-8261128J4D01*
G01*
%TD*%
%TA.AperFunction,Conductor*%
%TO.N,VCC*%
G36*
X133863039Y-96541685D02*
G01*
X133908794Y-96594489D01*
X133920000Y-96646000D01*
X133920000Y-99395500D01*
X133900315Y-99462539D01*
X133847511Y-99508294D01*
X133796000Y-99519500D01*
X133536000Y-99519500D01*
X133468961Y-99499815D01*
X133423206Y-99447011D01*
X133412000Y-99395500D01*
X133412000Y-96646000D01*
X133431685Y-96578961D01*
X133484489Y-96533206D01*
X133536000Y-96522000D01*
X133796000Y-96522000D01*
X133863039Y-96541685D01*
G37*
%TD.AperFunction*%
%TD*%
%TA.AperFunction,Conductor*%
%TO.N,GND*%
G36*
X141396800Y-56006503D02*
G01*
X141439580Y-56010246D01*
X141565874Y-56022685D01*
X141585804Y-56026312D01*
X141603303Y-56031001D01*
X141651455Y-56043904D01*
X141653405Y-56044461D01*
X141745673Y-56072449D01*
X141762076Y-56078725D01*
X141829512Y-56110171D01*
X141832477Y-56111653D01*
X141916454Y-56156540D01*
X141922778Y-56160425D01*
X141988931Y-56206745D01*
X141992667Y-56209580D01*
X142064947Y-56268898D01*
X142069457Y-56272986D01*
X142126879Y-56330406D01*
X142130968Y-56334918D01*
X142190332Y-56407254D01*
X142193187Y-56411016D01*
X142239410Y-56477029D01*
X142243306Y-56483370D01*
X142288308Y-56567561D01*
X142289820Y-56570585D01*
X142321119Y-56637705D01*
X142327398Y-56654115D01*
X142355573Y-56746993D01*
X142356130Y-56748943D01*
X142373546Y-56813939D01*
X142377175Y-56833880D01*
X142389846Y-56962529D01*
X142393370Y-57002777D01*
X142393606Y-57008187D01*
X142393606Y-59503063D01*
X142393370Y-59508469D01*
X142389644Y-59551054D01*
X142377184Y-59677567D01*
X142373557Y-59697504D01*
X142356039Y-59762887D01*
X142355482Y-59764839D01*
X142327402Y-59857409D01*
X142321124Y-59873819D01*
X142289833Y-59940923D01*
X142288321Y-59943948D01*
X142243272Y-60028230D01*
X142239377Y-60034569D01*
X142193291Y-60100391D01*
X142190428Y-60104164D01*
X142130848Y-60176763D01*
X142126760Y-60181273D01*
X142069631Y-60238406D01*
X142065118Y-60242496D01*
X141992418Y-60302159D01*
X141988646Y-60305021D01*
X141922988Y-60350996D01*
X141916647Y-60354891D01*
X141831991Y-60400140D01*
X141828968Y-60401652D01*
X141762302Y-60432740D01*
X141745889Y-60439020D01*
X141652374Y-60467386D01*
X141650426Y-60467943D01*
X141586032Y-60485199D01*
X141566088Y-60488828D01*
X141436140Y-60501626D01*
X141400760Y-60504723D01*
X141397232Y-60505032D01*
X141391827Y-60505268D01*
X140457760Y-60505268D01*
X140443043Y-60500946D01*
X140402204Y-60504969D01*
X140396123Y-60505268D01*
X140382430Y-60505268D01*
X140382041Y-60505305D01*
X140306576Y-60505305D01*
X140242403Y-60516620D01*
X140230837Y-60515329D01*
X140208191Y-60522199D01*
X140200954Y-60523928D01*
X140134171Y-60535703D01*
X140134170Y-60535703D01*
X140055973Y-60564164D01*
X140043044Y-60564985D01*
X140028037Y-60573007D01*
X140011995Y-60580170D01*
X139969671Y-60595574D01*
X139969664Y-60595577D01*
X139884829Y-60644555D01*
X139870558Y-60648016D01*
X139858785Y-60657679D01*
X139842121Y-60669212D01*
X139818057Y-60683105D01*
X139813621Y-60686211D01*
X139813350Y-60685825D01*
X139799666Y-60695073D01*
X139796182Y-60696934D01*
X139779648Y-60715333D01*
X139732553Y-60754850D01*
X139717574Y-60761404D01*
X139709041Y-60771803D01*
X139692896Y-60788125D01*
X139683960Y-60795623D01*
X139683945Y-60795637D01*
X139676452Y-60804567D01*
X139660136Y-60820706D01*
X139655145Y-60824802D01*
X139643197Y-60844197D01*
X139603728Y-60891233D01*
X139588866Y-60901120D01*
X139583426Y-60911298D01*
X139574149Y-60925027D01*
X139574531Y-60925294D01*
X139571424Y-60929730D01*
X139557503Y-60953840D01*
X139545973Y-60970497D01*
X139540315Y-60977391D01*
X139532826Y-60996580D01*
X139483893Y-61081329D01*
X139483889Y-61081338D01*
X139468436Y-61123791D01*
X139461275Y-61139826D01*
X139455867Y-61149943D01*
X139452368Y-61167933D01*
X139424011Y-61245836D01*
X139412191Y-61312861D01*
X139410463Y-61320096D01*
X139404987Y-61338146D01*
X139404784Y-61354865D01*
X139393607Y-61418239D01*
X139393606Y-61507800D01*
X139393307Y-61513879D01*
X139389746Y-61550030D01*
X139393605Y-61572799D01*
X139393500Y-93519900D01*
X139393500Y-99210237D01*
X139391963Y-99229701D01*
X139391726Y-99231189D01*
X139391303Y-99233554D01*
X139376853Y-99306196D01*
X139365724Y-99338291D01*
X139357407Y-99354617D01*
X139353711Y-99360924D01*
X139324839Y-99404133D01*
X139309418Y-99422923D01*
X139296923Y-99435418D01*
X139278133Y-99450839D01*
X139234924Y-99479711D01*
X139228617Y-99483407D01*
X139212291Y-99491724D01*
X139180196Y-99502853D01*
X139107554Y-99517303D01*
X139105189Y-99517726D01*
X139103701Y-99517963D01*
X139084237Y-99519500D01*
X138368500Y-99519500D01*
X138301461Y-99499815D01*
X138255706Y-99447011D01*
X138244500Y-99395500D01*
X138244500Y-96500249D01*
X138244499Y-96500247D01*
X138232868Y-96441770D01*
X138228940Y-96432288D01*
X138219500Y-96384833D01*
X138219500Y-96337410D01*
X138219442Y-96336090D01*
X138219443Y-96309198D01*
X138219445Y-96271743D01*
X138186041Y-96082250D01*
X138120239Y-95901438D01*
X138047201Y-95774922D01*
X138024040Y-95734801D01*
X138024039Y-95734799D01*
X138024038Y-95734798D01*
X137900363Y-95587396D01*
X137900362Y-95587395D01*
X137900354Y-95587388D01*
X137752977Y-95463714D01*
X137752971Y-95463710D01*
X137752970Y-95463709D01*
X137669789Y-95415681D01*
X137586337Y-95367496D01*
X137405525Y-95301679D01*
X137216046Y-95268262D01*
X137216038Y-95268261D01*
X137175789Y-95268260D01*
X137175741Y-95268257D01*
X137132014Y-95268257D01*
X137107828Y-95265875D01*
X137077235Y-95259791D01*
X137032533Y-95241277D01*
X137016948Y-95230864D01*
X136982734Y-95196650D01*
X136972319Y-95181061D01*
X136953807Y-95136362D01*
X136947705Y-95105674D01*
X136945324Y-95081481D01*
X136945325Y-95065339D01*
X136945327Y-95042232D01*
X136945326Y-95042230D01*
X136945327Y-95033003D01*
X136945323Y-95032935D01*
X136945323Y-65655571D01*
X136945328Y-65655553D01*
X136945328Y-65344755D01*
X136945328Y-65344743D01*
X136913996Y-64826767D01*
X136851447Y-64311627D01*
X136757909Y-63801204D01*
X136633722Y-63297361D01*
X136479341Y-62801934D01*
X136295328Y-62316733D01*
X136082355Y-61843528D01*
X135841199Y-61384045D01*
X135572740Y-60939960D01*
X135473111Y-60795623D01*
X135277958Y-60512897D01*
X134957933Y-60104416D01*
X134957932Y-60104414D01*
X134613818Y-59715991D01*
X134536193Y-59638366D01*
X134502708Y-59577043D01*
X134507692Y-59507351D01*
X134549564Y-59451418D01*
X134615028Y-59427001D01*
X134646656Y-59428796D01*
X134762757Y-59450500D01*
X134762758Y-59450500D01*
X134985241Y-59450500D01*
X134985243Y-59450500D01*
X135203940Y-59409618D01*
X135411401Y-59329247D01*
X135600562Y-59212124D01*
X135764981Y-59062236D01*
X135899058Y-58884689D01*
X135998229Y-58685528D01*
X136024734Y-58592371D01*
X136062013Y-58533278D01*
X136125323Y-58503721D01*
X136194562Y-58513083D01*
X136247749Y-58558393D01*
X136263266Y-58592372D01*
X136289769Y-58685523D01*
X136289775Y-58685538D01*
X136388938Y-58884683D01*
X136388943Y-58884691D01*
X136523020Y-59062238D01*
X136687437Y-59212123D01*
X136687439Y-59212125D01*
X136876595Y-59329245D01*
X136876596Y-59329245D01*
X136876599Y-59329247D01*
X137084060Y-59409618D01*
X137302757Y-59450500D01*
X137302759Y-59450500D01*
X137525241Y-59450500D01*
X137525243Y-59450500D01*
X137743940Y-59409618D01*
X137951401Y-59329247D01*
X138140562Y-59212124D01*
X138304981Y-59062236D01*
X138439058Y-58884689D01*
X138538229Y-58685528D01*
X138599115Y-58471536D01*
X138619643Y-58250000D01*
X138599115Y-58028464D01*
X138538229Y-57814472D01*
X138520565Y-57778998D01*
X138439061Y-57615316D01*
X138439056Y-57615308D01*
X138304979Y-57437761D01*
X138140562Y-57287876D01*
X138140560Y-57287874D01*
X137951404Y-57170754D01*
X137951398Y-57170752D01*
X137743940Y-57090382D01*
X137525243Y-57049500D01*
X137302757Y-57049500D01*
X137084060Y-57090382D01*
X136952864Y-57141207D01*
X136876601Y-57170752D01*
X136876598Y-57170753D01*
X136798622Y-57219033D01*
X136731261Y-57237587D01*
X136666307Y-57217921D01*
X136389294Y-57039897D01*
X135988963Y-56821300D01*
X135822903Y-56745464D01*
X135574044Y-56631815D01*
X135146669Y-56472414D01*
X135146666Y-56472413D01*
X135146663Y-56472412D01*
X135146651Y-56472408D01*
X134709012Y-56343907D01*
X134709002Y-56343904D01*
X134283914Y-56251434D01*
X134222591Y-56217950D01*
X134189106Y-56156627D01*
X134194090Y-56086935D01*
X134235961Y-56031001D01*
X134301426Y-56006584D01*
X134310272Y-56006268D01*
X141391401Y-56006268D01*
X141396800Y-56006503D01*
G37*
%TD.AperFunction*%
%TA.AperFunction,Conductor*%
G36*
X131643054Y-56025953D02*
G01*
X131688809Y-56078757D01*
X131698753Y-56147915D01*
X131669728Y-56211471D01*
X131610950Y-56249245D01*
X131608121Y-56250039D01*
X131605758Y-56250672D01*
X131597521Y-56252879D01*
X131352231Y-56354481D01*
X131352214Y-56354489D01*
X131122285Y-56487240D01*
X131122269Y-56487251D01*
X130911631Y-56648879D01*
X130911624Y-56648885D01*
X130723885Y-56836624D01*
X130723879Y-56836631D01*
X130562251Y-57047269D01*
X130562240Y-57047285D01*
X130429489Y-57277214D01*
X130429481Y-57277231D01*
X130327879Y-57522521D01*
X130259156Y-57778998D01*
X130224501Y-58042232D01*
X130224500Y-58042248D01*
X130224500Y-58457751D01*
X130224501Y-58457767D01*
X130259156Y-58721001D01*
X130327879Y-58977478D01*
X130429481Y-59222768D01*
X130429489Y-59222785D01*
X130562240Y-59452714D01*
X130562251Y-59452730D01*
X130723879Y-59663368D01*
X130723885Y-59663375D01*
X130911624Y-59851114D01*
X130911631Y-59851120D01*
X130919827Y-59857409D01*
X131122278Y-60012755D01*
X131122285Y-60012759D01*
X131352214Y-60145510D01*
X131352219Y-60145512D01*
X131352222Y-60145514D01*
X131352226Y-60145515D01*
X131352231Y-60145518D01*
X131597522Y-60247120D01*
X131597520Y-60247120D01*
X131597526Y-60247121D01*
X131597527Y-60247122D01*
X131651161Y-60261493D01*
X131710822Y-60297858D01*
X131741351Y-60360705D01*
X131733056Y-60430080D01*
X131688571Y-60483958D01*
X131622019Y-60505233D01*
X131619068Y-60505268D01*
X130896813Y-60505268D01*
X130891410Y-60505032D01*
X130877853Y-60503846D01*
X130848778Y-60501302D01*
X130722307Y-60488840D01*
X130702375Y-60485213D01*
X130636959Y-60467687D01*
X130635015Y-60467131D01*
X130542493Y-60439064D01*
X130526082Y-60432785D01*
X130520281Y-60430080D01*
X130515580Y-60427888D01*
X130458870Y-60401442D01*
X130455847Y-60399931D01*
X130382458Y-60360705D01*
X130371726Y-60354968D01*
X130365390Y-60351076D01*
X130364994Y-60350799D01*
X130332070Y-60327744D01*
X130299343Y-60304828D01*
X130295572Y-60301967D01*
X130290565Y-60297858D01*
X130223261Y-60242623D01*
X130218763Y-60238546D01*
X130161320Y-60181101D01*
X130157235Y-60176594D01*
X130097940Y-60104343D01*
X130095118Y-60100625D01*
X130048754Y-60034407D01*
X130044865Y-60028076D01*
X130000069Y-59944268D01*
X129998556Y-59941243D01*
X129993412Y-59930212D01*
X129967043Y-59873660D01*
X129960774Y-59857275D01*
X129932906Y-59765409D01*
X129932383Y-59763577D01*
X129914641Y-59697355D01*
X129911017Y-59677438D01*
X129898801Y-59553443D01*
X129894842Y-59508167D01*
X129894606Y-59502763D01*
X129894606Y-57008478D01*
X129894842Y-57003072D01*
X129894991Y-57001364D01*
X129898658Y-56959460D01*
X129910975Y-56834207D01*
X129914604Y-56814257D01*
X129914690Y-56813939D01*
X129932520Y-56747396D01*
X129933073Y-56745464D01*
X129940660Y-56720453D01*
X129960704Y-56654382D01*
X129966969Y-56638010D01*
X129998725Y-56569908D01*
X130000196Y-56566966D01*
X130044779Y-56483561D01*
X130048641Y-56477276D01*
X130095245Y-56410716D01*
X130098067Y-56406997D01*
X130157151Y-56335006D01*
X130161189Y-56330551D01*
X130218845Y-56272891D01*
X130223304Y-56268850D01*
X130295547Y-56209564D01*
X130299270Y-56206739D01*
X130365368Y-56160452D01*
X130371701Y-56156562D01*
X130456027Y-56111490D01*
X130459007Y-56110000D01*
X130525971Y-56078770D01*
X130542355Y-56072501D01*
X130635962Y-56044107D01*
X130637767Y-56043592D01*
X130702144Y-56026337D01*
X130722063Y-56022711D01*
X130853943Y-56009723D01*
X130890711Y-56006503D01*
X130896104Y-56006268D01*
X131576015Y-56006268D01*
X131643054Y-56025953D01*
G37*
%TD.AperFunction*%
%TD*%
%TA.AperFunction,NonConductor*%
G36*
X132591029Y-60350799D02*
G01*
X132707431Y-60362263D01*
X132731271Y-60367005D01*
X132834430Y-60398297D01*
X132856886Y-60407598D01*
X132951961Y-60458416D01*
X132972166Y-60471917D01*
X133061770Y-60545450D01*
X133067691Y-60550997D01*
X133419313Y-60926412D01*
X133421989Y-60929463D01*
X133749579Y-61328626D01*
X133752049Y-61331846D01*
X134052819Y-61751561D01*
X134055074Y-61754936D01*
X134327761Y-62193445D01*
X134329790Y-62196959D01*
X134573209Y-62652355D01*
X134575004Y-62655995D01*
X134788115Y-63126334D01*
X134789668Y-63130083D01*
X134971566Y-63613361D01*
X134972870Y-63617204D01*
X135122762Y-64111321D01*
X135123813Y-64115241D01*
X135241073Y-64618131D01*
X135241865Y-64622111D01*
X135325983Y-65131586D01*
X135326513Y-65135610D01*
X135377127Y-65649487D01*
X135377392Y-65653536D01*
X135394290Y-66169591D01*
X135394323Y-66171620D01*
X135394323Y-95113847D01*
X135394024Y-95119928D01*
X135381059Y-95251569D01*
X135376317Y-95275408D01*
X135340581Y-95393221D01*
X135331278Y-95415681D01*
X135273243Y-95524258D01*
X135259739Y-95544469D01*
X135181637Y-95639639D01*
X135164449Y-95656827D01*
X135069287Y-95734927D01*
X135049075Y-95748433D01*
X134940492Y-95806473D01*
X134918035Y-95815775D01*
X134800229Y-95851513D01*
X134776387Y-95856256D01*
X134644979Y-95869199D01*
X134638897Y-95869498D01*
X134131723Y-95869492D01*
X134116119Y-95869492D01*
X134087641Y-95869492D01*
X134085145Y-95869492D01*
X134084591Y-95869515D01*
X134037339Y-95869515D01*
X134037338Y-95869515D01*
X134006603Y-95875627D01*
X133882805Y-95900249D01*
X133737237Y-95960540D01*
X133737231Y-95960543D01*
X133606224Y-96048073D01*
X133606220Y-96048077D01*
X133494814Y-96159475D01*
X133494809Y-96159481D01*
X133494810Y-96159481D01*
X133424702Y-96264396D01*
X133371090Y-96309198D01*
X133321604Y-96319500D01*
X133224247Y-96319500D01*
X133165770Y-96331131D01*
X133165769Y-96331132D01*
X133089293Y-96382233D01*
X133087190Y-96379086D01*
X133044826Y-96402205D01*
X132975136Y-96397202D01*
X132919213Y-96355316D01*
X132894814Y-96289846D01*
X132894500Y-96281032D01*
X132894500Y-93519901D01*
X132894500Y-93519900D01*
X132894605Y-61566174D01*
X132898684Y-61552284D01*
X132894903Y-61513883D01*
X132894605Y-61507819D01*
X132894606Y-61505669D01*
X132894605Y-61505666D01*
X132894605Y-61493910D01*
X132894532Y-61493166D01*
X132894537Y-61418238D01*
X132883062Y-61353137D01*
X132884330Y-61341770D01*
X132877602Y-61319588D01*
X132875873Y-61312347D01*
X132864149Y-61245836D01*
X132835799Y-61167933D01*
X132835545Y-61167236D01*
X132834729Y-61154386D01*
X132826789Y-61139531D01*
X132819624Y-61123486D01*
X132804284Y-61081331D01*
X132755203Y-60996312D01*
X132751750Y-60982073D01*
X132742130Y-60970351D01*
X132730594Y-60953682D01*
X132729517Y-60951817D01*
X132716761Y-60929720D01*
X132716758Y-60929716D01*
X132713655Y-60925283D01*
X132714048Y-60925007D01*
X132704848Y-60911394D01*
X132703000Y-60907938D01*
X132684635Y-60891431D01*
X132644950Y-60844132D01*
X132638400Y-60829163D01*
X132628021Y-60820646D01*
X132611693Y-60804495D01*
X132604240Y-60795612D01*
X132595349Y-60788151D01*
X132579211Y-60771835D01*
X132575136Y-60766870D01*
X132555772Y-60754939D01*
X132508602Y-60715356D01*
X132498720Y-60700502D01*
X132488558Y-60695070D01*
X132474854Y-60685806D01*
X132474584Y-60686192D01*
X132470140Y-60683080D01*
X132446065Y-60669180D01*
X132429404Y-60657649D01*
X132422535Y-60652012D01*
X132403378Y-60644533D01*
X132318537Y-60595548D01*
X132318535Y-60595547D01*
X132318534Y-60595546D01*
X132306100Y-60591021D01*
X132249837Y-60549594D01*
X132224903Y-60484324D01*
X132239214Y-60415936D01*
X132288227Y-60366141D01*
X132348513Y-60350500D01*
X132536442Y-60350500D01*
X132584948Y-60350500D01*
X132591029Y-60350799D01*
G37*
%TD.AperFunction*%
M02*
