%TF.GenerationSoftware,KiCad,Pcbnew,7.0.4*%
%TF.CreationDate,2023-06-28T13:03:42+02:00*%
%TF.ProjectId,pcb,7063622e-6b69-4636-9164-5f7063625858,rev?*%
%TF.SameCoordinates,Original*%
%TF.FileFunction,Copper,L1,Top*%
%TF.FilePolarity,Positive*%
%FSLAX46Y46*%
G04 Gerber Fmt 4.6, Leading zero omitted, Abs format (unit mm)*
G04 Created by KiCad (PCBNEW 7.0.4) date 2023-06-28 13:03:42*
%MOMM*%
%LPD*%
G01*
G04 APERTURE LIST*
G04 Aperture macros list*
%AMRoundRect*
0 Rectangle with rounded corners*
0 $1 Rounding radius*
0 $2 $3 $4 $5 $6 $7 $8 $9 X,Y pos of 4 corners*
0 Add a 4 corners polygon primitive as box body*
4,1,4,$2,$3,$4,$5,$6,$7,$8,$9,$2,$3,0*
0 Add four circle primitives for the rounded corners*
1,1,$1+$1,$2,$3*
1,1,$1+$1,$4,$5*
1,1,$1+$1,$6,$7*
1,1,$1+$1,$8,$9*
0 Add four rect primitives between the rounded corners*
20,1,$1+$1,$2,$3,$4,$5,0*
20,1,$1+$1,$4,$5,$6,$7,0*
20,1,$1+$1,$6,$7,$8,$9,0*
20,1,$1+$1,$8,$9,$2,$3,0*%
G04 Aperture macros list end*
%TA.AperFunction,ComponentPad*%
%ADD10RoundRect,0.425000X0.425000X0.425000X-0.425000X0.425000X-0.425000X-0.425000X0.425000X-0.425000X0*%
%TD*%
%TA.AperFunction,ComponentPad*%
%ADD11O,1.700000X1.700000*%
%TD*%
%TA.AperFunction,SMDPad,CuDef*%
%ADD12R,0.300000X3.000000*%
%TD*%
%TA.AperFunction,ComponentPad*%
%ADD13RoundRect,0.500000X0.500000X-0.500000X0.500000X0.500000X-0.500000X0.500000X-0.500000X-0.500000X0*%
%TD*%
%TA.AperFunction,ComponentPad*%
%ADD14C,2.000000*%
%TD*%
%TA.AperFunction,ViaPad*%
%ADD15C,0.800000*%
%TD*%
%TA.AperFunction,Conductor*%
%ADD16C,0.250000*%
%TD*%
G04 APERTURE END LIST*
D10*
%TO.P,J3,1,Pin_1*%
%TO.N,GND*%
X138250000Y-89675000D03*
D11*
%TO.P,J3,2,Pin_2*%
%TO.N,/i2c_sda*%
X138250000Y-87135000D03*
%TO.P,J3,3,Pin_3*%
%TO.N,/i2c_scl*%
X138250000Y-84595000D03*
%TO.P,J3,4,Pin_4*%
%TO.N,/spi_cs*%
X138250000Y-82055000D03*
%TO.P,J3,5,Pin_5*%
%TO.N,/spi_dc*%
X138250000Y-79515000D03*
%TO.P,J3,6,Pin_6*%
%TO.N,/spi_sdo*%
X138250000Y-76975000D03*
%TO.P,J3,7,Pin_7*%
%TO.N,/spi_sdi*%
X138250000Y-74435000D03*
%TO.P,J3,8,Pin_8*%
%TO.N,/spi_rst*%
X138250000Y-71895000D03*
%TO.P,J3,9,Pin_9*%
%TO.N,/misc*%
X138250000Y-69355000D03*
%TO.P,J3,10,Pin_10*%
%TO.N,VCC*%
X138250000Y-66815000D03*
%TD*%
D12*
%TO.P,J1,1,Pin_1*%
%TO.N,VCC*%
X133394000Y-98020000D03*
%TO.P,J1,2,Pin_2*%
X133894000Y-98020000D03*
%TO.P,J1,3,Pin_3*%
%TO.N,/misc*%
X134394000Y-98020000D03*
%TO.P,J1,4,Pin_4*%
%TO.N,/spi_rst*%
X134894000Y-98020000D03*
%TO.P,J1,5,Pin_5*%
%TO.N,/spi_sdi*%
X135394000Y-98020000D03*
%TO.P,J1,6,Pin_6*%
%TO.N,/spi_sdo*%
X135894000Y-98020000D03*
%TO.P,J1,7,Pin_7*%
%TO.N,/spi_dc*%
X136394000Y-98020000D03*
%TO.P,J1,8,Pin_8*%
%TO.N,/spi_cs*%
X136894000Y-98020000D03*
%TO.P,J1,9,Pin_9*%
%TO.N,/i2c_scl*%
X137394000Y-98020000D03*
%TO.P,J1,10,Pin_10*%
%TO.N,/i2c_sda*%
X137894000Y-98020000D03*
%TO.P,J1,11,Pin_11*%
%TO.N,GND*%
X138394000Y-98020000D03*
%TO.P,J1,12,Pin_12*%
X138894000Y-98020000D03*
%TD*%
D13*
%TO.P,J2,1,Pin_1*%
%TO.N,GND*%
X139954000Y-58250000D03*
D14*
%TO.P,J2,2,Pin_2*%
%TO.N,VCC*%
X137414000Y-58250000D03*
%TO.P,J2,3,Pin_3*%
%TO.N,/i2c_scl*%
X134874000Y-58250000D03*
%TO.P,J2,4,Pin_4*%
%TO.N,/i2c_sda*%
X132334000Y-58250000D03*
%TD*%
D15*
%TO.N,GND*%
X138250000Y-63000000D03*
X134000000Y-63000000D03*
%TD*%
D16*
%TO.N,VCC*%
X133225000Y-95397447D02*
X133225000Y-78946442D01*
X133394000Y-98020000D02*
X133650000Y-97764000D01*
X133444974Y-95907370D02*
X133430025Y-95892421D01*
X133650000Y-97764000D02*
X133650000Y-96402325D01*
X138249973Y-66814973D02*
G75*
G03*
X133225000Y-78946442I12131527J-12131427D01*
G01*
X133224968Y-95397447D02*
G75*
G03*
X133430026Y-95892420I700032J47D01*
G01*
X133649997Y-96402325D02*
G75*
G03*
X133444974Y-95907370I-699897J25D01*
G01*
%TO.N,/i2c_scl*%
X137394000Y-98020000D02*
X137394000Y-96304170D01*
X136375000Y-93844146D02*
X136375000Y-89121581D01*
X137394032Y-96304170D02*
G75*
G03*
X136755761Y-94763385I-2178932J-30D01*
G01*
X136374968Y-93844146D02*
G75*
G03*
X136755762Y-94763384I1300032J46D01*
G01*
X138250006Y-84595006D02*
G75*
G03*
X136375000Y-89121581I4526494J-4526594D01*
G01*
%TO.N,/i2c_sda*%
X137894000Y-98020000D02*
X137894000Y-96238501D01*
X136825000Y-93657750D02*
X136825000Y-90575321D01*
X136824965Y-93657750D02*
G75*
G03*
X137205761Y-94576989I1300035J50D01*
G01*
X137893996Y-96238501D02*
G75*
G03*
X137205761Y-94576989I-2349696J1D01*
G01*
X138249993Y-87134993D02*
G75*
G03*
X136825000Y-90575321I3440407J-3440307D01*
G01*
%TO.N,/spi_cs*%
X136894000Y-98020000D02*
X136894000Y-96369860D01*
X135925000Y-94030542D02*
X135925000Y-87667989D01*
X136894039Y-96369860D02*
G75*
G03*
X136305760Y-94949782I-2008239J-40D01*
G01*
X138250007Y-82055007D02*
G75*
G03*
X135925000Y-87667989I5612893J-5612993D01*
G01*
X135924971Y-94030542D02*
G75*
G03*
X136305762Y-94949780I1300029J42D01*
G01*
%TO.N,/spi_dc*%
X136394000Y-98020000D02*
X136394000Y-96435472D01*
X135475000Y-94216938D02*
X135475000Y-86214441D01*
X138249997Y-79514997D02*
G75*
G03*
X135475000Y-86214441I6699453J-6699443D01*
G01*
X136394005Y-96435472D02*
G75*
G03*
X135855761Y-95136177I-1837405J-28D01*
G01*
X135474973Y-94216938D02*
G75*
G03*
X135855761Y-95136177I1300027J38D01*
G01*
%TO.N,/spi_sdo*%
X135025000Y-94403334D02*
X135025000Y-84760866D01*
X135894000Y-98020000D02*
X135894000Y-96501265D01*
X135024976Y-94403334D02*
G75*
G03*
X135405761Y-95322573I1300024J34D01*
G01*
X138249998Y-76974998D02*
G75*
G03*
X135025000Y-84760866I7785902J-7785862D01*
G01*
X135894025Y-96501265D02*
G75*
G03*
X135405761Y-95322573I-1666925J-35D01*
G01*
%TO.N,/spi_sdi*%
X134575000Y-94589730D02*
X134575000Y-83307215D01*
X135394000Y-98020000D02*
X135394000Y-96485686D01*
X135013239Y-95566447D02*
X134955761Y-95508969D01*
X134574979Y-94589730D02*
G75*
G03*
X134955761Y-95508969I1300021J30D01*
G01*
X138249990Y-74434990D02*
G75*
G03*
X134575000Y-83307215I8872210J-8872210D01*
G01*
X135394010Y-96485686D02*
G75*
G03*
X135013239Y-95566447I-1300010J-14D01*
G01*
%TO.N,/spi_rst*%
X134125000Y-94776126D02*
X134125000Y-81853517D01*
X134513239Y-95702843D02*
X134505761Y-95695365D01*
X134894000Y-98020000D02*
X134894000Y-96622048D01*
X134893971Y-96622048D02*
G75*
G03*
X134513239Y-95702843I-1299871J48D01*
G01*
X138249982Y-71894982D02*
G75*
G03*
X134125000Y-81853517I9958418J-9958518D01*
G01*
X134124982Y-94776126D02*
G75*
G03*
X134505761Y-95695365I1300018J26D01*
G01*
%TO.N,/misc*%
X133675000Y-95003944D02*
X133675000Y-80400013D01*
X134394000Y-98020000D02*
X134394000Y-96717056D01*
X134042528Y-95868528D02*
X134026472Y-95852472D01*
X134394030Y-96717056D02*
G75*
G03*
X134042527Y-95868529I-1200030J-44D01*
G01*
X138249992Y-69354992D02*
G75*
G03*
X133675000Y-80400013I11045008J-11045008D01*
G01*
X133674970Y-95003944D02*
G75*
G03*
X134026473Y-95852471I1200030J44D01*
G01*
%TO.N,GND*%
X138394000Y-89819000D02*
X138250000Y-89675000D01*
%TD*%
%TA.AperFunction,Conductor*%
%TO.N,VCC*%
G36*
X133863039Y-96541685D02*
G01*
X133908794Y-96594489D01*
X133920000Y-96646000D01*
X133920000Y-99395500D01*
X133900315Y-99462539D01*
X133847511Y-99508294D01*
X133796000Y-99519500D01*
X133536000Y-99519500D01*
X133468961Y-99499815D01*
X133423206Y-99447011D01*
X133412000Y-99395500D01*
X133412000Y-96646000D01*
X133431685Y-96578961D01*
X133484489Y-96533206D01*
X133536000Y-96522000D01*
X133796000Y-96522000D01*
X133863039Y-96541685D01*
G37*
%TD.AperFunction*%
%TD*%
%TA.AperFunction,Conductor*%
%TO.N,GND*%
G36*
X139342941Y-87619219D02*
G01*
X139385310Y-87674777D01*
X139393519Y-87719145D01*
X139393500Y-93519900D01*
X139393500Y-99210242D01*
X139391973Y-99229641D01*
X139381913Y-99293154D01*
X139369925Y-99330049D01*
X139345217Y-99378542D01*
X139322413Y-99409929D01*
X139283929Y-99448413D01*
X139252542Y-99471217D01*
X139204049Y-99495925D01*
X139167154Y-99507913D01*
X139129734Y-99513840D01*
X139103639Y-99517973D01*
X139084243Y-99519500D01*
X138368500Y-99519500D01*
X138301461Y-99499815D01*
X138255706Y-99447011D01*
X138244500Y-99395500D01*
X138244500Y-96500249D01*
X138244499Y-96500247D01*
X138232868Y-96441770D01*
X138228940Y-96432288D01*
X138219500Y-96384833D01*
X138219500Y-96207364D01*
X138219496Y-96207270D01*
X138219496Y-96088257D01*
X138185853Y-95789686D01*
X138185852Y-95789674D01*
X138118989Y-95496731D01*
X138019745Y-95213116D01*
X137889371Y-94942396D01*
X137729505Y-94687976D01*
X137542157Y-94453056D01*
X137458475Y-94369376D01*
X137437641Y-94348542D01*
X137434336Y-94344967D01*
X137342934Y-94237956D01*
X137331503Y-94222222D01*
X137261793Y-94108472D01*
X137252960Y-94091137D01*
X137201904Y-93967888D01*
X137195896Y-93949400D01*
X137164744Y-93819663D01*
X137161703Y-93800462D01*
X137150690Y-93660598D01*
X137150500Y-93655747D01*
X137150500Y-90576672D01*
X137150559Y-90573968D01*
X137167656Y-90182348D01*
X137168128Y-90176957D01*
X137168505Y-90174092D01*
X137219114Y-89789654D01*
X137220046Y-89784367D01*
X137304601Y-89402950D01*
X137305990Y-89397763D01*
X137423467Y-89025166D01*
X137425307Y-89020110D01*
X137574803Y-88659185D01*
X137577076Y-88654309D01*
X137757469Y-88307769D01*
X137760151Y-88303125D01*
X137826497Y-88198979D01*
X137879117Y-88153016D01*
X137948236Y-88142798D01*
X137967067Y-88146942D01*
X138044066Y-88170300D01*
X138044065Y-88170300D01*
X138062529Y-88172118D01*
X138250000Y-88190583D01*
X138455934Y-88170300D01*
X138653954Y-88110232D01*
X138836450Y-88012685D01*
X138996410Y-87881410D01*
X139127685Y-87721450D01*
X139160162Y-87660689D01*
X139209123Y-87610847D01*
X139277261Y-87595387D01*
X139342941Y-87619219D01*
G37*
%TD.AperFunction*%
%TA.AperFunction,Conductor*%
G36*
X139342948Y-85079202D02*
G01*
X139385317Y-85134760D01*
X139393527Y-85179129D01*
X139393523Y-86550862D01*
X139373838Y-86617902D01*
X139321034Y-86663657D01*
X139251876Y-86673600D01*
X139188320Y-86644575D01*
X139160165Y-86609316D01*
X139153848Y-86597498D01*
X139127685Y-86548550D01*
X139051395Y-86455590D01*
X138996410Y-86388589D01*
X138836452Y-86257317D01*
X138836453Y-86257317D01*
X138836450Y-86257315D01*
X138653954Y-86159768D01*
X138455934Y-86099700D01*
X138455932Y-86099699D01*
X138455934Y-86099699D01*
X138250000Y-86079417D01*
X138044067Y-86099699D01*
X137846043Y-86159769D01*
X137692008Y-86242104D01*
X137623605Y-86256346D01*
X137558361Y-86231346D01*
X137516990Y-86175042D01*
X137512628Y-86105308D01*
X137526913Y-86069472D01*
X137663953Y-85838507D01*
X137666330Y-85834811D01*
X137703634Y-85781083D01*
X137797863Y-85645369D01*
X137852265Y-85601531D01*
X137921734Y-85594062D01*
X137935702Y-85597428D01*
X138044066Y-85630300D01*
X138044065Y-85630300D01*
X138064347Y-85632297D01*
X138250000Y-85650583D01*
X138455934Y-85630300D01*
X138653954Y-85570232D01*
X138836450Y-85472685D01*
X138996410Y-85341410D01*
X139127685Y-85181450D01*
X139160170Y-85120674D01*
X139209131Y-85070832D01*
X139277268Y-85055371D01*
X139342948Y-85079202D01*
G37*
%TD.AperFunction*%
%TA.AperFunction,Conductor*%
G36*
X137195938Y-81634948D02*
G01*
X137237038Y-81691451D01*
X137241065Y-81761204D01*
X137238933Y-81769180D01*
X137214699Y-81849067D01*
X137194417Y-82054999D01*
X137214699Y-82260932D01*
X137274769Y-82458958D01*
X137306625Y-82518556D01*
X137320867Y-82586959D01*
X137295867Y-82652203D01*
X137295643Y-82652496D01*
X137142461Y-82852124D01*
X137142454Y-82852134D01*
X136841875Y-83301975D01*
X136762917Y-83438733D01*
X136574686Y-83764754D01*
X136571348Y-83770535D01*
X136332055Y-84255765D01*
X136249288Y-84455581D01*
X136223056Y-84518911D01*
X136199878Y-84574866D01*
X136156036Y-84629270D01*
X136089742Y-84651334D01*
X136022043Y-84634054D01*
X135974433Y-84582917D01*
X135962028Y-84514157D01*
X135964079Y-84501388D01*
X136016805Y-84255765D01*
X136065959Y-84026779D01*
X136066845Y-84023180D01*
X136214260Y-83494379D01*
X136215361Y-83490848D01*
X136394428Y-82971930D01*
X136395738Y-82968474D01*
X136605810Y-82461316D01*
X136607330Y-82457936D01*
X136847643Y-81964382D01*
X136849367Y-81961097D01*
X137012267Y-81672267D01*
X137062345Y-81623547D01*
X137130815Y-81609634D01*
X137195938Y-81634948D01*
G37*
%TD.AperFunction*%
%TA.AperFunction,Conductor*%
G36*
X139342973Y-77459155D02*
G01*
X139385342Y-77514713D01*
X139393552Y-77559082D01*
X139393548Y-78930909D01*
X139373863Y-78997949D01*
X139321059Y-79043704D01*
X139251901Y-79053647D01*
X139188345Y-79024622D01*
X139160191Y-78989364D01*
X139127685Y-78928550D01*
X139060041Y-78846125D01*
X138996410Y-78768589D01*
X138836452Y-78637317D01*
X138836453Y-78637317D01*
X138836450Y-78637315D01*
X138653954Y-78539768D01*
X138455934Y-78479700D01*
X138455932Y-78479699D01*
X138455934Y-78479699D01*
X138250000Y-78459417D01*
X138044067Y-78479699D01*
X137846043Y-78539769D01*
X137735898Y-78598643D01*
X137663550Y-78637315D01*
X137663548Y-78637316D01*
X137663547Y-78637317D01*
X137503589Y-78768590D01*
X137436855Y-78849905D01*
X137379109Y-78889239D01*
X137312348Y-78891027D01*
X137334579Y-78927015D01*
X137333332Y-78996874D01*
X137324355Y-79018274D01*
X137274769Y-79111041D01*
X137214699Y-79309067D01*
X137194417Y-79514999D01*
X137214699Y-79720932D01*
X137274769Y-79918957D01*
X137300535Y-79967162D01*
X137314776Y-80035565D01*
X137289775Y-80100808D01*
X137288787Y-80102087D01*
X137052467Y-80403728D01*
X136716039Y-80891127D01*
X136716023Y-80891152D01*
X136409643Y-81397966D01*
X136134405Y-81922389D01*
X135891338Y-82462464D01*
X135812274Y-82670940D01*
X135770096Y-82726643D01*
X135704498Y-82750700D01*
X135636308Y-82735473D01*
X135587175Y-82685797D01*
X135572698Y-82617443D01*
X135574713Y-82602789D01*
X135618069Y-82384821D01*
X135618829Y-82381492D01*
X135767678Y-81804447D01*
X135768633Y-81801132D01*
X135949604Y-81233340D01*
X135950737Y-81230103D01*
X136163266Y-80673333D01*
X136164564Y-80670199D01*
X136407980Y-80126215D01*
X136409460Y-80123143D01*
X136682990Y-79593671D01*
X136684644Y-79590678D01*
X136987433Y-79077374D01*
X136989233Y-79074507D01*
X137111897Y-78890928D01*
X137165507Y-78846125D01*
X137234832Y-78837418D01*
X137242792Y-78841226D01*
X137218780Y-78792166D01*
X137226869Y-78722766D01*
X137237894Y-78702358D01*
X137320344Y-78578964D01*
X137322320Y-78576178D01*
X137680692Y-78099983D01*
X137682799Y-78097342D01*
X137762334Y-78003153D01*
X137820624Y-77964634D01*
X137890488Y-77963743D01*
X137893000Y-77964475D01*
X138044066Y-78010300D01*
X138044065Y-78010300D01*
X138062529Y-78012118D01*
X138250000Y-78030583D01*
X138455934Y-78010300D01*
X138653954Y-77950232D01*
X138836450Y-77852685D01*
X138996410Y-77721410D01*
X139127685Y-77561450D01*
X139160196Y-77500625D01*
X139209156Y-77450785D01*
X139277293Y-77435324D01*
X139342973Y-77459155D01*
G37*
%TD.AperFunction*%
%TD*%
%TA.AperFunction,NonConductor*%
G36*
X139343007Y-67299093D02*
G01*
X139385376Y-67354650D01*
X139393586Y-67399019D01*
X139393581Y-68770972D01*
X139373896Y-68838012D01*
X139321092Y-68883767D01*
X139251934Y-68893710D01*
X139188378Y-68864685D01*
X139160224Y-68829427D01*
X139127685Y-68768550D01*
X139127684Y-68768548D01*
X138996410Y-68608589D01*
X138836452Y-68477317D01*
X138836453Y-68477317D01*
X138836450Y-68477315D01*
X138653954Y-68379768D01*
X138455934Y-68319700D01*
X138455932Y-68319699D01*
X138455934Y-68319699D01*
X138268463Y-68301235D01*
X138250000Y-68299417D01*
X138249999Y-68299417D01*
X138044067Y-68319699D01*
X137846043Y-68379769D01*
X137735898Y-68438643D01*
X137663550Y-68477315D01*
X137663548Y-68477316D01*
X137663547Y-68477317D01*
X137503589Y-68608589D01*
X137372317Y-68768547D01*
X137372316Y-68768548D01*
X137372315Y-68768550D01*
X137352978Y-68804727D01*
X137274769Y-68951043D01*
X137214699Y-69149067D01*
X137194417Y-69354999D01*
X137214699Y-69560932D01*
X137274769Y-69758957D01*
X137286682Y-69781243D01*
X137300924Y-69849645D01*
X137275925Y-69914889D01*
X137268970Y-69923226D01*
X137262927Y-69929855D01*
X136792222Y-70496705D01*
X136792210Y-70496721D01*
X136348218Y-71084662D01*
X136348204Y-71084680D01*
X136348201Y-71084686D01*
X136069840Y-71491043D01*
X135931800Y-71692557D01*
X135543927Y-72318993D01*
X135543914Y-72319015D01*
X135185392Y-72962684D01*
X135185363Y-72962738D01*
X134856961Y-73622262D01*
X134856959Y-73622265D01*
X134559363Y-74296256D01*
X134559349Y-74296289D01*
X134559345Y-74296299D01*
X134371769Y-74780490D01*
X134293173Y-74983369D01*
X134243323Y-75132103D01*
X134203354Y-75189412D01*
X134138747Y-75216014D01*
X134070014Y-75203464D01*
X134018977Y-75155746D01*
X134001840Y-75088011D01*
X134005733Y-75061527D01*
X134192633Y-74341877D01*
X134193416Y-74339122D01*
X134206677Y-74296299D01*
X134422575Y-73599092D01*
X134423462Y-73596443D01*
X134681763Y-72881054D01*
X134686558Y-72867773D01*
X134687593Y-72865102D01*
X134725873Y-72772685D01*
X134984047Y-72149391D01*
X134985171Y-72146846D01*
X135314387Y-71445540D01*
X135315630Y-71443044D01*
X135676869Y-70757718D01*
X135678248Y-70755243D01*
X135711614Y-70698466D01*
X136070741Y-70087349D01*
X136072226Y-70084950D01*
X136495158Y-69435877D01*
X136496735Y-69433573D01*
X136949204Y-68804708D01*
X136950918Y-68802441D01*
X136975844Y-68770972D01*
X137431911Y-68195188D01*
X137433726Y-68193005D01*
X137524289Y-68088930D01*
X137744420Y-67835957D01*
X137803275Y-67798308D01*
X137873145Y-67798454D01*
X137873562Y-67798579D01*
X138044066Y-67850300D01*
X138250000Y-67870583D01*
X138455934Y-67850300D01*
X138653954Y-67790232D01*
X138836450Y-67692685D01*
X138996410Y-67561410D01*
X139127685Y-67401450D01*
X139160229Y-67340564D01*
X139209190Y-67290722D01*
X139277328Y-67275261D01*
X139343007Y-67299093D01*
G37*
%TD.AperFunction*%
%TA.AperFunction,NonConductor*%
G36*
X131735092Y-57000185D02*
G01*
X131780847Y-57052989D01*
X131790791Y-57122147D01*
X131761766Y-57185703D01*
X131733330Y-57209927D01*
X131607439Y-57287874D01*
X131607437Y-57287876D01*
X131443020Y-57437761D01*
X131308943Y-57615308D01*
X131308938Y-57615316D01*
X131209775Y-57814461D01*
X131209769Y-57814476D01*
X131148885Y-58028462D01*
X131148884Y-58028464D01*
X131128357Y-58249999D01*
X131128357Y-58250000D01*
X131148884Y-58471535D01*
X131148885Y-58471537D01*
X131209769Y-58685523D01*
X131209775Y-58685538D01*
X131308938Y-58884683D01*
X131308943Y-58884691D01*
X131443020Y-59062238D01*
X131607437Y-59212123D01*
X131607439Y-59212125D01*
X131796595Y-59329245D01*
X131796596Y-59329245D01*
X131796599Y-59329247D01*
X132004060Y-59409618D01*
X132222757Y-59450500D01*
X132222759Y-59450500D01*
X132445241Y-59450500D01*
X132445243Y-59450500D01*
X132663940Y-59409618D01*
X132871401Y-59329247D01*
X133060562Y-59212124D01*
X133224981Y-59062236D01*
X133359058Y-58884689D01*
X133458229Y-58685528D01*
X133484734Y-58592371D01*
X133522013Y-58533278D01*
X133585323Y-58503721D01*
X133654562Y-58513083D01*
X133707749Y-58558393D01*
X133723266Y-58592372D01*
X133749769Y-58685523D01*
X133749775Y-58685538D01*
X133848938Y-58884683D01*
X133848943Y-58884691D01*
X133983020Y-59062238D01*
X134147437Y-59212123D01*
X134147439Y-59212125D01*
X134336595Y-59329245D01*
X134336596Y-59329245D01*
X134336599Y-59329247D01*
X134544060Y-59409618D01*
X134762757Y-59450500D01*
X134762759Y-59450500D01*
X134985241Y-59450500D01*
X134985243Y-59450500D01*
X135203940Y-59409618D01*
X135411401Y-59329247D01*
X135600562Y-59212124D01*
X135764981Y-59062236D01*
X135899058Y-58884689D01*
X135998229Y-58685528D01*
X136024734Y-58592371D01*
X136062013Y-58533278D01*
X136125323Y-58503721D01*
X136194562Y-58513083D01*
X136247749Y-58558393D01*
X136263266Y-58592372D01*
X136289769Y-58685523D01*
X136289775Y-58685538D01*
X136388938Y-58884683D01*
X136388943Y-58884691D01*
X136523020Y-59062238D01*
X136687437Y-59212123D01*
X136687439Y-59212125D01*
X136876595Y-59329245D01*
X136876596Y-59329245D01*
X136876599Y-59329247D01*
X137084060Y-59409618D01*
X137302757Y-59450500D01*
X137302759Y-59450500D01*
X137525241Y-59450500D01*
X137525243Y-59450500D01*
X137743940Y-59409618D01*
X137951401Y-59329247D01*
X138140562Y-59212124D01*
X138304981Y-59062236D01*
X138439058Y-58884689D01*
X138538229Y-58685528D01*
X138599115Y-58471536D01*
X138619643Y-58250000D01*
X138599115Y-58028464D01*
X138538229Y-57814472D01*
X138534229Y-57806439D01*
X138439061Y-57615316D01*
X138439056Y-57615308D01*
X138304979Y-57437761D01*
X138140562Y-57287876D01*
X138140560Y-57287874D01*
X138014670Y-57209927D01*
X137968034Y-57157899D01*
X137956930Y-57088918D01*
X137984883Y-57024883D01*
X138043018Y-56986127D01*
X138079947Y-56980500D01*
X141391398Y-56980500D01*
X141396801Y-56980735D01*
X141556858Y-56994740D01*
X141578142Y-56998493D01*
X141584457Y-57000185D01*
X141725479Y-57037972D01*
X141745777Y-57045360D01*
X141884021Y-57109825D01*
X141902738Y-57120632D01*
X142027681Y-57208118D01*
X142044240Y-57222012D01*
X142152094Y-57329867D01*
X142165987Y-57346425D01*
X142206263Y-57403946D01*
X142253470Y-57471364D01*
X142264277Y-57490083D01*
X142328737Y-57628320D01*
X142336130Y-57648630D01*
X142375607Y-57795960D01*
X142379360Y-57817246D01*
X142385941Y-57892465D01*
X142392438Y-57966721D01*
X142393370Y-57977366D01*
X142393606Y-57982773D01*
X142393606Y-59503065D01*
X142393370Y-59508462D01*
X142392559Y-59517744D01*
X142379371Y-59668523D01*
X142375619Y-59689810D01*
X142336143Y-59837151D01*
X142328751Y-59857461D01*
X142264294Y-59995700D01*
X142253486Y-60014421D01*
X142166001Y-60139367D01*
X142152109Y-60155924D01*
X142044258Y-60263781D01*
X142027698Y-60277676D01*
X141902752Y-60365166D01*
X141884034Y-60375973D01*
X141745789Y-60440440D01*
X141725478Y-60447833D01*
X141578152Y-60487311D01*
X141556865Y-60491065D01*
X141447082Y-60500670D01*
X141397232Y-60505032D01*
X141391830Y-60505268D01*
X140382430Y-60505268D01*
X140382041Y-60505305D01*
X140306573Y-60505305D01*
X140134171Y-60535703D01*
X140134170Y-60535703D01*
X139969674Y-60595572D01*
X139969665Y-60595577D01*
X139818059Y-60683103D01*
X139683957Y-60795626D01*
X139683952Y-60795630D01*
X139571425Y-60929728D01*
X139483891Y-61081335D01*
X139424013Y-61245833D01*
X139393607Y-61418240D01*
X139393606Y-61505670D01*
X139393590Y-66230987D01*
X139373905Y-66298027D01*
X139321101Y-66343782D01*
X139251943Y-66353725D01*
X139188387Y-66324700D01*
X139160232Y-66289441D01*
X139127685Y-66228550D01*
X139075702Y-66165209D01*
X138996410Y-66068589D01*
X138836452Y-65937317D01*
X138836453Y-65937317D01*
X138836450Y-65937315D01*
X138653954Y-65839768D01*
X138455934Y-65779700D01*
X138455932Y-65779699D01*
X138455934Y-65779699D01*
X138250000Y-65759417D01*
X138044067Y-65779699D01*
X137846043Y-65839769D01*
X137735898Y-65898643D01*
X137663550Y-65937315D01*
X137663548Y-65937316D01*
X137663547Y-65937317D01*
X137503589Y-66068589D01*
X137372317Y-66228547D01*
X137372315Y-66228550D01*
X137339768Y-66289441D01*
X137274769Y-66411043D01*
X137214699Y-66609067D01*
X137194417Y-66815000D01*
X137214699Y-67020932D01*
X137214700Y-67020934D01*
X137274768Y-67218954D01*
X137285868Y-67239721D01*
X137300110Y-67308122D01*
X137275111Y-67373366D01*
X137268148Y-67381711D01*
X137189987Y-67467451D01*
X136673919Y-68088933D01*
X136187123Y-68733559D01*
X136187117Y-68733568D01*
X135902497Y-69149066D01*
X135761430Y-69355000D01*
X135730585Y-69400028D01*
X135305340Y-70086828D01*
X134912268Y-70792533D01*
X134912240Y-70792588D01*
X134552202Y-71515648D01*
X134225907Y-72254640D01*
X133934088Y-73007919D01*
X133677375Y-73773854D01*
X133677374Y-73773858D01*
X133456314Y-74550813D01*
X133456305Y-74550849D01*
X133271376Y-75337134D01*
X133271367Y-75337177D01*
X133140446Y-76037552D01*
X133108778Y-76099833D01*
X133048466Y-76135106D01*
X132978658Y-76132172D01*
X132921517Y-76091963D01*
X132895186Y-76027245D01*
X132894557Y-76014786D01*
X132894606Y-61505669D01*
X132894604Y-61505666D01*
X132894605Y-61493910D01*
X132894532Y-61493166D01*
X132894537Y-61418238D01*
X132864149Y-61245836D01*
X132838155Y-61174405D01*
X132804286Y-61081335D01*
X132804283Y-61081330D01*
X132766486Y-61015857D01*
X132716761Y-60929720D01*
X132604240Y-60795612D01*
X132470141Y-60683081D01*
X132318537Y-60595548D01*
X132154034Y-60535669D01*
X132042436Y-60515990D01*
X131981636Y-60505269D01*
X131981633Y-60505268D01*
X131894205Y-60505268D01*
X130896812Y-60505268D01*
X130891410Y-60505032D01*
X130846678Y-60501118D01*
X130731354Y-60491029D01*
X130710067Y-60487276D01*
X130562738Y-60447799D01*
X130542427Y-60440406D01*
X130404190Y-60375945D01*
X130385477Y-60365141D01*
X130260533Y-60277652D01*
X130243975Y-60263759D01*
X130136113Y-60155894D01*
X130122234Y-60139352D01*
X130034744Y-60014398D01*
X130023942Y-59995687D01*
X129959484Y-59857448D01*
X129952091Y-59837137D01*
X129912616Y-59689797D01*
X129908866Y-59668529D01*
X129894841Y-59508168D01*
X129894606Y-59502766D01*
X129894606Y-57982707D01*
X129894842Y-57977301D01*
X129902264Y-57892468D01*
X129908845Y-57817242D01*
X129912596Y-57795968D01*
X129952076Y-57648625D01*
X129959468Y-57628319D01*
X130023929Y-57490082D01*
X130034735Y-57471366D01*
X130122229Y-57346412D01*
X130136113Y-57329867D01*
X130243973Y-57222007D01*
X130260519Y-57208123D01*
X130385478Y-57120627D01*
X130404181Y-57109829D01*
X130542429Y-57045363D01*
X130562725Y-57037976D01*
X130710075Y-56998495D01*
X130731345Y-56994745D01*
X130839438Y-56985288D01*
X130891480Y-56980736D01*
X130896886Y-56980500D01*
X131668053Y-56980500D01*
X131735092Y-57000185D01*
G37*
%TD.AperFunction*%
%TA.AperFunction,NonConductor*%
G36*
X139343000Y-69839109D02*
G01*
X139385369Y-69894667D01*
X139393578Y-69939035D01*
X139393573Y-71310956D01*
X139373888Y-71377996D01*
X139321084Y-71423751D01*
X139251926Y-71433694D01*
X139188370Y-71404669D01*
X139160216Y-71369412D01*
X139127685Y-71308550D01*
X139075702Y-71245209D01*
X138996410Y-71148589D01*
X138836452Y-71017317D01*
X138836453Y-71017317D01*
X138836450Y-71017315D01*
X138653954Y-70919768D01*
X138455934Y-70859700D01*
X138455932Y-70859699D01*
X138455934Y-70859699D01*
X138250000Y-70839417D01*
X138044067Y-70859699D01*
X137846043Y-70919769D01*
X137735898Y-70978643D01*
X137663550Y-71017315D01*
X137663548Y-71017316D01*
X137663547Y-71017317D01*
X137503589Y-71148589D01*
X137372317Y-71308547D01*
X137274769Y-71491043D01*
X137214699Y-71689067D01*
X137194417Y-71894999D01*
X137214699Y-72100932D01*
X137274769Y-72298957D01*
X137288904Y-72325400D01*
X137303146Y-72393802D01*
X137278147Y-72459046D01*
X137275399Y-72462519D01*
X136845816Y-72985963D01*
X136845793Y-72985993D01*
X136424407Y-73554161D01*
X136424367Y-73554217D01*
X136031342Y-74142417D01*
X135667650Y-74749197D01*
X135667625Y-74749240D01*
X135334164Y-75373101D01*
X135334152Y-75373124D01*
X135031681Y-76012644D01*
X135031675Y-76012659D01*
X134760953Y-76666236D01*
X134640262Y-77003544D01*
X134599143Y-77060033D01*
X134534012Y-77085324D01*
X134465546Y-77071387D01*
X134415484Y-77022647D01*
X134399720Y-76954579D01*
X134402524Y-76934601D01*
X134458532Y-76685183D01*
X134459250Y-76682318D01*
X134658672Y-75961701D01*
X134659538Y-75958841D01*
X134894077Y-75248883D01*
X134895091Y-75246046D01*
X135164179Y-74548459D01*
X135165320Y-74545702D01*
X135468317Y-73862153D01*
X135469615Y-73859409D01*
X135475081Y-73848550D01*
X135805786Y-73191551D01*
X135807190Y-73188925D01*
X136175724Y-72538371D01*
X136177279Y-72535778D01*
X136241298Y-72434681D01*
X136577283Y-71904101D01*
X136578946Y-71901611D01*
X136953766Y-71369410D01*
X137009465Y-71290323D01*
X137011278Y-71287878D01*
X137471278Y-70698441D01*
X137473158Y-70696151D01*
X137747982Y-70377552D01*
X137806676Y-70339647D01*
X137876545Y-70339491D01*
X137877727Y-70339842D01*
X138044066Y-70390300D01*
X138044065Y-70390300D01*
X138062529Y-70392118D01*
X138250000Y-70410583D01*
X138455934Y-70390300D01*
X138653954Y-70330232D01*
X138836450Y-70232685D01*
X138996410Y-70101410D01*
X139127685Y-69941450D01*
X139160220Y-69880580D01*
X139209183Y-69830737D01*
X139277320Y-69815277D01*
X139343000Y-69839109D01*
G37*
%TD.AperFunction*%
%TA.AperFunction,NonConductor*%
G36*
X139342990Y-72379123D02*
G01*
X139385359Y-72434681D01*
X139393569Y-72479050D01*
X139393565Y-73850940D01*
X139373880Y-73917980D01*
X139321076Y-73963735D01*
X139251918Y-73973678D01*
X139188362Y-73944653D01*
X139160207Y-73909394D01*
X139127685Y-73848550D01*
X139066371Y-73773838D01*
X138996410Y-73688589D01*
X138836452Y-73557317D01*
X138836453Y-73557317D01*
X138836450Y-73557315D01*
X138653954Y-73459768D01*
X138455934Y-73399700D01*
X138455932Y-73399699D01*
X138455934Y-73399699D01*
X138268463Y-73381235D01*
X138250000Y-73379417D01*
X138249999Y-73379417D01*
X138044067Y-73399699D01*
X137846043Y-73459769D01*
X137735898Y-73518643D01*
X137663550Y-73557315D01*
X137663548Y-73557316D01*
X137663547Y-73557317D01*
X137503589Y-73688589D01*
X137372317Y-73848547D01*
X137372315Y-73848550D01*
X137339793Y-73909394D01*
X137274769Y-74031043D01*
X137214699Y-74229067D01*
X137194417Y-74435000D01*
X137214699Y-74640932D01*
X137274769Y-74838958D01*
X137291975Y-74871147D01*
X137306217Y-74939549D01*
X137281217Y-75004793D01*
X137278983Y-75007636D01*
X136906093Y-75468118D01*
X136906090Y-75468120D01*
X136509828Y-76013530D01*
X136509826Y-76013533D01*
X136142648Y-76578939D01*
X135805573Y-77162771D01*
X135499513Y-77763448D01*
X135499502Y-77763470D01*
X135225297Y-78379346D01*
X135032083Y-78882685D01*
X134989681Y-78938217D01*
X134923987Y-78962010D01*
X134855859Y-78946508D01*
X134806926Y-78896635D01*
X134792725Y-78828224D01*
X134795330Y-78811089D01*
X134862484Y-78512038D01*
X134863207Y-78509153D01*
X135042514Y-77861224D01*
X135043378Y-77858376D01*
X135254275Y-77219984D01*
X135255267Y-77217210D01*
X135497225Y-76589960D01*
X135498366Y-76587204D01*
X135770803Y-75972600D01*
X135772092Y-75969873D01*
X136013349Y-75490582D01*
X136074347Y-75369402D01*
X136075781Y-75366717D01*
X136407150Y-74781773D01*
X136408677Y-74779226D01*
X136714496Y-74296290D01*
X136768340Y-74211262D01*
X136770018Y-74208749D01*
X137157118Y-73659112D01*
X137158917Y-73656689D01*
X137185782Y-73622265D01*
X137572501Y-73126735D01*
X137574428Y-73124387D01*
X137751837Y-72918720D01*
X137810530Y-72880816D01*
X137880399Y-72880660D01*
X137881567Y-72881007D01*
X138044066Y-72930300D01*
X138044065Y-72930300D01*
X138064347Y-72932297D01*
X138250000Y-72950583D01*
X138455934Y-72930300D01*
X138653954Y-72870232D01*
X138836450Y-72772685D01*
X138996410Y-72641410D01*
X139127685Y-72481450D01*
X139160214Y-72420592D01*
X139209173Y-72370753D01*
X139277310Y-72355292D01*
X139342990Y-72379123D01*
G37*
%TD.AperFunction*%
%TA.AperFunction,NonConductor*%
G36*
X139342983Y-74919140D02*
G01*
X139385351Y-74974697D01*
X139393561Y-75019066D01*
X139393556Y-76390925D01*
X139373871Y-76457965D01*
X139321067Y-76503720D01*
X139251909Y-76513663D01*
X139188353Y-76484638D01*
X139160199Y-76449380D01*
X139131439Y-76395574D01*
X139127684Y-76388548D01*
X138996410Y-76228589D01*
X138836452Y-76097317D01*
X138836453Y-76097317D01*
X138836450Y-76097315D01*
X138653954Y-75999768D01*
X138455934Y-75939700D01*
X138455932Y-75939699D01*
X138455934Y-75939699D01*
X138268463Y-75921235D01*
X138250000Y-75919417D01*
X138249999Y-75919417D01*
X138044067Y-75939699D01*
X137846043Y-75999769D01*
X137735898Y-76058643D01*
X137663550Y-76097315D01*
X137663548Y-76097316D01*
X137663547Y-76097317D01*
X137503589Y-76228589D01*
X137372317Y-76388547D01*
X137372316Y-76388548D01*
X137372315Y-76388550D01*
X137335212Y-76457965D01*
X137274769Y-76571043D01*
X137214699Y-76769067D01*
X137194417Y-76975000D01*
X137214699Y-77180932D01*
X137226560Y-77220032D01*
X137274768Y-77378954D01*
X137274769Y-77378957D01*
X137274770Y-77378958D01*
X137274771Y-77378961D01*
X137295773Y-77418253D01*
X137310015Y-77486656D01*
X137285015Y-77551900D01*
X137283362Y-77554018D01*
X136974437Y-77941399D01*
X136974434Y-77941404D01*
X136974421Y-77941421D01*
X136974418Y-77941426D01*
X136958050Y-77964495D01*
X136606306Y-78460233D01*
X136606304Y-78460237D01*
X136267864Y-78998863D01*
X135960146Y-79555637D01*
X135960145Y-79555640D01*
X135684141Y-80128770D01*
X135440717Y-80716452D01*
X135440702Y-80716491D01*
X135419018Y-80778462D01*
X135378296Y-80835238D01*
X135313344Y-80860985D01*
X135244782Y-80847528D01*
X135194379Y-80799141D01*
X135178138Y-80731185D01*
X135181403Y-80708560D01*
X135316570Y-80145549D01*
X135317394Y-80142474D01*
X135498213Y-79532035D01*
X135499212Y-79528965D01*
X135680056Y-79018274D01*
X135711721Y-78928855D01*
X135712881Y-78925835D01*
X135956502Y-78337681D01*
X135957817Y-78334730D01*
X136112562Y-78010300D01*
X136231895Y-77760111D01*
X136233343Y-77757268D01*
X136537141Y-77197741D01*
X136538711Y-77195021D01*
X136871380Y-76652154D01*
X136873119Y-76649475D01*
X137233725Y-76124789D01*
X137235600Y-76122208D01*
X137623186Y-75617096D01*
X137625184Y-75614629D01*
X137756610Y-75460749D01*
X137815113Y-75422558D01*
X137884981Y-75422059D01*
X137886851Y-75422610D01*
X138044066Y-75470300D01*
X138044065Y-75470300D01*
X138064347Y-75472297D01*
X138250000Y-75490583D01*
X138455934Y-75470300D01*
X138653954Y-75410232D01*
X138836450Y-75312685D01*
X138996410Y-75181410D01*
X139127685Y-75021450D01*
X139160203Y-74960612D01*
X139209165Y-74910769D01*
X139277303Y-74895308D01*
X139342983Y-74919140D01*
G37*
%TD.AperFunction*%
%TA.AperFunction,NonConductor*%
G36*
X139342965Y-79999170D02*
G01*
X139385334Y-80054728D01*
X139393544Y-80099097D01*
X139393539Y-81470893D01*
X139373854Y-81537933D01*
X139321050Y-81583688D01*
X139251892Y-81593631D01*
X139188336Y-81564606D01*
X139160181Y-81529346D01*
X139127684Y-81468548D01*
X138996410Y-81308589D01*
X138836452Y-81177317D01*
X138836453Y-81177317D01*
X138836450Y-81177315D01*
X138653954Y-81079768D01*
X138455934Y-81019700D01*
X138455932Y-81019699D01*
X138455934Y-81019699D01*
X138268463Y-81001235D01*
X138250000Y-80999417D01*
X138249999Y-80999417D01*
X138044067Y-81019699D01*
X137846043Y-81079769D01*
X137776725Y-81116821D01*
X137663550Y-81177315D01*
X137663548Y-81177316D01*
X137663547Y-81177317D01*
X137538426Y-81280000D01*
X137474116Y-81307312D01*
X137405249Y-81295521D01*
X137353689Y-81248368D01*
X137335806Y-81180826D01*
X137355631Y-81116821D01*
X137379587Y-81079768D01*
X137419007Y-81018797D01*
X137421101Y-81015764D01*
X137746463Y-80573583D01*
X137748721Y-80570701D01*
X137769281Y-80546031D01*
X137827321Y-80507136D01*
X137897178Y-80505794D01*
X137900507Y-80506752D01*
X138044066Y-80550300D01*
X138044065Y-80550300D01*
X138064348Y-80552297D01*
X138250000Y-80570583D01*
X138455934Y-80550300D01*
X138653954Y-80490232D01*
X138836450Y-80392685D01*
X138996410Y-80261410D01*
X139127685Y-80101450D01*
X139160188Y-80040640D01*
X139209148Y-79990800D01*
X139277285Y-79975339D01*
X139342965Y-79999170D01*
G37*
%TD.AperFunction*%
%TA.AperFunction,NonConductor*%
G36*
X139342958Y-82539187D02*
G01*
X139385326Y-82594744D01*
X139393536Y-82639113D01*
X139393531Y-84010877D01*
X139373846Y-84077917D01*
X139321042Y-84123672D01*
X139251884Y-84133615D01*
X139188328Y-84104590D01*
X139160173Y-84069331D01*
X139127685Y-84008550D01*
X139007217Y-83861758D01*
X138996410Y-83848589D01*
X138836452Y-83717317D01*
X138836453Y-83717317D01*
X138836450Y-83717315D01*
X138653954Y-83619768D01*
X138455934Y-83559700D01*
X138455932Y-83559699D01*
X138455934Y-83559699D01*
X138250000Y-83539417D01*
X138044067Y-83559699D01*
X137846043Y-83619769D01*
X137735898Y-83678643D01*
X137663550Y-83717315D01*
X137663548Y-83717316D01*
X137663547Y-83717317D01*
X137624657Y-83749233D01*
X137560347Y-83776545D01*
X137491480Y-83764754D01*
X137439920Y-83717601D01*
X137422037Y-83650059D01*
X137440692Y-83587898D01*
X137532383Y-83440449D01*
X137534626Y-83437091D01*
X137777973Y-83097506D01*
X137833021Y-83054481D01*
X137902594Y-83048047D01*
X137914747Y-83051072D01*
X138044066Y-83090300D01*
X138044065Y-83090300D01*
X138062529Y-83092118D01*
X138250000Y-83110583D01*
X138455934Y-83090300D01*
X138653954Y-83030232D01*
X138836450Y-82932685D01*
X138996410Y-82801410D01*
X139127685Y-82641450D01*
X139160178Y-82580659D01*
X139209140Y-82530815D01*
X139277278Y-82515355D01*
X139342958Y-82539187D01*
G37*
%TD.AperFunction*%
M02*
