%TF.GenerationSoftware,KiCad,Pcbnew,6.0.0-rc1-unknown-caf406943e~144~ubuntu21.04.1*%
%TF.CreationDate,2021-12-15T23:35:00+01:00*%
%TF.ProjectId,1337-v4.0,31333337-2d76-4342-9e30-2e6b69636164,4.0*%
%TF.SameCoordinates,Original*%
%TF.FileFunction,Soldermask,Bot*%
%TF.FilePolarity,Negative*%
%FSLAX46Y46*%
G04 Gerber Fmt 4.6, Leading zero omitted, Abs format (unit mm)*
G04 Created by KiCad (PCBNEW 6.0.0-rc1-unknown-caf406943e~144~ubuntu21.04.1) date 2021-12-15 23:35:00*
%MOMM*%
%LPD*%
G01*
G04 APERTURE LIST*
G04 Aperture macros list*
%AMRoundRect*
0 Rectangle with rounded corners*
0 $1 Rounding radius*
0 $2 $3 $4 $5 $6 $7 $8 $9 X,Y pos of 4 corners*
0 Add a 4 corners polygon primitive as box body*
4,1,4,$2,$3,$4,$5,$6,$7,$8,$9,$2,$3,0*
0 Add four circle primitives for the rounded corners*
1,1,$1+$1,$2,$3*
1,1,$1+$1,$4,$5*
1,1,$1+$1,$6,$7*
1,1,$1+$1,$8,$9*
0 Add four rect primitives between the rounded corners*
20,1,$1+$1,$2,$3,$4,$5,0*
20,1,$1+$1,$4,$5,$6,$7,0*
20,1,$1+$1,$6,$7,$8,$9,0*
20,1,$1+$1,$8,$9,$2,$3,0*%
%AMRotRect*
0 Rectangle, with rotation*
0 The origin of the aperture is its center*
0 $1 length*
0 $2 width*
0 $3 Rotation angle, in degrees counterclockwise*
0 Add horizontal line*
21,1,$1,$2,0,0,$3*%
G04 Aperture macros list end*
%ADD10C,3.850000*%
%ADD11C,1.750000*%
%ADD12C,4.000000*%
%ADD13C,2.500000*%
%ADD14RoundRect,0.082000X-0.718000X0.328000X-0.718000X-0.328000X0.718000X-0.328000X0.718000X0.328000X0*%
%ADD15R,1.600000X2.000000*%
%ADD16O,1.600000X2.000000*%
%ADD17R,2.000000X2.000000*%
%ADD18C,2.000000*%
%ADD19R,3.200000X2.000000*%
%ADD20R,0.600000X1.150000*%
%ADD21R,0.300000X1.150000*%
%ADD22O,1.000000X1.800000*%
%ADD23O,1.000000X2.200000*%
%ADD24RoundRect,0.225000X0.225000X0.250000X-0.225000X0.250000X-0.225000X-0.250000X0.225000X-0.250000X0*%
%ADD25RoundRect,0.225000X-0.017678X0.335876X-0.335876X0.017678X0.017678X-0.335876X0.335876X-0.017678X0*%
%ADD26R,1.100000X1.100000*%
%ADD27RoundRect,0.200000X0.275000X-0.200000X0.275000X0.200000X-0.275000X0.200000X-0.275000X-0.200000X0*%
%ADD28RoundRect,0.225000X-0.250000X0.225000X-0.250000X-0.225000X0.250000X-0.225000X0.250000X0.225000X0*%
%ADD29C,1.700000*%
%ADD30RoundRect,0.150000X-0.150000X0.512500X-0.150000X-0.512500X0.150000X-0.512500X0.150000X0.512500X0*%
%ADD31RoundRect,0.170000X-0.255000X-0.330000X0.255000X-0.330000X0.255000X0.330000X-0.255000X0.330000X0*%
%ADD32R,1.500000X1.000000*%
%ADD33RoundRect,0.225000X0.017678X-0.335876X0.335876X-0.017678X-0.017678X0.335876X-0.335876X0.017678X0*%
%ADD34RoundRect,0.170000X-0.330000X0.255000X-0.330000X-0.255000X0.330000X-0.255000X0.330000X0.255000X0*%
%ADD35R,0.800000X0.500000*%
%ADD36R,0.800000X0.400000*%
%ADD37RoundRect,0.200000X-0.275000X0.200000X-0.275000X-0.200000X0.275000X-0.200000X0.275000X0.200000X0*%
%ADD38RoundRect,0.225000X-0.225000X-0.250000X0.225000X-0.250000X0.225000X0.250000X-0.225000X0.250000X0*%
%ADD39RoundRect,0.243750X0.243750X0.456250X-0.243750X0.456250X-0.243750X-0.456250X0.243750X-0.456250X0*%
%ADD40RoundRect,0.062500X0.291682X0.380070X-0.380070X-0.291682X-0.291682X-0.380070X0.380070X0.291682X0*%
%ADD41RoundRect,0.062500X-0.291682X0.380070X-0.380070X0.291682X0.291682X-0.380070X0.380070X-0.291682X0*%
%ADD42RotRect,5.200000X5.200000X225.000000*%
%ADD43RoundRect,0.300000X0.070711X0.494975X-0.494975X-0.070711X-0.070711X-0.494975X0.494975X0.070711X0*%
%ADD44RoundRect,0.225000X0.250000X-0.225000X0.250000X0.225000X-0.250000X0.225000X-0.250000X-0.225000X0*%
%ADD45R,1.700000X1.000000*%
G04 APERTURE END LIST*
%TO.C,G\u002A\u002A\u002A*%
D10*
X113715000Y-81790000D02*
G75*
G03*
X113715000Y-81790000I-1925000J0D01*
G01*
%TD*%
D11*
%TO.C,MX8*%
X106485479Y-84389521D03*
D12*
X101405479Y-84389521D03*
D11*
X96325479Y-84389521D03*
D13*
X97595479Y-81849521D03*
X103945479Y-79309521D03*
%TD*%
D14*
%TO.C,D5*%
X123955479Y-69669520D03*
X123955479Y-71169520D03*
X129155479Y-71169520D03*
X129155479Y-69669520D03*
%TD*%
D11*
%TO.C,MX7*%
X87435479Y-84389521D03*
X77275479Y-84389521D03*
D12*
X82355479Y-84389521D03*
D13*
X78545479Y-81849521D03*
X84895479Y-79309521D03*
%TD*%
D14*
%TO.C,D6*%
X79755479Y-88719520D03*
X79755479Y-90219520D03*
X84955479Y-90219520D03*
X84955479Y-88719520D03*
%TD*%
D11*
%TO.C,MX1*%
X77275479Y-46289521D03*
X87435479Y-46289521D03*
D12*
X82355479Y-46289521D03*
D13*
X78545479Y-43749521D03*
X84895479Y-41209521D03*
%TD*%
D11*
%TO.C,MX6*%
X121475479Y-65339521D03*
D12*
X126555479Y-65339521D03*
D11*
X131635479Y-65339521D03*
D13*
X122745479Y-62799521D03*
X129095479Y-60259521D03*
%TD*%
D14*
%TO.C,D1*%
X79755479Y-50619520D03*
X79755479Y-52119520D03*
X84955479Y-52119520D03*
X84955479Y-50619520D03*
%TD*%
D15*
%TO.C,U1*%
X86384229Y-36055771D03*
D16*
X88924229Y-36055771D03*
X91464229Y-36055771D03*
X94004229Y-36055771D03*
%TD*%
D12*
%TO.C,MX9*%
X126555479Y-84389521D03*
D11*
X121475479Y-84389521D03*
X131635479Y-84389521D03*
D13*
X122745479Y-81849521D03*
X129095479Y-79309521D03*
%TD*%
D11*
%TO.C,MX4*%
X87435479Y-65339521D03*
D12*
X82355479Y-65339521D03*
D11*
X77275479Y-65339521D03*
D13*
X78545479Y-62799521D03*
X84895479Y-60259521D03*
%TD*%
D14*
%TO.C,D2*%
X98805479Y-50619520D03*
X98805479Y-52119520D03*
X104005479Y-52119520D03*
X104005479Y-50619520D03*
%TD*%
D17*
%TO.C,MX3*%
X133805479Y-48789521D03*
D18*
X133805479Y-43789521D03*
X133805479Y-46289521D03*
D19*
X126305479Y-51889521D03*
X126305479Y-40689521D03*
D18*
X119305479Y-43789521D03*
X119305479Y-48789521D03*
%TD*%
D14*
%TO.C,D3*%
X79755479Y-69669520D03*
X79755479Y-71169520D03*
X84955479Y-71169520D03*
X84955479Y-69669520D03*
%TD*%
%TO.C,D7*%
X98805479Y-88719520D03*
X98805479Y-90219520D03*
X104005479Y-90219520D03*
X104005479Y-88719520D03*
%TD*%
%TO.C,D8*%
X123955479Y-88719520D03*
X123955479Y-90219520D03*
X129155479Y-90219520D03*
X129155479Y-88719520D03*
%TD*%
%TO.C,D4*%
X98805479Y-69669520D03*
X98805479Y-71169520D03*
X104005479Y-71169520D03*
X104005479Y-69669520D03*
%TD*%
D11*
%TO.C,MX2*%
X96325479Y-46289521D03*
X106485479Y-46289521D03*
D12*
X101405479Y-46289521D03*
D13*
X97595479Y-43749521D03*
X103945479Y-41209521D03*
%TD*%
D11*
%TO.C,MX5*%
X106485479Y-65339521D03*
D12*
X101405479Y-65339521D03*
D11*
X96325479Y-65339521D03*
D13*
X97595479Y-62799521D03*
X103945479Y-60259521D03*
%TD*%
D20*
%TO.C,J1*%
X114819229Y-41645771D03*
X115619229Y-41645771D03*
D21*
X116769229Y-41645771D03*
X117769229Y-41645771D03*
X118269229Y-41645771D03*
X119269229Y-41645771D03*
D20*
X120419229Y-41645771D03*
X121219229Y-41645771D03*
X121219229Y-41645771D03*
X120419229Y-41645771D03*
D21*
X119769229Y-41645771D03*
X118769229Y-41645771D03*
X117269229Y-41645771D03*
X116269229Y-41645771D03*
D20*
X115619229Y-41645771D03*
X114819229Y-41645771D03*
D22*
X112399229Y-40445771D03*
X123639229Y-40445771D03*
D23*
X123639229Y-36445771D03*
X112399229Y-36445771D03*
%TD*%
D24*
%TO.C,C10*%
X109749229Y-60695771D03*
X108199229Y-60695771D03*
%TD*%
D25*
%TO.C,C11*%
X123452237Y-66767763D03*
X122356221Y-67863779D03*
%TD*%
D24*
%TO.C,C7*%
X109749229Y-57695771D03*
X108199229Y-57695771D03*
%TD*%
D26*
%TO.C,D9*%
X108389229Y-39780771D03*
X108389229Y-42580771D03*
%TD*%
D27*
%TO.C,R3*%
X117019229Y-50975771D03*
X117019229Y-49325771D03*
%TD*%
%TO.C,R2*%
X113749229Y-43340771D03*
X113749229Y-41690771D03*
%TD*%
D28*
%TO.C,C12*%
X77824229Y-69620771D03*
X77824229Y-71170771D03*
%TD*%
%TO.C,C6*%
X77774229Y-50620771D03*
X77774229Y-52170771D03*
%TD*%
D24*
%TO.C,C5*%
X109949229Y-49045771D03*
X108399229Y-49045771D03*
%TD*%
D27*
%TO.C,R4*%
X115509229Y-50975771D03*
X115509229Y-49325771D03*
%TD*%
D29*
%TO.C,J2*%
X123559229Y-54450771D03*
X123559229Y-56990771D03*
X126099229Y-54450771D03*
X126099229Y-56990771D03*
X128639229Y-54450771D03*
X128639229Y-56990771D03*
%TD*%
D30*
%TO.C,U2*%
X115319229Y-45433271D03*
X116269229Y-45433271D03*
X117219229Y-45433271D03*
X117219229Y-47708271D03*
X116269229Y-47708271D03*
X115319229Y-47708271D03*
%TD*%
D31*
%TO.C,FB2*%
X108359229Y-45960771D03*
X109959229Y-45960771D03*
%TD*%
D32*
%TO.C,D13*%
X89430479Y-76464521D03*
X89430479Y-73264521D03*
X94330479Y-73264521D03*
X94330479Y-76464521D03*
%TD*%
D33*
%TO.C,C13*%
X116396221Y-71293779D03*
X117492237Y-70197763D03*
%TD*%
D34*
%TO.C,FB1*%
X110934229Y-38815771D03*
X110934229Y-40415771D03*
%TD*%
D35*
%TO.C,RN1*%
X128286729Y-47489521D03*
D36*
X128286729Y-46689521D03*
X128286729Y-45889521D03*
D35*
X128286729Y-45089521D03*
X130086729Y-45089521D03*
D36*
X130086729Y-45889521D03*
X130086729Y-46689521D03*
D35*
X130086729Y-47489521D03*
%TD*%
D27*
%TO.C,R5*%
X128649229Y-52945771D03*
X128649229Y-51295771D03*
%TD*%
D24*
%TO.C,C3*%
X109924229Y-47520771D03*
X108374229Y-47520771D03*
%TD*%
D37*
%TO.C,R6*%
X108224229Y-62120771D03*
X108224229Y-63770771D03*
%TD*%
D24*
%TO.C,C8*%
X109749229Y-59195771D03*
X108199229Y-59195771D03*
%TD*%
D32*
%TO.C,D12*%
X114574229Y-76464521D03*
X114574229Y-73264521D03*
X119474229Y-73264521D03*
X119474229Y-76464521D03*
%TD*%
D38*
%TO.C,C9*%
X117349229Y-59395771D03*
X118899229Y-59395771D03*
%TD*%
%TO.C,C1*%
X108374229Y-44380771D03*
X109924229Y-44380771D03*
%TD*%
D39*
%TO.C,F1*%
X112206729Y-42610771D03*
X110331729Y-42610771D03*
%TD*%
D32*
%TO.C,D11*%
X89430479Y-57414521D03*
X89430479Y-54214521D03*
X94330479Y-54214521D03*
X94330479Y-57414521D03*
%TD*%
%TO.C,D10*%
X114574229Y-57395771D03*
X114574229Y-54195771D03*
X119474229Y-54195771D03*
X119474229Y-57395771D03*
%TD*%
D40*
%TO.C,U3*%
X114946431Y-59678885D03*
X115299984Y-60032439D03*
X115653538Y-60385992D03*
X116007091Y-60739545D03*
X116360644Y-61093099D03*
X116714198Y-61446652D03*
X117067751Y-61800206D03*
X117421305Y-62153759D03*
X117774858Y-62507312D03*
X118128411Y-62860866D03*
X118481965Y-63214419D03*
D41*
X118481965Y-64398823D03*
X118128411Y-64752376D03*
X117774858Y-65105930D03*
X117421305Y-65459483D03*
X117067751Y-65813036D03*
X116714198Y-66166590D03*
X116360644Y-66520143D03*
X116007091Y-66873697D03*
X115653538Y-67227250D03*
X115299984Y-67580803D03*
X114946431Y-67934357D03*
D40*
X113762027Y-67934357D03*
X113408474Y-67580803D03*
X113054920Y-67227250D03*
X112701367Y-66873697D03*
X112347814Y-66520143D03*
X111994260Y-66166590D03*
X111640707Y-65813036D03*
X111287153Y-65459483D03*
X110933600Y-65105930D03*
X110580047Y-64752376D03*
X110226493Y-64398823D03*
D41*
X110226493Y-63214419D03*
X110580047Y-62860866D03*
X110933600Y-62507312D03*
X111287153Y-62153759D03*
X111640707Y-61800206D03*
X111994260Y-61446652D03*
X112347814Y-61093099D03*
X112701367Y-60739545D03*
X113054920Y-60385992D03*
X113408474Y-60032439D03*
X113762027Y-59678885D03*
D42*
X114354229Y-63806621D03*
%TD*%
D43*
%TO.C,Y1*%
X121293087Y-68828994D03*
X119737452Y-70384629D03*
X118535371Y-69182548D03*
X120091006Y-67626913D03*
%TD*%
D44*
%TO.C,C2*%
X126844229Y-45560771D03*
X126844229Y-44010771D03*
%TD*%
D28*
%TO.C,C14*%
X77774229Y-88670771D03*
X77774229Y-90220771D03*
%TD*%
D37*
%TO.C,R1*%
X122299229Y-41715771D03*
X122299229Y-43365771D03*
%TD*%
D45*
%TO.C,SW1*%
X117174229Y-89020771D03*
X110874229Y-89020771D03*
X110874229Y-92820771D03*
X117174229Y-92820771D03*
%TD*%
D28*
%TO.C,C4*%
X126844229Y-47000771D03*
X126844229Y-48550771D03*
%TD*%
M02*
