%TF.GenerationSoftware,KiCad,Pcbnew,6.0.0*%
%TF.CreationDate,2022-01-08T00:25:53+01:00*%
%TF.ProjectId,1337-v4.0,31333337-2d76-4342-9e30-2e6b69636164,4.0*%
%TF.SameCoordinates,Original*%
%TF.FileFunction,Legend,Bot*%
%TF.FilePolarity,Positive*%
%FSLAX46Y46*%
G04 Gerber Fmt 4.6, Leading zero omitted, Abs format (unit mm)*
G04 Created by KiCad (PCBNEW 6.0.0) date 2022-01-08 00:25:53*
%MOMM*%
%LPD*%
G01*
G04 APERTURE LIST*
G04 Aperture macros list*
%AMRoundRect*
0 Rectangle with rounded corners*
0 $1 Rounding radius*
0 $2 $3 $4 $5 $6 $7 $8 $9 X,Y pos of 4 corners*
0 Add a 4 corners polygon primitive as box body*
4,1,4,$2,$3,$4,$5,$6,$7,$8,$9,$2,$3,0*
0 Add four circle primitives for the rounded corners*
1,1,$1+$1,$2,$3*
1,1,$1+$1,$4,$5*
1,1,$1+$1,$6,$7*
1,1,$1+$1,$8,$9*
0 Add four rect primitives between the rounded corners*
20,1,$1+$1,$2,$3,$4,$5,0*
20,1,$1+$1,$4,$5,$6,$7,0*
20,1,$1+$1,$6,$7,$8,$9,0*
20,1,$1+$1,$8,$9,$2,$3,0*%
%AMRotRect*
0 Rectangle, with rotation*
0 The origin of the aperture is its center*
0 $1 length*
0 $2 width*
0 $3 Rotation angle, in degrees counterclockwise*
0 Add horizontal line*
21,1,$1,$2,0,0,$3*%
G04 Aperture macros list end*
%ADD10C,0.150000*%
%ADD11C,0.120000*%
%ADD12C,0.100000*%
%ADD13C,0.200000*%
%ADD14C,0.010000*%
%ADD15C,3.750000*%
%ADD16C,1.750000*%
%ADD17C,4.000000*%
%ADD18C,2.500000*%
%ADD19RoundRect,0.082000X-0.718000X0.328000X-0.718000X-0.328000X0.718000X-0.328000X0.718000X0.328000X0*%
%ADD20R,1.600000X2.000000*%
%ADD21O,1.600000X2.000000*%
%ADD22R,2.000000X2.000000*%
%ADD23C,2.000000*%
%ADD24R,3.200000X2.000000*%
%ADD25R,0.600000X1.150000*%
%ADD26R,0.300000X1.150000*%
%ADD27O,1.000000X1.800000*%
%ADD28O,1.000000X2.200000*%
%ADD29RoundRect,0.225000X0.225000X0.250000X-0.225000X0.250000X-0.225000X-0.250000X0.225000X-0.250000X0*%
%ADD30RoundRect,0.225000X-0.017678X0.335876X-0.335876X0.017678X0.017678X-0.335876X0.335876X-0.017678X0*%
%ADD31R,1.100000X1.100000*%
%ADD32RoundRect,0.200000X0.275000X-0.200000X0.275000X0.200000X-0.275000X0.200000X-0.275000X-0.200000X0*%
%ADD33RoundRect,0.225000X-0.250000X0.225000X-0.250000X-0.225000X0.250000X-0.225000X0.250000X0.225000X0*%
%ADD34C,1.700000*%
%ADD35RoundRect,0.150000X-0.150000X0.512500X-0.150000X-0.512500X0.150000X-0.512500X0.150000X0.512500X0*%
%ADD36RoundRect,0.170000X-0.255000X-0.330000X0.255000X-0.330000X0.255000X0.330000X-0.255000X0.330000X0*%
%ADD37R,1.500000X1.000000*%
%ADD38RoundRect,0.225000X0.017678X-0.335876X0.335876X-0.017678X-0.017678X0.335876X-0.335876X0.017678X0*%
%ADD39RoundRect,0.170000X-0.330000X0.255000X-0.330000X-0.255000X0.330000X-0.255000X0.330000X0.255000X0*%
%ADD40R,0.800000X0.500000*%
%ADD41R,0.800000X0.400000*%
%ADD42RoundRect,0.200000X-0.275000X0.200000X-0.275000X-0.200000X0.275000X-0.200000X0.275000X0.200000X0*%
%ADD43RoundRect,0.225000X-0.225000X-0.250000X0.225000X-0.250000X0.225000X0.250000X-0.225000X0.250000X0*%
%ADD44RoundRect,0.243750X0.243750X0.456250X-0.243750X0.456250X-0.243750X-0.456250X0.243750X-0.456250X0*%
%ADD45RoundRect,0.062500X0.291682X0.380070X-0.380070X-0.291682X-0.291682X-0.380070X0.380070X0.291682X0*%
%ADD46RoundRect,0.062500X-0.291682X0.380070X-0.380070X0.291682X0.291682X-0.380070X0.380070X-0.291682X0*%
%ADD47RotRect,5.200000X5.200000X225.000000*%
%ADD48RoundRect,0.300000X0.070711X0.494975X-0.494975X-0.070711X-0.070711X-0.494975X0.494975X0.070711X0*%
%ADD49RoundRect,0.225000X0.250000X-0.225000X0.250000X0.225000X-0.250000X0.225000X-0.250000X-0.225000X0*%
%ADD50R,1.700000X1.000000*%
G04 APERTURE END LIST*
D10*
X127525000Y-53310000D02*
X124695000Y-53310000D01*
X124695000Y-53310000D02*
X124695000Y-53120000D01*
X124695000Y-53120000D02*
X127525000Y-53120000D01*
X127525000Y-53120000D02*
X127525000Y-53310000D01*
G36*
X127525000Y-53310000D02*
G01*
X124695000Y-53310000D01*
X124695000Y-53120000D01*
X127525000Y-53120000D01*
X127525000Y-53310000D01*
G37*
X114627619Y-94922380D02*
X114960952Y-94446190D01*
X115199047Y-94922380D02*
X115199047Y-93922380D01*
X114818095Y-93922380D01*
X114722857Y-93970000D01*
X114675238Y-94017619D01*
X114627619Y-94112857D01*
X114627619Y-94255714D01*
X114675238Y-94350952D01*
X114722857Y-94398571D01*
X114818095Y-94446190D01*
X115199047Y-94446190D01*
X114246666Y-94874761D02*
X114103809Y-94922380D01*
X113865714Y-94922380D01*
X113770476Y-94874761D01*
X113722857Y-94827142D01*
X113675238Y-94731904D01*
X113675238Y-94636666D01*
X113722857Y-94541428D01*
X113770476Y-94493809D01*
X113865714Y-94446190D01*
X114056190Y-94398571D01*
X114151428Y-94350952D01*
X114199047Y-94303333D01*
X114246666Y-94208095D01*
X114246666Y-94112857D01*
X114199047Y-94017619D01*
X114151428Y-93970000D01*
X114056190Y-93922380D01*
X113818095Y-93922380D01*
X113675238Y-93970000D01*
X113389523Y-93922380D02*
X112818095Y-93922380D01*
X113103809Y-94922380D02*
X113103809Y-93922380D01*
D11*
X106242857Y-87408571D02*
X106052380Y-87941904D01*
X105861904Y-87408571D01*
X105214285Y-87408571D02*
X105214285Y-87941904D01*
X105404761Y-87103809D02*
X105595238Y-87675238D01*
X105100000Y-87675238D01*
X104795238Y-87865714D02*
X104757142Y-87903809D01*
X104795238Y-87941904D01*
X104833333Y-87903809D01*
X104795238Y-87865714D01*
X104795238Y-87941904D01*
X104261904Y-87141904D02*
X104185714Y-87141904D01*
X104109523Y-87180000D01*
X104071428Y-87218095D01*
X104033333Y-87294285D01*
X103995238Y-87446666D01*
X103995238Y-87637142D01*
X104033333Y-87789523D01*
X104071428Y-87865714D01*
X104109523Y-87903809D01*
X104185714Y-87941904D01*
X104261904Y-87941904D01*
X104338095Y-87903809D01*
X104376190Y-87865714D01*
X104414285Y-87789523D01*
X104452380Y-87637142D01*
X104452380Y-87446666D01*
X104414285Y-87294285D01*
X104376190Y-87218095D01*
X104338095Y-87180000D01*
X104261904Y-87141904D01*
D10*
X127066190Y-59312380D02*
X127066190Y-58312380D01*
X126637619Y-59264761D02*
X126494761Y-59312380D01*
X126256666Y-59312380D01*
X126161428Y-59264761D01*
X126113809Y-59217142D01*
X126066190Y-59121904D01*
X126066190Y-59026666D01*
X126113809Y-58931428D01*
X126161428Y-58883809D01*
X126256666Y-58836190D01*
X126447142Y-58788571D01*
X126542380Y-58740952D01*
X126590000Y-58693333D01*
X126637619Y-58598095D01*
X126637619Y-58502857D01*
X126590000Y-58407619D01*
X126542380Y-58360000D01*
X126447142Y-58312380D01*
X126209047Y-58312380D01*
X126066190Y-58360000D01*
X125637619Y-59312380D02*
X125637619Y-58312380D01*
X125256666Y-58312380D01*
X125161428Y-58360000D01*
X125113809Y-58407619D01*
X125066190Y-58502857D01*
X125066190Y-58645714D01*
X125113809Y-58740952D01*
X125161428Y-58788571D01*
X125256666Y-58836190D01*
X125637619Y-58836190D01*
%TO.C,U1*%
X86854229Y-39577675D02*
X86901848Y-39672913D01*
X86901848Y-39815771D01*
X86854229Y-39958628D01*
X86758990Y-40053866D01*
X86663752Y-40101485D01*
X86473276Y-40149104D01*
X86330419Y-40149104D01*
X86139943Y-40101485D01*
X86044705Y-40053866D01*
X85949467Y-39958628D01*
X85901848Y-39815771D01*
X85901848Y-39720532D01*
X85949467Y-39577675D01*
X85997086Y-39530056D01*
X86330419Y-39530056D01*
X86330419Y-39720532D01*
X85901848Y-39101485D02*
X86901848Y-39101485D01*
X85901848Y-38530056D01*
X86901848Y-38530056D01*
X85901848Y-38053866D02*
X86901848Y-38053866D01*
X86901848Y-37815771D01*
X86854229Y-37672913D01*
X86758990Y-37577675D01*
X86663752Y-37530056D01*
X86473276Y-37482437D01*
X86330419Y-37482437D01*
X86139943Y-37530056D01*
X86044705Y-37577675D01*
X85949467Y-37672913D01*
X85901848Y-37815771D01*
X85901848Y-38053866D01*
X93669467Y-39990056D02*
X93621848Y-39847199D01*
X93621848Y-39609104D01*
X93669467Y-39513866D01*
X93717086Y-39466247D01*
X93812324Y-39418628D01*
X93907562Y-39418628D01*
X94002800Y-39466247D01*
X94050419Y-39513866D01*
X94098038Y-39609104D01*
X94145657Y-39799580D01*
X94193276Y-39894818D01*
X94240895Y-39942437D01*
X94336133Y-39990056D01*
X94431371Y-39990056D01*
X94526609Y-39942437D01*
X94574229Y-39894818D01*
X94621848Y-39799580D01*
X94621848Y-39561485D01*
X94574229Y-39418628D01*
X93621848Y-38990056D02*
X94621848Y-38990056D01*
X94621848Y-38751961D01*
X94574229Y-38609104D01*
X94478990Y-38513866D01*
X94383752Y-38466247D01*
X94193276Y-38418628D01*
X94050419Y-38418628D01*
X93859943Y-38466247D01*
X93764705Y-38513866D01*
X93669467Y-38609104D01*
X93621848Y-38751961D01*
X93621848Y-38990056D01*
X93907562Y-38037675D02*
X93907562Y-37561485D01*
X93621848Y-38132913D02*
X94621848Y-37799580D01*
X93621848Y-37466247D01*
X89491848Y-40049104D02*
X88491848Y-39715771D01*
X89491848Y-39382437D01*
X88587086Y-38477675D02*
X88539467Y-38525294D01*
X88491848Y-38668151D01*
X88491848Y-38763390D01*
X88539467Y-38906247D01*
X88634705Y-39001485D01*
X88729943Y-39049104D01*
X88920419Y-39096723D01*
X89063276Y-39096723D01*
X89253752Y-39049104D01*
X89348990Y-39001485D01*
X89444229Y-38906247D01*
X89491848Y-38763390D01*
X89491848Y-38668151D01*
X89444229Y-38525294D01*
X89396609Y-38477675D01*
X88587086Y-37477675D02*
X88539467Y-37525294D01*
X88491848Y-37668151D01*
X88491848Y-37763390D01*
X88539467Y-37906247D01*
X88634705Y-38001485D01*
X88729943Y-38049104D01*
X88920419Y-38096723D01*
X89063276Y-38096723D01*
X89253752Y-38049104D01*
X89348990Y-38001485D01*
X89444229Y-37906247D01*
X89491848Y-37763390D01*
X89491848Y-37668151D01*
X89444229Y-37525294D01*
X89396609Y-37477675D01*
X91059467Y-39996247D02*
X91011848Y-39853390D01*
X91011848Y-39615294D01*
X91059467Y-39520056D01*
X91107086Y-39472437D01*
X91202324Y-39424818D01*
X91297562Y-39424818D01*
X91392800Y-39472437D01*
X91440419Y-39520056D01*
X91488038Y-39615294D01*
X91535657Y-39805771D01*
X91583276Y-39901009D01*
X91630895Y-39948628D01*
X91726133Y-39996247D01*
X91821371Y-39996247D01*
X91916609Y-39948628D01*
X91964229Y-39901009D01*
X92011848Y-39805771D01*
X92011848Y-39567675D01*
X91964229Y-39424818D01*
X91107086Y-38424818D02*
X91059467Y-38472437D01*
X91011848Y-38615294D01*
X91011848Y-38710532D01*
X91059467Y-38853390D01*
X91154705Y-38948628D01*
X91249943Y-38996247D01*
X91440419Y-39043866D01*
X91583276Y-39043866D01*
X91773752Y-38996247D01*
X91868990Y-38948628D01*
X91964229Y-38853390D01*
X92011848Y-38710532D01*
X92011848Y-38615294D01*
X91964229Y-38472437D01*
X91916609Y-38424818D01*
X91011848Y-37520056D02*
X91011848Y-37996247D01*
X92011848Y-37996247D01*
D12*
%TO.C,D5*%
X130755479Y-71419520D02*
X129855479Y-72319520D01*
X129855479Y-72319520D02*
X130755479Y-72319520D01*
X130755479Y-72319520D02*
X130755479Y-71419520D01*
G36*
X130755479Y-72319520D02*
G01*
X129855479Y-72319520D01*
X130755479Y-71419520D01*
X130755479Y-72319520D01*
G37*
X130755479Y-72319520D02*
X129855479Y-72319520D01*
X130755479Y-71419520D01*
X130755479Y-72319520D01*
%TO.C,D6*%
X86555479Y-90469520D02*
X85655479Y-91369520D01*
X85655479Y-91369520D02*
X86555479Y-91369520D01*
X86555479Y-91369520D02*
X86555479Y-90469520D01*
G36*
X86555479Y-91369520D02*
G01*
X85655479Y-91369520D01*
X86555479Y-90469520D01*
X86555479Y-91369520D01*
G37*
X86555479Y-91369520D02*
X85655479Y-91369520D01*
X86555479Y-90469520D01*
X86555479Y-91369520D01*
%TO.C,D1*%
X86555479Y-52369520D02*
X85655479Y-53269520D01*
X85655479Y-53269520D02*
X86555479Y-53269520D01*
X86555479Y-53269520D02*
X86555479Y-52369520D01*
G36*
X86555479Y-53269520D02*
G01*
X85655479Y-53269520D01*
X86555479Y-52369520D01*
X86555479Y-53269520D01*
G37*
X86555479Y-53269520D02*
X85655479Y-53269520D01*
X86555479Y-52369520D01*
X86555479Y-53269520D01*
%TO.C,D2*%
X105605479Y-52369520D02*
X104705479Y-53269520D01*
X104705479Y-53269520D02*
X105605479Y-53269520D01*
X105605479Y-53269520D02*
X105605479Y-52369520D01*
G36*
X105605479Y-53269520D02*
G01*
X104705479Y-53269520D01*
X105605479Y-52369520D01*
X105605479Y-53269520D01*
G37*
X105605479Y-53269520D02*
X104705479Y-53269520D01*
X105605479Y-52369520D01*
X105605479Y-53269520D01*
%TO.C,D3*%
X86555479Y-71419520D02*
X85655479Y-72319520D01*
X85655479Y-72319520D02*
X86555479Y-72319520D01*
X86555479Y-72319520D02*
X86555479Y-71419520D01*
G36*
X86555479Y-72319520D02*
G01*
X85655479Y-72319520D01*
X86555479Y-71419520D01*
X86555479Y-72319520D01*
G37*
X86555479Y-72319520D02*
X85655479Y-72319520D01*
X86555479Y-71419520D01*
X86555479Y-72319520D01*
%TO.C,D7*%
X105605479Y-90469520D02*
X104705479Y-91369520D01*
X104705479Y-91369520D02*
X105605479Y-91369520D01*
X105605479Y-91369520D02*
X105605479Y-90469520D01*
G36*
X105605479Y-91369520D02*
G01*
X104705479Y-91369520D01*
X105605479Y-90469520D01*
X105605479Y-91369520D01*
G37*
X105605479Y-91369520D02*
X104705479Y-91369520D01*
X105605479Y-90469520D01*
X105605479Y-91369520D01*
%TO.C,D8*%
X130755479Y-90469520D02*
X129855479Y-91369520D01*
X129855479Y-91369520D02*
X130755479Y-91369520D01*
X130755479Y-91369520D02*
X130755479Y-90469520D01*
G36*
X130755479Y-91369520D02*
G01*
X129855479Y-91369520D01*
X130755479Y-90469520D01*
X130755479Y-91369520D01*
G37*
X130755479Y-91369520D02*
X129855479Y-91369520D01*
X130755479Y-90469520D01*
X130755479Y-91369520D01*
%TO.C,D4*%
X105605479Y-71419520D02*
X104705479Y-72319520D01*
X104705479Y-72319520D02*
X105605479Y-72319520D01*
X105605479Y-72319520D02*
X105605479Y-71419520D01*
G36*
X105605479Y-72319520D02*
G01*
X104705479Y-72319520D01*
X105605479Y-71419520D01*
X105605479Y-72319520D01*
G37*
X105605479Y-72319520D02*
X104705479Y-72319520D01*
X105605479Y-71419520D01*
X105605479Y-72319520D01*
D11*
%TO.C,C10*%
X109114809Y-60185771D02*
X108833649Y-60185771D01*
X109114809Y-61205771D02*
X108833649Y-61205771D01*
%TO.C,C11*%
X123364259Y-67576990D02*
X123165448Y-67775801D01*
X122643010Y-66855741D02*
X122444199Y-67054552D01*
D13*
%TO.C,G\u002A\u002A\u002A*%
X115640000Y-81790000D02*
G75*
G03*
X115640000Y-81790000I-3850000J0D01*
G01*
D11*
%TO.C,C7*%
X109114809Y-58205771D02*
X108833649Y-58205771D01*
X109114809Y-57185771D02*
X108833649Y-57185771D01*
%TO.C,D9*%
X109389229Y-38980771D02*
X109389229Y-42830771D01*
X107389229Y-38980771D02*
X107389229Y-42830771D01*
X107389229Y-38980771D02*
X109389229Y-38980771D01*
%TO.C,R3*%
X117541729Y-50388029D02*
X117541729Y-49913513D01*
X116496729Y-50388029D02*
X116496729Y-49913513D01*
%TO.C,R2*%
X113226729Y-42753029D02*
X113226729Y-42278513D01*
X114271729Y-42753029D02*
X114271729Y-42278513D01*
%TO.C,C12*%
X77314229Y-70255191D02*
X77314229Y-70536351D01*
X78334229Y-70255191D02*
X78334229Y-70536351D01*
%TO.C,C6*%
X78284229Y-51255191D02*
X78284229Y-51536351D01*
X77264229Y-51255191D02*
X77264229Y-51536351D01*
%TO.C,C5*%
X109314809Y-49555771D02*
X109033649Y-49555771D01*
X109314809Y-48535771D02*
X109033649Y-48535771D01*
%TO.C,R4*%
X116031729Y-50388029D02*
X116031729Y-49913513D01*
X114986729Y-50388029D02*
X114986729Y-49913513D01*
%TO.C,J2*%
X122459229Y-58090771D02*
X122459229Y-54220771D01*
X129739229Y-53350771D02*
X129739229Y-58090771D01*
X123349229Y-53350771D02*
X129739229Y-53350771D01*
X122459229Y-54220771D02*
X123349229Y-53350771D01*
X129739229Y-58090771D02*
X122459229Y-58090771D01*
%TO.C,U2*%
X114709229Y-46570771D02*
X114709229Y-44770771D01*
X117829229Y-46570771D02*
X117829229Y-45770771D01*
X117829229Y-46570771D02*
X117829229Y-47370771D01*
X114709229Y-46570771D02*
X114709229Y-47370771D01*
D10*
%TO.C,FB2*%
X108259229Y-46610771D02*
X109959229Y-46610771D01*
X108259229Y-45310771D02*
X109959229Y-45310771D01*
D11*
%TO.C,D13*%
X95530479Y-72114521D02*
X95530479Y-73264521D01*
X88230479Y-77614521D02*
X95530479Y-77614521D01*
X88230479Y-72114521D02*
X95530479Y-72114521D01*
%TO.C,C13*%
X116484199Y-70484552D02*
X116683010Y-70285741D01*
X117205448Y-71205801D02*
X117404259Y-71006990D01*
D10*
%TO.C,FB1*%
X111584229Y-38715771D02*
X111584229Y-40415771D01*
X110284229Y-38715771D02*
X110284229Y-40415771D01*
D11*
%TO.C,RN1*%
X129686729Y-47969521D02*
X128686729Y-47969521D01*
X129686729Y-44609521D02*
X128686729Y-44609521D01*
%TO.C,R5*%
X129171729Y-52358029D02*
X129171729Y-51883513D01*
X128126729Y-52358029D02*
X128126729Y-51883513D01*
%TO.C,C3*%
X109289809Y-47010771D02*
X109008649Y-47010771D01*
X109289809Y-48030771D02*
X109008649Y-48030771D01*
%TO.C,R6*%
X107701729Y-62708513D02*
X107701729Y-63183029D01*
X108746729Y-62708513D02*
X108746729Y-63183029D01*
%TO.C,C8*%
X109114809Y-59705771D02*
X108833649Y-59705771D01*
X109114809Y-58685771D02*
X108833649Y-58685771D01*
%TO.C,D12*%
X113374229Y-72114521D02*
X120674229Y-72114521D01*
X113374229Y-77614521D02*
X120674229Y-77614521D01*
X120674229Y-72114521D02*
X120674229Y-73264521D01*
%TO.C,kibuzzard-61BA68AC*%
G36*
X110030687Y-85673506D02*
G01*
X110168800Y-85713987D01*
X110357712Y-85848925D01*
X110452962Y-86017200D01*
X110479950Y-86171187D01*
X110470425Y-86244212D01*
X110438675Y-86282312D01*
X110372000Y-86291837D01*
X110294212Y-86263262D01*
X110270400Y-86190237D01*
X110254525Y-86079112D01*
X110194200Y-85969575D01*
X110068787Y-85883850D01*
X109864000Y-85850512D01*
X109690962Y-85875912D01*
X109571900Y-85952112D01*
X109502844Y-86079906D01*
X109479825Y-86260087D01*
X109525862Y-86504562D01*
X109660800Y-86629975D01*
X109876700Y-86666487D01*
X109937025Y-86695062D01*
X109956075Y-86758562D01*
X109937025Y-86820475D01*
X109876700Y-86847463D01*
X109690962Y-86872863D01*
X109546500Y-86949063D01*
X109453631Y-87080031D01*
X109422675Y-87269738D01*
X109422675Y-87330062D01*
X109452044Y-87542391D01*
X109540150Y-87690425D01*
X109684612Y-87777341D01*
X109883050Y-87806313D01*
X110098950Y-87771388D01*
X110235475Y-87682488D01*
X110306912Y-87566600D01*
X110327550Y-87453888D01*
X110349775Y-87388800D01*
X110438675Y-87364988D01*
X110510112Y-87387213D01*
X110533925Y-87476113D01*
X110495825Y-87657088D01*
X110375175Y-87825363D01*
X110168800Y-87950775D01*
X109960837Y-87999988D01*
X109784625Y-87999988D01*
X109541737Y-87933313D01*
X109406403Y-87846794D01*
X109302025Y-87720588D01*
X109235350Y-87549931D01*
X109213125Y-87330062D01*
X109213125Y-87269738D01*
X109236144Y-87081619D01*
X109305200Y-86936363D01*
X109409181Y-86829206D01*
X109536975Y-86755387D01*
X109434978Y-86681569D01*
X109351237Y-86568062D01*
X109295278Y-86414075D01*
X109276625Y-86218812D01*
X109295278Y-86033472D01*
X109351237Y-85890200D01*
X109439741Y-85785028D01*
X109556025Y-85713987D01*
X109696519Y-85673506D01*
X109857650Y-85660012D01*
X110030687Y-85673506D01*
G37*
G36*
X108481287Y-85673506D02*
G01*
X108619400Y-85713987D01*
X108808312Y-85848925D01*
X108903562Y-86017200D01*
X108930550Y-86171187D01*
X108921025Y-86244212D01*
X108889275Y-86282312D01*
X108822600Y-86291837D01*
X108744812Y-86263262D01*
X108721000Y-86190237D01*
X108705125Y-86079112D01*
X108644800Y-85969575D01*
X108519387Y-85883850D01*
X108314600Y-85850512D01*
X108141562Y-85875912D01*
X108022500Y-85952112D01*
X107953444Y-86079906D01*
X107930425Y-86260087D01*
X107976462Y-86504562D01*
X108111400Y-86629975D01*
X108327300Y-86666487D01*
X108387625Y-86695062D01*
X108406675Y-86758562D01*
X108387625Y-86820475D01*
X108327300Y-86847463D01*
X108141562Y-86872863D01*
X107997100Y-86949063D01*
X107904231Y-87080031D01*
X107873275Y-87269738D01*
X107873275Y-87330062D01*
X107902644Y-87542391D01*
X107990750Y-87690425D01*
X108135213Y-87777341D01*
X108333650Y-87806313D01*
X108549550Y-87771388D01*
X108686075Y-87682488D01*
X108757512Y-87566600D01*
X108778150Y-87453888D01*
X108800375Y-87388800D01*
X108889275Y-87364988D01*
X108960712Y-87387213D01*
X108984525Y-87476113D01*
X108946425Y-87657088D01*
X108825775Y-87825363D01*
X108619400Y-87950775D01*
X108411437Y-87999988D01*
X108235225Y-87999988D01*
X107992337Y-87933313D01*
X107857003Y-87846794D01*
X107752625Y-87720588D01*
X107685950Y-87549931D01*
X107663725Y-87330062D01*
X107663725Y-87269738D01*
X107686744Y-87081619D01*
X107755800Y-86936363D01*
X107859781Y-86829206D01*
X107987575Y-86755387D01*
X107885578Y-86681569D01*
X107801837Y-86568062D01*
X107745878Y-86414075D01*
X107727225Y-86218812D01*
X107745878Y-86033472D01*
X107801837Y-85890200D01*
X107890341Y-85785028D01*
X108006625Y-85713987D01*
X108147119Y-85673506D01*
X108308250Y-85660012D01*
X108481287Y-85673506D01*
G37*
G36*
X113443813Y-87957125D02*
G01*
X113396188Y-87980938D01*
X112775475Y-87980938D01*
X112608788Y-87965063D01*
X112457975Y-87917438D01*
X112330181Y-87834094D01*
X112232550Y-87711063D01*
X112170638Y-87543581D01*
X112150000Y-87326888D01*
X112150000Y-87317363D01*
X112359550Y-87317363D01*
X112388919Y-87528897D01*
X112477025Y-87674550D01*
X112617519Y-87759084D01*
X112804050Y-87787263D01*
X113261250Y-87787263D01*
X113261250Y-86812537D01*
X112804050Y-86812537D01*
X112617519Y-86837938D01*
X112477025Y-86914138D01*
X112388919Y-87052250D01*
X112359550Y-87263388D01*
X112359550Y-87317363D01*
X112150000Y-87317363D01*
X112150000Y-87269738D01*
X112160319Y-87119719D01*
X112191275Y-86999863D01*
X112305575Y-86828412D01*
X112477025Y-86723637D01*
X112367884Y-86649422D01*
X112281763Y-86534725D01*
X112225803Y-86383516D01*
X112209406Y-86221987D01*
X112416700Y-86221987D01*
X112442894Y-86414075D01*
X112521475Y-86539487D01*
X112655619Y-86608544D01*
X112848500Y-86631562D01*
X113261250Y-86631562D01*
X113261250Y-85853687D01*
X112861200Y-85853687D01*
X112629425Y-85883850D01*
X112473850Y-85993387D01*
X112416700Y-86221987D01*
X112209406Y-86221987D01*
X112207150Y-86199762D01*
X112228978Y-86001722D01*
X112294463Y-85858450D01*
X112396856Y-85761216D01*
X112529413Y-85701287D01*
X112684591Y-85670331D01*
X112854850Y-85660012D01*
X113375550Y-85660012D01*
X113440638Y-85680650D01*
X113470800Y-85739387D01*
X113470800Y-87901563D01*
X113443813Y-87957125D01*
G37*
G36*
X118095188Y-87717413D02*
G01*
X117992397Y-87846000D01*
X117858650Y-87933313D01*
X117617350Y-87999988D01*
X117431613Y-87999988D01*
X117188725Y-87933313D01*
X117054581Y-87846000D01*
X116950600Y-87717413D01*
X116883925Y-87543581D01*
X116861700Y-87320538D01*
X117071250Y-87320538D01*
X117101413Y-87538025D01*
X117191900Y-87688838D01*
X117335569Y-87776944D01*
X117525275Y-87806313D01*
X117714188Y-87776944D01*
X117855475Y-87688838D01*
X117943581Y-87538025D01*
X117972950Y-87320538D01*
X117972950Y-86336287D01*
X117943581Y-86121181D01*
X117855475Y-85971162D01*
X117714188Y-85883056D01*
X117525275Y-85853687D01*
X117335569Y-85883056D01*
X117191900Y-85971162D01*
X117101413Y-86121181D01*
X117071250Y-86336287D01*
X117071250Y-87320538D01*
X116861700Y-87320538D01*
X116861700Y-86336287D01*
X116883925Y-86115625D01*
X116950600Y-85942587D01*
X117054581Y-85814000D01*
X117188725Y-85726687D01*
X117347475Y-85676681D01*
X117525275Y-85660012D01*
X117702678Y-85676681D01*
X117860238Y-85726687D01*
X117992794Y-85814000D01*
X118095188Y-85942587D01*
X118160672Y-86115625D01*
X118182500Y-86336287D01*
X118182500Y-87320538D01*
X118160672Y-87543581D01*
X118095188Y-87717413D01*
G37*
G36*
X107408137Y-85685412D02*
G01*
X107438300Y-85739387D01*
X107438300Y-86218812D01*
X107406550Y-86274375D01*
X107333525Y-86298187D01*
X107260500Y-86274375D01*
X107228750Y-86218812D01*
X107228750Y-85853687D01*
X106327050Y-85853687D01*
X106327050Y-86025137D01*
X107276375Y-87841238D01*
X107289075Y-87885688D01*
X107271612Y-87939663D01*
X107223987Y-87973000D01*
X107177950Y-87984113D01*
X107136675Y-87984113D01*
X107092225Y-87946013D01*
X106149250Y-86104512D01*
X106125437Y-86056887D01*
X106117500Y-86012437D01*
X106117500Y-85739387D01*
X106149250Y-85685412D01*
X106215925Y-85660012D01*
X107343050Y-85660012D01*
X107408137Y-85685412D01*
G37*
G36*
X110984775Y-85671125D02*
G01*
X111016525Y-85704462D01*
X111276875Y-86072762D01*
X111308625Y-86115625D01*
X111324500Y-86168012D01*
X111300687Y-86231512D01*
X111241950Y-86260087D01*
X111210200Y-86250562D01*
X111181625Y-86221987D01*
X111054625Y-86015612D01*
X111054625Y-87898388D01*
X111022875Y-87960300D01*
X110970487Y-87980938D01*
X110930800Y-87980938D01*
X110878412Y-87960300D01*
X110845075Y-87898388D01*
X110845075Y-85736212D01*
X110873650Y-85677475D01*
X110937150Y-85656837D01*
X110984775Y-85671125D01*
G37*
G36*
X116521975Y-86475987D02*
G01*
X116571188Y-86515675D01*
X116591825Y-86564887D01*
X116585475Y-86585525D01*
X116575950Y-86606162D01*
X116163200Y-87222113D01*
X116585475Y-87857113D01*
X116598175Y-87901563D01*
X116577538Y-87947600D01*
X116528325Y-87987288D01*
X116488638Y-88003163D01*
X116468000Y-88003163D01*
X116441013Y-87995225D01*
X116410850Y-87971413D01*
X116026675Y-87377688D01*
X115639325Y-87971413D01*
X115612338Y-87995225D01*
X115579000Y-88003163D01*
X115521850Y-87987288D01*
X115474225Y-87947600D01*
X115455175Y-87901563D01*
X115458350Y-87876163D01*
X115467875Y-87857113D01*
X115893325Y-87222113D01*
X115477400Y-86606162D01*
X115461525Y-86564887D01*
X115482163Y-86512500D01*
X115531375Y-86474400D01*
X115588525Y-86460112D01*
X115621863Y-86468050D01*
X115648850Y-86491862D01*
X116026675Y-87072888D01*
X116401325Y-86491862D01*
X116431488Y-86466462D01*
X116464825Y-86460112D01*
X116521975Y-86475987D01*
G37*
G36*
X117606238Y-86749037D02*
G01*
X117639575Y-86831588D01*
X117606238Y-86914138D01*
X117522100Y-86949063D01*
X117439550Y-86914138D01*
X117407800Y-86831588D01*
X117439550Y-86749037D01*
X117522100Y-86717287D01*
X117606238Y-86749037D01*
G37*
G36*
X114669759Y-85676681D02*
G01*
X114828113Y-85726687D01*
X114963844Y-85814000D01*
X115069413Y-85942587D01*
X115137278Y-86115625D01*
X115159900Y-86336287D01*
X115159900Y-87320538D01*
X115137675Y-87543581D01*
X115071000Y-87717413D01*
X114966622Y-87846000D01*
X114831288Y-87933313D01*
X114591575Y-87999988D01*
X114397900Y-87999988D01*
X114282409Y-87981334D01*
X114145488Y-87925375D01*
X114014916Y-87838856D01*
X113918475Y-87728525D01*
X113858944Y-87601128D01*
X113839100Y-87463413D01*
X113866088Y-87360225D01*
X113947050Y-87333238D01*
X114020075Y-87353875D01*
X114048650Y-87415788D01*
X114074050Y-87541200D01*
X114132788Y-87668200D01*
X114258200Y-87766625D01*
X114483625Y-87806313D01*
X114684841Y-87776944D01*
X114831288Y-87688838D01*
X114920584Y-87538025D01*
X114950350Y-87320538D01*
X114950350Y-86336287D01*
X114920981Y-86121181D01*
X114832875Y-85971162D01*
X114689206Y-85883056D01*
X114493150Y-85853687D01*
X114266138Y-85893375D01*
X114132788Y-85993387D01*
X114069288Y-86120387D01*
X114048650Y-86237862D01*
X114024838Y-86293425D01*
X113943875Y-86317237D01*
X113866088Y-86291837D01*
X113839100Y-86190237D01*
X113858547Y-86052919D01*
X113916888Y-85926712D01*
X114011741Y-85817969D01*
X114140725Y-85733037D01*
X114302650Y-85678269D01*
X114496325Y-85660012D01*
X114669759Y-85676681D01*
G37*
%TO.C,C9*%
X117983649Y-58885771D02*
X118264809Y-58885771D01*
X117983649Y-59905771D02*
X118264809Y-59905771D01*
%TO.C,C1*%
X109008649Y-43870771D02*
X109289809Y-43870771D01*
X109008649Y-44890771D02*
X109289809Y-44890771D01*
%TO.C,F1*%
X111527807Y-43320771D02*
X111010651Y-43320771D01*
X111527807Y-41900771D02*
X111010651Y-41900771D01*
%TO.C,D11*%
X95530479Y-53064521D02*
X95530479Y-54214521D01*
X88230479Y-53064521D02*
X95530479Y-53064521D01*
X88230479Y-58564521D02*
X95530479Y-58564521D01*
%TO.C,D10*%
X113374229Y-58545771D02*
X120674229Y-58545771D01*
X120674229Y-53045771D02*
X120674229Y-54195771D01*
X113374229Y-53045771D02*
X120674229Y-53045771D01*
%TO.C,U3*%
X113841577Y-59213962D02*
X114354229Y-58701310D01*
X114866881Y-68399280D02*
X114354229Y-68911932D01*
X118946888Y-64319273D02*
X119459540Y-63806621D01*
X114354229Y-68911932D02*
X113841577Y-68399280D01*
X119459540Y-63806621D02*
X118946888Y-63293969D01*
X109248918Y-63806621D02*
X109761570Y-64319273D01*
X109761570Y-63293969D02*
X109248918Y-63806621D01*
%TO.C,C2*%
X127354229Y-44926351D02*
X127354229Y-44645191D01*
X126334229Y-44926351D02*
X126334229Y-44645191D01*
%TO.C,C14*%
X78284229Y-89305191D02*
X78284229Y-89586351D01*
X77264229Y-89305191D02*
X77264229Y-89586351D01*
%TO.C,R1*%
X121776729Y-42303513D02*
X121776729Y-42778029D01*
X122821729Y-42303513D02*
X122821729Y-42778029D01*
D14*
%TO.C,REF\u002A\u002A*%
X91313437Y-79282836D02*
X91229616Y-79727460D01*
X91229616Y-79727460D02*
X90920331Y-79854958D01*
X90920331Y-79854958D02*
X90611045Y-79982456D01*
X90611045Y-79982456D02*
X90240005Y-79730151D01*
X90240005Y-79730151D02*
X90136094Y-79659901D01*
X90136094Y-79659901D02*
X90042164Y-79597177D01*
X90042164Y-79597177D02*
X89962599Y-79544843D01*
X89962599Y-79544843D02*
X89901781Y-79505762D01*
X89901781Y-79505762D02*
X89864094Y-79482798D01*
X89864094Y-79482798D02*
X89853830Y-79477847D01*
X89853830Y-79477847D02*
X89835341Y-79490581D01*
X89835341Y-79490581D02*
X89795831Y-79525787D01*
X89795831Y-79525787D02*
X89739729Y-79578967D01*
X89739729Y-79578967D02*
X89671464Y-79645623D01*
X89671464Y-79645623D02*
X89595465Y-79721259D01*
X89595465Y-79721259D02*
X89516159Y-79801377D01*
X89516159Y-79801377D02*
X89437976Y-79881479D01*
X89437976Y-79881479D02*
X89365344Y-79957069D01*
X89365344Y-79957069D02*
X89302692Y-80023650D01*
X89302692Y-80023650D02*
X89254448Y-80076723D01*
X89254448Y-80076723D02*
X89225041Y-80111792D01*
X89225041Y-80111792D02*
X89218010Y-80123528D01*
X89218010Y-80123528D02*
X89228128Y-80145165D01*
X89228128Y-80145165D02*
X89256492Y-80192567D01*
X89256492Y-80192567D02*
X89300122Y-80261098D01*
X89300122Y-80261098D02*
X89356033Y-80346120D01*
X89356033Y-80346120D02*
X89421245Y-80442998D01*
X89421245Y-80442998D02*
X89459032Y-80498255D01*
X89459032Y-80498255D02*
X89527908Y-80599153D01*
X89527908Y-80599153D02*
X89589111Y-80690204D01*
X89589111Y-80690204D02*
X89639673Y-80766875D01*
X89639673Y-80766875D02*
X89676623Y-80824633D01*
X89676623Y-80824633D02*
X89696993Y-80858948D01*
X89696993Y-80858948D02*
X89700054Y-80866159D01*
X89700054Y-80866159D02*
X89693115Y-80886653D01*
X89693115Y-80886653D02*
X89674200Y-80934418D01*
X89674200Y-80934418D02*
X89646164Y-81002737D01*
X89646164Y-81002737D02*
X89611860Y-81084894D01*
X89611860Y-81084894D02*
X89574142Y-81174175D01*
X89574142Y-81174175D02*
X89535864Y-81263863D01*
X89535864Y-81263863D02*
X89499881Y-81347243D01*
X89499881Y-81347243D02*
X89469045Y-81417599D01*
X89469045Y-81417599D02*
X89446212Y-81468215D01*
X89446212Y-81468215D02*
X89434234Y-81492376D01*
X89434234Y-81492376D02*
X89433527Y-81493327D01*
X89433527Y-81493327D02*
X89414720Y-81497941D01*
X89414720Y-81497941D02*
X89364633Y-81508233D01*
X89364633Y-81508233D02*
X89288458Y-81523192D01*
X89288458Y-81523192D02*
X89191386Y-81541806D01*
X89191386Y-81541806D02*
X89078608Y-81563064D01*
X89078608Y-81563064D02*
X89012809Y-81575323D01*
X89012809Y-81575323D02*
X88892301Y-81598267D01*
X88892301Y-81598267D02*
X88783454Y-81620100D01*
X88783454Y-81620100D02*
X88691775Y-81639627D01*
X88691775Y-81639627D02*
X88622770Y-81655653D01*
X88622770Y-81655653D02*
X88581947Y-81666984D01*
X88581947Y-81666984D02*
X88573740Y-81670579D01*
X88573740Y-81670579D02*
X88565703Y-81694911D01*
X88565703Y-81694911D02*
X88559218Y-81749864D01*
X88559218Y-81749864D02*
X88554281Y-81829013D01*
X88554281Y-81829013D02*
X88550887Y-81925931D01*
X88550887Y-81925931D02*
X88549033Y-82034192D01*
X88549033Y-82034192D02*
X88548713Y-82147370D01*
X88548713Y-82147370D02*
X88549924Y-82259040D01*
X88549924Y-82259040D02*
X88552661Y-82362773D01*
X88552661Y-82362773D02*
X88556920Y-82452146D01*
X88556920Y-82452146D02*
X88562696Y-82520731D01*
X88562696Y-82520731D02*
X88569984Y-82562102D01*
X88569984Y-82562102D02*
X88574356Y-82570715D01*
X88574356Y-82570715D02*
X88600487Y-82581038D01*
X88600487Y-82581038D02*
X88655858Y-82595797D01*
X88655858Y-82595797D02*
X88733144Y-82613257D01*
X88733144Y-82613257D02*
X88825021Y-82631685D01*
X88825021Y-82631685D02*
X88857093Y-82637646D01*
X88857093Y-82637646D02*
X89011727Y-82665971D01*
X89011727Y-82665971D02*
X89133876Y-82688781D01*
X89133876Y-82688781D02*
X89227578Y-82706985D01*
X89227578Y-82706985D02*
X89296867Y-82721488D01*
X89296867Y-82721488D02*
X89345780Y-82733197D01*
X89345780Y-82733197D02*
X89378354Y-82743020D01*
X89378354Y-82743020D02*
X89398623Y-82751861D01*
X89398623Y-82751861D02*
X89410625Y-82760629D01*
X89410625Y-82760629D02*
X89412304Y-82762362D01*
X89412304Y-82762362D02*
X89429067Y-82790276D01*
X89429067Y-82790276D02*
X89454637Y-82844600D01*
X89454637Y-82844600D02*
X89486463Y-82918682D01*
X89486463Y-82918682D02*
X89521991Y-83005870D01*
X89521991Y-83005870D02*
X89558668Y-83099513D01*
X89558668Y-83099513D02*
X89593940Y-83192957D01*
X89593940Y-83192957D02*
X89625255Y-83279552D01*
X89625255Y-83279552D02*
X89650058Y-83352645D01*
X89650058Y-83352645D02*
X89665797Y-83405583D01*
X89665797Y-83405583D02*
X89669919Y-83431716D01*
X89669919Y-83431716D02*
X89669575Y-83432631D01*
X89669575Y-83432631D02*
X89655610Y-83453991D01*
X89655610Y-83453991D02*
X89623929Y-83500989D01*
X89623929Y-83500989D02*
X89577860Y-83568732D01*
X89577860Y-83568732D02*
X89520733Y-83652328D01*
X89520733Y-83652328D02*
X89455878Y-83746887D01*
X89455878Y-83746887D02*
X89437408Y-83773759D01*
X89437408Y-83773759D02*
X89371552Y-83871180D01*
X89371552Y-83871180D02*
X89313601Y-83960068D01*
X89313601Y-83960068D02*
X89266713Y-84035317D01*
X89266713Y-84035317D02*
X89234044Y-84091825D01*
X89234044Y-84091825D02*
X89218751Y-84124486D01*
X89218751Y-84124486D02*
X89218010Y-84128498D01*
X89218010Y-84128498D02*
X89230859Y-84149589D01*
X89230859Y-84149589D02*
X89266363Y-84191369D01*
X89266363Y-84191369D02*
X89319958Y-84249350D01*
X89319958Y-84249350D02*
X89387080Y-84319040D01*
X89387080Y-84319040D02*
X89463164Y-84395950D01*
X89463164Y-84395950D02*
X89543647Y-84475588D01*
X89543647Y-84475588D02*
X89623964Y-84553466D01*
X89623964Y-84553466D02*
X89699552Y-84625091D01*
X89699552Y-84625091D02*
X89765846Y-84685975D01*
X89765846Y-84685975D02*
X89818282Y-84731626D01*
X89818282Y-84731626D02*
X89852296Y-84757555D01*
X89852296Y-84757555D02*
X89861706Y-84761788D01*
X89861706Y-84761788D02*
X89883608Y-84751817D01*
X89883608Y-84751817D02*
X89928451Y-84724925D01*
X89928451Y-84724925D02*
X89988930Y-84685641D01*
X89988930Y-84685641D02*
X90035462Y-84654022D01*
X90035462Y-84654022D02*
X90119776Y-84596003D01*
X90119776Y-84596003D02*
X90219625Y-84527689D01*
X90219625Y-84527689D02*
X90319778Y-84459484D01*
X90319778Y-84459484D02*
X90373624Y-84422980D01*
X90373624Y-84422980D02*
X90555880Y-84299705D01*
X90555880Y-84299705D02*
X90708870Y-84382425D01*
X90708870Y-84382425D02*
X90778569Y-84418664D01*
X90778569Y-84418664D02*
X90837837Y-84446831D01*
X90837837Y-84446831D02*
X90877940Y-84462896D01*
X90877940Y-84462896D02*
X90888148Y-84465131D01*
X90888148Y-84465131D02*
X90900422Y-84448627D01*
X90900422Y-84448627D02*
X90924638Y-84401987D01*
X90924638Y-84401987D02*
X90958988Y-84329514D01*
X90958988Y-84329514D02*
X91001663Y-84235511D01*
X91001663Y-84235511D02*
X91050857Y-84124279D01*
X91050857Y-84124279D02*
X91104761Y-84000120D01*
X91104761Y-84000120D02*
X91161567Y-83867337D01*
X91161567Y-83867337D02*
X91219469Y-83730232D01*
X91219469Y-83730232D02*
X91276658Y-83593107D01*
X91276658Y-83593107D02*
X91331327Y-83460263D01*
X91331327Y-83460263D02*
X91381667Y-83336003D01*
X91381667Y-83336003D02*
X91425871Y-83224630D01*
X91425871Y-83224630D02*
X91462132Y-83130444D01*
X91462132Y-83130444D02*
X91488642Y-83057749D01*
X91488642Y-83057749D02*
X91503593Y-83010846D01*
X91503593Y-83010846D02*
X91505997Y-82994738D01*
X91505997Y-82994738D02*
X91486940Y-82974191D01*
X91486940Y-82974191D02*
X91445215Y-82940838D01*
X91445215Y-82940838D02*
X91389545Y-82901607D01*
X91389545Y-82901607D02*
X91384873Y-82898504D01*
X91384873Y-82898504D02*
X91240987Y-82783328D01*
X91240987Y-82783328D02*
X91124968Y-82648958D01*
X91124968Y-82648958D02*
X91037821Y-82499689D01*
X91037821Y-82499689D02*
X90980552Y-82339818D01*
X90980552Y-82339818D02*
X90954165Y-82173642D01*
X90954165Y-82173642D02*
X90959666Y-82005457D01*
X90959666Y-82005457D02*
X90998061Y-81839560D01*
X90998061Y-81839560D02*
X91070356Y-81680247D01*
X91070356Y-81680247D02*
X91091625Y-81645392D01*
X91091625Y-81645392D02*
X91202255Y-81504642D01*
X91202255Y-81504642D02*
X91332949Y-81391619D01*
X91332949Y-81391619D02*
X91479187Y-81306908D01*
X91479187Y-81306908D02*
X91636443Y-81251099D01*
X91636443Y-81251099D02*
X91800194Y-81224779D01*
X91800194Y-81224779D02*
X91965918Y-81228535D01*
X91965918Y-81228535D02*
X92129089Y-81262955D01*
X92129089Y-81262955D02*
X92285186Y-81328628D01*
X92285186Y-81328628D02*
X92429684Y-81426140D01*
X92429684Y-81426140D02*
X92474382Y-81465718D01*
X92474382Y-81465718D02*
X92588139Y-81589608D01*
X92588139Y-81589608D02*
X92671033Y-81720029D01*
X92671033Y-81720029D02*
X92727895Y-81866220D01*
X92727895Y-81866220D02*
X92759564Y-82010993D01*
X92759564Y-82010993D02*
X92767382Y-82173765D01*
X92767382Y-82173765D02*
X92741313Y-82337345D01*
X92741313Y-82337345D02*
X92684006Y-82496203D01*
X92684006Y-82496203D02*
X92598107Y-82644811D01*
X92598107Y-82644811D02*
X92486265Y-82777640D01*
X92486265Y-82777640D02*
X92351128Y-82889161D01*
X92351128Y-82889161D02*
X92333368Y-82900916D01*
X92333368Y-82900916D02*
X92277101Y-82939413D01*
X92277101Y-82939413D02*
X92234328Y-82972768D01*
X92234328Y-82972768D02*
X92213879Y-82994065D01*
X92213879Y-82994065D02*
X92213582Y-82994738D01*
X92213582Y-82994738D02*
X92217972Y-83017776D01*
X92217972Y-83017776D02*
X92235375Y-83070062D01*
X92235375Y-83070062D02*
X92263983Y-83147295D01*
X92263983Y-83147295D02*
X92301986Y-83245173D01*
X92301986Y-83245173D02*
X92347577Y-83359396D01*
X92347577Y-83359396D02*
X92398948Y-83485663D01*
X92398948Y-83485663D02*
X92454289Y-83619672D01*
X92454289Y-83619672D02*
X92511793Y-83757123D01*
X92511793Y-83757123D02*
X92569650Y-83893713D01*
X92569650Y-83893713D02*
X92626053Y-84025142D01*
X92626053Y-84025142D02*
X92679193Y-84147110D01*
X92679193Y-84147110D02*
X92727261Y-84255314D01*
X92727261Y-84255314D02*
X92768450Y-84345454D01*
X92768450Y-84345454D02*
X92800950Y-84413228D01*
X92800950Y-84413228D02*
X92822954Y-84454335D01*
X92822954Y-84454335D02*
X92831815Y-84465131D01*
X92831815Y-84465131D02*
X92858891Y-84456724D01*
X92858891Y-84456724D02*
X92909554Y-84434177D01*
X92909554Y-84434177D02*
X92975068Y-84401518D01*
X92975068Y-84401518D02*
X93011092Y-84382425D01*
X93011092Y-84382425D02*
X93164083Y-84299705D01*
X93164083Y-84299705D02*
X93346339Y-84422980D01*
X93346339Y-84422980D02*
X93439376Y-84486133D01*
X93439376Y-84486133D02*
X93541236Y-84555632D01*
X93541236Y-84555632D02*
X93636689Y-84621070D01*
X93636689Y-84621070D02*
X93684501Y-84654022D01*
X93684501Y-84654022D02*
X93751746Y-84699178D01*
X93751746Y-84699178D02*
X93808687Y-84734962D01*
X93808687Y-84734962D02*
X93847897Y-84756843D01*
X93847897Y-84756843D02*
X93860632Y-84761468D01*
X93860632Y-84761468D02*
X93879168Y-84748990D01*
X93879168Y-84748990D02*
X93920192Y-84714157D01*
X93920192Y-84714157D02*
X93979726Y-84660583D01*
X93979726Y-84660583D02*
X94053793Y-84591888D01*
X94053793Y-84591888D02*
X94138416Y-84511686D01*
X94138416Y-84511686D02*
X94191936Y-84460191D01*
X94191936Y-84460191D02*
X94285570Y-84368191D01*
X94285570Y-84368191D02*
X94366492Y-84285904D01*
X94366492Y-84285904D02*
X94431428Y-84216850D01*
X94431428Y-84216850D02*
X94477109Y-84164549D01*
X94477109Y-84164549D02*
X94500262Y-84132521D01*
X94500262Y-84132521D02*
X94502483Y-84126021D01*
X94502483Y-84126021D02*
X94492175Y-84101299D01*
X94492175Y-84101299D02*
X94463690Y-84051310D01*
X94463690Y-84051310D02*
X94420188Y-83981117D01*
X94420188Y-83981117D02*
X94364828Y-83895780D01*
X94364828Y-83895780D02*
X94300771Y-83800361D01*
X94300771Y-83800361D02*
X94282554Y-83773759D01*
X94282554Y-83773759D02*
X94216178Y-83677072D01*
X94216178Y-83677072D02*
X94156629Y-83590022D01*
X94156629Y-83590022D02*
X94107235Y-83517500D01*
X94107235Y-83517500D02*
X94071326Y-83464398D01*
X94071326Y-83464398D02*
X94052232Y-83435608D01*
X94052232Y-83435608D02*
X94050387Y-83432631D01*
X94050387Y-83432631D02*
X94053146Y-83409687D01*
X94053146Y-83409687D02*
X94067789Y-83359241D01*
X94067789Y-83359241D02*
X94091764Y-83287946D01*
X94091764Y-83287946D02*
X94122517Y-83202452D01*
X94122517Y-83202452D02*
X94157495Y-83109412D01*
X94157495Y-83109412D02*
X94194144Y-83015479D01*
X94194144Y-83015479D02*
X94229912Y-82927304D01*
X94229912Y-82927304D02*
X94262245Y-82851539D01*
X94262245Y-82851539D02*
X94288589Y-82794836D01*
X94288589Y-82794836D02*
X94306393Y-82763848D01*
X94306393Y-82763848D02*
X94307658Y-82762362D01*
X94307658Y-82762362D02*
X94318545Y-82753506D01*
X94318545Y-82753506D02*
X94336933Y-82744748D01*
X94336933Y-82744748D02*
X94366857Y-82735182D01*
X94366857Y-82735182D02*
X94412354Y-82723901D01*
X94412354Y-82723901D02*
X94477460Y-82709998D01*
X94477460Y-82709998D02*
X94566212Y-82692568D01*
X94566212Y-82692568D02*
X94682644Y-82670703D01*
X94682644Y-82670703D02*
X94830793Y-82643496D01*
X94830793Y-82643496D02*
X94862869Y-82637646D01*
X94862869Y-82637646D02*
X94957937Y-82619279D01*
X94957937Y-82619279D02*
X95040816Y-82601310D01*
X95040816Y-82601310D02*
X95104181Y-82585474D01*
X95104181Y-82585474D02*
X95140709Y-82573505D01*
X95140709Y-82573505D02*
X95145607Y-82570715D01*
X95145607Y-82570715D02*
X95153678Y-82545977D01*
X95153678Y-82545977D02*
X95160238Y-82490695D01*
X95160238Y-82490695D02*
X95165284Y-82411294D01*
X95165284Y-82411294D02*
X95168810Y-82314201D01*
X95168810Y-82314201D02*
X95170812Y-82205843D01*
X95170812Y-82205843D02*
X95171287Y-82092645D01*
X95171287Y-82092645D02*
X95170228Y-81981033D01*
X95170228Y-81981033D02*
X95167633Y-81877434D01*
X95167633Y-81877434D02*
X95163497Y-81788273D01*
X95163497Y-81788273D02*
X95157814Y-81719977D01*
X95157814Y-81719977D02*
X95150582Y-81678971D01*
X95150582Y-81678971D02*
X95146222Y-81670579D01*
X95146222Y-81670579D02*
X95121949Y-81662113D01*
X95121949Y-81662113D02*
X95066677Y-81648340D01*
X95066677Y-81648340D02*
X94985913Y-81630455D01*
X94985913Y-81630455D02*
X94885163Y-81609653D01*
X94885163Y-81609653D02*
X94769934Y-81587128D01*
X94769934Y-81587128D02*
X94707153Y-81575323D01*
X94707153Y-81575323D02*
X94588038Y-81553056D01*
X94588038Y-81553056D02*
X94481816Y-81532884D01*
X94481816Y-81532884D02*
X94393678Y-81515820D01*
X94393678Y-81515820D02*
X94328817Y-81502874D01*
X94328817Y-81502874D02*
X94292425Y-81495060D01*
X94292425Y-81495060D02*
X94286435Y-81493327D01*
X94286435Y-81493327D02*
X94276312Y-81473795D01*
X94276312Y-81473795D02*
X94254913Y-81426748D01*
X94254913Y-81426748D02*
X94225090Y-81358908D01*
X94225090Y-81358908D02*
X94189696Y-81276996D01*
X94189696Y-81276996D02*
X94151583Y-81187733D01*
X94151583Y-81187733D02*
X94113604Y-81097840D01*
X94113604Y-81097840D02*
X94078611Y-81014040D01*
X94078611Y-81014040D02*
X94049457Y-80943052D01*
X94049457Y-80943052D02*
X94028994Y-80891599D01*
X94028994Y-80891599D02*
X94020074Y-80866402D01*
X94020074Y-80866402D02*
X94019908Y-80865301D01*
X94019908Y-80865301D02*
X94030020Y-80845424D01*
X94030020Y-80845424D02*
X94058368Y-80799682D01*
X94058368Y-80799682D02*
X94101974Y-80732622D01*
X94101974Y-80732622D02*
X94157857Y-80648789D01*
X94157857Y-80648789D02*
X94223038Y-80552731D01*
X94223038Y-80552731D02*
X94260930Y-80497555D01*
X94260930Y-80497555D02*
X94329976Y-80396386D01*
X94329976Y-80396386D02*
X94391301Y-80304535D01*
X94391301Y-80304535D02*
X94441914Y-80226649D01*
X94441914Y-80226649D02*
X94478822Y-80167374D01*
X94478822Y-80167374D02*
X94499033Y-80131356D01*
X94499033Y-80131356D02*
X94501952Y-80123282D01*
X94501952Y-80123282D02*
X94489404Y-80104489D01*
X94489404Y-80104489D02*
X94454714Y-80064362D01*
X94454714Y-80064362D02*
X94402314Y-80007398D01*
X94402314Y-80007398D02*
X94336635Y-79938090D01*
X94336635Y-79938090D02*
X94262107Y-79860936D01*
X94262107Y-79860936D02*
X94183164Y-79780430D01*
X94183164Y-79780430D02*
X94104234Y-79701068D01*
X94104234Y-79701068D02*
X94029751Y-79627345D01*
X94029751Y-79627345D02*
X93964145Y-79563757D01*
X93964145Y-79563757D02*
X93911847Y-79514799D01*
X93911847Y-79514799D02*
X93877290Y-79484966D01*
X93877290Y-79484966D02*
X93865729Y-79477847D01*
X93865729Y-79477847D02*
X93846905Y-79487858D01*
X93846905Y-79487858D02*
X93801882Y-79515983D01*
X93801882Y-79515983D02*
X93735038Y-79559359D01*
X93735038Y-79559359D02*
X93650750Y-79615123D01*
X93650750Y-79615123D02*
X93553395Y-79680411D01*
X93553395Y-79680411D02*
X93479958Y-79730151D01*
X93479958Y-79730151D02*
X93108918Y-79982456D01*
X93108918Y-79982456D02*
X92490346Y-79727460D01*
X92490346Y-79727460D02*
X92406526Y-79282836D01*
X92406526Y-79282836D02*
X92322705Y-78838212D01*
X92322705Y-78838212D02*
X91397257Y-78838212D01*
X91397257Y-78838212D02*
X91313437Y-79282836D01*
X91313437Y-79282836D02*
X91313437Y-79282836D01*
G36*
X92406526Y-79282836D02*
G01*
X92490346Y-79727460D01*
X93108918Y-79982456D01*
X93479958Y-79730151D01*
X93553395Y-79680411D01*
X93650750Y-79615123D01*
X93735038Y-79559359D01*
X93801882Y-79515983D01*
X93846905Y-79487858D01*
X93865729Y-79477847D01*
X93877290Y-79484966D01*
X93911847Y-79514799D01*
X93964145Y-79563757D01*
X94029751Y-79627345D01*
X94104234Y-79701068D01*
X94183164Y-79780430D01*
X94262107Y-79860936D01*
X94336635Y-79938090D01*
X94402314Y-80007398D01*
X94454714Y-80064362D01*
X94489404Y-80104489D01*
X94501952Y-80123282D01*
X94499033Y-80131356D01*
X94478822Y-80167374D01*
X94441914Y-80226649D01*
X94391301Y-80304535D01*
X94329976Y-80396386D01*
X94260930Y-80497555D01*
X94223038Y-80552731D01*
X94157857Y-80648789D01*
X94101974Y-80732622D01*
X94058368Y-80799682D01*
X94030020Y-80845424D01*
X94019908Y-80865301D01*
X94020074Y-80866402D01*
X94028994Y-80891599D01*
X94049457Y-80943052D01*
X94078611Y-81014040D01*
X94113604Y-81097840D01*
X94151583Y-81187733D01*
X94189696Y-81276996D01*
X94225090Y-81358908D01*
X94254913Y-81426748D01*
X94276312Y-81473795D01*
X94286435Y-81493327D01*
X94292425Y-81495060D01*
X94328817Y-81502874D01*
X94393678Y-81515820D01*
X94481816Y-81532884D01*
X94588038Y-81553056D01*
X94707153Y-81575323D01*
X94769934Y-81587128D01*
X94885163Y-81609653D01*
X94985913Y-81630455D01*
X95066677Y-81648340D01*
X95121949Y-81662113D01*
X95146222Y-81670579D01*
X95150582Y-81678971D01*
X95157814Y-81719977D01*
X95163497Y-81788273D01*
X95167633Y-81877434D01*
X95170228Y-81981033D01*
X95171287Y-82092645D01*
X95170812Y-82205843D01*
X95168810Y-82314201D01*
X95165284Y-82411294D01*
X95160238Y-82490695D01*
X95153678Y-82545977D01*
X95145607Y-82570715D01*
X95140709Y-82573505D01*
X95104181Y-82585474D01*
X95040816Y-82601310D01*
X94957937Y-82619279D01*
X94862869Y-82637646D01*
X94830793Y-82643496D01*
X94682644Y-82670703D01*
X94566212Y-82692568D01*
X94477460Y-82709998D01*
X94412354Y-82723901D01*
X94366857Y-82735182D01*
X94336933Y-82744748D01*
X94318545Y-82753506D01*
X94307658Y-82762362D01*
X94306393Y-82763848D01*
X94288589Y-82794836D01*
X94262245Y-82851539D01*
X94229912Y-82927304D01*
X94194144Y-83015479D01*
X94157495Y-83109412D01*
X94122517Y-83202452D01*
X94091764Y-83287946D01*
X94067789Y-83359241D01*
X94053146Y-83409687D01*
X94050387Y-83432631D01*
X94052232Y-83435608D01*
X94071326Y-83464398D01*
X94107235Y-83517500D01*
X94156629Y-83590022D01*
X94216178Y-83677072D01*
X94282554Y-83773759D01*
X94300771Y-83800361D01*
X94364828Y-83895780D01*
X94420188Y-83981117D01*
X94463690Y-84051310D01*
X94492175Y-84101299D01*
X94502483Y-84126021D01*
X94500262Y-84132521D01*
X94477109Y-84164549D01*
X94431428Y-84216850D01*
X94366492Y-84285904D01*
X94285570Y-84368191D01*
X94191936Y-84460191D01*
X94138416Y-84511686D01*
X94053793Y-84591888D01*
X93979726Y-84660583D01*
X93920192Y-84714157D01*
X93879168Y-84748990D01*
X93860632Y-84761468D01*
X93847897Y-84756843D01*
X93808687Y-84734962D01*
X93751746Y-84699178D01*
X93684501Y-84654022D01*
X93636689Y-84621070D01*
X93541236Y-84555632D01*
X93439376Y-84486133D01*
X93346339Y-84422980D01*
X93164083Y-84299705D01*
X93011092Y-84382425D01*
X92975068Y-84401518D01*
X92909554Y-84434177D01*
X92858891Y-84456724D01*
X92831815Y-84465131D01*
X92822954Y-84454335D01*
X92800950Y-84413228D01*
X92768450Y-84345454D01*
X92727261Y-84255314D01*
X92679193Y-84147110D01*
X92626053Y-84025142D01*
X92569650Y-83893713D01*
X92511793Y-83757123D01*
X92454289Y-83619672D01*
X92398948Y-83485663D01*
X92347577Y-83359396D01*
X92301986Y-83245173D01*
X92263983Y-83147295D01*
X92235375Y-83070062D01*
X92217972Y-83017776D01*
X92213582Y-82994738D01*
X92213879Y-82994065D01*
X92234328Y-82972768D01*
X92277101Y-82939413D01*
X92333368Y-82900916D01*
X92351128Y-82889161D01*
X92486265Y-82777640D01*
X92598107Y-82644811D01*
X92684006Y-82496203D01*
X92741313Y-82337345D01*
X92767382Y-82173765D01*
X92759564Y-82010993D01*
X92727895Y-81866220D01*
X92671033Y-81720029D01*
X92588139Y-81589608D01*
X92474382Y-81465718D01*
X92429684Y-81426140D01*
X92285186Y-81328628D01*
X92129089Y-81262955D01*
X91965918Y-81228535D01*
X91800194Y-81224779D01*
X91636443Y-81251099D01*
X91479187Y-81306908D01*
X91332949Y-81391619D01*
X91202255Y-81504642D01*
X91091625Y-81645392D01*
X91070356Y-81680247D01*
X90998061Y-81839560D01*
X90959666Y-82005457D01*
X90954165Y-82173642D01*
X90980552Y-82339818D01*
X91037821Y-82499689D01*
X91124968Y-82648958D01*
X91240987Y-82783328D01*
X91384873Y-82898504D01*
X91389545Y-82901607D01*
X91445215Y-82940838D01*
X91486940Y-82974191D01*
X91505997Y-82994738D01*
X91503593Y-83010846D01*
X91488642Y-83057749D01*
X91462132Y-83130444D01*
X91425871Y-83224630D01*
X91381667Y-83336003D01*
X91331327Y-83460263D01*
X91276658Y-83593107D01*
X91219469Y-83730232D01*
X91161567Y-83867337D01*
X91104761Y-84000120D01*
X91050857Y-84124279D01*
X91001663Y-84235511D01*
X90958988Y-84329514D01*
X90924638Y-84401987D01*
X90900422Y-84448627D01*
X90888148Y-84465131D01*
X90877940Y-84462896D01*
X90837837Y-84446831D01*
X90778569Y-84418664D01*
X90708870Y-84382425D01*
X90555880Y-84299705D01*
X90373624Y-84422980D01*
X90319778Y-84459484D01*
X90219625Y-84527689D01*
X90119776Y-84596003D01*
X90035462Y-84654022D01*
X89988930Y-84685641D01*
X89928451Y-84724925D01*
X89883608Y-84751817D01*
X89861706Y-84761788D01*
X89852296Y-84757555D01*
X89818282Y-84731626D01*
X89765846Y-84685975D01*
X89699552Y-84625091D01*
X89623964Y-84553466D01*
X89543647Y-84475588D01*
X89463164Y-84395950D01*
X89387080Y-84319040D01*
X89319958Y-84249350D01*
X89266363Y-84191369D01*
X89230859Y-84149589D01*
X89218010Y-84128498D01*
X89218751Y-84124486D01*
X89234044Y-84091825D01*
X89266713Y-84035317D01*
X89313601Y-83960068D01*
X89371552Y-83871180D01*
X89437408Y-83773759D01*
X89455878Y-83746887D01*
X89520733Y-83652328D01*
X89577860Y-83568732D01*
X89623929Y-83500989D01*
X89655610Y-83453991D01*
X89669575Y-83432631D01*
X89669919Y-83431716D01*
X89665797Y-83405583D01*
X89650058Y-83352645D01*
X89625255Y-83279552D01*
X89593940Y-83192957D01*
X89558668Y-83099513D01*
X89521991Y-83005870D01*
X89486463Y-82918682D01*
X89454637Y-82844600D01*
X89429067Y-82790276D01*
X89412304Y-82762362D01*
X89410625Y-82760629D01*
X89398623Y-82751861D01*
X89378354Y-82743020D01*
X89345780Y-82733197D01*
X89296867Y-82721488D01*
X89227578Y-82706985D01*
X89133876Y-82688781D01*
X89011727Y-82665971D01*
X88857093Y-82637646D01*
X88825021Y-82631685D01*
X88733144Y-82613257D01*
X88655858Y-82595797D01*
X88600487Y-82581038D01*
X88574356Y-82570715D01*
X88569984Y-82562102D01*
X88562696Y-82520731D01*
X88556920Y-82452146D01*
X88552661Y-82362773D01*
X88549924Y-82259040D01*
X88548713Y-82147370D01*
X88549033Y-82034192D01*
X88550887Y-81925931D01*
X88554281Y-81829013D01*
X88559218Y-81749864D01*
X88565703Y-81694911D01*
X88573740Y-81670579D01*
X88581947Y-81666984D01*
X88622770Y-81655653D01*
X88691775Y-81639627D01*
X88783454Y-81620100D01*
X88892301Y-81598267D01*
X89012809Y-81575323D01*
X89078608Y-81563064D01*
X89191386Y-81541806D01*
X89288458Y-81523192D01*
X89364633Y-81508233D01*
X89414720Y-81497941D01*
X89433527Y-81493327D01*
X89434234Y-81492376D01*
X89446212Y-81468215D01*
X89469045Y-81417599D01*
X89499881Y-81347243D01*
X89535864Y-81263863D01*
X89574142Y-81174175D01*
X89611860Y-81084894D01*
X89646164Y-81002737D01*
X89674200Y-80934418D01*
X89693115Y-80886653D01*
X89700054Y-80866159D01*
X89696993Y-80858948D01*
X89676623Y-80824633D01*
X89639673Y-80766875D01*
X89589111Y-80690204D01*
X89527908Y-80599153D01*
X89459032Y-80498255D01*
X89421245Y-80442998D01*
X89356033Y-80346120D01*
X89300122Y-80261098D01*
X89256492Y-80192567D01*
X89228128Y-80145165D01*
X89218010Y-80123528D01*
X89225041Y-80111792D01*
X89254448Y-80076723D01*
X89302692Y-80023650D01*
X89365344Y-79957069D01*
X89437976Y-79881479D01*
X89516159Y-79801377D01*
X89595465Y-79721259D01*
X89671464Y-79645623D01*
X89739729Y-79578967D01*
X89795831Y-79525787D01*
X89835341Y-79490581D01*
X89853830Y-79477847D01*
X89864094Y-79482798D01*
X89901781Y-79505762D01*
X89962599Y-79544843D01*
X90042164Y-79597177D01*
X90136094Y-79659901D01*
X90240005Y-79730151D01*
X90611045Y-79982456D01*
X90920331Y-79854958D01*
X91229616Y-79727460D01*
X91313437Y-79282836D01*
X91397257Y-78838212D01*
X92322705Y-78838212D01*
X92406526Y-79282836D01*
G37*
X92406526Y-79282836D02*
X92490346Y-79727460D01*
X93108918Y-79982456D01*
X93479958Y-79730151D01*
X93553395Y-79680411D01*
X93650750Y-79615123D01*
X93735038Y-79559359D01*
X93801882Y-79515983D01*
X93846905Y-79487858D01*
X93865729Y-79477847D01*
X93877290Y-79484966D01*
X93911847Y-79514799D01*
X93964145Y-79563757D01*
X94029751Y-79627345D01*
X94104234Y-79701068D01*
X94183164Y-79780430D01*
X94262107Y-79860936D01*
X94336635Y-79938090D01*
X94402314Y-80007398D01*
X94454714Y-80064362D01*
X94489404Y-80104489D01*
X94501952Y-80123282D01*
X94499033Y-80131356D01*
X94478822Y-80167374D01*
X94441914Y-80226649D01*
X94391301Y-80304535D01*
X94329976Y-80396386D01*
X94260930Y-80497555D01*
X94223038Y-80552731D01*
X94157857Y-80648789D01*
X94101974Y-80732622D01*
X94058368Y-80799682D01*
X94030020Y-80845424D01*
X94019908Y-80865301D01*
X94020074Y-80866402D01*
X94028994Y-80891599D01*
X94049457Y-80943052D01*
X94078611Y-81014040D01*
X94113604Y-81097840D01*
X94151583Y-81187733D01*
X94189696Y-81276996D01*
X94225090Y-81358908D01*
X94254913Y-81426748D01*
X94276312Y-81473795D01*
X94286435Y-81493327D01*
X94292425Y-81495060D01*
X94328817Y-81502874D01*
X94393678Y-81515820D01*
X94481816Y-81532884D01*
X94588038Y-81553056D01*
X94707153Y-81575323D01*
X94769934Y-81587128D01*
X94885163Y-81609653D01*
X94985913Y-81630455D01*
X95066677Y-81648340D01*
X95121949Y-81662113D01*
X95146222Y-81670579D01*
X95150582Y-81678971D01*
X95157814Y-81719977D01*
X95163497Y-81788273D01*
X95167633Y-81877434D01*
X95170228Y-81981033D01*
X95171287Y-82092645D01*
X95170812Y-82205843D01*
X95168810Y-82314201D01*
X95165284Y-82411294D01*
X95160238Y-82490695D01*
X95153678Y-82545977D01*
X95145607Y-82570715D01*
X95140709Y-82573505D01*
X95104181Y-82585474D01*
X95040816Y-82601310D01*
X94957937Y-82619279D01*
X94862869Y-82637646D01*
X94830793Y-82643496D01*
X94682644Y-82670703D01*
X94566212Y-82692568D01*
X94477460Y-82709998D01*
X94412354Y-82723901D01*
X94366857Y-82735182D01*
X94336933Y-82744748D01*
X94318545Y-82753506D01*
X94307658Y-82762362D01*
X94306393Y-82763848D01*
X94288589Y-82794836D01*
X94262245Y-82851539D01*
X94229912Y-82927304D01*
X94194144Y-83015479D01*
X94157495Y-83109412D01*
X94122517Y-83202452D01*
X94091764Y-83287946D01*
X94067789Y-83359241D01*
X94053146Y-83409687D01*
X94050387Y-83432631D01*
X94052232Y-83435608D01*
X94071326Y-83464398D01*
X94107235Y-83517500D01*
X94156629Y-83590022D01*
X94216178Y-83677072D01*
X94282554Y-83773759D01*
X94300771Y-83800361D01*
X94364828Y-83895780D01*
X94420188Y-83981117D01*
X94463690Y-84051310D01*
X94492175Y-84101299D01*
X94502483Y-84126021D01*
X94500262Y-84132521D01*
X94477109Y-84164549D01*
X94431428Y-84216850D01*
X94366492Y-84285904D01*
X94285570Y-84368191D01*
X94191936Y-84460191D01*
X94138416Y-84511686D01*
X94053793Y-84591888D01*
X93979726Y-84660583D01*
X93920192Y-84714157D01*
X93879168Y-84748990D01*
X93860632Y-84761468D01*
X93847897Y-84756843D01*
X93808687Y-84734962D01*
X93751746Y-84699178D01*
X93684501Y-84654022D01*
X93636689Y-84621070D01*
X93541236Y-84555632D01*
X93439376Y-84486133D01*
X93346339Y-84422980D01*
X93164083Y-84299705D01*
X93011092Y-84382425D01*
X92975068Y-84401518D01*
X92909554Y-84434177D01*
X92858891Y-84456724D01*
X92831815Y-84465131D01*
X92822954Y-84454335D01*
X92800950Y-84413228D01*
X92768450Y-84345454D01*
X92727261Y-84255314D01*
X92679193Y-84147110D01*
X92626053Y-84025142D01*
X92569650Y-83893713D01*
X92511793Y-83757123D01*
X92454289Y-83619672D01*
X92398948Y-83485663D01*
X92347577Y-83359396D01*
X92301986Y-83245173D01*
X92263983Y-83147295D01*
X92235375Y-83070062D01*
X92217972Y-83017776D01*
X92213582Y-82994738D01*
X92213879Y-82994065D01*
X92234328Y-82972768D01*
X92277101Y-82939413D01*
X92333368Y-82900916D01*
X92351128Y-82889161D01*
X92486265Y-82777640D01*
X92598107Y-82644811D01*
X92684006Y-82496203D01*
X92741313Y-82337345D01*
X92767382Y-82173765D01*
X92759564Y-82010993D01*
X92727895Y-81866220D01*
X92671033Y-81720029D01*
X92588139Y-81589608D01*
X92474382Y-81465718D01*
X92429684Y-81426140D01*
X92285186Y-81328628D01*
X92129089Y-81262955D01*
X91965918Y-81228535D01*
X91800194Y-81224779D01*
X91636443Y-81251099D01*
X91479187Y-81306908D01*
X91332949Y-81391619D01*
X91202255Y-81504642D01*
X91091625Y-81645392D01*
X91070356Y-81680247D01*
X90998061Y-81839560D01*
X90959666Y-82005457D01*
X90954165Y-82173642D01*
X90980552Y-82339818D01*
X91037821Y-82499689D01*
X91124968Y-82648958D01*
X91240987Y-82783328D01*
X91384873Y-82898504D01*
X91389545Y-82901607D01*
X91445215Y-82940838D01*
X91486940Y-82974191D01*
X91505997Y-82994738D01*
X91503593Y-83010846D01*
X91488642Y-83057749D01*
X91462132Y-83130444D01*
X91425871Y-83224630D01*
X91381667Y-83336003D01*
X91331327Y-83460263D01*
X91276658Y-83593107D01*
X91219469Y-83730232D01*
X91161567Y-83867337D01*
X91104761Y-84000120D01*
X91050857Y-84124279D01*
X91001663Y-84235511D01*
X90958988Y-84329514D01*
X90924638Y-84401987D01*
X90900422Y-84448627D01*
X90888148Y-84465131D01*
X90877940Y-84462896D01*
X90837837Y-84446831D01*
X90778569Y-84418664D01*
X90708870Y-84382425D01*
X90555880Y-84299705D01*
X90373624Y-84422980D01*
X90319778Y-84459484D01*
X90219625Y-84527689D01*
X90119776Y-84596003D01*
X90035462Y-84654022D01*
X89988930Y-84685641D01*
X89928451Y-84724925D01*
X89883608Y-84751817D01*
X89861706Y-84761788D01*
X89852296Y-84757555D01*
X89818282Y-84731626D01*
X89765846Y-84685975D01*
X89699552Y-84625091D01*
X89623964Y-84553466D01*
X89543647Y-84475588D01*
X89463164Y-84395950D01*
X89387080Y-84319040D01*
X89319958Y-84249350D01*
X89266363Y-84191369D01*
X89230859Y-84149589D01*
X89218010Y-84128498D01*
X89218751Y-84124486D01*
X89234044Y-84091825D01*
X89266713Y-84035317D01*
X89313601Y-83960068D01*
X89371552Y-83871180D01*
X89437408Y-83773759D01*
X89455878Y-83746887D01*
X89520733Y-83652328D01*
X89577860Y-83568732D01*
X89623929Y-83500989D01*
X89655610Y-83453991D01*
X89669575Y-83432631D01*
X89669919Y-83431716D01*
X89665797Y-83405583D01*
X89650058Y-83352645D01*
X89625255Y-83279552D01*
X89593940Y-83192957D01*
X89558668Y-83099513D01*
X89521991Y-83005870D01*
X89486463Y-82918682D01*
X89454637Y-82844600D01*
X89429067Y-82790276D01*
X89412304Y-82762362D01*
X89410625Y-82760629D01*
X89398623Y-82751861D01*
X89378354Y-82743020D01*
X89345780Y-82733197D01*
X89296867Y-82721488D01*
X89227578Y-82706985D01*
X89133876Y-82688781D01*
X89011727Y-82665971D01*
X88857093Y-82637646D01*
X88825021Y-82631685D01*
X88733144Y-82613257D01*
X88655858Y-82595797D01*
X88600487Y-82581038D01*
X88574356Y-82570715D01*
X88569984Y-82562102D01*
X88562696Y-82520731D01*
X88556920Y-82452146D01*
X88552661Y-82362773D01*
X88549924Y-82259040D01*
X88548713Y-82147370D01*
X88549033Y-82034192D01*
X88550887Y-81925931D01*
X88554281Y-81829013D01*
X88559218Y-81749864D01*
X88565703Y-81694911D01*
X88573740Y-81670579D01*
X88581947Y-81666984D01*
X88622770Y-81655653D01*
X88691775Y-81639627D01*
X88783454Y-81620100D01*
X88892301Y-81598267D01*
X89012809Y-81575323D01*
X89078608Y-81563064D01*
X89191386Y-81541806D01*
X89288458Y-81523192D01*
X89364633Y-81508233D01*
X89414720Y-81497941D01*
X89433527Y-81493327D01*
X89434234Y-81492376D01*
X89446212Y-81468215D01*
X89469045Y-81417599D01*
X89499881Y-81347243D01*
X89535864Y-81263863D01*
X89574142Y-81174175D01*
X89611860Y-81084894D01*
X89646164Y-81002737D01*
X89674200Y-80934418D01*
X89693115Y-80886653D01*
X89700054Y-80866159D01*
X89696993Y-80858948D01*
X89676623Y-80824633D01*
X89639673Y-80766875D01*
X89589111Y-80690204D01*
X89527908Y-80599153D01*
X89459032Y-80498255D01*
X89421245Y-80442998D01*
X89356033Y-80346120D01*
X89300122Y-80261098D01*
X89256492Y-80192567D01*
X89228128Y-80145165D01*
X89218010Y-80123528D01*
X89225041Y-80111792D01*
X89254448Y-80076723D01*
X89302692Y-80023650D01*
X89365344Y-79957069D01*
X89437976Y-79881479D01*
X89516159Y-79801377D01*
X89595465Y-79721259D01*
X89671464Y-79645623D01*
X89739729Y-79578967D01*
X89795831Y-79525787D01*
X89835341Y-79490581D01*
X89853830Y-79477847D01*
X89864094Y-79482798D01*
X89901781Y-79505762D01*
X89962599Y-79544843D01*
X90042164Y-79597177D01*
X90136094Y-79659901D01*
X90240005Y-79730151D01*
X90611045Y-79982456D01*
X90920331Y-79854958D01*
X91229616Y-79727460D01*
X91313437Y-79282836D01*
X91397257Y-78838212D01*
X92322705Y-78838212D01*
X92406526Y-79282836D01*
D11*
%TO.C,SW1*%
X115274229Y-93670771D02*
X112774229Y-93670771D01*
X115724229Y-93220771D02*
X115274229Y-93670771D01*
X115274229Y-88170771D02*
X112774229Y-88170771D01*
X111274229Y-89920771D02*
X111274229Y-91920771D01*
X115724229Y-88620771D02*
X115274229Y-88170771D01*
X112324229Y-88620771D02*
X112774229Y-88170771D01*
X116774229Y-89920771D02*
X116774229Y-91920771D01*
X112324229Y-93220771D02*
X112774229Y-93670771D01*
%TO.C,C4*%
X127354229Y-47635191D02*
X127354229Y-47916351D01*
X126334229Y-47635191D02*
X126334229Y-47916351D01*
%TD*%
%LPC*%
%TO.C,G\u002A\u002A\u002A*%
D15*
X113665000Y-81790000D02*
G75*
G03*
X113665000Y-81790000I-1875000J0D01*
G01*
%TD*%
D16*
%TO.C,MX8*%
X106485479Y-84389521D03*
D17*
X101405479Y-84389521D03*
D16*
X96325479Y-84389521D03*
D18*
X97595479Y-81849521D03*
X103945479Y-79309521D03*
%TD*%
D19*
%TO.C,D5*%
X123955479Y-69669520D03*
X123955479Y-71169520D03*
X129155479Y-71169520D03*
X129155479Y-69669520D03*
%TD*%
D16*
%TO.C,MX7*%
X87435479Y-84389521D03*
X77275479Y-84389521D03*
D17*
X82355479Y-84389521D03*
D18*
X78545479Y-81849521D03*
X84895479Y-79309521D03*
%TD*%
D19*
%TO.C,D6*%
X79755479Y-88719520D03*
X79755479Y-90219520D03*
X84955479Y-90219520D03*
X84955479Y-88719520D03*
%TD*%
D16*
%TO.C,MX1*%
X77275479Y-46289521D03*
X87435479Y-46289521D03*
D17*
X82355479Y-46289521D03*
D18*
X78545479Y-43749521D03*
X84895479Y-41209521D03*
%TD*%
D16*
%TO.C,MX6*%
X121475479Y-65339521D03*
D17*
X126555479Y-65339521D03*
D16*
X131635479Y-65339521D03*
D18*
X122745479Y-62799521D03*
X129095479Y-60259521D03*
%TD*%
D19*
%TO.C,D1*%
X79755479Y-50619520D03*
X79755479Y-52119520D03*
X84955479Y-52119520D03*
X84955479Y-50619520D03*
%TD*%
D20*
%TO.C,U1*%
X86384229Y-36055771D03*
D21*
X88924229Y-36055771D03*
X91464229Y-36055771D03*
X94004229Y-36055771D03*
%TD*%
D17*
%TO.C,MX9*%
X126555479Y-84389521D03*
D16*
X121475479Y-84389521D03*
X131635479Y-84389521D03*
D18*
X122745479Y-81849521D03*
X129095479Y-79309521D03*
%TD*%
D16*
%TO.C,MX4*%
X87435479Y-65339521D03*
D17*
X82355479Y-65339521D03*
D16*
X77275479Y-65339521D03*
D18*
X78545479Y-62799521D03*
X84895479Y-60259521D03*
%TD*%
D19*
%TO.C,D2*%
X98805479Y-50619520D03*
X98805479Y-52119520D03*
X104005479Y-52119520D03*
X104005479Y-50619520D03*
%TD*%
D22*
%TO.C,MX3*%
X133805479Y-48789521D03*
D23*
X133805479Y-43789521D03*
X133805479Y-46289521D03*
D24*
X126305479Y-51889521D03*
X126305479Y-40689521D03*
D23*
X119305479Y-43789521D03*
X119305479Y-48789521D03*
%TD*%
D19*
%TO.C,D3*%
X79755479Y-69669520D03*
X79755479Y-71169520D03*
X84955479Y-71169520D03*
X84955479Y-69669520D03*
%TD*%
%TO.C,D7*%
X98805479Y-88719520D03*
X98805479Y-90219520D03*
X104005479Y-90219520D03*
X104005479Y-88719520D03*
%TD*%
%TO.C,D8*%
X123955479Y-88719520D03*
X123955479Y-90219520D03*
X129155479Y-90219520D03*
X129155479Y-88719520D03*
%TD*%
%TO.C,D4*%
X98805479Y-69669520D03*
X98805479Y-71169520D03*
X104005479Y-71169520D03*
X104005479Y-69669520D03*
%TD*%
D16*
%TO.C,MX2*%
X96325479Y-46289521D03*
X106485479Y-46289521D03*
D17*
X101405479Y-46289521D03*
D18*
X97595479Y-43749521D03*
X103945479Y-41209521D03*
%TD*%
D16*
%TO.C,MX5*%
X106485479Y-65339521D03*
D17*
X101405479Y-65339521D03*
D16*
X96325479Y-65339521D03*
D18*
X97595479Y-62799521D03*
X103945479Y-60259521D03*
%TD*%
D25*
%TO.C,J1*%
X114819229Y-41645771D03*
X115619229Y-41645771D03*
D26*
X116769229Y-41645771D03*
X117769229Y-41645771D03*
X118269229Y-41645771D03*
X119269229Y-41645771D03*
D25*
X120419229Y-41645771D03*
X121219229Y-41645771D03*
X121219229Y-41645771D03*
X120419229Y-41645771D03*
D26*
X119769229Y-41645771D03*
X118769229Y-41645771D03*
X117269229Y-41645771D03*
X116269229Y-41645771D03*
D25*
X115619229Y-41645771D03*
X114819229Y-41645771D03*
D27*
X112399229Y-40445771D03*
X123639229Y-40445771D03*
D28*
X123639229Y-36445771D03*
X112399229Y-36445771D03*
%TD*%
D29*
%TO.C,C10*%
X109749229Y-60695771D03*
X108199229Y-60695771D03*
%TD*%
D30*
%TO.C,C11*%
X123452237Y-66767763D03*
X122356221Y-67863779D03*
%TD*%
D29*
%TO.C,C7*%
X109749229Y-57695771D03*
X108199229Y-57695771D03*
%TD*%
D31*
%TO.C,D9*%
X108389229Y-39780771D03*
X108389229Y-42580771D03*
%TD*%
D32*
%TO.C,R3*%
X117019229Y-50975771D03*
X117019229Y-49325771D03*
%TD*%
%TO.C,R2*%
X113749229Y-43340771D03*
X113749229Y-41690771D03*
%TD*%
D33*
%TO.C,C12*%
X77824229Y-69620771D03*
X77824229Y-71170771D03*
%TD*%
%TO.C,C6*%
X77774229Y-50620771D03*
X77774229Y-52170771D03*
%TD*%
D29*
%TO.C,C5*%
X109949229Y-49045771D03*
X108399229Y-49045771D03*
%TD*%
D32*
%TO.C,R4*%
X115509229Y-50975771D03*
X115509229Y-49325771D03*
%TD*%
D34*
%TO.C,J2*%
X123559229Y-54450771D03*
X123559229Y-56990771D03*
X126099229Y-54450771D03*
X126099229Y-56990771D03*
X128639229Y-54450771D03*
X128639229Y-56990771D03*
%TD*%
D35*
%TO.C,U2*%
X115319229Y-45433271D03*
X116269229Y-45433271D03*
X117219229Y-45433271D03*
X117219229Y-47708271D03*
X116269229Y-47708271D03*
X115319229Y-47708271D03*
%TD*%
D36*
%TO.C,FB2*%
X108359229Y-45960771D03*
X109959229Y-45960771D03*
%TD*%
D37*
%TO.C,D13*%
X89430479Y-76464521D03*
X89430479Y-73264521D03*
X94330479Y-73264521D03*
X94330479Y-76464521D03*
%TD*%
D38*
%TO.C,C13*%
X116396221Y-71293779D03*
X117492237Y-70197763D03*
%TD*%
D39*
%TO.C,FB1*%
X110934229Y-38815771D03*
X110934229Y-40415771D03*
%TD*%
D40*
%TO.C,RN1*%
X128286729Y-47489521D03*
D41*
X128286729Y-46689521D03*
X128286729Y-45889521D03*
D40*
X128286729Y-45089521D03*
X130086729Y-45089521D03*
D41*
X130086729Y-45889521D03*
X130086729Y-46689521D03*
D40*
X130086729Y-47489521D03*
%TD*%
D32*
%TO.C,R5*%
X128649229Y-52945771D03*
X128649229Y-51295771D03*
%TD*%
D29*
%TO.C,C3*%
X109924229Y-47520771D03*
X108374229Y-47520771D03*
%TD*%
D42*
%TO.C,R6*%
X108224229Y-62120771D03*
X108224229Y-63770771D03*
%TD*%
D29*
%TO.C,C8*%
X109749229Y-59195771D03*
X108199229Y-59195771D03*
%TD*%
D37*
%TO.C,D12*%
X114574229Y-76464521D03*
X114574229Y-73264521D03*
X119474229Y-73264521D03*
X119474229Y-76464521D03*
%TD*%
D43*
%TO.C,C9*%
X117349229Y-59395771D03*
X118899229Y-59395771D03*
%TD*%
%TO.C,C1*%
X108374229Y-44380771D03*
X109924229Y-44380771D03*
%TD*%
D44*
%TO.C,F1*%
X112206729Y-42610771D03*
X110331729Y-42610771D03*
%TD*%
D37*
%TO.C,D11*%
X89430479Y-57414521D03*
X89430479Y-54214521D03*
X94330479Y-54214521D03*
X94330479Y-57414521D03*
%TD*%
%TO.C,D10*%
X114574229Y-57395771D03*
X114574229Y-54195771D03*
X119474229Y-54195771D03*
X119474229Y-57395771D03*
%TD*%
D45*
%TO.C,U3*%
X114946431Y-59678885D03*
X115299984Y-60032439D03*
X115653538Y-60385992D03*
X116007091Y-60739545D03*
X116360644Y-61093099D03*
X116714198Y-61446652D03*
X117067751Y-61800206D03*
X117421305Y-62153759D03*
X117774858Y-62507312D03*
X118128411Y-62860866D03*
X118481965Y-63214419D03*
D46*
X118481965Y-64398823D03*
X118128411Y-64752376D03*
X117774858Y-65105930D03*
X117421305Y-65459483D03*
X117067751Y-65813036D03*
X116714198Y-66166590D03*
X116360644Y-66520143D03*
X116007091Y-66873697D03*
X115653538Y-67227250D03*
X115299984Y-67580803D03*
X114946431Y-67934357D03*
D45*
X113762027Y-67934357D03*
X113408474Y-67580803D03*
X113054920Y-67227250D03*
X112701367Y-66873697D03*
X112347814Y-66520143D03*
X111994260Y-66166590D03*
X111640707Y-65813036D03*
X111287153Y-65459483D03*
X110933600Y-65105930D03*
X110580047Y-64752376D03*
X110226493Y-64398823D03*
D46*
X110226493Y-63214419D03*
X110580047Y-62860866D03*
X110933600Y-62507312D03*
X111287153Y-62153759D03*
X111640707Y-61800206D03*
X111994260Y-61446652D03*
X112347814Y-61093099D03*
X112701367Y-60739545D03*
X113054920Y-60385992D03*
X113408474Y-60032439D03*
X113762027Y-59678885D03*
D47*
X114354229Y-63806621D03*
%TD*%
D48*
%TO.C,Y1*%
X121293087Y-68828994D03*
X119737452Y-70384629D03*
X118535371Y-69182548D03*
X120091006Y-67626913D03*
%TD*%
D49*
%TO.C,C2*%
X126844229Y-45560771D03*
X126844229Y-44010771D03*
%TD*%
D33*
%TO.C,C14*%
X77774229Y-88670771D03*
X77774229Y-90220771D03*
%TD*%
D42*
%TO.C,R1*%
X122299229Y-41715771D03*
X122299229Y-43365771D03*
%TD*%
D50*
%TO.C,SW1*%
X117174229Y-89020771D03*
X110874229Y-89020771D03*
X110874229Y-92820771D03*
X117174229Y-92820771D03*
%TD*%
D33*
%TO.C,C4*%
X126844229Y-47000771D03*
X126844229Y-48550771D03*
%TD*%
M02*
