%TF.GenerationSoftware,KiCad,Pcbnew,6.0.0-rc1-unknown-caf406943e~144~ubuntu21.04.1*%
%TF.CreationDate,2021-12-15T23:35:00+01:00*%
%TF.ProjectId,1337-v4.0,31333337-2d76-4342-9e30-2e6b69636164,4.0*%
%TF.SameCoordinates,Original*%
%TF.FileFunction,Legend,Top*%
%TF.FilePolarity,Positive*%
%FSLAX46Y46*%
G04 Gerber Fmt 4.6, Leading zero omitted, Abs format (unit mm)*
G04 Created by KiCad (PCBNEW 6.0.0-rc1-unknown-caf406943e~144~ubuntu21.04.1) date 2021-12-15 23:35:00*
%MOMM*%
%LPD*%
G01*
G04 APERTURE LIST*
%ADD10C,0.120000*%
%ADD11C,0.010000*%
%ADD12C,0.100000*%
%ADD13C,3.850000*%
%ADD14C,1.750000*%
%ADD15C,4.000000*%
%ADD16C,2.500000*%
%ADD17R,1.600000X2.000000*%
%ADD18O,1.600000X2.000000*%
%ADD19R,2.000000X2.000000*%
%ADD20C,2.000000*%
%ADD21R,3.200000X2.000000*%
%ADD22O,1.000000X1.800000*%
%ADD23O,1.000000X2.200000*%
%ADD24C,1.700000*%
G04 APERTURE END LIST*
D10*
X117063809Y-87856190D02*
X117063809Y-87522857D01*
X117063809Y-87618095D02*
X117087619Y-87570476D01*
X117111428Y-87546666D01*
X117159047Y-87522857D01*
X117206666Y-87522857D01*
X117563809Y-87832380D02*
X117516190Y-87856190D01*
X117420952Y-87856190D01*
X117373333Y-87832380D01*
X117349523Y-87784761D01*
X117349523Y-87594285D01*
X117373333Y-87546666D01*
X117420952Y-87522857D01*
X117516190Y-87522857D01*
X117563809Y-87546666D01*
X117587619Y-87594285D01*
X117587619Y-87641904D01*
X117349523Y-87689523D01*
X117754285Y-87522857D02*
X117873333Y-87856190D01*
X117992380Y-87522857D01*
X118778095Y-87522857D02*
X118778095Y-87856190D01*
X118659047Y-87332380D02*
X118540000Y-87689523D01*
X118849523Y-87689523D01*
X119040000Y-87808571D02*
X119063809Y-87832380D01*
X119040000Y-87856190D01*
X119016190Y-87832380D01*
X119040000Y-87808571D01*
X119040000Y-87856190D01*
X119373333Y-87356190D02*
X119420952Y-87356190D01*
X119468571Y-87380000D01*
X119492380Y-87403809D01*
X119516190Y-87451428D01*
X119540000Y-87546666D01*
X119540000Y-87665714D01*
X119516190Y-87760952D01*
X119492380Y-87808571D01*
X119468571Y-87832380D01*
X119420952Y-87856190D01*
X119373333Y-87856190D01*
X119325714Y-87832380D01*
X119301904Y-87808571D01*
X119278095Y-87760952D01*
X119254285Y-87665714D01*
X119254285Y-87546666D01*
X119278095Y-87451428D01*
X119301904Y-87403809D01*
X119325714Y-87380000D01*
X119373333Y-87356190D01*
D11*
%TO.C,REF\u002A\u002A*%
X94014876Y-87226335D02*
X94056667Y-87245344D01*
X94056667Y-87245344D02*
X94089469Y-87268378D01*
X94089469Y-87268378D02*
X94113503Y-87294133D01*
X94113503Y-87294133D02*
X94130097Y-87327358D01*
X94130097Y-87327358D02*
X94140577Y-87372800D01*
X94140577Y-87372800D02*
X94146271Y-87435207D01*
X94146271Y-87435207D02*
X94148507Y-87519327D01*
X94148507Y-87519327D02*
X94148743Y-87574721D01*
X94148743Y-87574721D02*
X94148743Y-87790826D01*
X94148743Y-87790826D02*
X94111774Y-87807670D01*
X94111774Y-87807670D02*
X94082656Y-87819981D01*
X94082656Y-87819981D02*
X94068231Y-87824514D01*
X94068231Y-87824514D02*
X94065472Y-87811025D01*
X94065472Y-87811025D02*
X94063282Y-87774653D01*
X94063282Y-87774653D02*
X94061942Y-87721542D01*
X94061942Y-87721542D02*
X94061657Y-87679372D01*
X94061657Y-87679372D02*
X94060434Y-87618447D01*
X94060434Y-87618447D02*
X94057136Y-87570115D01*
X94057136Y-87570115D02*
X94052321Y-87540518D01*
X94052321Y-87540518D02*
X94048496Y-87534229D01*
X94048496Y-87534229D02*
X94022783Y-87540652D01*
X94022783Y-87540652D02*
X93982418Y-87557125D01*
X93982418Y-87557125D02*
X93935679Y-87579458D01*
X93935679Y-87579458D02*
X93890845Y-87603457D01*
X93890845Y-87603457D02*
X93856193Y-87624930D01*
X93856193Y-87624930D02*
X93840002Y-87639685D01*
X93840002Y-87639685D02*
X93839938Y-87639845D01*
X93839938Y-87639845D02*
X93841330Y-87667152D01*
X93841330Y-87667152D02*
X93853818Y-87693219D01*
X93853818Y-87693219D02*
X93875743Y-87714392D01*
X93875743Y-87714392D02*
X93907743Y-87721474D01*
X93907743Y-87721474D02*
X93935092Y-87720649D01*
X93935092Y-87720649D02*
X93973826Y-87720042D01*
X93973826Y-87720042D02*
X93994158Y-87729116D01*
X93994158Y-87729116D02*
X94006369Y-87753092D01*
X94006369Y-87753092D02*
X94007909Y-87757613D01*
X94007909Y-87757613D02*
X94013203Y-87791806D01*
X94013203Y-87791806D02*
X93999047Y-87812568D01*
X93999047Y-87812568D02*
X93962148Y-87822462D01*
X93962148Y-87822462D02*
X93922289Y-87824292D01*
X93922289Y-87824292D02*
X93850562Y-87810727D01*
X93850562Y-87810727D02*
X93813432Y-87791355D01*
X93813432Y-87791355D02*
X93767576Y-87745845D01*
X93767576Y-87745845D02*
X93743256Y-87689983D01*
X93743256Y-87689983D02*
X93741073Y-87630957D01*
X93741073Y-87630957D02*
X93761629Y-87575953D01*
X93761629Y-87575953D02*
X93792549Y-87541486D01*
X93792549Y-87541486D02*
X93823420Y-87522189D01*
X93823420Y-87522189D02*
X93871942Y-87497759D01*
X93871942Y-87497759D02*
X93928485Y-87472985D01*
X93928485Y-87472985D02*
X93937910Y-87469199D01*
X93937910Y-87469199D02*
X94000019Y-87441791D01*
X94000019Y-87441791D02*
X94035822Y-87417634D01*
X94035822Y-87417634D02*
X94047337Y-87393619D01*
X94047337Y-87393619D02*
X94036580Y-87366635D01*
X94036580Y-87366635D02*
X94018114Y-87345543D01*
X94018114Y-87345543D02*
X93974469Y-87319572D01*
X93974469Y-87319572D02*
X93926446Y-87317624D01*
X93926446Y-87317624D02*
X93882406Y-87337637D01*
X93882406Y-87337637D02*
X93850709Y-87377551D01*
X93850709Y-87377551D02*
X93846549Y-87387848D01*
X93846549Y-87387848D02*
X93822327Y-87425724D01*
X93822327Y-87425724D02*
X93786965Y-87453842D01*
X93786965Y-87453842D02*
X93742343Y-87476917D01*
X93742343Y-87476917D02*
X93742343Y-87411485D01*
X93742343Y-87411485D02*
X93744969Y-87371506D01*
X93744969Y-87371506D02*
X93756230Y-87339997D01*
X93756230Y-87339997D02*
X93781199Y-87306378D01*
X93781199Y-87306378D02*
X93805169Y-87280484D01*
X93805169Y-87280484D02*
X93842441Y-87243817D01*
X93842441Y-87243817D02*
X93871401Y-87224121D01*
X93871401Y-87224121D02*
X93902505Y-87216220D01*
X93902505Y-87216220D02*
X93937713Y-87214914D01*
X93937713Y-87214914D02*
X94014876Y-87226335D01*
X94014876Y-87226335D02*
X94014876Y-87226335D01*
G36*
X94014876Y-87226335D02*
G01*
X94056667Y-87245344D01*
X94089469Y-87268378D01*
X94113503Y-87294133D01*
X94130097Y-87327358D01*
X94140577Y-87372800D01*
X94146271Y-87435207D01*
X94148507Y-87519327D01*
X94148743Y-87574721D01*
X94148743Y-87790826D01*
X94111774Y-87807670D01*
X94082656Y-87819981D01*
X94068231Y-87824514D01*
X94065472Y-87811025D01*
X94063282Y-87774653D01*
X94061942Y-87721542D01*
X94061657Y-87679372D01*
X94060434Y-87618447D01*
X94057136Y-87570115D01*
X94052321Y-87540518D01*
X94048496Y-87534229D01*
X94022783Y-87540652D01*
X93982418Y-87557125D01*
X93935679Y-87579458D01*
X93890845Y-87603457D01*
X93856193Y-87624930D01*
X93840002Y-87639685D01*
X93839938Y-87639845D01*
X93841330Y-87667152D01*
X93853818Y-87693219D01*
X93875743Y-87714392D01*
X93907743Y-87721474D01*
X93935092Y-87720649D01*
X93973826Y-87720042D01*
X93994158Y-87729116D01*
X94006369Y-87753092D01*
X94007909Y-87757613D01*
X94013203Y-87791806D01*
X93999047Y-87812568D01*
X93962148Y-87822462D01*
X93922289Y-87824292D01*
X93850562Y-87810727D01*
X93813432Y-87791355D01*
X93767576Y-87745845D01*
X93743256Y-87689983D01*
X93741073Y-87630957D01*
X93761629Y-87575953D01*
X93792549Y-87541486D01*
X93823420Y-87522189D01*
X93871942Y-87497759D01*
X93928485Y-87472985D01*
X93937910Y-87469199D01*
X94000019Y-87441791D01*
X94035822Y-87417634D01*
X94047337Y-87393619D01*
X94036580Y-87366635D01*
X94018114Y-87345543D01*
X93974469Y-87319572D01*
X93926446Y-87317624D01*
X93882406Y-87337637D01*
X93850709Y-87377551D01*
X93846549Y-87387848D01*
X93822327Y-87425724D01*
X93786965Y-87453842D01*
X93742343Y-87476917D01*
X93742343Y-87411485D01*
X93744969Y-87371506D01*
X93756230Y-87339997D01*
X93781199Y-87306378D01*
X93805169Y-87280484D01*
X93842441Y-87243817D01*
X93871401Y-87224121D01*
X93902505Y-87216220D01*
X93937713Y-87214914D01*
X94014876Y-87226335D01*
G37*
X94014876Y-87226335D02*
X94056667Y-87245344D01*
X94089469Y-87268378D01*
X94113503Y-87294133D01*
X94130097Y-87327358D01*
X94140577Y-87372800D01*
X94146271Y-87435207D01*
X94148507Y-87519327D01*
X94148743Y-87574721D01*
X94148743Y-87790826D01*
X94111774Y-87807670D01*
X94082656Y-87819981D01*
X94068231Y-87824514D01*
X94065472Y-87811025D01*
X94063282Y-87774653D01*
X94061942Y-87721542D01*
X94061657Y-87679372D01*
X94060434Y-87618447D01*
X94057136Y-87570115D01*
X94052321Y-87540518D01*
X94048496Y-87534229D01*
X94022783Y-87540652D01*
X93982418Y-87557125D01*
X93935679Y-87579458D01*
X93890845Y-87603457D01*
X93856193Y-87624930D01*
X93840002Y-87639685D01*
X93839938Y-87639845D01*
X93841330Y-87667152D01*
X93853818Y-87693219D01*
X93875743Y-87714392D01*
X93907743Y-87721474D01*
X93935092Y-87720649D01*
X93973826Y-87720042D01*
X93994158Y-87729116D01*
X94006369Y-87753092D01*
X94007909Y-87757613D01*
X94013203Y-87791806D01*
X93999047Y-87812568D01*
X93962148Y-87822462D01*
X93922289Y-87824292D01*
X93850562Y-87810727D01*
X93813432Y-87791355D01*
X93767576Y-87745845D01*
X93743256Y-87689983D01*
X93741073Y-87630957D01*
X93761629Y-87575953D01*
X93792549Y-87541486D01*
X93823420Y-87522189D01*
X93871942Y-87497759D01*
X93928485Y-87472985D01*
X93937910Y-87469199D01*
X94000019Y-87441791D01*
X94035822Y-87417634D01*
X94047337Y-87393619D01*
X94036580Y-87366635D01*
X94018114Y-87345543D01*
X93974469Y-87319572D01*
X93926446Y-87317624D01*
X93882406Y-87337637D01*
X93850709Y-87377551D01*
X93846549Y-87387848D01*
X93822327Y-87425724D01*
X93786965Y-87453842D01*
X93742343Y-87476917D01*
X93742343Y-87411485D01*
X93744969Y-87371506D01*
X93756230Y-87339997D01*
X93781199Y-87306378D01*
X93805169Y-87280484D01*
X93842441Y-87243817D01*
X93871401Y-87224121D01*
X93902505Y-87216220D01*
X93937713Y-87214914D01*
X94014876Y-87226335D01*
X93649833Y-87228663D02*
X93652048Y-87266850D01*
X93652048Y-87266850D02*
X93653784Y-87324886D01*
X93653784Y-87324886D02*
X93654899Y-87398180D01*
X93654899Y-87398180D02*
X93655257Y-87475055D01*
X93655257Y-87475055D02*
X93655257Y-87735196D01*
X93655257Y-87735196D02*
X93609326Y-87781127D01*
X93609326Y-87781127D02*
X93577675Y-87809429D01*
X93577675Y-87809429D02*
X93549890Y-87820893D01*
X93549890Y-87820893D02*
X93511915Y-87820168D01*
X93511915Y-87820168D02*
X93496840Y-87818321D01*
X93496840Y-87818321D02*
X93449726Y-87812948D01*
X93449726Y-87812948D02*
X93410756Y-87809869D01*
X93410756Y-87809869D02*
X93401257Y-87809585D01*
X93401257Y-87809585D02*
X93369233Y-87811445D01*
X93369233Y-87811445D02*
X93323432Y-87816114D01*
X93323432Y-87816114D02*
X93305674Y-87818321D01*
X93305674Y-87818321D02*
X93262057Y-87821735D01*
X93262057Y-87821735D02*
X93232745Y-87814320D01*
X93232745Y-87814320D02*
X93203680Y-87791427D01*
X93203680Y-87791427D02*
X93193188Y-87781127D01*
X93193188Y-87781127D02*
X93147257Y-87735196D01*
X93147257Y-87735196D02*
X93147257Y-87248602D01*
X93147257Y-87248602D02*
X93184226Y-87231758D01*
X93184226Y-87231758D02*
X93216059Y-87219282D01*
X93216059Y-87219282D02*
X93234683Y-87214914D01*
X93234683Y-87214914D02*
X93239458Y-87228718D01*
X93239458Y-87228718D02*
X93243921Y-87267286D01*
X93243921Y-87267286D02*
X93247775Y-87326356D01*
X93247775Y-87326356D02*
X93250722Y-87401663D01*
X93250722Y-87401663D02*
X93252143Y-87465286D01*
X93252143Y-87465286D02*
X93256114Y-87715657D01*
X93256114Y-87715657D02*
X93290759Y-87720556D01*
X93290759Y-87720556D02*
X93322268Y-87717131D01*
X93322268Y-87717131D02*
X93337708Y-87706041D01*
X93337708Y-87706041D02*
X93342023Y-87685308D01*
X93342023Y-87685308D02*
X93345708Y-87641145D01*
X93345708Y-87641145D02*
X93348469Y-87579146D01*
X93348469Y-87579146D02*
X93350012Y-87504909D01*
X93350012Y-87504909D02*
X93350235Y-87466706D01*
X93350235Y-87466706D02*
X93350457Y-87246783D01*
X93350457Y-87246783D02*
X93396166Y-87230849D01*
X93396166Y-87230849D02*
X93428518Y-87220015D01*
X93428518Y-87220015D02*
X93446115Y-87214962D01*
X93446115Y-87214962D02*
X93446623Y-87214914D01*
X93446623Y-87214914D02*
X93448388Y-87228648D01*
X93448388Y-87228648D02*
X93450329Y-87266730D01*
X93450329Y-87266730D02*
X93452282Y-87324482D01*
X93452282Y-87324482D02*
X93454084Y-87397227D01*
X93454084Y-87397227D02*
X93455343Y-87465286D01*
X93455343Y-87465286D02*
X93459314Y-87715657D01*
X93459314Y-87715657D02*
X93546400Y-87715657D01*
X93546400Y-87715657D02*
X93550396Y-87487240D01*
X93550396Y-87487240D02*
X93554392Y-87258822D01*
X93554392Y-87258822D02*
X93596847Y-87236868D01*
X93596847Y-87236868D02*
X93628192Y-87221793D01*
X93628192Y-87221793D02*
X93646744Y-87214951D01*
X93646744Y-87214951D02*
X93647279Y-87214914D01*
X93647279Y-87214914D02*
X93649833Y-87228663D01*
X93649833Y-87228663D02*
X93649833Y-87228663D01*
G36*
X93649833Y-87228663D02*
G01*
X93652048Y-87266850D01*
X93653784Y-87324886D01*
X93654899Y-87398180D01*
X93655257Y-87475055D01*
X93655257Y-87735196D01*
X93609326Y-87781127D01*
X93577675Y-87809429D01*
X93549890Y-87820893D01*
X93511915Y-87820168D01*
X93496840Y-87818321D01*
X93449726Y-87812948D01*
X93410756Y-87809869D01*
X93401257Y-87809585D01*
X93369233Y-87811445D01*
X93323432Y-87816114D01*
X93305674Y-87818321D01*
X93262057Y-87821735D01*
X93232745Y-87814320D01*
X93203680Y-87791427D01*
X93193188Y-87781127D01*
X93147257Y-87735196D01*
X93147257Y-87248602D01*
X93184226Y-87231758D01*
X93216059Y-87219282D01*
X93234683Y-87214914D01*
X93239458Y-87228718D01*
X93243921Y-87267286D01*
X93247775Y-87326356D01*
X93250722Y-87401663D01*
X93252143Y-87465286D01*
X93256114Y-87715657D01*
X93290759Y-87720556D01*
X93322268Y-87717131D01*
X93337708Y-87706041D01*
X93342023Y-87685308D01*
X93345708Y-87641145D01*
X93348469Y-87579146D01*
X93350012Y-87504909D01*
X93350235Y-87466706D01*
X93350457Y-87246783D01*
X93396166Y-87230849D01*
X93428518Y-87220015D01*
X93446115Y-87214962D01*
X93446623Y-87214914D01*
X93448388Y-87228648D01*
X93450329Y-87266730D01*
X93452282Y-87324482D01*
X93454084Y-87397227D01*
X93455343Y-87465286D01*
X93459314Y-87715657D01*
X93546400Y-87715657D01*
X93550396Y-87487240D01*
X93554392Y-87258822D01*
X93596847Y-87236868D01*
X93628192Y-87221793D01*
X93646744Y-87214951D01*
X93647279Y-87214914D01*
X93649833Y-87228663D01*
G37*
X93649833Y-87228663D02*
X93652048Y-87266850D01*
X93653784Y-87324886D01*
X93654899Y-87398180D01*
X93655257Y-87475055D01*
X93655257Y-87735196D01*
X93609326Y-87781127D01*
X93577675Y-87809429D01*
X93549890Y-87820893D01*
X93511915Y-87820168D01*
X93496840Y-87818321D01*
X93449726Y-87812948D01*
X93410756Y-87809869D01*
X93401257Y-87809585D01*
X93369233Y-87811445D01*
X93323432Y-87816114D01*
X93305674Y-87818321D01*
X93262057Y-87821735D01*
X93232745Y-87814320D01*
X93203680Y-87791427D01*
X93193188Y-87781127D01*
X93147257Y-87735196D01*
X93147257Y-87248602D01*
X93184226Y-87231758D01*
X93216059Y-87219282D01*
X93234683Y-87214914D01*
X93239458Y-87228718D01*
X93243921Y-87267286D01*
X93247775Y-87326356D01*
X93250722Y-87401663D01*
X93252143Y-87465286D01*
X93256114Y-87715657D01*
X93290759Y-87720556D01*
X93322268Y-87717131D01*
X93337708Y-87706041D01*
X93342023Y-87685308D01*
X93345708Y-87641145D01*
X93348469Y-87579146D01*
X93350012Y-87504909D01*
X93350235Y-87466706D01*
X93350457Y-87246783D01*
X93396166Y-87230849D01*
X93428518Y-87220015D01*
X93446115Y-87214962D01*
X93446623Y-87214914D01*
X93448388Y-87228648D01*
X93450329Y-87266730D01*
X93452282Y-87324482D01*
X93454084Y-87397227D01*
X93455343Y-87465286D01*
X93459314Y-87715657D01*
X93546400Y-87715657D01*
X93550396Y-87487240D01*
X93554392Y-87258822D01*
X93596847Y-87236868D01*
X93628192Y-87221793D01*
X93646744Y-87214951D01*
X93647279Y-87214914D01*
X93649833Y-87228663D01*
X91973910Y-82512348D02*
X92052454Y-82512778D01*
X92052454Y-82512778D02*
X92109298Y-82513942D01*
X92109298Y-82513942D02*
X92148105Y-82516207D01*
X92148105Y-82516207D02*
X92172538Y-82519940D01*
X92172538Y-82519940D02*
X92186262Y-82525506D01*
X92186262Y-82525506D02*
X92192940Y-82533273D01*
X92192940Y-82533273D02*
X92196236Y-82543605D01*
X92196236Y-82543605D02*
X92196556Y-82544943D01*
X92196556Y-82544943D02*
X92201562Y-82569079D01*
X92201562Y-82569079D02*
X92210829Y-82616701D01*
X92210829Y-82616701D02*
X92223392Y-82682741D01*
X92223392Y-82682741D02*
X92238287Y-82762128D01*
X92238287Y-82762128D02*
X92254551Y-82849796D01*
X92254551Y-82849796D02*
X92255119Y-82852875D01*
X92255119Y-82852875D02*
X92271410Y-82938789D01*
X92271410Y-82938789D02*
X92286652Y-83014696D01*
X92286652Y-83014696D02*
X92299861Y-83076045D01*
X92299861Y-83076045D02*
X92310054Y-83118282D01*
X92310054Y-83118282D02*
X92316248Y-83136855D01*
X92316248Y-83136855D02*
X92316543Y-83137184D01*
X92316543Y-83137184D02*
X92334788Y-83146253D01*
X92334788Y-83146253D02*
X92372405Y-83161367D01*
X92372405Y-83161367D02*
X92421271Y-83179262D01*
X92421271Y-83179262D02*
X92421543Y-83179358D01*
X92421543Y-83179358D02*
X92483093Y-83202493D01*
X92483093Y-83202493D02*
X92555657Y-83231965D01*
X92555657Y-83231965D02*
X92624057Y-83261597D01*
X92624057Y-83261597D02*
X92627294Y-83263062D01*
X92627294Y-83263062D02*
X92738702Y-83313626D01*
X92738702Y-83313626D02*
X92985399Y-83145160D01*
X92985399Y-83145160D02*
X93061077Y-83093803D01*
X93061077Y-83093803D02*
X93129631Y-83047889D01*
X93129631Y-83047889D02*
X93187088Y-83010030D01*
X93187088Y-83010030D02*
X93229476Y-82982837D01*
X93229476Y-82982837D02*
X93252825Y-82968921D01*
X93252825Y-82968921D02*
X93255042Y-82967889D01*
X93255042Y-82967889D02*
X93272010Y-82972484D01*
X93272010Y-82972484D02*
X93303701Y-82994655D01*
X93303701Y-82994655D02*
X93351352Y-83035447D01*
X93351352Y-83035447D02*
X93416198Y-83095905D01*
X93416198Y-83095905D02*
X93482397Y-83160227D01*
X93482397Y-83160227D02*
X93546214Y-83223612D01*
X93546214Y-83223612D02*
X93603329Y-83281451D01*
X93603329Y-83281451D02*
X93650305Y-83330175D01*
X93650305Y-83330175D02*
X93683703Y-83366210D01*
X93683703Y-83366210D02*
X93700085Y-83385984D01*
X93700085Y-83385984D02*
X93700694Y-83387002D01*
X93700694Y-83387002D02*
X93702505Y-83400572D01*
X93702505Y-83400572D02*
X93695683Y-83422733D01*
X93695683Y-83422733D02*
X93678540Y-83456478D01*
X93678540Y-83456478D02*
X93649393Y-83504800D01*
X93649393Y-83504800D02*
X93606555Y-83570692D01*
X93606555Y-83570692D02*
X93549448Y-83655517D01*
X93549448Y-83655517D02*
X93498766Y-83730177D01*
X93498766Y-83730177D02*
X93453461Y-83797140D01*
X93453461Y-83797140D02*
X93416150Y-83852516D01*
X93416150Y-83852516D02*
X93389452Y-83892420D01*
X93389452Y-83892420D02*
X93375985Y-83912962D01*
X93375985Y-83912962D02*
X93375137Y-83914356D01*
X93375137Y-83914356D02*
X93376781Y-83934038D01*
X93376781Y-83934038D02*
X93389245Y-83972293D01*
X93389245Y-83972293D02*
X93410048Y-84021889D01*
X93410048Y-84021889D02*
X93417462Y-84037728D01*
X93417462Y-84037728D02*
X93449814Y-84108290D01*
X93449814Y-84108290D02*
X93484328Y-84188353D01*
X93484328Y-84188353D02*
X93512365Y-84257629D01*
X93512365Y-84257629D02*
X93532568Y-84309045D01*
X93532568Y-84309045D02*
X93548615Y-84348119D01*
X93548615Y-84348119D02*
X93557888Y-84368541D01*
X93557888Y-84368541D02*
X93559041Y-84370114D01*
X93559041Y-84370114D02*
X93576096Y-84372721D01*
X93576096Y-84372721D02*
X93616298Y-84379863D01*
X93616298Y-84379863D02*
X93674302Y-84390523D01*
X93674302Y-84390523D02*
X93744763Y-84403685D01*
X93744763Y-84403685D02*
X93822335Y-84418333D01*
X93822335Y-84418333D02*
X93901672Y-84433449D01*
X93901672Y-84433449D02*
X93977431Y-84448018D01*
X93977431Y-84448018D02*
X94044264Y-84461022D01*
X94044264Y-84461022D02*
X94096828Y-84471445D01*
X94096828Y-84471445D02*
X94129776Y-84478270D01*
X94129776Y-84478270D02*
X94137857Y-84480199D01*
X94137857Y-84480199D02*
X94146205Y-84484962D01*
X94146205Y-84484962D02*
X94152506Y-84495718D01*
X94152506Y-84495718D02*
X94157045Y-84516098D01*
X94157045Y-84516098D02*
X94160104Y-84549734D01*
X94160104Y-84549734D02*
X94161967Y-84600255D01*
X94161967Y-84600255D02*
X94162918Y-84671292D01*
X94162918Y-84671292D02*
X94163240Y-84766476D01*
X94163240Y-84766476D02*
X94163257Y-84805492D01*
X94163257Y-84805492D02*
X94163257Y-85122799D01*
X94163257Y-85122799D02*
X94087057Y-85137839D01*
X94087057Y-85137839D02*
X94044663Y-85145995D01*
X94044663Y-85145995D02*
X93981400Y-85157899D01*
X93981400Y-85157899D02*
X93904962Y-85172116D01*
X93904962Y-85172116D02*
X93823043Y-85187210D01*
X93823043Y-85187210D02*
X93800400Y-85191355D01*
X93800400Y-85191355D02*
X93724806Y-85206053D01*
X93724806Y-85206053D02*
X93658953Y-85220505D01*
X93658953Y-85220505D02*
X93608366Y-85233375D01*
X93608366Y-85233375D02*
X93578574Y-85243322D01*
X93578574Y-85243322D02*
X93573612Y-85246287D01*
X93573612Y-85246287D02*
X93561426Y-85267283D01*
X93561426Y-85267283D02*
X93543953Y-85307967D01*
X93543953Y-85307967D02*
X93524577Y-85360322D01*
X93524577Y-85360322D02*
X93520734Y-85371600D01*
X93520734Y-85371600D02*
X93495339Y-85441523D01*
X93495339Y-85441523D02*
X93463817Y-85520418D01*
X93463817Y-85520418D02*
X93432969Y-85591266D01*
X93432969Y-85591266D02*
X93432817Y-85591595D01*
X93432817Y-85591595D02*
X93381447Y-85702733D01*
X93381447Y-85702733D02*
X93550399Y-85951253D01*
X93550399Y-85951253D02*
X93719352Y-86199772D01*
X93719352Y-86199772D02*
X93502429Y-86417058D01*
X93502429Y-86417058D02*
X93436819Y-86481726D01*
X93436819Y-86481726D02*
X93376979Y-86538733D01*
X93376979Y-86538733D02*
X93326267Y-86585033D01*
X93326267Y-86585033D02*
X93288046Y-86617584D01*
X93288046Y-86617584D02*
X93265675Y-86633343D01*
X93265675Y-86633343D02*
X93262466Y-86634343D01*
X93262466Y-86634343D02*
X93243626Y-86626469D01*
X93243626Y-86626469D02*
X93205180Y-86604578D01*
X93205180Y-86604578D02*
X93151330Y-86571267D01*
X93151330Y-86571267D02*
X93086276Y-86529131D01*
X93086276Y-86529131D02*
X93015940Y-86481943D01*
X93015940Y-86481943D02*
X92944555Y-86433810D01*
X92944555Y-86433810D02*
X92880908Y-86391928D01*
X92880908Y-86391928D02*
X92829041Y-86358871D01*
X92829041Y-86358871D02*
X92792995Y-86337218D01*
X92792995Y-86337218D02*
X92776867Y-86329543D01*
X92776867Y-86329543D02*
X92757189Y-86336037D01*
X92757189Y-86336037D02*
X92719875Y-86353150D01*
X92719875Y-86353150D02*
X92672621Y-86377326D01*
X92672621Y-86377326D02*
X92667612Y-86380013D01*
X92667612Y-86380013D02*
X92603977Y-86411927D01*
X92603977Y-86411927D02*
X92560341Y-86427579D01*
X92560341Y-86427579D02*
X92533202Y-86427745D01*
X92533202Y-86427745D02*
X92519057Y-86413204D01*
X92519057Y-86413204D02*
X92518975Y-86413000D01*
X92518975Y-86413000D02*
X92511905Y-86395779D01*
X92511905Y-86395779D02*
X92495042Y-86354899D01*
X92495042Y-86354899D02*
X92469695Y-86293525D01*
X92469695Y-86293525D02*
X92437171Y-86214819D01*
X92437171Y-86214819D02*
X92398778Y-86121947D01*
X92398778Y-86121947D02*
X92355822Y-86018072D01*
X92355822Y-86018072D02*
X92314222Y-85917502D01*
X92314222Y-85917502D02*
X92268504Y-85806516D01*
X92268504Y-85806516D02*
X92226526Y-85703703D01*
X92226526Y-85703703D02*
X92189548Y-85612215D01*
X92189548Y-85612215D02*
X92158827Y-85535201D01*
X92158827Y-85535201D02*
X92135622Y-85475815D01*
X92135622Y-85475815D02*
X92121190Y-85437209D01*
X92121190Y-85437209D02*
X92116743Y-85422800D01*
X92116743Y-85422800D02*
X92127896Y-85406272D01*
X92127896Y-85406272D02*
X92157069Y-85379930D01*
X92157069Y-85379930D02*
X92195971Y-85350887D01*
X92195971Y-85350887D02*
X92306757Y-85259039D01*
X92306757Y-85259039D02*
X92393351Y-85153759D01*
X92393351Y-85153759D02*
X92454716Y-85037266D01*
X92454716Y-85037266D02*
X92489815Y-84911776D01*
X92489815Y-84911776D02*
X92497608Y-84779507D01*
X92497608Y-84779507D02*
X92491943Y-84718457D01*
X92491943Y-84718457D02*
X92461078Y-84591795D01*
X92461078Y-84591795D02*
X92407920Y-84479941D01*
X92407920Y-84479941D02*
X92335767Y-84384001D01*
X92335767Y-84384001D02*
X92247917Y-84305076D01*
X92247917Y-84305076D02*
X92147665Y-84244270D01*
X92147665Y-84244270D02*
X92038310Y-84202687D01*
X92038310Y-84202687D02*
X91923147Y-84181428D01*
X91923147Y-84181428D02*
X91805475Y-84181599D01*
X91805475Y-84181599D02*
X91688590Y-84204301D01*
X91688590Y-84204301D02*
X91575789Y-84250638D01*
X91575789Y-84250638D02*
X91470369Y-84321713D01*
X91470369Y-84321713D02*
X91426368Y-84361911D01*
X91426368Y-84361911D02*
X91341979Y-84465129D01*
X91341979Y-84465129D02*
X91283222Y-84577925D01*
X91283222Y-84577925D02*
X91249704Y-84697010D01*
X91249704Y-84697010D02*
X91241035Y-84819095D01*
X91241035Y-84819095D02*
X91256823Y-84940893D01*
X91256823Y-84940893D02*
X91296678Y-85059116D01*
X91296678Y-85059116D02*
X91360207Y-85170475D01*
X91360207Y-85170475D02*
X91447021Y-85271684D01*
X91447021Y-85271684D02*
X91544029Y-85350887D01*
X91544029Y-85350887D02*
X91584437Y-85381162D01*
X91584437Y-85381162D02*
X91612982Y-85407219D01*
X91612982Y-85407219D02*
X91623257Y-85422825D01*
X91623257Y-85422825D02*
X91617877Y-85439843D01*
X91617877Y-85439843D02*
X91602575Y-85480500D01*
X91602575Y-85480500D02*
X91578612Y-85541642D01*
X91578612Y-85541642D02*
X91547244Y-85620119D01*
X91547244Y-85620119D02*
X91509732Y-85712780D01*
X91509732Y-85712780D02*
X91467333Y-85816472D01*
X91467333Y-85816472D02*
X91425663Y-85917526D01*
X91425663Y-85917526D02*
X91379690Y-86028607D01*
X91379690Y-86028607D02*
X91337107Y-86131541D01*
X91337107Y-86131541D02*
X91299221Y-86223165D01*
X91299221Y-86223165D02*
X91267340Y-86300316D01*
X91267340Y-86300316D02*
X91242771Y-86359831D01*
X91242771Y-86359831D02*
X91226820Y-86398544D01*
X91226820Y-86398544D02*
X91220910Y-86413000D01*
X91220910Y-86413000D02*
X91206948Y-86427685D01*
X91206948Y-86427685D02*
X91179940Y-86427642D01*
X91179940Y-86427642D02*
X91136413Y-86412099D01*
X91136413Y-86412099D02*
X91072890Y-86380284D01*
X91072890Y-86380284D02*
X91072388Y-86380013D01*
X91072388Y-86380013D02*
X91024560Y-86355323D01*
X91024560Y-86355323D02*
X90985897Y-86337338D01*
X90985897Y-86337338D02*
X90964095Y-86329614D01*
X90964095Y-86329614D02*
X90963133Y-86329543D01*
X90963133Y-86329543D02*
X90946721Y-86337378D01*
X90946721Y-86337378D02*
X90910487Y-86359165D01*
X90910487Y-86359165D02*
X90858474Y-86392328D01*
X90858474Y-86392328D02*
X90794725Y-86434291D01*
X90794725Y-86434291D02*
X90724060Y-86481943D01*
X90724060Y-86481943D02*
X90652116Y-86530191D01*
X90652116Y-86530191D02*
X90587274Y-86572151D01*
X90587274Y-86572151D02*
X90533735Y-86605227D01*
X90533735Y-86605227D02*
X90495697Y-86626821D01*
X90495697Y-86626821D02*
X90477533Y-86634343D01*
X90477533Y-86634343D02*
X90460808Y-86624457D01*
X90460808Y-86624457D02*
X90427180Y-86596826D01*
X90427180Y-86596826D02*
X90380010Y-86554495D01*
X90380010Y-86554495D02*
X90322658Y-86500505D01*
X90322658Y-86500505D02*
X90258484Y-86437899D01*
X90258484Y-86437899D02*
X90237497Y-86416983D01*
X90237497Y-86416983D02*
X90020499Y-86199623D01*
X90020499Y-86199623D02*
X90185668Y-85957220D01*
X90185668Y-85957220D02*
X90235864Y-85882781D01*
X90235864Y-85882781D02*
X90279919Y-85815972D01*
X90279919Y-85815972D02*
X90315362Y-85760665D01*
X90315362Y-85760665D02*
X90339719Y-85720729D01*
X90339719Y-85720729D02*
X90350522Y-85700036D01*
X90350522Y-85700036D02*
X90350838Y-85698563D01*
X90350838Y-85698563D02*
X90345143Y-85679058D01*
X90345143Y-85679058D02*
X90329826Y-85639822D01*
X90329826Y-85639822D02*
X90307537Y-85587430D01*
X90307537Y-85587430D02*
X90291893Y-85552355D01*
X90291893Y-85552355D02*
X90262641Y-85485201D01*
X90262641Y-85485201D02*
X90235094Y-85417358D01*
X90235094Y-85417358D02*
X90213737Y-85360034D01*
X90213737Y-85360034D02*
X90207935Y-85342572D01*
X90207935Y-85342572D02*
X90191452Y-85295938D01*
X90191452Y-85295938D02*
X90175340Y-85259905D01*
X90175340Y-85259905D02*
X90166490Y-85246287D01*
X90166490Y-85246287D02*
X90146960Y-85237952D01*
X90146960Y-85237952D02*
X90104334Y-85226137D01*
X90104334Y-85226137D02*
X90044145Y-85212181D01*
X90044145Y-85212181D02*
X89971922Y-85197422D01*
X89971922Y-85197422D02*
X89939600Y-85191355D01*
X89939600Y-85191355D02*
X89857522Y-85176273D01*
X89857522Y-85176273D02*
X89778795Y-85161669D01*
X89778795Y-85161669D02*
X89711109Y-85148980D01*
X89711109Y-85148980D02*
X89662160Y-85139642D01*
X89662160Y-85139642D02*
X89652943Y-85137839D01*
X89652943Y-85137839D02*
X89576743Y-85122799D01*
X89576743Y-85122799D02*
X89576743Y-84805492D01*
X89576743Y-84805492D02*
X89576914Y-84701154D01*
X89576914Y-84701154D02*
X89577616Y-84622213D01*
X89577616Y-84622213D02*
X89579134Y-84565038D01*
X89579134Y-84565038D02*
X89581749Y-84525999D01*
X89581749Y-84525999D02*
X89585746Y-84501465D01*
X89585746Y-84501465D02*
X89591409Y-84487805D01*
X89591409Y-84487805D02*
X89599020Y-84481389D01*
X89599020Y-84481389D02*
X89602143Y-84480199D01*
X89602143Y-84480199D02*
X89620978Y-84475980D01*
X89620978Y-84475980D02*
X89662588Y-84467562D01*
X89662588Y-84467562D02*
X89721630Y-84455961D01*
X89721630Y-84455961D02*
X89792757Y-84442195D01*
X89792757Y-84442195D02*
X89870625Y-84427280D01*
X89870625Y-84427280D02*
X89949887Y-84412232D01*
X89949887Y-84412232D02*
X90025198Y-84398069D01*
X90025198Y-84398069D02*
X90091213Y-84385806D01*
X90091213Y-84385806D02*
X90142587Y-84376461D01*
X90142587Y-84376461D02*
X90173975Y-84371050D01*
X90173975Y-84371050D02*
X90180959Y-84370114D01*
X90180959Y-84370114D02*
X90187285Y-84357596D01*
X90187285Y-84357596D02*
X90201290Y-84324246D01*
X90201290Y-84324246D02*
X90220355Y-84276377D01*
X90220355Y-84276377D02*
X90227634Y-84257629D01*
X90227634Y-84257629D02*
X90256996Y-84185195D01*
X90256996Y-84185195D02*
X90291571Y-84105170D01*
X90291571Y-84105170D02*
X90322537Y-84037728D01*
X90322537Y-84037728D02*
X90345323Y-83986159D01*
X90345323Y-83986159D02*
X90360482Y-83943785D01*
X90360482Y-83943785D02*
X90365542Y-83917834D01*
X90365542Y-83917834D02*
X90364736Y-83914356D01*
X90364736Y-83914356D02*
X90354041Y-83897936D01*
X90354041Y-83897936D02*
X90329620Y-83861417D01*
X90329620Y-83861417D02*
X90294095Y-83808687D01*
X90294095Y-83808687D02*
X90250087Y-83743635D01*
X90250087Y-83743635D02*
X90200217Y-83670151D01*
X90200217Y-83670151D02*
X90190356Y-83655645D01*
X90190356Y-83655645D02*
X90132492Y-83569704D01*
X90132492Y-83569704D02*
X90089956Y-83504261D01*
X90089956Y-83504261D02*
X90061054Y-83456304D01*
X90061054Y-83456304D02*
X90044090Y-83422820D01*
X90044090Y-83422820D02*
X90037367Y-83400795D01*
X90037367Y-83400795D02*
X90039190Y-83387217D01*
X90039190Y-83387217D02*
X90039236Y-83387131D01*
X90039236Y-83387131D02*
X90053586Y-83369297D01*
X90053586Y-83369297D02*
X90085323Y-83334817D01*
X90085323Y-83334817D02*
X90131010Y-83287268D01*
X90131010Y-83287268D02*
X90187204Y-83230222D01*
X90187204Y-83230222D02*
X90250468Y-83167255D01*
X90250468Y-83167255D02*
X90257602Y-83160227D01*
X90257602Y-83160227D02*
X90337330Y-83083020D01*
X90337330Y-83083020D02*
X90398857Y-83026330D01*
X90398857Y-83026330D02*
X90443421Y-82989110D01*
X90443421Y-82989110D02*
X90472257Y-82970315D01*
X90472257Y-82970315D02*
X90484958Y-82967889D01*
X90484958Y-82967889D02*
X90503494Y-82978471D01*
X90503494Y-82978471D02*
X90541961Y-83002916D01*
X90541961Y-83002916D02*
X90596386Y-83038612D01*
X90596386Y-83038612D02*
X90662798Y-83082947D01*
X90662798Y-83082947D02*
X90737225Y-83133311D01*
X90737225Y-83133311D02*
X90754601Y-83145160D01*
X90754601Y-83145160D02*
X91001297Y-83313626D01*
X91001297Y-83313626D02*
X91112706Y-83263062D01*
X91112706Y-83263062D02*
X91180457Y-83233595D01*
X91180457Y-83233595D02*
X91253183Y-83203959D01*
X91253183Y-83203959D02*
X91315703Y-83180330D01*
X91315703Y-83180330D02*
X91318457Y-83179358D01*
X91318457Y-83179358D02*
X91367360Y-83161457D01*
X91367360Y-83161457D02*
X91405057Y-83146320D01*
X91405057Y-83146320D02*
X91423425Y-83137210D01*
X91423425Y-83137210D02*
X91423456Y-83137184D01*
X91423456Y-83137184D02*
X91429285Y-83120717D01*
X91429285Y-83120717D02*
X91439192Y-83080219D01*
X91439192Y-83080219D02*
X91452195Y-83020242D01*
X91452195Y-83020242D02*
X91467309Y-82945340D01*
X91467309Y-82945340D02*
X91483552Y-82860064D01*
X91483552Y-82860064D02*
X91484881Y-82852875D01*
X91484881Y-82852875D02*
X91501175Y-82765014D01*
X91501175Y-82765014D02*
X91516133Y-82685260D01*
X91516133Y-82685260D02*
X91528791Y-82618681D01*
X91528791Y-82618681D02*
X91538186Y-82570347D01*
X91538186Y-82570347D02*
X91543354Y-82545325D01*
X91543354Y-82545325D02*
X91543444Y-82544943D01*
X91543444Y-82544943D02*
X91546589Y-82534299D01*
X91546589Y-82534299D02*
X91552704Y-82526262D01*
X91552704Y-82526262D02*
X91565453Y-82520467D01*
X91565453Y-82520467D02*
X91588500Y-82516547D01*
X91588500Y-82516547D02*
X91625509Y-82514135D01*
X91625509Y-82514135D02*
X91680144Y-82512865D01*
X91680144Y-82512865D02*
X91756067Y-82512371D01*
X91756067Y-82512371D02*
X91856944Y-82512286D01*
X91856944Y-82512286D02*
X91870000Y-82512286D01*
X91870000Y-82512286D02*
X91973910Y-82512348D01*
X91973910Y-82512348D02*
X91973910Y-82512348D01*
G36*
X91973910Y-82512348D02*
G01*
X92052454Y-82512778D01*
X92109298Y-82513942D01*
X92148105Y-82516207D01*
X92172538Y-82519940D01*
X92186262Y-82525506D01*
X92192940Y-82533273D01*
X92196236Y-82543605D01*
X92196556Y-82544943D01*
X92201562Y-82569079D01*
X92210829Y-82616701D01*
X92223392Y-82682741D01*
X92238287Y-82762128D01*
X92254551Y-82849796D01*
X92255119Y-82852875D01*
X92271410Y-82938789D01*
X92286652Y-83014696D01*
X92299861Y-83076045D01*
X92310054Y-83118282D01*
X92316248Y-83136855D01*
X92316543Y-83137184D01*
X92334788Y-83146253D01*
X92372405Y-83161367D01*
X92421271Y-83179262D01*
X92421543Y-83179358D01*
X92483093Y-83202493D01*
X92555657Y-83231965D01*
X92624057Y-83261597D01*
X92627294Y-83263062D01*
X92738702Y-83313626D01*
X92985399Y-83145160D01*
X93061077Y-83093803D01*
X93129631Y-83047889D01*
X93187088Y-83010030D01*
X93229476Y-82982837D01*
X93252825Y-82968921D01*
X93255042Y-82967889D01*
X93272010Y-82972484D01*
X93303701Y-82994655D01*
X93351352Y-83035447D01*
X93416198Y-83095905D01*
X93482397Y-83160227D01*
X93546214Y-83223612D01*
X93603329Y-83281451D01*
X93650305Y-83330175D01*
X93683703Y-83366210D01*
X93700085Y-83385984D01*
X93700694Y-83387002D01*
X93702505Y-83400572D01*
X93695683Y-83422733D01*
X93678540Y-83456478D01*
X93649393Y-83504800D01*
X93606555Y-83570692D01*
X93549448Y-83655517D01*
X93498766Y-83730177D01*
X93453461Y-83797140D01*
X93416150Y-83852516D01*
X93389452Y-83892420D01*
X93375985Y-83912962D01*
X93375137Y-83914356D01*
X93376781Y-83934038D01*
X93389245Y-83972293D01*
X93410048Y-84021889D01*
X93417462Y-84037728D01*
X93449814Y-84108290D01*
X93484328Y-84188353D01*
X93512365Y-84257629D01*
X93532568Y-84309045D01*
X93548615Y-84348119D01*
X93557888Y-84368541D01*
X93559041Y-84370114D01*
X93576096Y-84372721D01*
X93616298Y-84379863D01*
X93674302Y-84390523D01*
X93744763Y-84403685D01*
X93822335Y-84418333D01*
X93901672Y-84433449D01*
X93977431Y-84448018D01*
X94044264Y-84461022D01*
X94096828Y-84471445D01*
X94129776Y-84478270D01*
X94137857Y-84480199D01*
X94146205Y-84484962D01*
X94152506Y-84495718D01*
X94157045Y-84516098D01*
X94160104Y-84549734D01*
X94161967Y-84600255D01*
X94162918Y-84671292D01*
X94163240Y-84766476D01*
X94163257Y-84805492D01*
X94163257Y-85122799D01*
X94087057Y-85137839D01*
X94044663Y-85145995D01*
X93981400Y-85157899D01*
X93904962Y-85172116D01*
X93823043Y-85187210D01*
X93800400Y-85191355D01*
X93724806Y-85206053D01*
X93658953Y-85220505D01*
X93608366Y-85233375D01*
X93578574Y-85243322D01*
X93573612Y-85246287D01*
X93561426Y-85267283D01*
X93543953Y-85307967D01*
X93524577Y-85360322D01*
X93520734Y-85371600D01*
X93495339Y-85441523D01*
X93463817Y-85520418D01*
X93432969Y-85591266D01*
X93432817Y-85591595D01*
X93381447Y-85702733D01*
X93550399Y-85951253D01*
X93719352Y-86199772D01*
X93502429Y-86417058D01*
X93436819Y-86481726D01*
X93376979Y-86538733D01*
X93326267Y-86585033D01*
X93288046Y-86617584D01*
X93265675Y-86633343D01*
X93262466Y-86634343D01*
X93243626Y-86626469D01*
X93205180Y-86604578D01*
X93151330Y-86571267D01*
X93086276Y-86529131D01*
X93015940Y-86481943D01*
X92944555Y-86433810D01*
X92880908Y-86391928D01*
X92829041Y-86358871D01*
X92792995Y-86337218D01*
X92776867Y-86329543D01*
X92757189Y-86336037D01*
X92719875Y-86353150D01*
X92672621Y-86377326D01*
X92667612Y-86380013D01*
X92603977Y-86411927D01*
X92560341Y-86427579D01*
X92533202Y-86427745D01*
X92519057Y-86413204D01*
X92518975Y-86413000D01*
X92511905Y-86395779D01*
X92495042Y-86354899D01*
X92469695Y-86293525D01*
X92437171Y-86214819D01*
X92398778Y-86121947D01*
X92355822Y-86018072D01*
X92314222Y-85917502D01*
X92268504Y-85806516D01*
X92226526Y-85703703D01*
X92189548Y-85612215D01*
X92158827Y-85535201D01*
X92135622Y-85475815D01*
X92121190Y-85437209D01*
X92116743Y-85422800D01*
X92127896Y-85406272D01*
X92157069Y-85379930D01*
X92195971Y-85350887D01*
X92306757Y-85259039D01*
X92393351Y-85153759D01*
X92454716Y-85037266D01*
X92489815Y-84911776D01*
X92497608Y-84779507D01*
X92491943Y-84718457D01*
X92461078Y-84591795D01*
X92407920Y-84479941D01*
X92335767Y-84384001D01*
X92247917Y-84305076D01*
X92147665Y-84244270D01*
X92038310Y-84202687D01*
X91923147Y-84181428D01*
X91805475Y-84181599D01*
X91688590Y-84204301D01*
X91575789Y-84250638D01*
X91470369Y-84321713D01*
X91426368Y-84361911D01*
X91341979Y-84465129D01*
X91283222Y-84577925D01*
X91249704Y-84697010D01*
X91241035Y-84819095D01*
X91256823Y-84940893D01*
X91296678Y-85059116D01*
X91360207Y-85170475D01*
X91447021Y-85271684D01*
X91544029Y-85350887D01*
X91584437Y-85381162D01*
X91612982Y-85407219D01*
X91623257Y-85422825D01*
X91617877Y-85439843D01*
X91602575Y-85480500D01*
X91578612Y-85541642D01*
X91547244Y-85620119D01*
X91509732Y-85712780D01*
X91467333Y-85816472D01*
X91425663Y-85917526D01*
X91379690Y-86028607D01*
X91337107Y-86131541D01*
X91299221Y-86223165D01*
X91267340Y-86300316D01*
X91242771Y-86359831D01*
X91226820Y-86398544D01*
X91220910Y-86413000D01*
X91206948Y-86427685D01*
X91179940Y-86427642D01*
X91136413Y-86412099D01*
X91072890Y-86380284D01*
X91072388Y-86380013D01*
X91024560Y-86355323D01*
X90985897Y-86337338D01*
X90964095Y-86329614D01*
X90963133Y-86329543D01*
X90946721Y-86337378D01*
X90910487Y-86359165D01*
X90858474Y-86392328D01*
X90794725Y-86434291D01*
X90724060Y-86481943D01*
X90652116Y-86530191D01*
X90587274Y-86572151D01*
X90533735Y-86605227D01*
X90495697Y-86626821D01*
X90477533Y-86634343D01*
X90460808Y-86624457D01*
X90427180Y-86596826D01*
X90380010Y-86554495D01*
X90322658Y-86500505D01*
X90258484Y-86437899D01*
X90237497Y-86416983D01*
X90020499Y-86199623D01*
X90185668Y-85957220D01*
X90235864Y-85882781D01*
X90279919Y-85815972D01*
X90315362Y-85760665D01*
X90339719Y-85720729D01*
X90350522Y-85700036D01*
X90350838Y-85698563D01*
X90345143Y-85679058D01*
X90329826Y-85639822D01*
X90307537Y-85587430D01*
X90291893Y-85552355D01*
X90262641Y-85485201D01*
X90235094Y-85417358D01*
X90213737Y-85360034D01*
X90207935Y-85342572D01*
X90191452Y-85295938D01*
X90175340Y-85259905D01*
X90166490Y-85246287D01*
X90146960Y-85237952D01*
X90104334Y-85226137D01*
X90044145Y-85212181D01*
X89971922Y-85197422D01*
X89939600Y-85191355D01*
X89857522Y-85176273D01*
X89778795Y-85161669D01*
X89711109Y-85148980D01*
X89662160Y-85139642D01*
X89652943Y-85137839D01*
X89576743Y-85122799D01*
X89576743Y-84805492D01*
X89576914Y-84701154D01*
X89577616Y-84622213D01*
X89579134Y-84565038D01*
X89581749Y-84525999D01*
X89585746Y-84501465D01*
X89591409Y-84487805D01*
X89599020Y-84481389D01*
X89602143Y-84480199D01*
X89620978Y-84475980D01*
X89662588Y-84467562D01*
X89721630Y-84455961D01*
X89792757Y-84442195D01*
X89870625Y-84427280D01*
X89949887Y-84412232D01*
X90025198Y-84398069D01*
X90091213Y-84385806D01*
X90142587Y-84376461D01*
X90173975Y-84371050D01*
X90180959Y-84370114D01*
X90187285Y-84357596D01*
X90201290Y-84324246D01*
X90220355Y-84276377D01*
X90227634Y-84257629D01*
X90256996Y-84185195D01*
X90291571Y-84105170D01*
X90322537Y-84037728D01*
X90345323Y-83986159D01*
X90360482Y-83943785D01*
X90365542Y-83917834D01*
X90364736Y-83914356D01*
X90354041Y-83897936D01*
X90329620Y-83861417D01*
X90294095Y-83808687D01*
X90250087Y-83743635D01*
X90200217Y-83670151D01*
X90190356Y-83655645D01*
X90132492Y-83569704D01*
X90089956Y-83504261D01*
X90061054Y-83456304D01*
X90044090Y-83422820D01*
X90037367Y-83400795D01*
X90039190Y-83387217D01*
X90039236Y-83387131D01*
X90053586Y-83369297D01*
X90085323Y-83334817D01*
X90131010Y-83287268D01*
X90187204Y-83230222D01*
X90250468Y-83167255D01*
X90257602Y-83160227D01*
X90337330Y-83083020D01*
X90398857Y-83026330D01*
X90443421Y-82989110D01*
X90472257Y-82970315D01*
X90484958Y-82967889D01*
X90503494Y-82978471D01*
X90541961Y-83002916D01*
X90596386Y-83038612D01*
X90662798Y-83082947D01*
X90737225Y-83133311D01*
X90754601Y-83145160D01*
X91001297Y-83313626D01*
X91112706Y-83263062D01*
X91180457Y-83233595D01*
X91253183Y-83203959D01*
X91315703Y-83180330D01*
X91318457Y-83179358D01*
X91367360Y-83161457D01*
X91405057Y-83146320D01*
X91423425Y-83137210D01*
X91423456Y-83137184D01*
X91429285Y-83120717D01*
X91439192Y-83080219D01*
X91452195Y-83020242D01*
X91467309Y-82945340D01*
X91483552Y-82860064D01*
X91484881Y-82852875D01*
X91501175Y-82765014D01*
X91516133Y-82685260D01*
X91528791Y-82618681D01*
X91538186Y-82570347D01*
X91543354Y-82545325D01*
X91543444Y-82544943D01*
X91546589Y-82534299D01*
X91552704Y-82526262D01*
X91565453Y-82520467D01*
X91588500Y-82516547D01*
X91625509Y-82514135D01*
X91680144Y-82512865D01*
X91756067Y-82512371D01*
X91856944Y-82512286D01*
X91870000Y-82512286D01*
X91973910Y-82512348D01*
G37*
X91973910Y-82512348D02*
X92052454Y-82512778D01*
X92109298Y-82513942D01*
X92148105Y-82516207D01*
X92172538Y-82519940D01*
X92186262Y-82525506D01*
X92192940Y-82533273D01*
X92196236Y-82543605D01*
X92196556Y-82544943D01*
X92201562Y-82569079D01*
X92210829Y-82616701D01*
X92223392Y-82682741D01*
X92238287Y-82762128D01*
X92254551Y-82849796D01*
X92255119Y-82852875D01*
X92271410Y-82938789D01*
X92286652Y-83014696D01*
X92299861Y-83076045D01*
X92310054Y-83118282D01*
X92316248Y-83136855D01*
X92316543Y-83137184D01*
X92334788Y-83146253D01*
X92372405Y-83161367D01*
X92421271Y-83179262D01*
X92421543Y-83179358D01*
X92483093Y-83202493D01*
X92555657Y-83231965D01*
X92624057Y-83261597D01*
X92627294Y-83263062D01*
X92738702Y-83313626D01*
X92985399Y-83145160D01*
X93061077Y-83093803D01*
X93129631Y-83047889D01*
X93187088Y-83010030D01*
X93229476Y-82982837D01*
X93252825Y-82968921D01*
X93255042Y-82967889D01*
X93272010Y-82972484D01*
X93303701Y-82994655D01*
X93351352Y-83035447D01*
X93416198Y-83095905D01*
X93482397Y-83160227D01*
X93546214Y-83223612D01*
X93603329Y-83281451D01*
X93650305Y-83330175D01*
X93683703Y-83366210D01*
X93700085Y-83385984D01*
X93700694Y-83387002D01*
X93702505Y-83400572D01*
X93695683Y-83422733D01*
X93678540Y-83456478D01*
X93649393Y-83504800D01*
X93606555Y-83570692D01*
X93549448Y-83655517D01*
X93498766Y-83730177D01*
X93453461Y-83797140D01*
X93416150Y-83852516D01*
X93389452Y-83892420D01*
X93375985Y-83912962D01*
X93375137Y-83914356D01*
X93376781Y-83934038D01*
X93389245Y-83972293D01*
X93410048Y-84021889D01*
X93417462Y-84037728D01*
X93449814Y-84108290D01*
X93484328Y-84188353D01*
X93512365Y-84257629D01*
X93532568Y-84309045D01*
X93548615Y-84348119D01*
X93557888Y-84368541D01*
X93559041Y-84370114D01*
X93576096Y-84372721D01*
X93616298Y-84379863D01*
X93674302Y-84390523D01*
X93744763Y-84403685D01*
X93822335Y-84418333D01*
X93901672Y-84433449D01*
X93977431Y-84448018D01*
X94044264Y-84461022D01*
X94096828Y-84471445D01*
X94129776Y-84478270D01*
X94137857Y-84480199D01*
X94146205Y-84484962D01*
X94152506Y-84495718D01*
X94157045Y-84516098D01*
X94160104Y-84549734D01*
X94161967Y-84600255D01*
X94162918Y-84671292D01*
X94163240Y-84766476D01*
X94163257Y-84805492D01*
X94163257Y-85122799D01*
X94087057Y-85137839D01*
X94044663Y-85145995D01*
X93981400Y-85157899D01*
X93904962Y-85172116D01*
X93823043Y-85187210D01*
X93800400Y-85191355D01*
X93724806Y-85206053D01*
X93658953Y-85220505D01*
X93608366Y-85233375D01*
X93578574Y-85243322D01*
X93573612Y-85246287D01*
X93561426Y-85267283D01*
X93543953Y-85307967D01*
X93524577Y-85360322D01*
X93520734Y-85371600D01*
X93495339Y-85441523D01*
X93463817Y-85520418D01*
X93432969Y-85591266D01*
X93432817Y-85591595D01*
X93381447Y-85702733D01*
X93550399Y-85951253D01*
X93719352Y-86199772D01*
X93502429Y-86417058D01*
X93436819Y-86481726D01*
X93376979Y-86538733D01*
X93326267Y-86585033D01*
X93288046Y-86617584D01*
X93265675Y-86633343D01*
X93262466Y-86634343D01*
X93243626Y-86626469D01*
X93205180Y-86604578D01*
X93151330Y-86571267D01*
X93086276Y-86529131D01*
X93015940Y-86481943D01*
X92944555Y-86433810D01*
X92880908Y-86391928D01*
X92829041Y-86358871D01*
X92792995Y-86337218D01*
X92776867Y-86329543D01*
X92757189Y-86336037D01*
X92719875Y-86353150D01*
X92672621Y-86377326D01*
X92667612Y-86380013D01*
X92603977Y-86411927D01*
X92560341Y-86427579D01*
X92533202Y-86427745D01*
X92519057Y-86413204D01*
X92518975Y-86413000D01*
X92511905Y-86395779D01*
X92495042Y-86354899D01*
X92469695Y-86293525D01*
X92437171Y-86214819D01*
X92398778Y-86121947D01*
X92355822Y-86018072D01*
X92314222Y-85917502D01*
X92268504Y-85806516D01*
X92226526Y-85703703D01*
X92189548Y-85612215D01*
X92158827Y-85535201D01*
X92135622Y-85475815D01*
X92121190Y-85437209D01*
X92116743Y-85422800D01*
X92127896Y-85406272D01*
X92157069Y-85379930D01*
X92195971Y-85350887D01*
X92306757Y-85259039D01*
X92393351Y-85153759D01*
X92454716Y-85037266D01*
X92489815Y-84911776D01*
X92497608Y-84779507D01*
X92491943Y-84718457D01*
X92461078Y-84591795D01*
X92407920Y-84479941D01*
X92335767Y-84384001D01*
X92247917Y-84305076D01*
X92147665Y-84244270D01*
X92038310Y-84202687D01*
X91923147Y-84181428D01*
X91805475Y-84181599D01*
X91688590Y-84204301D01*
X91575789Y-84250638D01*
X91470369Y-84321713D01*
X91426368Y-84361911D01*
X91341979Y-84465129D01*
X91283222Y-84577925D01*
X91249704Y-84697010D01*
X91241035Y-84819095D01*
X91256823Y-84940893D01*
X91296678Y-85059116D01*
X91360207Y-85170475D01*
X91447021Y-85271684D01*
X91544029Y-85350887D01*
X91584437Y-85381162D01*
X91612982Y-85407219D01*
X91623257Y-85422825D01*
X91617877Y-85439843D01*
X91602575Y-85480500D01*
X91578612Y-85541642D01*
X91547244Y-85620119D01*
X91509732Y-85712780D01*
X91467333Y-85816472D01*
X91425663Y-85917526D01*
X91379690Y-86028607D01*
X91337107Y-86131541D01*
X91299221Y-86223165D01*
X91267340Y-86300316D01*
X91242771Y-86359831D01*
X91226820Y-86398544D01*
X91220910Y-86413000D01*
X91206948Y-86427685D01*
X91179940Y-86427642D01*
X91136413Y-86412099D01*
X91072890Y-86380284D01*
X91072388Y-86380013D01*
X91024560Y-86355323D01*
X90985897Y-86337338D01*
X90964095Y-86329614D01*
X90963133Y-86329543D01*
X90946721Y-86337378D01*
X90910487Y-86359165D01*
X90858474Y-86392328D01*
X90794725Y-86434291D01*
X90724060Y-86481943D01*
X90652116Y-86530191D01*
X90587274Y-86572151D01*
X90533735Y-86605227D01*
X90495697Y-86626821D01*
X90477533Y-86634343D01*
X90460808Y-86624457D01*
X90427180Y-86596826D01*
X90380010Y-86554495D01*
X90322658Y-86500505D01*
X90258484Y-86437899D01*
X90237497Y-86416983D01*
X90020499Y-86199623D01*
X90185668Y-85957220D01*
X90235864Y-85882781D01*
X90279919Y-85815972D01*
X90315362Y-85760665D01*
X90339719Y-85720729D01*
X90350522Y-85700036D01*
X90350838Y-85698563D01*
X90345143Y-85679058D01*
X90329826Y-85639822D01*
X90307537Y-85587430D01*
X90291893Y-85552355D01*
X90262641Y-85485201D01*
X90235094Y-85417358D01*
X90213737Y-85360034D01*
X90207935Y-85342572D01*
X90191452Y-85295938D01*
X90175340Y-85259905D01*
X90166490Y-85246287D01*
X90146960Y-85237952D01*
X90104334Y-85226137D01*
X90044145Y-85212181D01*
X89971922Y-85197422D01*
X89939600Y-85191355D01*
X89857522Y-85176273D01*
X89778795Y-85161669D01*
X89711109Y-85148980D01*
X89662160Y-85139642D01*
X89652943Y-85137839D01*
X89576743Y-85122799D01*
X89576743Y-84805492D01*
X89576914Y-84701154D01*
X89577616Y-84622213D01*
X89579134Y-84565038D01*
X89581749Y-84525999D01*
X89585746Y-84501465D01*
X89591409Y-84487805D01*
X89599020Y-84481389D01*
X89602143Y-84480199D01*
X89620978Y-84475980D01*
X89662588Y-84467562D01*
X89721630Y-84455961D01*
X89792757Y-84442195D01*
X89870625Y-84427280D01*
X89949887Y-84412232D01*
X90025198Y-84398069D01*
X90091213Y-84385806D01*
X90142587Y-84376461D01*
X90173975Y-84371050D01*
X90180959Y-84370114D01*
X90187285Y-84357596D01*
X90201290Y-84324246D01*
X90220355Y-84276377D01*
X90227634Y-84257629D01*
X90256996Y-84185195D01*
X90291571Y-84105170D01*
X90322537Y-84037728D01*
X90345323Y-83986159D01*
X90360482Y-83943785D01*
X90365542Y-83917834D01*
X90364736Y-83914356D01*
X90354041Y-83897936D01*
X90329620Y-83861417D01*
X90294095Y-83808687D01*
X90250087Y-83743635D01*
X90200217Y-83670151D01*
X90190356Y-83655645D01*
X90132492Y-83569704D01*
X90089956Y-83504261D01*
X90061054Y-83456304D01*
X90044090Y-83422820D01*
X90037367Y-83400795D01*
X90039190Y-83387217D01*
X90039236Y-83387131D01*
X90053586Y-83369297D01*
X90085323Y-83334817D01*
X90131010Y-83287268D01*
X90187204Y-83230222D01*
X90250468Y-83167255D01*
X90257602Y-83160227D01*
X90337330Y-83083020D01*
X90398857Y-83026330D01*
X90443421Y-82989110D01*
X90472257Y-82970315D01*
X90484958Y-82967889D01*
X90503494Y-82978471D01*
X90541961Y-83002916D01*
X90596386Y-83038612D01*
X90662798Y-83082947D01*
X90737225Y-83133311D01*
X90754601Y-83145160D01*
X91001297Y-83313626D01*
X91112706Y-83263062D01*
X91180457Y-83233595D01*
X91253183Y-83203959D01*
X91315703Y-83180330D01*
X91318457Y-83179358D01*
X91367360Y-83161457D01*
X91405057Y-83146320D01*
X91423425Y-83137210D01*
X91423456Y-83137184D01*
X91429285Y-83120717D01*
X91439192Y-83080219D01*
X91452195Y-83020242D01*
X91467309Y-82945340D01*
X91483552Y-82860064D01*
X91484881Y-82852875D01*
X91501175Y-82765014D01*
X91516133Y-82685260D01*
X91528791Y-82618681D01*
X91538186Y-82570347D01*
X91543354Y-82545325D01*
X91543444Y-82544943D01*
X91546589Y-82534299D01*
X91552704Y-82526262D01*
X91565453Y-82520467D01*
X91588500Y-82516547D01*
X91625509Y-82514135D01*
X91680144Y-82512865D01*
X91756067Y-82512371D01*
X91856944Y-82512286D01*
X91870000Y-82512286D01*
X91973910Y-82512348D01*
X91245886Y-87121289D02*
X91250139Y-87180613D01*
X91250139Y-87180613D02*
X91255025Y-87215572D01*
X91255025Y-87215572D02*
X91261795Y-87230820D01*
X91261795Y-87230820D02*
X91271702Y-87231015D01*
X91271702Y-87231015D02*
X91274914Y-87229195D01*
X91274914Y-87229195D02*
X91317644Y-87216015D01*
X91317644Y-87216015D02*
X91373227Y-87216785D01*
X91373227Y-87216785D02*
X91429737Y-87230333D01*
X91429737Y-87230333D02*
X91465082Y-87247861D01*
X91465082Y-87247861D02*
X91501321Y-87275861D01*
X91501321Y-87275861D02*
X91527813Y-87307549D01*
X91527813Y-87307549D02*
X91545999Y-87347813D01*
X91545999Y-87347813D02*
X91557322Y-87401543D01*
X91557322Y-87401543D02*
X91563222Y-87473626D01*
X91563222Y-87473626D02*
X91565143Y-87568951D01*
X91565143Y-87568951D02*
X91565177Y-87587237D01*
X91565177Y-87587237D02*
X91565200Y-87792646D01*
X91565200Y-87792646D02*
X91519491Y-87808580D01*
X91519491Y-87808580D02*
X91487027Y-87819420D01*
X91487027Y-87819420D02*
X91469215Y-87824468D01*
X91469215Y-87824468D02*
X91468691Y-87824514D01*
X91468691Y-87824514D02*
X91466937Y-87810828D01*
X91466937Y-87810828D02*
X91465444Y-87773076D01*
X91465444Y-87773076D02*
X91464326Y-87716224D01*
X91464326Y-87716224D02*
X91463697Y-87645234D01*
X91463697Y-87645234D02*
X91463600Y-87602073D01*
X91463600Y-87602073D02*
X91463398Y-87516973D01*
X91463398Y-87516973D02*
X91462358Y-87455981D01*
X91462358Y-87455981D02*
X91459831Y-87414177D01*
X91459831Y-87414177D02*
X91455164Y-87386642D01*
X91455164Y-87386642D02*
X91447707Y-87368456D01*
X91447707Y-87368456D02*
X91436811Y-87354698D01*
X91436811Y-87354698D02*
X91430007Y-87348073D01*
X91430007Y-87348073D02*
X91383272Y-87321375D01*
X91383272Y-87321375D02*
X91332272Y-87319375D01*
X91332272Y-87319375D02*
X91286001Y-87341955D01*
X91286001Y-87341955D02*
X91277444Y-87350107D01*
X91277444Y-87350107D02*
X91264893Y-87365436D01*
X91264893Y-87365436D02*
X91256188Y-87383618D01*
X91256188Y-87383618D02*
X91250631Y-87409909D01*
X91250631Y-87409909D02*
X91247526Y-87449562D01*
X91247526Y-87449562D02*
X91246176Y-87507832D01*
X91246176Y-87507832D02*
X91245886Y-87588173D01*
X91245886Y-87588173D02*
X91245886Y-87792646D01*
X91245886Y-87792646D02*
X91200177Y-87808580D01*
X91200177Y-87808580D02*
X91167713Y-87819420D01*
X91167713Y-87819420D02*
X91149901Y-87824468D01*
X91149901Y-87824468D02*
X91149377Y-87824514D01*
X91149377Y-87824514D02*
X91148037Y-87810623D01*
X91148037Y-87810623D02*
X91146828Y-87771439D01*
X91146828Y-87771439D02*
X91145801Y-87710700D01*
X91145801Y-87710700D02*
X91145002Y-87632141D01*
X91145002Y-87632141D02*
X91144481Y-87539498D01*
X91144481Y-87539498D02*
X91144286Y-87436509D01*
X91144286Y-87436509D02*
X91144286Y-87039342D01*
X91144286Y-87039342D02*
X91191457Y-87019444D01*
X91191457Y-87019444D02*
X91238629Y-86999547D01*
X91238629Y-86999547D02*
X91245886Y-87121289D01*
X91245886Y-87121289D02*
X91245886Y-87121289D01*
G36*
X91245886Y-87121289D02*
G01*
X91250139Y-87180613D01*
X91255025Y-87215572D01*
X91261795Y-87230820D01*
X91271702Y-87231015D01*
X91274914Y-87229195D01*
X91317644Y-87216015D01*
X91373227Y-87216785D01*
X91429737Y-87230333D01*
X91465082Y-87247861D01*
X91501321Y-87275861D01*
X91527813Y-87307549D01*
X91545999Y-87347813D01*
X91557322Y-87401543D01*
X91563222Y-87473626D01*
X91565143Y-87568951D01*
X91565177Y-87587237D01*
X91565200Y-87792646D01*
X91519491Y-87808580D01*
X91487027Y-87819420D01*
X91469215Y-87824468D01*
X91468691Y-87824514D01*
X91466937Y-87810828D01*
X91465444Y-87773076D01*
X91464326Y-87716224D01*
X91463697Y-87645234D01*
X91463600Y-87602073D01*
X91463398Y-87516973D01*
X91462358Y-87455981D01*
X91459831Y-87414177D01*
X91455164Y-87386642D01*
X91447707Y-87368456D01*
X91436811Y-87354698D01*
X91430007Y-87348073D01*
X91383272Y-87321375D01*
X91332272Y-87319375D01*
X91286001Y-87341955D01*
X91277444Y-87350107D01*
X91264893Y-87365436D01*
X91256188Y-87383618D01*
X91250631Y-87409909D01*
X91247526Y-87449562D01*
X91246176Y-87507832D01*
X91245886Y-87588173D01*
X91245886Y-87792646D01*
X91200177Y-87808580D01*
X91167713Y-87819420D01*
X91149901Y-87824468D01*
X91149377Y-87824514D01*
X91148037Y-87810623D01*
X91146828Y-87771439D01*
X91145801Y-87710700D01*
X91145002Y-87632141D01*
X91144481Y-87539498D01*
X91144286Y-87436509D01*
X91144286Y-87039342D01*
X91191457Y-87019444D01*
X91238629Y-86999547D01*
X91245886Y-87121289D01*
G37*
X91245886Y-87121289D02*
X91250139Y-87180613D01*
X91255025Y-87215572D01*
X91261795Y-87230820D01*
X91271702Y-87231015D01*
X91274914Y-87229195D01*
X91317644Y-87216015D01*
X91373227Y-87216785D01*
X91429737Y-87230333D01*
X91465082Y-87247861D01*
X91501321Y-87275861D01*
X91527813Y-87307549D01*
X91545999Y-87347813D01*
X91557322Y-87401543D01*
X91563222Y-87473626D01*
X91565143Y-87568951D01*
X91565177Y-87587237D01*
X91565200Y-87792646D01*
X91519491Y-87808580D01*
X91487027Y-87819420D01*
X91469215Y-87824468D01*
X91468691Y-87824514D01*
X91466937Y-87810828D01*
X91465444Y-87773076D01*
X91464326Y-87716224D01*
X91463697Y-87645234D01*
X91463600Y-87602073D01*
X91463398Y-87516973D01*
X91462358Y-87455981D01*
X91459831Y-87414177D01*
X91455164Y-87386642D01*
X91447707Y-87368456D01*
X91436811Y-87354698D01*
X91430007Y-87348073D01*
X91383272Y-87321375D01*
X91332272Y-87319375D01*
X91286001Y-87341955D01*
X91277444Y-87350107D01*
X91264893Y-87365436D01*
X91256188Y-87383618D01*
X91250631Y-87409909D01*
X91247526Y-87449562D01*
X91246176Y-87507832D01*
X91245886Y-87588173D01*
X91245886Y-87792646D01*
X91200177Y-87808580D01*
X91167713Y-87819420D01*
X91149901Y-87824468D01*
X91149377Y-87824514D01*
X91148037Y-87810623D01*
X91146828Y-87771439D01*
X91145801Y-87710700D01*
X91145002Y-87632141D01*
X91144481Y-87539498D01*
X91144286Y-87436509D01*
X91144286Y-87039342D01*
X91191457Y-87019444D01*
X91238629Y-86999547D01*
X91245886Y-87121289D01*
X88911115Y-87191962D02*
X88979145Y-87227733D01*
X88979145Y-87227733D02*
X89029351Y-87285301D01*
X89029351Y-87285301D02*
X89047185Y-87322312D01*
X89047185Y-87322312D02*
X89061063Y-87377882D01*
X89061063Y-87377882D02*
X89068167Y-87448096D01*
X89068167Y-87448096D02*
X89068840Y-87524727D01*
X89068840Y-87524727D02*
X89063427Y-87599552D01*
X89063427Y-87599552D02*
X89052270Y-87664342D01*
X89052270Y-87664342D02*
X89035714Y-87710873D01*
X89035714Y-87710873D02*
X89030626Y-87718887D01*
X89030626Y-87718887D02*
X88970355Y-87778707D01*
X88970355Y-87778707D02*
X88898769Y-87814535D01*
X88898769Y-87814535D02*
X88821092Y-87825020D01*
X88821092Y-87825020D02*
X88742548Y-87808810D01*
X88742548Y-87808810D02*
X88720689Y-87799092D01*
X88720689Y-87799092D02*
X88678122Y-87769143D01*
X88678122Y-87769143D02*
X88640763Y-87729433D01*
X88640763Y-87729433D02*
X88637232Y-87724397D01*
X88637232Y-87724397D02*
X88622881Y-87700124D01*
X88622881Y-87700124D02*
X88613394Y-87674178D01*
X88613394Y-87674178D02*
X88607790Y-87640022D01*
X88607790Y-87640022D02*
X88605086Y-87591119D01*
X88605086Y-87591119D02*
X88604299Y-87520935D01*
X88604299Y-87520935D02*
X88604286Y-87505200D01*
X88604286Y-87505200D02*
X88604322Y-87500192D01*
X88604322Y-87500192D02*
X88749429Y-87500192D01*
X88749429Y-87500192D02*
X88750273Y-87566430D01*
X88750273Y-87566430D02*
X88753596Y-87610386D01*
X88753596Y-87610386D02*
X88760583Y-87638779D01*
X88760583Y-87638779D02*
X88772416Y-87658325D01*
X88772416Y-87658325D02*
X88778457Y-87664857D01*
X88778457Y-87664857D02*
X88813186Y-87689680D01*
X88813186Y-87689680D02*
X88846903Y-87688548D01*
X88846903Y-87688548D02*
X88880995Y-87667016D01*
X88880995Y-87667016D02*
X88901329Y-87644029D01*
X88901329Y-87644029D02*
X88913371Y-87610478D01*
X88913371Y-87610478D02*
X88920134Y-87557569D01*
X88920134Y-87557569D02*
X88920598Y-87551399D01*
X88920598Y-87551399D02*
X88921752Y-87455513D01*
X88921752Y-87455513D02*
X88909688Y-87384299D01*
X88909688Y-87384299D02*
X88884570Y-87338194D01*
X88884570Y-87338194D02*
X88846560Y-87317635D01*
X88846560Y-87317635D02*
X88832992Y-87316514D01*
X88832992Y-87316514D02*
X88797364Y-87322152D01*
X88797364Y-87322152D02*
X88772994Y-87341686D01*
X88772994Y-87341686D02*
X88758093Y-87379042D01*
X88758093Y-87379042D02*
X88750875Y-87438150D01*
X88750875Y-87438150D02*
X88749429Y-87500192D01*
X88749429Y-87500192D02*
X88604322Y-87500192D01*
X88604322Y-87500192D02*
X88604826Y-87430413D01*
X88604826Y-87430413D02*
X88607096Y-87378159D01*
X88607096Y-87378159D02*
X88612068Y-87341949D01*
X88612068Y-87341949D02*
X88620713Y-87315299D01*
X88620713Y-87315299D02*
X88634005Y-87291722D01*
X88634005Y-87291722D02*
X88636943Y-87287338D01*
X88636943Y-87287338D02*
X88686313Y-87228249D01*
X88686313Y-87228249D02*
X88740109Y-87193947D01*
X88740109Y-87193947D02*
X88805602Y-87180331D01*
X88805602Y-87180331D02*
X88827842Y-87179665D01*
X88827842Y-87179665D02*
X88911115Y-87191962D01*
X88911115Y-87191962D02*
X88911115Y-87191962D01*
G36*
X88607096Y-87378159D02*
G01*
X88612068Y-87341949D01*
X88620713Y-87315299D01*
X88634005Y-87291722D01*
X88636943Y-87287338D01*
X88686313Y-87228249D01*
X88740109Y-87193947D01*
X88805602Y-87180331D01*
X88827842Y-87179665D01*
X88911115Y-87191962D01*
X88979145Y-87227733D01*
X89029351Y-87285301D01*
X89047185Y-87322312D01*
X89061063Y-87377882D01*
X89068167Y-87448096D01*
X89068840Y-87524727D01*
X89063427Y-87599552D01*
X89052270Y-87664342D01*
X89035714Y-87710873D01*
X89030626Y-87718887D01*
X88970355Y-87778707D01*
X88898769Y-87814535D01*
X88821092Y-87825020D01*
X88742548Y-87808810D01*
X88720689Y-87799092D01*
X88678122Y-87769143D01*
X88640763Y-87729433D01*
X88637232Y-87724397D01*
X88622881Y-87700124D01*
X88613394Y-87674178D01*
X88607790Y-87640022D01*
X88605086Y-87591119D01*
X88604299Y-87520935D01*
X88604286Y-87505200D01*
X88604322Y-87500192D01*
X88749429Y-87500192D01*
X88750273Y-87566430D01*
X88753596Y-87610386D01*
X88760583Y-87638779D01*
X88772416Y-87658325D01*
X88778457Y-87664857D01*
X88813186Y-87689680D01*
X88846903Y-87688548D01*
X88880995Y-87667016D01*
X88901329Y-87644029D01*
X88913371Y-87610478D01*
X88920134Y-87557569D01*
X88920598Y-87551399D01*
X88921752Y-87455513D01*
X88909688Y-87384299D01*
X88884570Y-87338194D01*
X88846560Y-87317635D01*
X88832992Y-87316514D01*
X88797364Y-87322152D01*
X88772994Y-87341686D01*
X88758093Y-87379042D01*
X88750875Y-87438150D01*
X88749429Y-87500192D01*
X88604322Y-87500192D01*
X88604826Y-87430413D01*
X88607096Y-87378159D01*
G37*
X88607096Y-87378159D02*
X88612068Y-87341949D01*
X88620713Y-87315299D01*
X88634005Y-87291722D01*
X88636943Y-87287338D01*
X88686313Y-87228249D01*
X88740109Y-87193947D01*
X88805602Y-87180331D01*
X88827842Y-87179665D01*
X88911115Y-87191962D01*
X88979145Y-87227733D01*
X89029351Y-87285301D01*
X89047185Y-87322312D01*
X89061063Y-87377882D01*
X89068167Y-87448096D01*
X89068840Y-87524727D01*
X89063427Y-87599552D01*
X89052270Y-87664342D01*
X89035714Y-87710873D01*
X89030626Y-87718887D01*
X88970355Y-87778707D01*
X88898769Y-87814535D01*
X88821092Y-87825020D01*
X88742548Y-87808810D01*
X88720689Y-87799092D01*
X88678122Y-87769143D01*
X88640763Y-87729433D01*
X88637232Y-87724397D01*
X88622881Y-87700124D01*
X88613394Y-87674178D01*
X88607790Y-87640022D01*
X88605086Y-87591119D01*
X88604299Y-87520935D01*
X88604286Y-87505200D01*
X88604322Y-87500192D01*
X88749429Y-87500192D01*
X88750273Y-87566430D01*
X88753596Y-87610386D01*
X88760583Y-87638779D01*
X88772416Y-87658325D01*
X88778457Y-87664857D01*
X88813186Y-87689680D01*
X88846903Y-87688548D01*
X88880995Y-87667016D01*
X88901329Y-87644029D01*
X88913371Y-87610478D01*
X88920134Y-87557569D01*
X88920598Y-87551399D01*
X88921752Y-87455513D01*
X88909688Y-87384299D01*
X88884570Y-87338194D01*
X88846560Y-87317635D01*
X88832992Y-87316514D01*
X88797364Y-87322152D01*
X88772994Y-87341686D01*
X88758093Y-87379042D01*
X88750875Y-87438150D01*
X88749429Y-87500192D01*
X88604322Y-87500192D01*
X88604826Y-87430413D01*
X88607096Y-87378159D01*
X89469744Y-87189918D02*
X89525201Y-87217568D01*
X89525201Y-87217568D02*
X89574148Y-87268480D01*
X89574148Y-87268480D02*
X89587629Y-87287338D01*
X89587629Y-87287338D02*
X89602314Y-87312015D01*
X89602314Y-87312015D02*
X89611842Y-87338816D01*
X89611842Y-87338816D02*
X89617293Y-87374587D01*
X89617293Y-87374587D02*
X89619747Y-87426169D01*
X89619747Y-87426169D02*
X89620286Y-87494267D01*
X89620286Y-87494267D02*
X89617852Y-87587588D01*
X89617852Y-87587588D02*
X89609394Y-87657657D01*
X89609394Y-87657657D02*
X89593174Y-87709931D01*
X89593174Y-87709931D02*
X89567454Y-87749869D01*
X89567454Y-87749869D02*
X89530497Y-87782929D01*
X89530497Y-87782929D02*
X89527782Y-87784886D01*
X89527782Y-87784886D02*
X89491360Y-87804908D01*
X89491360Y-87804908D02*
X89447502Y-87814815D01*
X89447502Y-87814815D02*
X89391724Y-87817257D01*
X89391724Y-87817257D02*
X89301048Y-87817257D01*
X89301048Y-87817257D02*
X89301010Y-87905283D01*
X89301010Y-87905283D02*
X89300166Y-87954308D01*
X89300166Y-87954308D02*
X89295024Y-87983065D01*
X89295024Y-87983065D02*
X89281587Y-88000311D01*
X89281587Y-88000311D02*
X89255858Y-88014808D01*
X89255858Y-88014808D02*
X89249679Y-88017769D01*
X89249679Y-88017769D02*
X89220764Y-88031648D01*
X89220764Y-88031648D02*
X89198376Y-88040414D01*
X89198376Y-88040414D02*
X89181729Y-88041171D01*
X89181729Y-88041171D02*
X89170036Y-88031023D01*
X89170036Y-88031023D02*
X89162510Y-88007073D01*
X89162510Y-88007073D02*
X89158366Y-87966426D01*
X89158366Y-87966426D02*
X89156815Y-87906186D01*
X89156815Y-87906186D02*
X89157071Y-87823455D01*
X89157071Y-87823455D02*
X89158349Y-87715339D01*
X89158349Y-87715339D02*
X89158748Y-87683000D01*
X89158748Y-87683000D02*
X89160185Y-87571524D01*
X89160185Y-87571524D02*
X89161472Y-87498603D01*
X89161472Y-87498603D02*
X89300971Y-87498603D01*
X89300971Y-87498603D02*
X89301755Y-87560499D01*
X89301755Y-87560499D02*
X89305240Y-87600997D01*
X89305240Y-87600997D02*
X89313124Y-87627708D01*
X89313124Y-87627708D02*
X89327105Y-87648244D01*
X89327105Y-87648244D02*
X89336597Y-87658260D01*
X89336597Y-87658260D02*
X89375404Y-87687567D01*
X89375404Y-87687567D02*
X89409763Y-87689952D01*
X89409763Y-87689952D02*
X89445216Y-87665750D01*
X89445216Y-87665750D02*
X89446114Y-87664857D01*
X89446114Y-87664857D02*
X89460539Y-87646153D01*
X89460539Y-87646153D02*
X89469313Y-87620732D01*
X89469313Y-87620732D02*
X89473739Y-87581584D01*
X89473739Y-87581584D02*
X89475118Y-87521697D01*
X89475118Y-87521697D02*
X89475143Y-87508430D01*
X89475143Y-87508430D02*
X89471812Y-87425901D01*
X89471812Y-87425901D02*
X89460969Y-87368691D01*
X89460969Y-87368691D02*
X89441340Y-87333766D01*
X89441340Y-87333766D02*
X89411650Y-87318094D01*
X89411650Y-87318094D02*
X89394491Y-87316514D01*
X89394491Y-87316514D02*
X89353766Y-87323926D01*
X89353766Y-87323926D02*
X89325832Y-87348330D01*
X89325832Y-87348330D02*
X89309017Y-87392980D01*
X89309017Y-87392980D02*
X89301650Y-87461130D01*
X89301650Y-87461130D02*
X89300971Y-87498603D01*
X89300971Y-87498603D02*
X89161472Y-87498603D01*
X89161472Y-87498603D02*
X89161708Y-87485245D01*
X89161708Y-87485245D02*
X89163677Y-87420333D01*
X89163677Y-87420333D02*
X89166450Y-87372958D01*
X89166450Y-87372958D02*
X89170388Y-87339290D01*
X89170388Y-87339290D02*
X89175849Y-87315498D01*
X89175849Y-87315498D02*
X89183192Y-87297753D01*
X89183192Y-87297753D02*
X89192777Y-87282224D01*
X89192777Y-87282224D02*
X89196887Y-87276381D01*
X89196887Y-87276381D02*
X89251405Y-87221185D01*
X89251405Y-87221185D02*
X89320336Y-87189890D01*
X89320336Y-87189890D02*
X89400072Y-87181165D01*
X89400072Y-87181165D02*
X89469744Y-87189918D01*
X89469744Y-87189918D02*
X89469744Y-87189918D01*
G36*
X89163677Y-87420333D02*
G01*
X89166450Y-87372958D01*
X89170388Y-87339290D01*
X89175849Y-87315498D01*
X89183192Y-87297753D01*
X89192777Y-87282224D01*
X89196887Y-87276381D01*
X89251405Y-87221185D01*
X89320336Y-87189890D01*
X89400072Y-87181165D01*
X89469744Y-87189918D01*
X89525201Y-87217568D01*
X89574148Y-87268480D01*
X89587629Y-87287338D01*
X89602314Y-87312015D01*
X89611842Y-87338816D01*
X89617293Y-87374587D01*
X89619747Y-87426169D01*
X89620286Y-87494267D01*
X89617852Y-87587588D01*
X89609394Y-87657657D01*
X89593174Y-87709931D01*
X89567454Y-87749869D01*
X89530497Y-87782929D01*
X89527782Y-87784886D01*
X89491360Y-87804908D01*
X89447502Y-87814815D01*
X89391724Y-87817257D01*
X89301048Y-87817257D01*
X89301010Y-87905283D01*
X89300166Y-87954308D01*
X89295024Y-87983065D01*
X89281587Y-88000311D01*
X89255858Y-88014808D01*
X89249679Y-88017769D01*
X89220764Y-88031648D01*
X89198376Y-88040414D01*
X89181729Y-88041171D01*
X89170036Y-88031023D01*
X89162510Y-88007073D01*
X89158366Y-87966426D01*
X89156815Y-87906186D01*
X89157071Y-87823455D01*
X89158349Y-87715339D01*
X89158748Y-87683000D01*
X89160185Y-87571524D01*
X89161472Y-87498603D01*
X89300971Y-87498603D01*
X89301755Y-87560499D01*
X89305240Y-87600997D01*
X89313124Y-87627708D01*
X89327105Y-87648244D01*
X89336597Y-87658260D01*
X89375404Y-87687567D01*
X89409763Y-87689952D01*
X89445216Y-87665750D01*
X89446114Y-87664857D01*
X89460539Y-87646153D01*
X89469313Y-87620732D01*
X89473739Y-87581584D01*
X89475118Y-87521697D01*
X89475143Y-87508430D01*
X89471812Y-87425901D01*
X89460969Y-87368691D01*
X89441340Y-87333766D01*
X89411650Y-87318094D01*
X89394491Y-87316514D01*
X89353766Y-87323926D01*
X89325832Y-87348330D01*
X89309017Y-87392980D01*
X89301650Y-87461130D01*
X89300971Y-87498603D01*
X89161472Y-87498603D01*
X89161708Y-87485245D01*
X89163677Y-87420333D01*
G37*
X89163677Y-87420333D02*
X89166450Y-87372958D01*
X89170388Y-87339290D01*
X89175849Y-87315498D01*
X89183192Y-87297753D01*
X89192777Y-87282224D01*
X89196887Y-87276381D01*
X89251405Y-87221185D01*
X89320336Y-87189890D01*
X89400072Y-87181165D01*
X89469744Y-87189918D01*
X89525201Y-87217568D01*
X89574148Y-87268480D01*
X89587629Y-87287338D01*
X89602314Y-87312015D01*
X89611842Y-87338816D01*
X89617293Y-87374587D01*
X89619747Y-87426169D01*
X89620286Y-87494267D01*
X89617852Y-87587588D01*
X89609394Y-87657657D01*
X89593174Y-87709931D01*
X89567454Y-87749869D01*
X89530497Y-87782929D01*
X89527782Y-87784886D01*
X89491360Y-87804908D01*
X89447502Y-87814815D01*
X89391724Y-87817257D01*
X89301048Y-87817257D01*
X89301010Y-87905283D01*
X89300166Y-87954308D01*
X89295024Y-87983065D01*
X89281587Y-88000311D01*
X89255858Y-88014808D01*
X89249679Y-88017769D01*
X89220764Y-88031648D01*
X89198376Y-88040414D01*
X89181729Y-88041171D01*
X89170036Y-88031023D01*
X89162510Y-88007073D01*
X89158366Y-87966426D01*
X89156815Y-87906186D01*
X89157071Y-87823455D01*
X89158349Y-87715339D01*
X89158748Y-87683000D01*
X89160185Y-87571524D01*
X89161472Y-87498603D01*
X89300971Y-87498603D01*
X89301755Y-87560499D01*
X89305240Y-87600997D01*
X89313124Y-87627708D01*
X89327105Y-87648244D01*
X89336597Y-87658260D01*
X89375404Y-87687567D01*
X89409763Y-87689952D01*
X89445216Y-87665750D01*
X89446114Y-87664857D01*
X89460539Y-87646153D01*
X89469313Y-87620732D01*
X89473739Y-87581584D01*
X89475118Y-87521697D01*
X89475143Y-87508430D01*
X89471812Y-87425901D01*
X89460969Y-87368691D01*
X89441340Y-87333766D01*
X89411650Y-87318094D01*
X89394491Y-87316514D01*
X89353766Y-87323926D01*
X89325832Y-87348330D01*
X89309017Y-87392980D01*
X89301650Y-87461130D01*
X89300971Y-87498603D01*
X89161472Y-87498603D01*
X89161708Y-87485245D01*
X89163677Y-87420333D01*
X93060117Y-87335358D02*
X93059933Y-87443837D01*
X93059933Y-87443837D02*
X93059219Y-87527287D01*
X93059219Y-87527287D02*
X93057675Y-87589704D01*
X93057675Y-87589704D02*
X93055001Y-87635085D01*
X93055001Y-87635085D02*
X93050894Y-87667429D01*
X93050894Y-87667429D02*
X93045055Y-87690733D01*
X93045055Y-87690733D02*
X93037182Y-87708995D01*
X93037182Y-87708995D02*
X93031221Y-87719418D01*
X93031221Y-87719418D02*
X92981855Y-87775945D01*
X92981855Y-87775945D02*
X92919264Y-87811377D01*
X92919264Y-87811377D02*
X92850013Y-87824090D01*
X92850013Y-87824090D02*
X92780668Y-87812463D01*
X92780668Y-87812463D02*
X92739375Y-87791568D01*
X92739375Y-87791568D02*
X92696025Y-87755422D01*
X92696025Y-87755422D02*
X92666481Y-87711276D01*
X92666481Y-87711276D02*
X92648655Y-87653462D01*
X92648655Y-87653462D02*
X92640463Y-87576313D01*
X92640463Y-87576313D02*
X92639302Y-87519714D01*
X92639302Y-87519714D02*
X92639458Y-87515647D01*
X92639458Y-87515647D02*
X92740857Y-87515647D01*
X92740857Y-87515647D02*
X92741476Y-87580550D01*
X92741476Y-87580550D02*
X92744314Y-87623514D01*
X92744314Y-87623514D02*
X92750840Y-87651622D01*
X92750840Y-87651622D02*
X92762523Y-87671953D01*
X92762523Y-87671953D02*
X92776483Y-87687288D01*
X92776483Y-87687288D02*
X92823365Y-87716890D01*
X92823365Y-87716890D02*
X92873701Y-87719419D01*
X92873701Y-87719419D02*
X92921276Y-87694705D01*
X92921276Y-87694705D02*
X92924979Y-87691356D01*
X92924979Y-87691356D02*
X92940783Y-87673935D01*
X92940783Y-87673935D02*
X92950693Y-87653209D01*
X92950693Y-87653209D02*
X92956058Y-87622362D01*
X92956058Y-87622362D02*
X92958228Y-87574577D01*
X92958228Y-87574577D02*
X92958571Y-87521748D01*
X92958571Y-87521748D02*
X92957827Y-87455381D01*
X92957827Y-87455381D02*
X92954748Y-87411106D01*
X92954748Y-87411106D02*
X92948061Y-87382009D01*
X92948061Y-87382009D02*
X92936496Y-87361173D01*
X92936496Y-87361173D02*
X92927013Y-87350107D01*
X92927013Y-87350107D02*
X92882960Y-87322198D01*
X92882960Y-87322198D02*
X92832224Y-87318843D01*
X92832224Y-87318843D02*
X92783796Y-87340159D01*
X92783796Y-87340159D02*
X92774450Y-87348073D01*
X92774450Y-87348073D02*
X92758540Y-87365647D01*
X92758540Y-87365647D02*
X92748610Y-87386587D01*
X92748610Y-87386587D02*
X92743278Y-87417782D01*
X92743278Y-87417782D02*
X92741163Y-87466122D01*
X92741163Y-87466122D02*
X92740857Y-87515647D01*
X92740857Y-87515647D02*
X92639458Y-87515647D01*
X92639458Y-87515647D02*
X92642810Y-87428568D01*
X92642810Y-87428568D02*
X92654726Y-87360086D01*
X92654726Y-87360086D02*
X92677135Y-87308600D01*
X92677135Y-87308600D02*
X92712124Y-87268443D01*
X92712124Y-87268443D02*
X92739375Y-87247861D01*
X92739375Y-87247861D02*
X92788907Y-87225625D01*
X92788907Y-87225625D02*
X92846316Y-87215304D01*
X92846316Y-87215304D02*
X92899682Y-87218067D01*
X92899682Y-87218067D02*
X92929543Y-87229212D01*
X92929543Y-87229212D02*
X92941261Y-87232383D01*
X92941261Y-87232383D02*
X92949037Y-87220557D01*
X92949037Y-87220557D02*
X92954465Y-87188866D01*
X92954465Y-87188866D02*
X92958571Y-87140593D01*
X92958571Y-87140593D02*
X92963067Y-87086829D01*
X92963067Y-87086829D02*
X92969313Y-87054482D01*
X92969313Y-87054482D02*
X92980676Y-87035985D01*
X92980676Y-87035985D02*
X93000528Y-87023770D01*
X93000528Y-87023770D02*
X93013000Y-87018362D01*
X93013000Y-87018362D02*
X93060171Y-86998601D01*
X93060171Y-86998601D02*
X93060117Y-87335358D01*
X93060117Y-87335358D02*
X93060117Y-87335358D01*
G36*
X92654726Y-87360086D02*
G01*
X92677135Y-87308600D01*
X92712124Y-87268443D01*
X92739375Y-87247861D01*
X92788907Y-87225625D01*
X92846316Y-87215304D01*
X92899682Y-87218067D01*
X92929543Y-87229212D01*
X92941261Y-87232383D01*
X92949037Y-87220557D01*
X92954465Y-87188866D01*
X92958571Y-87140593D01*
X92963067Y-87086829D01*
X92969313Y-87054482D01*
X92980676Y-87035985D01*
X93000528Y-87023770D01*
X93013000Y-87018362D01*
X93060171Y-86998601D01*
X93060117Y-87335358D01*
X93059933Y-87443837D01*
X93059219Y-87527287D01*
X93057675Y-87589704D01*
X93055001Y-87635085D01*
X93050894Y-87667429D01*
X93045055Y-87690733D01*
X93037182Y-87708995D01*
X93031221Y-87719418D01*
X92981855Y-87775945D01*
X92919264Y-87811377D01*
X92850013Y-87824090D01*
X92780668Y-87812463D01*
X92739375Y-87791568D01*
X92696025Y-87755422D01*
X92666481Y-87711276D01*
X92648655Y-87653462D01*
X92640463Y-87576313D01*
X92639302Y-87519714D01*
X92639458Y-87515647D01*
X92740857Y-87515647D01*
X92741476Y-87580550D01*
X92744314Y-87623514D01*
X92750840Y-87651622D01*
X92762523Y-87671953D01*
X92776483Y-87687288D01*
X92823365Y-87716890D01*
X92873701Y-87719419D01*
X92921276Y-87694705D01*
X92924979Y-87691356D01*
X92940783Y-87673935D01*
X92950693Y-87653209D01*
X92956058Y-87622362D01*
X92958228Y-87574577D01*
X92958571Y-87521748D01*
X92957827Y-87455381D01*
X92954748Y-87411106D01*
X92948061Y-87382009D01*
X92936496Y-87361173D01*
X92927013Y-87350107D01*
X92882960Y-87322198D01*
X92832224Y-87318843D01*
X92783796Y-87340159D01*
X92774450Y-87348073D01*
X92758540Y-87365647D01*
X92748610Y-87386587D01*
X92743278Y-87417782D01*
X92741163Y-87466122D01*
X92740857Y-87515647D01*
X92639458Y-87515647D01*
X92642810Y-87428568D01*
X92654726Y-87360086D01*
G37*
X92654726Y-87360086D02*
X92677135Y-87308600D01*
X92712124Y-87268443D01*
X92739375Y-87247861D01*
X92788907Y-87225625D01*
X92846316Y-87215304D01*
X92899682Y-87218067D01*
X92929543Y-87229212D01*
X92941261Y-87232383D01*
X92949037Y-87220557D01*
X92954465Y-87188866D01*
X92958571Y-87140593D01*
X92963067Y-87086829D01*
X92969313Y-87054482D01*
X92980676Y-87035985D01*
X93000528Y-87023770D01*
X93013000Y-87018362D01*
X93060171Y-86998601D01*
X93060117Y-87335358D01*
X93059933Y-87443837D01*
X93059219Y-87527287D01*
X93057675Y-87589704D01*
X93055001Y-87635085D01*
X93050894Y-87667429D01*
X93045055Y-87690733D01*
X93037182Y-87708995D01*
X93031221Y-87719418D01*
X92981855Y-87775945D01*
X92919264Y-87811377D01*
X92850013Y-87824090D01*
X92780668Y-87812463D01*
X92739375Y-87791568D01*
X92696025Y-87755422D01*
X92666481Y-87711276D01*
X92648655Y-87653462D01*
X92640463Y-87576313D01*
X92639302Y-87519714D01*
X92639458Y-87515647D01*
X92740857Y-87515647D01*
X92741476Y-87580550D01*
X92744314Y-87623514D01*
X92750840Y-87651622D01*
X92762523Y-87671953D01*
X92776483Y-87687288D01*
X92823365Y-87716890D01*
X92873701Y-87719419D01*
X92921276Y-87694705D01*
X92924979Y-87691356D01*
X92940783Y-87673935D01*
X92950693Y-87653209D01*
X92956058Y-87622362D01*
X92958228Y-87574577D01*
X92958571Y-87521748D01*
X92957827Y-87455381D01*
X92954748Y-87411106D01*
X92948061Y-87382009D01*
X92936496Y-87361173D01*
X92927013Y-87350107D01*
X92882960Y-87322198D01*
X92832224Y-87318843D01*
X92783796Y-87340159D01*
X92774450Y-87348073D01*
X92758540Y-87365647D01*
X92748610Y-87386587D01*
X92743278Y-87417782D01*
X92741163Y-87466122D01*
X92740857Y-87515647D01*
X92639458Y-87515647D01*
X92642810Y-87428568D01*
X92654726Y-87360086D01*
X90586093Y-87197780D02*
X90632672Y-87224723D01*
X90632672Y-87224723D02*
X90665057Y-87251466D01*
X90665057Y-87251466D02*
X90688742Y-87279484D01*
X90688742Y-87279484D02*
X90705059Y-87313748D01*
X90705059Y-87313748D02*
X90715339Y-87359227D01*
X90715339Y-87359227D02*
X90720914Y-87420892D01*
X90720914Y-87420892D02*
X90723116Y-87503711D01*
X90723116Y-87503711D02*
X90723371Y-87563246D01*
X90723371Y-87563246D02*
X90723371Y-87782391D01*
X90723371Y-87782391D02*
X90661686Y-87810044D01*
X90661686Y-87810044D02*
X90600000Y-87837697D01*
X90600000Y-87837697D02*
X90592743Y-87597670D01*
X90592743Y-87597670D02*
X90589744Y-87508028D01*
X90589744Y-87508028D02*
X90586598Y-87442962D01*
X90586598Y-87442962D02*
X90582701Y-87398026D01*
X90582701Y-87398026D02*
X90577447Y-87368770D01*
X90577447Y-87368770D02*
X90570231Y-87350748D01*
X90570231Y-87350748D02*
X90560450Y-87339511D01*
X90560450Y-87339511D02*
X90557312Y-87337079D01*
X90557312Y-87337079D02*
X90509761Y-87318083D01*
X90509761Y-87318083D02*
X90461697Y-87325600D01*
X90461697Y-87325600D02*
X90433086Y-87345543D01*
X90433086Y-87345543D02*
X90421447Y-87359675D01*
X90421447Y-87359675D02*
X90413391Y-87378220D01*
X90413391Y-87378220D02*
X90408271Y-87406334D01*
X90408271Y-87406334D02*
X90405441Y-87449173D01*
X90405441Y-87449173D02*
X90404256Y-87511895D01*
X90404256Y-87511895D02*
X90404057Y-87577261D01*
X90404057Y-87577261D02*
X90404018Y-87659268D01*
X90404018Y-87659268D02*
X90402614Y-87717316D01*
X90402614Y-87717316D02*
X90397914Y-87756465D01*
X90397914Y-87756465D02*
X90387987Y-87781780D01*
X90387987Y-87781780D02*
X90370903Y-87798323D01*
X90370903Y-87798323D02*
X90344732Y-87811156D01*
X90344732Y-87811156D02*
X90309775Y-87824491D01*
X90309775Y-87824491D02*
X90271596Y-87839007D01*
X90271596Y-87839007D02*
X90276141Y-87581389D01*
X90276141Y-87581389D02*
X90277971Y-87488519D01*
X90277971Y-87488519D02*
X90280112Y-87419889D01*
X90280112Y-87419889D02*
X90283181Y-87370711D01*
X90283181Y-87370711D02*
X90287794Y-87336198D01*
X90287794Y-87336198D02*
X90294568Y-87311562D01*
X90294568Y-87311562D02*
X90304119Y-87292016D01*
X90304119Y-87292016D02*
X90315634Y-87274770D01*
X90315634Y-87274770D02*
X90371190Y-87219680D01*
X90371190Y-87219680D02*
X90438980Y-87187822D01*
X90438980Y-87187822D02*
X90512713Y-87180191D01*
X90512713Y-87180191D02*
X90586093Y-87197780D01*
X90586093Y-87197780D02*
X90586093Y-87197780D01*
G36*
X90586093Y-87197780D02*
G01*
X90632672Y-87224723D01*
X90665057Y-87251466D01*
X90688742Y-87279484D01*
X90705059Y-87313748D01*
X90715339Y-87359227D01*
X90720914Y-87420892D01*
X90723116Y-87503711D01*
X90723371Y-87563246D01*
X90723371Y-87782391D01*
X90661686Y-87810044D01*
X90600000Y-87837697D01*
X90592743Y-87597670D01*
X90589744Y-87508028D01*
X90586598Y-87442962D01*
X90582701Y-87398026D01*
X90577447Y-87368770D01*
X90570231Y-87350748D01*
X90560450Y-87339511D01*
X90557312Y-87337079D01*
X90509761Y-87318083D01*
X90461697Y-87325600D01*
X90433086Y-87345543D01*
X90421447Y-87359675D01*
X90413391Y-87378220D01*
X90408271Y-87406334D01*
X90405441Y-87449173D01*
X90404256Y-87511895D01*
X90404057Y-87577261D01*
X90404018Y-87659268D01*
X90402614Y-87717316D01*
X90397914Y-87756465D01*
X90387987Y-87781780D01*
X90370903Y-87798323D01*
X90344732Y-87811156D01*
X90309775Y-87824491D01*
X90271596Y-87839007D01*
X90276141Y-87581389D01*
X90277971Y-87488519D01*
X90280112Y-87419889D01*
X90283181Y-87370711D01*
X90287794Y-87336198D01*
X90294568Y-87311562D01*
X90304119Y-87292016D01*
X90315634Y-87274770D01*
X90371190Y-87219680D01*
X90438980Y-87187822D01*
X90512713Y-87180191D01*
X90586093Y-87197780D01*
G37*
X90586093Y-87197780D02*
X90632672Y-87224723D01*
X90665057Y-87251466D01*
X90688742Y-87279484D01*
X90705059Y-87313748D01*
X90715339Y-87359227D01*
X90720914Y-87420892D01*
X90723116Y-87503711D01*
X90723371Y-87563246D01*
X90723371Y-87782391D01*
X90661686Y-87810044D01*
X90600000Y-87837697D01*
X90592743Y-87597670D01*
X90589744Y-87508028D01*
X90586598Y-87442962D01*
X90582701Y-87398026D01*
X90577447Y-87368770D01*
X90570231Y-87350748D01*
X90560450Y-87339511D01*
X90557312Y-87337079D01*
X90509761Y-87318083D01*
X90461697Y-87325600D01*
X90433086Y-87345543D01*
X90421447Y-87359675D01*
X90413391Y-87378220D01*
X90408271Y-87406334D01*
X90405441Y-87449173D01*
X90404256Y-87511895D01*
X90404057Y-87577261D01*
X90404018Y-87659268D01*
X90402614Y-87717316D01*
X90397914Y-87756465D01*
X90387987Y-87781780D01*
X90370903Y-87798323D01*
X90344732Y-87811156D01*
X90309775Y-87824491D01*
X90271596Y-87839007D01*
X90276141Y-87581389D01*
X90277971Y-87488519D01*
X90280112Y-87419889D01*
X90283181Y-87370711D01*
X90287794Y-87336198D01*
X90294568Y-87311562D01*
X90304119Y-87292016D01*
X90315634Y-87274770D01*
X90371190Y-87219680D01*
X90438980Y-87187822D01*
X90512713Y-87180191D01*
X90586093Y-87197780D01*
X94522600Y-87228752D02*
X94539948Y-87236334D01*
X94539948Y-87236334D02*
X94581356Y-87269128D01*
X94581356Y-87269128D02*
X94616765Y-87316547D01*
X94616765Y-87316547D02*
X94638664Y-87367151D01*
X94638664Y-87367151D02*
X94642229Y-87392098D01*
X94642229Y-87392098D02*
X94630279Y-87426927D01*
X94630279Y-87426927D02*
X94604067Y-87445357D01*
X94604067Y-87445357D02*
X94575964Y-87456516D01*
X94575964Y-87456516D02*
X94563095Y-87458572D01*
X94563095Y-87458572D02*
X94556829Y-87443649D01*
X94556829Y-87443649D02*
X94544456Y-87411175D01*
X94544456Y-87411175D02*
X94539028Y-87396502D01*
X94539028Y-87396502D02*
X94508590Y-87345744D01*
X94508590Y-87345744D02*
X94464520Y-87320427D01*
X94464520Y-87320427D02*
X94408010Y-87321206D01*
X94408010Y-87321206D02*
X94403825Y-87322203D01*
X94403825Y-87322203D02*
X94373655Y-87336507D01*
X94373655Y-87336507D02*
X94351476Y-87364393D01*
X94351476Y-87364393D02*
X94336327Y-87409287D01*
X94336327Y-87409287D02*
X94327250Y-87474615D01*
X94327250Y-87474615D02*
X94323286Y-87563804D01*
X94323286Y-87563804D02*
X94322914Y-87611261D01*
X94322914Y-87611261D02*
X94322730Y-87686071D01*
X94322730Y-87686071D02*
X94321522Y-87737069D01*
X94321522Y-87737069D02*
X94318309Y-87769471D01*
X94318309Y-87769471D02*
X94312109Y-87788495D01*
X94312109Y-87788495D02*
X94301940Y-87799356D01*
X94301940Y-87799356D02*
X94286819Y-87807272D01*
X94286819Y-87807272D02*
X94285946Y-87807670D01*
X94285946Y-87807670D02*
X94256828Y-87819981D01*
X94256828Y-87819981D02*
X94242403Y-87824514D01*
X94242403Y-87824514D02*
X94240186Y-87810809D01*
X94240186Y-87810809D02*
X94238289Y-87772925D01*
X94238289Y-87772925D02*
X94236847Y-87715715D01*
X94236847Y-87715715D02*
X94235998Y-87644027D01*
X94235998Y-87644027D02*
X94235829Y-87591565D01*
X94235829Y-87591565D02*
X94236692Y-87490047D01*
X94236692Y-87490047D02*
X94240070Y-87413032D01*
X94240070Y-87413032D02*
X94247142Y-87356023D01*
X94247142Y-87356023D02*
X94259088Y-87314526D01*
X94259088Y-87314526D02*
X94277090Y-87284043D01*
X94277090Y-87284043D02*
X94302327Y-87260080D01*
X94302327Y-87260080D02*
X94327247Y-87243355D01*
X94327247Y-87243355D02*
X94387171Y-87221097D01*
X94387171Y-87221097D02*
X94456911Y-87216076D01*
X94456911Y-87216076D02*
X94522600Y-87228752D01*
X94522600Y-87228752D02*
X94522600Y-87228752D01*
G36*
X94522600Y-87228752D02*
G01*
X94539948Y-87236334D01*
X94581356Y-87269128D01*
X94616765Y-87316547D01*
X94638664Y-87367151D01*
X94642229Y-87392098D01*
X94630279Y-87426927D01*
X94604067Y-87445357D01*
X94575964Y-87456516D01*
X94563095Y-87458572D01*
X94556829Y-87443649D01*
X94544456Y-87411175D01*
X94539028Y-87396502D01*
X94508590Y-87345744D01*
X94464520Y-87320427D01*
X94408010Y-87321206D01*
X94403825Y-87322203D01*
X94373655Y-87336507D01*
X94351476Y-87364393D01*
X94336327Y-87409287D01*
X94327250Y-87474615D01*
X94323286Y-87563804D01*
X94322914Y-87611261D01*
X94322730Y-87686071D01*
X94321522Y-87737069D01*
X94318309Y-87769471D01*
X94312109Y-87788495D01*
X94301940Y-87799356D01*
X94286819Y-87807272D01*
X94285946Y-87807670D01*
X94256828Y-87819981D01*
X94242403Y-87824514D01*
X94240186Y-87810809D01*
X94238289Y-87772925D01*
X94236847Y-87715715D01*
X94235998Y-87644027D01*
X94235829Y-87591565D01*
X94236692Y-87490047D01*
X94240070Y-87413032D01*
X94247142Y-87356023D01*
X94259088Y-87314526D01*
X94277090Y-87284043D01*
X94302327Y-87260080D01*
X94327247Y-87243355D01*
X94387171Y-87221097D01*
X94456911Y-87216076D01*
X94522600Y-87228752D01*
G37*
X94522600Y-87228752D02*
X94539948Y-87236334D01*
X94581356Y-87269128D01*
X94616765Y-87316547D01*
X94638664Y-87367151D01*
X94642229Y-87392098D01*
X94630279Y-87426927D01*
X94604067Y-87445357D01*
X94575964Y-87456516D01*
X94563095Y-87458572D01*
X94556829Y-87443649D01*
X94544456Y-87411175D01*
X94539028Y-87396502D01*
X94508590Y-87345744D01*
X94464520Y-87320427D01*
X94408010Y-87321206D01*
X94403825Y-87322203D01*
X94373655Y-87336507D01*
X94351476Y-87364393D01*
X94336327Y-87409287D01*
X94327250Y-87474615D01*
X94323286Y-87563804D01*
X94322914Y-87611261D01*
X94322730Y-87686071D01*
X94321522Y-87737069D01*
X94318309Y-87769471D01*
X94312109Y-87788495D01*
X94301940Y-87799356D01*
X94286819Y-87807272D01*
X94285946Y-87807670D01*
X94256828Y-87819981D01*
X94242403Y-87824514D01*
X94240186Y-87810809D01*
X94238289Y-87772925D01*
X94236847Y-87715715D01*
X94235998Y-87644027D01*
X94235829Y-87591565D01*
X94236692Y-87490047D01*
X94240070Y-87413032D01*
X94247142Y-87356023D01*
X94259088Y-87314526D01*
X94277090Y-87284043D01*
X94302327Y-87260080D01*
X94327247Y-87243355D01*
X94387171Y-87221097D01*
X94456911Y-87216076D01*
X94522600Y-87228752D01*
X95023595Y-87236966D02*
X95081021Y-87274497D01*
X95081021Y-87274497D02*
X95108719Y-87308096D01*
X95108719Y-87308096D02*
X95130662Y-87369064D01*
X95130662Y-87369064D02*
X95132405Y-87417308D01*
X95132405Y-87417308D02*
X95128457Y-87481816D01*
X95128457Y-87481816D02*
X94979686Y-87546934D01*
X94979686Y-87546934D02*
X94907349Y-87580202D01*
X94907349Y-87580202D02*
X94860084Y-87606964D01*
X94860084Y-87606964D02*
X94835507Y-87630144D01*
X94835507Y-87630144D02*
X94831237Y-87652667D01*
X94831237Y-87652667D02*
X94844889Y-87677455D01*
X94844889Y-87677455D02*
X94859943Y-87693886D01*
X94859943Y-87693886D02*
X94903746Y-87720235D01*
X94903746Y-87720235D02*
X94951389Y-87722081D01*
X94951389Y-87722081D02*
X94995145Y-87701546D01*
X94995145Y-87701546D02*
X95027289Y-87660752D01*
X95027289Y-87660752D02*
X95033038Y-87646347D01*
X95033038Y-87646347D02*
X95060576Y-87601356D01*
X95060576Y-87601356D02*
X95092258Y-87582182D01*
X95092258Y-87582182D02*
X95135714Y-87565779D01*
X95135714Y-87565779D02*
X95135714Y-87627966D01*
X95135714Y-87627966D02*
X95131872Y-87670283D01*
X95131872Y-87670283D02*
X95116823Y-87705969D01*
X95116823Y-87705969D02*
X95085280Y-87746943D01*
X95085280Y-87746943D02*
X95080592Y-87752267D01*
X95080592Y-87752267D02*
X95045506Y-87788720D01*
X95045506Y-87788720D02*
X95015347Y-87808283D01*
X95015347Y-87808283D02*
X94977615Y-87817283D01*
X94977615Y-87817283D02*
X94946335Y-87820230D01*
X94946335Y-87820230D02*
X94890385Y-87820965D01*
X94890385Y-87820965D02*
X94850555Y-87811660D01*
X94850555Y-87811660D02*
X94825708Y-87797846D01*
X94825708Y-87797846D02*
X94786656Y-87767467D01*
X94786656Y-87767467D02*
X94759625Y-87734613D01*
X94759625Y-87734613D02*
X94742517Y-87693294D01*
X94742517Y-87693294D02*
X94733238Y-87637521D01*
X94733238Y-87637521D02*
X94729693Y-87561305D01*
X94729693Y-87561305D02*
X94729410Y-87522622D01*
X94729410Y-87522622D02*
X94730372Y-87476247D01*
X94730372Y-87476247D02*
X94818007Y-87476247D01*
X94818007Y-87476247D02*
X94819023Y-87501126D01*
X94819023Y-87501126D02*
X94821556Y-87505200D01*
X94821556Y-87505200D02*
X94838274Y-87499665D01*
X94838274Y-87499665D02*
X94874249Y-87485017D01*
X94874249Y-87485017D02*
X94922331Y-87464190D01*
X94922331Y-87464190D02*
X94932386Y-87459714D01*
X94932386Y-87459714D02*
X94993152Y-87428814D01*
X94993152Y-87428814D02*
X95026632Y-87401657D01*
X95026632Y-87401657D02*
X95033990Y-87376220D01*
X95033990Y-87376220D02*
X95016391Y-87350481D01*
X95016391Y-87350481D02*
X95001856Y-87339109D01*
X95001856Y-87339109D02*
X94949410Y-87316364D01*
X94949410Y-87316364D02*
X94900322Y-87320122D01*
X94900322Y-87320122D02*
X94859227Y-87347884D01*
X94859227Y-87347884D02*
X94830758Y-87397152D01*
X94830758Y-87397152D02*
X94821631Y-87436257D01*
X94821631Y-87436257D02*
X94818007Y-87476247D01*
X94818007Y-87476247D02*
X94730372Y-87476247D01*
X94730372Y-87476247D02*
X94731285Y-87432249D01*
X94731285Y-87432249D02*
X94738196Y-87365384D01*
X94738196Y-87365384D02*
X94751884Y-87316695D01*
X94751884Y-87316695D02*
X94774096Y-87280849D01*
X94774096Y-87280849D02*
X94806574Y-87252513D01*
X94806574Y-87252513D02*
X94820733Y-87243355D01*
X94820733Y-87243355D02*
X94885053Y-87219507D01*
X94885053Y-87219507D02*
X94955473Y-87218006D01*
X94955473Y-87218006D02*
X95023595Y-87236966D01*
X95023595Y-87236966D02*
X95023595Y-87236966D01*
G36*
X94738196Y-87365384D02*
G01*
X94751884Y-87316695D01*
X94774096Y-87280849D01*
X94806574Y-87252513D01*
X94820733Y-87243355D01*
X94885053Y-87219507D01*
X94955473Y-87218006D01*
X95023595Y-87236966D01*
X95081021Y-87274497D01*
X95108719Y-87308096D01*
X95130662Y-87369064D01*
X95132405Y-87417308D01*
X95128457Y-87481816D01*
X94979686Y-87546934D01*
X94907349Y-87580202D01*
X94860084Y-87606964D01*
X94835507Y-87630144D01*
X94831237Y-87652667D01*
X94844889Y-87677455D01*
X94859943Y-87693886D01*
X94903746Y-87720235D01*
X94951389Y-87722081D01*
X94995145Y-87701546D01*
X95027289Y-87660752D01*
X95033038Y-87646347D01*
X95060576Y-87601356D01*
X95092258Y-87582182D01*
X95135714Y-87565779D01*
X95135714Y-87627966D01*
X95131872Y-87670283D01*
X95116823Y-87705969D01*
X95085280Y-87746943D01*
X95080592Y-87752267D01*
X95045506Y-87788720D01*
X95015347Y-87808283D01*
X94977615Y-87817283D01*
X94946335Y-87820230D01*
X94890385Y-87820965D01*
X94850555Y-87811660D01*
X94825708Y-87797846D01*
X94786656Y-87767467D01*
X94759625Y-87734613D01*
X94742517Y-87693294D01*
X94733238Y-87637521D01*
X94729693Y-87561305D01*
X94729410Y-87522622D01*
X94730372Y-87476247D01*
X94818007Y-87476247D01*
X94819023Y-87501126D01*
X94821556Y-87505200D01*
X94838274Y-87499665D01*
X94874249Y-87485017D01*
X94922331Y-87464190D01*
X94932386Y-87459714D01*
X94993152Y-87428814D01*
X95026632Y-87401657D01*
X95033990Y-87376220D01*
X95016391Y-87350481D01*
X95001856Y-87339109D01*
X94949410Y-87316364D01*
X94900322Y-87320122D01*
X94859227Y-87347884D01*
X94830758Y-87397152D01*
X94821631Y-87436257D01*
X94818007Y-87476247D01*
X94730372Y-87476247D01*
X94731285Y-87432249D01*
X94738196Y-87365384D01*
G37*
X94738196Y-87365384D02*
X94751884Y-87316695D01*
X94774096Y-87280849D01*
X94806574Y-87252513D01*
X94820733Y-87243355D01*
X94885053Y-87219507D01*
X94955473Y-87218006D01*
X95023595Y-87236966D01*
X95081021Y-87274497D01*
X95108719Y-87308096D01*
X95130662Y-87369064D01*
X95132405Y-87417308D01*
X95128457Y-87481816D01*
X94979686Y-87546934D01*
X94907349Y-87580202D01*
X94860084Y-87606964D01*
X94835507Y-87630144D01*
X94831237Y-87652667D01*
X94844889Y-87677455D01*
X94859943Y-87693886D01*
X94903746Y-87720235D01*
X94951389Y-87722081D01*
X94995145Y-87701546D01*
X95027289Y-87660752D01*
X95033038Y-87646347D01*
X95060576Y-87601356D01*
X95092258Y-87582182D01*
X95135714Y-87565779D01*
X95135714Y-87627966D01*
X95131872Y-87670283D01*
X95116823Y-87705969D01*
X95085280Y-87746943D01*
X95080592Y-87752267D01*
X95045506Y-87788720D01*
X95015347Y-87808283D01*
X94977615Y-87817283D01*
X94946335Y-87820230D01*
X94890385Y-87820965D01*
X94850555Y-87811660D01*
X94825708Y-87797846D01*
X94786656Y-87767467D01*
X94759625Y-87734613D01*
X94742517Y-87693294D01*
X94733238Y-87637521D01*
X94729693Y-87561305D01*
X94729410Y-87522622D01*
X94730372Y-87476247D01*
X94818007Y-87476247D01*
X94819023Y-87501126D01*
X94821556Y-87505200D01*
X94838274Y-87499665D01*
X94874249Y-87485017D01*
X94922331Y-87464190D01*
X94932386Y-87459714D01*
X94993152Y-87428814D01*
X95026632Y-87401657D01*
X95033990Y-87376220D01*
X95016391Y-87350481D01*
X95001856Y-87339109D01*
X94949410Y-87316364D01*
X94900322Y-87320122D01*
X94859227Y-87347884D01*
X94830758Y-87397152D01*
X94821631Y-87436257D01*
X94818007Y-87476247D01*
X94730372Y-87476247D01*
X94731285Y-87432249D01*
X94738196Y-87365384D01*
X91909744Y-87220968D02*
X91966616Y-87242087D01*
X91966616Y-87242087D02*
X91967267Y-87242493D01*
X91967267Y-87242493D02*
X92002440Y-87268380D01*
X92002440Y-87268380D02*
X92028407Y-87298633D01*
X92028407Y-87298633D02*
X92046670Y-87338058D01*
X92046670Y-87338058D02*
X92058732Y-87391462D01*
X92058732Y-87391462D02*
X92066096Y-87463651D01*
X92066096Y-87463651D02*
X92070264Y-87559432D01*
X92070264Y-87559432D02*
X92070629Y-87573078D01*
X92070629Y-87573078D02*
X92075876Y-87778842D01*
X92075876Y-87778842D02*
X92031716Y-87801678D01*
X92031716Y-87801678D02*
X91999763Y-87817110D01*
X91999763Y-87817110D02*
X91980470Y-87824423D01*
X91980470Y-87824423D02*
X91979578Y-87824514D01*
X91979578Y-87824514D02*
X91976239Y-87811022D01*
X91976239Y-87811022D02*
X91973587Y-87774626D01*
X91973587Y-87774626D02*
X91971956Y-87721452D01*
X91971956Y-87721452D02*
X91971600Y-87678393D01*
X91971600Y-87678393D02*
X91971592Y-87608641D01*
X91971592Y-87608641D02*
X91968403Y-87564837D01*
X91968403Y-87564837D02*
X91957288Y-87543944D01*
X91957288Y-87543944D02*
X91933501Y-87542925D01*
X91933501Y-87542925D02*
X91892296Y-87558741D01*
X91892296Y-87558741D02*
X91830086Y-87587815D01*
X91830086Y-87587815D02*
X91784341Y-87611963D01*
X91784341Y-87611963D02*
X91760813Y-87632913D01*
X91760813Y-87632913D02*
X91753896Y-87655747D01*
X91753896Y-87655747D02*
X91753886Y-87656877D01*
X91753886Y-87656877D02*
X91765299Y-87696212D01*
X91765299Y-87696212D02*
X91799092Y-87717462D01*
X91799092Y-87717462D02*
X91850809Y-87720539D01*
X91850809Y-87720539D02*
X91888061Y-87720006D01*
X91888061Y-87720006D02*
X91907703Y-87730735D01*
X91907703Y-87730735D02*
X91919952Y-87756505D01*
X91919952Y-87756505D02*
X91927002Y-87789337D01*
X91927002Y-87789337D02*
X91916842Y-87807966D01*
X91916842Y-87807966D02*
X91913017Y-87810632D01*
X91913017Y-87810632D02*
X91877001Y-87821340D01*
X91877001Y-87821340D02*
X91826566Y-87822856D01*
X91826566Y-87822856D02*
X91774626Y-87815759D01*
X91774626Y-87815759D02*
X91737822Y-87802788D01*
X91737822Y-87802788D02*
X91686938Y-87759585D01*
X91686938Y-87759585D02*
X91658014Y-87699446D01*
X91658014Y-87699446D02*
X91652286Y-87652462D01*
X91652286Y-87652462D02*
X91656657Y-87610082D01*
X91656657Y-87610082D02*
X91672475Y-87575488D01*
X91672475Y-87575488D02*
X91703797Y-87544763D01*
X91703797Y-87544763D02*
X91754678Y-87513990D01*
X91754678Y-87513990D02*
X91829176Y-87479252D01*
X91829176Y-87479252D02*
X91833714Y-87477288D01*
X91833714Y-87477288D02*
X91900821Y-87446287D01*
X91900821Y-87446287D02*
X91942232Y-87420862D01*
X91942232Y-87420862D02*
X91959981Y-87398014D01*
X91959981Y-87398014D02*
X91956107Y-87374745D01*
X91956107Y-87374745D02*
X91932643Y-87348056D01*
X91932643Y-87348056D02*
X91925627Y-87341914D01*
X91925627Y-87341914D02*
X91878630Y-87318100D01*
X91878630Y-87318100D02*
X91829933Y-87319103D01*
X91829933Y-87319103D02*
X91787522Y-87342451D01*
X91787522Y-87342451D02*
X91759384Y-87385675D01*
X91759384Y-87385675D02*
X91756769Y-87394160D01*
X91756769Y-87394160D02*
X91731308Y-87435308D01*
X91731308Y-87435308D02*
X91699001Y-87455128D01*
X91699001Y-87455128D02*
X91652286Y-87474770D01*
X91652286Y-87474770D02*
X91652286Y-87423950D01*
X91652286Y-87423950D02*
X91666496Y-87350082D01*
X91666496Y-87350082D02*
X91708675Y-87282327D01*
X91708675Y-87282327D02*
X91730624Y-87259661D01*
X91730624Y-87259661D02*
X91780517Y-87230569D01*
X91780517Y-87230569D02*
X91843967Y-87217400D01*
X91843967Y-87217400D02*
X91909744Y-87220968D01*
X91909744Y-87220968D02*
X91909744Y-87220968D01*
G36*
X91909744Y-87220968D02*
G01*
X91966616Y-87242087D01*
X91967267Y-87242493D01*
X92002440Y-87268380D01*
X92028407Y-87298633D01*
X92046670Y-87338058D01*
X92058732Y-87391462D01*
X92066096Y-87463651D01*
X92070264Y-87559432D01*
X92070629Y-87573078D01*
X92075876Y-87778842D01*
X92031716Y-87801678D01*
X91999763Y-87817110D01*
X91980470Y-87824423D01*
X91979578Y-87824514D01*
X91976239Y-87811022D01*
X91973587Y-87774626D01*
X91971956Y-87721452D01*
X91971600Y-87678393D01*
X91971592Y-87608641D01*
X91968403Y-87564837D01*
X91957288Y-87543944D01*
X91933501Y-87542925D01*
X91892296Y-87558741D01*
X91830086Y-87587815D01*
X91784341Y-87611963D01*
X91760813Y-87632913D01*
X91753896Y-87655747D01*
X91753886Y-87656877D01*
X91765299Y-87696212D01*
X91799092Y-87717462D01*
X91850809Y-87720539D01*
X91888061Y-87720006D01*
X91907703Y-87730735D01*
X91919952Y-87756505D01*
X91927002Y-87789337D01*
X91916842Y-87807966D01*
X91913017Y-87810632D01*
X91877001Y-87821340D01*
X91826566Y-87822856D01*
X91774626Y-87815759D01*
X91737822Y-87802788D01*
X91686938Y-87759585D01*
X91658014Y-87699446D01*
X91652286Y-87652462D01*
X91656657Y-87610082D01*
X91672475Y-87575488D01*
X91703797Y-87544763D01*
X91754678Y-87513990D01*
X91829176Y-87479252D01*
X91833714Y-87477288D01*
X91900821Y-87446287D01*
X91942232Y-87420862D01*
X91959981Y-87398014D01*
X91956107Y-87374745D01*
X91932643Y-87348056D01*
X91925627Y-87341914D01*
X91878630Y-87318100D01*
X91829933Y-87319103D01*
X91787522Y-87342451D01*
X91759384Y-87385675D01*
X91756769Y-87394160D01*
X91731308Y-87435308D01*
X91699001Y-87455128D01*
X91652286Y-87474770D01*
X91652286Y-87423950D01*
X91666496Y-87350082D01*
X91708675Y-87282327D01*
X91730624Y-87259661D01*
X91780517Y-87230569D01*
X91843967Y-87217400D01*
X91909744Y-87220968D01*
G37*
X91909744Y-87220968D02*
X91966616Y-87242087D01*
X91967267Y-87242493D01*
X92002440Y-87268380D01*
X92028407Y-87298633D01*
X92046670Y-87338058D01*
X92058732Y-87391462D01*
X92066096Y-87463651D01*
X92070264Y-87559432D01*
X92070629Y-87573078D01*
X92075876Y-87778842D01*
X92031716Y-87801678D01*
X91999763Y-87817110D01*
X91980470Y-87824423D01*
X91979578Y-87824514D01*
X91976239Y-87811022D01*
X91973587Y-87774626D01*
X91971956Y-87721452D01*
X91971600Y-87678393D01*
X91971592Y-87608641D01*
X91968403Y-87564837D01*
X91957288Y-87543944D01*
X91933501Y-87542925D01*
X91892296Y-87558741D01*
X91830086Y-87587815D01*
X91784341Y-87611963D01*
X91760813Y-87632913D01*
X91753896Y-87655747D01*
X91753886Y-87656877D01*
X91765299Y-87696212D01*
X91799092Y-87717462D01*
X91850809Y-87720539D01*
X91888061Y-87720006D01*
X91907703Y-87730735D01*
X91919952Y-87756505D01*
X91927002Y-87789337D01*
X91916842Y-87807966D01*
X91913017Y-87810632D01*
X91877001Y-87821340D01*
X91826566Y-87822856D01*
X91774626Y-87815759D01*
X91737822Y-87802788D01*
X91686938Y-87759585D01*
X91658014Y-87699446D01*
X91652286Y-87652462D01*
X91656657Y-87610082D01*
X91672475Y-87575488D01*
X91703797Y-87544763D01*
X91754678Y-87513990D01*
X91829176Y-87479252D01*
X91833714Y-87477288D01*
X91900821Y-87446287D01*
X91942232Y-87420862D01*
X91959981Y-87398014D01*
X91956107Y-87374745D01*
X91932643Y-87348056D01*
X91925627Y-87341914D01*
X91878630Y-87318100D01*
X91829933Y-87319103D01*
X91787522Y-87342451D01*
X91759384Y-87385675D01*
X91756769Y-87394160D01*
X91731308Y-87435308D01*
X91699001Y-87455128D01*
X91652286Y-87474770D01*
X91652286Y-87423950D01*
X91666496Y-87350082D01*
X91708675Y-87282327D01*
X91730624Y-87259661D01*
X91780517Y-87230569D01*
X91843967Y-87217400D01*
X91909744Y-87220968D01*
X92399926Y-87219755D02*
X92465858Y-87244084D01*
X92465858Y-87244084D02*
X92519273Y-87287117D01*
X92519273Y-87287117D02*
X92540164Y-87317409D01*
X92540164Y-87317409D02*
X92562939Y-87372994D01*
X92562939Y-87372994D02*
X92562466Y-87413186D01*
X92562466Y-87413186D02*
X92538562Y-87440217D01*
X92538562Y-87440217D02*
X92529717Y-87444813D01*
X92529717Y-87444813D02*
X92491530Y-87459144D01*
X92491530Y-87459144D02*
X92472028Y-87455472D01*
X92472028Y-87455472D02*
X92465422Y-87431407D01*
X92465422Y-87431407D02*
X92465086Y-87418114D01*
X92465086Y-87418114D02*
X92452992Y-87369210D01*
X92452992Y-87369210D02*
X92421471Y-87334999D01*
X92421471Y-87334999D02*
X92377659Y-87318476D01*
X92377659Y-87318476D02*
X92328695Y-87322634D01*
X92328695Y-87322634D02*
X92288894Y-87344227D01*
X92288894Y-87344227D02*
X92275450Y-87356544D01*
X92275450Y-87356544D02*
X92265921Y-87371487D01*
X92265921Y-87371487D02*
X92259485Y-87394075D01*
X92259485Y-87394075D02*
X92255317Y-87429328D01*
X92255317Y-87429328D02*
X92252597Y-87482266D01*
X92252597Y-87482266D02*
X92250502Y-87557907D01*
X92250502Y-87557907D02*
X92249960Y-87581857D01*
X92249960Y-87581857D02*
X92247981Y-87663790D01*
X92247981Y-87663790D02*
X92245731Y-87721455D01*
X92245731Y-87721455D02*
X92242357Y-87759608D01*
X92242357Y-87759608D02*
X92237006Y-87783004D01*
X92237006Y-87783004D02*
X92228824Y-87796398D01*
X92228824Y-87796398D02*
X92216959Y-87804545D01*
X92216959Y-87804545D02*
X92209362Y-87808144D01*
X92209362Y-87808144D02*
X92177102Y-87820452D01*
X92177102Y-87820452D02*
X92158111Y-87824514D01*
X92158111Y-87824514D02*
X92151836Y-87810948D01*
X92151836Y-87810948D02*
X92148006Y-87769934D01*
X92148006Y-87769934D02*
X92146600Y-87700999D01*
X92146600Y-87700999D02*
X92147598Y-87603669D01*
X92147598Y-87603669D02*
X92147908Y-87588657D01*
X92147908Y-87588657D02*
X92150101Y-87499859D01*
X92150101Y-87499859D02*
X92152693Y-87435019D01*
X92152693Y-87435019D02*
X92156382Y-87389067D01*
X92156382Y-87389067D02*
X92161864Y-87356935D01*
X92161864Y-87356935D02*
X92169835Y-87333553D01*
X92169835Y-87333553D02*
X92180993Y-87313852D01*
X92180993Y-87313852D02*
X92186830Y-87305410D01*
X92186830Y-87305410D02*
X92220296Y-87268057D01*
X92220296Y-87268057D02*
X92257727Y-87239003D01*
X92257727Y-87239003D02*
X92262309Y-87236467D01*
X92262309Y-87236467D02*
X92329426Y-87216443D01*
X92329426Y-87216443D02*
X92399926Y-87219755D01*
X92399926Y-87219755D02*
X92399926Y-87219755D01*
G36*
X92399926Y-87219755D02*
G01*
X92465858Y-87244084D01*
X92519273Y-87287117D01*
X92540164Y-87317409D01*
X92562939Y-87372994D01*
X92562466Y-87413186D01*
X92538562Y-87440217D01*
X92529717Y-87444813D01*
X92491530Y-87459144D01*
X92472028Y-87455472D01*
X92465422Y-87431407D01*
X92465086Y-87418114D01*
X92452992Y-87369210D01*
X92421471Y-87334999D01*
X92377659Y-87318476D01*
X92328695Y-87322634D01*
X92288894Y-87344227D01*
X92275450Y-87356544D01*
X92265921Y-87371487D01*
X92259485Y-87394075D01*
X92255317Y-87429328D01*
X92252597Y-87482266D01*
X92250502Y-87557907D01*
X92249960Y-87581857D01*
X92247981Y-87663790D01*
X92245731Y-87721455D01*
X92242357Y-87759608D01*
X92237006Y-87783004D01*
X92228824Y-87796398D01*
X92216959Y-87804545D01*
X92209362Y-87808144D01*
X92177102Y-87820452D01*
X92158111Y-87824514D01*
X92151836Y-87810948D01*
X92148006Y-87769934D01*
X92146600Y-87700999D01*
X92147598Y-87603669D01*
X92147908Y-87588657D01*
X92150101Y-87499859D01*
X92152693Y-87435019D01*
X92156382Y-87389067D01*
X92161864Y-87356935D01*
X92169835Y-87333553D01*
X92180993Y-87313852D01*
X92186830Y-87305410D01*
X92220296Y-87268057D01*
X92257727Y-87239003D01*
X92262309Y-87236467D01*
X92329426Y-87216443D01*
X92399926Y-87219755D01*
G37*
X92399926Y-87219755D02*
X92465858Y-87244084D01*
X92519273Y-87287117D01*
X92540164Y-87317409D01*
X92562939Y-87372994D01*
X92562466Y-87413186D01*
X92538562Y-87440217D01*
X92529717Y-87444813D01*
X92491530Y-87459144D01*
X92472028Y-87455472D01*
X92465422Y-87431407D01*
X92465086Y-87418114D01*
X92452992Y-87369210D01*
X92421471Y-87334999D01*
X92377659Y-87318476D01*
X92328695Y-87322634D01*
X92288894Y-87344227D01*
X92275450Y-87356544D01*
X92265921Y-87371487D01*
X92259485Y-87394075D01*
X92255317Y-87429328D01*
X92252597Y-87482266D01*
X92250502Y-87557907D01*
X92249960Y-87581857D01*
X92247981Y-87663790D01*
X92245731Y-87721455D01*
X92242357Y-87759608D01*
X92237006Y-87783004D01*
X92228824Y-87796398D01*
X92216959Y-87804545D01*
X92209362Y-87808144D01*
X92177102Y-87820452D01*
X92158111Y-87824514D01*
X92151836Y-87810948D01*
X92148006Y-87769934D01*
X92146600Y-87700999D01*
X92147598Y-87603669D01*
X92147908Y-87588657D01*
X92150101Y-87499859D01*
X92152693Y-87435019D01*
X92156382Y-87389067D01*
X92161864Y-87356935D01*
X92169835Y-87333553D01*
X92180993Y-87313852D01*
X92186830Y-87305410D01*
X92220296Y-87268057D01*
X92257727Y-87239003D01*
X92262309Y-87236467D01*
X92329426Y-87216443D01*
X92399926Y-87219755D01*
X90038303Y-87201239D02*
X90095527Y-87239735D01*
X90095527Y-87239735D02*
X90139749Y-87295335D01*
X90139749Y-87295335D02*
X90166167Y-87366086D01*
X90166167Y-87366086D02*
X90171510Y-87418162D01*
X90171510Y-87418162D02*
X90170903Y-87439893D01*
X90170903Y-87439893D02*
X90165822Y-87456531D01*
X90165822Y-87456531D02*
X90151855Y-87471437D01*
X90151855Y-87471437D02*
X90124589Y-87487973D01*
X90124589Y-87487973D02*
X90079612Y-87509498D01*
X90079612Y-87509498D02*
X90012511Y-87539374D01*
X90012511Y-87539374D02*
X90012171Y-87539524D01*
X90012171Y-87539524D02*
X89950407Y-87567813D01*
X89950407Y-87567813D02*
X89899759Y-87592933D01*
X89899759Y-87592933D02*
X89865404Y-87612179D01*
X89865404Y-87612179D02*
X89852518Y-87622848D01*
X89852518Y-87622848D02*
X89852514Y-87622934D01*
X89852514Y-87622934D02*
X89863872Y-87646166D01*
X89863872Y-87646166D02*
X89890431Y-87671774D01*
X89890431Y-87671774D02*
X89920923Y-87690221D01*
X89920923Y-87690221D02*
X89936370Y-87693886D01*
X89936370Y-87693886D02*
X89978515Y-87681212D01*
X89978515Y-87681212D02*
X90014808Y-87649471D01*
X90014808Y-87649471D02*
X90032517Y-87614572D01*
X90032517Y-87614572D02*
X90049552Y-87588845D01*
X90049552Y-87588845D02*
X90082922Y-87559546D01*
X90082922Y-87559546D02*
X90122149Y-87534235D01*
X90122149Y-87534235D02*
X90156756Y-87520471D01*
X90156756Y-87520471D02*
X90163993Y-87519714D01*
X90163993Y-87519714D02*
X90172139Y-87532160D01*
X90172139Y-87532160D02*
X90172630Y-87563972D01*
X90172630Y-87563972D02*
X90166643Y-87606866D01*
X90166643Y-87606866D02*
X90155357Y-87652558D01*
X90155357Y-87652558D02*
X90139950Y-87692761D01*
X90139950Y-87692761D02*
X90139171Y-87694322D01*
X90139171Y-87694322D02*
X90092804Y-87759062D01*
X90092804Y-87759062D02*
X90032711Y-87803097D01*
X90032711Y-87803097D02*
X89964465Y-87824711D01*
X89964465Y-87824711D02*
X89893638Y-87822185D01*
X89893638Y-87822185D02*
X89825804Y-87793804D01*
X89825804Y-87793804D02*
X89822788Y-87791808D01*
X89822788Y-87791808D02*
X89769427Y-87743448D01*
X89769427Y-87743448D02*
X89734340Y-87680352D01*
X89734340Y-87680352D02*
X89714922Y-87597387D01*
X89714922Y-87597387D02*
X89712316Y-87574078D01*
X89712316Y-87574078D02*
X89707701Y-87464055D01*
X89707701Y-87464055D02*
X89713233Y-87412748D01*
X89713233Y-87412748D02*
X89852514Y-87412748D01*
X89852514Y-87412748D02*
X89854324Y-87444753D01*
X89854324Y-87444753D02*
X89864222Y-87454093D01*
X89864222Y-87454093D02*
X89888898Y-87447105D01*
X89888898Y-87447105D02*
X89927795Y-87430587D01*
X89927795Y-87430587D02*
X89971275Y-87409881D01*
X89971275Y-87409881D02*
X89972356Y-87409333D01*
X89972356Y-87409333D02*
X90009209Y-87389949D01*
X90009209Y-87389949D02*
X90024000Y-87377013D01*
X90024000Y-87377013D02*
X90020353Y-87363451D01*
X90020353Y-87363451D02*
X90004995Y-87345632D01*
X90004995Y-87345632D02*
X89965923Y-87319845D01*
X89965923Y-87319845D02*
X89923846Y-87317950D01*
X89923846Y-87317950D02*
X89886103Y-87336717D01*
X89886103Y-87336717D02*
X89860034Y-87372915D01*
X89860034Y-87372915D02*
X89852514Y-87412748D01*
X89852514Y-87412748D02*
X89713233Y-87412748D01*
X89713233Y-87412748D02*
X89717194Y-87376027D01*
X89717194Y-87376027D02*
X89741550Y-87306212D01*
X89741550Y-87306212D02*
X89775456Y-87257302D01*
X89775456Y-87257302D02*
X89836653Y-87207878D01*
X89836653Y-87207878D02*
X89904063Y-87183359D01*
X89904063Y-87183359D02*
X89972880Y-87181797D01*
X89972880Y-87181797D02*
X90038303Y-87201239D01*
X90038303Y-87201239D02*
X90038303Y-87201239D01*
G36*
X89741550Y-87306212D02*
G01*
X89775456Y-87257302D01*
X89836653Y-87207878D01*
X89904063Y-87183359D01*
X89972880Y-87181797D01*
X90038303Y-87201239D01*
X90095527Y-87239735D01*
X90139749Y-87295335D01*
X90166167Y-87366086D01*
X90171510Y-87418162D01*
X90170903Y-87439893D01*
X90165822Y-87456531D01*
X90151855Y-87471437D01*
X90124589Y-87487973D01*
X90079612Y-87509498D01*
X90012511Y-87539374D01*
X90012171Y-87539524D01*
X89950407Y-87567813D01*
X89899759Y-87592933D01*
X89865404Y-87612179D01*
X89852518Y-87622848D01*
X89852514Y-87622934D01*
X89863872Y-87646166D01*
X89890431Y-87671774D01*
X89920923Y-87690221D01*
X89936370Y-87693886D01*
X89978515Y-87681212D01*
X90014808Y-87649471D01*
X90032517Y-87614572D01*
X90049552Y-87588845D01*
X90082922Y-87559546D01*
X90122149Y-87534235D01*
X90156756Y-87520471D01*
X90163993Y-87519714D01*
X90172139Y-87532160D01*
X90172630Y-87563972D01*
X90166643Y-87606866D01*
X90155357Y-87652558D01*
X90139950Y-87692761D01*
X90139171Y-87694322D01*
X90092804Y-87759062D01*
X90032711Y-87803097D01*
X89964465Y-87824711D01*
X89893638Y-87822185D01*
X89825804Y-87793804D01*
X89822788Y-87791808D01*
X89769427Y-87743448D01*
X89734340Y-87680352D01*
X89714922Y-87597387D01*
X89712316Y-87574078D01*
X89707701Y-87464055D01*
X89713233Y-87412748D01*
X89852514Y-87412748D01*
X89854324Y-87444753D01*
X89864222Y-87454093D01*
X89888898Y-87447105D01*
X89927795Y-87430587D01*
X89971275Y-87409881D01*
X89972356Y-87409333D01*
X90009209Y-87389949D01*
X90024000Y-87377013D01*
X90020353Y-87363451D01*
X90004995Y-87345632D01*
X89965923Y-87319845D01*
X89923846Y-87317950D01*
X89886103Y-87336717D01*
X89860034Y-87372915D01*
X89852514Y-87412748D01*
X89713233Y-87412748D01*
X89717194Y-87376027D01*
X89741550Y-87306212D01*
G37*
X89741550Y-87306212D02*
X89775456Y-87257302D01*
X89836653Y-87207878D01*
X89904063Y-87183359D01*
X89972880Y-87181797D01*
X90038303Y-87201239D01*
X90095527Y-87239735D01*
X90139749Y-87295335D01*
X90166167Y-87366086D01*
X90171510Y-87418162D01*
X90170903Y-87439893D01*
X90165822Y-87456531D01*
X90151855Y-87471437D01*
X90124589Y-87487973D01*
X90079612Y-87509498D01*
X90012511Y-87539374D01*
X90012171Y-87539524D01*
X89950407Y-87567813D01*
X89899759Y-87592933D01*
X89865404Y-87612179D01*
X89852518Y-87622848D01*
X89852514Y-87622934D01*
X89863872Y-87646166D01*
X89890431Y-87671774D01*
X89920923Y-87690221D01*
X89936370Y-87693886D01*
X89978515Y-87681212D01*
X90014808Y-87649471D01*
X90032517Y-87614572D01*
X90049552Y-87588845D01*
X90082922Y-87559546D01*
X90122149Y-87534235D01*
X90156756Y-87520471D01*
X90163993Y-87519714D01*
X90172139Y-87532160D01*
X90172630Y-87563972D01*
X90166643Y-87606866D01*
X90155357Y-87652558D01*
X90139950Y-87692761D01*
X90139171Y-87694322D01*
X90092804Y-87759062D01*
X90032711Y-87803097D01*
X89964465Y-87824711D01*
X89893638Y-87822185D01*
X89825804Y-87793804D01*
X89822788Y-87791808D01*
X89769427Y-87743448D01*
X89734340Y-87680352D01*
X89714922Y-87597387D01*
X89712316Y-87574078D01*
X89707701Y-87464055D01*
X89713233Y-87412748D01*
X89852514Y-87412748D01*
X89854324Y-87444753D01*
X89864222Y-87454093D01*
X89888898Y-87447105D01*
X89927795Y-87430587D01*
X89971275Y-87409881D01*
X89972356Y-87409333D01*
X90009209Y-87389949D01*
X90024000Y-87377013D01*
X90020353Y-87363451D01*
X90004995Y-87345632D01*
X89965923Y-87319845D01*
X89923846Y-87317950D01*
X89886103Y-87336717D01*
X89860034Y-87372915D01*
X89852514Y-87412748D01*
X89713233Y-87412748D01*
X89717194Y-87376027D01*
X89741550Y-87306212D01*
%TO.C,kibuzzard-61BA68AC*%
G36*
X113963481Y-85603506D02*
G01*
X114103975Y-85643987D01*
X114220259Y-85715028D01*
X114308763Y-85820200D01*
X114364722Y-85963472D01*
X114383375Y-86148812D01*
X114364722Y-86344075D01*
X114308763Y-86498062D01*
X114225022Y-86611569D01*
X114123025Y-86685387D01*
X114250819Y-86759206D01*
X114354800Y-86866363D01*
X114423856Y-87011619D01*
X114446875Y-87199738D01*
X114446875Y-87260062D01*
X114424650Y-87479931D01*
X114357975Y-87650588D01*
X114253597Y-87776794D01*
X114118263Y-87863313D01*
X113875375Y-87929988D01*
X113699163Y-87929988D01*
X113491200Y-87880775D01*
X113284825Y-87755363D01*
X113164175Y-87587088D01*
X113126075Y-87406113D01*
X113149888Y-87317213D01*
X113221325Y-87294988D01*
X113310225Y-87318800D01*
X113332450Y-87383888D01*
X113353088Y-87496600D01*
X113424525Y-87612488D01*
X113561050Y-87701388D01*
X113776950Y-87736313D01*
X113975388Y-87707341D01*
X114119850Y-87620425D01*
X114207956Y-87472391D01*
X114237325Y-87260062D01*
X114237325Y-87199738D01*
X114206369Y-87010031D01*
X114113500Y-86879063D01*
X113969038Y-86802863D01*
X113783300Y-86777463D01*
X113722975Y-86750475D01*
X113703925Y-86688562D01*
X113722975Y-86625062D01*
X113783300Y-86596487D01*
X113999200Y-86559975D01*
X114134138Y-86434562D01*
X114180175Y-86190087D01*
X114157156Y-86009906D01*
X114088100Y-85882112D01*
X113969038Y-85805912D01*
X113796000Y-85780512D01*
X113591213Y-85813850D01*
X113465800Y-85899575D01*
X113405475Y-86009112D01*
X113389600Y-86120237D01*
X113365788Y-86193262D01*
X113288000Y-86221837D01*
X113221325Y-86212312D01*
X113189575Y-86174212D01*
X113180050Y-86101187D01*
X113207038Y-85947200D01*
X113302288Y-85778925D01*
X113491200Y-85643987D01*
X113629313Y-85603506D01*
X113802350Y-85590012D01*
X113963481Y-85603506D01*
G37*
G36*
X115512881Y-85603506D02*
G01*
X115653375Y-85643987D01*
X115769659Y-85715028D01*
X115858163Y-85820200D01*
X115914122Y-85963472D01*
X115932775Y-86148812D01*
X115914122Y-86344075D01*
X115858163Y-86498062D01*
X115774422Y-86611569D01*
X115672425Y-86685387D01*
X115800219Y-86759206D01*
X115904200Y-86866363D01*
X115973256Y-87011619D01*
X115996275Y-87199738D01*
X115996275Y-87260062D01*
X115974050Y-87479931D01*
X115907375Y-87650588D01*
X115802997Y-87776794D01*
X115667663Y-87863313D01*
X115424775Y-87929988D01*
X115248563Y-87929988D01*
X115040600Y-87880775D01*
X114834225Y-87755363D01*
X114713575Y-87587088D01*
X114675475Y-87406113D01*
X114699288Y-87317213D01*
X114770725Y-87294988D01*
X114859625Y-87318800D01*
X114881850Y-87383888D01*
X114902488Y-87496600D01*
X114973925Y-87612488D01*
X115110450Y-87701388D01*
X115326350Y-87736313D01*
X115524787Y-87707341D01*
X115669250Y-87620425D01*
X115757356Y-87472391D01*
X115786725Y-87260062D01*
X115786725Y-87199738D01*
X115755769Y-87010031D01*
X115662900Y-86879063D01*
X115518438Y-86802863D01*
X115332700Y-86777463D01*
X115272375Y-86750475D01*
X115253325Y-86688562D01*
X115272375Y-86625062D01*
X115332700Y-86596487D01*
X115548600Y-86559975D01*
X115683538Y-86434562D01*
X115729575Y-86190087D01*
X115706556Y-86009906D01*
X115637500Y-85882112D01*
X115518438Y-85805912D01*
X115345400Y-85780512D01*
X115140613Y-85813850D01*
X115015200Y-85899575D01*
X114954875Y-86009112D01*
X114939000Y-86120237D01*
X114915188Y-86193262D01*
X114837400Y-86221837D01*
X114770725Y-86212312D01*
X114738975Y-86174212D01*
X114729450Y-86101187D01*
X114756438Y-85947200D01*
X114851688Y-85778925D01*
X115040600Y-85643987D01*
X115178713Y-85603506D01*
X115351750Y-85590012D01*
X115512881Y-85603506D01*
G37*
G36*
X110219362Y-85610650D02*
G01*
X110284450Y-85590012D01*
X110805150Y-85590012D01*
X110975409Y-85600331D01*
X111130587Y-85631287D01*
X111263144Y-85691216D01*
X111365537Y-85788450D01*
X111431022Y-85931722D01*
X111452850Y-86129762D01*
X111434197Y-86313516D01*
X111378237Y-86464725D01*
X111292116Y-86579422D01*
X111182975Y-86653637D01*
X111354425Y-86758412D01*
X111468725Y-86929863D01*
X111499681Y-87049719D01*
X111510000Y-87199738D01*
X111510000Y-87256888D01*
X111489362Y-87473581D01*
X111427450Y-87641063D01*
X111329819Y-87764094D01*
X111202025Y-87847438D01*
X111051212Y-87895063D01*
X110884525Y-87910938D01*
X110263812Y-87910938D01*
X110216187Y-87887125D01*
X110189200Y-87831563D01*
X110189200Y-87717263D01*
X110398750Y-87717263D01*
X110855950Y-87717263D01*
X111042481Y-87689084D01*
X111182975Y-87604550D01*
X111271081Y-87458897D01*
X111300450Y-87247363D01*
X111300450Y-87193388D01*
X111271081Y-86982250D01*
X111182975Y-86844138D01*
X111042481Y-86767938D01*
X110855950Y-86742537D01*
X110398750Y-86742537D01*
X110398750Y-87717263D01*
X110189200Y-87717263D01*
X110189200Y-86561562D01*
X110398750Y-86561562D01*
X110811500Y-86561562D01*
X111004381Y-86538544D01*
X111138525Y-86469487D01*
X111217106Y-86344075D01*
X111243300Y-86151987D01*
X111186150Y-85923387D01*
X111030575Y-85813850D01*
X110798800Y-85783687D01*
X110398750Y-85783687D01*
X110398750Y-86561562D01*
X110189200Y-86561562D01*
X110189200Y-85669387D01*
X110219362Y-85610650D01*
G37*
G36*
X105499328Y-86045625D02*
G01*
X105564812Y-85872587D01*
X105667206Y-85744000D01*
X105799762Y-85656687D01*
X105957322Y-85606681D01*
X106134725Y-85590012D01*
X106312525Y-85606681D01*
X106471275Y-85656687D01*
X106605419Y-85744000D01*
X106709400Y-85872587D01*
X106776075Y-86045625D01*
X106798300Y-86266287D01*
X106798300Y-87250538D01*
X106776075Y-87473581D01*
X106709400Y-87647413D01*
X106605419Y-87776000D01*
X106471275Y-87863313D01*
X106228387Y-87929988D01*
X106042650Y-87929988D01*
X105801350Y-87863313D01*
X105667603Y-87776000D01*
X105564812Y-87647413D01*
X105499328Y-87473581D01*
X105477500Y-87250538D01*
X105687050Y-87250538D01*
X105716419Y-87468025D01*
X105804525Y-87618838D01*
X105945812Y-87706944D01*
X106134725Y-87736313D01*
X106324431Y-87706944D01*
X106468100Y-87618838D01*
X106558587Y-87468025D01*
X106588750Y-87250538D01*
X106588750Y-86266287D01*
X106558587Y-86051181D01*
X106468100Y-85901162D01*
X106324431Y-85813056D01*
X106134725Y-85783687D01*
X105945812Y-85813056D01*
X105804525Y-85901162D01*
X105716419Y-86051181D01*
X105687050Y-86266287D01*
X105687050Y-87250538D01*
X105477500Y-87250538D01*
X105477500Y-86266287D01*
X105499328Y-86045625D01*
G37*
G36*
X112786350Y-85607475D02*
G01*
X112814925Y-85666212D01*
X112814925Y-87828388D01*
X112781588Y-87890300D01*
X112729200Y-87910938D01*
X112689513Y-87910938D01*
X112637125Y-87890300D01*
X112605375Y-87828388D01*
X112605375Y-85945612D01*
X112478375Y-86151987D01*
X112449800Y-86180562D01*
X112418050Y-86190087D01*
X112359313Y-86161512D01*
X112335500Y-86098012D01*
X112351375Y-86045625D01*
X112383125Y-86002762D01*
X112643475Y-85634462D01*
X112675225Y-85601125D01*
X112722850Y-85586837D01*
X112786350Y-85607475D01*
G37*
G36*
X108128625Y-86404400D02*
G01*
X108177837Y-86442500D01*
X108198475Y-86494887D01*
X108182600Y-86536162D01*
X107766675Y-87152113D01*
X108192125Y-87787113D01*
X108201650Y-87806163D01*
X108204825Y-87831563D01*
X108185775Y-87877600D01*
X108138150Y-87917288D01*
X108081000Y-87933163D01*
X108047662Y-87925225D01*
X108020675Y-87901413D01*
X107633325Y-87307688D01*
X107249150Y-87901413D01*
X107218987Y-87925225D01*
X107192000Y-87933163D01*
X107171362Y-87933163D01*
X107131675Y-87917288D01*
X107082462Y-87877600D01*
X107061825Y-87831563D01*
X107074525Y-87787113D01*
X107496800Y-87152113D01*
X107084050Y-86536162D01*
X107074525Y-86515525D01*
X107068175Y-86494887D01*
X107088812Y-86445675D01*
X107138025Y-86405987D01*
X107195175Y-86390112D01*
X107228512Y-86396462D01*
X107258675Y-86421862D01*
X107633325Y-87002888D01*
X108011150Y-86421862D01*
X108038137Y-86398050D01*
X108071475Y-86390112D01*
X108128625Y-86404400D01*
G37*
G36*
X117510750Y-85615412D02*
G01*
X117542500Y-85669387D01*
X117542500Y-85942437D01*
X117534563Y-85986887D01*
X117510750Y-86034512D01*
X116567775Y-87876013D01*
X116523325Y-87914113D01*
X116482050Y-87914113D01*
X116436013Y-87903000D01*
X116388388Y-87869663D01*
X116370925Y-87815688D01*
X116383625Y-87771238D01*
X117332950Y-85955137D01*
X117332950Y-85783687D01*
X116431250Y-85783687D01*
X116431250Y-86148812D01*
X116399500Y-86204375D01*
X116326475Y-86228187D01*
X116253450Y-86204375D01*
X116221700Y-86148812D01*
X116221700Y-85669387D01*
X116251863Y-85615412D01*
X116316950Y-85590012D01*
X117444075Y-85590012D01*
X117510750Y-85615412D01*
G37*
G36*
X109357350Y-85608269D02*
G01*
X109519275Y-85663037D01*
X109648259Y-85747969D01*
X109743112Y-85856712D01*
X109801453Y-85982919D01*
X109820900Y-86120237D01*
X109793912Y-86221837D01*
X109716125Y-86247237D01*
X109635162Y-86223425D01*
X109611350Y-86167862D01*
X109590712Y-86050387D01*
X109527212Y-85923387D01*
X109393862Y-85823375D01*
X109166850Y-85783687D01*
X108970794Y-85813056D01*
X108827125Y-85901162D01*
X108739019Y-86051181D01*
X108709650Y-86266287D01*
X108709650Y-87250538D01*
X108739416Y-87468025D01*
X108828712Y-87618838D01*
X108975159Y-87706944D01*
X109176375Y-87736313D01*
X109401800Y-87696625D01*
X109527212Y-87598200D01*
X109585950Y-87471200D01*
X109611350Y-87345788D01*
X109639925Y-87283875D01*
X109712950Y-87263238D01*
X109793912Y-87290225D01*
X109820900Y-87393413D01*
X109801056Y-87531128D01*
X109741525Y-87658525D01*
X109645084Y-87768856D01*
X109514512Y-87855375D01*
X109377591Y-87911334D01*
X109262100Y-87929988D01*
X109068425Y-87929988D01*
X108828712Y-87863313D01*
X108693378Y-87776000D01*
X108589000Y-87647413D01*
X108522325Y-87473581D01*
X108500100Y-87250538D01*
X108500100Y-86266287D01*
X108522722Y-86045625D01*
X108590587Y-85872587D01*
X108696156Y-85744000D01*
X108831887Y-85656687D01*
X108990241Y-85606681D01*
X109163675Y-85590012D01*
X109357350Y-85608269D01*
G37*
G36*
X106220450Y-86679037D02*
G01*
X106252200Y-86761588D01*
X106220450Y-86844138D01*
X106137900Y-86879063D01*
X106053762Y-86844138D01*
X106020425Y-86761588D01*
X106053762Y-86679037D01*
X106137900Y-86647287D01*
X106220450Y-86679037D01*
G37*
D12*
%TO.C,G\u002A\u002A\u002A*%
X115590000Y-81790000D02*
G75*
G03*
X115590000Y-81790000I-3800000J0D01*
G01*
%TD*%
%LPC*%
%TO.C,G\u002A\u002A\u002A*%
D13*
X113715000Y-81790000D02*
G75*
G03*
X113715000Y-81790000I-1925000J0D01*
G01*
%TD*%
D14*
%TO.C,MX8*%
X106485479Y-84389521D03*
D15*
X101405479Y-84389521D03*
D14*
X96325479Y-84389521D03*
D16*
X97595479Y-81849521D03*
X103945479Y-79309521D03*
%TD*%
D14*
%TO.C,MX7*%
X87435479Y-84389521D03*
X77275479Y-84389521D03*
D15*
X82355479Y-84389521D03*
D16*
X78545479Y-81849521D03*
X84895479Y-79309521D03*
%TD*%
D14*
%TO.C,MX1*%
X77275479Y-46289521D03*
X87435479Y-46289521D03*
D15*
X82355479Y-46289521D03*
D16*
X78545479Y-43749521D03*
X84895479Y-41209521D03*
%TD*%
D14*
%TO.C,MX6*%
X121475479Y-65339521D03*
D15*
X126555479Y-65339521D03*
D14*
X131635479Y-65339521D03*
D16*
X122745479Y-62799521D03*
X129095479Y-60259521D03*
%TD*%
D17*
%TO.C,U1*%
X86384229Y-36055771D03*
D18*
X88924229Y-36055771D03*
X91464229Y-36055771D03*
X94004229Y-36055771D03*
%TD*%
D15*
%TO.C,MX9*%
X126555479Y-84389521D03*
D14*
X121475479Y-84389521D03*
X131635479Y-84389521D03*
D16*
X122745479Y-81849521D03*
X129095479Y-79309521D03*
%TD*%
D14*
%TO.C,MX4*%
X87435479Y-65339521D03*
D15*
X82355479Y-65339521D03*
D14*
X77275479Y-65339521D03*
D16*
X78545479Y-62799521D03*
X84895479Y-60259521D03*
%TD*%
D19*
%TO.C,MX3*%
X133805479Y-48789521D03*
D20*
X133805479Y-43789521D03*
X133805479Y-46289521D03*
D21*
X126305479Y-51889521D03*
X126305479Y-40689521D03*
D20*
X119305479Y-43789521D03*
X119305479Y-48789521D03*
%TD*%
D14*
%TO.C,MX2*%
X96325479Y-46289521D03*
X106485479Y-46289521D03*
D15*
X101405479Y-46289521D03*
D16*
X97595479Y-43749521D03*
X103945479Y-41209521D03*
%TD*%
D14*
%TO.C,MX5*%
X106485479Y-65339521D03*
D15*
X101405479Y-65339521D03*
D14*
X96325479Y-65339521D03*
D16*
X97595479Y-62799521D03*
X103945479Y-60259521D03*
%TD*%
D22*
%TO.C,J1*%
X112399229Y-40445771D03*
X123639229Y-40445771D03*
D23*
X123639229Y-36445771D03*
X112399229Y-36445771D03*
%TD*%
D24*
%TO.C,J2*%
X123559229Y-54450771D03*
X123559229Y-56990771D03*
X126099229Y-54450771D03*
X126099229Y-56990771D03*
X128639229Y-54450771D03*
X128639229Y-56990771D03*
%TD*%
M02*
