M48
; DRILL file {KiCad 6.0.0} date Fri 07 Jan 2022 07:46:45 PM CET
; FORMAT={-:-/ absolute / metric / decimal}
; #@! TF.CreationDate,2022-01-07T19:46:45+01:00
; #@! TF.GenerationSoftware,Kicad,Pcbnew,6.0.0
; #@! TF.FileFunction,MixedPlating,1,2
FMAT,2
METRIC
; #@! TA.AperFunction,Plated,PTH,ViaDrill
T1C0.300
; #@! TA.AperFunction,Plated,PTH,ComponentDrill
T2C0.300
; #@! TA.AperFunction,Plated,PTH,ViaDrill
T3C0.400
; #@! TA.AperFunction,Plated,PTH,ComponentDrill
T4C0.600
; #@! TA.AperFunction,Plated,PTH,ComponentDrill
T5C1.000
; #@! TA.AperFunction,Plated,PTH,ComponentDrill
T6C1.500
; #@! TA.AperFunction,NonPlated,NPTH,ComponentDrill
T7C1.750
; #@! TA.AperFunction,NonPlated,NPTH,ComponentDrill
T8C4.000
%
G90
G05
T1
X109.654Y-66.968
X109.657Y-65.913
X110.13Y-67.71
X110.172Y-66.438
X110.682Y-68.365
X111.081Y-59.845
X111.41Y-68.375
X111.5Y-60.44
X112.137Y-68.393
X112.271Y-47.8
X112.785Y-48.315
X116.684Y-43.406
X116.946Y-67.144
X117.219Y-44.481
X117.448Y-67.672
X120.981Y-59.262
X123.594Y-58.766
T2
X111.031Y-63.807
X112.693Y-62.145
X112.693Y-63.807
X112.693Y-65.468
X114.354Y-60.483
X114.354Y-62.145
X114.354Y-63.807
X114.354Y-65.468
X114.354Y-67.13
X116.016Y-62.145
X116.016Y-63.807
X116.016Y-65.468
X117.678Y-63.807
T3
X79.64Y-49.52
X86.213Y-88.107
X93.35Y-55.95
X94.63Y-69.02
X97.36Y-70.56
X105.85Y-60.83
X106.69Y-51.42
X109.024Y-58.421
X109.25Y-48.378
X109.924Y-63.496
X110.324Y-59.196
X110.62Y-56.75
X112.37Y-51.08
X112.938Y-68.615
X113.064Y-42.496
X113.301Y-41.46
X113.37Y-49.29
X115.18Y-44.09
X115.412Y-58.646
X116.267Y-48.577
X116.28Y-45.863
X118.024Y-73.096
X118.124Y-60.546
X118.174Y-58.446
X118.284Y-71.056
X118.408Y-66.412
X120.554Y-50.186
X121.514Y-67.326
X122.434Y-89.306
X122.79Y-41.439
X122.978Y-42.521
X122.98Y-52.92
X123.98Y-41.96
X124.384Y-80.236
X125.66Y-47.84
X129.312Y-45.078
X129.316Y-47.498
T5
X86.384Y-36.056
X88.924Y-36.056
X91.464Y-36.056
X94.004Y-36.056
X119.305Y-43.79
X119.305Y-48.79
X123.559Y-54.451
X123.559Y-56.991
X126.099Y-54.451
X126.099Y-56.991
X128.639Y-54.451
X128.639Y-56.991
X133.805Y-43.79
X133.805Y-46.29
X133.805Y-48.79
T6
X78.545Y-43.75
X78.545Y-62.8
X78.545Y-81.85
X84.895Y-41.21
X84.895Y-60.26
X84.895Y-79.31
X97.595Y-43.75
X97.595Y-62.8
X97.595Y-81.85
X103.945Y-41.21
X103.945Y-60.26
X103.945Y-79.31
X122.745Y-62.8
X122.745Y-81.85
X129.095Y-60.26
X129.095Y-79.31
T7
X77.275Y-46.29
X77.275Y-65.34
X77.275Y-84.39
X87.435Y-46.29
X87.435Y-65.34
X87.435Y-84.39
X96.325Y-46.29
X96.325Y-65.34
X96.325Y-84.39
X106.485Y-46.29
X106.485Y-65.34
X106.485Y-84.39
X121.475Y-65.34
X121.475Y-84.39
X131.635Y-65.34
X131.635Y-84.39
T8
X82.355Y-46.29
X82.355Y-65.34
X82.355Y-84.39
X101.405Y-46.29
X101.405Y-65.34
X101.405Y-84.39
X126.555Y-65.34
X126.555Y-84.39
T4
G00X112.399Y-35.846
M15
G01X112.399Y-37.046
M16
G05
G00X112.399Y-40.046
M15
G01X112.399Y-40.846
M16
G05
G00X123.639Y-35.846
M15
G01X123.639Y-37.046
M16
G05
G00X123.639Y-40.046
M15
G01X123.639Y-40.846
M16
G05
T6
G00X126.955Y-40.69
M15
G01X125.655Y-40.69
M16
G05
G00X126.955Y-51.89
M15
G01X125.655Y-51.89
M16
G05
T0
M30
