%TF.GenerationSoftware,KiCad,Pcbnew,6.0.0-rc1-unknown-caf406943e~144~ubuntu21.04.1*%
%TF.CreationDate,2021-12-15T23:35:00+01:00*%
%TF.ProjectId,1337-v4.0,31333337-2d76-4342-9e30-2e6b69636164,4.0*%
%TF.SameCoordinates,Original*%
%TF.FileFunction,Legend,Bot*%
%TF.FilePolarity,Positive*%
%FSLAX46Y46*%
G04 Gerber Fmt 4.6, Leading zero omitted, Abs format (unit mm)*
G04 Created by KiCad (PCBNEW 6.0.0-rc1-unknown-caf406943e~144~ubuntu21.04.1) date 2021-12-15 23:35:00*
%MOMM*%
%LPD*%
G01*
G04 APERTURE LIST*
G04 Aperture macros list*
%AMRoundRect*
0 Rectangle with rounded corners*
0 $1 Rounding radius*
0 $2 $3 $4 $5 $6 $7 $8 $9 X,Y pos of 4 corners*
0 Add a 4 corners polygon primitive as box body*
4,1,4,$2,$3,$4,$5,$6,$7,$8,$9,$2,$3,0*
0 Add four circle primitives for the rounded corners*
1,1,$1+$1,$2,$3*
1,1,$1+$1,$4,$5*
1,1,$1+$1,$6,$7*
1,1,$1+$1,$8,$9*
0 Add four rect primitives between the rounded corners*
20,1,$1+$1,$2,$3,$4,$5,0*
20,1,$1+$1,$4,$5,$6,$7,0*
20,1,$1+$1,$6,$7,$8,$9,0*
20,1,$1+$1,$8,$9,$2,$3,0*%
%AMRotRect*
0 Rectangle, with rotation*
0 The origin of the aperture is its center*
0 $1 length*
0 $2 width*
0 $3 Rotation angle, in degrees counterclockwise*
0 Add horizontal line*
21,1,$1,$2,0,0,$3*%
G04 Aperture macros list end*
%ADD10C,0.150000*%
%ADD11C,0.120000*%
%ADD12C,0.100000*%
%ADD13C,0.010000*%
%ADD14C,3.850000*%
%ADD15C,1.750000*%
%ADD16C,4.000000*%
%ADD17C,2.500000*%
%ADD18RoundRect,0.082000X-0.718000X0.328000X-0.718000X-0.328000X0.718000X-0.328000X0.718000X0.328000X0*%
%ADD19R,1.600000X2.000000*%
%ADD20O,1.600000X2.000000*%
%ADD21R,2.000000X2.000000*%
%ADD22C,2.000000*%
%ADD23R,3.200000X2.000000*%
%ADD24R,0.600000X1.150000*%
%ADD25R,0.300000X1.150000*%
%ADD26O,1.000000X1.800000*%
%ADD27O,1.000000X2.200000*%
%ADD28RoundRect,0.225000X0.225000X0.250000X-0.225000X0.250000X-0.225000X-0.250000X0.225000X-0.250000X0*%
%ADD29RoundRect,0.225000X-0.017678X0.335876X-0.335876X0.017678X0.017678X-0.335876X0.335876X-0.017678X0*%
%ADD30R,1.100000X1.100000*%
%ADD31RoundRect,0.200000X0.275000X-0.200000X0.275000X0.200000X-0.275000X0.200000X-0.275000X-0.200000X0*%
%ADD32RoundRect,0.225000X-0.250000X0.225000X-0.250000X-0.225000X0.250000X-0.225000X0.250000X0.225000X0*%
%ADD33C,1.700000*%
%ADD34RoundRect,0.150000X-0.150000X0.512500X-0.150000X-0.512500X0.150000X-0.512500X0.150000X0.512500X0*%
%ADD35RoundRect,0.170000X-0.255000X-0.330000X0.255000X-0.330000X0.255000X0.330000X-0.255000X0.330000X0*%
%ADD36R,1.500000X1.000000*%
%ADD37RoundRect,0.225000X0.017678X-0.335876X0.335876X-0.017678X-0.017678X0.335876X-0.335876X0.017678X0*%
%ADD38RoundRect,0.170000X-0.330000X0.255000X-0.330000X-0.255000X0.330000X-0.255000X0.330000X0.255000X0*%
%ADD39R,0.800000X0.500000*%
%ADD40R,0.800000X0.400000*%
%ADD41RoundRect,0.200000X-0.275000X0.200000X-0.275000X-0.200000X0.275000X-0.200000X0.275000X0.200000X0*%
%ADD42RoundRect,0.225000X-0.225000X-0.250000X0.225000X-0.250000X0.225000X0.250000X-0.225000X0.250000X0*%
%ADD43RoundRect,0.243750X0.243750X0.456250X-0.243750X0.456250X-0.243750X-0.456250X0.243750X-0.456250X0*%
%ADD44RoundRect,0.062500X0.291682X0.380070X-0.380070X-0.291682X-0.291682X-0.380070X0.380070X0.291682X0*%
%ADD45RoundRect,0.062500X-0.291682X0.380070X-0.380070X0.291682X0.291682X-0.380070X0.380070X-0.291682X0*%
%ADD46RotRect,5.200000X5.200000X225.000000*%
%ADD47RoundRect,0.300000X0.070711X0.494975X-0.494975X-0.070711X-0.070711X-0.494975X0.494975X0.070711X0*%
%ADD48RoundRect,0.225000X0.250000X-0.225000X0.250000X0.225000X-0.250000X0.225000X-0.250000X-0.225000X0*%
%ADD49R,1.700000X1.000000*%
G04 APERTURE END LIST*
D10*
X127525000Y-53310000D02*
X124695000Y-53310000D01*
X124695000Y-53310000D02*
X124695000Y-53120000D01*
X124695000Y-53120000D02*
X127525000Y-53120000D01*
X127525000Y-53120000D02*
X127525000Y-53310000D01*
G36*
X127525000Y-53310000D02*
G01*
X124695000Y-53310000D01*
X124695000Y-53120000D01*
X127525000Y-53120000D01*
X127525000Y-53310000D01*
G37*
X114627619Y-94922380D02*
X114960952Y-94446190D01*
X115199047Y-94922380D02*
X115199047Y-93922380D01*
X114818095Y-93922380D01*
X114722857Y-93970000D01*
X114675238Y-94017619D01*
X114627619Y-94112857D01*
X114627619Y-94255714D01*
X114675238Y-94350952D01*
X114722857Y-94398571D01*
X114818095Y-94446190D01*
X115199047Y-94446190D01*
X114246666Y-94874761D02*
X114103809Y-94922380D01*
X113865714Y-94922380D01*
X113770476Y-94874761D01*
X113722857Y-94827142D01*
X113675238Y-94731904D01*
X113675238Y-94636666D01*
X113722857Y-94541428D01*
X113770476Y-94493809D01*
X113865714Y-94446190D01*
X114056190Y-94398571D01*
X114151428Y-94350952D01*
X114199047Y-94303333D01*
X114246666Y-94208095D01*
X114246666Y-94112857D01*
X114199047Y-94017619D01*
X114151428Y-93970000D01*
X114056190Y-93922380D01*
X113818095Y-93922380D01*
X113675238Y-93970000D01*
X113389523Y-93922380D02*
X112818095Y-93922380D01*
X113103809Y-94922380D02*
X113103809Y-93922380D01*
D11*
X106596190Y-87856190D02*
X106596190Y-87522857D01*
X106596190Y-87618095D02*
X106572380Y-87570476D01*
X106548571Y-87546666D01*
X106500952Y-87522857D01*
X106453333Y-87522857D01*
X106096190Y-87832380D02*
X106143809Y-87856190D01*
X106239047Y-87856190D01*
X106286666Y-87832380D01*
X106310476Y-87784761D01*
X106310476Y-87594285D01*
X106286666Y-87546666D01*
X106239047Y-87522857D01*
X106143809Y-87522857D01*
X106096190Y-87546666D01*
X106072380Y-87594285D01*
X106072380Y-87641904D01*
X106310476Y-87689523D01*
X105905714Y-87522857D02*
X105786666Y-87856190D01*
X105667619Y-87522857D01*
X104881904Y-87522857D02*
X104881904Y-87856190D01*
X105000952Y-87332380D02*
X105120000Y-87689523D01*
X104810476Y-87689523D01*
X104620000Y-87808571D02*
X104596190Y-87832380D01*
X104620000Y-87856190D01*
X104643809Y-87832380D01*
X104620000Y-87808571D01*
X104620000Y-87856190D01*
X104286666Y-87356190D02*
X104239047Y-87356190D01*
X104191428Y-87380000D01*
X104167619Y-87403809D01*
X104143809Y-87451428D01*
X104120000Y-87546666D01*
X104120000Y-87665714D01*
X104143809Y-87760952D01*
X104167619Y-87808571D01*
X104191428Y-87832380D01*
X104239047Y-87856190D01*
X104286666Y-87856190D01*
X104334285Y-87832380D01*
X104358095Y-87808571D01*
X104381904Y-87760952D01*
X104405714Y-87665714D01*
X104405714Y-87546666D01*
X104381904Y-87451428D01*
X104358095Y-87403809D01*
X104334285Y-87380000D01*
X104286666Y-87356190D01*
D10*
X127066190Y-59312380D02*
X127066190Y-58312380D01*
X126637619Y-59264761D02*
X126494761Y-59312380D01*
X126256666Y-59312380D01*
X126161428Y-59264761D01*
X126113809Y-59217142D01*
X126066190Y-59121904D01*
X126066190Y-59026666D01*
X126113809Y-58931428D01*
X126161428Y-58883809D01*
X126256666Y-58836190D01*
X126447142Y-58788571D01*
X126542380Y-58740952D01*
X126590000Y-58693333D01*
X126637619Y-58598095D01*
X126637619Y-58502857D01*
X126590000Y-58407619D01*
X126542380Y-58360000D01*
X126447142Y-58312380D01*
X126209047Y-58312380D01*
X126066190Y-58360000D01*
X125637619Y-59312380D02*
X125637619Y-58312380D01*
X125256666Y-58312380D01*
X125161428Y-58360000D01*
X125113809Y-58407619D01*
X125066190Y-58502857D01*
X125066190Y-58645714D01*
X125113809Y-58740952D01*
X125161428Y-58788571D01*
X125256666Y-58836190D01*
X125637619Y-58836190D01*
%TO.C,U1*%
X86854229Y-39577675D02*
X86901848Y-39672913D01*
X86901848Y-39815771D01*
X86854229Y-39958628D01*
X86758990Y-40053866D01*
X86663752Y-40101485D01*
X86473276Y-40149104D01*
X86330419Y-40149104D01*
X86139943Y-40101485D01*
X86044705Y-40053866D01*
X85949467Y-39958628D01*
X85901848Y-39815771D01*
X85901848Y-39720532D01*
X85949467Y-39577675D01*
X85997086Y-39530056D01*
X86330419Y-39530056D01*
X86330419Y-39720532D01*
X85901848Y-39101485D02*
X86901848Y-39101485D01*
X85901848Y-38530056D01*
X86901848Y-38530056D01*
X85901848Y-38053866D02*
X86901848Y-38053866D01*
X86901848Y-37815771D01*
X86854229Y-37672913D01*
X86758990Y-37577675D01*
X86663752Y-37530056D01*
X86473276Y-37482437D01*
X86330419Y-37482437D01*
X86139943Y-37530056D01*
X86044705Y-37577675D01*
X85949467Y-37672913D01*
X85901848Y-37815771D01*
X85901848Y-38053866D01*
X93669467Y-39990056D02*
X93621848Y-39847199D01*
X93621848Y-39609104D01*
X93669467Y-39513866D01*
X93717086Y-39466247D01*
X93812324Y-39418628D01*
X93907562Y-39418628D01*
X94002800Y-39466247D01*
X94050419Y-39513866D01*
X94098038Y-39609104D01*
X94145657Y-39799580D01*
X94193276Y-39894818D01*
X94240895Y-39942437D01*
X94336133Y-39990056D01*
X94431371Y-39990056D01*
X94526609Y-39942437D01*
X94574229Y-39894818D01*
X94621848Y-39799580D01*
X94621848Y-39561485D01*
X94574229Y-39418628D01*
X93621848Y-38990056D02*
X94621848Y-38990056D01*
X94621848Y-38751961D01*
X94574229Y-38609104D01*
X94478990Y-38513866D01*
X94383752Y-38466247D01*
X94193276Y-38418628D01*
X94050419Y-38418628D01*
X93859943Y-38466247D01*
X93764705Y-38513866D01*
X93669467Y-38609104D01*
X93621848Y-38751961D01*
X93621848Y-38990056D01*
X93907562Y-38037675D02*
X93907562Y-37561485D01*
X93621848Y-38132913D02*
X94621848Y-37799580D01*
X93621848Y-37466247D01*
X89491848Y-40049104D02*
X88491848Y-39715771D01*
X89491848Y-39382437D01*
X88587086Y-38477675D02*
X88539467Y-38525294D01*
X88491848Y-38668151D01*
X88491848Y-38763390D01*
X88539467Y-38906247D01*
X88634705Y-39001485D01*
X88729943Y-39049104D01*
X88920419Y-39096723D01*
X89063276Y-39096723D01*
X89253752Y-39049104D01*
X89348990Y-39001485D01*
X89444229Y-38906247D01*
X89491848Y-38763390D01*
X89491848Y-38668151D01*
X89444229Y-38525294D01*
X89396609Y-38477675D01*
X88587086Y-37477675D02*
X88539467Y-37525294D01*
X88491848Y-37668151D01*
X88491848Y-37763390D01*
X88539467Y-37906247D01*
X88634705Y-38001485D01*
X88729943Y-38049104D01*
X88920419Y-38096723D01*
X89063276Y-38096723D01*
X89253752Y-38049104D01*
X89348990Y-38001485D01*
X89444229Y-37906247D01*
X89491848Y-37763390D01*
X89491848Y-37668151D01*
X89444229Y-37525294D01*
X89396609Y-37477675D01*
X91059467Y-39996247D02*
X91011848Y-39853390D01*
X91011848Y-39615294D01*
X91059467Y-39520056D01*
X91107086Y-39472437D01*
X91202324Y-39424818D01*
X91297562Y-39424818D01*
X91392800Y-39472437D01*
X91440419Y-39520056D01*
X91488038Y-39615294D01*
X91535657Y-39805771D01*
X91583276Y-39901009D01*
X91630895Y-39948628D01*
X91726133Y-39996247D01*
X91821371Y-39996247D01*
X91916609Y-39948628D01*
X91964229Y-39901009D01*
X92011848Y-39805771D01*
X92011848Y-39567675D01*
X91964229Y-39424818D01*
X91107086Y-38424818D02*
X91059467Y-38472437D01*
X91011848Y-38615294D01*
X91011848Y-38710532D01*
X91059467Y-38853390D01*
X91154705Y-38948628D01*
X91249943Y-38996247D01*
X91440419Y-39043866D01*
X91583276Y-39043866D01*
X91773752Y-38996247D01*
X91868990Y-38948628D01*
X91964229Y-38853390D01*
X92011848Y-38710532D01*
X92011848Y-38615294D01*
X91964229Y-38472437D01*
X91916609Y-38424818D01*
X91011848Y-37520056D02*
X91011848Y-37996247D01*
X92011848Y-37996247D01*
D12*
%TO.C,D5*%
X130755479Y-71419520D02*
X129855479Y-72319520D01*
X129855479Y-72319520D02*
X130755479Y-72319520D01*
X130755479Y-72319520D02*
X130755479Y-71419520D01*
G36*
X130755479Y-72319520D02*
G01*
X129855479Y-72319520D01*
X130755479Y-71419520D01*
X130755479Y-72319520D01*
G37*
X130755479Y-72319520D02*
X129855479Y-72319520D01*
X130755479Y-71419520D01*
X130755479Y-72319520D01*
%TO.C,D6*%
X86555479Y-90469520D02*
X85655479Y-91369520D01*
X85655479Y-91369520D02*
X86555479Y-91369520D01*
X86555479Y-91369520D02*
X86555479Y-90469520D01*
G36*
X86555479Y-91369520D02*
G01*
X85655479Y-91369520D01*
X86555479Y-90469520D01*
X86555479Y-91369520D01*
G37*
X86555479Y-91369520D02*
X85655479Y-91369520D01*
X86555479Y-90469520D01*
X86555479Y-91369520D01*
%TO.C,D1*%
X86555479Y-52369520D02*
X85655479Y-53269520D01*
X85655479Y-53269520D02*
X86555479Y-53269520D01*
X86555479Y-53269520D02*
X86555479Y-52369520D01*
G36*
X86555479Y-53269520D02*
G01*
X85655479Y-53269520D01*
X86555479Y-52369520D01*
X86555479Y-53269520D01*
G37*
X86555479Y-53269520D02*
X85655479Y-53269520D01*
X86555479Y-52369520D01*
X86555479Y-53269520D01*
%TO.C,D2*%
X105605479Y-52369520D02*
X104705479Y-53269520D01*
X104705479Y-53269520D02*
X105605479Y-53269520D01*
X105605479Y-53269520D02*
X105605479Y-52369520D01*
G36*
X105605479Y-53269520D02*
G01*
X104705479Y-53269520D01*
X105605479Y-52369520D01*
X105605479Y-53269520D01*
G37*
X105605479Y-53269520D02*
X104705479Y-53269520D01*
X105605479Y-52369520D01*
X105605479Y-53269520D01*
%TO.C,D3*%
X86555479Y-71419520D02*
X85655479Y-72319520D01*
X85655479Y-72319520D02*
X86555479Y-72319520D01*
X86555479Y-72319520D02*
X86555479Y-71419520D01*
G36*
X86555479Y-72319520D02*
G01*
X85655479Y-72319520D01*
X86555479Y-71419520D01*
X86555479Y-72319520D01*
G37*
X86555479Y-72319520D02*
X85655479Y-72319520D01*
X86555479Y-71419520D01*
X86555479Y-72319520D01*
%TO.C,D7*%
X105605479Y-90469520D02*
X104705479Y-91369520D01*
X104705479Y-91369520D02*
X105605479Y-91369520D01*
X105605479Y-91369520D02*
X105605479Y-90469520D01*
G36*
X105605479Y-91369520D02*
G01*
X104705479Y-91369520D01*
X105605479Y-90469520D01*
X105605479Y-91369520D01*
G37*
X105605479Y-91369520D02*
X104705479Y-91369520D01*
X105605479Y-90469520D01*
X105605479Y-91369520D01*
%TO.C,D8*%
X130755479Y-90469520D02*
X129855479Y-91369520D01*
X129855479Y-91369520D02*
X130755479Y-91369520D01*
X130755479Y-91369520D02*
X130755479Y-90469520D01*
G36*
X130755479Y-91369520D02*
G01*
X129855479Y-91369520D01*
X130755479Y-90469520D01*
X130755479Y-91369520D01*
G37*
X130755479Y-91369520D02*
X129855479Y-91369520D01*
X130755479Y-90469520D01*
X130755479Y-91369520D01*
%TO.C,D4*%
X105605479Y-71419520D02*
X104705479Y-72319520D01*
X104705479Y-72319520D02*
X105605479Y-72319520D01*
X105605479Y-72319520D02*
X105605479Y-71419520D01*
G36*
X105605479Y-72319520D02*
G01*
X104705479Y-72319520D01*
X105605479Y-71419520D01*
X105605479Y-72319520D01*
G37*
X105605479Y-72319520D02*
X104705479Y-72319520D01*
X105605479Y-71419520D01*
X105605479Y-72319520D01*
D11*
%TO.C,C10*%
X109114809Y-60185771D02*
X108833649Y-60185771D01*
X109114809Y-61205771D02*
X108833649Y-61205771D01*
%TO.C,C11*%
X123364259Y-67576990D02*
X123165448Y-67775801D01*
X122643010Y-66855741D02*
X122444199Y-67054552D01*
D12*
%TO.C,G\u002A\u002A\u002A*%
X115590000Y-81790000D02*
G75*
G03*
X115590000Y-81790000I-3800000J0D01*
G01*
D11*
%TO.C,C7*%
X109114809Y-58205771D02*
X108833649Y-58205771D01*
X109114809Y-57185771D02*
X108833649Y-57185771D01*
%TO.C,D9*%
X109389229Y-38980771D02*
X109389229Y-42830771D01*
X107389229Y-38980771D02*
X107389229Y-42830771D01*
X107389229Y-38980771D02*
X109389229Y-38980771D01*
%TO.C,R3*%
X117541729Y-50388029D02*
X117541729Y-49913513D01*
X116496729Y-50388029D02*
X116496729Y-49913513D01*
%TO.C,R2*%
X113226729Y-42753029D02*
X113226729Y-42278513D01*
X114271729Y-42753029D02*
X114271729Y-42278513D01*
%TO.C,C12*%
X77314229Y-70255191D02*
X77314229Y-70536351D01*
X78334229Y-70255191D02*
X78334229Y-70536351D01*
%TO.C,C6*%
X78284229Y-51255191D02*
X78284229Y-51536351D01*
X77264229Y-51255191D02*
X77264229Y-51536351D01*
D13*
%TO.C,REF\u002A\u002A*%
X89725124Y-87203072D02*
X89683333Y-87222081D01*
X89683333Y-87222081D02*
X89650531Y-87245115D01*
X89650531Y-87245115D02*
X89626497Y-87270870D01*
X89626497Y-87270870D02*
X89609903Y-87304095D01*
X89609903Y-87304095D02*
X89599423Y-87349537D01*
X89599423Y-87349537D02*
X89593729Y-87411944D01*
X89593729Y-87411944D02*
X89591493Y-87496064D01*
X89591493Y-87496064D02*
X89591257Y-87551458D01*
X89591257Y-87551458D02*
X89591257Y-87767563D01*
X89591257Y-87767563D02*
X89628226Y-87784407D01*
X89628226Y-87784407D02*
X89657344Y-87796718D01*
X89657344Y-87796718D02*
X89671769Y-87801251D01*
X89671769Y-87801251D02*
X89674528Y-87787762D01*
X89674528Y-87787762D02*
X89676718Y-87751390D01*
X89676718Y-87751390D02*
X89678058Y-87698279D01*
X89678058Y-87698279D02*
X89678343Y-87656109D01*
X89678343Y-87656109D02*
X89679566Y-87595184D01*
X89679566Y-87595184D02*
X89682864Y-87546852D01*
X89682864Y-87546852D02*
X89687679Y-87517255D01*
X89687679Y-87517255D02*
X89691504Y-87510966D01*
X89691504Y-87510966D02*
X89717217Y-87517389D01*
X89717217Y-87517389D02*
X89757582Y-87533862D01*
X89757582Y-87533862D02*
X89804321Y-87556195D01*
X89804321Y-87556195D02*
X89849155Y-87580194D01*
X89849155Y-87580194D02*
X89883807Y-87601667D01*
X89883807Y-87601667D02*
X89899998Y-87616422D01*
X89899998Y-87616422D02*
X89900062Y-87616582D01*
X89900062Y-87616582D02*
X89898670Y-87643889D01*
X89898670Y-87643889D02*
X89886182Y-87669956D01*
X89886182Y-87669956D02*
X89864257Y-87691129D01*
X89864257Y-87691129D02*
X89832257Y-87698211D01*
X89832257Y-87698211D02*
X89804908Y-87697386D01*
X89804908Y-87697386D02*
X89766174Y-87696779D01*
X89766174Y-87696779D02*
X89745842Y-87705853D01*
X89745842Y-87705853D02*
X89733631Y-87729829D01*
X89733631Y-87729829D02*
X89732091Y-87734350D01*
X89732091Y-87734350D02*
X89726797Y-87768543D01*
X89726797Y-87768543D02*
X89740953Y-87789305D01*
X89740953Y-87789305D02*
X89777852Y-87799199D01*
X89777852Y-87799199D02*
X89817711Y-87801029D01*
X89817711Y-87801029D02*
X89889438Y-87787464D01*
X89889438Y-87787464D02*
X89926568Y-87768092D01*
X89926568Y-87768092D02*
X89972424Y-87722582D01*
X89972424Y-87722582D02*
X89996744Y-87666720D01*
X89996744Y-87666720D02*
X89998927Y-87607694D01*
X89998927Y-87607694D02*
X89978371Y-87552690D01*
X89978371Y-87552690D02*
X89947451Y-87518223D01*
X89947451Y-87518223D02*
X89916580Y-87498926D01*
X89916580Y-87498926D02*
X89868058Y-87474496D01*
X89868058Y-87474496D02*
X89811515Y-87449722D01*
X89811515Y-87449722D02*
X89802090Y-87445936D01*
X89802090Y-87445936D02*
X89739981Y-87418528D01*
X89739981Y-87418528D02*
X89704178Y-87394371D01*
X89704178Y-87394371D02*
X89692663Y-87370356D01*
X89692663Y-87370356D02*
X89703420Y-87343372D01*
X89703420Y-87343372D02*
X89721886Y-87322280D01*
X89721886Y-87322280D02*
X89765531Y-87296309D01*
X89765531Y-87296309D02*
X89813554Y-87294361D01*
X89813554Y-87294361D02*
X89857594Y-87314374D01*
X89857594Y-87314374D02*
X89889291Y-87354288D01*
X89889291Y-87354288D02*
X89893451Y-87364585D01*
X89893451Y-87364585D02*
X89917673Y-87402461D01*
X89917673Y-87402461D02*
X89953035Y-87430579D01*
X89953035Y-87430579D02*
X89997657Y-87453654D01*
X89997657Y-87453654D02*
X89997657Y-87388222D01*
X89997657Y-87388222D02*
X89995031Y-87348243D01*
X89995031Y-87348243D02*
X89983770Y-87316734D01*
X89983770Y-87316734D02*
X89958801Y-87283115D01*
X89958801Y-87283115D02*
X89934831Y-87257221D01*
X89934831Y-87257221D02*
X89897559Y-87220554D01*
X89897559Y-87220554D02*
X89868599Y-87200858D01*
X89868599Y-87200858D02*
X89837495Y-87192957D01*
X89837495Y-87192957D02*
X89802287Y-87191651D01*
X89802287Y-87191651D02*
X89725124Y-87203072D01*
X89725124Y-87203072D02*
X89725124Y-87203072D01*
G36*
X89837495Y-87192957D02*
G01*
X89868599Y-87200858D01*
X89897559Y-87220554D01*
X89934831Y-87257221D01*
X89958801Y-87283115D01*
X89983770Y-87316734D01*
X89995031Y-87348243D01*
X89997657Y-87388222D01*
X89997657Y-87453654D01*
X89953035Y-87430579D01*
X89917673Y-87402461D01*
X89893451Y-87364585D01*
X89889291Y-87354288D01*
X89857594Y-87314374D01*
X89813554Y-87294361D01*
X89765531Y-87296309D01*
X89721886Y-87322280D01*
X89703420Y-87343372D01*
X89692663Y-87370356D01*
X89704178Y-87394371D01*
X89739981Y-87418528D01*
X89802090Y-87445936D01*
X89811515Y-87449722D01*
X89868058Y-87474496D01*
X89916580Y-87498926D01*
X89947451Y-87518223D01*
X89978371Y-87552690D01*
X89998927Y-87607694D01*
X89996744Y-87666720D01*
X89972424Y-87722582D01*
X89926568Y-87768092D01*
X89889438Y-87787464D01*
X89817711Y-87801029D01*
X89777852Y-87799199D01*
X89740953Y-87789305D01*
X89726797Y-87768543D01*
X89732091Y-87734350D01*
X89733631Y-87729829D01*
X89745842Y-87705853D01*
X89766174Y-87696779D01*
X89804908Y-87697386D01*
X89832257Y-87698211D01*
X89864257Y-87691129D01*
X89886182Y-87669956D01*
X89898670Y-87643889D01*
X89900062Y-87616582D01*
X89899998Y-87616422D01*
X89883807Y-87601667D01*
X89849155Y-87580194D01*
X89804321Y-87556195D01*
X89757582Y-87533862D01*
X89717217Y-87517389D01*
X89691504Y-87510966D01*
X89687679Y-87517255D01*
X89682864Y-87546852D01*
X89679566Y-87595184D01*
X89678343Y-87656109D01*
X89678058Y-87698279D01*
X89676718Y-87751390D01*
X89674528Y-87787762D01*
X89671769Y-87801251D01*
X89657344Y-87796718D01*
X89628226Y-87784407D01*
X89591257Y-87767563D01*
X89591257Y-87551458D01*
X89591493Y-87496064D01*
X89593729Y-87411944D01*
X89599423Y-87349537D01*
X89609903Y-87304095D01*
X89626497Y-87270870D01*
X89650531Y-87245115D01*
X89683333Y-87222081D01*
X89725124Y-87203072D01*
X89802287Y-87191651D01*
X89837495Y-87192957D01*
G37*
X89837495Y-87192957D02*
X89868599Y-87200858D01*
X89897559Y-87220554D01*
X89934831Y-87257221D01*
X89958801Y-87283115D01*
X89983770Y-87316734D01*
X89995031Y-87348243D01*
X89997657Y-87388222D01*
X89997657Y-87453654D01*
X89953035Y-87430579D01*
X89917673Y-87402461D01*
X89893451Y-87364585D01*
X89889291Y-87354288D01*
X89857594Y-87314374D01*
X89813554Y-87294361D01*
X89765531Y-87296309D01*
X89721886Y-87322280D01*
X89703420Y-87343372D01*
X89692663Y-87370356D01*
X89704178Y-87394371D01*
X89739981Y-87418528D01*
X89802090Y-87445936D01*
X89811515Y-87449722D01*
X89868058Y-87474496D01*
X89916580Y-87498926D01*
X89947451Y-87518223D01*
X89978371Y-87552690D01*
X89998927Y-87607694D01*
X89996744Y-87666720D01*
X89972424Y-87722582D01*
X89926568Y-87768092D01*
X89889438Y-87787464D01*
X89817711Y-87801029D01*
X89777852Y-87799199D01*
X89740953Y-87789305D01*
X89726797Y-87768543D01*
X89732091Y-87734350D01*
X89733631Y-87729829D01*
X89745842Y-87705853D01*
X89766174Y-87696779D01*
X89804908Y-87697386D01*
X89832257Y-87698211D01*
X89864257Y-87691129D01*
X89886182Y-87669956D01*
X89898670Y-87643889D01*
X89900062Y-87616582D01*
X89899998Y-87616422D01*
X89883807Y-87601667D01*
X89849155Y-87580194D01*
X89804321Y-87556195D01*
X89757582Y-87533862D01*
X89717217Y-87517389D01*
X89691504Y-87510966D01*
X89687679Y-87517255D01*
X89682864Y-87546852D01*
X89679566Y-87595184D01*
X89678343Y-87656109D01*
X89678058Y-87698279D01*
X89676718Y-87751390D01*
X89674528Y-87787762D01*
X89671769Y-87801251D01*
X89657344Y-87796718D01*
X89628226Y-87784407D01*
X89591257Y-87767563D01*
X89591257Y-87551458D01*
X89591493Y-87496064D01*
X89593729Y-87411944D01*
X89599423Y-87349537D01*
X89609903Y-87304095D01*
X89626497Y-87270870D01*
X89650531Y-87245115D01*
X89683333Y-87222081D01*
X89725124Y-87203072D01*
X89802287Y-87191651D01*
X89837495Y-87192957D01*
X90090167Y-87205400D02*
X90087952Y-87243587D01*
X90087952Y-87243587D02*
X90086216Y-87301623D01*
X90086216Y-87301623D02*
X90085101Y-87374917D01*
X90085101Y-87374917D02*
X90084743Y-87451792D01*
X90084743Y-87451792D02*
X90084743Y-87711933D01*
X90084743Y-87711933D02*
X90130674Y-87757864D01*
X90130674Y-87757864D02*
X90162325Y-87786166D01*
X90162325Y-87786166D02*
X90190110Y-87797630D01*
X90190110Y-87797630D02*
X90228085Y-87796905D01*
X90228085Y-87796905D02*
X90243160Y-87795058D01*
X90243160Y-87795058D02*
X90290274Y-87789685D01*
X90290274Y-87789685D02*
X90329244Y-87786606D01*
X90329244Y-87786606D02*
X90338743Y-87786322D01*
X90338743Y-87786322D02*
X90370767Y-87788182D01*
X90370767Y-87788182D02*
X90416568Y-87792851D01*
X90416568Y-87792851D02*
X90434326Y-87795058D01*
X90434326Y-87795058D02*
X90477943Y-87798472D01*
X90477943Y-87798472D02*
X90507255Y-87791057D01*
X90507255Y-87791057D02*
X90536320Y-87768164D01*
X90536320Y-87768164D02*
X90546812Y-87757864D01*
X90546812Y-87757864D02*
X90592743Y-87711933D01*
X90592743Y-87711933D02*
X90592743Y-87225339D01*
X90592743Y-87225339D02*
X90555774Y-87208495D01*
X90555774Y-87208495D02*
X90523941Y-87196019D01*
X90523941Y-87196019D02*
X90505317Y-87191651D01*
X90505317Y-87191651D02*
X90500542Y-87205455D01*
X90500542Y-87205455D02*
X90496079Y-87244023D01*
X90496079Y-87244023D02*
X90492225Y-87303093D01*
X90492225Y-87303093D02*
X90489278Y-87378400D01*
X90489278Y-87378400D02*
X90487857Y-87442023D01*
X90487857Y-87442023D02*
X90483886Y-87692394D01*
X90483886Y-87692394D02*
X90449241Y-87697293D01*
X90449241Y-87697293D02*
X90417732Y-87693868D01*
X90417732Y-87693868D02*
X90402292Y-87682778D01*
X90402292Y-87682778D02*
X90397977Y-87662045D01*
X90397977Y-87662045D02*
X90394292Y-87617882D01*
X90394292Y-87617882D02*
X90391531Y-87555883D01*
X90391531Y-87555883D02*
X90389988Y-87481646D01*
X90389988Y-87481646D02*
X90389765Y-87443443D01*
X90389765Y-87443443D02*
X90389543Y-87223520D01*
X90389543Y-87223520D02*
X90343834Y-87207586D01*
X90343834Y-87207586D02*
X90311482Y-87196752D01*
X90311482Y-87196752D02*
X90293885Y-87191699D01*
X90293885Y-87191699D02*
X90293377Y-87191651D01*
X90293377Y-87191651D02*
X90291612Y-87205385D01*
X90291612Y-87205385D02*
X90289671Y-87243467D01*
X90289671Y-87243467D02*
X90287718Y-87301219D01*
X90287718Y-87301219D02*
X90285916Y-87373964D01*
X90285916Y-87373964D02*
X90284657Y-87442023D01*
X90284657Y-87442023D02*
X90280686Y-87692394D01*
X90280686Y-87692394D02*
X90193600Y-87692394D01*
X90193600Y-87692394D02*
X90189604Y-87463977D01*
X90189604Y-87463977D02*
X90185608Y-87235559D01*
X90185608Y-87235559D02*
X90143153Y-87213605D01*
X90143153Y-87213605D02*
X90111808Y-87198530D01*
X90111808Y-87198530D02*
X90093256Y-87191688D01*
X90093256Y-87191688D02*
X90092721Y-87191651D01*
X90092721Y-87191651D02*
X90090167Y-87205400D01*
X90090167Y-87205400D02*
X90090167Y-87205400D01*
G36*
X90523941Y-87196019D02*
G01*
X90555774Y-87208495D01*
X90592743Y-87225339D01*
X90592743Y-87711933D01*
X90546812Y-87757864D01*
X90536320Y-87768164D01*
X90507255Y-87791057D01*
X90477943Y-87798472D01*
X90434326Y-87795058D01*
X90416568Y-87792851D01*
X90370767Y-87788182D01*
X90338743Y-87786322D01*
X90329244Y-87786606D01*
X90290274Y-87789685D01*
X90243160Y-87795058D01*
X90228085Y-87796905D01*
X90190110Y-87797630D01*
X90162325Y-87786166D01*
X90130674Y-87757864D01*
X90084743Y-87711933D01*
X90084743Y-87451792D01*
X90085101Y-87374917D01*
X90086216Y-87301623D01*
X90087952Y-87243587D01*
X90090167Y-87205400D01*
X90092721Y-87191651D01*
X90093256Y-87191688D01*
X90111808Y-87198530D01*
X90143153Y-87213605D01*
X90185608Y-87235559D01*
X90189604Y-87463977D01*
X90193600Y-87692394D01*
X90280686Y-87692394D01*
X90284657Y-87442023D01*
X90285916Y-87373964D01*
X90287718Y-87301219D01*
X90289671Y-87243467D01*
X90291612Y-87205385D01*
X90293377Y-87191651D01*
X90293885Y-87191699D01*
X90311482Y-87196752D01*
X90343834Y-87207586D01*
X90389543Y-87223520D01*
X90389765Y-87443443D01*
X90389988Y-87481646D01*
X90391531Y-87555883D01*
X90394292Y-87617882D01*
X90397977Y-87662045D01*
X90402292Y-87682778D01*
X90417732Y-87693868D01*
X90449241Y-87697293D01*
X90483886Y-87692394D01*
X90487857Y-87442023D01*
X90489278Y-87378400D01*
X90492225Y-87303093D01*
X90496079Y-87244023D01*
X90500542Y-87205455D01*
X90505317Y-87191651D01*
X90523941Y-87196019D01*
G37*
X90523941Y-87196019D02*
X90555774Y-87208495D01*
X90592743Y-87225339D01*
X90592743Y-87711933D01*
X90546812Y-87757864D01*
X90536320Y-87768164D01*
X90507255Y-87791057D01*
X90477943Y-87798472D01*
X90434326Y-87795058D01*
X90416568Y-87792851D01*
X90370767Y-87788182D01*
X90338743Y-87786322D01*
X90329244Y-87786606D01*
X90290274Y-87789685D01*
X90243160Y-87795058D01*
X90228085Y-87796905D01*
X90190110Y-87797630D01*
X90162325Y-87786166D01*
X90130674Y-87757864D01*
X90084743Y-87711933D01*
X90084743Y-87451792D01*
X90085101Y-87374917D01*
X90086216Y-87301623D01*
X90087952Y-87243587D01*
X90090167Y-87205400D01*
X90092721Y-87191651D01*
X90093256Y-87191688D01*
X90111808Y-87198530D01*
X90143153Y-87213605D01*
X90185608Y-87235559D01*
X90189604Y-87463977D01*
X90193600Y-87692394D01*
X90280686Y-87692394D01*
X90284657Y-87442023D01*
X90285916Y-87373964D01*
X90287718Y-87301219D01*
X90289671Y-87243467D01*
X90291612Y-87205385D01*
X90293377Y-87191651D01*
X90293885Y-87191699D01*
X90311482Y-87196752D01*
X90343834Y-87207586D01*
X90389543Y-87223520D01*
X90389765Y-87443443D01*
X90389988Y-87481646D01*
X90391531Y-87555883D01*
X90394292Y-87617882D01*
X90397977Y-87662045D01*
X90402292Y-87682778D01*
X90417732Y-87693868D01*
X90449241Y-87697293D01*
X90483886Y-87692394D01*
X90487857Y-87442023D01*
X90489278Y-87378400D01*
X90492225Y-87303093D01*
X90496079Y-87244023D01*
X90500542Y-87205455D01*
X90505317Y-87191651D01*
X90523941Y-87196019D01*
X91766090Y-82489085D02*
X91687546Y-82489515D01*
X91687546Y-82489515D02*
X91630702Y-82490679D01*
X91630702Y-82490679D02*
X91591895Y-82492944D01*
X91591895Y-82492944D02*
X91567462Y-82496677D01*
X91567462Y-82496677D02*
X91553738Y-82502243D01*
X91553738Y-82502243D02*
X91547060Y-82510010D01*
X91547060Y-82510010D02*
X91543764Y-82520342D01*
X91543764Y-82520342D02*
X91543444Y-82521680D01*
X91543444Y-82521680D02*
X91538438Y-82545816D01*
X91538438Y-82545816D02*
X91529171Y-82593438D01*
X91529171Y-82593438D02*
X91516608Y-82659478D01*
X91516608Y-82659478D02*
X91501713Y-82738865D01*
X91501713Y-82738865D02*
X91485449Y-82826533D01*
X91485449Y-82826533D02*
X91484881Y-82829612D01*
X91484881Y-82829612D02*
X91468590Y-82915526D01*
X91468590Y-82915526D02*
X91453348Y-82991433D01*
X91453348Y-82991433D02*
X91440139Y-83052782D01*
X91440139Y-83052782D02*
X91429946Y-83095019D01*
X91429946Y-83095019D02*
X91423752Y-83113592D01*
X91423752Y-83113592D02*
X91423457Y-83113921D01*
X91423457Y-83113921D02*
X91405212Y-83122990D01*
X91405212Y-83122990D02*
X91367595Y-83138104D01*
X91367595Y-83138104D02*
X91318729Y-83155999D01*
X91318729Y-83155999D02*
X91318457Y-83156095D01*
X91318457Y-83156095D02*
X91256907Y-83179230D01*
X91256907Y-83179230D02*
X91184343Y-83208702D01*
X91184343Y-83208702D02*
X91115943Y-83238334D01*
X91115943Y-83238334D02*
X91112706Y-83239799D01*
X91112706Y-83239799D02*
X91001298Y-83290363D01*
X91001298Y-83290363D02*
X90754601Y-83121897D01*
X90754601Y-83121897D02*
X90678923Y-83070540D01*
X90678923Y-83070540D02*
X90610369Y-83024626D01*
X90610369Y-83024626D02*
X90552912Y-82986767D01*
X90552912Y-82986767D02*
X90510524Y-82959574D01*
X90510524Y-82959574D02*
X90487175Y-82945658D01*
X90487175Y-82945658D02*
X90484958Y-82944626D01*
X90484958Y-82944626D02*
X90467990Y-82949221D01*
X90467990Y-82949221D02*
X90436299Y-82971392D01*
X90436299Y-82971392D02*
X90388648Y-83012184D01*
X90388648Y-83012184D02*
X90323802Y-83072642D01*
X90323802Y-83072642D02*
X90257603Y-83136964D01*
X90257603Y-83136964D02*
X90193786Y-83200349D01*
X90193786Y-83200349D02*
X90136671Y-83258188D01*
X90136671Y-83258188D02*
X90089695Y-83306912D01*
X90089695Y-83306912D02*
X90056297Y-83342947D01*
X90056297Y-83342947D02*
X90039915Y-83362721D01*
X90039915Y-83362721D02*
X90039306Y-83363739D01*
X90039306Y-83363739D02*
X90037495Y-83377309D01*
X90037495Y-83377309D02*
X90044317Y-83399470D01*
X90044317Y-83399470D02*
X90061460Y-83433215D01*
X90061460Y-83433215D02*
X90090607Y-83481537D01*
X90090607Y-83481537D02*
X90133445Y-83547429D01*
X90133445Y-83547429D02*
X90190552Y-83632254D01*
X90190552Y-83632254D02*
X90241234Y-83706914D01*
X90241234Y-83706914D02*
X90286539Y-83773877D01*
X90286539Y-83773877D02*
X90323850Y-83829253D01*
X90323850Y-83829253D02*
X90350548Y-83869157D01*
X90350548Y-83869157D02*
X90364015Y-83889699D01*
X90364015Y-83889699D02*
X90364863Y-83891093D01*
X90364863Y-83891093D02*
X90363219Y-83910775D01*
X90363219Y-83910775D02*
X90350755Y-83949030D01*
X90350755Y-83949030D02*
X90329952Y-83998626D01*
X90329952Y-83998626D02*
X90322538Y-84014465D01*
X90322538Y-84014465D02*
X90290186Y-84085027D01*
X90290186Y-84085027D02*
X90255672Y-84165090D01*
X90255672Y-84165090D02*
X90227635Y-84234366D01*
X90227635Y-84234366D02*
X90207432Y-84285782D01*
X90207432Y-84285782D02*
X90191385Y-84324856D01*
X90191385Y-84324856D02*
X90182112Y-84345278D01*
X90182112Y-84345278D02*
X90180959Y-84346851D01*
X90180959Y-84346851D02*
X90163904Y-84349458D01*
X90163904Y-84349458D02*
X90123702Y-84356600D01*
X90123702Y-84356600D02*
X90065698Y-84367260D01*
X90065698Y-84367260D02*
X89995237Y-84380422D01*
X89995237Y-84380422D02*
X89917665Y-84395070D01*
X89917665Y-84395070D02*
X89838328Y-84410186D01*
X89838328Y-84410186D02*
X89762569Y-84424755D01*
X89762569Y-84424755D02*
X89695736Y-84437759D01*
X89695736Y-84437759D02*
X89643172Y-84448182D01*
X89643172Y-84448182D02*
X89610224Y-84455007D01*
X89610224Y-84455007D02*
X89602143Y-84456936D01*
X89602143Y-84456936D02*
X89593795Y-84461699D01*
X89593795Y-84461699D02*
X89587494Y-84472455D01*
X89587494Y-84472455D02*
X89582955Y-84492835D01*
X89582955Y-84492835D02*
X89579896Y-84526471D01*
X89579896Y-84526471D02*
X89578033Y-84576992D01*
X89578033Y-84576992D02*
X89577082Y-84648029D01*
X89577082Y-84648029D02*
X89576760Y-84743213D01*
X89576760Y-84743213D02*
X89576743Y-84782229D01*
X89576743Y-84782229D02*
X89576743Y-85099536D01*
X89576743Y-85099536D02*
X89652943Y-85114576D01*
X89652943Y-85114576D02*
X89695337Y-85122732D01*
X89695337Y-85122732D02*
X89758600Y-85134636D01*
X89758600Y-85134636D02*
X89835038Y-85148853D01*
X89835038Y-85148853D02*
X89916957Y-85163947D01*
X89916957Y-85163947D02*
X89939600Y-85168092D01*
X89939600Y-85168092D02*
X90015194Y-85182790D01*
X90015194Y-85182790D02*
X90081047Y-85197242D01*
X90081047Y-85197242D02*
X90131634Y-85210112D01*
X90131634Y-85210112D02*
X90161426Y-85220059D01*
X90161426Y-85220059D02*
X90166388Y-85223024D01*
X90166388Y-85223024D02*
X90178574Y-85244020D01*
X90178574Y-85244020D02*
X90196047Y-85284704D01*
X90196047Y-85284704D02*
X90215423Y-85337059D01*
X90215423Y-85337059D02*
X90219266Y-85348337D01*
X90219266Y-85348337D02*
X90244661Y-85418260D01*
X90244661Y-85418260D02*
X90276183Y-85497155D01*
X90276183Y-85497155D02*
X90307031Y-85568003D01*
X90307031Y-85568003D02*
X90307183Y-85568332D01*
X90307183Y-85568332D02*
X90358553Y-85679470D01*
X90358553Y-85679470D02*
X90189601Y-85927990D01*
X90189601Y-85927990D02*
X90020648Y-86176509D01*
X90020648Y-86176509D02*
X90237571Y-86393795D01*
X90237571Y-86393795D02*
X90303181Y-86458463D01*
X90303181Y-86458463D02*
X90363021Y-86515470D01*
X90363021Y-86515470D02*
X90413733Y-86561770D01*
X90413733Y-86561770D02*
X90451954Y-86594321D01*
X90451954Y-86594321D02*
X90474325Y-86610080D01*
X90474325Y-86610080D02*
X90477534Y-86611080D01*
X90477534Y-86611080D02*
X90496374Y-86603206D01*
X90496374Y-86603206D02*
X90534820Y-86581315D01*
X90534820Y-86581315D02*
X90588670Y-86548004D01*
X90588670Y-86548004D02*
X90653724Y-86505868D01*
X90653724Y-86505868D02*
X90724060Y-86458680D01*
X90724060Y-86458680D02*
X90795445Y-86410547D01*
X90795445Y-86410547D02*
X90859092Y-86368665D01*
X90859092Y-86368665D02*
X90910959Y-86335608D01*
X90910959Y-86335608D02*
X90947005Y-86313955D01*
X90947005Y-86313955D02*
X90963133Y-86306280D01*
X90963133Y-86306280D02*
X90982811Y-86312774D01*
X90982811Y-86312774D02*
X91020125Y-86329887D01*
X91020125Y-86329887D02*
X91067379Y-86354063D01*
X91067379Y-86354063D02*
X91072388Y-86356750D01*
X91072388Y-86356750D02*
X91136023Y-86388664D01*
X91136023Y-86388664D02*
X91179659Y-86404316D01*
X91179659Y-86404316D02*
X91206798Y-86404482D01*
X91206798Y-86404482D02*
X91220943Y-86389941D01*
X91220943Y-86389941D02*
X91221025Y-86389737D01*
X91221025Y-86389737D02*
X91228095Y-86372516D01*
X91228095Y-86372516D02*
X91244958Y-86331636D01*
X91244958Y-86331636D02*
X91270305Y-86270262D01*
X91270305Y-86270262D02*
X91302829Y-86191556D01*
X91302829Y-86191556D02*
X91341222Y-86098684D01*
X91341222Y-86098684D02*
X91384178Y-85994809D01*
X91384178Y-85994809D02*
X91425778Y-85894239D01*
X91425778Y-85894239D02*
X91471496Y-85783253D01*
X91471496Y-85783253D02*
X91513474Y-85680440D01*
X91513474Y-85680440D02*
X91550452Y-85588952D01*
X91550452Y-85588952D02*
X91581173Y-85511938D01*
X91581173Y-85511938D02*
X91604378Y-85452552D01*
X91604378Y-85452552D02*
X91618810Y-85413946D01*
X91618810Y-85413946D02*
X91623257Y-85399537D01*
X91623257Y-85399537D02*
X91612104Y-85383009D01*
X91612104Y-85383009D02*
X91582931Y-85356667D01*
X91582931Y-85356667D02*
X91544029Y-85327624D01*
X91544029Y-85327624D02*
X91433243Y-85235776D01*
X91433243Y-85235776D02*
X91346649Y-85130496D01*
X91346649Y-85130496D02*
X91285284Y-85014003D01*
X91285284Y-85014003D02*
X91250185Y-84888513D01*
X91250185Y-84888513D02*
X91242392Y-84756244D01*
X91242392Y-84756244D02*
X91248057Y-84695194D01*
X91248057Y-84695194D02*
X91278922Y-84568532D01*
X91278922Y-84568532D02*
X91332080Y-84456678D01*
X91332080Y-84456678D02*
X91404233Y-84360738D01*
X91404233Y-84360738D02*
X91492083Y-84281813D01*
X91492083Y-84281813D02*
X91592335Y-84221007D01*
X91592335Y-84221007D02*
X91701690Y-84179424D01*
X91701690Y-84179424D02*
X91816853Y-84158165D01*
X91816853Y-84158165D02*
X91934525Y-84158336D01*
X91934525Y-84158336D02*
X92051410Y-84181038D01*
X92051410Y-84181038D02*
X92164211Y-84227375D01*
X92164211Y-84227375D02*
X92269631Y-84298450D01*
X92269631Y-84298450D02*
X92313632Y-84338648D01*
X92313632Y-84338648D02*
X92398021Y-84441866D01*
X92398021Y-84441866D02*
X92456778Y-84554662D01*
X92456778Y-84554662D02*
X92490296Y-84673747D01*
X92490296Y-84673747D02*
X92498965Y-84795832D01*
X92498965Y-84795832D02*
X92483177Y-84917630D01*
X92483177Y-84917630D02*
X92443322Y-85035853D01*
X92443322Y-85035853D02*
X92379793Y-85147212D01*
X92379793Y-85147212D02*
X92292979Y-85248421D01*
X92292979Y-85248421D02*
X92195971Y-85327624D01*
X92195971Y-85327624D02*
X92155563Y-85357899D01*
X92155563Y-85357899D02*
X92127018Y-85383956D01*
X92127018Y-85383956D02*
X92116743Y-85399562D01*
X92116743Y-85399562D02*
X92122123Y-85416580D01*
X92122123Y-85416580D02*
X92137425Y-85457237D01*
X92137425Y-85457237D02*
X92161388Y-85518379D01*
X92161388Y-85518379D02*
X92192756Y-85596856D01*
X92192756Y-85596856D02*
X92230268Y-85689517D01*
X92230268Y-85689517D02*
X92272667Y-85793209D01*
X92272667Y-85793209D02*
X92314337Y-85894263D01*
X92314337Y-85894263D02*
X92360310Y-86005344D01*
X92360310Y-86005344D02*
X92402893Y-86108278D01*
X92402893Y-86108278D02*
X92440779Y-86199902D01*
X92440779Y-86199902D02*
X92472660Y-86277053D01*
X92472660Y-86277053D02*
X92497229Y-86336568D01*
X92497229Y-86336568D02*
X92513180Y-86375281D01*
X92513180Y-86375281D02*
X92519090Y-86389737D01*
X92519090Y-86389737D02*
X92533052Y-86404422D01*
X92533052Y-86404422D02*
X92560060Y-86404379D01*
X92560060Y-86404379D02*
X92603587Y-86388836D01*
X92603587Y-86388836D02*
X92667110Y-86357021D01*
X92667110Y-86357021D02*
X92667612Y-86356750D01*
X92667612Y-86356750D02*
X92715440Y-86332060D01*
X92715440Y-86332060D02*
X92754103Y-86314075D01*
X92754103Y-86314075D02*
X92775905Y-86306351D01*
X92775905Y-86306351D02*
X92776867Y-86306280D01*
X92776867Y-86306280D02*
X92793279Y-86314115D01*
X92793279Y-86314115D02*
X92829513Y-86335902D01*
X92829513Y-86335902D02*
X92881526Y-86369065D01*
X92881526Y-86369065D02*
X92945275Y-86411028D01*
X92945275Y-86411028D02*
X93015940Y-86458680D01*
X93015940Y-86458680D02*
X93087884Y-86506928D01*
X93087884Y-86506928D02*
X93152726Y-86548888D01*
X93152726Y-86548888D02*
X93206265Y-86581964D01*
X93206265Y-86581964D02*
X93244303Y-86603558D01*
X93244303Y-86603558D02*
X93262467Y-86611080D01*
X93262467Y-86611080D02*
X93279192Y-86601194D01*
X93279192Y-86601194D02*
X93312820Y-86573563D01*
X93312820Y-86573563D02*
X93359990Y-86531232D01*
X93359990Y-86531232D02*
X93417342Y-86477242D01*
X93417342Y-86477242D02*
X93481516Y-86414636D01*
X93481516Y-86414636D02*
X93502503Y-86393720D01*
X93502503Y-86393720D02*
X93719501Y-86176360D01*
X93719501Y-86176360D02*
X93554332Y-85933957D01*
X93554332Y-85933957D02*
X93504136Y-85859518D01*
X93504136Y-85859518D02*
X93460081Y-85792709D01*
X93460081Y-85792709D02*
X93424638Y-85737402D01*
X93424638Y-85737402D02*
X93400281Y-85697466D01*
X93400281Y-85697466D02*
X93389478Y-85676773D01*
X93389478Y-85676773D02*
X93389162Y-85675300D01*
X93389162Y-85675300D02*
X93394857Y-85655795D01*
X93394857Y-85655795D02*
X93410174Y-85616559D01*
X93410174Y-85616559D02*
X93432463Y-85564167D01*
X93432463Y-85564167D02*
X93448107Y-85529092D01*
X93448107Y-85529092D02*
X93477359Y-85461938D01*
X93477359Y-85461938D02*
X93504906Y-85394095D01*
X93504906Y-85394095D02*
X93526263Y-85336771D01*
X93526263Y-85336771D02*
X93532065Y-85319309D01*
X93532065Y-85319309D02*
X93548548Y-85272675D01*
X93548548Y-85272675D02*
X93564660Y-85236642D01*
X93564660Y-85236642D02*
X93573510Y-85223024D01*
X93573510Y-85223024D02*
X93593040Y-85214689D01*
X93593040Y-85214689D02*
X93635666Y-85202874D01*
X93635666Y-85202874D02*
X93695855Y-85188918D01*
X93695855Y-85188918D02*
X93768078Y-85174159D01*
X93768078Y-85174159D02*
X93800400Y-85168092D01*
X93800400Y-85168092D02*
X93882478Y-85153010D01*
X93882478Y-85153010D02*
X93961205Y-85138406D01*
X93961205Y-85138406D02*
X94028891Y-85125717D01*
X94028891Y-85125717D02*
X94077840Y-85116379D01*
X94077840Y-85116379D02*
X94087057Y-85114576D01*
X94087057Y-85114576D02*
X94163257Y-85099536D01*
X94163257Y-85099536D02*
X94163257Y-84782229D01*
X94163257Y-84782229D02*
X94163086Y-84677891D01*
X94163086Y-84677891D02*
X94162384Y-84598950D01*
X94162384Y-84598950D02*
X94160866Y-84541775D01*
X94160866Y-84541775D02*
X94158251Y-84502736D01*
X94158251Y-84502736D02*
X94154254Y-84478202D01*
X94154254Y-84478202D02*
X94148591Y-84464542D01*
X94148591Y-84464542D02*
X94140980Y-84458126D01*
X94140980Y-84458126D02*
X94137857Y-84456936D01*
X94137857Y-84456936D02*
X94119022Y-84452717D01*
X94119022Y-84452717D02*
X94077412Y-84444299D01*
X94077412Y-84444299D02*
X94018370Y-84432698D01*
X94018370Y-84432698D02*
X93947243Y-84418932D01*
X93947243Y-84418932D02*
X93869375Y-84404017D01*
X93869375Y-84404017D02*
X93790113Y-84388969D01*
X93790113Y-84388969D02*
X93714802Y-84374806D01*
X93714802Y-84374806D02*
X93648787Y-84362543D01*
X93648787Y-84362543D02*
X93597413Y-84353198D01*
X93597413Y-84353198D02*
X93566025Y-84347787D01*
X93566025Y-84347787D02*
X93559041Y-84346851D01*
X93559041Y-84346851D02*
X93552715Y-84334333D01*
X93552715Y-84334333D02*
X93538710Y-84300983D01*
X93538710Y-84300983D02*
X93519645Y-84253114D01*
X93519645Y-84253114D02*
X93512366Y-84234366D01*
X93512366Y-84234366D02*
X93483004Y-84161932D01*
X93483004Y-84161932D02*
X93448429Y-84081907D01*
X93448429Y-84081907D02*
X93417463Y-84014465D01*
X93417463Y-84014465D02*
X93394677Y-83962896D01*
X93394677Y-83962896D02*
X93379518Y-83920522D01*
X93379518Y-83920522D02*
X93374458Y-83894571D01*
X93374458Y-83894571D02*
X93375264Y-83891093D01*
X93375264Y-83891093D02*
X93385959Y-83874673D01*
X93385959Y-83874673D02*
X93410380Y-83838154D01*
X93410380Y-83838154D02*
X93445905Y-83785424D01*
X93445905Y-83785424D02*
X93489913Y-83720372D01*
X93489913Y-83720372D02*
X93539783Y-83646888D01*
X93539783Y-83646888D02*
X93549644Y-83632382D01*
X93549644Y-83632382D02*
X93607508Y-83546441D01*
X93607508Y-83546441D02*
X93650044Y-83480998D01*
X93650044Y-83480998D02*
X93678946Y-83433041D01*
X93678946Y-83433041D02*
X93695910Y-83399557D01*
X93695910Y-83399557D02*
X93702633Y-83377532D01*
X93702633Y-83377532D02*
X93700810Y-83363954D01*
X93700810Y-83363954D02*
X93700764Y-83363868D01*
X93700764Y-83363868D02*
X93686414Y-83346034D01*
X93686414Y-83346034D02*
X93654677Y-83311554D01*
X93654677Y-83311554D02*
X93608990Y-83264005D01*
X93608990Y-83264005D02*
X93552796Y-83206959D01*
X93552796Y-83206959D02*
X93489532Y-83143992D01*
X93489532Y-83143992D02*
X93482398Y-83136964D01*
X93482398Y-83136964D02*
X93402670Y-83059757D01*
X93402670Y-83059757D02*
X93341143Y-83003067D01*
X93341143Y-83003067D02*
X93296579Y-82965847D01*
X93296579Y-82965847D02*
X93267743Y-82947052D01*
X93267743Y-82947052D02*
X93255042Y-82944626D01*
X93255042Y-82944626D02*
X93236506Y-82955208D01*
X93236506Y-82955208D02*
X93198039Y-82979653D01*
X93198039Y-82979653D02*
X93143614Y-83015349D01*
X93143614Y-83015349D02*
X93077202Y-83059684D01*
X93077202Y-83059684D02*
X93002775Y-83110048D01*
X93002775Y-83110048D02*
X92985399Y-83121897D01*
X92985399Y-83121897D02*
X92738703Y-83290363D01*
X92738703Y-83290363D02*
X92627294Y-83239799D01*
X92627294Y-83239799D02*
X92559543Y-83210332D01*
X92559543Y-83210332D02*
X92486817Y-83180696D01*
X92486817Y-83180696D02*
X92424297Y-83157067D01*
X92424297Y-83157067D02*
X92421543Y-83156095D01*
X92421543Y-83156095D02*
X92372640Y-83138194D01*
X92372640Y-83138194D02*
X92334943Y-83123057D01*
X92334943Y-83123057D02*
X92316575Y-83113947D01*
X92316575Y-83113947D02*
X92316544Y-83113921D01*
X92316544Y-83113921D02*
X92310715Y-83097454D01*
X92310715Y-83097454D02*
X92300808Y-83056956D01*
X92300808Y-83056956D02*
X92287805Y-82996979D01*
X92287805Y-82996979D02*
X92272691Y-82922077D01*
X92272691Y-82922077D02*
X92256448Y-82836801D01*
X92256448Y-82836801D02*
X92255119Y-82829612D01*
X92255119Y-82829612D02*
X92238825Y-82741751D01*
X92238825Y-82741751D02*
X92223867Y-82661997D01*
X92223867Y-82661997D02*
X92211209Y-82595418D01*
X92211209Y-82595418D02*
X92201814Y-82547084D01*
X92201814Y-82547084D02*
X92196646Y-82522062D01*
X92196646Y-82522062D02*
X92196556Y-82521680D01*
X92196556Y-82521680D02*
X92193411Y-82511036D01*
X92193411Y-82511036D02*
X92187296Y-82502999D01*
X92187296Y-82502999D02*
X92174547Y-82497204D01*
X92174547Y-82497204D02*
X92151500Y-82493284D01*
X92151500Y-82493284D02*
X92114491Y-82490872D01*
X92114491Y-82490872D02*
X92059856Y-82489602D01*
X92059856Y-82489602D02*
X91983933Y-82489108D01*
X91983933Y-82489108D02*
X91883056Y-82489023D01*
X91883056Y-82489023D02*
X91870000Y-82489023D01*
X91870000Y-82489023D02*
X91766090Y-82489085D01*
X91766090Y-82489085D02*
X91766090Y-82489085D01*
G36*
X91983933Y-82489108D02*
G01*
X92059856Y-82489602D01*
X92114491Y-82490872D01*
X92151500Y-82493284D01*
X92174547Y-82497204D01*
X92187296Y-82502999D01*
X92193411Y-82511036D01*
X92196556Y-82521680D01*
X92196646Y-82522062D01*
X92201814Y-82547084D01*
X92211209Y-82595418D01*
X92223867Y-82661997D01*
X92238825Y-82741751D01*
X92255119Y-82829612D01*
X92256448Y-82836801D01*
X92272691Y-82922077D01*
X92287805Y-82996979D01*
X92300808Y-83056956D01*
X92310715Y-83097454D01*
X92316544Y-83113921D01*
X92316575Y-83113947D01*
X92334943Y-83123057D01*
X92372640Y-83138194D01*
X92421543Y-83156095D01*
X92424297Y-83157067D01*
X92486817Y-83180696D01*
X92559543Y-83210332D01*
X92627294Y-83239799D01*
X92738703Y-83290363D01*
X92985399Y-83121897D01*
X93002775Y-83110048D01*
X93077202Y-83059684D01*
X93143614Y-83015349D01*
X93198039Y-82979653D01*
X93236506Y-82955208D01*
X93255042Y-82944626D01*
X93267743Y-82947052D01*
X93296579Y-82965847D01*
X93341143Y-83003067D01*
X93402670Y-83059757D01*
X93482398Y-83136964D01*
X93489532Y-83143992D01*
X93552796Y-83206959D01*
X93608990Y-83264005D01*
X93654677Y-83311554D01*
X93686414Y-83346034D01*
X93700764Y-83363868D01*
X93700810Y-83363954D01*
X93702633Y-83377532D01*
X93695910Y-83399557D01*
X93678946Y-83433041D01*
X93650044Y-83480998D01*
X93607508Y-83546441D01*
X93549644Y-83632382D01*
X93539783Y-83646888D01*
X93489913Y-83720372D01*
X93445905Y-83785424D01*
X93410380Y-83838154D01*
X93385959Y-83874673D01*
X93375264Y-83891093D01*
X93374458Y-83894571D01*
X93379518Y-83920522D01*
X93394677Y-83962896D01*
X93417463Y-84014465D01*
X93448429Y-84081907D01*
X93483004Y-84161932D01*
X93512366Y-84234366D01*
X93519645Y-84253114D01*
X93538710Y-84300983D01*
X93552715Y-84334333D01*
X93559041Y-84346851D01*
X93566025Y-84347787D01*
X93597413Y-84353198D01*
X93648787Y-84362543D01*
X93714802Y-84374806D01*
X93790113Y-84388969D01*
X93869375Y-84404017D01*
X93947243Y-84418932D01*
X94018370Y-84432698D01*
X94077412Y-84444299D01*
X94119022Y-84452717D01*
X94137857Y-84456936D01*
X94140980Y-84458126D01*
X94148591Y-84464542D01*
X94154254Y-84478202D01*
X94158251Y-84502736D01*
X94160866Y-84541775D01*
X94162384Y-84598950D01*
X94163086Y-84677891D01*
X94163257Y-84782229D01*
X94163257Y-85099536D01*
X94087057Y-85114576D01*
X94077840Y-85116379D01*
X94028891Y-85125717D01*
X93961205Y-85138406D01*
X93882478Y-85153010D01*
X93800400Y-85168092D01*
X93768078Y-85174159D01*
X93695855Y-85188918D01*
X93635666Y-85202874D01*
X93593040Y-85214689D01*
X93573510Y-85223024D01*
X93564660Y-85236642D01*
X93548548Y-85272675D01*
X93532065Y-85319309D01*
X93526263Y-85336771D01*
X93504906Y-85394095D01*
X93477359Y-85461938D01*
X93448107Y-85529092D01*
X93432463Y-85564167D01*
X93410174Y-85616559D01*
X93394857Y-85655795D01*
X93389162Y-85675300D01*
X93389478Y-85676773D01*
X93400281Y-85697466D01*
X93424638Y-85737402D01*
X93460081Y-85792709D01*
X93504136Y-85859518D01*
X93554332Y-85933957D01*
X93719501Y-86176360D01*
X93502503Y-86393720D01*
X93481516Y-86414636D01*
X93417342Y-86477242D01*
X93359990Y-86531232D01*
X93312820Y-86573563D01*
X93279192Y-86601194D01*
X93262467Y-86611080D01*
X93244303Y-86603558D01*
X93206265Y-86581964D01*
X93152726Y-86548888D01*
X93087884Y-86506928D01*
X93015940Y-86458680D01*
X92945275Y-86411028D01*
X92881526Y-86369065D01*
X92829513Y-86335902D01*
X92793279Y-86314115D01*
X92776867Y-86306280D01*
X92775905Y-86306351D01*
X92754103Y-86314075D01*
X92715440Y-86332060D01*
X92667612Y-86356750D01*
X92667110Y-86357021D01*
X92603587Y-86388836D01*
X92560060Y-86404379D01*
X92533052Y-86404422D01*
X92519090Y-86389737D01*
X92513180Y-86375281D01*
X92497229Y-86336568D01*
X92472660Y-86277053D01*
X92440779Y-86199902D01*
X92402893Y-86108278D01*
X92360310Y-86005344D01*
X92314337Y-85894263D01*
X92272667Y-85793209D01*
X92230268Y-85689517D01*
X92192756Y-85596856D01*
X92161388Y-85518379D01*
X92137425Y-85457237D01*
X92122123Y-85416580D01*
X92116743Y-85399562D01*
X92127018Y-85383956D01*
X92155563Y-85357899D01*
X92195971Y-85327624D01*
X92292979Y-85248421D01*
X92379793Y-85147212D01*
X92443322Y-85035853D01*
X92483177Y-84917630D01*
X92498965Y-84795832D01*
X92490296Y-84673747D01*
X92456778Y-84554662D01*
X92398021Y-84441866D01*
X92313632Y-84338648D01*
X92269631Y-84298450D01*
X92164211Y-84227375D01*
X92051410Y-84181038D01*
X91934525Y-84158336D01*
X91816853Y-84158165D01*
X91701690Y-84179424D01*
X91592335Y-84221007D01*
X91492083Y-84281813D01*
X91404233Y-84360738D01*
X91332080Y-84456678D01*
X91278922Y-84568532D01*
X91248057Y-84695194D01*
X91242392Y-84756244D01*
X91250185Y-84888513D01*
X91285284Y-85014003D01*
X91346649Y-85130496D01*
X91433243Y-85235776D01*
X91544029Y-85327624D01*
X91582931Y-85356667D01*
X91612104Y-85383009D01*
X91623257Y-85399537D01*
X91618810Y-85413946D01*
X91604378Y-85452552D01*
X91581173Y-85511938D01*
X91550452Y-85588952D01*
X91513474Y-85680440D01*
X91471496Y-85783253D01*
X91425778Y-85894239D01*
X91384178Y-85994809D01*
X91341222Y-86098684D01*
X91302829Y-86191556D01*
X91270305Y-86270262D01*
X91244958Y-86331636D01*
X91228095Y-86372516D01*
X91221025Y-86389737D01*
X91220943Y-86389941D01*
X91206798Y-86404482D01*
X91179659Y-86404316D01*
X91136023Y-86388664D01*
X91072388Y-86356750D01*
X91067379Y-86354063D01*
X91020125Y-86329887D01*
X90982811Y-86312774D01*
X90963133Y-86306280D01*
X90947005Y-86313955D01*
X90910959Y-86335608D01*
X90859092Y-86368665D01*
X90795445Y-86410547D01*
X90724060Y-86458680D01*
X90653724Y-86505868D01*
X90588670Y-86548004D01*
X90534820Y-86581315D01*
X90496374Y-86603206D01*
X90477534Y-86611080D01*
X90474325Y-86610080D01*
X90451954Y-86594321D01*
X90413733Y-86561770D01*
X90363021Y-86515470D01*
X90303181Y-86458463D01*
X90237571Y-86393795D01*
X90020648Y-86176509D01*
X90189601Y-85927990D01*
X90358553Y-85679470D01*
X90307183Y-85568332D01*
X90307031Y-85568003D01*
X90276183Y-85497155D01*
X90244661Y-85418260D01*
X90219266Y-85348337D01*
X90215423Y-85337059D01*
X90196047Y-85284704D01*
X90178574Y-85244020D01*
X90166388Y-85223024D01*
X90161426Y-85220059D01*
X90131634Y-85210112D01*
X90081047Y-85197242D01*
X90015194Y-85182790D01*
X89939600Y-85168092D01*
X89916957Y-85163947D01*
X89835038Y-85148853D01*
X89758600Y-85134636D01*
X89695337Y-85122732D01*
X89652943Y-85114576D01*
X89576743Y-85099536D01*
X89576743Y-84782229D01*
X89576760Y-84743213D01*
X89577082Y-84648029D01*
X89578033Y-84576992D01*
X89579896Y-84526471D01*
X89582955Y-84492835D01*
X89587494Y-84472455D01*
X89593795Y-84461699D01*
X89602143Y-84456936D01*
X89610224Y-84455007D01*
X89643172Y-84448182D01*
X89695736Y-84437759D01*
X89762569Y-84424755D01*
X89838328Y-84410186D01*
X89917665Y-84395070D01*
X89995237Y-84380422D01*
X90065698Y-84367260D01*
X90123702Y-84356600D01*
X90163904Y-84349458D01*
X90180959Y-84346851D01*
X90182112Y-84345278D01*
X90191385Y-84324856D01*
X90207432Y-84285782D01*
X90227635Y-84234366D01*
X90255672Y-84165090D01*
X90290186Y-84085027D01*
X90322538Y-84014465D01*
X90329952Y-83998626D01*
X90350755Y-83949030D01*
X90363219Y-83910775D01*
X90364863Y-83891093D01*
X90364015Y-83889699D01*
X90350548Y-83869157D01*
X90323850Y-83829253D01*
X90286539Y-83773877D01*
X90241234Y-83706914D01*
X90190552Y-83632254D01*
X90133445Y-83547429D01*
X90090607Y-83481537D01*
X90061460Y-83433215D01*
X90044317Y-83399470D01*
X90037495Y-83377309D01*
X90039306Y-83363739D01*
X90039915Y-83362721D01*
X90056297Y-83342947D01*
X90089695Y-83306912D01*
X90136671Y-83258188D01*
X90193786Y-83200349D01*
X90257603Y-83136964D01*
X90323802Y-83072642D01*
X90388648Y-83012184D01*
X90436299Y-82971392D01*
X90467990Y-82949221D01*
X90484958Y-82944626D01*
X90487175Y-82945658D01*
X90510524Y-82959574D01*
X90552912Y-82986767D01*
X90610369Y-83024626D01*
X90678923Y-83070540D01*
X90754601Y-83121897D01*
X91001298Y-83290363D01*
X91112706Y-83239799D01*
X91115943Y-83238334D01*
X91184343Y-83208702D01*
X91256907Y-83179230D01*
X91318457Y-83156095D01*
X91318729Y-83155999D01*
X91367595Y-83138104D01*
X91405212Y-83122990D01*
X91423457Y-83113921D01*
X91423752Y-83113592D01*
X91429946Y-83095019D01*
X91440139Y-83052782D01*
X91453348Y-82991433D01*
X91468590Y-82915526D01*
X91484881Y-82829612D01*
X91485449Y-82826533D01*
X91501713Y-82738865D01*
X91516608Y-82659478D01*
X91529171Y-82593438D01*
X91538438Y-82545816D01*
X91543444Y-82521680D01*
X91543764Y-82520342D01*
X91547060Y-82510010D01*
X91553738Y-82502243D01*
X91567462Y-82496677D01*
X91591895Y-82492944D01*
X91630702Y-82490679D01*
X91687546Y-82489515D01*
X91766090Y-82489085D01*
X91870000Y-82489023D01*
X91883056Y-82489023D01*
X91983933Y-82489108D01*
G37*
X91983933Y-82489108D02*
X92059856Y-82489602D01*
X92114491Y-82490872D01*
X92151500Y-82493284D01*
X92174547Y-82497204D01*
X92187296Y-82502999D01*
X92193411Y-82511036D01*
X92196556Y-82521680D01*
X92196646Y-82522062D01*
X92201814Y-82547084D01*
X92211209Y-82595418D01*
X92223867Y-82661997D01*
X92238825Y-82741751D01*
X92255119Y-82829612D01*
X92256448Y-82836801D01*
X92272691Y-82922077D01*
X92287805Y-82996979D01*
X92300808Y-83056956D01*
X92310715Y-83097454D01*
X92316544Y-83113921D01*
X92316575Y-83113947D01*
X92334943Y-83123057D01*
X92372640Y-83138194D01*
X92421543Y-83156095D01*
X92424297Y-83157067D01*
X92486817Y-83180696D01*
X92559543Y-83210332D01*
X92627294Y-83239799D01*
X92738703Y-83290363D01*
X92985399Y-83121897D01*
X93002775Y-83110048D01*
X93077202Y-83059684D01*
X93143614Y-83015349D01*
X93198039Y-82979653D01*
X93236506Y-82955208D01*
X93255042Y-82944626D01*
X93267743Y-82947052D01*
X93296579Y-82965847D01*
X93341143Y-83003067D01*
X93402670Y-83059757D01*
X93482398Y-83136964D01*
X93489532Y-83143992D01*
X93552796Y-83206959D01*
X93608990Y-83264005D01*
X93654677Y-83311554D01*
X93686414Y-83346034D01*
X93700764Y-83363868D01*
X93700810Y-83363954D01*
X93702633Y-83377532D01*
X93695910Y-83399557D01*
X93678946Y-83433041D01*
X93650044Y-83480998D01*
X93607508Y-83546441D01*
X93549644Y-83632382D01*
X93539783Y-83646888D01*
X93489913Y-83720372D01*
X93445905Y-83785424D01*
X93410380Y-83838154D01*
X93385959Y-83874673D01*
X93375264Y-83891093D01*
X93374458Y-83894571D01*
X93379518Y-83920522D01*
X93394677Y-83962896D01*
X93417463Y-84014465D01*
X93448429Y-84081907D01*
X93483004Y-84161932D01*
X93512366Y-84234366D01*
X93519645Y-84253114D01*
X93538710Y-84300983D01*
X93552715Y-84334333D01*
X93559041Y-84346851D01*
X93566025Y-84347787D01*
X93597413Y-84353198D01*
X93648787Y-84362543D01*
X93714802Y-84374806D01*
X93790113Y-84388969D01*
X93869375Y-84404017D01*
X93947243Y-84418932D01*
X94018370Y-84432698D01*
X94077412Y-84444299D01*
X94119022Y-84452717D01*
X94137857Y-84456936D01*
X94140980Y-84458126D01*
X94148591Y-84464542D01*
X94154254Y-84478202D01*
X94158251Y-84502736D01*
X94160866Y-84541775D01*
X94162384Y-84598950D01*
X94163086Y-84677891D01*
X94163257Y-84782229D01*
X94163257Y-85099536D01*
X94087057Y-85114576D01*
X94077840Y-85116379D01*
X94028891Y-85125717D01*
X93961205Y-85138406D01*
X93882478Y-85153010D01*
X93800400Y-85168092D01*
X93768078Y-85174159D01*
X93695855Y-85188918D01*
X93635666Y-85202874D01*
X93593040Y-85214689D01*
X93573510Y-85223024D01*
X93564660Y-85236642D01*
X93548548Y-85272675D01*
X93532065Y-85319309D01*
X93526263Y-85336771D01*
X93504906Y-85394095D01*
X93477359Y-85461938D01*
X93448107Y-85529092D01*
X93432463Y-85564167D01*
X93410174Y-85616559D01*
X93394857Y-85655795D01*
X93389162Y-85675300D01*
X93389478Y-85676773D01*
X93400281Y-85697466D01*
X93424638Y-85737402D01*
X93460081Y-85792709D01*
X93504136Y-85859518D01*
X93554332Y-85933957D01*
X93719501Y-86176360D01*
X93502503Y-86393720D01*
X93481516Y-86414636D01*
X93417342Y-86477242D01*
X93359990Y-86531232D01*
X93312820Y-86573563D01*
X93279192Y-86601194D01*
X93262467Y-86611080D01*
X93244303Y-86603558D01*
X93206265Y-86581964D01*
X93152726Y-86548888D01*
X93087884Y-86506928D01*
X93015940Y-86458680D01*
X92945275Y-86411028D01*
X92881526Y-86369065D01*
X92829513Y-86335902D01*
X92793279Y-86314115D01*
X92776867Y-86306280D01*
X92775905Y-86306351D01*
X92754103Y-86314075D01*
X92715440Y-86332060D01*
X92667612Y-86356750D01*
X92667110Y-86357021D01*
X92603587Y-86388836D01*
X92560060Y-86404379D01*
X92533052Y-86404422D01*
X92519090Y-86389737D01*
X92513180Y-86375281D01*
X92497229Y-86336568D01*
X92472660Y-86277053D01*
X92440779Y-86199902D01*
X92402893Y-86108278D01*
X92360310Y-86005344D01*
X92314337Y-85894263D01*
X92272667Y-85793209D01*
X92230268Y-85689517D01*
X92192756Y-85596856D01*
X92161388Y-85518379D01*
X92137425Y-85457237D01*
X92122123Y-85416580D01*
X92116743Y-85399562D01*
X92127018Y-85383956D01*
X92155563Y-85357899D01*
X92195971Y-85327624D01*
X92292979Y-85248421D01*
X92379793Y-85147212D01*
X92443322Y-85035853D01*
X92483177Y-84917630D01*
X92498965Y-84795832D01*
X92490296Y-84673747D01*
X92456778Y-84554662D01*
X92398021Y-84441866D01*
X92313632Y-84338648D01*
X92269631Y-84298450D01*
X92164211Y-84227375D01*
X92051410Y-84181038D01*
X91934525Y-84158336D01*
X91816853Y-84158165D01*
X91701690Y-84179424D01*
X91592335Y-84221007D01*
X91492083Y-84281813D01*
X91404233Y-84360738D01*
X91332080Y-84456678D01*
X91278922Y-84568532D01*
X91248057Y-84695194D01*
X91242392Y-84756244D01*
X91250185Y-84888513D01*
X91285284Y-85014003D01*
X91346649Y-85130496D01*
X91433243Y-85235776D01*
X91544029Y-85327624D01*
X91582931Y-85356667D01*
X91612104Y-85383009D01*
X91623257Y-85399537D01*
X91618810Y-85413946D01*
X91604378Y-85452552D01*
X91581173Y-85511938D01*
X91550452Y-85588952D01*
X91513474Y-85680440D01*
X91471496Y-85783253D01*
X91425778Y-85894239D01*
X91384178Y-85994809D01*
X91341222Y-86098684D01*
X91302829Y-86191556D01*
X91270305Y-86270262D01*
X91244958Y-86331636D01*
X91228095Y-86372516D01*
X91221025Y-86389737D01*
X91220943Y-86389941D01*
X91206798Y-86404482D01*
X91179659Y-86404316D01*
X91136023Y-86388664D01*
X91072388Y-86356750D01*
X91067379Y-86354063D01*
X91020125Y-86329887D01*
X90982811Y-86312774D01*
X90963133Y-86306280D01*
X90947005Y-86313955D01*
X90910959Y-86335608D01*
X90859092Y-86368665D01*
X90795445Y-86410547D01*
X90724060Y-86458680D01*
X90653724Y-86505868D01*
X90588670Y-86548004D01*
X90534820Y-86581315D01*
X90496374Y-86603206D01*
X90477534Y-86611080D01*
X90474325Y-86610080D01*
X90451954Y-86594321D01*
X90413733Y-86561770D01*
X90363021Y-86515470D01*
X90303181Y-86458463D01*
X90237571Y-86393795D01*
X90020648Y-86176509D01*
X90189601Y-85927990D01*
X90358553Y-85679470D01*
X90307183Y-85568332D01*
X90307031Y-85568003D01*
X90276183Y-85497155D01*
X90244661Y-85418260D01*
X90219266Y-85348337D01*
X90215423Y-85337059D01*
X90196047Y-85284704D01*
X90178574Y-85244020D01*
X90166388Y-85223024D01*
X90161426Y-85220059D01*
X90131634Y-85210112D01*
X90081047Y-85197242D01*
X90015194Y-85182790D01*
X89939600Y-85168092D01*
X89916957Y-85163947D01*
X89835038Y-85148853D01*
X89758600Y-85134636D01*
X89695337Y-85122732D01*
X89652943Y-85114576D01*
X89576743Y-85099536D01*
X89576743Y-84782229D01*
X89576760Y-84743213D01*
X89577082Y-84648029D01*
X89578033Y-84576992D01*
X89579896Y-84526471D01*
X89582955Y-84492835D01*
X89587494Y-84472455D01*
X89593795Y-84461699D01*
X89602143Y-84456936D01*
X89610224Y-84455007D01*
X89643172Y-84448182D01*
X89695736Y-84437759D01*
X89762569Y-84424755D01*
X89838328Y-84410186D01*
X89917665Y-84395070D01*
X89995237Y-84380422D01*
X90065698Y-84367260D01*
X90123702Y-84356600D01*
X90163904Y-84349458D01*
X90180959Y-84346851D01*
X90182112Y-84345278D01*
X90191385Y-84324856D01*
X90207432Y-84285782D01*
X90227635Y-84234366D01*
X90255672Y-84165090D01*
X90290186Y-84085027D01*
X90322538Y-84014465D01*
X90329952Y-83998626D01*
X90350755Y-83949030D01*
X90363219Y-83910775D01*
X90364863Y-83891093D01*
X90364015Y-83889699D01*
X90350548Y-83869157D01*
X90323850Y-83829253D01*
X90286539Y-83773877D01*
X90241234Y-83706914D01*
X90190552Y-83632254D01*
X90133445Y-83547429D01*
X90090607Y-83481537D01*
X90061460Y-83433215D01*
X90044317Y-83399470D01*
X90037495Y-83377309D01*
X90039306Y-83363739D01*
X90039915Y-83362721D01*
X90056297Y-83342947D01*
X90089695Y-83306912D01*
X90136671Y-83258188D01*
X90193786Y-83200349D01*
X90257603Y-83136964D01*
X90323802Y-83072642D01*
X90388648Y-83012184D01*
X90436299Y-82971392D01*
X90467990Y-82949221D01*
X90484958Y-82944626D01*
X90487175Y-82945658D01*
X90510524Y-82959574D01*
X90552912Y-82986767D01*
X90610369Y-83024626D01*
X90678923Y-83070540D01*
X90754601Y-83121897D01*
X91001298Y-83290363D01*
X91112706Y-83239799D01*
X91115943Y-83238334D01*
X91184343Y-83208702D01*
X91256907Y-83179230D01*
X91318457Y-83156095D01*
X91318729Y-83155999D01*
X91367595Y-83138104D01*
X91405212Y-83122990D01*
X91423457Y-83113921D01*
X91423752Y-83113592D01*
X91429946Y-83095019D01*
X91440139Y-83052782D01*
X91453348Y-82991433D01*
X91468590Y-82915526D01*
X91484881Y-82829612D01*
X91485449Y-82826533D01*
X91501713Y-82738865D01*
X91516608Y-82659478D01*
X91529171Y-82593438D01*
X91538438Y-82545816D01*
X91543444Y-82521680D01*
X91543764Y-82520342D01*
X91547060Y-82510010D01*
X91553738Y-82502243D01*
X91567462Y-82496677D01*
X91591895Y-82492944D01*
X91630702Y-82490679D01*
X91687546Y-82489515D01*
X91766090Y-82489085D01*
X91870000Y-82489023D01*
X91883056Y-82489023D01*
X91983933Y-82489108D01*
X92494114Y-87098026D02*
X92489861Y-87157350D01*
X92489861Y-87157350D02*
X92484975Y-87192309D01*
X92484975Y-87192309D02*
X92478205Y-87207557D01*
X92478205Y-87207557D02*
X92468298Y-87207752D01*
X92468298Y-87207752D02*
X92465086Y-87205932D01*
X92465086Y-87205932D02*
X92422356Y-87192752D01*
X92422356Y-87192752D02*
X92366773Y-87193522D01*
X92366773Y-87193522D02*
X92310263Y-87207070D01*
X92310263Y-87207070D02*
X92274918Y-87224598D01*
X92274918Y-87224598D02*
X92238679Y-87252598D01*
X92238679Y-87252598D02*
X92212187Y-87284286D01*
X92212187Y-87284286D02*
X92194001Y-87324550D01*
X92194001Y-87324550D02*
X92182678Y-87378280D01*
X92182678Y-87378280D02*
X92176778Y-87450363D01*
X92176778Y-87450363D02*
X92174857Y-87545688D01*
X92174857Y-87545688D02*
X92174823Y-87563974D01*
X92174823Y-87563974D02*
X92174800Y-87769383D01*
X92174800Y-87769383D02*
X92220509Y-87785317D01*
X92220509Y-87785317D02*
X92252973Y-87796157D01*
X92252973Y-87796157D02*
X92270785Y-87801205D01*
X92270785Y-87801205D02*
X92271309Y-87801251D01*
X92271309Y-87801251D02*
X92273063Y-87787565D01*
X92273063Y-87787565D02*
X92274556Y-87749813D01*
X92274556Y-87749813D02*
X92275674Y-87692961D01*
X92275674Y-87692961D02*
X92276303Y-87621971D01*
X92276303Y-87621971D02*
X92276400Y-87578810D01*
X92276400Y-87578810D02*
X92276602Y-87493710D01*
X92276602Y-87493710D02*
X92277642Y-87432718D01*
X92277642Y-87432718D02*
X92280169Y-87390914D01*
X92280169Y-87390914D02*
X92284836Y-87363379D01*
X92284836Y-87363379D02*
X92292293Y-87345193D01*
X92292293Y-87345193D02*
X92303189Y-87331435D01*
X92303189Y-87331435D02*
X92309993Y-87324810D01*
X92309993Y-87324810D02*
X92356728Y-87298112D01*
X92356728Y-87298112D02*
X92407728Y-87296112D01*
X92407728Y-87296112D02*
X92453999Y-87318692D01*
X92453999Y-87318692D02*
X92462556Y-87326844D01*
X92462556Y-87326844D02*
X92475107Y-87342173D01*
X92475107Y-87342173D02*
X92483812Y-87360355D01*
X92483812Y-87360355D02*
X92489369Y-87386646D01*
X92489369Y-87386646D02*
X92492474Y-87426299D01*
X92492474Y-87426299D02*
X92493824Y-87484569D01*
X92493824Y-87484569D02*
X92494114Y-87564910D01*
X92494114Y-87564910D02*
X92494114Y-87769383D01*
X92494114Y-87769383D02*
X92539823Y-87785317D01*
X92539823Y-87785317D02*
X92572287Y-87796157D01*
X92572287Y-87796157D02*
X92590099Y-87801205D01*
X92590099Y-87801205D02*
X92590623Y-87801251D01*
X92590623Y-87801251D02*
X92591963Y-87787360D01*
X92591963Y-87787360D02*
X92593172Y-87748176D01*
X92593172Y-87748176D02*
X92594199Y-87687437D01*
X92594199Y-87687437D02*
X92594998Y-87608878D01*
X92594998Y-87608878D02*
X92595519Y-87516235D01*
X92595519Y-87516235D02*
X92595714Y-87413246D01*
X92595714Y-87413246D02*
X92595714Y-87016079D01*
X92595714Y-87016079D02*
X92548543Y-86996181D01*
X92548543Y-86996181D02*
X92501371Y-86976284D01*
X92501371Y-86976284D02*
X92494114Y-87098026D01*
X92494114Y-87098026D02*
X92494114Y-87098026D01*
G36*
X92548543Y-86996181D02*
G01*
X92595714Y-87016079D01*
X92595714Y-87413246D01*
X92595519Y-87516235D01*
X92594998Y-87608878D01*
X92594199Y-87687437D01*
X92593172Y-87748176D01*
X92591963Y-87787360D01*
X92590623Y-87801251D01*
X92590099Y-87801205D01*
X92572287Y-87796157D01*
X92539823Y-87785317D01*
X92494114Y-87769383D01*
X92494114Y-87564910D01*
X92493824Y-87484569D01*
X92492474Y-87426299D01*
X92489369Y-87386646D01*
X92483812Y-87360355D01*
X92475107Y-87342173D01*
X92462556Y-87326844D01*
X92453999Y-87318692D01*
X92407728Y-87296112D01*
X92356728Y-87298112D01*
X92309993Y-87324810D01*
X92303189Y-87331435D01*
X92292293Y-87345193D01*
X92284836Y-87363379D01*
X92280169Y-87390914D01*
X92277642Y-87432718D01*
X92276602Y-87493710D01*
X92276400Y-87578810D01*
X92276303Y-87621971D01*
X92275674Y-87692961D01*
X92274556Y-87749813D01*
X92273063Y-87787565D01*
X92271309Y-87801251D01*
X92270785Y-87801205D01*
X92252973Y-87796157D01*
X92220509Y-87785317D01*
X92174800Y-87769383D01*
X92174823Y-87563974D01*
X92174857Y-87545688D01*
X92176778Y-87450363D01*
X92182678Y-87378280D01*
X92194001Y-87324550D01*
X92212187Y-87284286D01*
X92238679Y-87252598D01*
X92274918Y-87224598D01*
X92310263Y-87207070D01*
X92366773Y-87193522D01*
X92422356Y-87192752D01*
X92465086Y-87205932D01*
X92468298Y-87207752D01*
X92478205Y-87207557D01*
X92484975Y-87192309D01*
X92489861Y-87157350D01*
X92494114Y-87098026D01*
X92501371Y-86976284D01*
X92548543Y-86996181D01*
G37*
X92548543Y-86996181D02*
X92595714Y-87016079D01*
X92595714Y-87413246D01*
X92595519Y-87516235D01*
X92594998Y-87608878D01*
X92594199Y-87687437D01*
X92593172Y-87748176D01*
X92591963Y-87787360D01*
X92590623Y-87801251D01*
X92590099Y-87801205D01*
X92572287Y-87796157D01*
X92539823Y-87785317D01*
X92494114Y-87769383D01*
X92494114Y-87564910D01*
X92493824Y-87484569D01*
X92492474Y-87426299D01*
X92489369Y-87386646D01*
X92483812Y-87360355D01*
X92475107Y-87342173D01*
X92462556Y-87326844D01*
X92453999Y-87318692D01*
X92407728Y-87296112D01*
X92356728Y-87298112D01*
X92309993Y-87324810D01*
X92303189Y-87331435D01*
X92292293Y-87345193D01*
X92284836Y-87363379D01*
X92280169Y-87390914D01*
X92277642Y-87432718D01*
X92276602Y-87493710D01*
X92276400Y-87578810D01*
X92276303Y-87621971D01*
X92275674Y-87692961D01*
X92274556Y-87749813D01*
X92273063Y-87787565D01*
X92271309Y-87801251D01*
X92270785Y-87801205D01*
X92252973Y-87796157D01*
X92220509Y-87785317D01*
X92174800Y-87769383D01*
X92174823Y-87563974D01*
X92174857Y-87545688D01*
X92176778Y-87450363D01*
X92182678Y-87378280D01*
X92194001Y-87324550D01*
X92212187Y-87284286D01*
X92238679Y-87252598D01*
X92274918Y-87224598D01*
X92310263Y-87207070D01*
X92366773Y-87193522D01*
X92422356Y-87192752D01*
X92465086Y-87205932D01*
X92468298Y-87207752D01*
X92478205Y-87207557D01*
X92484975Y-87192309D01*
X92489861Y-87157350D01*
X92494114Y-87098026D01*
X92501371Y-86976284D01*
X92548543Y-86996181D01*
X94828885Y-87168699D02*
X94760855Y-87204470D01*
X94760855Y-87204470D02*
X94710649Y-87262038D01*
X94710649Y-87262038D02*
X94692815Y-87299049D01*
X94692815Y-87299049D02*
X94678937Y-87354619D01*
X94678937Y-87354619D02*
X94671833Y-87424833D01*
X94671833Y-87424833D02*
X94671160Y-87501464D01*
X94671160Y-87501464D02*
X94676573Y-87576289D01*
X94676573Y-87576289D02*
X94687730Y-87641079D01*
X94687730Y-87641079D02*
X94704286Y-87687610D01*
X94704286Y-87687610D02*
X94709374Y-87695624D01*
X94709374Y-87695624D02*
X94769645Y-87755444D01*
X94769645Y-87755444D02*
X94841231Y-87791272D01*
X94841231Y-87791272D02*
X94918908Y-87801757D01*
X94918908Y-87801757D02*
X94997452Y-87785547D01*
X94997452Y-87785547D02*
X95019311Y-87775829D01*
X95019311Y-87775829D02*
X95061878Y-87745880D01*
X95061878Y-87745880D02*
X95099237Y-87706170D01*
X95099237Y-87706170D02*
X95102768Y-87701134D01*
X95102768Y-87701134D02*
X95117119Y-87676861D01*
X95117119Y-87676861D02*
X95126606Y-87650915D01*
X95126606Y-87650915D02*
X95132210Y-87616759D01*
X95132210Y-87616759D02*
X95134914Y-87567856D01*
X95134914Y-87567856D02*
X95135701Y-87497672D01*
X95135701Y-87497672D02*
X95135714Y-87481937D01*
X95135714Y-87481937D02*
X95135678Y-87476929D01*
X95135678Y-87476929D02*
X94990571Y-87476929D01*
X94990571Y-87476929D02*
X94989727Y-87543167D01*
X94989727Y-87543167D02*
X94986404Y-87587123D01*
X94986404Y-87587123D02*
X94979417Y-87615516D01*
X94979417Y-87615516D02*
X94967584Y-87635062D01*
X94967584Y-87635062D02*
X94961543Y-87641594D01*
X94961543Y-87641594D02*
X94926814Y-87666417D01*
X94926814Y-87666417D02*
X94893097Y-87665285D01*
X94893097Y-87665285D02*
X94859005Y-87643753D01*
X94859005Y-87643753D02*
X94838671Y-87620766D01*
X94838671Y-87620766D02*
X94826629Y-87587215D01*
X94826629Y-87587215D02*
X94819866Y-87534306D01*
X94819866Y-87534306D02*
X94819402Y-87528136D01*
X94819402Y-87528136D02*
X94818248Y-87432250D01*
X94818248Y-87432250D02*
X94830312Y-87361036D01*
X94830312Y-87361036D02*
X94855430Y-87314931D01*
X94855430Y-87314931D02*
X94893440Y-87294372D01*
X94893440Y-87294372D02*
X94907008Y-87293251D01*
X94907008Y-87293251D02*
X94942636Y-87298889D01*
X94942636Y-87298889D02*
X94967006Y-87318423D01*
X94967006Y-87318423D02*
X94981907Y-87355779D01*
X94981907Y-87355779D02*
X94989125Y-87414887D01*
X94989125Y-87414887D02*
X94990571Y-87476929D01*
X94990571Y-87476929D02*
X95135678Y-87476929D01*
X95135678Y-87476929D02*
X95135174Y-87407150D01*
X95135174Y-87407150D02*
X95132904Y-87354896D01*
X95132904Y-87354896D02*
X95127932Y-87318686D01*
X95127932Y-87318686D02*
X95119287Y-87292036D01*
X95119287Y-87292036D02*
X95105995Y-87268459D01*
X95105995Y-87268459D02*
X95103057Y-87264075D01*
X95103057Y-87264075D02*
X95053687Y-87204986D01*
X95053687Y-87204986D02*
X94999891Y-87170684D01*
X94999891Y-87170684D02*
X94934398Y-87157068D01*
X94934398Y-87157068D02*
X94912158Y-87156402D01*
X94912158Y-87156402D02*
X94828885Y-87168699D01*
X94828885Y-87168699D02*
X94828885Y-87168699D01*
G36*
X95135701Y-87497672D02*
G01*
X95134914Y-87567856D01*
X95132210Y-87616759D01*
X95126606Y-87650915D01*
X95117119Y-87676861D01*
X95102768Y-87701134D01*
X95099237Y-87706170D01*
X95061878Y-87745880D01*
X95019311Y-87775829D01*
X94997452Y-87785547D01*
X94918908Y-87801757D01*
X94841231Y-87791272D01*
X94769645Y-87755444D01*
X94709374Y-87695624D01*
X94704286Y-87687610D01*
X94687730Y-87641079D01*
X94676573Y-87576289D01*
X94671160Y-87501464D01*
X94671768Y-87432250D01*
X94818248Y-87432250D01*
X94819402Y-87528136D01*
X94819866Y-87534306D01*
X94826629Y-87587215D01*
X94838671Y-87620766D01*
X94859005Y-87643753D01*
X94893097Y-87665285D01*
X94926814Y-87666417D01*
X94961543Y-87641594D01*
X94967584Y-87635062D01*
X94979417Y-87615516D01*
X94986404Y-87587123D01*
X94989727Y-87543167D01*
X94990571Y-87476929D01*
X94989125Y-87414887D01*
X94981907Y-87355779D01*
X94967006Y-87318423D01*
X94942636Y-87298889D01*
X94907008Y-87293251D01*
X94893440Y-87294372D01*
X94855430Y-87314931D01*
X94830312Y-87361036D01*
X94818248Y-87432250D01*
X94671768Y-87432250D01*
X94671833Y-87424833D01*
X94678937Y-87354619D01*
X94692815Y-87299049D01*
X94710649Y-87262038D01*
X94760855Y-87204470D01*
X94828885Y-87168699D01*
X94912158Y-87156402D01*
X94934398Y-87157068D01*
X94999891Y-87170684D01*
X95053687Y-87204986D01*
X95103057Y-87264075D01*
X95105995Y-87268459D01*
X95119287Y-87292036D01*
X95127932Y-87318686D01*
X95132904Y-87354896D01*
X95135174Y-87407150D01*
X95135678Y-87476929D01*
X95135714Y-87481937D01*
X95135701Y-87497672D01*
G37*
X95135701Y-87497672D02*
X95134914Y-87567856D01*
X95132210Y-87616759D01*
X95126606Y-87650915D01*
X95117119Y-87676861D01*
X95102768Y-87701134D01*
X95099237Y-87706170D01*
X95061878Y-87745880D01*
X95019311Y-87775829D01*
X94997452Y-87785547D01*
X94918908Y-87801757D01*
X94841231Y-87791272D01*
X94769645Y-87755444D01*
X94709374Y-87695624D01*
X94704286Y-87687610D01*
X94687730Y-87641079D01*
X94676573Y-87576289D01*
X94671160Y-87501464D01*
X94671768Y-87432250D01*
X94818248Y-87432250D01*
X94819402Y-87528136D01*
X94819866Y-87534306D01*
X94826629Y-87587215D01*
X94838671Y-87620766D01*
X94859005Y-87643753D01*
X94893097Y-87665285D01*
X94926814Y-87666417D01*
X94961543Y-87641594D01*
X94967584Y-87635062D01*
X94979417Y-87615516D01*
X94986404Y-87587123D01*
X94989727Y-87543167D01*
X94990571Y-87476929D01*
X94989125Y-87414887D01*
X94981907Y-87355779D01*
X94967006Y-87318423D01*
X94942636Y-87298889D01*
X94907008Y-87293251D01*
X94893440Y-87294372D01*
X94855430Y-87314931D01*
X94830312Y-87361036D01*
X94818248Y-87432250D01*
X94671768Y-87432250D01*
X94671833Y-87424833D01*
X94678937Y-87354619D01*
X94692815Y-87299049D01*
X94710649Y-87262038D01*
X94760855Y-87204470D01*
X94828885Y-87168699D01*
X94912158Y-87156402D01*
X94934398Y-87157068D01*
X94999891Y-87170684D01*
X95053687Y-87204986D01*
X95103057Y-87264075D01*
X95105995Y-87268459D01*
X95119287Y-87292036D01*
X95127932Y-87318686D01*
X95132904Y-87354896D01*
X95135174Y-87407150D01*
X95135678Y-87476929D01*
X95135714Y-87481937D01*
X95135701Y-87497672D01*
X94270256Y-87166655D02*
X94214799Y-87194305D01*
X94214799Y-87194305D02*
X94165852Y-87245217D01*
X94165852Y-87245217D02*
X94152371Y-87264075D01*
X94152371Y-87264075D02*
X94137686Y-87288752D01*
X94137686Y-87288752D02*
X94128158Y-87315553D01*
X94128158Y-87315553D02*
X94122707Y-87351324D01*
X94122707Y-87351324D02*
X94120253Y-87402906D01*
X94120253Y-87402906D02*
X94119714Y-87471004D01*
X94119714Y-87471004D02*
X94122148Y-87564325D01*
X94122148Y-87564325D02*
X94130606Y-87634394D01*
X94130606Y-87634394D02*
X94146826Y-87686668D01*
X94146826Y-87686668D02*
X94172546Y-87726606D01*
X94172546Y-87726606D02*
X94209503Y-87759666D01*
X94209503Y-87759666D02*
X94212218Y-87761623D01*
X94212218Y-87761623D02*
X94248640Y-87781645D01*
X94248640Y-87781645D02*
X94292498Y-87791552D01*
X94292498Y-87791552D02*
X94348276Y-87793994D01*
X94348276Y-87793994D02*
X94438952Y-87793994D01*
X94438952Y-87793994D02*
X94438990Y-87882020D01*
X94438990Y-87882020D02*
X94439834Y-87931045D01*
X94439834Y-87931045D02*
X94444976Y-87959802D01*
X94444976Y-87959802D02*
X94458413Y-87977048D01*
X94458413Y-87977048D02*
X94484142Y-87991545D01*
X94484142Y-87991545D02*
X94490321Y-87994506D01*
X94490321Y-87994506D02*
X94519236Y-88008385D01*
X94519236Y-88008385D02*
X94541624Y-88017151D01*
X94541624Y-88017151D02*
X94558271Y-88017908D01*
X94558271Y-88017908D02*
X94569964Y-88007760D01*
X94569964Y-88007760D02*
X94577490Y-87983810D01*
X94577490Y-87983810D02*
X94581634Y-87943163D01*
X94581634Y-87943163D02*
X94583185Y-87882923D01*
X94583185Y-87882923D02*
X94582929Y-87800192D01*
X94582929Y-87800192D02*
X94581651Y-87692076D01*
X94581651Y-87692076D02*
X94581252Y-87659737D01*
X94581252Y-87659737D02*
X94579815Y-87548261D01*
X94579815Y-87548261D02*
X94578528Y-87475340D01*
X94578528Y-87475340D02*
X94439029Y-87475340D01*
X94439029Y-87475340D02*
X94438245Y-87537236D01*
X94438245Y-87537236D02*
X94434760Y-87577734D01*
X94434760Y-87577734D02*
X94426876Y-87604445D01*
X94426876Y-87604445D02*
X94412895Y-87624981D01*
X94412895Y-87624981D02*
X94403403Y-87634997D01*
X94403403Y-87634997D02*
X94364596Y-87664304D01*
X94364596Y-87664304D02*
X94330237Y-87666689D01*
X94330237Y-87666689D02*
X94294784Y-87642487D01*
X94294784Y-87642487D02*
X94293886Y-87641594D01*
X94293886Y-87641594D02*
X94279461Y-87622890D01*
X94279461Y-87622890D02*
X94270687Y-87597469D01*
X94270687Y-87597469D02*
X94266261Y-87558321D01*
X94266261Y-87558321D02*
X94264882Y-87498434D01*
X94264882Y-87498434D02*
X94264857Y-87485167D01*
X94264857Y-87485167D02*
X94268188Y-87402638D01*
X94268188Y-87402638D02*
X94279031Y-87345428D01*
X94279031Y-87345428D02*
X94298660Y-87310503D01*
X94298660Y-87310503D02*
X94328350Y-87294831D01*
X94328350Y-87294831D02*
X94345509Y-87293251D01*
X94345509Y-87293251D02*
X94386234Y-87300663D01*
X94386234Y-87300663D02*
X94414168Y-87325067D01*
X94414168Y-87325067D02*
X94430983Y-87369717D01*
X94430983Y-87369717D02*
X94438350Y-87437867D01*
X94438350Y-87437867D02*
X94439029Y-87475340D01*
X94439029Y-87475340D02*
X94578528Y-87475340D01*
X94578528Y-87475340D02*
X94578292Y-87461982D01*
X94578292Y-87461982D02*
X94576323Y-87397070D01*
X94576323Y-87397070D02*
X94573550Y-87349695D01*
X94573550Y-87349695D02*
X94569612Y-87316027D01*
X94569612Y-87316027D02*
X94564151Y-87292235D01*
X94564151Y-87292235D02*
X94556808Y-87274490D01*
X94556808Y-87274490D02*
X94547223Y-87258961D01*
X94547223Y-87258961D02*
X94543113Y-87253118D01*
X94543113Y-87253118D02*
X94488595Y-87197922D01*
X94488595Y-87197922D02*
X94419664Y-87166627D01*
X94419664Y-87166627D02*
X94339928Y-87157902D01*
X94339928Y-87157902D02*
X94270256Y-87166655D01*
X94270256Y-87166655D02*
X94270256Y-87166655D01*
G36*
X94581252Y-87659737D02*
G01*
X94581651Y-87692076D01*
X94582929Y-87800192D01*
X94583185Y-87882923D01*
X94581634Y-87943163D01*
X94577490Y-87983810D01*
X94569964Y-88007760D01*
X94558271Y-88017908D01*
X94541624Y-88017151D01*
X94519236Y-88008385D01*
X94490321Y-87994506D01*
X94484142Y-87991545D01*
X94458413Y-87977048D01*
X94444976Y-87959802D01*
X94439834Y-87931045D01*
X94438990Y-87882020D01*
X94438952Y-87793994D01*
X94348276Y-87793994D01*
X94292498Y-87791552D01*
X94248640Y-87781645D01*
X94212218Y-87761623D01*
X94209503Y-87759666D01*
X94172546Y-87726606D01*
X94146826Y-87686668D01*
X94130606Y-87634394D01*
X94122148Y-87564325D01*
X94120083Y-87485167D01*
X94264857Y-87485167D01*
X94264882Y-87498434D01*
X94266261Y-87558321D01*
X94270687Y-87597469D01*
X94279461Y-87622890D01*
X94293886Y-87641594D01*
X94294784Y-87642487D01*
X94330237Y-87666689D01*
X94364596Y-87664304D01*
X94403403Y-87634997D01*
X94412895Y-87624981D01*
X94426876Y-87604445D01*
X94434760Y-87577734D01*
X94438245Y-87537236D01*
X94439029Y-87475340D01*
X94438350Y-87437867D01*
X94430983Y-87369717D01*
X94414168Y-87325067D01*
X94386234Y-87300663D01*
X94345509Y-87293251D01*
X94328350Y-87294831D01*
X94298660Y-87310503D01*
X94279031Y-87345428D01*
X94268188Y-87402638D01*
X94264857Y-87485167D01*
X94120083Y-87485167D01*
X94119714Y-87471004D01*
X94120253Y-87402906D01*
X94122707Y-87351324D01*
X94128158Y-87315553D01*
X94137686Y-87288752D01*
X94152371Y-87264075D01*
X94165852Y-87245217D01*
X94214799Y-87194305D01*
X94270256Y-87166655D01*
X94339928Y-87157902D01*
X94419664Y-87166627D01*
X94488595Y-87197922D01*
X94543113Y-87253118D01*
X94547223Y-87258961D01*
X94556808Y-87274490D01*
X94564151Y-87292235D01*
X94569612Y-87316027D01*
X94573550Y-87349695D01*
X94576323Y-87397070D01*
X94578292Y-87461982D01*
X94578528Y-87475340D01*
X94579815Y-87548261D01*
X94581252Y-87659737D01*
G37*
X94581252Y-87659737D02*
X94581651Y-87692076D01*
X94582929Y-87800192D01*
X94583185Y-87882923D01*
X94581634Y-87943163D01*
X94577490Y-87983810D01*
X94569964Y-88007760D01*
X94558271Y-88017908D01*
X94541624Y-88017151D01*
X94519236Y-88008385D01*
X94490321Y-87994506D01*
X94484142Y-87991545D01*
X94458413Y-87977048D01*
X94444976Y-87959802D01*
X94439834Y-87931045D01*
X94438990Y-87882020D01*
X94438952Y-87793994D01*
X94348276Y-87793994D01*
X94292498Y-87791552D01*
X94248640Y-87781645D01*
X94212218Y-87761623D01*
X94209503Y-87759666D01*
X94172546Y-87726606D01*
X94146826Y-87686668D01*
X94130606Y-87634394D01*
X94122148Y-87564325D01*
X94120083Y-87485167D01*
X94264857Y-87485167D01*
X94264882Y-87498434D01*
X94266261Y-87558321D01*
X94270687Y-87597469D01*
X94279461Y-87622890D01*
X94293886Y-87641594D01*
X94294784Y-87642487D01*
X94330237Y-87666689D01*
X94364596Y-87664304D01*
X94403403Y-87634997D01*
X94412895Y-87624981D01*
X94426876Y-87604445D01*
X94434760Y-87577734D01*
X94438245Y-87537236D01*
X94439029Y-87475340D01*
X94438350Y-87437867D01*
X94430983Y-87369717D01*
X94414168Y-87325067D01*
X94386234Y-87300663D01*
X94345509Y-87293251D01*
X94328350Y-87294831D01*
X94298660Y-87310503D01*
X94279031Y-87345428D01*
X94268188Y-87402638D01*
X94264857Y-87485167D01*
X94120083Y-87485167D01*
X94119714Y-87471004D01*
X94120253Y-87402906D01*
X94122707Y-87351324D01*
X94128158Y-87315553D01*
X94137686Y-87288752D01*
X94152371Y-87264075D01*
X94165852Y-87245217D01*
X94214799Y-87194305D01*
X94270256Y-87166655D01*
X94339928Y-87157902D01*
X94419664Y-87166627D01*
X94488595Y-87197922D01*
X94543113Y-87253118D01*
X94547223Y-87258961D01*
X94556808Y-87274490D01*
X94564151Y-87292235D01*
X94569612Y-87316027D01*
X94573550Y-87349695D01*
X94576323Y-87397070D01*
X94578292Y-87461982D01*
X94578528Y-87475340D01*
X94579815Y-87548261D01*
X94581252Y-87659737D01*
X90679883Y-87312095D02*
X90680067Y-87420574D01*
X90680067Y-87420574D02*
X90680781Y-87504024D01*
X90680781Y-87504024D02*
X90682325Y-87566441D01*
X90682325Y-87566441D02*
X90684999Y-87611822D01*
X90684999Y-87611822D02*
X90689106Y-87644166D01*
X90689106Y-87644166D02*
X90694945Y-87667470D01*
X90694945Y-87667470D02*
X90702818Y-87685732D01*
X90702818Y-87685732D02*
X90708779Y-87696155D01*
X90708779Y-87696155D02*
X90758145Y-87752682D01*
X90758145Y-87752682D02*
X90820736Y-87788114D01*
X90820736Y-87788114D02*
X90889987Y-87800827D01*
X90889987Y-87800827D02*
X90959332Y-87789200D01*
X90959332Y-87789200D02*
X91000625Y-87768305D01*
X91000625Y-87768305D02*
X91043975Y-87732159D01*
X91043975Y-87732159D02*
X91073519Y-87688013D01*
X91073519Y-87688013D02*
X91091345Y-87630199D01*
X91091345Y-87630199D02*
X91099537Y-87553050D01*
X91099537Y-87553050D02*
X91100698Y-87496451D01*
X91100698Y-87496451D02*
X91100542Y-87492384D01*
X91100542Y-87492384D02*
X90999143Y-87492384D01*
X90999143Y-87492384D02*
X90998524Y-87557287D01*
X90998524Y-87557287D02*
X90995686Y-87600251D01*
X90995686Y-87600251D02*
X90989160Y-87628359D01*
X90989160Y-87628359D02*
X90977477Y-87648690D01*
X90977477Y-87648690D02*
X90963517Y-87664025D01*
X90963517Y-87664025D02*
X90916635Y-87693627D01*
X90916635Y-87693627D02*
X90866299Y-87696156D01*
X90866299Y-87696156D02*
X90818724Y-87671442D01*
X90818724Y-87671442D02*
X90815021Y-87668093D01*
X90815021Y-87668093D02*
X90799217Y-87650672D01*
X90799217Y-87650672D02*
X90789307Y-87629946D01*
X90789307Y-87629946D02*
X90783942Y-87599099D01*
X90783942Y-87599099D02*
X90781772Y-87551314D01*
X90781772Y-87551314D02*
X90781429Y-87498485D01*
X90781429Y-87498485D02*
X90782173Y-87432118D01*
X90782173Y-87432118D02*
X90785252Y-87387843D01*
X90785252Y-87387843D02*
X90791939Y-87358746D01*
X90791939Y-87358746D02*
X90803504Y-87337910D01*
X90803504Y-87337910D02*
X90812987Y-87326844D01*
X90812987Y-87326844D02*
X90857040Y-87298935D01*
X90857040Y-87298935D02*
X90907776Y-87295580D01*
X90907776Y-87295580D02*
X90956204Y-87316896D01*
X90956204Y-87316896D02*
X90965550Y-87324810D01*
X90965550Y-87324810D02*
X90981460Y-87342384D01*
X90981460Y-87342384D02*
X90991390Y-87363324D01*
X90991390Y-87363324D02*
X90996722Y-87394519D01*
X90996722Y-87394519D02*
X90998837Y-87442859D01*
X90998837Y-87442859D02*
X90999143Y-87492384D01*
X90999143Y-87492384D02*
X91100542Y-87492384D01*
X91100542Y-87492384D02*
X91097190Y-87405305D01*
X91097190Y-87405305D02*
X91085274Y-87336823D01*
X91085274Y-87336823D02*
X91062865Y-87285337D01*
X91062865Y-87285337D02*
X91027876Y-87245180D01*
X91027876Y-87245180D02*
X91000625Y-87224598D01*
X91000625Y-87224598D02*
X90951093Y-87202362D01*
X90951093Y-87202362D02*
X90893684Y-87192041D01*
X90893684Y-87192041D02*
X90840318Y-87194804D01*
X90840318Y-87194804D02*
X90810457Y-87205949D01*
X90810457Y-87205949D02*
X90798739Y-87209120D01*
X90798739Y-87209120D02*
X90790963Y-87197294D01*
X90790963Y-87197294D02*
X90785535Y-87165603D01*
X90785535Y-87165603D02*
X90781429Y-87117330D01*
X90781429Y-87117330D02*
X90776933Y-87063566D01*
X90776933Y-87063566D02*
X90770687Y-87031219D01*
X90770687Y-87031219D02*
X90759324Y-87012722D01*
X90759324Y-87012722D02*
X90739472Y-87000507D01*
X90739472Y-87000507D02*
X90727000Y-86995099D01*
X90727000Y-86995099D02*
X90679829Y-86975338D01*
X90679829Y-86975338D02*
X90679883Y-87312095D01*
X90679883Y-87312095D02*
X90679883Y-87312095D01*
G36*
X91099537Y-87553050D02*
G01*
X91091345Y-87630199D01*
X91073519Y-87688013D01*
X91043975Y-87732159D01*
X91000625Y-87768305D01*
X90959332Y-87789200D01*
X90889987Y-87800827D01*
X90820736Y-87788114D01*
X90758145Y-87752682D01*
X90708779Y-87696155D01*
X90702818Y-87685732D01*
X90694945Y-87667470D01*
X90689106Y-87644166D01*
X90684999Y-87611822D01*
X90682325Y-87566441D01*
X90680781Y-87504024D01*
X90680734Y-87498485D01*
X90781429Y-87498485D01*
X90781772Y-87551314D01*
X90783942Y-87599099D01*
X90789307Y-87629946D01*
X90799217Y-87650672D01*
X90815021Y-87668093D01*
X90818724Y-87671442D01*
X90866299Y-87696156D01*
X90916635Y-87693627D01*
X90963517Y-87664025D01*
X90977477Y-87648690D01*
X90989160Y-87628359D01*
X90995686Y-87600251D01*
X90998524Y-87557287D01*
X90999143Y-87492384D01*
X90998837Y-87442859D01*
X90996722Y-87394519D01*
X90991390Y-87363324D01*
X90981460Y-87342384D01*
X90965550Y-87324810D01*
X90956204Y-87316896D01*
X90907776Y-87295580D01*
X90857040Y-87298935D01*
X90812987Y-87326844D01*
X90803504Y-87337910D01*
X90791939Y-87358746D01*
X90785252Y-87387843D01*
X90782173Y-87432118D01*
X90781429Y-87498485D01*
X90680734Y-87498485D01*
X90680067Y-87420574D01*
X90679883Y-87312095D01*
X90679829Y-86975338D01*
X90727000Y-86995099D01*
X90739472Y-87000507D01*
X90759324Y-87012722D01*
X90770687Y-87031219D01*
X90776933Y-87063566D01*
X90781429Y-87117330D01*
X90785535Y-87165603D01*
X90790963Y-87197294D01*
X90798739Y-87209120D01*
X90810457Y-87205949D01*
X90840318Y-87194804D01*
X90893684Y-87192041D01*
X90951093Y-87202362D01*
X91000625Y-87224598D01*
X91027876Y-87245180D01*
X91062865Y-87285337D01*
X91085274Y-87336823D01*
X91097190Y-87405305D01*
X91100542Y-87492384D01*
X91100698Y-87496451D01*
X91099537Y-87553050D01*
G37*
X91099537Y-87553050D02*
X91091345Y-87630199D01*
X91073519Y-87688013D01*
X91043975Y-87732159D01*
X91000625Y-87768305D01*
X90959332Y-87789200D01*
X90889987Y-87800827D01*
X90820736Y-87788114D01*
X90758145Y-87752682D01*
X90708779Y-87696155D01*
X90702818Y-87685732D01*
X90694945Y-87667470D01*
X90689106Y-87644166D01*
X90684999Y-87611822D01*
X90682325Y-87566441D01*
X90680781Y-87504024D01*
X90680734Y-87498485D01*
X90781429Y-87498485D01*
X90781772Y-87551314D01*
X90783942Y-87599099D01*
X90789307Y-87629946D01*
X90799217Y-87650672D01*
X90815021Y-87668093D01*
X90818724Y-87671442D01*
X90866299Y-87696156D01*
X90916635Y-87693627D01*
X90963517Y-87664025D01*
X90977477Y-87648690D01*
X90989160Y-87628359D01*
X90995686Y-87600251D01*
X90998524Y-87557287D01*
X90999143Y-87492384D01*
X90998837Y-87442859D01*
X90996722Y-87394519D01*
X90991390Y-87363324D01*
X90981460Y-87342384D01*
X90965550Y-87324810D01*
X90956204Y-87316896D01*
X90907776Y-87295580D01*
X90857040Y-87298935D01*
X90812987Y-87326844D01*
X90803504Y-87337910D01*
X90791939Y-87358746D01*
X90785252Y-87387843D01*
X90782173Y-87432118D01*
X90781429Y-87498485D01*
X90680734Y-87498485D01*
X90680067Y-87420574D01*
X90679883Y-87312095D01*
X90679829Y-86975338D01*
X90727000Y-86995099D01*
X90739472Y-87000507D01*
X90759324Y-87012722D01*
X90770687Y-87031219D01*
X90776933Y-87063566D01*
X90781429Y-87117330D01*
X90785535Y-87165603D01*
X90790963Y-87197294D01*
X90798739Y-87209120D01*
X90810457Y-87205949D01*
X90840318Y-87194804D01*
X90893684Y-87192041D01*
X90951093Y-87202362D01*
X91000625Y-87224598D01*
X91027876Y-87245180D01*
X91062865Y-87285337D01*
X91085274Y-87336823D01*
X91097190Y-87405305D01*
X91100542Y-87492384D01*
X91100698Y-87496451D01*
X91099537Y-87553050D01*
X93153907Y-87174517D02*
X93107328Y-87201460D01*
X93107328Y-87201460D02*
X93074943Y-87228203D01*
X93074943Y-87228203D02*
X93051258Y-87256221D01*
X93051258Y-87256221D02*
X93034941Y-87290485D01*
X93034941Y-87290485D02*
X93024661Y-87335964D01*
X93024661Y-87335964D02*
X93019086Y-87397629D01*
X93019086Y-87397629D02*
X93016884Y-87480448D01*
X93016884Y-87480448D02*
X93016629Y-87539983D01*
X93016629Y-87539983D02*
X93016629Y-87759128D01*
X93016629Y-87759128D02*
X93078314Y-87786781D01*
X93078314Y-87786781D02*
X93140000Y-87814434D01*
X93140000Y-87814434D02*
X93147257Y-87574407D01*
X93147257Y-87574407D02*
X93150256Y-87484765D01*
X93150256Y-87484765D02*
X93153402Y-87419699D01*
X93153402Y-87419699D02*
X93157299Y-87374763D01*
X93157299Y-87374763D02*
X93162553Y-87345507D01*
X93162553Y-87345507D02*
X93169769Y-87327485D01*
X93169769Y-87327485D02*
X93179550Y-87316248D01*
X93179550Y-87316248D02*
X93182688Y-87313816D01*
X93182688Y-87313816D02*
X93230239Y-87294820D01*
X93230239Y-87294820D02*
X93278303Y-87302337D01*
X93278303Y-87302337D02*
X93306914Y-87322280D01*
X93306914Y-87322280D02*
X93318553Y-87336412D01*
X93318553Y-87336412D02*
X93326609Y-87354957D01*
X93326609Y-87354957D02*
X93331729Y-87383071D01*
X93331729Y-87383071D02*
X93334559Y-87425910D01*
X93334559Y-87425910D02*
X93335744Y-87488632D01*
X93335744Y-87488632D02*
X93335943Y-87553998D01*
X93335943Y-87553998D02*
X93335982Y-87636005D01*
X93335982Y-87636005D02*
X93337386Y-87694053D01*
X93337386Y-87694053D02*
X93342086Y-87733202D01*
X93342086Y-87733202D02*
X93352013Y-87758517D01*
X93352013Y-87758517D02*
X93369097Y-87775060D01*
X93369097Y-87775060D02*
X93395268Y-87787893D01*
X93395268Y-87787893D02*
X93430225Y-87801228D01*
X93430225Y-87801228D02*
X93468404Y-87815744D01*
X93468404Y-87815744D02*
X93463859Y-87558126D01*
X93463859Y-87558126D02*
X93462029Y-87465256D01*
X93462029Y-87465256D02*
X93459888Y-87396626D01*
X93459888Y-87396626D02*
X93456819Y-87347448D01*
X93456819Y-87347448D02*
X93452206Y-87312935D01*
X93452206Y-87312935D02*
X93445432Y-87288299D01*
X93445432Y-87288299D02*
X93435881Y-87268753D01*
X93435881Y-87268753D02*
X93424366Y-87251507D01*
X93424366Y-87251507D02*
X93368810Y-87196417D01*
X93368810Y-87196417D02*
X93301020Y-87164559D01*
X93301020Y-87164559D02*
X93227287Y-87156928D01*
X93227287Y-87156928D02*
X93153907Y-87174517D01*
X93153907Y-87174517D02*
X93153907Y-87174517D01*
G36*
X93301020Y-87164559D02*
G01*
X93368810Y-87196417D01*
X93424366Y-87251507D01*
X93435881Y-87268753D01*
X93445432Y-87288299D01*
X93452206Y-87312935D01*
X93456819Y-87347448D01*
X93459888Y-87396626D01*
X93462029Y-87465256D01*
X93463859Y-87558126D01*
X93468404Y-87815744D01*
X93430225Y-87801228D01*
X93395268Y-87787893D01*
X93369097Y-87775060D01*
X93352013Y-87758517D01*
X93342086Y-87733202D01*
X93337386Y-87694053D01*
X93335982Y-87636005D01*
X93335943Y-87553998D01*
X93335744Y-87488632D01*
X93334559Y-87425910D01*
X93331729Y-87383071D01*
X93326609Y-87354957D01*
X93318553Y-87336412D01*
X93306914Y-87322280D01*
X93278303Y-87302337D01*
X93230239Y-87294820D01*
X93182688Y-87313816D01*
X93179550Y-87316248D01*
X93169769Y-87327485D01*
X93162553Y-87345507D01*
X93157299Y-87374763D01*
X93153402Y-87419699D01*
X93150256Y-87484765D01*
X93147257Y-87574407D01*
X93140000Y-87814434D01*
X93078314Y-87786781D01*
X93016629Y-87759128D01*
X93016629Y-87539983D01*
X93016884Y-87480448D01*
X93019086Y-87397629D01*
X93024661Y-87335964D01*
X93034941Y-87290485D01*
X93051258Y-87256221D01*
X93074943Y-87228203D01*
X93107328Y-87201460D01*
X93153907Y-87174517D01*
X93227287Y-87156928D01*
X93301020Y-87164559D01*
G37*
X93301020Y-87164559D02*
X93368810Y-87196417D01*
X93424366Y-87251507D01*
X93435881Y-87268753D01*
X93445432Y-87288299D01*
X93452206Y-87312935D01*
X93456819Y-87347448D01*
X93459888Y-87396626D01*
X93462029Y-87465256D01*
X93463859Y-87558126D01*
X93468404Y-87815744D01*
X93430225Y-87801228D01*
X93395268Y-87787893D01*
X93369097Y-87775060D01*
X93352013Y-87758517D01*
X93342086Y-87733202D01*
X93337386Y-87694053D01*
X93335982Y-87636005D01*
X93335943Y-87553998D01*
X93335744Y-87488632D01*
X93334559Y-87425910D01*
X93331729Y-87383071D01*
X93326609Y-87354957D01*
X93318553Y-87336412D01*
X93306914Y-87322280D01*
X93278303Y-87302337D01*
X93230239Y-87294820D01*
X93182688Y-87313816D01*
X93179550Y-87316248D01*
X93169769Y-87327485D01*
X93162553Y-87345507D01*
X93157299Y-87374763D01*
X93153402Y-87419699D01*
X93150256Y-87484765D01*
X93147257Y-87574407D01*
X93140000Y-87814434D01*
X93078314Y-87786781D01*
X93016629Y-87759128D01*
X93016629Y-87539983D01*
X93016884Y-87480448D01*
X93019086Y-87397629D01*
X93024661Y-87335964D01*
X93034941Y-87290485D01*
X93051258Y-87256221D01*
X93074943Y-87228203D01*
X93107328Y-87201460D01*
X93153907Y-87174517D01*
X93227287Y-87156928D01*
X93301020Y-87164559D01*
X89217400Y-87205489D02*
X89200052Y-87213071D01*
X89200052Y-87213071D02*
X89158644Y-87245865D01*
X89158644Y-87245865D02*
X89123235Y-87293284D01*
X89123235Y-87293284D02*
X89101336Y-87343888D01*
X89101336Y-87343888D02*
X89097771Y-87368835D01*
X89097771Y-87368835D02*
X89109721Y-87403664D01*
X89109721Y-87403664D02*
X89135933Y-87422094D01*
X89135933Y-87422094D02*
X89164036Y-87433253D01*
X89164036Y-87433253D02*
X89176905Y-87435309D01*
X89176905Y-87435309D02*
X89183171Y-87420386D01*
X89183171Y-87420386D02*
X89195544Y-87387912D01*
X89195544Y-87387912D02*
X89200972Y-87373239D01*
X89200972Y-87373239D02*
X89231410Y-87322481D01*
X89231410Y-87322481D02*
X89275480Y-87297164D01*
X89275480Y-87297164D02*
X89331990Y-87297943D01*
X89331990Y-87297943D02*
X89336175Y-87298940D01*
X89336175Y-87298940D02*
X89366345Y-87313244D01*
X89366345Y-87313244D02*
X89388524Y-87341130D01*
X89388524Y-87341130D02*
X89403673Y-87386024D01*
X89403673Y-87386024D02*
X89412750Y-87451352D01*
X89412750Y-87451352D02*
X89416714Y-87540541D01*
X89416714Y-87540541D02*
X89417086Y-87587998D01*
X89417086Y-87587998D02*
X89417270Y-87662808D01*
X89417270Y-87662808D02*
X89418478Y-87713806D01*
X89418478Y-87713806D02*
X89421691Y-87746208D01*
X89421691Y-87746208D02*
X89427891Y-87765232D01*
X89427891Y-87765232D02*
X89438060Y-87776093D01*
X89438060Y-87776093D02*
X89453181Y-87784009D01*
X89453181Y-87784009D02*
X89454054Y-87784407D01*
X89454054Y-87784407D02*
X89483172Y-87796718D01*
X89483172Y-87796718D02*
X89497597Y-87801251D01*
X89497597Y-87801251D02*
X89499814Y-87787546D01*
X89499814Y-87787546D02*
X89501711Y-87749662D01*
X89501711Y-87749662D02*
X89503153Y-87692452D01*
X89503153Y-87692452D02*
X89504002Y-87620764D01*
X89504002Y-87620764D02*
X89504171Y-87568302D01*
X89504171Y-87568302D02*
X89503308Y-87466784D01*
X89503308Y-87466784D02*
X89499930Y-87389769D01*
X89499930Y-87389769D02*
X89492858Y-87332760D01*
X89492858Y-87332760D02*
X89480912Y-87291263D01*
X89480912Y-87291263D02*
X89462910Y-87260780D01*
X89462910Y-87260780D02*
X89437673Y-87236817D01*
X89437673Y-87236817D02*
X89412753Y-87220092D01*
X89412753Y-87220092D02*
X89352829Y-87197834D01*
X89352829Y-87197834D02*
X89283089Y-87192813D01*
X89283089Y-87192813D02*
X89217400Y-87205489D01*
X89217400Y-87205489D02*
X89217400Y-87205489D01*
G36*
X89352829Y-87197834D02*
G01*
X89412753Y-87220092D01*
X89437673Y-87236817D01*
X89462910Y-87260780D01*
X89480912Y-87291263D01*
X89492858Y-87332760D01*
X89499930Y-87389769D01*
X89503308Y-87466784D01*
X89504171Y-87568302D01*
X89504002Y-87620764D01*
X89503153Y-87692452D01*
X89501711Y-87749662D01*
X89499814Y-87787546D01*
X89497597Y-87801251D01*
X89483172Y-87796718D01*
X89454054Y-87784407D01*
X89453181Y-87784009D01*
X89438060Y-87776093D01*
X89427891Y-87765232D01*
X89421691Y-87746208D01*
X89418478Y-87713806D01*
X89417270Y-87662808D01*
X89417086Y-87587998D01*
X89416714Y-87540541D01*
X89412750Y-87451352D01*
X89403673Y-87386024D01*
X89388524Y-87341130D01*
X89366345Y-87313244D01*
X89336175Y-87298940D01*
X89331990Y-87297943D01*
X89275480Y-87297164D01*
X89231410Y-87322481D01*
X89200972Y-87373239D01*
X89195544Y-87387912D01*
X89183171Y-87420386D01*
X89176905Y-87435309D01*
X89164036Y-87433253D01*
X89135933Y-87422094D01*
X89109721Y-87403664D01*
X89097771Y-87368835D01*
X89101336Y-87343888D01*
X89123235Y-87293284D01*
X89158644Y-87245865D01*
X89200052Y-87213071D01*
X89217400Y-87205489D01*
X89283089Y-87192813D01*
X89352829Y-87197834D01*
G37*
X89352829Y-87197834D02*
X89412753Y-87220092D01*
X89437673Y-87236817D01*
X89462910Y-87260780D01*
X89480912Y-87291263D01*
X89492858Y-87332760D01*
X89499930Y-87389769D01*
X89503308Y-87466784D01*
X89504171Y-87568302D01*
X89504002Y-87620764D01*
X89503153Y-87692452D01*
X89501711Y-87749662D01*
X89499814Y-87787546D01*
X89497597Y-87801251D01*
X89483172Y-87796718D01*
X89454054Y-87784407D01*
X89453181Y-87784009D01*
X89438060Y-87776093D01*
X89427891Y-87765232D01*
X89421691Y-87746208D01*
X89418478Y-87713806D01*
X89417270Y-87662808D01*
X89417086Y-87587998D01*
X89416714Y-87540541D01*
X89412750Y-87451352D01*
X89403673Y-87386024D01*
X89388524Y-87341130D01*
X89366345Y-87313244D01*
X89336175Y-87298940D01*
X89331990Y-87297943D01*
X89275480Y-87297164D01*
X89231410Y-87322481D01*
X89200972Y-87373239D01*
X89195544Y-87387912D01*
X89183171Y-87420386D01*
X89176905Y-87435309D01*
X89164036Y-87433253D01*
X89135933Y-87422094D01*
X89109721Y-87403664D01*
X89097771Y-87368835D01*
X89101336Y-87343888D01*
X89123235Y-87293284D01*
X89158644Y-87245865D01*
X89200052Y-87213071D01*
X89217400Y-87205489D01*
X89283089Y-87192813D01*
X89352829Y-87197834D01*
X88716405Y-87213703D02*
X88658979Y-87251234D01*
X88658979Y-87251234D02*
X88631281Y-87284833D01*
X88631281Y-87284833D02*
X88609338Y-87345801D01*
X88609338Y-87345801D02*
X88607595Y-87394045D01*
X88607595Y-87394045D02*
X88611543Y-87458553D01*
X88611543Y-87458553D02*
X88760314Y-87523671D01*
X88760314Y-87523671D02*
X88832651Y-87556939D01*
X88832651Y-87556939D02*
X88879916Y-87583701D01*
X88879916Y-87583701D02*
X88904493Y-87606881D01*
X88904493Y-87606881D02*
X88908763Y-87629404D01*
X88908763Y-87629404D02*
X88895111Y-87654192D01*
X88895111Y-87654192D02*
X88880057Y-87670623D01*
X88880057Y-87670623D02*
X88836254Y-87696972D01*
X88836254Y-87696972D02*
X88788611Y-87698818D01*
X88788611Y-87698818D02*
X88744855Y-87678283D01*
X88744855Y-87678283D02*
X88712711Y-87637489D01*
X88712711Y-87637489D02*
X88706962Y-87623084D01*
X88706962Y-87623084D02*
X88679424Y-87578093D01*
X88679424Y-87578093D02*
X88647742Y-87558919D01*
X88647742Y-87558919D02*
X88604286Y-87542516D01*
X88604286Y-87542516D02*
X88604286Y-87604703D01*
X88604286Y-87604703D02*
X88608128Y-87647020D01*
X88608128Y-87647020D02*
X88623177Y-87682706D01*
X88623177Y-87682706D02*
X88654720Y-87723680D01*
X88654720Y-87723680D02*
X88659408Y-87729004D01*
X88659408Y-87729004D02*
X88694494Y-87765457D01*
X88694494Y-87765457D02*
X88724653Y-87785020D01*
X88724653Y-87785020D02*
X88762385Y-87794020D01*
X88762385Y-87794020D02*
X88793665Y-87796967D01*
X88793665Y-87796967D02*
X88849615Y-87797702D01*
X88849615Y-87797702D02*
X88889445Y-87788397D01*
X88889445Y-87788397D02*
X88914292Y-87774583D01*
X88914292Y-87774583D02*
X88953344Y-87744204D01*
X88953344Y-87744204D02*
X88980375Y-87711350D01*
X88980375Y-87711350D02*
X88997483Y-87670031D01*
X88997483Y-87670031D02*
X89006762Y-87614258D01*
X89006762Y-87614258D02*
X89010307Y-87538042D01*
X89010307Y-87538042D02*
X89010590Y-87499359D01*
X89010590Y-87499359D02*
X89009628Y-87452984D01*
X89009628Y-87452984D02*
X88921993Y-87452984D01*
X88921993Y-87452984D02*
X88920977Y-87477863D01*
X88920977Y-87477863D02*
X88918444Y-87481937D01*
X88918444Y-87481937D02*
X88901726Y-87476402D01*
X88901726Y-87476402D02*
X88865751Y-87461754D01*
X88865751Y-87461754D02*
X88817669Y-87440927D01*
X88817669Y-87440927D02*
X88807614Y-87436451D01*
X88807614Y-87436451D02*
X88746848Y-87405551D01*
X88746848Y-87405551D02*
X88713368Y-87378394D01*
X88713368Y-87378394D02*
X88706010Y-87352957D01*
X88706010Y-87352957D02*
X88723609Y-87327218D01*
X88723609Y-87327218D02*
X88738144Y-87315846D01*
X88738144Y-87315846D02*
X88790590Y-87293101D01*
X88790590Y-87293101D02*
X88839678Y-87296859D01*
X88839678Y-87296859D02*
X88880773Y-87324621D01*
X88880773Y-87324621D02*
X88909242Y-87373889D01*
X88909242Y-87373889D02*
X88918369Y-87412994D01*
X88918369Y-87412994D02*
X88921993Y-87452984D01*
X88921993Y-87452984D02*
X89009628Y-87452984D01*
X89009628Y-87452984D02*
X89008715Y-87408986D01*
X89008715Y-87408986D02*
X89001804Y-87342121D01*
X89001804Y-87342121D02*
X88988116Y-87293432D01*
X88988116Y-87293432D02*
X88965904Y-87257586D01*
X88965904Y-87257586D02*
X88933426Y-87229250D01*
X88933426Y-87229250D02*
X88919267Y-87220092D01*
X88919267Y-87220092D02*
X88854947Y-87196244D01*
X88854947Y-87196244D02*
X88784527Y-87194743D01*
X88784527Y-87194743D02*
X88716405Y-87213703D01*
X88716405Y-87213703D02*
X88716405Y-87213703D01*
G36*
X89010307Y-87538042D02*
G01*
X89006762Y-87614258D01*
X88997483Y-87670031D01*
X88980375Y-87711350D01*
X88953344Y-87744204D01*
X88914292Y-87774583D01*
X88889445Y-87788397D01*
X88849615Y-87797702D01*
X88793665Y-87796967D01*
X88762385Y-87794020D01*
X88724653Y-87785020D01*
X88694494Y-87765457D01*
X88659408Y-87729004D01*
X88654720Y-87723680D01*
X88623177Y-87682706D01*
X88608128Y-87647020D01*
X88604286Y-87604703D01*
X88604286Y-87542516D01*
X88647742Y-87558919D01*
X88679424Y-87578093D01*
X88706962Y-87623084D01*
X88712711Y-87637489D01*
X88744855Y-87678283D01*
X88788611Y-87698818D01*
X88836254Y-87696972D01*
X88880057Y-87670623D01*
X88895111Y-87654192D01*
X88908763Y-87629404D01*
X88904493Y-87606881D01*
X88879916Y-87583701D01*
X88832651Y-87556939D01*
X88760314Y-87523671D01*
X88611543Y-87458553D01*
X88607595Y-87394045D01*
X88609079Y-87352957D01*
X88706010Y-87352957D01*
X88713368Y-87378394D01*
X88746848Y-87405551D01*
X88807614Y-87436451D01*
X88817669Y-87440927D01*
X88865751Y-87461754D01*
X88901726Y-87476402D01*
X88918444Y-87481937D01*
X88920977Y-87477863D01*
X88921993Y-87452984D01*
X88918369Y-87412994D01*
X88909242Y-87373889D01*
X88880773Y-87324621D01*
X88839678Y-87296859D01*
X88790590Y-87293101D01*
X88738144Y-87315846D01*
X88723609Y-87327218D01*
X88706010Y-87352957D01*
X88609079Y-87352957D01*
X88609338Y-87345801D01*
X88631281Y-87284833D01*
X88658979Y-87251234D01*
X88716405Y-87213703D01*
X88784527Y-87194743D01*
X88854947Y-87196244D01*
X88919267Y-87220092D01*
X88933426Y-87229250D01*
X88965904Y-87257586D01*
X88988116Y-87293432D01*
X89001804Y-87342121D01*
X89008715Y-87408986D01*
X89009628Y-87452984D01*
X89010590Y-87499359D01*
X89010307Y-87538042D01*
G37*
X89010307Y-87538042D02*
X89006762Y-87614258D01*
X88997483Y-87670031D01*
X88980375Y-87711350D01*
X88953344Y-87744204D01*
X88914292Y-87774583D01*
X88889445Y-87788397D01*
X88849615Y-87797702D01*
X88793665Y-87796967D01*
X88762385Y-87794020D01*
X88724653Y-87785020D01*
X88694494Y-87765457D01*
X88659408Y-87729004D01*
X88654720Y-87723680D01*
X88623177Y-87682706D01*
X88608128Y-87647020D01*
X88604286Y-87604703D01*
X88604286Y-87542516D01*
X88647742Y-87558919D01*
X88679424Y-87578093D01*
X88706962Y-87623084D01*
X88712711Y-87637489D01*
X88744855Y-87678283D01*
X88788611Y-87698818D01*
X88836254Y-87696972D01*
X88880057Y-87670623D01*
X88895111Y-87654192D01*
X88908763Y-87629404D01*
X88904493Y-87606881D01*
X88879916Y-87583701D01*
X88832651Y-87556939D01*
X88760314Y-87523671D01*
X88611543Y-87458553D01*
X88607595Y-87394045D01*
X88609079Y-87352957D01*
X88706010Y-87352957D01*
X88713368Y-87378394D01*
X88746848Y-87405551D01*
X88807614Y-87436451D01*
X88817669Y-87440927D01*
X88865751Y-87461754D01*
X88901726Y-87476402D01*
X88918444Y-87481937D01*
X88920977Y-87477863D01*
X88921993Y-87452984D01*
X88918369Y-87412994D01*
X88909242Y-87373889D01*
X88880773Y-87324621D01*
X88839678Y-87296859D01*
X88790590Y-87293101D01*
X88738144Y-87315846D01*
X88723609Y-87327218D01*
X88706010Y-87352957D01*
X88609079Y-87352957D01*
X88609338Y-87345801D01*
X88631281Y-87284833D01*
X88658979Y-87251234D01*
X88716405Y-87213703D01*
X88784527Y-87194743D01*
X88854947Y-87196244D01*
X88919267Y-87220092D01*
X88933426Y-87229250D01*
X88965904Y-87257586D01*
X88988116Y-87293432D01*
X89001804Y-87342121D01*
X89008715Y-87408986D01*
X89009628Y-87452984D01*
X89010590Y-87499359D01*
X89010307Y-87538042D01*
X91830256Y-87197705D02*
X91773384Y-87218824D01*
X91773384Y-87218824D02*
X91772733Y-87219230D01*
X91772733Y-87219230D02*
X91737560Y-87245117D01*
X91737560Y-87245117D02*
X91711593Y-87275370D01*
X91711593Y-87275370D02*
X91693330Y-87314795D01*
X91693330Y-87314795D02*
X91681268Y-87368199D01*
X91681268Y-87368199D02*
X91673904Y-87440388D01*
X91673904Y-87440388D02*
X91669736Y-87536169D01*
X91669736Y-87536169D02*
X91669371Y-87549815D01*
X91669371Y-87549815D02*
X91664124Y-87755579D01*
X91664124Y-87755579D02*
X91708284Y-87778415D01*
X91708284Y-87778415D02*
X91740237Y-87793847D01*
X91740237Y-87793847D02*
X91759530Y-87801160D01*
X91759530Y-87801160D02*
X91760422Y-87801251D01*
X91760422Y-87801251D02*
X91763761Y-87787759D01*
X91763761Y-87787759D02*
X91766413Y-87751363D01*
X91766413Y-87751363D02*
X91768044Y-87698189D01*
X91768044Y-87698189D02*
X91768400Y-87655130D01*
X91768400Y-87655130D02*
X91768408Y-87585378D01*
X91768408Y-87585378D02*
X91771597Y-87541574D01*
X91771597Y-87541574D02*
X91782712Y-87520681D01*
X91782712Y-87520681D02*
X91806499Y-87519662D01*
X91806499Y-87519662D02*
X91847704Y-87535478D01*
X91847704Y-87535478D02*
X91909914Y-87564552D01*
X91909914Y-87564552D02*
X91955659Y-87588700D01*
X91955659Y-87588700D02*
X91979187Y-87609650D01*
X91979187Y-87609650D02*
X91986104Y-87632484D01*
X91986104Y-87632484D02*
X91986114Y-87633614D01*
X91986114Y-87633614D02*
X91974701Y-87672949D01*
X91974701Y-87672949D02*
X91940908Y-87694199D01*
X91940908Y-87694199D02*
X91889191Y-87697276D01*
X91889191Y-87697276D02*
X91851939Y-87696743D01*
X91851939Y-87696743D02*
X91832297Y-87707472D01*
X91832297Y-87707472D02*
X91820048Y-87733242D01*
X91820048Y-87733242D02*
X91812998Y-87766074D01*
X91812998Y-87766074D02*
X91823158Y-87784703D01*
X91823158Y-87784703D02*
X91826983Y-87787369D01*
X91826983Y-87787369D02*
X91862999Y-87798077D01*
X91862999Y-87798077D02*
X91913434Y-87799593D01*
X91913434Y-87799593D02*
X91965374Y-87792496D01*
X91965374Y-87792496D02*
X92002178Y-87779525D01*
X92002178Y-87779525D02*
X92053062Y-87736322D01*
X92053062Y-87736322D02*
X92081986Y-87676183D01*
X92081986Y-87676183D02*
X92087714Y-87629199D01*
X92087714Y-87629199D02*
X92083343Y-87586819D01*
X92083343Y-87586819D02*
X92067525Y-87552225D01*
X92067525Y-87552225D02*
X92036203Y-87521500D01*
X92036203Y-87521500D02*
X91985322Y-87490727D01*
X91985322Y-87490727D02*
X91910824Y-87455989D01*
X91910824Y-87455989D02*
X91906286Y-87454025D01*
X91906286Y-87454025D02*
X91839179Y-87423024D01*
X91839179Y-87423024D02*
X91797768Y-87397599D01*
X91797768Y-87397599D02*
X91780019Y-87374751D01*
X91780019Y-87374751D02*
X91783893Y-87351482D01*
X91783893Y-87351482D02*
X91807357Y-87324793D01*
X91807357Y-87324793D02*
X91814373Y-87318651D01*
X91814373Y-87318651D02*
X91861370Y-87294837D01*
X91861370Y-87294837D02*
X91910067Y-87295840D01*
X91910067Y-87295840D02*
X91952478Y-87319188D01*
X91952478Y-87319188D02*
X91980616Y-87362412D01*
X91980616Y-87362412D02*
X91983231Y-87370897D01*
X91983231Y-87370897D02*
X92008692Y-87412045D01*
X92008692Y-87412045D02*
X92040999Y-87431865D01*
X92040999Y-87431865D02*
X92087714Y-87451507D01*
X92087714Y-87451507D02*
X92087714Y-87400687D01*
X92087714Y-87400687D02*
X92073504Y-87326819D01*
X92073504Y-87326819D02*
X92031325Y-87259064D01*
X92031325Y-87259064D02*
X92009376Y-87236398D01*
X92009376Y-87236398D02*
X91959483Y-87207306D01*
X91959483Y-87207306D02*
X91896033Y-87194137D01*
X91896033Y-87194137D02*
X91830256Y-87197705D01*
X91830256Y-87197705D02*
X91830256Y-87197705D01*
G36*
X91959483Y-87207306D02*
G01*
X92009376Y-87236398D01*
X92031325Y-87259064D01*
X92073504Y-87326819D01*
X92087714Y-87400687D01*
X92087714Y-87451507D01*
X92040999Y-87431865D01*
X92008692Y-87412045D01*
X91983231Y-87370897D01*
X91980616Y-87362412D01*
X91952478Y-87319188D01*
X91910067Y-87295840D01*
X91861370Y-87294837D01*
X91814373Y-87318651D01*
X91807357Y-87324793D01*
X91783893Y-87351482D01*
X91780019Y-87374751D01*
X91797768Y-87397599D01*
X91839179Y-87423024D01*
X91906286Y-87454025D01*
X91910824Y-87455989D01*
X91985322Y-87490727D01*
X92036203Y-87521500D01*
X92067525Y-87552225D01*
X92083343Y-87586819D01*
X92087714Y-87629199D01*
X92081986Y-87676183D01*
X92053062Y-87736322D01*
X92002178Y-87779525D01*
X91965374Y-87792496D01*
X91913434Y-87799593D01*
X91862999Y-87798077D01*
X91826983Y-87787369D01*
X91823158Y-87784703D01*
X91812998Y-87766074D01*
X91820048Y-87733242D01*
X91832297Y-87707472D01*
X91851939Y-87696743D01*
X91889191Y-87697276D01*
X91940908Y-87694199D01*
X91974701Y-87672949D01*
X91986114Y-87633614D01*
X91986104Y-87632484D01*
X91979187Y-87609650D01*
X91955659Y-87588700D01*
X91909914Y-87564552D01*
X91847704Y-87535478D01*
X91806499Y-87519662D01*
X91782712Y-87520681D01*
X91771597Y-87541574D01*
X91768408Y-87585378D01*
X91768400Y-87655130D01*
X91768044Y-87698189D01*
X91766413Y-87751363D01*
X91763761Y-87787759D01*
X91760422Y-87801251D01*
X91759530Y-87801160D01*
X91740237Y-87793847D01*
X91708284Y-87778415D01*
X91664124Y-87755579D01*
X91669371Y-87549815D01*
X91669736Y-87536169D01*
X91673904Y-87440388D01*
X91681268Y-87368199D01*
X91693330Y-87314795D01*
X91711593Y-87275370D01*
X91737560Y-87245117D01*
X91772733Y-87219230D01*
X91773384Y-87218824D01*
X91830256Y-87197705D01*
X91896033Y-87194137D01*
X91959483Y-87207306D01*
G37*
X91959483Y-87207306D02*
X92009376Y-87236398D01*
X92031325Y-87259064D01*
X92073504Y-87326819D01*
X92087714Y-87400687D01*
X92087714Y-87451507D01*
X92040999Y-87431865D01*
X92008692Y-87412045D01*
X91983231Y-87370897D01*
X91980616Y-87362412D01*
X91952478Y-87319188D01*
X91910067Y-87295840D01*
X91861370Y-87294837D01*
X91814373Y-87318651D01*
X91807357Y-87324793D01*
X91783893Y-87351482D01*
X91780019Y-87374751D01*
X91797768Y-87397599D01*
X91839179Y-87423024D01*
X91906286Y-87454025D01*
X91910824Y-87455989D01*
X91985322Y-87490727D01*
X92036203Y-87521500D01*
X92067525Y-87552225D01*
X92083343Y-87586819D01*
X92087714Y-87629199D01*
X92081986Y-87676183D01*
X92053062Y-87736322D01*
X92002178Y-87779525D01*
X91965374Y-87792496D01*
X91913434Y-87799593D01*
X91862999Y-87798077D01*
X91826983Y-87787369D01*
X91823158Y-87784703D01*
X91812998Y-87766074D01*
X91820048Y-87733242D01*
X91832297Y-87707472D01*
X91851939Y-87696743D01*
X91889191Y-87697276D01*
X91940908Y-87694199D01*
X91974701Y-87672949D01*
X91986114Y-87633614D01*
X91986104Y-87632484D01*
X91979187Y-87609650D01*
X91955659Y-87588700D01*
X91909914Y-87564552D01*
X91847704Y-87535478D01*
X91806499Y-87519662D01*
X91782712Y-87520681D01*
X91771597Y-87541574D01*
X91768408Y-87585378D01*
X91768400Y-87655130D01*
X91768044Y-87698189D01*
X91766413Y-87751363D01*
X91763761Y-87787759D01*
X91760422Y-87801251D01*
X91759530Y-87801160D01*
X91740237Y-87793847D01*
X91708284Y-87778415D01*
X91664124Y-87755579D01*
X91669371Y-87549815D01*
X91669736Y-87536169D01*
X91673904Y-87440388D01*
X91681268Y-87368199D01*
X91693330Y-87314795D01*
X91711593Y-87275370D01*
X91737560Y-87245117D01*
X91772733Y-87219230D01*
X91773384Y-87218824D01*
X91830256Y-87197705D01*
X91896033Y-87194137D01*
X91959483Y-87207306D01*
X91340074Y-87196492D02*
X91274142Y-87220821D01*
X91274142Y-87220821D02*
X91220727Y-87263854D01*
X91220727Y-87263854D02*
X91199836Y-87294146D01*
X91199836Y-87294146D02*
X91177061Y-87349731D01*
X91177061Y-87349731D02*
X91177534Y-87389923D01*
X91177534Y-87389923D02*
X91201438Y-87416954D01*
X91201438Y-87416954D02*
X91210283Y-87421550D01*
X91210283Y-87421550D02*
X91248470Y-87435881D01*
X91248470Y-87435881D02*
X91267972Y-87432209D01*
X91267972Y-87432209D02*
X91274578Y-87408144D01*
X91274578Y-87408144D02*
X91274914Y-87394851D01*
X91274914Y-87394851D02*
X91287008Y-87345947D01*
X91287008Y-87345947D02*
X91318529Y-87311736D01*
X91318529Y-87311736D02*
X91362341Y-87295213D01*
X91362341Y-87295213D02*
X91411305Y-87299371D01*
X91411305Y-87299371D02*
X91451106Y-87320964D01*
X91451106Y-87320964D02*
X91464550Y-87333281D01*
X91464550Y-87333281D02*
X91474079Y-87348224D01*
X91474079Y-87348224D02*
X91480515Y-87370812D01*
X91480515Y-87370812D02*
X91484683Y-87406065D01*
X91484683Y-87406065D02*
X91487403Y-87459003D01*
X91487403Y-87459003D02*
X91489498Y-87534644D01*
X91489498Y-87534644D02*
X91490040Y-87558594D01*
X91490040Y-87558594D02*
X91492019Y-87640527D01*
X91492019Y-87640527D02*
X91494269Y-87698192D01*
X91494269Y-87698192D02*
X91497643Y-87736345D01*
X91497643Y-87736345D02*
X91502994Y-87759741D01*
X91502994Y-87759741D02*
X91511176Y-87773135D01*
X91511176Y-87773135D02*
X91523041Y-87781282D01*
X91523041Y-87781282D02*
X91530638Y-87784881D01*
X91530638Y-87784881D02*
X91562898Y-87797189D01*
X91562898Y-87797189D02*
X91581889Y-87801251D01*
X91581889Y-87801251D02*
X91588164Y-87787685D01*
X91588164Y-87787685D02*
X91591994Y-87746671D01*
X91591994Y-87746671D02*
X91593400Y-87677736D01*
X91593400Y-87677736D02*
X91592402Y-87580406D01*
X91592402Y-87580406D02*
X91592092Y-87565394D01*
X91592092Y-87565394D02*
X91589899Y-87476596D01*
X91589899Y-87476596D02*
X91587307Y-87411756D01*
X91587307Y-87411756D02*
X91583618Y-87365804D01*
X91583618Y-87365804D02*
X91578136Y-87333672D01*
X91578136Y-87333672D02*
X91570165Y-87310290D01*
X91570165Y-87310290D02*
X91559007Y-87290589D01*
X91559007Y-87290589D02*
X91553170Y-87282147D01*
X91553170Y-87282147D02*
X91519704Y-87244794D01*
X91519704Y-87244794D02*
X91482273Y-87215740D01*
X91482273Y-87215740D02*
X91477691Y-87213204D01*
X91477691Y-87213204D02*
X91410574Y-87193180D01*
X91410574Y-87193180D02*
X91340074Y-87196492D01*
X91340074Y-87196492D02*
X91340074Y-87196492D01*
G36*
X91477691Y-87213204D02*
G01*
X91482273Y-87215740D01*
X91519704Y-87244794D01*
X91553170Y-87282147D01*
X91559007Y-87290589D01*
X91570165Y-87310290D01*
X91578136Y-87333672D01*
X91583618Y-87365804D01*
X91587307Y-87411756D01*
X91589899Y-87476596D01*
X91592092Y-87565394D01*
X91592402Y-87580406D01*
X91593400Y-87677736D01*
X91591994Y-87746671D01*
X91588164Y-87787685D01*
X91581889Y-87801251D01*
X91562898Y-87797189D01*
X91530638Y-87784881D01*
X91523041Y-87781282D01*
X91511176Y-87773135D01*
X91502994Y-87759741D01*
X91497643Y-87736345D01*
X91494269Y-87698192D01*
X91492019Y-87640527D01*
X91490040Y-87558594D01*
X91489498Y-87534644D01*
X91487403Y-87459003D01*
X91484683Y-87406065D01*
X91480515Y-87370812D01*
X91474079Y-87348224D01*
X91464550Y-87333281D01*
X91451106Y-87320964D01*
X91411305Y-87299371D01*
X91362341Y-87295213D01*
X91318529Y-87311736D01*
X91287008Y-87345947D01*
X91274914Y-87394851D01*
X91274578Y-87408144D01*
X91267972Y-87432209D01*
X91248470Y-87435881D01*
X91210283Y-87421550D01*
X91201438Y-87416954D01*
X91177534Y-87389923D01*
X91177061Y-87349731D01*
X91199836Y-87294146D01*
X91220727Y-87263854D01*
X91274142Y-87220821D01*
X91340074Y-87196492D01*
X91410574Y-87193180D01*
X91477691Y-87213204D01*
G37*
X91477691Y-87213204D02*
X91482273Y-87215740D01*
X91519704Y-87244794D01*
X91553170Y-87282147D01*
X91559007Y-87290589D01*
X91570165Y-87310290D01*
X91578136Y-87333672D01*
X91583618Y-87365804D01*
X91587307Y-87411756D01*
X91589899Y-87476596D01*
X91592092Y-87565394D01*
X91592402Y-87580406D01*
X91593400Y-87677736D01*
X91591994Y-87746671D01*
X91588164Y-87787685D01*
X91581889Y-87801251D01*
X91562898Y-87797189D01*
X91530638Y-87784881D01*
X91523041Y-87781282D01*
X91511176Y-87773135D01*
X91502994Y-87759741D01*
X91497643Y-87736345D01*
X91494269Y-87698192D01*
X91492019Y-87640527D01*
X91490040Y-87558594D01*
X91489498Y-87534644D01*
X91487403Y-87459003D01*
X91484683Y-87406065D01*
X91480515Y-87370812D01*
X91474079Y-87348224D01*
X91464550Y-87333281D01*
X91451106Y-87320964D01*
X91411305Y-87299371D01*
X91362341Y-87295213D01*
X91318529Y-87311736D01*
X91287008Y-87345947D01*
X91274914Y-87394851D01*
X91274578Y-87408144D01*
X91267972Y-87432209D01*
X91248470Y-87435881D01*
X91210283Y-87421550D01*
X91201438Y-87416954D01*
X91177534Y-87389923D01*
X91177061Y-87349731D01*
X91199836Y-87294146D01*
X91220727Y-87263854D01*
X91274142Y-87220821D01*
X91340074Y-87196492D01*
X91410574Y-87193180D01*
X91477691Y-87213204D01*
X93701697Y-87177976D02*
X93644473Y-87216472D01*
X93644473Y-87216472D02*
X93600251Y-87272072D01*
X93600251Y-87272072D02*
X93573833Y-87342823D01*
X93573833Y-87342823D02*
X93568490Y-87394899D01*
X93568490Y-87394899D02*
X93569097Y-87416630D01*
X93569097Y-87416630D02*
X93574178Y-87433268D01*
X93574178Y-87433268D02*
X93588145Y-87448174D01*
X93588145Y-87448174D02*
X93615411Y-87464710D01*
X93615411Y-87464710D02*
X93660388Y-87486235D01*
X93660388Y-87486235D02*
X93727489Y-87516111D01*
X93727489Y-87516111D02*
X93727829Y-87516261D01*
X93727829Y-87516261D02*
X93789593Y-87544550D01*
X93789593Y-87544550D02*
X93840241Y-87569670D01*
X93840241Y-87569670D02*
X93874596Y-87588916D01*
X93874596Y-87588916D02*
X93887482Y-87599585D01*
X93887482Y-87599585D02*
X93887486Y-87599671D01*
X93887486Y-87599671D02*
X93876128Y-87622903D01*
X93876128Y-87622903D02*
X93849569Y-87648511D01*
X93849569Y-87648511D02*
X93819077Y-87666958D01*
X93819077Y-87666958D02*
X93803630Y-87670623D01*
X93803630Y-87670623D02*
X93761485Y-87657949D01*
X93761485Y-87657949D02*
X93725192Y-87626208D01*
X93725192Y-87626208D02*
X93707483Y-87591309D01*
X93707483Y-87591309D02*
X93690448Y-87565582D01*
X93690448Y-87565582D02*
X93657078Y-87536283D01*
X93657078Y-87536283D02*
X93617851Y-87510972D01*
X93617851Y-87510972D02*
X93583244Y-87497208D01*
X93583244Y-87497208D02*
X93576007Y-87496451D01*
X93576007Y-87496451D02*
X93567861Y-87508897D01*
X93567861Y-87508897D02*
X93567370Y-87540709D01*
X93567370Y-87540709D02*
X93573357Y-87583603D01*
X93573357Y-87583603D02*
X93584643Y-87629295D01*
X93584643Y-87629295D02*
X93600050Y-87669498D01*
X93600050Y-87669498D02*
X93600829Y-87671059D01*
X93600829Y-87671059D02*
X93647196Y-87735799D01*
X93647196Y-87735799D02*
X93707289Y-87779834D01*
X93707289Y-87779834D02*
X93775535Y-87801448D01*
X93775535Y-87801448D02*
X93846362Y-87798922D01*
X93846362Y-87798922D02*
X93914196Y-87770541D01*
X93914196Y-87770541D02*
X93917212Y-87768545D01*
X93917212Y-87768545D02*
X93970573Y-87720185D01*
X93970573Y-87720185D02*
X94005660Y-87657089D01*
X94005660Y-87657089D02*
X94025078Y-87574124D01*
X94025078Y-87574124D02*
X94027684Y-87550815D01*
X94027684Y-87550815D02*
X94032299Y-87440792D01*
X94032299Y-87440792D02*
X94026767Y-87389485D01*
X94026767Y-87389485D02*
X93887486Y-87389485D01*
X93887486Y-87389485D02*
X93885676Y-87421490D01*
X93885676Y-87421490D02*
X93875778Y-87430830D01*
X93875778Y-87430830D02*
X93851102Y-87423842D01*
X93851102Y-87423842D02*
X93812205Y-87407324D01*
X93812205Y-87407324D02*
X93768725Y-87386618D01*
X93768725Y-87386618D02*
X93767644Y-87386070D01*
X93767644Y-87386070D02*
X93730791Y-87366686D01*
X93730791Y-87366686D02*
X93716000Y-87353750D01*
X93716000Y-87353750D02*
X93719647Y-87340188D01*
X93719647Y-87340188D02*
X93735005Y-87322369D01*
X93735005Y-87322369D02*
X93774077Y-87296582D01*
X93774077Y-87296582D02*
X93816154Y-87294687D01*
X93816154Y-87294687D02*
X93853897Y-87313454D01*
X93853897Y-87313454D02*
X93879966Y-87349652D01*
X93879966Y-87349652D02*
X93887486Y-87389485D01*
X93887486Y-87389485D02*
X94026767Y-87389485D01*
X94026767Y-87389485D02*
X94022806Y-87352764D01*
X94022806Y-87352764D02*
X93998450Y-87282949D01*
X93998450Y-87282949D02*
X93964544Y-87234039D01*
X93964544Y-87234039D02*
X93903347Y-87184615D01*
X93903347Y-87184615D02*
X93835937Y-87160096D01*
X93835937Y-87160096D02*
X93767120Y-87158534D01*
X93767120Y-87158534D02*
X93701697Y-87177976D01*
X93701697Y-87177976D02*
X93701697Y-87177976D01*
G36*
X94027684Y-87550815D02*
G01*
X94025078Y-87574124D01*
X94005660Y-87657089D01*
X93970573Y-87720185D01*
X93917212Y-87768545D01*
X93914196Y-87770541D01*
X93846362Y-87798922D01*
X93775535Y-87801448D01*
X93707289Y-87779834D01*
X93647196Y-87735799D01*
X93600829Y-87671059D01*
X93600050Y-87669498D01*
X93584643Y-87629295D01*
X93573357Y-87583603D01*
X93567370Y-87540709D01*
X93567861Y-87508897D01*
X93576007Y-87496451D01*
X93583244Y-87497208D01*
X93617851Y-87510972D01*
X93657078Y-87536283D01*
X93690448Y-87565582D01*
X93707483Y-87591309D01*
X93725192Y-87626208D01*
X93761485Y-87657949D01*
X93803630Y-87670623D01*
X93819077Y-87666958D01*
X93849569Y-87648511D01*
X93876128Y-87622903D01*
X93887486Y-87599671D01*
X93887482Y-87599585D01*
X93874596Y-87588916D01*
X93840241Y-87569670D01*
X93789593Y-87544550D01*
X93727829Y-87516261D01*
X93727489Y-87516111D01*
X93660388Y-87486235D01*
X93615411Y-87464710D01*
X93588145Y-87448174D01*
X93574178Y-87433268D01*
X93569097Y-87416630D01*
X93568490Y-87394899D01*
X93572712Y-87353750D01*
X93716000Y-87353750D01*
X93730791Y-87366686D01*
X93767644Y-87386070D01*
X93768725Y-87386618D01*
X93812205Y-87407324D01*
X93851102Y-87423842D01*
X93875778Y-87430830D01*
X93885676Y-87421490D01*
X93887486Y-87389485D01*
X93879966Y-87349652D01*
X93853897Y-87313454D01*
X93816154Y-87294687D01*
X93774077Y-87296582D01*
X93735005Y-87322369D01*
X93719647Y-87340188D01*
X93716000Y-87353750D01*
X93572712Y-87353750D01*
X93573833Y-87342823D01*
X93600251Y-87272072D01*
X93644473Y-87216472D01*
X93701697Y-87177976D01*
X93767120Y-87158534D01*
X93835937Y-87160096D01*
X93903347Y-87184615D01*
X93964544Y-87234039D01*
X93998450Y-87282949D01*
X94022806Y-87352764D01*
X94026767Y-87389485D01*
X94032299Y-87440792D01*
X94027684Y-87550815D01*
G37*
X94027684Y-87550815D02*
X94025078Y-87574124D01*
X94005660Y-87657089D01*
X93970573Y-87720185D01*
X93917212Y-87768545D01*
X93914196Y-87770541D01*
X93846362Y-87798922D01*
X93775535Y-87801448D01*
X93707289Y-87779834D01*
X93647196Y-87735799D01*
X93600829Y-87671059D01*
X93600050Y-87669498D01*
X93584643Y-87629295D01*
X93573357Y-87583603D01*
X93567370Y-87540709D01*
X93567861Y-87508897D01*
X93576007Y-87496451D01*
X93583244Y-87497208D01*
X93617851Y-87510972D01*
X93657078Y-87536283D01*
X93690448Y-87565582D01*
X93707483Y-87591309D01*
X93725192Y-87626208D01*
X93761485Y-87657949D01*
X93803630Y-87670623D01*
X93819077Y-87666958D01*
X93849569Y-87648511D01*
X93876128Y-87622903D01*
X93887486Y-87599671D01*
X93887482Y-87599585D01*
X93874596Y-87588916D01*
X93840241Y-87569670D01*
X93789593Y-87544550D01*
X93727829Y-87516261D01*
X93727489Y-87516111D01*
X93660388Y-87486235D01*
X93615411Y-87464710D01*
X93588145Y-87448174D01*
X93574178Y-87433268D01*
X93569097Y-87416630D01*
X93568490Y-87394899D01*
X93572712Y-87353750D01*
X93716000Y-87353750D01*
X93730791Y-87366686D01*
X93767644Y-87386070D01*
X93768725Y-87386618D01*
X93812205Y-87407324D01*
X93851102Y-87423842D01*
X93875778Y-87430830D01*
X93885676Y-87421490D01*
X93887486Y-87389485D01*
X93879966Y-87349652D01*
X93853897Y-87313454D01*
X93816154Y-87294687D01*
X93774077Y-87296582D01*
X93735005Y-87322369D01*
X93719647Y-87340188D01*
X93716000Y-87353750D01*
X93572712Y-87353750D01*
X93573833Y-87342823D01*
X93600251Y-87272072D01*
X93644473Y-87216472D01*
X93701697Y-87177976D01*
X93767120Y-87158534D01*
X93835937Y-87160096D01*
X93903347Y-87184615D01*
X93964544Y-87234039D01*
X93998450Y-87282949D01*
X94022806Y-87352764D01*
X94026767Y-87389485D01*
X94032299Y-87440792D01*
X94027684Y-87550815D01*
D11*
%TO.C,C5*%
X109314809Y-49555771D02*
X109033649Y-49555771D01*
X109314809Y-48535771D02*
X109033649Y-48535771D01*
%TO.C,R4*%
X116031729Y-50388029D02*
X116031729Y-49913513D01*
X114986729Y-50388029D02*
X114986729Y-49913513D01*
%TO.C,J2*%
X122459229Y-58090771D02*
X122459229Y-54220771D01*
X129739229Y-53350771D02*
X129739229Y-58090771D01*
X123349229Y-53350771D02*
X129739229Y-53350771D01*
X122459229Y-54220771D02*
X123349229Y-53350771D01*
X129739229Y-58090771D02*
X122459229Y-58090771D01*
%TO.C,U2*%
X114709229Y-46570771D02*
X114709229Y-44770771D01*
X117829229Y-46570771D02*
X117829229Y-45770771D01*
X117829229Y-46570771D02*
X117829229Y-47370771D01*
X114709229Y-46570771D02*
X114709229Y-47370771D01*
D10*
%TO.C,FB2*%
X108259229Y-46610771D02*
X109959229Y-46610771D01*
X108259229Y-45310771D02*
X109959229Y-45310771D01*
D11*
%TO.C,D13*%
X95530479Y-72114521D02*
X95530479Y-73264521D01*
X88230479Y-77614521D02*
X95530479Y-77614521D01*
X88230479Y-72114521D02*
X95530479Y-72114521D01*
%TO.C,C13*%
X116484199Y-70484552D02*
X116683010Y-70285741D01*
X117205448Y-71205801D02*
X117404259Y-71006990D01*
D10*
%TO.C,FB1*%
X111584229Y-38715771D02*
X111584229Y-40415771D01*
X110284229Y-38715771D02*
X110284229Y-40415771D01*
D11*
%TO.C,RN1*%
X129686729Y-47969521D02*
X128686729Y-47969521D01*
X129686729Y-44609521D02*
X128686729Y-44609521D01*
%TO.C,R5*%
X129171729Y-52358029D02*
X129171729Y-51883513D01*
X128126729Y-52358029D02*
X128126729Y-51883513D01*
%TO.C,C3*%
X109289809Y-47010771D02*
X109008649Y-47010771D01*
X109289809Y-48030771D02*
X109008649Y-48030771D01*
%TO.C,R6*%
X107701729Y-62708513D02*
X107701729Y-63183029D01*
X108746729Y-62708513D02*
X108746729Y-63183029D01*
%TO.C,C8*%
X109114809Y-59705771D02*
X108833649Y-59705771D01*
X109114809Y-58685771D02*
X108833649Y-58685771D01*
%TO.C,D12*%
X113374229Y-72114521D02*
X120674229Y-72114521D01*
X113374229Y-77614521D02*
X120674229Y-77614521D01*
X120674229Y-72114521D02*
X120674229Y-73264521D01*
%TO.C,kibuzzard-61BA68AC*%
G36*
X110030687Y-85603506D02*
G01*
X110168800Y-85643987D01*
X110357712Y-85778925D01*
X110452962Y-85947200D01*
X110479950Y-86101187D01*
X110470425Y-86174212D01*
X110438675Y-86212312D01*
X110372000Y-86221837D01*
X110294212Y-86193262D01*
X110270400Y-86120237D01*
X110254525Y-86009112D01*
X110194200Y-85899575D01*
X110068787Y-85813850D01*
X109864000Y-85780512D01*
X109690962Y-85805912D01*
X109571900Y-85882112D01*
X109502844Y-86009906D01*
X109479825Y-86190087D01*
X109525862Y-86434562D01*
X109660800Y-86559975D01*
X109876700Y-86596487D01*
X109937025Y-86625062D01*
X109956075Y-86688562D01*
X109937025Y-86750475D01*
X109876700Y-86777463D01*
X109690962Y-86802863D01*
X109546500Y-86879063D01*
X109453631Y-87010031D01*
X109422675Y-87199738D01*
X109422675Y-87260062D01*
X109452044Y-87472391D01*
X109540150Y-87620425D01*
X109684612Y-87707341D01*
X109883050Y-87736313D01*
X110098950Y-87701388D01*
X110235475Y-87612488D01*
X110306912Y-87496600D01*
X110327550Y-87383888D01*
X110349775Y-87318800D01*
X110438675Y-87294988D01*
X110510112Y-87317213D01*
X110533925Y-87406113D01*
X110495825Y-87587088D01*
X110375175Y-87755363D01*
X110168800Y-87880775D01*
X109960837Y-87929988D01*
X109784625Y-87929988D01*
X109541737Y-87863313D01*
X109406403Y-87776794D01*
X109302025Y-87650588D01*
X109235350Y-87479931D01*
X109213125Y-87260062D01*
X109213125Y-87199738D01*
X109236144Y-87011619D01*
X109305200Y-86866363D01*
X109409181Y-86759206D01*
X109536975Y-86685387D01*
X109434978Y-86611569D01*
X109351237Y-86498062D01*
X109295278Y-86344075D01*
X109276625Y-86148812D01*
X109295278Y-85963472D01*
X109351237Y-85820200D01*
X109439741Y-85715028D01*
X109556025Y-85643987D01*
X109696519Y-85603506D01*
X109857650Y-85590012D01*
X110030687Y-85603506D01*
G37*
G36*
X108481287Y-85603506D02*
G01*
X108619400Y-85643987D01*
X108808312Y-85778925D01*
X108903562Y-85947200D01*
X108930550Y-86101187D01*
X108921025Y-86174212D01*
X108889275Y-86212312D01*
X108822600Y-86221837D01*
X108744812Y-86193262D01*
X108721000Y-86120237D01*
X108705125Y-86009112D01*
X108644800Y-85899575D01*
X108519387Y-85813850D01*
X108314600Y-85780512D01*
X108141562Y-85805912D01*
X108022500Y-85882112D01*
X107953444Y-86009906D01*
X107930425Y-86190087D01*
X107976462Y-86434562D01*
X108111400Y-86559975D01*
X108327300Y-86596487D01*
X108387625Y-86625062D01*
X108406675Y-86688562D01*
X108387625Y-86750475D01*
X108327300Y-86777463D01*
X108141562Y-86802863D01*
X107997100Y-86879063D01*
X107904231Y-87010031D01*
X107873275Y-87199738D01*
X107873275Y-87260062D01*
X107902644Y-87472391D01*
X107990750Y-87620425D01*
X108135213Y-87707341D01*
X108333650Y-87736313D01*
X108549550Y-87701388D01*
X108686075Y-87612488D01*
X108757512Y-87496600D01*
X108778150Y-87383888D01*
X108800375Y-87318800D01*
X108889275Y-87294988D01*
X108960712Y-87317213D01*
X108984525Y-87406113D01*
X108946425Y-87587088D01*
X108825775Y-87755363D01*
X108619400Y-87880775D01*
X108411437Y-87929988D01*
X108235225Y-87929988D01*
X107992337Y-87863313D01*
X107857003Y-87776794D01*
X107752625Y-87650588D01*
X107685950Y-87479931D01*
X107663725Y-87260062D01*
X107663725Y-87199738D01*
X107686744Y-87011619D01*
X107755800Y-86866363D01*
X107859781Y-86759206D01*
X107987575Y-86685387D01*
X107885578Y-86611569D01*
X107801837Y-86498062D01*
X107745878Y-86344075D01*
X107727225Y-86148812D01*
X107745878Y-85963472D01*
X107801837Y-85820200D01*
X107890341Y-85715028D01*
X108006625Y-85643987D01*
X108147119Y-85603506D01*
X108308250Y-85590012D01*
X108481287Y-85603506D01*
G37*
G36*
X113443813Y-87887125D02*
G01*
X113396188Y-87910938D01*
X112775475Y-87910938D01*
X112608788Y-87895063D01*
X112457975Y-87847438D01*
X112330181Y-87764094D01*
X112232550Y-87641063D01*
X112170638Y-87473581D01*
X112150000Y-87256888D01*
X112150000Y-87247363D01*
X112359550Y-87247363D01*
X112388919Y-87458897D01*
X112477025Y-87604550D01*
X112617519Y-87689084D01*
X112804050Y-87717263D01*
X113261250Y-87717263D01*
X113261250Y-86742537D01*
X112804050Y-86742537D01*
X112617519Y-86767938D01*
X112477025Y-86844138D01*
X112388919Y-86982250D01*
X112359550Y-87193388D01*
X112359550Y-87247363D01*
X112150000Y-87247363D01*
X112150000Y-87199738D01*
X112160319Y-87049719D01*
X112191275Y-86929863D01*
X112305575Y-86758412D01*
X112477025Y-86653637D01*
X112367884Y-86579422D01*
X112281763Y-86464725D01*
X112225803Y-86313516D01*
X112209406Y-86151987D01*
X112416700Y-86151987D01*
X112442894Y-86344075D01*
X112521475Y-86469487D01*
X112655619Y-86538544D01*
X112848500Y-86561562D01*
X113261250Y-86561562D01*
X113261250Y-85783687D01*
X112861200Y-85783687D01*
X112629425Y-85813850D01*
X112473850Y-85923387D01*
X112416700Y-86151987D01*
X112209406Y-86151987D01*
X112207150Y-86129762D01*
X112228978Y-85931722D01*
X112294463Y-85788450D01*
X112396856Y-85691216D01*
X112529413Y-85631287D01*
X112684591Y-85600331D01*
X112854850Y-85590012D01*
X113375550Y-85590012D01*
X113440638Y-85610650D01*
X113470800Y-85669387D01*
X113470800Y-87831563D01*
X113443813Y-87887125D01*
G37*
G36*
X118095188Y-87647413D02*
G01*
X117992397Y-87776000D01*
X117858650Y-87863313D01*
X117617350Y-87929988D01*
X117431613Y-87929988D01*
X117188725Y-87863313D01*
X117054581Y-87776000D01*
X116950600Y-87647413D01*
X116883925Y-87473581D01*
X116861700Y-87250538D01*
X117071250Y-87250538D01*
X117101413Y-87468025D01*
X117191900Y-87618838D01*
X117335569Y-87706944D01*
X117525275Y-87736313D01*
X117714188Y-87706944D01*
X117855475Y-87618838D01*
X117943581Y-87468025D01*
X117972950Y-87250538D01*
X117972950Y-86266287D01*
X117943581Y-86051181D01*
X117855475Y-85901162D01*
X117714188Y-85813056D01*
X117525275Y-85783687D01*
X117335569Y-85813056D01*
X117191900Y-85901162D01*
X117101413Y-86051181D01*
X117071250Y-86266287D01*
X117071250Y-87250538D01*
X116861700Y-87250538D01*
X116861700Y-86266287D01*
X116883925Y-86045625D01*
X116950600Y-85872587D01*
X117054581Y-85744000D01*
X117188725Y-85656687D01*
X117347475Y-85606681D01*
X117525275Y-85590012D01*
X117702678Y-85606681D01*
X117860238Y-85656687D01*
X117992794Y-85744000D01*
X118095188Y-85872587D01*
X118160672Y-86045625D01*
X118182500Y-86266287D01*
X118182500Y-87250538D01*
X118160672Y-87473581D01*
X118095188Y-87647413D01*
G37*
G36*
X110984775Y-85601125D02*
G01*
X111016525Y-85634462D01*
X111276875Y-86002762D01*
X111308625Y-86045625D01*
X111324500Y-86098012D01*
X111300687Y-86161512D01*
X111241950Y-86190087D01*
X111210200Y-86180562D01*
X111181625Y-86151987D01*
X111054625Y-85945612D01*
X111054625Y-87828388D01*
X111022875Y-87890300D01*
X110970487Y-87910938D01*
X110930800Y-87910938D01*
X110878412Y-87890300D01*
X110845075Y-87828388D01*
X110845075Y-85666212D01*
X110873650Y-85607475D01*
X110937150Y-85586837D01*
X110984775Y-85601125D01*
G37*
G36*
X116521975Y-86405987D02*
G01*
X116571188Y-86445675D01*
X116591825Y-86494887D01*
X116585475Y-86515525D01*
X116575950Y-86536162D01*
X116163200Y-87152113D01*
X116585475Y-87787113D01*
X116598175Y-87831563D01*
X116577538Y-87877600D01*
X116528325Y-87917288D01*
X116488638Y-87933163D01*
X116468000Y-87933163D01*
X116441013Y-87925225D01*
X116410850Y-87901413D01*
X116026675Y-87307688D01*
X115639325Y-87901413D01*
X115612338Y-87925225D01*
X115579000Y-87933163D01*
X115521850Y-87917288D01*
X115474225Y-87877600D01*
X115455175Y-87831563D01*
X115458350Y-87806163D01*
X115467875Y-87787113D01*
X115893325Y-87152113D01*
X115477400Y-86536162D01*
X115461525Y-86494887D01*
X115482163Y-86442500D01*
X115531375Y-86404400D01*
X115588525Y-86390112D01*
X115621863Y-86398050D01*
X115648850Y-86421862D01*
X116026675Y-87002888D01*
X116401325Y-86421862D01*
X116431488Y-86396462D01*
X116464825Y-86390112D01*
X116521975Y-86405987D01*
G37*
G36*
X107408137Y-85615412D02*
G01*
X107438300Y-85669387D01*
X107438300Y-86148812D01*
X107406550Y-86204375D01*
X107333525Y-86228187D01*
X107260500Y-86204375D01*
X107228750Y-86148812D01*
X107228750Y-85783687D01*
X106327050Y-85783687D01*
X106327050Y-85955137D01*
X107276375Y-87771238D01*
X107289075Y-87815688D01*
X107271612Y-87869663D01*
X107223987Y-87903000D01*
X107177950Y-87914113D01*
X107136675Y-87914113D01*
X107092225Y-87876013D01*
X106149250Y-86034512D01*
X106125437Y-85986887D01*
X106117500Y-85942437D01*
X106117500Y-85669387D01*
X106149250Y-85615412D01*
X106215925Y-85590012D01*
X107343050Y-85590012D01*
X107408137Y-85615412D01*
G37*
G36*
X114669759Y-85606681D02*
G01*
X114828113Y-85656687D01*
X114963844Y-85744000D01*
X115069413Y-85872587D01*
X115137278Y-86045625D01*
X115159900Y-86266287D01*
X115159900Y-87250538D01*
X115137675Y-87473581D01*
X115071000Y-87647413D01*
X114966622Y-87776000D01*
X114831288Y-87863313D01*
X114591575Y-87929988D01*
X114397900Y-87929988D01*
X114282409Y-87911334D01*
X114145488Y-87855375D01*
X114014916Y-87768856D01*
X113918475Y-87658525D01*
X113858944Y-87531128D01*
X113839100Y-87393413D01*
X113866088Y-87290225D01*
X113947050Y-87263238D01*
X114020075Y-87283875D01*
X114048650Y-87345788D01*
X114074050Y-87471200D01*
X114132788Y-87598200D01*
X114258200Y-87696625D01*
X114483625Y-87736313D01*
X114684841Y-87706944D01*
X114831288Y-87618838D01*
X114920584Y-87468025D01*
X114950350Y-87250538D01*
X114950350Y-86266287D01*
X114920981Y-86051181D01*
X114832875Y-85901162D01*
X114689206Y-85813056D01*
X114493150Y-85783687D01*
X114266138Y-85823375D01*
X114132788Y-85923387D01*
X114069288Y-86050387D01*
X114048650Y-86167862D01*
X114024838Y-86223425D01*
X113943875Y-86247237D01*
X113866088Y-86221837D01*
X113839100Y-86120237D01*
X113858547Y-85982919D01*
X113916888Y-85856712D01*
X114011741Y-85747969D01*
X114140725Y-85663037D01*
X114302650Y-85608269D01*
X114496325Y-85590012D01*
X114669759Y-85606681D01*
G37*
G36*
X117606238Y-86679037D02*
G01*
X117639575Y-86761588D01*
X117606238Y-86844138D01*
X117522100Y-86879063D01*
X117439550Y-86844138D01*
X117407800Y-86761588D01*
X117439550Y-86679037D01*
X117522100Y-86647287D01*
X117606238Y-86679037D01*
G37*
%TO.C,C9*%
X117983649Y-58885771D02*
X118264809Y-58885771D01*
X117983649Y-59905771D02*
X118264809Y-59905771D01*
%TO.C,C1*%
X109008649Y-43870771D02*
X109289809Y-43870771D01*
X109008649Y-44890771D02*
X109289809Y-44890771D01*
%TO.C,F1*%
X111527807Y-43320771D02*
X111010651Y-43320771D01*
X111527807Y-41900771D02*
X111010651Y-41900771D01*
%TO.C,D11*%
X95530479Y-53064521D02*
X95530479Y-54214521D01*
X88230479Y-53064521D02*
X95530479Y-53064521D01*
X88230479Y-58564521D02*
X95530479Y-58564521D01*
%TO.C,D10*%
X113374229Y-58545771D02*
X120674229Y-58545771D01*
X120674229Y-53045771D02*
X120674229Y-54195771D01*
X113374229Y-53045771D02*
X120674229Y-53045771D01*
%TO.C,U3*%
X113841577Y-59213962D02*
X114354229Y-58701310D01*
X114866881Y-68399280D02*
X114354229Y-68911932D01*
X118946888Y-64319273D02*
X119459540Y-63806621D01*
X114354229Y-68911932D02*
X113841577Y-68399280D01*
X119459540Y-63806621D02*
X118946888Y-63293969D01*
X109248918Y-63806621D02*
X109761570Y-64319273D01*
X109761570Y-63293969D02*
X109248918Y-63806621D01*
%TO.C,C2*%
X127354229Y-44926351D02*
X127354229Y-44645191D01*
X126334229Y-44926351D02*
X126334229Y-44645191D01*
%TO.C,C14*%
X78284229Y-89305191D02*
X78284229Y-89586351D01*
X77264229Y-89305191D02*
X77264229Y-89586351D01*
%TO.C,R1*%
X121776729Y-42303513D02*
X121776729Y-42778029D01*
X122821729Y-42303513D02*
X122821729Y-42778029D01*
%TO.C,SW1*%
X115274229Y-93670771D02*
X112774229Y-93670771D01*
X115724229Y-93220771D02*
X115274229Y-93670771D01*
X115274229Y-88170771D02*
X112774229Y-88170771D01*
X111274229Y-89920771D02*
X111274229Y-91920771D01*
X115724229Y-88620771D02*
X115274229Y-88170771D01*
X112324229Y-88620771D02*
X112774229Y-88170771D01*
X116774229Y-89920771D02*
X116774229Y-91920771D01*
X112324229Y-93220771D02*
X112774229Y-93670771D01*
%TO.C,C4*%
X127354229Y-47635191D02*
X127354229Y-47916351D01*
X126334229Y-47635191D02*
X126334229Y-47916351D01*
%TD*%
%LPC*%
%TO.C,G\u002A\u002A\u002A*%
D14*
X113715000Y-81790000D02*
G75*
G03*
X113715000Y-81790000I-1925000J0D01*
G01*
%TD*%
D15*
%TO.C,MX8*%
X106485479Y-84389521D03*
D16*
X101405479Y-84389521D03*
D15*
X96325479Y-84389521D03*
D17*
X97595479Y-81849521D03*
X103945479Y-79309521D03*
%TD*%
D18*
%TO.C,D5*%
X123955479Y-69669520D03*
X123955479Y-71169520D03*
X129155479Y-71169520D03*
X129155479Y-69669520D03*
%TD*%
D15*
%TO.C,MX7*%
X87435479Y-84389521D03*
X77275479Y-84389521D03*
D16*
X82355479Y-84389521D03*
D17*
X78545479Y-81849521D03*
X84895479Y-79309521D03*
%TD*%
D18*
%TO.C,D6*%
X79755479Y-88719520D03*
X79755479Y-90219520D03*
X84955479Y-90219520D03*
X84955479Y-88719520D03*
%TD*%
D15*
%TO.C,MX1*%
X77275479Y-46289521D03*
X87435479Y-46289521D03*
D16*
X82355479Y-46289521D03*
D17*
X78545479Y-43749521D03*
X84895479Y-41209521D03*
%TD*%
D15*
%TO.C,MX6*%
X121475479Y-65339521D03*
D16*
X126555479Y-65339521D03*
D15*
X131635479Y-65339521D03*
D17*
X122745479Y-62799521D03*
X129095479Y-60259521D03*
%TD*%
D18*
%TO.C,D1*%
X79755479Y-50619520D03*
X79755479Y-52119520D03*
X84955479Y-52119520D03*
X84955479Y-50619520D03*
%TD*%
D19*
%TO.C,U1*%
X86384229Y-36055771D03*
D20*
X88924229Y-36055771D03*
X91464229Y-36055771D03*
X94004229Y-36055771D03*
%TD*%
D16*
%TO.C,MX9*%
X126555479Y-84389521D03*
D15*
X121475479Y-84389521D03*
X131635479Y-84389521D03*
D17*
X122745479Y-81849521D03*
X129095479Y-79309521D03*
%TD*%
D15*
%TO.C,MX4*%
X87435479Y-65339521D03*
D16*
X82355479Y-65339521D03*
D15*
X77275479Y-65339521D03*
D17*
X78545479Y-62799521D03*
X84895479Y-60259521D03*
%TD*%
D18*
%TO.C,D2*%
X98805479Y-50619520D03*
X98805479Y-52119520D03*
X104005479Y-52119520D03*
X104005479Y-50619520D03*
%TD*%
D21*
%TO.C,MX3*%
X133805479Y-48789521D03*
D22*
X133805479Y-43789521D03*
X133805479Y-46289521D03*
D23*
X126305479Y-51889521D03*
X126305479Y-40689521D03*
D22*
X119305479Y-43789521D03*
X119305479Y-48789521D03*
%TD*%
D18*
%TO.C,D3*%
X79755479Y-69669520D03*
X79755479Y-71169520D03*
X84955479Y-71169520D03*
X84955479Y-69669520D03*
%TD*%
%TO.C,D7*%
X98805479Y-88719520D03*
X98805479Y-90219520D03*
X104005479Y-90219520D03*
X104005479Y-88719520D03*
%TD*%
%TO.C,D8*%
X123955479Y-88719520D03*
X123955479Y-90219520D03*
X129155479Y-90219520D03*
X129155479Y-88719520D03*
%TD*%
%TO.C,D4*%
X98805479Y-69669520D03*
X98805479Y-71169520D03*
X104005479Y-71169520D03*
X104005479Y-69669520D03*
%TD*%
D15*
%TO.C,MX2*%
X96325479Y-46289521D03*
X106485479Y-46289521D03*
D16*
X101405479Y-46289521D03*
D17*
X97595479Y-43749521D03*
X103945479Y-41209521D03*
%TD*%
D15*
%TO.C,MX5*%
X106485479Y-65339521D03*
D16*
X101405479Y-65339521D03*
D15*
X96325479Y-65339521D03*
D17*
X97595479Y-62799521D03*
X103945479Y-60259521D03*
%TD*%
D24*
%TO.C,J1*%
X114819229Y-41645771D03*
X115619229Y-41645771D03*
D25*
X116769229Y-41645771D03*
X117769229Y-41645771D03*
X118269229Y-41645771D03*
X119269229Y-41645771D03*
D24*
X120419229Y-41645771D03*
X121219229Y-41645771D03*
X121219229Y-41645771D03*
X120419229Y-41645771D03*
D25*
X119769229Y-41645771D03*
X118769229Y-41645771D03*
X117269229Y-41645771D03*
X116269229Y-41645771D03*
D24*
X115619229Y-41645771D03*
X114819229Y-41645771D03*
D26*
X112399229Y-40445771D03*
X123639229Y-40445771D03*
D27*
X123639229Y-36445771D03*
X112399229Y-36445771D03*
%TD*%
D28*
%TO.C,C10*%
X109749229Y-60695771D03*
X108199229Y-60695771D03*
%TD*%
D29*
%TO.C,C11*%
X123452237Y-66767763D03*
X122356221Y-67863779D03*
%TD*%
D28*
%TO.C,C7*%
X109749229Y-57695771D03*
X108199229Y-57695771D03*
%TD*%
D30*
%TO.C,D9*%
X108389229Y-39780771D03*
X108389229Y-42580771D03*
%TD*%
D31*
%TO.C,R3*%
X117019229Y-50975771D03*
X117019229Y-49325771D03*
%TD*%
%TO.C,R2*%
X113749229Y-43340771D03*
X113749229Y-41690771D03*
%TD*%
D32*
%TO.C,C12*%
X77824229Y-69620771D03*
X77824229Y-71170771D03*
%TD*%
%TO.C,C6*%
X77774229Y-50620771D03*
X77774229Y-52170771D03*
%TD*%
D28*
%TO.C,C5*%
X109949229Y-49045771D03*
X108399229Y-49045771D03*
%TD*%
D31*
%TO.C,R4*%
X115509229Y-50975771D03*
X115509229Y-49325771D03*
%TD*%
D33*
%TO.C,J2*%
X123559229Y-54450771D03*
X123559229Y-56990771D03*
X126099229Y-54450771D03*
X126099229Y-56990771D03*
X128639229Y-54450771D03*
X128639229Y-56990771D03*
%TD*%
D34*
%TO.C,U2*%
X115319229Y-45433271D03*
X116269229Y-45433271D03*
X117219229Y-45433271D03*
X117219229Y-47708271D03*
X116269229Y-47708271D03*
X115319229Y-47708271D03*
%TD*%
D35*
%TO.C,FB2*%
X108359229Y-45960771D03*
X109959229Y-45960771D03*
%TD*%
D36*
%TO.C,D13*%
X89430479Y-76464521D03*
X89430479Y-73264521D03*
X94330479Y-73264521D03*
X94330479Y-76464521D03*
%TD*%
D37*
%TO.C,C13*%
X116396221Y-71293779D03*
X117492237Y-70197763D03*
%TD*%
D38*
%TO.C,FB1*%
X110934229Y-38815771D03*
X110934229Y-40415771D03*
%TD*%
D39*
%TO.C,RN1*%
X128286729Y-47489521D03*
D40*
X128286729Y-46689521D03*
X128286729Y-45889521D03*
D39*
X128286729Y-45089521D03*
X130086729Y-45089521D03*
D40*
X130086729Y-45889521D03*
X130086729Y-46689521D03*
D39*
X130086729Y-47489521D03*
%TD*%
D31*
%TO.C,R5*%
X128649229Y-52945771D03*
X128649229Y-51295771D03*
%TD*%
D28*
%TO.C,C3*%
X109924229Y-47520771D03*
X108374229Y-47520771D03*
%TD*%
D41*
%TO.C,R6*%
X108224229Y-62120771D03*
X108224229Y-63770771D03*
%TD*%
D28*
%TO.C,C8*%
X109749229Y-59195771D03*
X108199229Y-59195771D03*
%TD*%
D36*
%TO.C,D12*%
X114574229Y-76464521D03*
X114574229Y-73264521D03*
X119474229Y-73264521D03*
X119474229Y-76464521D03*
%TD*%
D42*
%TO.C,C9*%
X117349229Y-59395771D03*
X118899229Y-59395771D03*
%TD*%
%TO.C,C1*%
X108374229Y-44380771D03*
X109924229Y-44380771D03*
%TD*%
D43*
%TO.C,F1*%
X112206729Y-42610771D03*
X110331729Y-42610771D03*
%TD*%
D36*
%TO.C,D11*%
X89430479Y-57414521D03*
X89430479Y-54214521D03*
X94330479Y-54214521D03*
X94330479Y-57414521D03*
%TD*%
%TO.C,D10*%
X114574229Y-57395771D03*
X114574229Y-54195771D03*
X119474229Y-54195771D03*
X119474229Y-57395771D03*
%TD*%
D44*
%TO.C,U3*%
X114946431Y-59678885D03*
X115299984Y-60032439D03*
X115653538Y-60385992D03*
X116007091Y-60739545D03*
X116360644Y-61093099D03*
X116714198Y-61446652D03*
X117067751Y-61800206D03*
X117421305Y-62153759D03*
X117774858Y-62507312D03*
X118128411Y-62860866D03*
X118481965Y-63214419D03*
D45*
X118481965Y-64398823D03*
X118128411Y-64752376D03*
X117774858Y-65105930D03*
X117421305Y-65459483D03*
X117067751Y-65813036D03*
X116714198Y-66166590D03*
X116360644Y-66520143D03*
X116007091Y-66873697D03*
X115653538Y-67227250D03*
X115299984Y-67580803D03*
X114946431Y-67934357D03*
D44*
X113762027Y-67934357D03*
X113408474Y-67580803D03*
X113054920Y-67227250D03*
X112701367Y-66873697D03*
X112347814Y-66520143D03*
X111994260Y-66166590D03*
X111640707Y-65813036D03*
X111287153Y-65459483D03*
X110933600Y-65105930D03*
X110580047Y-64752376D03*
X110226493Y-64398823D03*
D45*
X110226493Y-63214419D03*
X110580047Y-62860866D03*
X110933600Y-62507312D03*
X111287153Y-62153759D03*
X111640707Y-61800206D03*
X111994260Y-61446652D03*
X112347814Y-61093099D03*
X112701367Y-60739545D03*
X113054920Y-60385992D03*
X113408474Y-60032439D03*
X113762027Y-59678885D03*
D46*
X114354229Y-63806621D03*
%TD*%
D47*
%TO.C,Y1*%
X121293087Y-68828994D03*
X119737452Y-70384629D03*
X118535371Y-69182548D03*
X120091006Y-67626913D03*
%TD*%
D48*
%TO.C,C2*%
X126844229Y-45560771D03*
X126844229Y-44010771D03*
%TD*%
D32*
%TO.C,C14*%
X77774229Y-88670771D03*
X77774229Y-90220771D03*
%TD*%
D41*
%TO.C,R1*%
X122299229Y-41715771D03*
X122299229Y-43365771D03*
%TD*%
D49*
%TO.C,SW1*%
X117174229Y-89020771D03*
X110874229Y-89020771D03*
X110874229Y-92820771D03*
X117174229Y-92820771D03*
%TD*%
D32*
%TO.C,C4*%
X126844229Y-47000771D03*
X126844229Y-48550771D03*
%TD*%
M02*
