%TF.GenerationSoftware,KiCad,Pcbnew,6.0.0-rc1-unknown-caf406943e~144~ubuntu21.04.1*%
%TF.CreationDate,2021-12-15T23:35:00+01:00*%
%TF.ProjectId,1337-v4.0,31333337-2d76-4342-9e30-2e6b69636164,4.0*%
%TF.SameCoordinates,Original*%
%TF.FileFunction,Profile,NP*%
%FSLAX46Y46*%
G04 Gerber Fmt 4.6, Leading zero omitted, Abs format (unit mm)*
G04 Created by KiCad (PCBNEW 6.0.0-rc1-unknown-caf406943e~144~ubuntu21.04.1) date 2021-12-15 23:35:00*
%MOMM*%
%LPD*%
G01*
G04 APERTURE LIST*
%TA.AperFunction,Profile*%
%ADD10C,0.250000*%
%TD*%
%TA.AperFunction,Profile*%
%ADD11C,0.100000*%
%TD*%
G04 APERTURE END LIST*
D10*
X78459229Y-34370772D02*
G75*
G03*
X73459230Y-39370771I1J-5000000D01*
G01*
X78459229Y-96370771D02*
X130459229Y-96370771D01*
X73459230Y-91370771D02*
G75*
G03*
X78459229Y-96370770I5000000J1D01*
G01*
X130459229Y-34370771D02*
X122634229Y-34370771D01*
X113394229Y-34370771D02*
X78459229Y-34370771D01*
X135459228Y-39370771D02*
G75*
G03*
X130459229Y-34370772I-5000000J-1D01*
G01*
X130459229Y-96370770D02*
G75*
G03*
X135459228Y-91370771I-1J5000000D01*
G01*
X73459229Y-39370771D02*
X73459229Y-91370771D01*
X135459229Y-91370771D02*
X135459229Y-39370771D01*
D11*
%TO.C,D5*%
X127349931Y-71919520D02*
X125761027Y-71919520D01*
X125761027Y-68919521D02*
X127349932Y-68919521D01*
X128255478Y-69716678D02*
X128255478Y-71122362D01*
X124855480Y-71122362D02*
X124855480Y-69716678D01*
X124805995Y-71339240D02*
G75*
G03*
X125508768Y-71987817I450515J-216877D01*
G01*
X125761027Y-71919520D02*
G75*
G03*
X125508769Y-71987819I3J-500009D01*
G01*
X125508768Y-68851221D02*
G75*
G03*
X124805995Y-69499800I-252258J-431701D01*
G01*
X128304963Y-69499800D02*
G75*
G03*
X128255478Y-69716677I450505J-216876D01*
G01*
X125508768Y-68851221D02*
G75*
G03*
X125761026Y-68919520I252261J431710D01*
G01*
X124855480Y-69716678D02*
G75*
G03*
X124805995Y-69499800I-499990J2D01*
G01*
X127602190Y-71987819D02*
G75*
G03*
X127349931Y-71919520I-252261J-431710D01*
G01*
X124805995Y-71339240D02*
G75*
G03*
X124855480Y-71122363I-450505J216876D01*
G01*
X128304962Y-69499800D02*
G75*
G03*
X127602190Y-68851222I-450514J216878D01*
G01*
X128255478Y-71122362D02*
G75*
G03*
X128304963Y-71339240I499990J-2D01*
G01*
X127349932Y-68919521D02*
G75*
G03*
X127602190Y-68851222I-3J500009D01*
G01*
X127602190Y-71987819D02*
G75*
G03*
X128304963Y-71339239I252259J431700D01*
G01*
%TO.C,D6*%
X81561027Y-87969521D02*
X83149932Y-87969521D01*
X83149931Y-90969520D02*
X81561027Y-90969520D01*
X84055478Y-88766678D02*
X84055478Y-90172362D01*
X80655480Y-90172362D02*
X80655480Y-88766678D01*
X84104963Y-88549800D02*
G75*
G03*
X84055478Y-88766677I450505J-216876D01*
G01*
X84055478Y-90172362D02*
G75*
G03*
X84104963Y-90389240I499990J-2D01*
G01*
X80655480Y-88766678D02*
G75*
G03*
X80605995Y-88549800I-499990J2D01*
G01*
X83402190Y-91037819D02*
G75*
G03*
X83149931Y-90969520I-252261J-431710D01*
G01*
X84104962Y-88549800D02*
G75*
G03*
X83402190Y-87901222I-450514J216878D01*
G01*
X83149932Y-87969521D02*
G75*
G03*
X83402190Y-87901222I-3J500009D01*
G01*
X81308768Y-87901221D02*
G75*
G03*
X80605995Y-88549800I-252258J-431701D01*
G01*
X81308768Y-87901221D02*
G75*
G03*
X81561026Y-87969520I252261J431710D01*
G01*
X80605995Y-90389240D02*
G75*
G03*
X80655480Y-90172363I-450505J216876D01*
G01*
X80605995Y-90389240D02*
G75*
G03*
X81308768Y-91037817I450515J-216877D01*
G01*
X81561027Y-90969520D02*
G75*
G03*
X81308769Y-91037819I3J-500009D01*
G01*
X83402190Y-91037819D02*
G75*
G03*
X84104963Y-90389239I252259J431700D01*
G01*
%TO.C,D1*%
X81561027Y-49869521D02*
X83149932Y-49869521D01*
X83149931Y-52869520D02*
X81561027Y-52869520D01*
X80655480Y-52072362D02*
X80655480Y-50666678D01*
X84055478Y-50666678D02*
X84055478Y-52072362D01*
X80655480Y-50666678D02*
G75*
G03*
X80605995Y-50449800I-499990J2D01*
G01*
X81308768Y-49801221D02*
G75*
G03*
X80605995Y-50449800I-252258J-431701D01*
G01*
X84104962Y-50449800D02*
G75*
G03*
X83402190Y-49801222I-450514J216878D01*
G01*
X83402190Y-52937819D02*
G75*
G03*
X83149931Y-52869520I-252261J-431710D01*
G01*
X83402190Y-52937819D02*
G75*
G03*
X84104963Y-52289239I252259J431700D01*
G01*
X84104963Y-50449800D02*
G75*
G03*
X84055478Y-50666677I450505J-216876D01*
G01*
X80605995Y-52289240D02*
G75*
G03*
X80655480Y-52072363I-450505J216876D01*
G01*
X81308768Y-49801221D02*
G75*
G03*
X81561026Y-49869520I252261J431710D01*
G01*
X84055478Y-52072362D02*
G75*
G03*
X84104963Y-52289240I499990J-2D01*
G01*
X83149932Y-49869521D02*
G75*
G03*
X83402190Y-49801222I-3J500009D01*
G01*
X81561027Y-52869520D02*
G75*
G03*
X81308769Y-52937819I3J-500009D01*
G01*
X80605995Y-52289240D02*
G75*
G03*
X81308768Y-52937817I450515J-216877D01*
G01*
%TO.C,D2*%
X100611027Y-49869521D02*
X102199932Y-49869521D01*
X99705480Y-52072362D02*
X99705480Y-50666678D01*
X103105478Y-50666678D02*
X103105478Y-52072362D01*
X102199931Y-52869520D02*
X100611027Y-52869520D01*
X99705480Y-50666678D02*
G75*
G03*
X99655995Y-50449800I-499990J2D01*
G01*
X99655995Y-52289240D02*
G75*
G03*
X99705480Y-52072363I-450505J216876D01*
G01*
X102199932Y-49869521D02*
G75*
G03*
X102452190Y-49801222I-3J500009D01*
G01*
X103154963Y-50449800D02*
G75*
G03*
X103105478Y-50666677I450505J-216876D01*
G01*
X100358768Y-49801221D02*
G75*
G03*
X100611026Y-49869520I252261J431710D01*
G01*
X102452190Y-52937819D02*
G75*
G03*
X103154963Y-52289239I252259J431700D01*
G01*
X102452190Y-52937819D02*
G75*
G03*
X102199931Y-52869520I-252261J-431710D01*
G01*
X103105478Y-52072362D02*
G75*
G03*
X103154963Y-52289240I499990J-2D01*
G01*
X103154962Y-50449800D02*
G75*
G03*
X102452190Y-49801222I-450514J216878D01*
G01*
X100611027Y-52869520D02*
G75*
G03*
X100358769Y-52937819I3J-500009D01*
G01*
X99655995Y-52289240D02*
G75*
G03*
X100358768Y-52937817I450515J-216877D01*
G01*
X100358768Y-49801221D02*
G75*
G03*
X99655995Y-50449800I-252258J-431701D01*
G01*
%TO.C,D3*%
X80655480Y-71122362D02*
X80655480Y-69716678D01*
X81561027Y-68919521D02*
X83149932Y-68919521D01*
X83149931Y-71919520D02*
X81561027Y-71919520D01*
X84055478Y-69716678D02*
X84055478Y-71122362D01*
X80655480Y-69716678D02*
G75*
G03*
X80605995Y-69499800I-499990J2D01*
G01*
X84104963Y-69499800D02*
G75*
G03*
X84055478Y-69716677I450505J-216876D01*
G01*
X81561027Y-71919520D02*
G75*
G03*
X81308769Y-71987819I3J-500009D01*
G01*
X83149932Y-68919521D02*
G75*
G03*
X83402190Y-68851222I-3J500009D01*
G01*
X81308768Y-68851221D02*
G75*
G03*
X81561026Y-68919520I252261J431710D01*
G01*
X80605995Y-71339240D02*
G75*
G03*
X81308768Y-71987817I450515J-216877D01*
G01*
X81308768Y-68851221D02*
G75*
G03*
X80605995Y-69499800I-252258J-431701D01*
G01*
X80605995Y-71339240D02*
G75*
G03*
X80655480Y-71122363I-450505J216876D01*
G01*
X83402190Y-71987819D02*
G75*
G03*
X83149931Y-71919520I-252261J-431710D01*
G01*
X83402190Y-71987819D02*
G75*
G03*
X84104963Y-71339239I252259J431700D01*
G01*
X84055478Y-71122362D02*
G75*
G03*
X84104963Y-71339240I499990J-2D01*
G01*
X84104962Y-69499800D02*
G75*
G03*
X83402190Y-68851222I-450514J216878D01*
G01*
%TO.C,D7*%
X103105478Y-88766678D02*
X103105478Y-90172362D01*
X100611027Y-87969521D02*
X102199932Y-87969521D01*
X102199931Y-90969520D02*
X100611027Y-90969520D01*
X99705480Y-90172362D02*
X99705480Y-88766678D01*
X100358768Y-87901221D02*
G75*
G03*
X100611026Y-87969520I252261J431710D01*
G01*
X103154963Y-88549800D02*
G75*
G03*
X103105478Y-88766677I450505J-216876D01*
G01*
X100358768Y-87901221D02*
G75*
G03*
X99655995Y-88549800I-252258J-431701D01*
G01*
X100611027Y-90969520D02*
G75*
G03*
X100358769Y-91037819I3J-500009D01*
G01*
X99655995Y-90389240D02*
G75*
G03*
X100358768Y-91037817I450515J-216877D01*
G01*
X102199932Y-87969521D02*
G75*
G03*
X102452190Y-87901222I-3J500009D01*
G01*
X99655995Y-90389240D02*
G75*
G03*
X99705480Y-90172363I-450505J216876D01*
G01*
X102452190Y-91037819D02*
G75*
G03*
X102199931Y-90969520I-252261J-431710D01*
G01*
X103105478Y-90172362D02*
G75*
G03*
X103154963Y-90389240I499990J-2D01*
G01*
X102452190Y-91037819D02*
G75*
G03*
X103154963Y-90389239I252259J431700D01*
G01*
X103154962Y-88549800D02*
G75*
G03*
X102452190Y-87901222I-450514J216878D01*
G01*
X99705480Y-88766678D02*
G75*
G03*
X99655995Y-88549800I-499990J2D01*
G01*
%TO.C,D8*%
X125761027Y-87969521D02*
X127349932Y-87969521D01*
X128255478Y-88766678D02*
X128255478Y-90172362D01*
X127349931Y-90969520D02*
X125761027Y-90969520D01*
X124855480Y-90172362D02*
X124855480Y-88766678D01*
X124805995Y-90389240D02*
G75*
G03*
X125508768Y-91037817I450515J-216877D01*
G01*
X128304962Y-88549800D02*
G75*
G03*
X127602190Y-87901222I-450514J216878D01*
G01*
X128255478Y-90172362D02*
G75*
G03*
X128304963Y-90389240I499990J-2D01*
G01*
X127602190Y-91037819D02*
G75*
G03*
X128304963Y-90389239I252259J431700D01*
G01*
X125761027Y-90969520D02*
G75*
G03*
X125508769Y-91037819I3J-500009D01*
G01*
X124855480Y-88766678D02*
G75*
G03*
X124805995Y-88549800I-499990J2D01*
G01*
X127602190Y-91037819D02*
G75*
G03*
X127349931Y-90969520I-252261J-431710D01*
G01*
X125508768Y-87901221D02*
G75*
G03*
X125761026Y-87969520I252261J431710D01*
G01*
X127349932Y-87969521D02*
G75*
G03*
X127602190Y-87901222I-3J500009D01*
G01*
X125508768Y-87901221D02*
G75*
G03*
X124805995Y-88549800I-252258J-431701D01*
G01*
X124805995Y-90389240D02*
G75*
G03*
X124855480Y-90172363I-450505J216876D01*
G01*
X128304963Y-88549800D02*
G75*
G03*
X128255478Y-88766677I450505J-216876D01*
G01*
%TO.C,D4*%
X103105478Y-69716678D02*
X103105478Y-71122362D01*
X100611027Y-68919521D02*
X102199932Y-68919521D01*
X99705480Y-71122362D02*
X99705480Y-69716678D01*
X102199931Y-71919520D02*
X100611027Y-71919520D01*
X99655995Y-71339240D02*
G75*
G03*
X99705480Y-71122363I-450505J216876D01*
G01*
X102452190Y-71987819D02*
G75*
G03*
X103154963Y-71339239I252259J431700D01*
G01*
X102199932Y-68919521D02*
G75*
G03*
X102452190Y-68851222I-3J500009D01*
G01*
X100611027Y-71919520D02*
G75*
G03*
X100358769Y-71987819I3J-500009D01*
G01*
X100358768Y-68851221D02*
G75*
G03*
X100611026Y-68919520I252261J431710D01*
G01*
X103154962Y-69499800D02*
G75*
G03*
X102452190Y-68851222I-450514J216878D01*
G01*
X100358768Y-68851221D02*
G75*
G03*
X99655995Y-69499800I-252258J-431701D01*
G01*
X99655995Y-71339240D02*
G75*
G03*
X100358768Y-71987817I450515J-216877D01*
G01*
X102452190Y-71987819D02*
G75*
G03*
X102199931Y-71919520I-252261J-431710D01*
G01*
X103154963Y-69499800D02*
G75*
G03*
X103105478Y-69716677I450505J-216876D01*
G01*
X99705480Y-69716678D02*
G75*
G03*
X99655995Y-69499800I-499990J2D01*
G01*
X103105478Y-71122362D02*
G75*
G03*
X103154963Y-71339240I499990J-2D01*
G01*
%TO.C,J1*%
X113394229Y-34370771D02*
X113394229Y-41070771D01*
X122634229Y-34370771D02*
X122634229Y-41070771D01*
X113394229Y-41070771D02*
X122634229Y-41070771D01*
%TD*%
M02*
