%TF.GenerationSoftware,KiCad,Pcbnew,6.0.0*%
%TF.CreationDate,2022-01-07T19:46:57+01:00*%
%TF.ProjectId,1337-v4.0,31333337-2d76-4342-9e30-2e6b69636164,4.0*%
%TF.SameCoordinates,Original*%
%TF.FileFunction,Legend,Top*%
%TF.FilePolarity,Positive*%
%FSLAX46Y46*%
G04 Gerber Fmt 4.6, Leading zero omitted, Abs format (unit mm)*
G04 Created by KiCad (PCBNEW 6.0.0) date 2022-01-07 19:46:57*
%MOMM*%
%LPD*%
G01*
G04 APERTURE LIST*
%ADD10C,0.120000*%
%ADD11C,0.010000*%
%ADD12C,0.200000*%
%ADD13C,3.750000*%
%ADD14C,1.750000*%
%ADD15C,4.000000*%
%ADD16C,2.500000*%
%ADD17R,1.600000X2.000000*%
%ADD18O,1.600000X2.000000*%
%ADD19R,2.000000X2.000000*%
%ADD20C,2.000000*%
%ADD21R,3.200000X2.000000*%
%ADD22O,1.000000X1.800000*%
%ADD23O,1.000000X2.200000*%
%ADD24C,1.700000*%
G04 APERTURE END LIST*
D10*
X117377142Y-87408571D02*
X117567619Y-87941904D01*
X117758095Y-87408571D01*
X118405714Y-87408571D02*
X118405714Y-87941904D01*
X118215238Y-87103809D02*
X118024761Y-87675238D01*
X118520000Y-87675238D01*
X118824761Y-87865714D02*
X118862857Y-87903809D01*
X118824761Y-87941904D01*
X118786666Y-87903809D01*
X118824761Y-87865714D01*
X118824761Y-87941904D01*
X119358095Y-87141904D02*
X119434285Y-87141904D01*
X119510476Y-87180000D01*
X119548571Y-87218095D01*
X119586666Y-87294285D01*
X119624761Y-87446666D01*
X119624761Y-87637142D01*
X119586666Y-87789523D01*
X119548571Y-87865714D01*
X119510476Y-87903809D01*
X119434285Y-87941904D01*
X119358095Y-87941904D01*
X119281904Y-87903809D01*
X119243809Y-87865714D01*
X119205714Y-87789523D01*
X119167619Y-87637142D01*
X119167619Y-87446666D01*
X119205714Y-87294285D01*
X119243809Y-87218095D01*
X119281904Y-87180000D01*
X119358095Y-87141904D01*
%TO.C,kibuzzard-61BA68AC*%
G36*
X113963481Y-85673506D02*
G01*
X114103975Y-85713987D01*
X114220259Y-85785028D01*
X114308763Y-85890200D01*
X114364722Y-86033472D01*
X114383375Y-86218812D01*
X114364722Y-86414075D01*
X114308763Y-86568062D01*
X114225022Y-86681569D01*
X114123025Y-86755387D01*
X114250819Y-86829206D01*
X114354800Y-86936363D01*
X114423856Y-87081619D01*
X114446875Y-87269738D01*
X114446875Y-87330062D01*
X114424650Y-87549931D01*
X114357975Y-87720588D01*
X114253597Y-87846794D01*
X114118263Y-87933313D01*
X113875375Y-87999988D01*
X113699163Y-87999988D01*
X113491200Y-87950775D01*
X113284825Y-87825363D01*
X113164175Y-87657088D01*
X113126075Y-87476113D01*
X113149888Y-87387213D01*
X113221325Y-87364988D01*
X113310225Y-87388800D01*
X113332450Y-87453888D01*
X113353088Y-87566600D01*
X113424525Y-87682488D01*
X113561050Y-87771388D01*
X113776950Y-87806313D01*
X113975388Y-87777341D01*
X114119850Y-87690425D01*
X114207956Y-87542391D01*
X114237325Y-87330062D01*
X114237325Y-87269738D01*
X114206369Y-87080031D01*
X114113500Y-86949063D01*
X113969038Y-86872863D01*
X113783300Y-86847463D01*
X113722975Y-86820475D01*
X113703925Y-86758562D01*
X113722975Y-86695062D01*
X113783300Y-86666487D01*
X113999200Y-86629975D01*
X114134138Y-86504562D01*
X114180175Y-86260087D01*
X114157156Y-86079906D01*
X114088100Y-85952112D01*
X113969038Y-85875912D01*
X113796000Y-85850512D01*
X113591213Y-85883850D01*
X113465800Y-85969575D01*
X113405475Y-86079112D01*
X113389600Y-86190237D01*
X113365788Y-86263262D01*
X113288000Y-86291837D01*
X113221325Y-86282312D01*
X113189575Y-86244212D01*
X113180050Y-86171187D01*
X113207038Y-86017200D01*
X113302288Y-85848925D01*
X113491200Y-85713987D01*
X113629313Y-85673506D01*
X113802350Y-85660012D01*
X113963481Y-85673506D01*
G37*
G36*
X115512881Y-85673506D02*
G01*
X115653375Y-85713987D01*
X115769659Y-85785028D01*
X115858163Y-85890200D01*
X115914122Y-86033472D01*
X115932775Y-86218812D01*
X115914122Y-86414075D01*
X115858163Y-86568062D01*
X115774422Y-86681569D01*
X115672425Y-86755387D01*
X115800219Y-86829206D01*
X115904200Y-86936363D01*
X115973256Y-87081619D01*
X115996275Y-87269738D01*
X115996275Y-87330062D01*
X115974050Y-87549931D01*
X115907375Y-87720588D01*
X115802997Y-87846794D01*
X115667663Y-87933313D01*
X115424775Y-87999988D01*
X115248563Y-87999988D01*
X115040600Y-87950775D01*
X114834225Y-87825363D01*
X114713575Y-87657088D01*
X114675475Y-87476113D01*
X114699288Y-87387213D01*
X114770725Y-87364988D01*
X114859625Y-87388800D01*
X114881850Y-87453888D01*
X114902488Y-87566600D01*
X114973925Y-87682488D01*
X115110450Y-87771388D01*
X115326350Y-87806313D01*
X115524787Y-87777341D01*
X115669250Y-87690425D01*
X115757356Y-87542391D01*
X115786725Y-87330062D01*
X115786725Y-87269738D01*
X115755769Y-87080031D01*
X115662900Y-86949063D01*
X115518438Y-86872863D01*
X115332700Y-86847463D01*
X115272375Y-86820475D01*
X115253325Y-86758562D01*
X115272375Y-86695062D01*
X115332700Y-86666487D01*
X115548600Y-86629975D01*
X115683538Y-86504562D01*
X115729575Y-86260087D01*
X115706556Y-86079906D01*
X115637500Y-85952112D01*
X115518438Y-85875912D01*
X115345400Y-85850512D01*
X115140613Y-85883850D01*
X115015200Y-85969575D01*
X114954875Y-86079112D01*
X114939000Y-86190237D01*
X114915188Y-86263262D01*
X114837400Y-86291837D01*
X114770725Y-86282312D01*
X114738975Y-86244212D01*
X114729450Y-86171187D01*
X114756438Y-86017200D01*
X114851688Y-85848925D01*
X115040600Y-85713987D01*
X115178713Y-85673506D01*
X115351750Y-85660012D01*
X115512881Y-85673506D01*
G37*
G36*
X110219362Y-85680650D02*
G01*
X110284450Y-85660012D01*
X110805150Y-85660012D01*
X110975409Y-85670331D01*
X111130587Y-85701287D01*
X111263144Y-85761216D01*
X111365537Y-85858450D01*
X111431022Y-86001722D01*
X111452850Y-86199762D01*
X111434197Y-86383516D01*
X111378237Y-86534725D01*
X111292116Y-86649422D01*
X111182975Y-86723637D01*
X111354425Y-86828412D01*
X111468725Y-86999863D01*
X111499681Y-87119719D01*
X111510000Y-87269738D01*
X111510000Y-87326888D01*
X111489362Y-87543581D01*
X111427450Y-87711063D01*
X111329819Y-87834094D01*
X111202025Y-87917438D01*
X111051212Y-87965063D01*
X110884525Y-87980938D01*
X110263812Y-87980938D01*
X110216187Y-87957125D01*
X110189200Y-87901563D01*
X110189200Y-87787263D01*
X110398750Y-87787263D01*
X110855950Y-87787263D01*
X111042481Y-87759084D01*
X111182975Y-87674550D01*
X111271081Y-87528897D01*
X111300450Y-87317363D01*
X111300450Y-87263388D01*
X111271081Y-87052250D01*
X111182975Y-86914138D01*
X111042481Y-86837938D01*
X110855950Y-86812537D01*
X110398750Y-86812537D01*
X110398750Y-87787263D01*
X110189200Y-87787263D01*
X110189200Y-86631562D01*
X110398750Y-86631562D01*
X110811500Y-86631562D01*
X111004381Y-86608544D01*
X111138525Y-86539487D01*
X111217106Y-86414075D01*
X111243300Y-86221987D01*
X111186150Y-85993387D01*
X111030575Y-85883850D01*
X110798800Y-85853687D01*
X110398750Y-85853687D01*
X110398750Y-86631562D01*
X110189200Y-86631562D01*
X110189200Y-85739387D01*
X110219362Y-85680650D01*
G37*
G36*
X105499328Y-86115625D02*
G01*
X105564812Y-85942587D01*
X105667206Y-85814000D01*
X105799762Y-85726687D01*
X105957322Y-85676681D01*
X106134725Y-85660012D01*
X106312525Y-85676681D01*
X106471275Y-85726687D01*
X106605419Y-85814000D01*
X106709400Y-85942587D01*
X106776075Y-86115625D01*
X106798300Y-86336287D01*
X106798300Y-87320538D01*
X106776075Y-87543581D01*
X106709400Y-87717413D01*
X106605419Y-87846000D01*
X106471275Y-87933313D01*
X106228387Y-87999988D01*
X106042650Y-87999988D01*
X105801350Y-87933313D01*
X105667603Y-87846000D01*
X105564812Y-87717413D01*
X105499328Y-87543581D01*
X105477500Y-87320538D01*
X105687050Y-87320538D01*
X105716419Y-87538025D01*
X105804525Y-87688838D01*
X105945812Y-87776944D01*
X106134725Y-87806313D01*
X106324431Y-87776944D01*
X106468100Y-87688838D01*
X106558587Y-87538025D01*
X106588750Y-87320538D01*
X106588750Y-86336287D01*
X106558587Y-86121181D01*
X106468100Y-85971162D01*
X106324431Y-85883056D01*
X106134725Y-85853687D01*
X105945812Y-85883056D01*
X105804525Y-85971162D01*
X105716419Y-86121181D01*
X105687050Y-86336287D01*
X105687050Y-87320538D01*
X105477500Y-87320538D01*
X105477500Y-86336287D01*
X105499328Y-86115625D01*
G37*
G36*
X112786350Y-85677475D02*
G01*
X112814925Y-85736212D01*
X112814925Y-87898388D01*
X112781588Y-87960300D01*
X112729200Y-87980938D01*
X112689513Y-87980938D01*
X112637125Y-87960300D01*
X112605375Y-87898388D01*
X112605375Y-86015612D01*
X112478375Y-86221987D01*
X112449800Y-86250562D01*
X112418050Y-86260087D01*
X112359313Y-86231512D01*
X112335500Y-86168012D01*
X112351375Y-86115625D01*
X112383125Y-86072762D01*
X112643475Y-85704462D01*
X112675225Y-85671125D01*
X112722850Y-85656837D01*
X112786350Y-85677475D01*
G37*
G36*
X108128625Y-86474400D02*
G01*
X108177837Y-86512500D01*
X108198475Y-86564887D01*
X108182600Y-86606162D01*
X107766675Y-87222113D01*
X108192125Y-87857113D01*
X108201650Y-87876163D01*
X108204825Y-87901563D01*
X108185775Y-87947600D01*
X108138150Y-87987288D01*
X108081000Y-88003163D01*
X108047662Y-87995225D01*
X108020675Y-87971413D01*
X107633325Y-87377688D01*
X107249150Y-87971413D01*
X107218987Y-87995225D01*
X107192000Y-88003163D01*
X107171362Y-88003163D01*
X107131675Y-87987288D01*
X107082462Y-87947600D01*
X107061825Y-87901563D01*
X107074525Y-87857113D01*
X107496800Y-87222113D01*
X107084050Y-86606162D01*
X107074525Y-86585525D01*
X107068175Y-86564887D01*
X107088812Y-86515675D01*
X107138025Y-86475987D01*
X107195175Y-86460112D01*
X107228512Y-86466462D01*
X107258675Y-86491862D01*
X107633325Y-87072888D01*
X108011150Y-86491862D01*
X108038137Y-86468050D01*
X108071475Y-86460112D01*
X108128625Y-86474400D01*
G37*
G36*
X117510750Y-85685412D02*
G01*
X117542500Y-85739387D01*
X117542500Y-86012437D01*
X117534563Y-86056887D01*
X117510750Y-86104512D01*
X116567775Y-87946013D01*
X116523325Y-87984113D01*
X116482050Y-87984113D01*
X116436013Y-87973000D01*
X116388388Y-87939663D01*
X116370925Y-87885688D01*
X116383625Y-87841238D01*
X117332950Y-86025137D01*
X117332950Y-85853687D01*
X116431250Y-85853687D01*
X116431250Y-86218812D01*
X116399500Y-86274375D01*
X116326475Y-86298187D01*
X116253450Y-86274375D01*
X116221700Y-86218812D01*
X116221700Y-85739387D01*
X116251863Y-85685412D01*
X116316950Y-85660012D01*
X117444075Y-85660012D01*
X117510750Y-85685412D01*
G37*
G36*
X109357350Y-85678269D02*
G01*
X109519275Y-85733037D01*
X109648259Y-85817969D01*
X109743112Y-85926712D01*
X109801453Y-86052919D01*
X109820900Y-86190237D01*
X109793912Y-86291837D01*
X109716125Y-86317237D01*
X109635162Y-86293425D01*
X109611350Y-86237862D01*
X109590712Y-86120387D01*
X109527212Y-85993387D01*
X109393862Y-85893375D01*
X109166850Y-85853687D01*
X108970794Y-85883056D01*
X108827125Y-85971162D01*
X108739019Y-86121181D01*
X108709650Y-86336287D01*
X108709650Y-87320538D01*
X108739416Y-87538025D01*
X108828712Y-87688838D01*
X108975159Y-87776944D01*
X109176375Y-87806313D01*
X109401800Y-87766625D01*
X109527212Y-87668200D01*
X109585950Y-87541200D01*
X109611350Y-87415788D01*
X109639925Y-87353875D01*
X109712950Y-87333238D01*
X109793912Y-87360225D01*
X109820900Y-87463413D01*
X109801056Y-87601128D01*
X109741525Y-87728525D01*
X109645084Y-87838856D01*
X109514512Y-87925375D01*
X109377591Y-87981334D01*
X109262100Y-87999988D01*
X109068425Y-87999988D01*
X108828712Y-87933313D01*
X108693378Y-87846000D01*
X108589000Y-87717413D01*
X108522325Y-87543581D01*
X108500100Y-87320538D01*
X108500100Y-86336287D01*
X108522722Y-86115625D01*
X108590587Y-85942587D01*
X108696156Y-85814000D01*
X108831887Y-85726687D01*
X108990241Y-85676681D01*
X109163675Y-85660012D01*
X109357350Y-85678269D01*
G37*
G36*
X106220450Y-86749037D02*
G01*
X106252200Y-86831588D01*
X106220450Y-86914138D01*
X106137900Y-86949063D01*
X106053762Y-86914138D01*
X106020425Y-86831588D01*
X106053762Y-86749037D01*
X106137900Y-86717287D01*
X106220450Y-86749037D01*
G37*
D11*
%TO.C,REF\u002A\u002A*%
X92415814Y-79272836D02*
X92499635Y-79717460D01*
X92499635Y-79717460D02*
X92808920Y-79844958D01*
X92808920Y-79844958D02*
X93118206Y-79972456D01*
X93118206Y-79972456D02*
X93489246Y-79720151D01*
X93489246Y-79720151D02*
X93593157Y-79649901D01*
X93593157Y-79649901D02*
X93687087Y-79587177D01*
X93687087Y-79587177D02*
X93766652Y-79534843D01*
X93766652Y-79534843D02*
X93827470Y-79495762D01*
X93827470Y-79495762D02*
X93865157Y-79472798D01*
X93865157Y-79472798D02*
X93875421Y-79467847D01*
X93875421Y-79467847D02*
X93893910Y-79480581D01*
X93893910Y-79480581D02*
X93933420Y-79515787D01*
X93933420Y-79515787D02*
X93989522Y-79568967D01*
X93989522Y-79568967D02*
X94057787Y-79635623D01*
X94057787Y-79635623D02*
X94133786Y-79711259D01*
X94133786Y-79711259D02*
X94213092Y-79791377D01*
X94213092Y-79791377D02*
X94291275Y-79871479D01*
X94291275Y-79871479D02*
X94363907Y-79947069D01*
X94363907Y-79947069D02*
X94426559Y-80013650D01*
X94426559Y-80013650D02*
X94474803Y-80066723D01*
X94474803Y-80066723D02*
X94504210Y-80101792D01*
X94504210Y-80101792D02*
X94511241Y-80113528D01*
X94511241Y-80113528D02*
X94501123Y-80135165D01*
X94501123Y-80135165D02*
X94472759Y-80182567D01*
X94472759Y-80182567D02*
X94429129Y-80251098D01*
X94429129Y-80251098D02*
X94373218Y-80336120D01*
X94373218Y-80336120D02*
X94308006Y-80432998D01*
X94308006Y-80432998D02*
X94270219Y-80488255D01*
X94270219Y-80488255D02*
X94201343Y-80589153D01*
X94201343Y-80589153D02*
X94140140Y-80680204D01*
X94140140Y-80680204D02*
X94089578Y-80756875D01*
X94089578Y-80756875D02*
X94052628Y-80814633D01*
X94052628Y-80814633D02*
X94032258Y-80848948D01*
X94032258Y-80848948D02*
X94029197Y-80856159D01*
X94029197Y-80856159D02*
X94036136Y-80876653D01*
X94036136Y-80876653D02*
X94055051Y-80924418D01*
X94055051Y-80924418D02*
X94083087Y-80992737D01*
X94083087Y-80992737D02*
X94117391Y-81074894D01*
X94117391Y-81074894D02*
X94155109Y-81164175D01*
X94155109Y-81164175D02*
X94193387Y-81253863D01*
X94193387Y-81253863D02*
X94229370Y-81337243D01*
X94229370Y-81337243D02*
X94260206Y-81407599D01*
X94260206Y-81407599D02*
X94283039Y-81458215D01*
X94283039Y-81458215D02*
X94295017Y-81482376D01*
X94295017Y-81482376D02*
X94295724Y-81483327D01*
X94295724Y-81483327D02*
X94314531Y-81487941D01*
X94314531Y-81487941D02*
X94364618Y-81498233D01*
X94364618Y-81498233D02*
X94440793Y-81513192D01*
X94440793Y-81513192D02*
X94537865Y-81531806D01*
X94537865Y-81531806D02*
X94650643Y-81553064D01*
X94650643Y-81553064D02*
X94716442Y-81565323D01*
X94716442Y-81565323D02*
X94836950Y-81588267D01*
X94836950Y-81588267D02*
X94945797Y-81610100D01*
X94945797Y-81610100D02*
X95037476Y-81629627D01*
X95037476Y-81629627D02*
X95106481Y-81645653D01*
X95106481Y-81645653D02*
X95147304Y-81656984D01*
X95147304Y-81656984D02*
X95155511Y-81660579D01*
X95155511Y-81660579D02*
X95163548Y-81684911D01*
X95163548Y-81684911D02*
X95170033Y-81739864D01*
X95170033Y-81739864D02*
X95174970Y-81819013D01*
X95174970Y-81819013D02*
X95178364Y-81915931D01*
X95178364Y-81915931D02*
X95180218Y-82024192D01*
X95180218Y-82024192D02*
X95180538Y-82137370D01*
X95180538Y-82137370D02*
X95179327Y-82249040D01*
X95179327Y-82249040D02*
X95176590Y-82352773D01*
X95176590Y-82352773D02*
X95172331Y-82442146D01*
X95172331Y-82442146D02*
X95166555Y-82510731D01*
X95166555Y-82510731D02*
X95159267Y-82552102D01*
X95159267Y-82552102D02*
X95154895Y-82560715D01*
X95154895Y-82560715D02*
X95128764Y-82571038D01*
X95128764Y-82571038D02*
X95073393Y-82585797D01*
X95073393Y-82585797D02*
X94996107Y-82603257D01*
X94996107Y-82603257D02*
X94904230Y-82621685D01*
X94904230Y-82621685D02*
X94872158Y-82627646D01*
X94872158Y-82627646D02*
X94717524Y-82655971D01*
X94717524Y-82655971D02*
X94595375Y-82678781D01*
X94595375Y-82678781D02*
X94501673Y-82696985D01*
X94501673Y-82696985D02*
X94432384Y-82711488D01*
X94432384Y-82711488D02*
X94383471Y-82723197D01*
X94383471Y-82723197D02*
X94350897Y-82733020D01*
X94350897Y-82733020D02*
X94330628Y-82741861D01*
X94330628Y-82741861D02*
X94318626Y-82750629D01*
X94318626Y-82750629D02*
X94316947Y-82752362D01*
X94316947Y-82752362D02*
X94300184Y-82780276D01*
X94300184Y-82780276D02*
X94274614Y-82834600D01*
X94274614Y-82834600D02*
X94242788Y-82908682D01*
X94242788Y-82908682D02*
X94207260Y-82995870D01*
X94207260Y-82995870D02*
X94170583Y-83089513D01*
X94170583Y-83089513D02*
X94135311Y-83182957D01*
X94135311Y-83182957D02*
X94103996Y-83269552D01*
X94103996Y-83269552D02*
X94079193Y-83342645D01*
X94079193Y-83342645D02*
X94063454Y-83395583D01*
X94063454Y-83395583D02*
X94059332Y-83421716D01*
X94059332Y-83421716D02*
X94059676Y-83422631D01*
X94059676Y-83422631D02*
X94073641Y-83443991D01*
X94073641Y-83443991D02*
X94105322Y-83490989D01*
X94105322Y-83490989D02*
X94151391Y-83558732D01*
X94151391Y-83558732D02*
X94208518Y-83642328D01*
X94208518Y-83642328D02*
X94273373Y-83736887D01*
X94273373Y-83736887D02*
X94291843Y-83763759D01*
X94291843Y-83763759D02*
X94357699Y-83861180D01*
X94357699Y-83861180D02*
X94415650Y-83950068D01*
X94415650Y-83950068D02*
X94462538Y-84025317D01*
X94462538Y-84025317D02*
X94495207Y-84081825D01*
X94495207Y-84081825D02*
X94510500Y-84114486D01*
X94510500Y-84114486D02*
X94511241Y-84118498D01*
X94511241Y-84118498D02*
X94498392Y-84139589D01*
X94498392Y-84139589D02*
X94462888Y-84181369D01*
X94462888Y-84181369D02*
X94409293Y-84239350D01*
X94409293Y-84239350D02*
X94342171Y-84309040D01*
X94342171Y-84309040D02*
X94266087Y-84385950D01*
X94266087Y-84385950D02*
X94185604Y-84465588D01*
X94185604Y-84465588D02*
X94105287Y-84543466D01*
X94105287Y-84543466D02*
X94029699Y-84615091D01*
X94029699Y-84615091D02*
X93963405Y-84675975D01*
X93963405Y-84675975D02*
X93910969Y-84721626D01*
X93910969Y-84721626D02*
X93876955Y-84747555D01*
X93876955Y-84747555D02*
X93867545Y-84751788D01*
X93867545Y-84751788D02*
X93845643Y-84741817D01*
X93845643Y-84741817D02*
X93800800Y-84714925D01*
X93800800Y-84714925D02*
X93740321Y-84675641D01*
X93740321Y-84675641D02*
X93693789Y-84644022D01*
X93693789Y-84644022D02*
X93609475Y-84586003D01*
X93609475Y-84586003D02*
X93509626Y-84517689D01*
X93509626Y-84517689D02*
X93409473Y-84449484D01*
X93409473Y-84449484D02*
X93355627Y-84412980D01*
X93355627Y-84412980D02*
X93173371Y-84289705D01*
X93173371Y-84289705D02*
X93020381Y-84372425D01*
X93020381Y-84372425D02*
X92950682Y-84408664D01*
X92950682Y-84408664D02*
X92891414Y-84436831D01*
X92891414Y-84436831D02*
X92851311Y-84452896D01*
X92851311Y-84452896D02*
X92841103Y-84455131D01*
X92841103Y-84455131D02*
X92828829Y-84438627D01*
X92828829Y-84438627D02*
X92804613Y-84391987D01*
X92804613Y-84391987D02*
X92770263Y-84319514D01*
X92770263Y-84319514D02*
X92727588Y-84225511D01*
X92727588Y-84225511D02*
X92678394Y-84114279D01*
X92678394Y-84114279D02*
X92624490Y-83990120D01*
X92624490Y-83990120D02*
X92567684Y-83857337D01*
X92567684Y-83857337D02*
X92509782Y-83720232D01*
X92509782Y-83720232D02*
X92452593Y-83583107D01*
X92452593Y-83583107D02*
X92397924Y-83450263D01*
X92397924Y-83450263D02*
X92347584Y-83326003D01*
X92347584Y-83326003D02*
X92303380Y-83214630D01*
X92303380Y-83214630D02*
X92267119Y-83120444D01*
X92267119Y-83120444D02*
X92240609Y-83047749D01*
X92240609Y-83047749D02*
X92225658Y-83000846D01*
X92225658Y-83000846D02*
X92223254Y-82984738D01*
X92223254Y-82984738D02*
X92242311Y-82964191D01*
X92242311Y-82964191D02*
X92284036Y-82930838D01*
X92284036Y-82930838D02*
X92339706Y-82891607D01*
X92339706Y-82891607D02*
X92344378Y-82888504D01*
X92344378Y-82888504D02*
X92488264Y-82773328D01*
X92488264Y-82773328D02*
X92604283Y-82638958D01*
X92604283Y-82638958D02*
X92691430Y-82489689D01*
X92691430Y-82489689D02*
X92748699Y-82329818D01*
X92748699Y-82329818D02*
X92775086Y-82163642D01*
X92775086Y-82163642D02*
X92769585Y-81995457D01*
X92769585Y-81995457D02*
X92731190Y-81829560D01*
X92731190Y-81829560D02*
X92658895Y-81670247D01*
X92658895Y-81670247D02*
X92637626Y-81635392D01*
X92637626Y-81635392D02*
X92526996Y-81494642D01*
X92526996Y-81494642D02*
X92396302Y-81381619D01*
X92396302Y-81381619D02*
X92250064Y-81296908D01*
X92250064Y-81296908D02*
X92092808Y-81241099D01*
X92092808Y-81241099D02*
X91929057Y-81214779D01*
X91929057Y-81214779D02*
X91763333Y-81218535D01*
X91763333Y-81218535D02*
X91600162Y-81252955D01*
X91600162Y-81252955D02*
X91444065Y-81318628D01*
X91444065Y-81318628D02*
X91299567Y-81416140D01*
X91299567Y-81416140D02*
X91254869Y-81455718D01*
X91254869Y-81455718D02*
X91141112Y-81579608D01*
X91141112Y-81579608D02*
X91058218Y-81710029D01*
X91058218Y-81710029D02*
X91001356Y-81856220D01*
X91001356Y-81856220D02*
X90969687Y-82000993D01*
X90969687Y-82000993D02*
X90961869Y-82163765D01*
X90961869Y-82163765D02*
X90987938Y-82327345D01*
X90987938Y-82327345D02*
X91045245Y-82486203D01*
X91045245Y-82486203D02*
X91131144Y-82634811D01*
X91131144Y-82634811D02*
X91242986Y-82767640D01*
X91242986Y-82767640D02*
X91378123Y-82879161D01*
X91378123Y-82879161D02*
X91395883Y-82890916D01*
X91395883Y-82890916D02*
X91452150Y-82929413D01*
X91452150Y-82929413D02*
X91494923Y-82962768D01*
X91494923Y-82962768D02*
X91515372Y-82984065D01*
X91515372Y-82984065D02*
X91515669Y-82984738D01*
X91515669Y-82984738D02*
X91511279Y-83007776D01*
X91511279Y-83007776D02*
X91493876Y-83060062D01*
X91493876Y-83060062D02*
X91465268Y-83137295D01*
X91465268Y-83137295D02*
X91427265Y-83235173D01*
X91427265Y-83235173D02*
X91381674Y-83349396D01*
X91381674Y-83349396D02*
X91330303Y-83475663D01*
X91330303Y-83475663D02*
X91274962Y-83609672D01*
X91274962Y-83609672D02*
X91217458Y-83747123D01*
X91217458Y-83747123D02*
X91159601Y-83883713D01*
X91159601Y-83883713D02*
X91103198Y-84015142D01*
X91103198Y-84015142D02*
X91050058Y-84137110D01*
X91050058Y-84137110D02*
X91001990Y-84245314D01*
X91001990Y-84245314D02*
X90960801Y-84335454D01*
X90960801Y-84335454D02*
X90928301Y-84403228D01*
X90928301Y-84403228D02*
X90906297Y-84444335D01*
X90906297Y-84444335D02*
X90897436Y-84455131D01*
X90897436Y-84455131D02*
X90870360Y-84446724D01*
X90870360Y-84446724D02*
X90819697Y-84424177D01*
X90819697Y-84424177D02*
X90754183Y-84391518D01*
X90754183Y-84391518D02*
X90718159Y-84372425D01*
X90718159Y-84372425D02*
X90565168Y-84289705D01*
X90565168Y-84289705D02*
X90382912Y-84412980D01*
X90382912Y-84412980D02*
X90289875Y-84476133D01*
X90289875Y-84476133D02*
X90188015Y-84545632D01*
X90188015Y-84545632D02*
X90092562Y-84611070D01*
X90092562Y-84611070D02*
X90044750Y-84644022D01*
X90044750Y-84644022D02*
X89977505Y-84689178D01*
X89977505Y-84689178D02*
X89920564Y-84724962D01*
X89920564Y-84724962D02*
X89881354Y-84746843D01*
X89881354Y-84746843D02*
X89868619Y-84751468D01*
X89868619Y-84751468D02*
X89850083Y-84738990D01*
X89850083Y-84738990D02*
X89809059Y-84704157D01*
X89809059Y-84704157D02*
X89749525Y-84650583D01*
X89749525Y-84650583D02*
X89675458Y-84581888D01*
X89675458Y-84581888D02*
X89590835Y-84501686D01*
X89590835Y-84501686D02*
X89537315Y-84450191D01*
X89537315Y-84450191D02*
X89443681Y-84358191D01*
X89443681Y-84358191D02*
X89362759Y-84275904D01*
X89362759Y-84275904D02*
X89297823Y-84206850D01*
X89297823Y-84206850D02*
X89252142Y-84154549D01*
X89252142Y-84154549D02*
X89228989Y-84122521D01*
X89228989Y-84122521D02*
X89226768Y-84116021D01*
X89226768Y-84116021D02*
X89237076Y-84091299D01*
X89237076Y-84091299D02*
X89265561Y-84041310D01*
X89265561Y-84041310D02*
X89309063Y-83971117D01*
X89309063Y-83971117D02*
X89364423Y-83885780D01*
X89364423Y-83885780D02*
X89428480Y-83790361D01*
X89428480Y-83790361D02*
X89446697Y-83763759D01*
X89446697Y-83763759D02*
X89513073Y-83667072D01*
X89513073Y-83667072D02*
X89572622Y-83580022D01*
X89572622Y-83580022D02*
X89622016Y-83507500D01*
X89622016Y-83507500D02*
X89657925Y-83454398D01*
X89657925Y-83454398D02*
X89677019Y-83425608D01*
X89677019Y-83425608D02*
X89678864Y-83422631D01*
X89678864Y-83422631D02*
X89676105Y-83399687D01*
X89676105Y-83399687D02*
X89661462Y-83349241D01*
X89661462Y-83349241D02*
X89637487Y-83277946D01*
X89637487Y-83277946D02*
X89606734Y-83192452D01*
X89606734Y-83192452D02*
X89571756Y-83099412D01*
X89571756Y-83099412D02*
X89535107Y-83005479D01*
X89535107Y-83005479D02*
X89499339Y-82917304D01*
X89499339Y-82917304D02*
X89467006Y-82841539D01*
X89467006Y-82841539D02*
X89440662Y-82784836D01*
X89440662Y-82784836D02*
X89422858Y-82753848D01*
X89422858Y-82753848D02*
X89421593Y-82752362D01*
X89421593Y-82752362D02*
X89410706Y-82743506D01*
X89410706Y-82743506D02*
X89392318Y-82734748D01*
X89392318Y-82734748D02*
X89362394Y-82725182D01*
X89362394Y-82725182D02*
X89316897Y-82713901D01*
X89316897Y-82713901D02*
X89251791Y-82699998D01*
X89251791Y-82699998D02*
X89163039Y-82682568D01*
X89163039Y-82682568D02*
X89046607Y-82660703D01*
X89046607Y-82660703D02*
X88898458Y-82633496D01*
X88898458Y-82633496D02*
X88866382Y-82627646D01*
X88866382Y-82627646D02*
X88771314Y-82609279D01*
X88771314Y-82609279D02*
X88688435Y-82591310D01*
X88688435Y-82591310D02*
X88625070Y-82575474D01*
X88625070Y-82575474D02*
X88588542Y-82563505D01*
X88588542Y-82563505D02*
X88583644Y-82560715D01*
X88583644Y-82560715D02*
X88575573Y-82535977D01*
X88575573Y-82535977D02*
X88569013Y-82480695D01*
X88569013Y-82480695D02*
X88563967Y-82401294D01*
X88563967Y-82401294D02*
X88560441Y-82304201D01*
X88560441Y-82304201D02*
X88558439Y-82195843D01*
X88558439Y-82195843D02*
X88557964Y-82082645D01*
X88557964Y-82082645D02*
X88559023Y-81971033D01*
X88559023Y-81971033D02*
X88561618Y-81867434D01*
X88561618Y-81867434D02*
X88565754Y-81778273D01*
X88565754Y-81778273D02*
X88571437Y-81709977D01*
X88571437Y-81709977D02*
X88578669Y-81668971D01*
X88578669Y-81668971D02*
X88583029Y-81660579D01*
X88583029Y-81660579D02*
X88607302Y-81652113D01*
X88607302Y-81652113D02*
X88662574Y-81638340D01*
X88662574Y-81638340D02*
X88743338Y-81620455D01*
X88743338Y-81620455D02*
X88844088Y-81599653D01*
X88844088Y-81599653D02*
X88959317Y-81577128D01*
X88959317Y-81577128D02*
X89022098Y-81565323D01*
X89022098Y-81565323D02*
X89141213Y-81543056D01*
X89141213Y-81543056D02*
X89247435Y-81522884D01*
X89247435Y-81522884D02*
X89335573Y-81505820D01*
X89335573Y-81505820D02*
X89400434Y-81492874D01*
X89400434Y-81492874D02*
X89436826Y-81485060D01*
X89436826Y-81485060D02*
X89442816Y-81483327D01*
X89442816Y-81483327D02*
X89452939Y-81463795D01*
X89452939Y-81463795D02*
X89474338Y-81416748D01*
X89474338Y-81416748D02*
X89504161Y-81348908D01*
X89504161Y-81348908D02*
X89539555Y-81266996D01*
X89539555Y-81266996D02*
X89577668Y-81177733D01*
X89577668Y-81177733D02*
X89615647Y-81087840D01*
X89615647Y-81087840D02*
X89650640Y-81004040D01*
X89650640Y-81004040D02*
X89679794Y-80933052D01*
X89679794Y-80933052D02*
X89700257Y-80881599D01*
X89700257Y-80881599D02*
X89709177Y-80856402D01*
X89709177Y-80856402D02*
X89709343Y-80855301D01*
X89709343Y-80855301D02*
X89699231Y-80835424D01*
X89699231Y-80835424D02*
X89670883Y-80789682D01*
X89670883Y-80789682D02*
X89627277Y-80722622D01*
X89627277Y-80722622D02*
X89571394Y-80638789D01*
X89571394Y-80638789D02*
X89506213Y-80542731D01*
X89506213Y-80542731D02*
X89468321Y-80487555D01*
X89468321Y-80487555D02*
X89399275Y-80386386D01*
X89399275Y-80386386D02*
X89337950Y-80294535D01*
X89337950Y-80294535D02*
X89287337Y-80216649D01*
X89287337Y-80216649D02*
X89250429Y-80157374D01*
X89250429Y-80157374D02*
X89230218Y-80121356D01*
X89230218Y-80121356D02*
X89227299Y-80113282D01*
X89227299Y-80113282D02*
X89239847Y-80094489D01*
X89239847Y-80094489D02*
X89274537Y-80054362D01*
X89274537Y-80054362D02*
X89326937Y-79997398D01*
X89326937Y-79997398D02*
X89392616Y-79928090D01*
X89392616Y-79928090D02*
X89467144Y-79850936D01*
X89467144Y-79850936D02*
X89546087Y-79770430D01*
X89546087Y-79770430D02*
X89625017Y-79691068D01*
X89625017Y-79691068D02*
X89699500Y-79617345D01*
X89699500Y-79617345D02*
X89765106Y-79553757D01*
X89765106Y-79553757D02*
X89817404Y-79504799D01*
X89817404Y-79504799D02*
X89851961Y-79474966D01*
X89851961Y-79474966D02*
X89863522Y-79467847D01*
X89863522Y-79467847D02*
X89882346Y-79477858D01*
X89882346Y-79477858D02*
X89927369Y-79505983D01*
X89927369Y-79505983D02*
X89994213Y-79549359D01*
X89994213Y-79549359D02*
X90078501Y-79605123D01*
X90078501Y-79605123D02*
X90175856Y-79670411D01*
X90175856Y-79670411D02*
X90249293Y-79720151D01*
X90249293Y-79720151D02*
X90620333Y-79972456D01*
X90620333Y-79972456D02*
X91238905Y-79717460D01*
X91238905Y-79717460D02*
X91322725Y-79272836D01*
X91322725Y-79272836D02*
X91406546Y-78828212D01*
X91406546Y-78828212D02*
X92331994Y-78828212D01*
X92331994Y-78828212D02*
X92415814Y-79272836D01*
X92415814Y-79272836D02*
X92415814Y-79272836D01*
G36*
X92415814Y-79272836D02*
G01*
X92499635Y-79717460D01*
X92808920Y-79844958D01*
X93118206Y-79972456D01*
X93489246Y-79720151D01*
X93593157Y-79649901D01*
X93687087Y-79587177D01*
X93766652Y-79534843D01*
X93827470Y-79495762D01*
X93865157Y-79472798D01*
X93875421Y-79467847D01*
X93893910Y-79480581D01*
X93933420Y-79515787D01*
X93989522Y-79568967D01*
X94057787Y-79635623D01*
X94133786Y-79711259D01*
X94213092Y-79791377D01*
X94291275Y-79871479D01*
X94363907Y-79947069D01*
X94426559Y-80013650D01*
X94474803Y-80066723D01*
X94504210Y-80101792D01*
X94511241Y-80113528D01*
X94501123Y-80135165D01*
X94472759Y-80182567D01*
X94429129Y-80251098D01*
X94373218Y-80336120D01*
X94308006Y-80432998D01*
X94270219Y-80488255D01*
X94201343Y-80589153D01*
X94140140Y-80680204D01*
X94089578Y-80756875D01*
X94052628Y-80814633D01*
X94032258Y-80848948D01*
X94029197Y-80856159D01*
X94036136Y-80876653D01*
X94055051Y-80924418D01*
X94083087Y-80992737D01*
X94117391Y-81074894D01*
X94155109Y-81164175D01*
X94193387Y-81253863D01*
X94229370Y-81337243D01*
X94260206Y-81407599D01*
X94283039Y-81458215D01*
X94295017Y-81482376D01*
X94295724Y-81483327D01*
X94314531Y-81487941D01*
X94364618Y-81498233D01*
X94440793Y-81513192D01*
X94537865Y-81531806D01*
X94650643Y-81553064D01*
X94716442Y-81565323D01*
X94836950Y-81588267D01*
X94945797Y-81610100D01*
X95037476Y-81629627D01*
X95106481Y-81645653D01*
X95147304Y-81656984D01*
X95155511Y-81660579D01*
X95163548Y-81684911D01*
X95170033Y-81739864D01*
X95174970Y-81819013D01*
X95178364Y-81915931D01*
X95180218Y-82024192D01*
X95180538Y-82137370D01*
X95179327Y-82249040D01*
X95176590Y-82352773D01*
X95172331Y-82442146D01*
X95166555Y-82510731D01*
X95159267Y-82552102D01*
X95154895Y-82560715D01*
X95128764Y-82571038D01*
X95073393Y-82585797D01*
X94996107Y-82603257D01*
X94904230Y-82621685D01*
X94872158Y-82627646D01*
X94717524Y-82655971D01*
X94595375Y-82678781D01*
X94501673Y-82696985D01*
X94432384Y-82711488D01*
X94383471Y-82723197D01*
X94350897Y-82733020D01*
X94330628Y-82741861D01*
X94318626Y-82750629D01*
X94316947Y-82752362D01*
X94300184Y-82780276D01*
X94274614Y-82834600D01*
X94242788Y-82908682D01*
X94207260Y-82995870D01*
X94170583Y-83089513D01*
X94135311Y-83182957D01*
X94103996Y-83269552D01*
X94079193Y-83342645D01*
X94063454Y-83395583D01*
X94059332Y-83421716D01*
X94059676Y-83422631D01*
X94073641Y-83443991D01*
X94105322Y-83490989D01*
X94151391Y-83558732D01*
X94208518Y-83642328D01*
X94273373Y-83736887D01*
X94291843Y-83763759D01*
X94357699Y-83861180D01*
X94415650Y-83950068D01*
X94462538Y-84025317D01*
X94495207Y-84081825D01*
X94510500Y-84114486D01*
X94511241Y-84118498D01*
X94498392Y-84139589D01*
X94462888Y-84181369D01*
X94409293Y-84239350D01*
X94342171Y-84309040D01*
X94266087Y-84385950D01*
X94185604Y-84465588D01*
X94105287Y-84543466D01*
X94029699Y-84615091D01*
X93963405Y-84675975D01*
X93910969Y-84721626D01*
X93876955Y-84747555D01*
X93867545Y-84751788D01*
X93845643Y-84741817D01*
X93800800Y-84714925D01*
X93740321Y-84675641D01*
X93693789Y-84644022D01*
X93609475Y-84586003D01*
X93509626Y-84517689D01*
X93409473Y-84449484D01*
X93355627Y-84412980D01*
X93173371Y-84289705D01*
X93020381Y-84372425D01*
X92950682Y-84408664D01*
X92891414Y-84436831D01*
X92851311Y-84452896D01*
X92841103Y-84455131D01*
X92828829Y-84438627D01*
X92804613Y-84391987D01*
X92770263Y-84319514D01*
X92727588Y-84225511D01*
X92678394Y-84114279D01*
X92624490Y-83990120D01*
X92567684Y-83857337D01*
X92509782Y-83720232D01*
X92452593Y-83583107D01*
X92397924Y-83450263D01*
X92347584Y-83326003D01*
X92303380Y-83214630D01*
X92267119Y-83120444D01*
X92240609Y-83047749D01*
X92225658Y-83000846D01*
X92223254Y-82984738D01*
X92242311Y-82964191D01*
X92284036Y-82930838D01*
X92339706Y-82891607D01*
X92344378Y-82888504D01*
X92488264Y-82773328D01*
X92604283Y-82638958D01*
X92691430Y-82489689D01*
X92748699Y-82329818D01*
X92775086Y-82163642D01*
X92769585Y-81995457D01*
X92731190Y-81829560D01*
X92658895Y-81670247D01*
X92637626Y-81635392D01*
X92526996Y-81494642D01*
X92396302Y-81381619D01*
X92250064Y-81296908D01*
X92092808Y-81241099D01*
X91929057Y-81214779D01*
X91763333Y-81218535D01*
X91600162Y-81252955D01*
X91444065Y-81318628D01*
X91299567Y-81416140D01*
X91254869Y-81455718D01*
X91141112Y-81579608D01*
X91058218Y-81710029D01*
X91001356Y-81856220D01*
X90969687Y-82000993D01*
X90961869Y-82163765D01*
X90987938Y-82327345D01*
X91045245Y-82486203D01*
X91131144Y-82634811D01*
X91242986Y-82767640D01*
X91378123Y-82879161D01*
X91395883Y-82890916D01*
X91452150Y-82929413D01*
X91494923Y-82962768D01*
X91515372Y-82984065D01*
X91515669Y-82984738D01*
X91511279Y-83007776D01*
X91493876Y-83060062D01*
X91465268Y-83137295D01*
X91427265Y-83235173D01*
X91381674Y-83349396D01*
X91330303Y-83475663D01*
X91274962Y-83609672D01*
X91217458Y-83747123D01*
X91159601Y-83883713D01*
X91103198Y-84015142D01*
X91050058Y-84137110D01*
X91001990Y-84245314D01*
X90960801Y-84335454D01*
X90928301Y-84403228D01*
X90906297Y-84444335D01*
X90897436Y-84455131D01*
X90870360Y-84446724D01*
X90819697Y-84424177D01*
X90754183Y-84391518D01*
X90718159Y-84372425D01*
X90565168Y-84289705D01*
X90382912Y-84412980D01*
X90289875Y-84476133D01*
X90188015Y-84545632D01*
X90092562Y-84611070D01*
X90044750Y-84644022D01*
X89977505Y-84689178D01*
X89920564Y-84724962D01*
X89881354Y-84746843D01*
X89868619Y-84751468D01*
X89850083Y-84738990D01*
X89809059Y-84704157D01*
X89749525Y-84650583D01*
X89675458Y-84581888D01*
X89590835Y-84501686D01*
X89537315Y-84450191D01*
X89443681Y-84358191D01*
X89362759Y-84275904D01*
X89297823Y-84206850D01*
X89252142Y-84154549D01*
X89228989Y-84122521D01*
X89226768Y-84116021D01*
X89237076Y-84091299D01*
X89265561Y-84041310D01*
X89309063Y-83971117D01*
X89364423Y-83885780D01*
X89428480Y-83790361D01*
X89446697Y-83763759D01*
X89513073Y-83667072D01*
X89572622Y-83580022D01*
X89622016Y-83507500D01*
X89657925Y-83454398D01*
X89677019Y-83425608D01*
X89678864Y-83422631D01*
X89676105Y-83399687D01*
X89661462Y-83349241D01*
X89637487Y-83277946D01*
X89606734Y-83192452D01*
X89571756Y-83099412D01*
X89535107Y-83005479D01*
X89499339Y-82917304D01*
X89467006Y-82841539D01*
X89440662Y-82784836D01*
X89422858Y-82753848D01*
X89421593Y-82752362D01*
X89410706Y-82743506D01*
X89392318Y-82734748D01*
X89362394Y-82725182D01*
X89316897Y-82713901D01*
X89251791Y-82699998D01*
X89163039Y-82682568D01*
X89046607Y-82660703D01*
X88898458Y-82633496D01*
X88866382Y-82627646D01*
X88771314Y-82609279D01*
X88688435Y-82591310D01*
X88625070Y-82575474D01*
X88588542Y-82563505D01*
X88583644Y-82560715D01*
X88575573Y-82535977D01*
X88569013Y-82480695D01*
X88563967Y-82401294D01*
X88560441Y-82304201D01*
X88558439Y-82195843D01*
X88557964Y-82082645D01*
X88559023Y-81971033D01*
X88561618Y-81867434D01*
X88565754Y-81778273D01*
X88571437Y-81709977D01*
X88578669Y-81668971D01*
X88583029Y-81660579D01*
X88607302Y-81652113D01*
X88662574Y-81638340D01*
X88743338Y-81620455D01*
X88844088Y-81599653D01*
X88959317Y-81577128D01*
X89022098Y-81565323D01*
X89141213Y-81543056D01*
X89247435Y-81522884D01*
X89335573Y-81505820D01*
X89400434Y-81492874D01*
X89436826Y-81485060D01*
X89442816Y-81483327D01*
X89452939Y-81463795D01*
X89474338Y-81416748D01*
X89504161Y-81348908D01*
X89539555Y-81266996D01*
X89577668Y-81177733D01*
X89615647Y-81087840D01*
X89650640Y-81004040D01*
X89679794Y-80933052D01*
X89700257Y-80881599D01*
X89709177Y-80856402D01*
X89709343Y-80855301D01*
X89699231Y-80835424D01*
X89670883Y-80789682D01*
X89627277Y-80722622D01*
X89571394Y-80638789D01*
X89506213Y-80542731D01*
X89468321Y-80487555D01*
X89399275Y-80386386D01*
X89337950Y-80294535D01*
X89287337Y-80216649D01*
X89250429Y-80157374D01*
X89230218Y-80121356D01*
X89227299Y-80113282D01*
X89239847Y-80094489D01*
X89274537Y-80054362D01*
X89326937Y-79997398D01*
X89392616Y-79928090D01*
X89467144Y-79850936D01*
X89546087Y-79770430D01*
X89625017Y-79691068D01*
X89699500Y-79617345D01*
X89765106Y-79553757D01*
X89817404Y-79504799D01*
X89851961Y-79474966D01*
X89863522Y-79467847D01*
X89882346Y-79477858D01*
X89927369Y-79505983D01*
X89994213Y-79549359D01*
X90078501Y-79605123D01*
X90175856Y-79670411D01*
X90249293Y-79720151D01*
X90620333Y-79972456D01*
X91238905Y-79717460D01*
X91322725Y-79272836D01*
X91406546Y-78828212D01*
X92331994Y-78828212D01*
X92415814Y-79272836D01*
G37*
X92415814Y-79272836D02*
X92499635Y-79717460D01*
X92808920Y-79844958D01*
X93118206Y-79972456D01*
X93489246Y-79720151D01*
X93593157Y-79649901D01*
X93687087Y-79587177D01*
X93766652Y-79534843D01*
X93827470Y-79495762D01*
X93865157Y-79472798D01*
X93875421Y-79467847D01*
X93893910Y-79480581D01*
X93933420Y-79515787D01*
X93989522Y-79568967D01*
X94057787Y-79635623D01*
X94133786Y-79711259D01*
X94213092Y-79791377D01*
X94291275Y-79871479D01*
X94363907Y-79947069D01*
X94426559Y-80013650D01*
X94474803Y-80066723D01*
X94504210Y-80101792D01*
X94511241Y-80113528D01*
X94501123Y-80135165D01*
X94472759Y-80182567D01*
X94429129Y-80251098D01*
X94373218Y-80336120D01*
X94308006Y-80432998D01*
X94270219Y-80488255D01*
X94201343Y-80589153D01*
X94140140Y-80680204D01*
X94089578Y-80756875D01*
X94052628Y-80814633D01*
X94032258Y-80848948D01*
X94029197Y-80856159D01*
X94036136Y-80876653D01*
X94055051Y-80924418D01*
X94083087Y-80992737D01*
X94117391Y-81074894D01*
X94155109Y-81164175D01*
X94193387Y-81253863D01*
X94229370Y-81337243D01*
X94260206Y-81407599D01*
X94283039Y-81458215D01*
X94295017Y-81482376D01*
X94295724Y-81483327D01*
X94314531Y-81487941D01*
X94364618Y-81498233D01*
X94440793Y-81513192D01*
X94537865Y-81531806D01*
X94650643Y-81553064D01*
X94716442Y-81565323D01*
X94836950Y-81588267D01*
X94945797Y-81610100D01*
X95037476Y-81629627D01*
X95106481Y-81645653D01*
X95147304Y-81656984D01*
X95155511Y-81660579D01*
X95163548Y-81684911D01*
X95170033Y-81739864D01*
X95174970Y-81819013D01*
X95178364Y-81915931D01*
X95180218Y-82024192D01*
X95180538Y-82137370D01*
X95179327Y-82249040D01*
X95176590Y-82352773D01*
X95172331Y-82442146D01*
X95166555Y-82510731D01*
X95159267Y-82552102D01*
X95154895Y-82560715D01*
X95128764Y-82571038D01*
X95073393Y-82585797D01*
X94996107Y-82603257D01*
X94904230Y-82621685D01*
X94872158Y-82627646D01*
X94717524Y-82655971D01*
X94595375Y-82678781D01*
X94501673Y-82696985D01*
X94432384Y-82711488D01*
X94383471Y-82723197D01*
X94350897Y-82733020D01*
X94330628Y-82741861D01*
X94318626Y-82750629D01*
X94316947Y-82752362D01*
X94300184Y-82780276D01*
X94274614Y-82834600D01*
X94242788Y-82908682D01*
X94207260Y-82995870D01*
X94170583Y-83089513D01*
X94135311Y-83182957D01*
X94103996Y-83269552D01*
X94079193Y-83342645D01*
X94063454Y-83395583D01*
X94059332Y-83421716D01*
X94059676Y-83422631D01*
X94073641Y-83443991D01*
X94105322Y-83490989D01*
X94151391Y-83558732D01*
X94208518Y-83642328D01*
X94273373Y-83736887D01*
X94291843Y-83763759D01*
X94357699Y-83861180D01*
X94415650Y-83950068D01*
X94462538Y-84025317D01*
X94495207Y-84081825D01*
X94510500Y-84114486D01*
X94511241Y-84118498D01*
X94498392Y-84139589D01*
X94462888Y-84181369D01*
X94409293Y-84239350D01*
X94342171Y-84309040D01*
X94266087Y-84385950D01*
X94185604Y-84465588D01*
X94105287Y-84543466D01*
X94029699Y-84615091D01*
X93963405Y-84675975D01*
X93910969Y-84721626D01*
X93876955Y-84747555D01*
X93867545Y-84751788D01*
X93845643Y-84741817D01*
X93800800Y-84714925D01*
X93740321Y-84675641D01*
X93693789Y-84644022D01*
X93609475Y-84586003D01*
X93509626Y-84517689D01*
X93409473Y-84449484D01*
X93355627Y-84412980D01*
X93173371Y-84289705D01*
X93020381Y-84372425D01*
X92950682Y-84408664D01*
X92891414Y-84436831D01*
X92851311Y-84452896D01*
X92841103Y-84455131D01*
X92828829Y-84438627D01*
X92804613Y-84391987D01*
X92770263Y-84319514D01*
X92727588Y-84225511D01*
X92678394Y-84114279D01*
X92624490Y-83990120D01*
X92567684Y-83857337D01*
X92509782Y-83720232D01*
X92452593Y-83583107D01*
X92397924Y-83450263D01*
X92347584Y-83326003D01*
X92303380Y-83214630D01*
X92267119Y-83120444D01*
X92240609Y-83047749D01*
X92225658Y-83000846D01*
X92223254Y-82984738D01*
X92242311Y-82964191D01*
X92284036Y-82930838D01*
X92339706Y-82891607D01*
X92344378Y-82888504D01*
X92488264Y-82773328D01*
X92604283Y-82638958D01*
X92691430Y-82489689D01*
X92748699Y-82329818D01*
X92775086Y-82163642D01*
X92769585Y-81995457D01*
X92731190Y-81829560D01*
X92658895Y-81670247D01*
X92637626Y-81635392D01*
X92526996Y-81494642D01*
X92396302Y-81381619D01*
X92250064Y-81296908D01*
X92092808Y-81241099D01*
X91929057Y-81214779D01*
X91763333Y-81218535D01*
X91600162Y-81252955D01*
X91444065Y-81318628D01*
X91299567Y-81416140D01*
X91254869Y-81455718D01*
X91141112Y-81579608D01*
X91058218Y-81710029D01*
X91001356Y-81856220D01*
X90969687Y-82000993D01*
X90961869Y-82163765D01*
X90987938Y-82327345D01*
X91045245Y-82486203D01*
X91131144Y-82634811D01*
X91242986Y-82767640D01*
X91378123Y-82879161D01*
X91395883Y-82890916D01*
X91452150Y-82929413D01*
X91494923Y-82962768D01*
X91515372Y-82984065D01*
X91515669Y-82984738D01*
X91511279Y-83007776D01*
X91493876Y-83060062D01*
X91465268Y-83137295D01*
X91427265Y-83235173D01*
X91381674Y-83349396D01*
X91330303Y-83475663D01*
X91274962Y-83609672D01*
X91217458Y-83747123D01*
X91159601Y-83883713D01*
X91103198Y-84015142D01*
X91050058Y-84137110D01*
X91001990Y-84245314D01*
X90960801Y-84335454D01*
X90928301Y-84403228D01*
X90906297Y-84444335D01*
X90897436Y-84455131D01*
X90870360Y-84446724D01*
X90819697Y-84424177D01*
X90754183Y-84391518D01*
X90718159Y-84372425D01*
X90565168Y-84289705D01*
X90382912Y-84412980D01*
X90289875Y-84476133D01*
X90188015Y-84545632D01*
X90092562Y-84611070D01*
X90044750Y-84644022D01*
X89977505Y-84689178D01*
X89920564Y-84724962D01*
X89881354Y-84746843D01*
X89868619Y-84751468D01*
X89850083Y-84738990D01*
X89809059Y-84704157D01*
X89749525Y-84650583D01*
X89675458Y-84581888D01*
X89590835Y-84501686D01*
X89537315Y-84450191D01*
X89443681Y-84358191D01*
X89362759Y-84275904D01*
X89297823Y-84206850D01*
X89252142Y-84154549D01*
X89228989Y-84122521D01*
X89226768Y-84116021D01*
X89237076Y-84091299D01*
X89265561Y-84041310D01*
X89309063Y-83971117D01*
X89364423Y-83885780D01*
X89428480Y-83790361D01*
X89446697Y-83763759D01*
X89513073Y-83667072D01*
X89572622Y-83580022D01*
X89622016Y-83507500D01*
X89657925Y-83454398D01*
X89677019Y-83425608D01*
X89678864Y-83422631D01*
X89676105Y-83399687D01*
X89661462Y-83349241D01*
X89637487Y-83277946D01*
X89606734Y-83192452D01*
X89571756Y-83099412D01*
X89535107Y-83005479D01*
X89499339Y-82917304D01*
X89467006Y-82841539D01*
X89440662Y-82784836D01*
X89422858Y-82753848D01*
X89421593Y-82752362D01*
X89410706Y-82743506D01*
X89392318Y-82734748D01*
X89362394Y-82725182D01*
X89316897Y-82713901D01*
X89251791Y-82699998D01*
X89163039Y-82682568D01*
X89046607Y-82660703D01*
X88898458Y-82633496D01*
X88866382Y-82627646D01*
X88771314Y-82609279D01*
X88688435Y-82591310D01*
X88625070Y-82575474D01*
X88588542Y-82563505D01*
X88583644Y-82560715D01*
X88575573Y-82535977D01*
X88569013Y-82480695D01*
X88563967Y-82401294D01*
X88560441Y-82304201D01*
X88558439Y-82195843D01*
X88557964Y-82082645D01*
X88559023Y-81971033D01*
X88561618Y-81867434D01*
X88565754Y-81778273D01*
X88571437Y-81709977D01*
X88578669Y-81668971D01*
X88583029Y-81660579D01*
X88607302Y-81652113D01*
X88662574Y-81638340D01*
X88743338Y-81620455D01*
X88844088Y-81599653D01*
X88959317Y-81577128D01*
X89022098Y-81565323D01*
X89141213Y-81543056D01*
X89247435Y-81522884D01*
X89335573Y-81505820D01*
X89400434Y-81492874D01*
X89436826Y-81485060D01*
X89442816Y-81483327D01*
X89452939Y-81463795D01*
X89474338Y-81416748D01*
X89504161Y-81348908D01*
X89539555Y-81266996D01*
X89577668Y-81177733D01*
X89615647Y-81087840D01*
X89650640Y-81004040D01*
X89679794Y-80933052D01*
X89700257Y-80881599D01*
X89709177Y-80856402D01*
X89709343Y-80855301D01*
X89699231Y-80835424D01*
X89670883Y-80789682D01*
X89627277Y-80722622D01*
X89571394Y-80638789D01*
X89506213Y-80542731D01*
X89468321Y-80487555D01*
X89399275Y-80386386D01*
X89337950Y-80294535D01*
X89287337Y-80216649D01*
X89250429Y-80157374D01*
X89230218Y-80121356D01*
X89227299Y-80113282D01*
X89239847Y-80094489D01*
X89274537Y-80054362D01*
X89326937Y-79997398D01*
X89392616Y-79928090D01*
X89467144Y-79850936D01*
X89546087Y-79770430D01*
X89625017Y-79691068D01*
X89699500Y-79617345D01*
X89765106Y-79553757D01*
X89817404Y-79504799D01*
X89851961Y-79474966D01*
X89863522Y-79467847D01*
X89882346Y-79477858D01*
X89927369Y-79505983D01*
X89994213Y-79549359D01*
X90078501Y-79605123D01*
X90175856Y-79670411D01*
X90249293Y-79720151D01*
X90620333Y-79972456D01*
X91238905Y-79717460D01*
X91322725Y-79272836D01*
X91406546Y-78828212D01*
X92331994Y-78828212D01*
X92415814Y-79272836D01*
D12*
%TO.C,G\u002A\u002A\u002A*%
X115640000Y-81790000D02*
G75*
G03*
X115640000Y-81790000I-3850000J0D01*
G01*
%TD*%
%LPC*%
%TO.C,G\u002A\u002A\u002A*%
D13*
X113665000Y-81790000D02*
G75*
G03*
X113665000Y-81790000I-1875000J0D01*
G01*
%TD*%
D14*
%TO.C,MX8*%
X106485479Y-84389521D03*
D15*
X101405479Y-84389521D03*
D14*
X96325479Y-84389521D03*
D16*
X97595479Y-81849521D03*
X103945479Y-79309521D03*
%TD*%
D14*
%TO.C,MX7*%
X87435479Y-84389521D03*
X77275479Y-84389521D03*
D15*
X82355479Y-84389521D03*
D16*
X78545479Y-81849521D03*
X84895479Y-79309521D03*
%TD*%
D14*
%TO.C,MX1*%
X77275479Y-46289521D03*
X87435479Y-46289521D03*
D15*
X82355479Y-46289521D03*
D16*
X78545479Y-43749521D03*
X84895479Y-41209521D03*
%TD*%
D14*
%TO.C,MX6*%
X121475479Y-65339521D03*
D15*
X126555479Y-65339521D03*
D14*
X131635479Y-65339521D03*
D16*
X122745479Y-62799521D03*
X129095479Y-60259521D03*
%TD*%
D17*
%TO.C,U1*%
X86384229Y-36055771D03*
D18*
X88924229Y-36055771D03*
X91464229Y-36055771D03*
X94004229Y-36055771D03*
%TD*%
D15*
%TO.C,MX9*%
X126555479Y-84389521D03*
D14*
X121475479Y-84389521D03*
X131635479Y-84389521D03*
D16*
X122745479Y-81849521D03*
X129095479Y-79309521D03*
%TD*%
D14*
%TO.C,MX4*%
X87435479Y-65339521D03*
D15*
X82355479Y-65339521D03*
D14*
X77275479Y-65339521D03*
D16*
X78545479Y-62799521D03*
X84895479Y-60259521D03*
%TD*%
D19*
%TO.C,MX3*%
X133805479Y-48789521D03*
D20*
X133805479Y-43789521D03*
X133805479Y-46289521D03*
D21*
X126305479Y-51889521D03*
X126305479Y-40689521D03*
D20*
X119305479Y-43789521D03*
X119305479Y-48789521D03*
%TD*%
D14*
%TO.C,MX2*%
X96325479Y-46289521D03*
X106485479Y-46289521D03*
D15*
X101405479Y-46289521D03*
D16*
X97595479Y-43749521D03*
X103945479Y-41209521D03*
%TD*%
D14*
%TO.C,MX5*%
X106485479Y-65339521D03*
D15*
X101405479Y-65339521D03*
D14*
X96325479Y-65339521D03*
D16*
X97595479Y-62799521D03*
X103945479Y-60259521D03*
%TD*%
D22*
%TO.C,J1*%
X112399229Y-40445771D03*
X123639229Y-40445771D03*
D23*
X123639229Y-36445771D03*
X112399229Y-36445771D03*
%TD*%
D24*
%TO.C,J2*%
X123559229Y-54450771D03*
X123559229Y-56990771D03*
X126099229Y-54450771D03*
X126099229Y-56990771D03*
X128639229Y-54450771D03*
X128639229Y-56990771D03*
%TD*%
M02*
