  0
SECTION
  2
HEADER
  9
$ANGBASE
  50
0.0
  9
$ANGDIR
  70
1
  9
$MEASUREMENT
  70
1
  0
ENDSEC
  0
SECTION
  2
TABLES
  0
TABLE
  2
LTYPE
  70
4
  0
LTYPE
  5
40F
  2
CONTINUOUS
  70
0
  3
Solid line
  72
65
  73
0
  40
0.0
  0
LTYPE
  5
410
  2
DASHDOT
 70
0
  3
Dash Dot ____ _ ____ _
 72
65
 73
4
 40
2.0
 49
1.25
 49
-0.25
 49
0.25
 49
-0.25
  0
LTYPE
  5
411
  2
DASHED
 70
0
  3
Dashed __ __ __ __ __
 72
65
 73
2
 40
0.75
 49
0.5
 49
-0.25
  0
LTYPE
  5
43B
  2
DOTTED
 70
0
  3
Dotted .  .  .  .
 72
65
 73
2
 40
0.2
 49
0.0
 49
-0.2
  0
ENDTAB
  0
TABLE
  2
STYLE
  70
4
  0
STYLE
  2
KICAD
  70
0
  40
0
  41
1
  42
1
  50
0
  71
0
  3
isocp.shx
  0
STYLE
  2
KICADB
  70
0
  40
0
  41
1
  42
1
  50
0
  71
0
  3
isocp.shx
  0
STYLE
  2
KICADI
  70
0
  40
0
  41
1
  42
1
  50
15
  71
0
  3
isocp.shx
  0
STYLE
  2
KICADBI
  70
0
  40
0
  41
1
  42
1
  50
15
  71
0
  3
isocp.shx
  0
ENDTAB
  0
TABLE
  2
LAYER
  70
1
  0
LAYER
  2
BLACK
  70
0
  62
7
  6
CONTINUOUS
  0
ENDTAB
  0
ENDSEC
  0
SECTION
  2
ENTITIES
0
LINE
8
BLACK
6
CONTINUOUS
10
108.129
20
-86.4744
11
108.178
21
-86.5125
0
LINE
8
BLACK
6
CONTINUOUS
10
108.178
20
-86.5125
11
108.198
21
-86.5649
0
LINE
8
BLACK
6
CONTINUOUS
10
108.198
20
-86.5649
11
108.183
21
-86.6062
0
LINE
8
BLACK
6
CONTINUOUS
10
108.183
20
-86.6062
11
107.767
21
-87.2221
0
LINE
8
BLACK
6
CONTINUOUS
10
107.767
20
-87.2221
11
108.192
21
-87.8571
0
LINE
8
BLACK
6
CONTINUOUS
10
108.192
20
-87.8571
11
108.202
21
-87.8762
0
LINE
8
BLACK
6
CONTINUOUS
10
108.202
20
-87.8762
11
108.205
21
-87.9016
0
LINE
8
BLACK
6
CONTINUOUS
10
108.205
20
-87.9016
11
108.186
21
-87.9476
0
LINE
8
BLACK
6
CONTINUOUS
10
108.186
20
-87.9476
11
108.138
21
-87.9873
0
LINE
8
BLACK
6
CONTINUOUS
10
108.138
20
-87.9873
11
108.081
21
-88.0032
0
LINE
8
BLACK
6
CONTINUOUS
10
108.081
20
-88.0032
11
108.048
21
-87.9952
0
LINE
8
BLACK
6
CONTINUOUS
10
108.048
20
-87.9952
11
108.021
21
-87.9714
0
LINE
8
BLACK
6
CONTINUOUS
10
108.021
20
-87.9714
11
107.633
21
-87.3777
0
LINE
8
BLACK
6
CONTINUOUS
10
107.633
20
-87.3777
11
107.249
21
-87.9714
0
LINE
8
BLACK
6
CONTINUOUS
10
107.249
20
-87.9714
11
107.219
21
-87.9952
0
LINE
8
BLACK
6
CONTINUOUS
10
107.219
20
-87.9952
11
107.192
21
-88.0032
0
LINE
8
BLACK
6
CONTINUOUS
10
107.192
20
-88.0032
11
107.171
21
-88.0032
0
LINE
8
BLACK
6
CONTINUOUS
10
107.171
20
-88.0032
11
107.132
21
-87.9873
0
LINE
8
BLACK
6
CONTINUOUS
10
107.132
20
-87.9873
11
107.082
21
-87.9476
0
LINE
8
BLACK
6
CONTINUOUS
10
107.082
20
-87.9476
11
107.062
21
-87.9016
0
LINE
8
BLACK
6
CONTINUOUS
10
107.062
20
-87.9016
11
107.075
21
-87.8571
0
LINE
8
BLACK
6
CONTINUOUS
10
107.075
20
-87.8571
11
107.497
21
-87.2221
0
LINE
8
BLACK
6
CONTINUOUS
10
107.497
20
-87.2221
11
107.084
21
-86.6062
0
LINE
8
BLACK
6
CONTINUOUS
10
107.084
20
-86.6062
11
107.075
21
-86.5855
0
LINE
8
BLACK
6
CONTINUOUS
10
107.075
20
-86.5855
11
107.068
21
-86.5649
0
LINE
8
BLACK
6
CONTINUOUS
10
107.068
20
-86.5649
11
107.089
21
-86.5157
0
LINE
8
BLACK
6
CONTINUOUS
10
107.089
20
-86.5157
11
107.138
21
-86.476
0
LINE
8
BLACK
6
CONTINUOUS
10
107.138
20
-86.476
11
107.195
21
-86.4601
0
LINE
8
BLACK
6
CONTINUOUS
10
107.195
20
-86.4601
11
107.229
21
-86.4665
0
LINE
8
BLACK
6
CONTINUOUS
10
107.229
20
-86.4665
11
107.259
21
-86.4919
0
LINE
8
BLACK
6
CONTINUOUS
10
107.259
20
-86.4919
11
107.633
21
-87.0729
0
LINE
8
BLACK
6
CONTINUOUS
10
107.633
20
-87.0729
11
108.011
21
-86.4919
0
LINE
8
BLACK
6
CONTINUOUS
10
108.011
20
-86.4919
11
108.038
21
-86.468
0
LINE
8
BLACK
6
CONTINUOUS
10
108.038
20
-86.468
11
108.071
21
-86.4601
0
LINE
8
BLACK
6
CONTINUOUS
10
108.071
20
-86.4601
11
108.129
21
-86.4744
0
LINE
8
BLACK
6
CONTINUOUS
10
119.447
20
-87.0872
11
119.461
21
-87.0882
0
LINE
8
BLACK
6
CONTINUOUS
10
119.461
20
-87.0882
11
119.537
21
-87.1263
0
LINE
8
BLACK
6
CONTINUOUS
10
119.537
20
-87.1263
11
119.544
21
-87.1338
0
LINE
8
BLACK
6
CONTINUOUS
10
119.544
20
-87.1338
11
119.553
21
-87.1376
0
LINE
8
BLACK
6
CONTINUOUS
10
119.553
20
-87.1376
11
119.591
21
-87.1757
0
LINE
8
BLACK
6
CONTINUOUS
10
119.591
20
-87.1757
11
119.595
21
-87.1848
0
LINE
8
BLACK
6
CONTINUOUS
10
119.595
20
-87.1848
11
119.602
21
-87.1913
0
LINE
8
BLACK
6
CONTINUOUS
10
119.602
20
-87.1913
11
119.64
21
-87.2675
0
LINE
8
BLACK
6
CONTINUOUS
10
119.64
20
-87.2675
11
119.641
21
-87.2743
0
LINE
8
BLACK
6
CONTINUOUS
10
119.641
20
-87.2743
11
119.645
21
-87.2797
0
LINE
8
BLACK
6
CONTINUOUS
10
119.645
20
-87.2797
11
119.683
21
-87.4321
0
LINE
8
BLACK
6
CONTINUOUS
10
119.683
20
-87.4321
11
119.682
21
-87.4396
0
LINE
8
BLACK
6
CONTINUOUS
10
119.682
20
-87.4396
11
119.685
21
-87.4467
0
LINE
8
BLACK
6
CONTINUOUS
10
119.685
20
-87.4467
11
119.685
21
-87.6371
0
LINE
8
BLACK
6
CONTINUOUS
10
119.685
20
-87.6371
11
119.682
21
-87.6442
0
LINE
8
BLACK
6
CONTINUOUS
10
119.682
20
-87.6442
11
119.683
21
-87.6517
0
LINE
8
BLACK
6
CONTINUOUS
10
119.683
20
-87.6517
11
119.645
21
-87.8041
0
LINE
8
BLACK
6
CONTINUOUS
10
119.645
20
-87.8041
11
119.641
21
-87.8096
0
LINE
8
BLACK
6
CONTINUOUS
10
119.641
20
-87.8096
11
119.64
21
-87.8164
0
LINE
8
BLACK
6
CONTINUOUS
10
119.64
20
-87.8164
11
119.602
21
-87.8925
0
LINE
8
BLACK
6
CONTINUOUS
10
119.602
20
-87.8925
11
119.595
21
-87.899
0
LINE
8
BLACK
6
CONTINUOUS
10
119.595
20
-87.899
11
119.591
21
-87.9081
0
LINE
8
BLACK
6
CONTINUOUS
10
119.591
20
-87.9081
11
119.553
21
-87.9462
0
LINE
8
BLACK
6
CONTINUOUS
10
119.553
20
-87.9462
11
119.544
21
-87.95
0
LINE
8
BLACK
6
CONTINUOUS
10
119.544
20
-87.95
11
119.537
21
-87.9575
0
LINE
8
BLACK
6
CONTINUOUS
10
119.537
20
-87.9575
11
119.461
21
-87.9956
0
LINE
8
BLACK
6
CONTINUOUS
10
119.461
20
-87.9956
11
119.447
21
-87.9966
0
LINE
8
BLACK
6
CONTINUOUS
10
119.447
20
-87.9966
11
119.434
21
-88.0019
0
LINE
8
BLACK
6
CONTINUOUS
10
119.434
20
-88.0019
11
119.358
21
-88.0019
0
LINE
8
BLACK
6
CONTINUOUS
10
119.358
20
-88.0019
11
119.345
21
-87.9966
0
LINE
8
BLACK
6
CONTINUOUS
10
119.345
20
-87.9966
11
119.331
21
-87.9956
0
LINE
8
BLACK
6
CONTINUOUS
10
119.331
20
-87.9956
11
119.255
21
-87.9575
0
LINE
8
BLACK
6
CONTINUOUS
10
119.255
20
-87.9575
11
119.249
21
-87.95
0
LINE
8
BLACK
6
CONTINUOUS
10
119.249
20
-87.95
11
119.239
21
-87.9462
0
LINE
8
BLACK
6
CONTINUOUS
10
119.239
20
-87.9462
11
119.201
21
-87.9081
0
LINE
8
BLACK
6
CONTINUOUS
10
119.201
20
-87.9081
11
119.198
21
-87.899
0
LINE
8
BLACK
6
CONTINUOUS
10
119.198
20
-87.899
11
119.19
21
-87.8925
0
LINE
8
BLACK
6
CONTINUOUS
10
119.19
20
-87.8925
11
119.152
21
-87.8164
0
LINE
8
BLACK
6
CONTINUOUS
10
119.152
20
-87.8164
11
119.152
21
-87.8096
0
LINE
8
BLACK
6
CONTINUOUS
10
119.152
20
-87.8096
11
119.148
21
-87.8041
0
LINE
8
BLACK
6
CONTINUOUS
10
119.148
20
-87.8041
11
119.109
21
-87.6517
0
LINE
8
BLACK
6
CONTINUOUS
10
119.109
20
-87.6517
11
119.111
21
-87.6442
0
LINE
8
BLACK
6
CONTINUOUS
10
119.111
20
-87.6442
11
119.108
21
-87.6371
0
LINE
8
BLACK
6
CONTINUOUS
10
119.108
20
-87.6371
11
119.108
21
-87.4467
0
LINE
8
BLACK
6
CONTINUOUS
10
119.108
20
-87.4467
11
119.111
21
-87.4396
0
LINE
8
BLACK
6
CONTINUOUS
10
119.111
20
-87.4396
11
119.109
21
-87.4321
0
LINE
8
BLACK
6
CONTINUOUS
10
119.109
20
-87.4321
11
119.148
21
-87.2797
0
LINE
8
BLACK
6
CONTINUOUS
10
119.148
20
-87.2797
11
119.152
21
-87.2743
0
LINE
8
BLACK
6
CONTINUOUS
10
119.152
20
-87.2743
11
119.152
21
-87.2675
0
LINE
8
BLACK
6
CONTINUOUS
10
119.152
20
-87.2675
11
119.19
21
-87.1913
0
LINE
8
BLACK
6
CONTINUOUS
10
119.19
20
-87.1913
11
119.198
21
-87.1848
0
LINE
8
BLACK
6
CONTINUOUS
10
119.198
20
-87.1848
11
119.201
21
-87.1757
0
LINE
8
BLACK
6
CONTINUOUS
10
119.201
20
-87.1757
11
119.239
21
-87.1376
0
LINE
8
BLACK
6
CONTINUOUS
10
119.239
20
-87.1376
11
119.249
21
-87.1338
0
LINE
8
BLACK
6
CONTINUOUS
10
119.249
20
-87.1338
11
119.255
21
-87.1263
0
LINE
8
BLACK
6
CONTINUOUS
10
119.255
20
-87.1263
11
119.331
21
-87.0882
0
LINE
8
BLACK
6
CONTINUOUS
10
119.331
20
-87.0882
11
119.345
21
-87.0872
0
LINE
8
BLACK
6
CONTINUOUS
10
119.345
20
-87.0872
11
119.358
21
-87.0819
0
LINE
8
BLACK
6
CONTINUOUS
10
119.358
20
-87.0819
11
119.434
21
-87.0819
0
LINE
8
BLACK
6
CONTINUOUS
10
119.434
20
-87.0819
11
119.447
21
-87.0872
0
LINE
8
BLACK
6
CONTINUOUS
10
119.372
20
-87.2019
11
119.317
21
-87.2293
0
LINE
8
BLACK
6
CONTINUOUS
10
119.317
20
-87.2293
11
119.293
21
-87.2536
0
LINE
8
BLACK
6
CONTINUOUS
10
119.293
20
-87.2536
11
119.262
21
-87.3152
0
LINE
8
BLACK
6
CONTINUOUS
10
119.262
20
-87.3152
11
119.228
21
-87.4541
0
LINE
8
BLACK
6
CONTINUOUS
10
119.228
20
-87.4541
11
119.228
21
-87.6298
0
LINE
8
BLACK
6
CONTINUOUS
10
119.228
20
-87.6298
11
119.262
21
-87.7686
0
LINE
8
BLACK
6
CONTINUOUS
10
119.262
20
-87.7686
11
119.293
21
-87.8302
0
LINE
8
BLACK
6
CONTINUOUS
10
119.293
20
-87.8302
11
119.317
21
-87.8545
0
LINE
8
BLACK
6
CONTINUOUS
10
119.317
20
-87.8545
11
119.372
21
-87.8819
0
LINE
8
BLACK
6
CONTINUOUS
10
119.372
20
-87.8819
11
119.42
21
-87.8819
0
LINE
8
BLACK
6
CONTINUOUS
10
119.42
20
-87.8819
11
119.475
21
-87.8545
0
LINE
8
BLACK
6
CONTINUOUS
10
119.475
20
-87.8545
11
119.499
21
-87.8302
0
LINE
8
BLACK
6
CONTINUOUS
10
119.499
20
-87.8302
11
119.53
21
-87.7686
0
LINE
8
BLACK
6
CONTINUOUS
10
119.53
20
-87.7686
11
119.565
21
-87.6298
0
LINE
8
BLACK
6
CONTINUOUS
10
119.565
20
-87.6298
11
119.565
21
-87.454
0
LINE
8
BLACK
6
CONTINUOUS
10
119.565
20
-87.454
11
119.53
21
-87.3152
0
LINE
8
BLACK
6
CONTINUOUS
10
119.53
20
-87.3152
11
119.499
21
-87.2536
0
LINE
8
BLACK
6
CONTINUOUS
10
119.499
20
-87.2536
11
119.475
21
-87.2293
0
LINE
8
BLACK
6
CONTINUOUS
10
119.475
20
-87.2293
11
119.42
21
-87.2019
0
LINE
8
BLACK
6
CONTINUOUS
10
119.42
20
-87.2019
11
119.372
21
-87.2019
0
LINE
8
BLACK
6
CONTINUOUS
10
118.917
20
-87.9174
11
118.905
21
-87.9462
0
LINE
8
BLACK
6
CONTINUOUS
10
118.905
20
-87.9462
11
118.905
21
-87.9462
0
LINE
8
BLACK
6
CONTINUOUS
10
118.905
20
-87.9462
11
118.905
21
-87.9462
0
LINE
8
BLACK
6
CONTINUOUS
10
118.905
20
-87.9462
11
118.867
21
-87.9843
0
LINE
8
BLACK
6
CONTINUOUS
10
118.867
20
-87.9843
11
118.85
21
-87.9916
0
LINE
8
BLACK
6
CONTINUOUS
10
118.85
20
-87.9916
11
118.825
21
-88.0019
0
LINE
8
BLACK
6
CONTINUOUS
10
118.825
20
-88.0019
11
118.8
21
-87.9916
0
LINE
8
BLACK
6
CONTINUOUS
10
118.8
20
-87.9916
11
118.782
21
-87.9843
0
LINE
8
BLACK
6
CONTINUOUS
10
118.782
20
-87.9843
11
118.744
21
-87.9462
0
LINE
8
BLACK
6
CONTINUOUS
10
118.744
20
-87.9462
11
118.727
21
-87.9038
0
LINE
8
BLACK
6
CONTINUOUS
10
118.727
20
-87.9038
11
118.744
21
-87.8614
0
LINE
8
BLACK
6
CONTINUOUS
10
118.744
20
-87.8614
11
118.782
21
-87.8233
0
LINE
8
BLACK
6
CONTINUOUS
10
118.782
20
-87.8233
11
118.799
21
-87.8164
0
LINE
8
BLACK
6
CONTINUOUS
10
118.799
20
-87.8164
11
118.8
21
-87.816
0
LINE
8
BLACK
6
CONTINUOUS
10
118.8
20
-87.816
11
118.825
21
-87.8057
0
LINE
8
BLACK
6
CONTINUOUS
10
118.825
20
-87.8057
11
118.85
21
-87.816
0
LINE
8
BLACK
6
CONTINUOUS
10
118.85
20
-87.816
11
118.867
21
-87.8233
0
LINE
8
BLACK
6
CONTINUOUS
10
118.867
20
-87.8233
11
118.905
21
-87.8614
0
LINE
8
BLACK
6
CONTINUOUS
10
118.905
20
-87.8614
11
118.905
21
-87.8614
0
LINE
8
BLACK
6
CONTINUOUS
10
118.905
20
-87.8614
11
118.905
21
-87.8614
0
LINE
8
BLACK
6
CONTINUOUS
10
118.905
20
-87.8614
11
118.907
21
-87.8657
0
LINE
8
BLACK
6
CONTINUOUS
10
118.907
20
-87.8657
11
118.923
21
-87.9038
0
LINE
8
BLACK
6
CONTINUOUS
10
118.923
20
-87.9038
11
118.923
21
-87.9038
0
LINE
8
BLACK
6
CONTINUOUS
10
118.923
20
-87.9038
11
118.917
21
-87.9174
0
LINE
8
BLACK
6
CONTINUOUS
10
118.269
20
-87.077
11
118.272
21
-87.1228
0
LINE
8
BLACK
6
CONTINUOUS
10
118.272
20
-87.1228
11
118.108
21
-87.6152
0
LINE
8
BLACK
6
CONTINUOUS
10
118.108
20
-87.6152
11
118.346
21
-87.6152
0
LINE
8
BLACK
6
CONTINUOUS
10
118.346
20
-87.6152
11
118.346
21
-87.4086
0
LINE
8
BLACK
6
CONTINUOUS
10
118.346
20
-87.4086
11
118.363
21
-87.3661
0
LINE
8
BLACK
6
CONTINUOUS
10
118.363
20
-87.3661
11
118.406
21
-87.3486
0
LINE
8
BLACK
6
CONTINUOUS
10
118.406
20
-87.3486
11
118.448
21
-87.3661
0
LINE
8
BLACK
6
CONTINUOUS
10
118.448
20
-87.3661
11
118.466
21
-87.4086
0
LINE
8
BLACK
6
CONTINUOUS
10
118.466
20
-87.4086
11
118.466
21
-87.6152
0
LINE
8
BLACK
6
CONTINUOUS
10
118.466
20
-87.6152
11
118.52
21
-87.6152
0
LINE
8
BLACK
6
CONTINUOUS
10
118.52
20
-87.6152
11
118.562
21
-87.6328
0
LINE
8
BLACK
6
CONTINUOUS
10
118.562
20
-87.6328
11
118.58
21
-87.6752
0
LINE
8
BLACK
6
CONTINUOUS
10
118.58
20
-87.6752
11
118.562
21
-87.7177
0
LINE
8
BLACK
6
CONTINUOUS
10
118.562
20
-87.7177
11
118.52
21
-87.7352
0
LINE
8
BLACK
6
CONTINUOUS
10
118.52
20
-87.7352
11
118.466
21
-87.7352
0
LINE
8
BLACK
6
CONTINUOUS
10
118.466
20
-87.7352
11
118.466
21
-87.9419
0
LINE
8
BLACK
6
CONTINUOUS
10
118.466
20
-87.9419
11
118.448
21
-87.9843
0
LINE
8
BLACK
6
CONTINUOUS
10
118.448
20
-87.9843
11
118.406
21
-88.0019
0
LINE
8
BLACK
6
CONTINUOUS
10
118.406
20
-88.0019
11
118.363
21
-87.9843
0
LINE
8
BLACK
6
CONTINUOUS
10
118.363
20
-87.9843
11
118.346
21
-87.9419
0
LINE
8
BLACK
6
CONTINUOUS
10
118.346
20
-87.9419
11
118.346
21
-87.7352
0
LINE
8
BLACK
6
CONTINUOUS
10
118.346
20
-87.7352
11
118.025
21
-87.7352
0
LINE
8
BLACK
6
CONTINUOUS
10
118.025
20
-87.7352
11
118.016
21
-87.7315
0
LINE
8
BLACK
6
CONTINUOUS
10
118.016
20
-87.7315
11
118.006
21
-87.7322
0
LINE
8
BLACK
6
CONTINUOUS
10
118.006
20
-87.7322
11
117.995
21
-87.723
0
LINE
8
BLACK
6
CONTINUOUS
10
117.995
20
-87.723
11
117.982
21
-87.7177
0
LINE
8
BLACK
6
CONTINUOUS
10
117.982
20
-87.7177
11
117.979
21
-87.7085
0
LINE
8
BLACK
6
CONTINUOUS
10
117.979
20
-87.7085
11
117.971
21
-87.7021
0
LINE
8
BLACK
6
CONTINUOUS
10
117.971
20
-87.7021
11
117.97
21
-87.6881
0
LINE
8
BLACK
6
CONTINUOUS
10
117.97
20
-87.6881
11
117.965
21
-87.6752
0
LINE
8
BLACK
6
CONTINUOUS
10
117.965
20
-87.6752
11
117.969
21
-87.6661
0
LINE
8
BLACK
6
CONTINUOUS
10
117.969
20
-87.6661
11
117.968
21
-87.6563
0
LINE
8
BLACK
6
CONTINUOUS
10
117.968
20
-87.6563
11
118.158
21
-87.0848
0
LINE
8
BLACK
6
CONTINUOUS
10
118.158
20
-87.0848
11
118.188
21
-87.0501
0
LINE
8
BLACK
6
CONTINUOUS
10
118.188
20
-87.0501
11
118.234
21
-87.0469
0
LINE
8
BLACK
6
CONTINUOUS
10
118.234
20
-87.0469
11
118.269
21
-87.077
0
LINE
8
BLACK
6
CONTINUOUS
10
113.963
20
-85.6735
11
114.104
21
-85.714
0
LINE
8
BLACK
6
CONTINUOUS
10
114.104
20
-85.714
11
114.22
21
-85.785
0
LINE
8
BLACK
6
CONTINUOUS
10
114.22
20
-85.785
11
114.309
21
-85.8902
0
LINE
8
BLACK
6
CONTINUOUS
10
114.309
20
-85.8902
11
114.365
21
-86.0335
0
LINE
8
BLACK
6
CONTINUOUS
10
114.365
20
-86.0335
11
114.383
21
-86.2188
0
LINE
8
BLACK
6
CONTINUOUS
10
114.383
20
-86.2188
11
114.365
21
-86.4141
0
LINE
8
BLACK
6
CONTINUOUS
10
114.365
20
-86.4141
11
114.309
21
-86.5681
0
LINE
8
BLACK
6
CONTINUOUS
10
114.309
20
-86.5681
11
114.225
21
-86.6816
0
LINE
8
BLACK
6
CONTINUOUS
10
114.225
20
-86.6816
11
114.123
21
-86.7554
0
LINE
8
BLACK
6
CONTINUOUS
10
114.123
20
-86.7554
11
114.251
21
-86.8292
0
LINE
8
BLACK
6
CONTINUOUS
10
114.251
20
-86.8292
11
114.355
21
-86.9364
0
LINE
8
BLACK
6
CONTINUOUS
10
114.355
20
-86.9364
11
114.424
21
-87.0816
0
LINE
8
BLACK
6
CONTINUOUS
10
114.424
20
-87.0816
11
114.447
21
-87.2697
0
LINE
8
BLACK
6
CONTINUOUS
10
114.447
20
-87.2697
11
114.447
21
-87.3301
0
LINE
8
BLACK
6
CONTINUOUS
10
114.447
20
-87.3301
11
114.425
21
-87.5499
0
LINE
8
BLACK
6
CONTINUOUS
10
114.425
20
-87.5499
11
114.358
21
-87.7206
0
LINE
8
BLACK
6
CONTINUOUS
10
114.358
20
-87.7206
11
114.254
21
-87.8468
0
LINE
8
BLACK
6
CONTINUOUS
10
114.254
20
-87.8468
11
114.118
21
-87.9333
0
LINE
8
BLACK
6
CONTINUOUS
10
114.118
20
-87.9333
11
113.875
21
-88
0
LINE
8
BLACK
6
CONTINUOUS
10
113.875
20
-88
11
113.699
21
-88
0
LINE
8
BLACK
6
CONTINUOUS
10
113.699
20
-88
11
113.491
21
-87.9508
0
LINE
8
BLACK
6
CONTINUOUS
10
113.491
20
-87.9508
11
113.285
21
-87.8254
0
LINE
8
BLACK
6
CONTINUOUS
10
113.285
20
-87.8254
11
113.164
21
-87.6571
0
LINE
8
BLACK
6
CONTINUOUS
10
113.164
20
-87.6571
11
113.126
21
-87.4761
0
LINE
8
BLACK
6
CONTINUOUS
10
113.126
20
-87.4761
11
113.15
21
-87.3872
0
LINE
8
BLACK
6
CONTINUOUS
10
113.15
20
-87.3872
11
113.221
21
-87.365
0
LINE
8
BLACK
6
CONTINUOUS
10
113.221
20
-87.365
11
113.31
21
-87.3888
0
LINE
8
BLACK
6
CONTINUOUS
10
113.31
20
-87.3888
11
113.332
21
-87.4539
0
LINE
8
BLACK
6
CONTINUOUS
10
113.332
20
-87.4539
11
113.353
21
-87.5666
0
LINE
8
BLACK
6
CONTINUOUS
10
113.353
20
-87.5666
11
113.425
21
-87.6825
0
LINE
8
BLACK
6
CONTINUOUS
10
113.425
20
-87.6825
11
113.561
21
-87.7714
0
LINE
8
BLACK
6
CONTINUOUS
10
113.561
20
-87.7714
11
113.777
21
-87.8063
0
LINE
8
BLACK
6
CONTINUOUS
10
113.777
20
-87.8063
11
113.975
21
-87.7773
0
LINE
8
BLACK
6
CONTINUOUS
10
113.975
20
-87.7773
11
114.12
21
-87.6904
0
LINE
8
BLACK
6
CONTINUOUS
10
114.12
20
-87.6904
11
114.208
21
-87.5424
0
LINE
8
BLACK
6
CONTINUOUS
10
114.208
20
-87.5424
11
114.237
21
-87.3301
0
LINE
8
BLACK
6
CONTINUOUS
10
114.237
20
-87.3301
11
114.237
21
-87.2697
0
LINE
8
BLACK
6
CONTINUOUS
10
114.237
20
-87.2697
11
114.206
21
-87.08
0
LINE
8
BLACK
6
CONTINUOUS
10
114.206
20
-87.08
11
114.114
21
-86.9491
0
LINE
8
BLACK
6
CONTINUOUS
10
114.114
20
-86.9491
11
113.969
21
-86.8729
0
LINE
8
BLACK
6
CONTINUOUS
10
113.969
20
-86.8729
11
113.783
21
-86.8475
0
LINE
8
BLACK
6
CONTINUOUS
10
113.783
20
-86.8475
11
113.723
21
-86.8205
0
LINE
8
BLACK
6
CONTINUOUS
10
113.723
20
-86.8205
11
113.704
21
-86.7586
0
LINE
8
BLACK
6
CONTINUOUS
10
113.704
20
-86.7586
11
113.723
21
-86.6951
0
LINE
8
BLACK
6
CONTINUOUS
10
113.723
20
-86.6951
11
113.783
21
-86.6665
0
LINE
8
BLACK
6
CONTINUOUS
10
113.783
20
-86.6665
11
113.999
21
-86.63
0
LINE
8
BLACK
6
CONTINUOUS
10
113.999
20
-86.63
11
114.134
21
-86.5046
0
LINE
8
BLACK
6
CONTINUOUS
10
114.134
20
-86.5046
11
114.18
21
-86.2601
0
LINE
8
BLACK
6
CONTINUOUS
10
114.18
20
-86.2601
11
114.157
21
-86.0799
0
LINE
8
BLACK
6
CONTINUOUS
10
114.157
20
-86.0799
11
114.088
21
-85.9521
0
LINE
8
BLACK
6
CONTINUOUS
10
114.088
20
-85.9521
11
113.969
21
-85.8759
0
LINE
8
BLACK
6
CONTINUOUS
10
113.969
20
-85.8759
11
113.796
21
-85.8505
0
LINE
8
BLACK
6
CONTINUOUS
10
113.796
20
-85.8505
11
113.591
21
-85.8838
0
LINE
8
BLACK
6
CONTINUOUS
10
113.591
20
-85.8838
11
113.466
21
-85.9696
0
LINE
8
BLACK
6
CONTINUOUS
10
113.466
20
-85.9696
11
113.405
21
-86.0791
0
LINE
8
BLACK
6
CONTINUOUS
10
113.405
20
-86.0791
11
113.39
21
-86.1902
0
LINE
8
BLACK
6
CONTINUOUS
10
113.39
20
-86.1902
11
113.366
21
-86.2633
0
LINE
8
BLACK
6
CONTINUOUS
10
113.366
20
-86.2633
11
113.288
21
-86.2918
0
LINE
8
BLACK
6
CONTINUOUS
10
113.288
20
-86.2918
11
113.221
21
-86.2823
0
LINE
8
BLACK
6
CONTINUOUS
10
113.221
20
-86.2823
11
113.19
21
-86.2442
0
LINE
8
BLACK
6
CONTINUOUS
10
113.19
20
-86.2442
11
113.18
21
-86.1712
0
LINE
8
BLACK
6
CONTINUOUS
10
113.18
20
-86.1712
11
113.207
21
-86.0172
0
LINE
8
BLACK
6
CONTINUOUS
10
113.207
20
-86.0172
11
113.302
21
-85.8489
0
LINE
8
BLACK
6
CONTINUOUS
10
113.302
20
-85.8489
11
113.491
21
-85.714
0
LINE
8
BLACK
6
CONTINUOUS
10
113.491
20
-85.714
11
113.629
21
-85.6735
0
LINE
8
BLACK
6
CONTINUOUS
10
113.629
20
-85.6735
11
113.802
21
-85.66
0
LINE
8
BLACK
6
CONTINUOUS
10
113.802
20
-85.66
11
113.963
21
-85.6735
0
LINE
8
BLACK
6
CONTINUOUS
10
109.357
20
-85.6783
11
109.519
21
-85.733
0
LINE
8
BLACK
6
CONTINUOUS
10
109.519
20
-85.733
11
109.648
21
-85.818
0
LINE
8
BLACK
6
CONTINUOUS
10
109.648
20
-85.818
11
109.743
21
-85.9267
0
LINE
8
BLACK
6
CONTINUOUS
10
109.743
20
-85.9267
11
109.801
21
-86.0529
0
LINE
8
BLACK
6
CONTINUOUS
10
109.801
20
-86.0529
11
109.821
21
-86.1902
0
LINE
8
BLACK
6
CONTINUOUS
10
109.821
20
-86.1902
11
109.794
21
-86.2918
0
LINE
8
BLACK
6
CONTINUOUS
10
109.794
20
-86.2918
11
109.716
21
-86.3172
0
LINE
8
BLACK
6
CONTINUOUS
10
109.716
20
-86.3172
11
109.635
21
-86.2934
0
LINE
8
BLACK
6
CONTINUOUS
10
109.635
20
-86.2934
11
109.611
21
-86.2379
0
LINE
8
BLACK
6
CONTINUOUS
10
109.611
20
-86.2379
11
109.591
21
-86.1204
0
LINE
8
BLACK
6
CONTINUOUS
10
109.591
20
-86.1204
11
109.527
21
-85.9934
0
LINE
8
BLACK
6
CONTINUOUS
10
109.527
20
-85.9934
11
109.394
21
-85.8934
0
LINE
8
BLACK
6
CONTINUOUS
10
109.394
20
-85.8934
11
109.167
21
-85.8537
0
LINE
8
BLACK
6
CONTINUOUS
10
109.167
20
-85.8537
11
108.971
21
-85.8831
0
LINE
8
BLACK
6
CONTINUOUS
10
108.971
20
-85.8831
11
108.827
21
-85.9712
0
LINE
8
BLACK
6
CONTINUOUS
10
108.827
20
-85.9712
11
108.739
21
-86.1212
0
LINE
8
BLACK
6
CONTINUOUS
10
108.739
20
-86.1212
11
108.71
21
-86.3363
0
LINE
8
BLACK
6
CONTINUOUS
10
108.71
20
-86.3363
11
108.71
21
-87.3205
0
LINE
8
BLACK
6
CONTINUOUS
10
108.71
20
-87.3205
11
108.739
21
-87.538
0
LINE
8
BLACK
6
CONTINUOUS
10
108.739
20
-87.538
11
108.829
21
-87.6888
0
LINE
8
BLACK
6
CONTINUOUS
10
108.829
20
-87.6888
11
108.975
21
-87.7769
0
LINE
8
BLACK
6
CONTINUOUS
10
108.975
20
-87.7769
11
109.176
21
-87.8063
0
LINE
8
BLACK
6
CONTINUOUS
10
109.176
20
-87.8063
11
109.402
21
-87.7666
0
LINE
8
BLACK
6
CONTINUOUS
10
109.402
20
-87.7666
11
109.527
21
-87.6682
0
LINE
8
BLACK
6
CONTINUOUS
10
109.527
20
-87.6682
11
109.586
21
-87.5412
0
LINE
8
BLACK
6
CONTINUOUS
10
109.586
20
-87.5412
11
109.611
21
-87.4158
0
LINE
8
BLACK
6
CONTINUOUS
10
109.611
20
-87.4158
11
109.64
21
-87.3539
0
LINE
8
BLACK
6
CONTINUOUS
10
109.64
20
-87.3539
11
109.713
21
-87.3332
0
LINE
8
BLACK
6
CONTINUOUS
10
109.713
20
-87.3332
11
109.794
21
-87.3602
0
LINE
8
BLACK
6
CONTINUOUS
10
109.794
20
-87.3602
11
109.821
21
-87.4634
0
LINE
8
BLACK
6
CONTINUOUS
10
109.821
20
-87.4634
11
109.801
21
-87.6011
0
LINE
8
BLACK
6
CONTINUOUS
10
109.801
20
-87.6011
11
109.742
21
-87.7285
0
LINE
8
BLACK
6
CONTINUOUS
10
109.742
20
-87.7285
11
109.645
21
-87.8389
0
LINE
8
BLACK
6
CONTINUOUS
10
109.645
20
-87.8389
11
109.515
21
-87.9254
0
LINE
8
BLACK
6
CONTINUOUS
10
109.515
20
-87.9254
11
109.378
21
-87.9813
0
LINE
8
BLACK
6
CONTINUOUS
10
109.378
20
-87.9813
11
109.262
21
-88
0
LINE
8
BLACK
6
CONTINUOUS
10
109.262
20
-88
11
109.068
21
-88
0
LINE
8
BLACK
6
CONTINUOUS
10
109.068
20
-88
11
108.829
21
-87.9333
0
LINE
8
BLACK
6
CONTINUOUS
10
108.829
20
-87.9333
11
108.693
21
-87.846
0
LINE
8
BLACK
6
CONTINUOUS
10
108.693
20
-87.846
11
108.589
21
-87.7174
0
LINE
8
BLACK
6
CONTINUOUS
10
108.589
20
-87.7174
11
108.522
21
-87.5436
0
LINE
8
BLACK
6
CONTINUOUS
10
108.522
20
-87.5436
11
108.5
21
-87.3205
0
LINE
8
BLACK
6
CONTINUOUS
10
108.5
20
-87.3205
11
108.5
21
-86.3363
0
LINE
8
BLACK
6
CONTINUOUS
10
108.5
20
-86.3363
11
108.523
21
-86.1156
0
LINE
8
BLACK
6
CONTINUOUS
10
108.523
20
-86.1156
11
108.591
21
-85.9426
0
LINE
8
BLACK
6
CONTINUOUS
10
108.591
20
-85.9426
11
108.696
21
-85.814
0
LINE
8
BLACK
6
CONTINUOUS
10
108.696
20
-85.814
11
108.832
21
-85.7267
0
LINE
8
BLACK
6
CONTINUOUS
10
108.832
20
-85.7267
11
108.99
21
-85.6767
0
LINE
8
BLACK
6
CONTINUOUS
10
108.99
20
-85.6767
11
109.164
21
-85.66
0
LINE
8
BLACK
6
CONTINUOUS
10
109.164
20
-85.66
11
109.357
21
-85.6783
0
LINE
8
BLACK
6
CONTINUOUS
10
115.513
20
-85.6735
11
115.653
21
-85.714
0
LINE
8
BLACK
6
CONTINUOUS
10
115.653
20
-85.714
11
115.77
21
-85.785
0
LINE
8
BLACK
6
CONTINUOUS
10
115.77
20
-85.785
11
115.858
21
-85.8902
0
LINE
8
BLACK
6
CONTINUOUS
10
115.858
20
-85.8902
11
115.914
21
-86.0335
0
LINE
8
BLACK
6
CONTINUOUS
10
115.914
20
-86.0335
11
115.933
21
-86.2188
0
LINE
8
BLACK
6
CONTINUOUS
10
115.933
20
-86.2188
11
115.914
21
-86.4141
0
LINE
8
BLACK
6
CONTINUOUS
10
115.914
20
-86.4141
11
115.858
21
-86.5681
0
LINE
8
BLACK
6
CONTINUOUS
10
115.858
20
-86.5681
11
115.774
21
-86.6816
0
LINE
8
BLACK
6
CONTINUOUS
10
115.774
20
-86.6816
11
115.672
21
-86.7554
0
LINE
8
BLACK
6
CONTINUOUS
10
115.672
20
-86.7554
11
115.8
21
-86.8292
0
LINE
8
BLACK
6
CONTINUOUS
10
115.8
20
-86.8292
11
115.904
21
-86.9364
0
LINE
8
BLACK
6
CONTINUOUS
10
115.904
20
-86.9364
11
115.973
21
-87.0816
0
LINE
8
BLACK
6
CONTINUOUS
10
115.973
20
-87.0816
11
115.996
21
-87.2697
0
LINE
8
BLACK
6
CONTINUOUS
10
115.996
20
-87.2697
11
115.996
21
-87.3301
0
LINE
8
BLACK
6
CONTINUOUS
10
115.996
20
-87.3301
11
115.974
21
-87.5499
0
LINE
8
BLACK
6
CONTINUOUS
10
115.974
20
-87.5499
11
115.907
21
-87.7206
0
LINE
8
BLACK
6
CONTINUOUS
10
115.907
20
-87.7206
11
115.803
21
-87.8468
0
LINE
8
BLACK
6
CONTINUOUS
10
115.803
20
-87.8468
11
115.668
21
-87.9333
0
LINE
8
BLACK
6
CONTINUOUS
10
115.668
20
-87.9333
11
115.425
21
-88
0
LINE
8
BLACK
6
CONTINUOUS
10
115.425
20
-88
11
115.249
21
-88
0
LINE
8
BLACK
6
CONTINUOUS
10
115.249
20
-88
11
115.041
21
-87.9508
0
LINE
8
BLACK
6
CONTINUOUS
10
115.041
20
-87.9508
11
114.834
21
-87.8254
0
LINE
8
BLACK
6
CONTINUOUS
10
114.834
20
-87.8254
11
114.714
21
-87.6571
0
LINE
8
BLACK
6
CONTINUOUS
10
114.714
20
-87.6571
11
114.675
21
-87.4761
0
LINE
8
BLACK
6
CONTINUOUS
10
114.675
20
-87.4761
11
114.699
21
-87.3872
0
LINE
8
BLACK
6
CONTINUOUS
10
114.699
20
-87.3872
11
114.771
21
-87.365
0
LINE
8
BLACK
6
CONTINUOUS
10
114.771
20
-87.365
11
114.86
21
-87.3888
0
LINE
8
BLACK
6
CONTINUOUS
10
114.86
20
-87.3888
11
114.882
21
-87.4539
0
LINE
8
BLACK
6
CONTINUOUS
10
114.882
20
-87.4539
11
114.902
21
-87.5666
0
LINE
8
BLACK
6
CONTINUOUS
10
114.902
20
-87.5666
11
114.974
21
-87.6825
0
LINE
8
BLACK
6
CONTINUOUS
10
114.974
20
-87.6825
11
115.11
21
-87.7714
0
LINE
8
BLACK
6
CONTINUOUS
10
115.11
20
-87.7714
11
115.326
21
-87.8063
0
LINE
8
BLACK
6
CONTINUOUS
10
115.326
20
-87.8063
11
115.525
21
-87.7773
0
LINE
8
BLACK
6
CONTINUOUS
10
115.525
20
-87.7773
11
115.669
21
-87.6904
0
LINE
8
BLACK
6
CONTINUOUS
10
115.669
20
-87.6904
11
115.757
21
-87.5424
0
LINE
8
BLACK
6
CONTINUOUS
10
115.757
20
-87.5424
11
115.787
21
-87.3301
0
LINE
8
BLACK
6
CONTINUOUS
10
115.787
20
-87.3301
11
115.787
21
-87.2697
0
LINE
8
BLACK
6
CONTINUOUS
10
115.787
20
-87.2697
11
115.756
21
-87.08
0
LINE
8
BLACK
6
CONTINUOUS
10
115.756
20
-87.08
11
115.663
21
-86.9491
0
LINE
8
BLACK
6
CONTINUOUS
10
115.663
20
-86.9491
11
115.518
21
-86.8729
0
LINE
8
BLACK
6
CONTINUOUS
10
115.518
20
-86.8729
11
115.333
21
-86.8475
0
LINE
8
BLACK
6
CONTINUOUS
10
115.333
20
-86.8475
11
115.272
21
-86.8205
0
LINE
8
BLACK
6
CONTINUOUS
10
115.272
20
-86.8205
11
115.253
21
-86.7586
0
LINE
8
BLACK
6
CONTINUOUS
10
115.253
20
-86.7586
11
115.272
21
-86.6951
0
LINE
8
BLACK
6
CONTINUOUS
10
115.272
20
-86.6951
11
115.333
21
-86.6665
0
LINE
8
BLACK
6
CONTINUOUS
10
115.333
20
-86.6665
11
115.549
21
-86.63
0
LINE
8
BLACK
6
CONTINUOUS
10
115.549
20
-86.63
11
115.684
21
-86.5046
0
LINE
8
BLACK
6
CONTINUOUS
10
115.684
20
-86.5046
11
115.73
21
-86.2601
0
LINE
8
BLACK
6
CONTINUOUS
10
115.73
20
-86.2601
11
115.707
21
-86.0799
0
LINE
8
BLACK
6
CONTINUOUS
10
115.707
20
-86.0799
11
115.637
21
-85.9521
0
LINE
8
BLACK
6
CONTINUOUS
10
115.637
20
-85.9521
11
115.518
21
-85.8759
0
LINE
8
BLACK
6
CONTINUOUS
10
115.518
20
-85.8759
11
115.345
21
-85.8505
0
LINE
8
BLACK
6
CONTINUOUS
10
115.345
20
-85.8505
11
115.141
21
-85.8838
0
LINE
8
BLACK
6
CONTINUOUS
10
115.141
20
-85.8838
11
115.015
21
-85.9696
0
LINE
8
BLACK
6
CONTINUOUS
10
115.015
20
-85.9696
11
114.955
21
-86.0791
0
LINE
8
BLACK
6
CONTINUOUS
10
114.955
20
-86.0791
11
114.939
21
-86.1902
0
LINE
8
BLACK
6
CONTINUOUS
10
114.939
20
-86.1902
11
114.915
21
-86.2633
0
LINE
8
BLACK
6
CONTINUOUS
10
114.915
20
-86.2633
11
114.837
21
-86.2918
0
LINE
8
BLACK
6
CONTINUOUS
10
114.837
20
-86.2918
11
114.771
21
-86.2823
0
LINE
8
BLACK
6
CONTINUOUS
10
114.771
20
-86.2823
11
114.739
21
-86.2442
0
LINE
8
BLACK
6
CONTINUOUS
10
114.739
20
-86.2442
11
114.729
21
-86.1712
0
LINE
8
BLACK
6
CONTINUOUS
10
114.729
20
-86.1712
11
114.756
21
-86.0172
0
LINE
8
BLACK
6
CONTINUOUS
10
114.756
20
-86.0172
11
114.852
21
-85.8489
0
LINE
8
BLACK
6
CONTINUOUS
10
114.852
20
-85.8489
11
115.041
21
-85.714
0
LINE
8
BLACK
6
CONTINUOUS
10
115.041
20
-85.714
11
115.179
21
-85.6735
0
LINE
8
BLACK
6
CONTINUOUS
10
115.179
20
-85.6735
11
115.352
21
-85.66
0
LINE
8
BLACK
6
CONTINUOUS
10
115.352
20
-85.66
11
115.513
21
-85.6735
0
LINE
8
BLACK
6
CONTINUOUS
10
117.812
20
-87.3829
11
117.815
21
-87.4288
0
LINE
8
BLACK
6
CONTINUOUS
10
117.815
20
-87.4288
11
117.624
21
-87.9621
0
LINE
8
BLACK
6
CONTINUOUS
10
117.624
20
-87.9621
11
117.622
21
-87.9644
0
LINE
8
BLACK
6
CONTINUOUS
10
117.622
20
-87.9644
11
117.622
21
-87.9676
0
LINE
8
BLACK
6
CONTINUOUS
10
117.622
20
-87.9676
11
117.607
21
-87.9811
0
LINE
8
BLACK
6
CONTINUOUS
10
117.607
20
-87.9811
11
117.593
21
-87.9961
0
LINE
8
BLACK
6
CONTINUOUS
10
117.593
20
-87.9961
11
117.59
21
-87.9963
0
LINE
8
BLACK
6
CONTINUOUS
10
117.59
20
-87.9963
11
117.588
21
-87.9984
0
LINE
8
BLACK
6
CONTINUOUS
10
117.588
20
-87.9984
11
117.568
21
-87.9974
0
LINE
8
BLACK
6
CONTINUOUS
10
117.568
20
-87.9974
11
117.547
21
-87.9984
0
LINE
8
BLACK
6
CONTINUOUS
10
117.547
20
-87.9984
11
117.545
21
-87.9963
0
LINE
8
BLACK
6
CONTINUOUS
10
117.545
20
-87.9963
11
117.542
21
-87.9961
0
LINE
8
BLACK
6
CONTINUOUS
10
117.542
20
-87.9961
11
117.528
21
-87.9812
0
LINE
8
BLACK
6
CONTINUOUS
10
117.528
20
-87.9812
11
117.513
21
-87.9676
0
LINE
8
BLACK
6
CONTINUOUS
10
117.513
20
-87.9676
11
117.513
21
-87.9644
0
LINE
8
BLACK
6
CONTINUOUS
10
117.513
20
-87.9644
11
117.511
21
-87.9621
0
LINE
8
BLACK
6
CONTINUOUS
10
117.511
20
-87.9621
11
117.321
21
-87.4288
0
LINE
8
BLACK
6
CONTINUOUS
10
117.321
20
-87.4288
11
117.323
21
-87.3829
0
LINE
8
BLACK
6
CONTINUOUS
10
117.323
20
-87.3829
11
117.357
21
-87.3521
0
LINE
8
BLACK
6
CONTINUOUS
10
117.357
20
-87.3521
11
117.403
21
-87.3543
0
LINE
8
BLACK
6
CONTINUOUS
10
117.403
20
-87.3543
11
117.434
21
-87.3884
0
LINE
8
BLACK
6
CONTINUOUS
10
117.434
20
-87.3884
11
117.568
21
-87.7635
0
LINE
8
BLACK
6
CONTINUOUS
10
117.568
20
-87.7635
11
117.702
21
-87.3884
0
LINE
8
BLACK
6
CONTINUOUS
10
117.702
20
-87.3884
11
117.732
21
-87.3543
0
LINE
8
BLACK
6
CONTINUOUS
10
117.732
20
-87.3543
11
117.778
21
-87.3521
0
LINE
8
BLACK
6
CONTINUOUS
10
117.778
20
-87.3521
11
117.812
21
-87.3829
0
LINE
8
BLACK
6
CONTINUOUS
10
117.511
20
-85.6854
11
117.542
21
-85.7394
0
LINE
8
BLACK
6
CONTINUOUS
10
117.542
20
-85.7394
11
117.542
21
-86.0124
0
LINE
8
BLACK
6
CONTINUOUS
10
117.542
20
-86.0124
11
117.535
21
-86.0569
0
LINE
8
BLACK
6
CONTINUOUS
10
117.535
20
-86.0569
11
117.511
21
-86.1045
0
LINE
8
BLACK
6
CONTINUOUS
10
117.511
20
-86.1045
11
116.568
21
-87.946
0
LINE
8
BLACK
6
CONTINUOUS
10
116.568
20
-87.946
11
116.523
21
-87.9841
0
LINE
8
BLACK
6
CONTINUOUS
10
116.523
20
-87.9841
11
116.482
21
-87.9841
0
LINE
8
BLACK
6
CONTINUOUS
10
116.482
20
-87.9841
11
116.436
21
-87.973
0
LINE
8
BLACK
6
CONTINUOUS
10
116.436
20
-87.973
11
116.388
21
-87.9397
0
LINE
8
BLACK
6
CONTINUOUS
10
116.388
20
-87.9397
11
116.371
21
-87.8857
0
LINE
8
BLACK
6
CONTINUOUS
10
116.371
20
-87.8857
11
116.384
21
-87.8412
0
LINE
8
BLACK
6
CONTINUOUS
10
116.384
20
-87.8412
11
117.333
21
-86.0251
0
LINE
8
BLACK
6
CONTINUOUS
10
117.333
20
-86.0251
11
117.333
21
-85.8537
0
LINE
8
BLACK
6
CONTINUOUS
10
117.333
20
-85.8537
11
116.431
21
-85.8537
0
LINE
8
BLACK
6
CONTINUOUS
10
116.431
20
-85.8537
11
116.431
21
-86.2188
0
LINE
8
BLACK
6
CONTINUOUS
10
116.431
20
-86.2188
11
116.399
21
-86.2744
0
LINE
8
BLACK
6
CONTINUOUS
10
116.399
20
-86.2744
11
116.326
21
-86.2982
0
LINE
8
BLACK
6
CONTINUOUS
10
116.326
20
-86.2982
11
116.253
21
-86.2744
0
LINE
8
BLACK
6
CONTINUOUS
10
116.253
20
-86.2744
11
116.222
21
-86.2188
0
LINE
8
BLACK
6
CONTINUOUS
10
116.222
20
-86.2188
11
116.222
21
-85.7394
0
LINE
8
BLACK
6
CONTINUOUS
10
116.222
20
-85.7394
11
116.252
21
-85.6854
0
LINE
8
BLACK
6
CONTINUOUS
10
116.252
20
-85.6854
11
116.317
21
-85.66
0
LINE
8
BLACK
6
CONTINUOUS
10
116.317
20
-85.66
11
117.444
21
-85.66
0
LINE
8
BLACK
6
CONTINUOUS
10
117.444
20
-85.66
11
117.511
21
-85.6854
0
LINE
8
BLACK
6
CONTINUOUS
10
112.786
20
-85.6775
11
112.815
21
-85.7362
0
LINE
8
BLACK
6
CONTINUOUS
10
112.815
20
-85.7362
11
112.815
21
-87.8984
0
LINE
8
BLACK
6
CONTINUOUS
10
112.815
20
-87.8984
11
112.782
21
-87.9603
0
LINE
8
BLACK
6
CONTINUOUS
10
112.782
20
-87.9603
11
112.729
21
-87.9809
0
LINE
8
BLACK
6
CONTINUOUS
10
112.729
20
-87.9809
11
112.69
21
-87.9809
0
LINE
8
BLACK
6
CONTINUOUS
10
112.69
20
-87.9809
11
112.637
21
-87.9603
0
LINE
8
BLACK
6
CONTINUOUS
10
112.637
20
-87.9603
11
112.605
21
-87.8984
0
LINE
8
BLACK
6
CONTINUOUS
10
112.605
20
-87.8984
11
112.605
21
-86.0156
0
LINE
8
BLACK
6
CONTINUOUS
10
112.605
20
-86.0156
11
112.478
21
-86.222
0
LINE
8
BLACK
6
CONTINUOUS
10
112.478
20
-86.222
11
112.45
21
-86.2506
0
LINE
8
BLACK
6
CONTINUOUS
10
112.45
20
-86.2506
11
112.418
21
-86.2601
0
LINE
8
BLACK
6
CONTINUOUS
10
112.418
20
-86.2601
11
112.359
21
-86.2315
0
LINE
8
BLACK
6
CONTINUOUS
10
112.359
20
-86.2315
11
112.335
21
-86.168
0
LINE
8
BLACK
6
CONTINUOUS
10
112.335
20
-86.168
11
112.351
21
-86.1156
0
LINE
8
BLACK
6
CONTINUOUS
10
112.351
20
-86.1156
11
112.383
21
-86.0728
0
LINE
8
BLACK
6
CONTINUOUS
10
112.383
20
-86.0728
11
112.643
21
-85.7045
0
LINE
8
BLACK
6
CONTINUOUS
10
112.643
20
-85.7045
11
112.675
21
-85.6711
0
LINE
8
BLACK
6
CONTINUOUS
10
112.675
20
-85.6711
11
112.723
21
-85.6568
0
LINE
8
BLACK
6
CONTINUOUS
10
112.723
20
-85.6568
11
112.786
21
-85.6775
0
LINE
8
BLACK
6
CONTINUOUS
10
110.219
20
-85.6806
11
110.284
21
-85.66
0
LINE
8
BLACK
6
CONTINUOUS
10
110.284
20
-85.66
11
110.805
21
-85.66
0
LINE
8
BLACK
6
CONTINUOUS
10
110.805
20
-85.66
11
110.975
21
-85.6703
0
LINE
8
BLACK
6
CONTINUOUS
10
110.975
20
-85.6703
11
111.131
21
-85.7013
0
LINE
8
BLACK
6
CONTINUOUS
10
111.131
20
-85.7013
11
111.263
21
-85.7612
0
LINE
8
BLACK
6
CONTINUOUS
10
111.263
20
-85.7612
11
111.366
21
-85.8584
0
LINE
8
BLACK
6
CONTINUOUS
10
111.366
20
-85.8584
11
111.431
21
-86.0017
0
LINE
8
BLACK
6
CONTINUOUS
10
111.431
20
-86.0017
11
111.453
21
-86.1998
0
LINE
8
BLACK
6
CONTINUOUS
10
111.453
20
-86.1998
11
111.434
21
-86.3835
0
LINE
8
BLACK
6
CONTINUOUS
10
111.434
20
-86.3835
11
111.378
21
-86.5347
0
LINE
8
BLACK
6
CONTINUOUS
10
111.378
20
-86.5347
11
111.292
21
-86.6494
0
LINE
8
BLACK
6
CONTINUOUS
10
111.292
20
-86.6494
11
111.183
21
-86.7236
0
LINE
8
BLACK
6
CONTINUOUS
10
111.183
20
-86.7236
11
111.354
21
-86.8284
0
LINE
8
BLACK
6
CONTINUOUS
10
111.354
20
-86.8284
11
111.469
21
-86.9999
0
LINE
8
BLACK
6
CONTINUOUS
10
111.469
20
-86.9999
11
111.5
21
-87.1197
0
LINE
8
BLACK
6
CONTINUOUS
10
111.5
20
-87.1197
11
111.51
21
-87.2697
0
LINE
8
BLACK
6
CONTINUOUS
10
111.51
20
-87.2697
11
111.51
21
-87.3269
0
LINE
8
BLACK
6
CONTINUOUS
10
111.51
20
-87.3269
11
111.489
21
-87.5436
0
LINE
8
BLACK
6
CONTINUOUS
10
111.489
20
-87.5436
11
111.427
21
-87.7111
0
LINE
8
BLACK
6
CONTINUOUS
10
111.427
20
-87.7111
11
111.33
21
-87.8341
0
LINE
8
BLACK
6
CONTINUOUS
10
111.33
20
-87.8341
11
111.202
21
-87.9174
0
LINE
8
BLACK
6
CONTINUOUS
10
111.202
20
-87.9174
11
111.051
21
-87.9651
0
LINE
8
BLACK
6
CONTINUOUS
10
111.051
20
-87.9651
11
110.885
21
-87.9809
0
LINE
8
BLACK
6
CONTINUOUS
10
110.885
20
-87.9809
11
110.264
21
-87.9809
0
LINE
8
BLACK
6
CONTINUOUS
10
110.264
20
-87.9809
11
110.216
21
-87.9571
0
LINE
8
BLACK
6
CONTINUOUS
10
110.216
20
-87.9571
11
110.189
21
-87.9016
0
LINE
8
BLACK
6
CONTINUOUS
10
110.189
20
-87.9016
11
110.189
21
-85.7394
0
LINE
8
BLACK
6
CONTINUOUS
10
110.189
20
-85.7394
11
110.219
21
-85.6806
0
LINE
8
BLACK
6
CONTINUOUS
10
110.399
20
-86.8125
11
110.399
21
-87.7873
0
LINE
8
BLACK
6
CONTINUOUS
10
110.399
20
-87.7873
11
110.856
21
-87.7873
0
LINE
8
BLACK
6
CONTINUOUS
10
110.856
20
-87.7873
11
111.042
21
-87.7591
0
LINE
8
BLACK
6
CONTINUOUS
10
111.042
20
-87.7591
11
111.183
21
-87.6745
0
LINE
8
BLACK
6
CONTINUOUS
10
111.183
20
-87.6745
11
111.271
21
-87.5289
0
LINE
8
BLACK
6
CONTINUOUS
10
111.271
20
-87.5289
11
111.3
21
-87.3174
0
LINE
8
BLACK
6
CONTINUOUS
10
111.3
20
-87.3174
11
111.3
21
-87.2634
0
LINE
8
BLACK
6
CONTINUOUS
10
111.3
20
-87.2634
11
111.271
21
-87.0523
0
LINE
8
BLACK
6
CONTINUOUS
10
111.271
20
-87.0523
11
111.183
21
-86.9141
0
LINE
8
BLACK
6
CONTINUOUS
10
111.183
20
-86.9141
11
111.042
21
-86.8379
0
LINE
8
BLACK
6
CONTINUOUS
10
111.042
20
-86.8379
11
110.856
21
-86.8125
0
LINE
8
BLACK
6
CONTINUOUS
10
110.856
20
-86.8125
11
110.399
21
-86.8125
0
LINE
8
BLACK
6
CONTINUOUS
10
110.399
20
-85.8537
11
110.399
21
-86.6316
0
LINE
8
BLACK
6
CONTINUOUS
10
110.399
20
-86.6316
11
110.811
21
-86.6316
0
LINE
8
BLACK
6
CONTINUOUS
10
110.811
20
-86.6316
11
111.004
21
-86.6085
0
LINE
8
BLACK
6
CONTINUOUS
10
111.004
20
-86.6085
11
111.139
21
-86.5395
0
LINE
8
BLACK
6
CONTINUOUS
10
111.139
20
-86.5395
11
111.217
21
-86.4141
0
LINE
8
BLACK
6
CONTINUOUS
10
111.217
20
-86.4141
11
111.243
21
-86.222
0
LINE
8
BLACK
6
CONTINUOUS
10
111.243
20
-86.222
11
111.186
21
-85.9934
0
LINE
8
BLACK
6
CONTINUOUS
10
111.186
20
-85.9934
11
111.031
21
-85.8838
0
LINE
8
BLACK
6
CONTINUOUS
10
111.031
20
-85.8838
11
110.799
21
-85.8537
0
LINE
8
BLACK
6
CONTINUOUS
10
110.799
20
-85.8537
11
110.399
21
-85.8537
0
LINE
8
BLACK
6
CONTINUOUS
10
92.3334
20
-78.8238
11
92.3348
21
-78.8241
0
LINE
8
BLACK
6
CONTINUOUS
10
92.3348
20
-78.8241
11
92.3351
21
-78.8245
0
LINE
8
BLACK
6
CONTINUOUS
10
92.3351
20
-78.8245
11
92.3355
21
-78.8247
0
LINE
8
BLACK
6
CONTINUOUS
10
92.3355
20
-78.8247
11
92.3361
21
-78.826
0
LINE
8
BLACK
6
CONTINUOUS
10
92.3361
20
-78.826
11
92.3369
21
-78.8273
0
LINE
8
BLACK
6
CONTINUOUS
10
92.3369
20
-78.8273
11
92.4207
21
-79.2719
0
LINE
8
BLACK
6
CONTINUOUS
10
92.4207
20
-79.2719
11
92.504
21
-79.7139
0
LINE
8
BLACK
6
CONTINUOUS
10
92.504
20
-79.7139
11
92.8108
21
-79.8403
0
LINE
8
BLACK
6
CONTINUOUS
10
92.8108
20
-79.8403
11
93.1176
21
-79.9668
0
LINE
8
BLACK
6
CONTINUOUS
10
93.1176
20
-79.9668
11
93.4864
21
-79.716
0
LINE
8
BLACK
6
CONTINUOUS
10
93.4864
20
-79.716
11
93.4864
21
-79.716
0
LINE
8
BLACK
6
CONTINUOUS
10
93.4864
20
-79.716
11
93.4864
21
-79.716
0
LINE
8
BLACK
6
CONTINUOUS
10
93.4864
20
-79.716
11
93.5904
21
-79.6458
0
LINE
8
BLACK
6
CONTINUOUS
10
93.5904
20
-79.6458
11
93.5904
21
-79.6458
0
LINE
8
BLACK
6
CONTINUOUS
10
93.5904
20
-79.6458
11
93.5904
21
-79.6457
0
LINE
8
BLACK
6
CONTINUOUS
10
93.5904
20
-79.6457
11
93.6843
21
-79.583
0
LINE
8
BLACK
6
CONTINUOUS
10
93.6843
20
-79.583
11
93.6843
21
-79.583
0
LINE
8
BLACK
6
CONTINUOUS
10
93.6843
20
-79.583
11
93.6843
21
-79.583
0
LINE
8
BLACK
6
CONTINUOUS
10
93.6843
20
-79.583
11
93.7639
21
-79.5307
0
LINE
8
BLACK
6
CONTINUOUS
10
93.7639
20
-79.5307
11
93.7639
21
-79.5307
0
LINE
8
BLACK
6
CONTINUOUS
10
93.7639
20
-79.5307
11
93.7639
21
-79.5306
0
LINE
8
BLACK
6
CONTINUOUS
10
93.7639
20
-79.5306
11
93.8248
21
-79.4916
0
LINE
8
BLACK
6
CONTINUOUS
10
93.8248
20
-79.4916
11
93.8248
21
-79.4915
0
LINE
8
BLACK
6
CONTINUOUS
10
93.8248
20
-79.4915
11
93.8249
21
-79.4915
0
LINE
8
BLACK
6
CONTINUOUS
10
93.8249
20
-79.4915
11
93.8626
21
-79.4685
0
LINE
8
BLACK
6
CONTINUOUS
10
93.8626
20
-79.4685
11
93.8628
21
-79.4685
0
LINE
8
BLACK
6
CONTINUOUS
10
93.8628
20
-79.4685
11
93.863
21
-79.4683
0
LINE
8
BLACK
6
CONTINUOUS
10
93.863
20
-79.4683
11
93.8732
21
-79.4633
0
LINE
8
BLACK
6
CONTINUOUS
10
93.8732
20
-79.4633
11
93.8739
21
-79.4633
0
LINE
8
BLACK
6
CONTINUOUS
10
93.8739
20
-79.4633
11
93.8745
21
-79.4629
0
LINE
8
BLACK
6
CONTINUOUS
10
93.8745
20
-79.4629
11
93.8758
21
-79.4632
0
LINE
8
BLACK
6
CONTINUOUS
10
93.8758
20
-79.4632
11
93.8771
21
-79.4631
0
LINE
8
BLACK
6
CONTINUOUS
10
93.8771
20
-79.4631
11
93.8776
21
-79.4636
0
LINE
8
BLACK
6
CONTINUOUS
10
93.8776
20
-79.4636
11
93.8783
21
-79.4637
0
LINE
8
BLACK
6
CONTINUOUS
10
93.8783
20
-79.4637
11
93.8967
21
-79.4765
0
LINE
8
BLACK
6
CONTINUOUS
10
93.8967
20
-79.4765
11
93.8969
21
-79.4767
0
LINE
8
BLACK
6
CONTINUOUS
10
93.8969
20
-79.4767
11
93.8972
21
-79.4768
0
LINE
8
BLACK
6
CONTINUOUS
10
93.8972
20
-79.4768
11
93.9367
21
-79.5121
0
LINE
8
BLACK
6
CONTINUOUS
10
93.9367
20
-79.5121
11
93.9368
21
-79.5121
0
LINE
8
BLACK
6
CONTINUOUS
10
93.9368
20
-79.5121
11
93.9369
21
-79.5122
0
LINE
8
BLACK
6
CONTINUOUS
10
93.9369
20
-79.5122
11
93.993
21
-79.5653
0
LINE
8
BLACK
6
CONTINUOUS
10
93.993
20
-79.5653
11
93.993
21
-79.5654
0
LINE
8
BLACK
6
CONTINUOUS
10
93.993
20
-79.5654
11
93.993
21
-79.5654
0
LINE
8
BLACK
6
CONTINUOUS
10
93.993
20
-79.5654
11
94.0613
21
-79.632
0
LINE
8
BLACK
6
CONTINUOUS
10
94.0613
20
-79.632
11
94.0613
21
-79.6321
0
LINE
8
BLACK
6
CONTINUOUS
10
94.0613
20
-79.6321
11
94.0613
21
-79.6321
0
LINE
8
BLACK
6
CONTINUOUS
10
94.0613
20
-79.6321
11
94.1373
21
-79.7077
0
LINE
8
BLACK
6
CONTINUOUS
10
94.1373
20
-79.7077
11
94.1373
21
-79.7077
0
LINE
8
BLACK
6
CONTINUOUS
10
94.1373
20
-79.7077
11
94.1373
21
-79.7077
0
LINE
8
BLACK
6
CONTINUOUS
10
94.1373
20
-79.7077
11
94.2166
21
-79.7879
0
LINE
8
BLACK
6
CONTINUOUS
10
94.2166
20
-79.7879
11
94.2167
21
-79.7879
0
LINE
8
BLACK
6
CONTINUOUS
10
94.2167
20
-79.7879
11
94.2167
21
-79.7879
0
LINE
8
BLACK
6
CONTINUOUS
10
94.2167
20
-79.7879
11
94.2949
21
-79.868
0
LINE
8
BLACK
6
CONTINUOUS
10
94.2949
20
-79.868
11
94.2949
21
-79.868
0
LINE
8
BLACK
6
CONTINUOUS
10
94.2949
20
-79.868
11
94.2949
21
-79.868
0
LINE
8
BLACK
6
CONTINUOUS
10
94.2949
20
-79.868
11
94.3675
21
-79.9436
0
LINE
8
BLACK
6
CONTINUOUS
10
94.3675
20
-79.9436
11
94.3675
21
-79.9436
0
LINE
8
BLACK
6
CONTINUOUS
10
94.3675
20
-79.9436
11
94.3675
21
-79.9436
0
LINE
8
BLACK
6
CONTINUOUS
10
94.3675
20
-79.9436
11
94.4302
21
-80.0102
0
LINE
8
BLACK
6
CONTINUOUS
10
94.4302
20
-80.0102
11
94.4302
21
-80.0103
0
LINE
8
BLACK
6
CONTINUOUS
10
94.4302
20
-80.0103
11
94.4303
21
-80.0103
0
LINE
8
BLACK
6
CONTINUOUS
10
94.4303
20
-80.0103
11
94.4785
21
-80.0634
0
LINE
8
BLACK
6
CONTINUOUS
10
94.4785
20
-80.0634
11
94.4785
21
-80.0635
0
LINE
8
BLACK
6
CONTINUOUS
10
94.4785
20
-80.0635
11
94.4786
21
-80.0635
0
LINE
8
BLACK
6
CONTINUOUS
10
94.4786
20
-80.0635
11
94.508
21
-80.0986
0
LINE
8
BLACK
6
CONTINUOUS
10
94.508
20
-80.0986
11
94.5082
21
-80.099
0
LINE
8
BLACK
6
CONTINUOUS
10
94.5082
20
-80.099
11
94.5085
21
-80.0992
0
LINE
8
BLACK
6
CONTINUOUS
10
94.5085
20
-80.0992
11
94.5155
21
-80.111
0
LINE
8
BLACK
6
CONTINUOUS
10
94.5155
20
-80.111
11
94.5156
21
-80.1115
0
LINE
8
BLACK
6
CONTINUOUS
10
94.5156
20
-80.1115
11
94.5159
21
-80.1118
0
LINE
8
BLACK
6
CONTINUOUS
10
94.5159
20
-80.1118
11
94.5159
21
-80.1133
0
LINE
8
BLACK
6
CONTINUOUS
10
94.5159
20
-80.1133
11
94.5161
21
-80.1147
0
LINE
8
BLACK
6
CONTINUOUS
10
94.5161
20
-80.1147
11
94.5158
21
-80.1151
0
LINE
8
BLACK
6
CONTINUOUS
10
94.5158
20
-80.1151
11
94.5158
21
-80.1156
0
LINE
8
BLACK
6
CONTINUOUS
10
94.5158
20
-80.1156
11
94.5057
21
-80.1373
0
LINE
8
BLACK
6
CONTINUOUS
10
94.5057
20
-80.1373
11
94.5055
21
-80.1375
0
LINE
8
BLACK
6
CONTINUOUS
10
94.5055
20
-80.1375
11
94.5054
21
-80.1377
0
LINE
8
BLACK
6
CONTINUOUS
10
94.5054
20
-80.1377
11
94.477
21
-80.1851
0
LINE
8
BLACK
6
CONTINUOUS
10
94.477
20
-80.1851
11
94.477
21
-80.1852
0
LINE
8
BLACK
6
CONTINUOUS
10
94.477
20
-80.1852
11
94.477
21
-80.1853
0
LINE
8
BLACK
6
CONTINUOUS
10
94.477
20
-80.1853
11
94.4333
21
-80.2538
0
LINE
8
BLACK
6
CONTINUOUS
10
94.4333
20
-80.2538
11
94.4333
21
-80.2538
0
LINE
8
BLACK
6
CONTINUOUS
10
94.4333
20
-80.2538
11
94.4333
21
-80.2538
0
LINE
8
BLACK
6
CONTINUOUS
10
94.4333
20
-80.2538
11
94.3774
21
-80.3389
0
LINE
8
BLACK
6
CONTINUOUS
10
94.3774
20
-80.3389
11
94.3774
21
-80.3389
0
LINE
8
BLACK
6
CONTINUOUS
10
94.3774
20
-80.3389
11
94.3774
21
-80.3389
0
LINE
8
BLACK
6
CONTINUOUS
10
94.3774
20
-80.3389
11
94.3122
21
-80.4358
0
LINE
8
BLACK
6
CONTINUOUS
10
94.3122
20
-80.4358
11
94.3121
21
-80.4358
0
LINE
8
BLACK
6
CONTINUOUS
10
94.3121
20
-80.4358
11
94.3121
21
-80.4358
0
LINE
8
BLACK
6
CONTINUOUS
10
94.3121
20
-80.4358
11
94.2743
21
-80.4911
0
LINE
8
BLACK
6
CONTINUOUS
10
94.2743
20
-80.4911
11
94.2743
21
-80.4911
0
LINE
8
BLACK
6
CONTINUOUS
10
94.2743
20
-80.4911
11
94.2055
21
-80.5919
0
LINE
8
BLACK
6
CONTINUOUS
10
94.2055
20
-80.5919
11
94.1443
21
-80.683
0
LINE
8
BLACK
6
CONTINUOUS
10
94.1443
20
-80.683
11
94.0938
21
-80.7596
0
LINE
8
BLACK
6
CONTINUOUS
10
94.0938
20
-80.7596
11
94.0569
21
-80.8172
0
LINE
8
BLACK
6
CONTINUOUS
10
94.0569
20
-80.8172
11
94.0367
21
-80.8512
0
LINE
8
BLACK
6
CONTINUOUS
10
94.0367
20
-80.8512
11
94.0345
21
-80.8564
0
LINE
8
BLACK
6
CONTINUOUS
10
94.0345
20
-80.8564
11
94.0408
21
-80.8749
0
LINE
8
BLACK
6
CONTINUOUS
10
94.0408
20
-80.8749
11
94.0597
21
-80.9225
0
LINE
8
BLACK
6
CONTINUOUS
10
94.0597
20
-80.9225
11
94.0877
21
-80.9908
0
LINE
8
BLACK
6
CONTINUOUS
10
94.0877
20
-80.9908
11
94.122
21
-81.0729
0
LINE
8
BLACK
6
CONTINUOUS
10
94.122
20
-81.0729
11
94.1597
21
-81.1622
0
LINE
8
BLACK
6
CONTINUOUS
10
94.1597
20
-81.1622
11
94.198
21
-81.2519
0
LINE
8
BLACK
6
CONTINUOUS
10
94.198
20
-81.2519
11
94.234
21
-81.3353
0
LINE
8
BLACK
6
CONTINUOUS
10
94.234
20
-81.3353
11
94.234
21
-81.3353
0
LINE
8
BLACK
6
CONTINUOUS
10
94.234
20
-81.3353
11
94.2648
21
-81.4056
0
LINE
8
BLACK
6
CONTINUOUS
10
94.2648
20
-81.4056
11
94.2876
21
-81.4561
0
LINE
8
BLACK
6
CONTINUOUS
10
94.2876
20
-81.4561
11
94.2989
21
-81.479
0
LINE
8
BLACK
6
CONTINUOUS
10
94.2989
20
-81.479
11
94.3156
21
-81.4831
0
LINE
8
BLACK
6
CONTINUOUS
10
94.3156
20
-81.4831
11
94.3656
21
-81.4933
0
LINE
8
BLACK
6
CONTINUOUS
10
94.3656
20
-81.4933
11
94.3656
21
-81.4933
0
LINE
8
BLACK
6
CONTINUOUS
10
94.3656
20
-81.4933
11
94.4417
21
-81.5083
0
LINE
8
BLACK
6
CONTINUOUS
10
94.4417
20
-81.5083
11
94.4417
21
-81.5083
0
LINE
8
BLACK
6
CONTINUOUS
10
94.4417
20
-81.5083
11
94.5388
21
-81.5269
0
LINE
8
BLACK
6
CONTINUOUS
10
94.5388
20
-81.5269
11
94.6516
21
-81.5481
0
LINE
8
BLACK
6
CONTINUOUS
10
94.6516
20
-81.5481
11
94.7174
21
-81.5604
0
LINE
8
BLACK
6
CONTINUOUS
10
94.7174
20
-81.5604
11
94.7174
21
-81.5604
0
LINE
8
BLACK
6
CONTINUOUS
10
94.7174
20
-81.5604
11
94.7174
21
-81.5604
0
LINE
8
BLACK
6
CONTINUOUS
10
94.7174
20
-81.5604
11
94.8379
21
-81.5834
0
LINE
8
BLACK
6
CONTINUOUS
10
94.8379
20
-81.5834
11
94.8379
21
-81.5834
0
LINE
8
BLACK
6
CONTINUOUS
10
94.8379
20
-81.5834
11
94.8379
21
-81.5834
0
LINE
8
BLACK
6
CONTINUOUS
10
94.8379
20
-81.5834
11
94.9468
21
-81.6052
0
LINE
8
BLACK
6
CONTINUOUS
10
94.9468
20
-81.6052
11
94.9468
21
-81.6052
0
LINE
8
BLACK
6
CONTINUOUS
10
94.9468
20
-81.6052
11
94.9468
21
-81.6052
0
LINE
8
BLACK
6
CONTINUOUS
10
94.9468
20
-81.6052
11
95.0385
21
-81.6247
0
LINE
8
BLACK
6
CONTINUOUS
10
95.0385
20
-81.6247
11
95.0386
21
-81.6248
0
LINE
8
BLACK
6
CONTINUOUS
10
95.0386
20
-81.6248
11
95.0386
21
-81.6248
0
LINE
8
BLACK
6
CONTINUOUS
10
95.0386
20
-81.6248
11
95.1076
21
-81.6408
0
LINE
8
BLACK
6
CONTINUOUS
10
95.1076
20
-81.6408
11
95.1077
21
-81.6408
0
LINE
8
BLACK
6
CONTINUOUS
10
95.1077
20
-81.6408
11
95.1078
21
-81.6408
0
LINE
8
BLACK
6
CONTINUOUS
10
95.1078
20
-81.6408
11
95.1486
21
-81.6522
0
LINE
8
BLACK
6
CONTINUOUS
10
95.1486
20
-81.6522
11
95.1489
21
-81.6524
0
LINE
8
BLACK
6
CONTINUOUS
10
95.1489
20
-81.6524
11
95.1493
21
-81.6524
0
LINE
8
BLACK
6
CONTINUOUS
10
95.1493
20
-81.6524
11
95.1575
21
-81.656
0
LINE
8
BLACK
6
CONTINUOUS
10
95.1575
20
-81.656
11
95.1576
21
-81.6561
0
LINE
8
BLACK
6
CONTINUOUS
10
95.1576
20
-81.6561
11
95.1578
21
-81.6561
0
LINE
8
BLACK
6
CONTINUOUS
10
95.1578
20
-81.6561
11
95.1589
21
-81.6575
0
LINE
8
BLACK
6
CONTINUOUS
10
95.1589
20
-81.6575
11
95.1602
21
-81.6588
0
LINE
8
BLACK
6
CONTINUOUS
10
95.1602
20
-81.6588
11
95.1602
21
-81.6589
0
LINE
8
BLACK
6
CONTINUOUS
10
95.1602
20
-81.6589
11
95.1603
21
-81.659
0
LINE
8
BLACK
6
CONTINUOUS
10
95.1603
20
-81.659
11
95.1683
21
-81.6833
0
LINE
8
BLACK
6
CONTINUOUS
10
95.1683
20
-81.6833
11
95.1683
21
-81.6839
0
LINE
8
BLACK
6
CONTINUOUS
10
95.1683
20
-81.6839
11
95.1685
21
-81.6843
0
LINE
8
BLACK
6
CONTINUOUS
10
95.1685
20
-81.6843
11
95.175
21
-81.7393
0
LINE
8
BLACK
6
CONTINUOUS
10
95.175
20
-81.7393
11
95.175
21
-81.7394
0
LINE
8
BLACK
6
CONTINUOUS
10
95.175
20
-81.7394
11
95.175
21
-81.7396
0
LINE
8
BLACK
6
CONTINUOUS
10
95.175
20
-81.7396
11
95.18
21
-81.8187
0
LINE
8
BLACK
6
CONTINUOUS
10
95.18
20
-81.8187
11
95.1799
21
-81.8188
0
LINE
8
BLACK
6
CONTINUOUS
10
95.1799
20
-81.8188
11
95.18
21
-81.8188
0
LINE
8
BLACK
6
CONTINUOUS
10
95.18
20
-81.8188
11
95.1834
21
-81.9158
0
LINE
8
BLACK
6
CONTINUOUS
10
95.1834
20
-81.9158
11
95.1833
21
-81.9158
0
LINE
8
BLACK
6
CONTINUOUS
10
95.1833
20
-81.9158
11
95.1834
21
-81.9158
0
LINE
8
BLACK
6
CONTINUOUS
10
95.1834
20
-81.9158
11
95.1852
21
-82.0241
0
LINE
8
BLACK
6
CONTINUOUS
10
95.1852
20
-82.0241
11
95.1852
21
-82.0241
0
LINE
8
BLACK
6
CONTINUOUS
10
95.1852
20
-82.0241
11
95.1852
21
-82.0242
0
LINE
8
BLACK
6
CONTINUOUS
10
95.1852
20
-82.0242
11
95.1855
21
-82.1374
0
LINE
8
BLACK
6
CONTINUOUS
10
95.1855
20
-82.1374
11
95.1855
21
-82.1374
0
LINE
8
BLACK
6
CONTINUOUS
10
95.1855
20
-82.1374
11
95.1855
21
-82.1374
0
LINE
8
BLACK
6
CONTINUOUS
10
95.1855
20
-82.1374
11
95.1843
21
-82.2491
0
LINE
8
BLACK
6
CONTINUOUS
10
95.1843
20
-82.2491
11
95.1843
21
-82.2491
0
LINE
8
BLACK
6
CONTINUOUS
10
95.1843
20
-82.2491
11
95.1843
21
-82.2492
0
LINE
8
BLACK
6
CONTINUOUS
10
95.1843
20
-82.2492
11
95.1816
21
-82.3529
0
LINE
8
BLACK
6
CONTINUOUS
10
95.1816
20
-82.3529
11
95.1816
21
-82.353
0
LINE
8
BLACK
6
CONTINUOUS
10
95.1816
20
-82.353
11
95.1816
21
-82.353
0
LINE
8
BLACK
6
CONTINUOUS
10
95.1816
20
-82.353
11
95.1773
21
-82.4424
0
LINE
8
BLACK
6
CONTINUOUS
10
95.1773
20
-82.4424
11
95.1773
21
-82.4425
0
LINE
8
BLACK
6
CONTINUOUS
10
95.1773
20
-82.4425
11
95.1773
21
-82.4426
0
LINE
8
BLACK
6
CONTINUOUS
10
95.1773
20
-82.4426
11
95.1715
21
-82.5112
0
LINE
8
BLACK
6
CONTINUOUS
10
95.1715
20
-82.5112
11
95.1714
21
-82.5114
0
LINE
8
BLACK
6
CONTINUOUS
10
95.1714
20
-82.5114
11
95.1715
21
-82.5116
0
LINE
8
BLACK
6
CONTINUOUS
10
95.1715
20
-82.5116
11
95.1642
21
-82.553
0
LINE
8
BLACK
6
CONTINUOUS
10
95.1642
20
-82.553
11
95.1638
21
-82.5536
0
LINE
8
BLACK
6
CONTINUOUS
10
95.1638
20
-82.5536
11
95.1637
21
-82.5544
0
LINE
8
BLACK
6
CONTINUOUS
10
95.1637
20
-82.5544
11
95.1594
21
-82.563
0
LINE
8
BLACK
6
CONTINUOUS
10
95.1594
20
-82.563
11
95.158
21
-82.5641
0
LINE
8
BLACK
6
CONTINUOUS
10
95.158
20
-82.5641
11
95.1567
21
-82.5654
0
LINE
8
BLACK
6
CONTINUOUS
10
95.1567
20
-82.5654
11
95.1306
21
-82.5757
0
LINE
8
BLACK
6
CONTINUOUS
10
95.1306
20
-82.5757
11
95.1303
21
-82.5757
0
LINE
8
BLACK
6
CONTINUOUS
10
95.1303
20
-82.5757
11
95.1301
21
-82.5759
0
LINE
8
BLACK
6
CONTINUOUS
10
95.1301
20
-82.5759
11
95.0747
21
-82.5906
0
LINE
8
BLACK
6
CONTINUOUS
10
95.0747
20
-82.5906
11
95.0746
21
-82.5906
0
LINE
8
BLACK
6
CONTINUOUS
10
95.0746
20
-82.5906
11
95.0745
21
-82.5907
0
LINE
8
BLACK
6
CONTINUOUS
10
95.0745
20
-82.5907
11
94.9972
21
-82.6081
0
LINE
8
BLACK
6
CONTINUOUS
10
94.9972
20
-82.6081
11
94.9971
21
-82.6081
0
LINE
8
BLACK
6
CONTINUOUS
10
94.9971
20
-82.6081
11
94.9971
21
-82.6082
0
LINE
8
BLACK
6
CONTINUOUS
10
94.9971
20
-82.6082
11
94.9052
21
-82.6266
0
LINE
8
BLACK
6
CONTINUOUS
10
94.9052
20
-82.6266
11
94.9052
21
-82.6266
0
LINE
8
BLACK
6
CONTINUOUS
10
94.9052
20
-82.6266
11
94.9051
21
-82.6266
0
LINE
8
BLACK
6
CONTINUOUS
10
94.9051
20
-82.6266
11
94.8731
21
-82.6326
0
LINE
8
BLACK
6
CONTINUOUS
10
94.8731
20
-82.6326
11
94.8731
21
-82.6326
0
LINE
8
BLACK
6
CONTINUOUS
10
94.8731
20
-82.6326
11
94.8731
21
-82.6326
0
LINE
8
BLACK
6
CONTINUOUS
10
94.8731
20
-82.6326
11
94.7184
21
-82.6609
0
LINE
8
BLACK
6
CONTINUOUS
10
94.7184
20
-82.6609
11
94.5963
21
-82.6837
0
LINE
8
BLACK
6
CONTINUOUS
10
94.5963
20
-82.6837
11
94.5027
21
-82.7019
0
LINE
8
BLACK
6
CONTINUOUS
10
94.5027
20
-82.7019
11
94.4335
21
-82.7164
0
LINE
8
BLACK
6
CONTINUOUS
10
94.4335
20
-82.7164
11
94.3848
21
-82.728
0
LINE
8
BLACK
6
CONTINUOUS
10
94.3848
20
-82.728
11
94.3526
21
-82.7377
0
LINE
8
BLACK
6
CONTINUOUS
10
94.3526
20
-82.7377
11
94.3331
21
-82.7462
0
LINE
8
BLACK
6
CONTINUOUS
10
94.3331
20
-82.7462
11
94.3219
21
-82.7544
0
LINE
8
BLACK
6
CONTINUOUS
10
94.3219
20
-82.7544
11
94.3209
21
-82.7554
0
LINE
8
BLACK
6
CONTINUOUS
10
94.3209
20
-82.7554
11
94.3046
21
-82.7826
0
LINE
8
BLACK
6
CONTINUOUS
10
94.3046
20
-82.7826
11
94.2792
21
-82.8366
0
LINE
8
BLACK
6
CONTINUOUS
10
94.2792
20
-82.8366
11
94.2474
21
-82.9106
0
LINE
8
BLACK
6
CONTINUOUS
10
94.2474
20
-82.9106
11
94.2119
21
-82.9977
0
LINE
8
BLACK
6
CONTINUOUS
10
94.2119
20
-82.9977
11
94.1753
21
-83.0913
0
LINE
8
BLACK
6
CONTINUOUS
10
94.1753
20
-83.0913
11
94.14
21
-83.1847
0
LINE
8
BLACK
6
CONTINUOUS
10
94.14
20
-83.1847
11
94.1087
21
-83.2712
0
LINE
8
BLACK
6
CONTINUOUS
10
94.1087
20
-83.2712
11
94.084
21
-83.3442
0
LINE
8
BLACK
6
CONTINUOUS
10
94.084
20
-83.3442
11
94.0683
21
-83.3967
0
LINE
8
BLACK
6
CONTINUOUS
10
94.0683
20
-83.3967
11
94.0645
21
-83.4209
0
LINE
8
BLACK
6
CONTINUOUS
10
94.0645
20
-83.4209
11
94.0778
21
-83.4412
0
LINE
8
BLACK
6
CONTINUOUS
10
94.0778
20
-83.4412
11
94.0778
21
-83.4412
0
LINE
8
BLACK
6
CONTINUOUS
10
94.0778
20
-83.4412
11
94.1095
21
-83.4882
0
LINE
8
BLACK
6
CONTINUOUS
10
94.1095
20
-83.4882
11
94.1095
21
-83.4882
0
LINE
8
BLACK
6
CONTINUOUS
10
94.1095
20
-83.4882
11
94.1555
21
-83.5559
0
LINE
8
BLACK
6
CONTINUOUS
10
94.1555
20
-83.5559
11
94.2126
21
-83.6395
0
LINE
8
BLACK
6
CONTINUOUS
10
94.2126
20
-83.6395
11
94.2775
21
-83.7341
0
LINE
8
BLACK
6
CONTINUOUS
10
94.2775
20
-83.7341
11
94.2775
21
-83.7341
0
LINE
8
BLACK
6
CONTINUOUS
10
94.2775
20
-83.7341
11
94.296
21
-83.7609
0
LINE
8
BLACK
6
CONTINUOUS
10
94.296
20
-83.7609
11
94.296
21
-83.7609
0
LINE
8
BLACK
6
CONTINUOUS
10
94.296
20
-83.7609
11
94.296
21
-83.761
0
LINE
8
BLACK
6
CONTINUOUS
10
94.296
20
-83.761
11
94.3618
21
-83.8584
0
LINE
8
BLACK
6
CONTINUOUS
10
94.3618
20
-83.8584
11
94.3618
21
-83.8584
0
LINE
8
BLACK
6
CONTINUOUS
10
94.3618
20
-83.8584
11
94.3619
21
-83.8584
0
LINE
8
BLACK
6
CONTINUOUS
10
94.3619
20
-83.8584
11
94.4198
21
-83.9473
0
LINE
8
BLACK
6
CONTINUOUS
10
94.4198
20
-83.9473
11
94.4198
21
-83.9474
0
LINE
8
BLACK
6
CONTINUOUS
10
94.4198
20
-83.9474
11
94.4199
21
-83.9474
0
LINE
8
BLACK
6
CONTINUOUS
10
94.4199
20
-83.9474
11
94.4668
21
-84.0227
0
LINE
8
BLACK
6
CONTINUOUS
10
94.4668
20
-84.0227
11
94.4668
21
-84.0228
0
LINE
8
BLACK
6
CONTINUOUS
10
94.4668
20
-84.0228
11
94.4669
21
-84.0228
0
LINE
8
BLACK
6
CONTINUOUS
10
94.4669
20
-84.0228
11
94.4995
21
-84.0793
0
LINE
8
BLACK
6
CONTINUOUS
10
94.4995
20
-84.0793
11
94.4996
21
-84.0796
0
LINE
8
BLACK
6
CONTINUOUS
10
94.4996
20
-84.0796
11
94.4997
21
-84.0797
0
LINE
8
BLACK
6
CONTINUOUS
10
94.4997
20
-84.0797
11
94.515
21
-84.1124
0
LINE
8
BLACK
6
CONTINUOUS
10
94.515
20
-84.1124
11
94.5151
21
-84.113
0
LINE
8
BLACK
6
CONTINUOUS
10
94.5151
20
-84.113
11
94.5154
21
-84.1136
0
LINE
8
BLACK
6
CONTINUOUS
10
94.5154
20
-84.1136
11
94.5162
21
-84.1176
0
LINE
8
BLACK
6
CONTINUOUS
10
94.5162
20
-84.1176
11
94.5158
21
-84.1193
0
LINE
8
BLACK
6
CONTINUOUS
10
94.5158
20
-84.1193
11
94.5155
21
-84.1211
0
LINE
8
BLACK
6
CONTINUOUS
10
94.5155
20
-84.1211
11
94.5027
21
-84.1422
0
LINE
8
BLACK
6
CONTINUOUS
10
94.5027
20
-84.1422
11
94.5023
21
-84.1424
0
LINE
8
BLACK
6
CONTINUOUS
10
94.5023
20
-84.1424
11
94.5022
21
-84.1428
0
LINE
8
BLACK
6
CONTINUOUS
10
94.5022
20
-84.1428
11
94.4667
21
-84.1846
0
LINE
8
BLACK
6
CONTINUOUS
10
94.4667
20
-84.1846
11
94.4666
21
-84.1847
0
LINE
8
BLACK
6
CONTINUOUS
10
94.4666
20
-84.1847
11
94.4666
21
-84.1848
0
LINE
8
BLACK
6
CONTINUOUS
10
94.4666
20
-84.1848
11
94.413
21
-84.2427
0
LINE
8
BLACK
6
CONTINUOUS
10
94.413
20
-84.2427
11
94.4129
21
-84.2428
0
LINE
8
BLACK
6
CONTINUOUS
10
94.4129
20
-84.2428
11
94.4129
21
-84.2428
0
LINE
8
BLACK
6
CONTINUOUS
10
94.4129
20
-84.2428
11
94.3458
21
-84.3125
0
LINE
8
BLACK
6
CONTINUOUS
10
94.3458
20
-84.3125
11
94.3457
21
-84.3125
0
LINE
8
BLACK
6
CONTINUOUS
10
94.3457
20
-84.3125
11
94.3457
21
-84.3126
0
LINE
8
BLACK
6
CONTINUOUS
10
94.3457
20
-84.3126
11
94.2696
21
-84.3895
0
LINE
8
BLACK
6
CONTINUOUS
10
94.2696
20
-84.3895
11
94.2696
21
-84.3895
0
LINE
8
BLACK
6
CONTINUOUS
10
94.2696
20
-84.3895
11
94.2696
21
-84.3895
0
LINE
8
BLACK
6
CONTINUOUS
10
94.2696
20
-84.3895
11
94.1891
21
-84.4691
0
LINE
8
BLACK
6
CONTINUOUS
10
94.1891
20
-84.4691
11
94.1891
21
-84.4692
0
LINE
8
BLACK
6
CONTINUOUS
10
94.1891
20
-84.4692
11
94.1891
21
-84.4692
0
LINE
8
BLACK
6
CONTINUOUS
10
94.1891
20
-84.4692
11
94.1088
21
-84.5471
0
LINE
8
BLACK
6
CONTINUOUS
10
94.1088
20
-84.5471
11
94.1087
21
-84.5471
0
LINE
8
BLACK
6
CONTINUOUS
10
94.1087
20
-84.5471
11
94.1087
21
-84.5471
0
LINE
8
BLACK
6
CONTINUOUS
10
94.1087
20
-84.5471
11
94.0331
21
-84.6187
0
LINE
8
BLACK
6
CONTINUOUS
10
94.0331
20
-84.6187
11
94.0331
21
-84.6187
0
LINE
8
BLACK
6
CONTINUOUS
10
94.0331
20
-84.6187
11
94.0331
21
-84.6188
0
LINE
8
BLACK
6
CONTINUOUS
10
94.0331
20
-84.6188
11
93.9668
21
-84.6797
0
LINE
8
BLACK
6
CONTINUOUS
10
93.9668
20
-84.6797
11
93.9667
21
-84.6797
0
LINE
8
BLACK
6
CONTINUOUS
10
93.9667
20
-84.6797
11
93.9667
21
-84.6797
0
LINE
8
BLACK
6
CONTINUOUS
10
93.9667
20
-84.6797
11
93.9143
21
-84.7254
0
LINE
8
BLACK
6
CONTINUOUS
10
93.9143
20
-84.7254
11
93.9141
21
-84.7255
0
LINE
8
BLACK
6
CONTINUOUS
10
93.9141
20
-84.7255
11
93.914
21
-84.7256
0
LINE
8
BLACK
6
CONTINUOUS
10
93.914
20
-84.7256
11
93.88
21
-84.7515
0
LINE
8
BLACK
6
CONTINUOUS
10
93.88
20
-84.7515
11
93.8794
21
-84.7517
0
LINE
8
BLACK
6
CONTINUOUS
10
93.8794
20
-84.7517
11
93.879
21
-84.7521
0
LINE
8
BLACK
6
CONTINUOUS
10
93.879
20
-84.7521
11
93.8696
21
-84.7563
0
LINE
8
BLACK
6
CONTINUOUS
10
93.8696
20
-84.7563
11
93.8694
21
-84.7564
0
LINE
8
BLACK
6
CONTINUOUS
10
93.8694
20
-84.7564
11
93.8693
21
-84.7565
0
LINE
8
BLACK
6
CONTINUOUS
10
93.8693
20
-84.7565
11
93.8675
21
-84.7564
0
LINE
8
BLACK
6
CONTINUOUS
10
93.8675
20
-84.7564
11
93.8658
21
-84.7565
0
LINE
8
BLACK
6
CONTINUOUS
10
93.8658
20
-84.7565
11
93.8656
21
-84.7563
0
LINE
8
BLACK
6
CONTINUOUS
10
93.8656
20
-84.7563
11
93.8655
21
-84.7563
0
LINE
8
BLACK
6
CONTINUOUS
10
93.8655
20
-84.7563
11
93.8436
21
-84.7464
0
LINE
8
BLACK
6
CONTINUOUS
10
93.8436
20
-84.7464
11
93.8434
21
-84.7461
0
LINE
8
BLACK
6
CONTINUOUS
10
93.8434
20
-84.7461
11
93.8431
21
-84.7461
0
LINE
8
BLACK
6
CONTINUOUS
10
93.8431
20
-84.7461
11
93.7982
21
-84.7192
0
LINE
8
BLACK
6
CONTINUOUS
10
93.7982
20
-84.7192
11
93.7982
21
-84.7191
0
LINE
8
BLACK
6
CONTINUOUS
10
93.7982
20
-84.7191
11
93.7981
21
-84.7191
0
LINE
8
BLACK
6
CONTINUOUS
10
93.7981
20
-84.7191
11
93.7376
21
-84.6798
0
LINE
8
BLACK
6
CONTINUOUS
10
93.7376
20
-84.6798
11
93.7376
21
-84.6798
0
LINE
8
BLACK
6
CONTINUOUS
10
93.7376
20
-84.6798
11
93.7375
21
-84.6798
0
LINE
8
BLACK
6
CONTINUOUS
10
93.7375
20
-84.6798
11
93.691
21
-84.6482
0
LINE
8
BLACK
6
CONTINUOUS
10
93.691
20
-84.6482
11
93.691
21
-84.6481
0
LINE
8
BLACK
6
CONTINUOUS
10
93.691
20
-84.6481
11
93.691
21
-84.6481
0
LINE
8
BLACK
6
CONTINUOUS
10
93.691
20
-84.6481
11
93.6067
21
-84.5901
0
LINE
8
BLACK
6
CONTINUOUS
10
93.6067
20
-84.5901
11
93.6067
21
-84.5901
0
LINE
8
BLACK
6
CONTINUOUS
10
93.6067
20
-84.5901
11
93.5068
21
-84.5218
0
LINE
8
BLACK
6
CONTINUOUS
10
93.5068
20
-84.5218
11
93.4067
21
-84.4536
0
LINE
8
BLACK
6
CONTINUOUS
10
93.4067
20
-84.4536
11
93.4067
21
-84.4536
0
LINE
8
BLACK
6
CONTINUOUS
10
93.4067
20
-84.4536
11
93.3528
21
-84.4171
0
LINE
8
BLACK
6
CONTINUOUS
10
93.3528
20
-84.4171
11
93.3528
21
-84.4171
0
LINE
8
BLACK
6
CONTINUOUS
10
93.3528
20
-84.4171
11
93.1731
21
-84.2955
0
LINE
8
BLACK
6
CONTINUOUS
10
93.1731
20
-84.2955
11
93.0228
21
-84.3768
0
LINE
8
BLACK
6
CONTINUOUS
10
93.0228
20
-84.3768
11
93.0227
21
-84.3768
0
LINE
8
BLACK
6
CONTINUOUS
10
93.0227
20
-84.3768
11
93.0227
21
-84.3769
0
LINE
8
BLACK
6
CONTINUOUS
10
93.0227
20
-84.3769
11
92.953
21
-84.4131
0
LINE
8
BLACK
6
CONTINUOUS
10
92.953
20
-84.4131
11
92.9529
21
-84.4131
0
LINE
8
BLACK
6
CONTINUOUS
10
92.9529
20
-84.4131
11
92.9528
21
-84.4132
0
LINE
8
BLACK
6
CONTINUOUS
10
92.9528
20
-84.4132
11
92.8936
21
-84.4413
0
LINE
8
BLACK
6
CONTINUOUS
10
92.8936
20
-84.4413
11
92.8934
21
-84.4414
0
LINE
8
BLACK
6
CONTINUOUS
10
92.8934
20
-84.4414
11
92.8933
21
-84.4415
0
LINE
8
BLACK
6
CONTINUOUS
10
92.8933
20
-84.4415
11
92.8532
21
-84.4575
0
LINE
8
BLACK
6
CONTINUOUS
10
92.8532
20
-84.4575
11
92.8527
21
-84.4575
0
LINE
8
BLACK
6
CONTINUOUS
10
92.8527
20
-84.4575
11
92.8524
21
-84.4578
0
LINE
8
BLACK
6
CONTINUOUS
10
92.8524
20
-84.4578
11
92.8422
21
-84.46
0
LINE
8
BLACK
6
CONTINUOUS
10
92.8422
20
-84.46
11
92.8413
21
-84.4599
0
LINE
8
BLACK
6
CONTINUOUS
10
92.8413
20
-84.4599
11
92.8404
21
-84.4601
0
LINE
8
BLACK
6
CONTINUOUS
10
92.8404
20
-84.4601
11
92.8395
21
-84.4595
0
LINE
8
BLACK
6
CONTINUOUS
10
92.8395
20
-84.4595
11
92.8384
21
-84.4593
0
LINE
8
BLACK
6
CONTINUOUS
10
92.8384
20
-84.4593
11
92.8379
21
-84.4586
0
LINE
8
BLACK
6
CONTINUOUS
10
92.8379
20
-84.4586
11
92.8371
21
-84.4581
0
LINE
8
BLACK
6
CONTINUOUS
10
92.8371
20
-84.4581
11
92.8248
21
-84.4416
0
LINE
8
BLACK
6
CONTINUOUS
10
92.8248
20
-84.4416
11
92.8247
21
-84.4412
0
LINE
8
BLACK
6
CONTINUOUS
10
92.8247
20
-84.4412
11
92.8244
21
-84.4409
0
LINE
8
BLACK
6
CONTINUOUS
10
92.8244
20
-84.4409
11
92.8002
21
-84.3943
0
LINE
8
BLACK
6
CONTINUOUS
10
92.8002
20
-84.3943
11
92.8002
21
-84.3942
0
LINE
8
BLACK
6
CONTINUOUS
10
92.8002
20
-84.3942
11
92.8001
21
-84.3941
0
LINE
8
BLACK
6
CONTINUOUS
10
92.8001
20
-84.3941
11
92.7657
21
-84.3217
0
LINE
8
BLACK
6
CONTINUOUS
10
92.7657
20
-84.3217
11
92.7657
21
-84.3216
0
LINE
8
BLACK
6
CONTINUOUS
10
92.7657
20
-84.3216
11
92.7657
21
-84.3216
0
LINE
8
BLACK
6
CONTINUOUS
10
92.7657
20
-84.3216
11
92.723
21
-84.2276
0
LINE
8
BLACK
6
CONTINUOUS
10
92.723
20
-84.2276
11
92.723
21
-84.2276
0
LINE
8
BLACK
6
CONTINUOUS
10
92.723
20
-84.2276
11
92.723
21
-84.2275
0
LINE
8
BLACK
6
CONTINUOUS
10
92.723
20
-84.2275
11
92.6738
21
-84.1163
0
LINE
8
BLACK
6
CONTINUOUS
10
92.6738
20
-84.1163
11
92.6738
21
-84.1163
0
LINE
8
BLACK
6
CONTINUOUS
10
92.6738
20
-84.1163
11
92.6738
21
-84.1163
0
LINE
8
BLACK
6
CONTINUOUS
10
92.6738
20
-84.1163
11
92.6199
21
-83.9921
0
LINE
8
BLACK
6
CONTINUOUS
10
92.6199
20
-83.9921
11
92.6199
21
-83.9921
0
LINE
8
BLACK
6
CONTINUOUS
10
92.6199
20
-83.9921
11
92.6199
21
-83.9921
0
LINE
8
BLACK
6
CONTINUOUS
10
92.6199
20
-83.9921
11
92.5631
21
-83.8593
0
LINE
8
BLACK
6
CONTINUOUS
10
92.5631
20
-83.8593
11
92.5631
21
-83.8593
0
LINE
8
BLACK
6
CONTINUOUS
10
92.5631
20
-83.8593
11
92.5631
21
-83.8593
0
LINE
8
BLACK
6
CONTINUOUS
10
92.5631
20
-83.8593
11
92.5052
21
-83.7222
0
LINE
8
BLACK
6
CONTINUOUS
10
92.5052
20
-83.7222
11
92.5052
21
-83.7222
0
LINE
8
BLACK
6
CONTINUOUS
10
92.5052
20
-83.7222
11
92.5052
21
-83.7222
0
LINE
8
BLACK
6
CONTINUOUS
10
92.5052
20
-83.7222
11
92.448
21
-83.585
0
LINE
8
BLACK
6
CONTINUOUS
10
92.448
20
-83.585
11
92.448
21
-83.585
0
LINE
8
BLACK
6
CONTINUOUS
10
92.448
20
-83.585
11
92.448
21
-83.585
0
LINE
8
BLACK
6
CONTINUOUS
10
92.448
20
-83.585
11
92.3933
21
-83.4522
0
LINE
8
BLACK
6
CONTINUOUS
10
92.3933
20
-83.4522
11
92.3933
21
-83.4522
0
LINE
8
BLACK
6
CONTINUOUS
10
92.3933
20
-83.4522
11
92.3933
21
-83.4521
0
LINE
8
BLACK
6
CONTINUOUS
10
92.3933
20
-83.4521
11
92.343
21
-83.3279
0
LINE
8
BLACK
6
CONTINUOUS
10
92.343
20
-83.3279
11
92.343
21
-83.3279
0
LINE
8
BLACK
6
CONTINUOUS
10
92.343
20
-83.3279
11
92.3429
21
-83.3278
0
LINE
8
BLACK
6
CONTINUOUS
10
92.3429
20
-83.3278
11
92.2987
21
-83.2165
0
LINE
8
BLACK
6
CONTINUOUS
10
92.2987
20
-83.2165
11
92.2987
21
-83.2164
0
LINE
8
BLACK
6
CONTINUOUS
10
92.2987
20
-83.2164
11
92.2987
21
-83.2164
0
LINE
8
BLACK
6
CONTINUOUS
10
92.2987
20
-83.2164
11
92.2625
21
-83.1222
0
LINE
8
BLACK
6
CONTINUOUS
10
92.2625
20
-83.1222
11
92.2625
21
-83.1222
0
LINE
8
BLACK
6
CONTINUOUS
10
92.2625
20
-83.1222
11
92.2624
21
-83.1222
0
LINE
8
BLACK
6
CONTINUOUS
10
92.2624
20
-83.1222
11
92.2359
21
-83.0495
0
LINE
8
BLACK
6
CONTINUOUS
10
92.2359
20
-83.0495
11
92.2359
21
-83.0494
0
LINE
8
BLACK
6
CONTINUOUS
10
92.2359
20
-83.0494
11
92.2358
21
-83.0493
0
LINE
8
BLACK
6
CONTINUOUS
10
92.2358
20
-83.0493
11
92.2209
21
-83.0024
0
LINE
8
BLACK
6
CONTINUOUS
10
92.2209
20
-83.0024
11
92.2209
21
-83.0019
0
LINE
8
BLACK
6
CONTINUOUS
10
92.2209
20
-83.0019
11
92.2207
21
-83.0016
0
LINE
8
BLACK
6
CONTINUOUS
10
92.2207
20
-83.0016
11
92.2183
21
-82.9855
0
LINE
8
BLACK
6
CONTINUOUS
10
92.2183
20
-82.9855
11
92.2184
21
-82.9852
0
LINE
8
BLACK
6
CONTINUOUS
10
92.2184
20
-82.9852
11
92.2183
21
-82.9849
0
LINE
8
BLACK
6
CONTINUOUS
10
92.2183
20
-82.9849
11
92.2188
21
-82.9834
0
LINE
8
BLACK
6
CONTINUOUS
10
92.2188
20
-82.9834
11
92.2192
21
-82.9818
0
LINE
8
BLACK
6
CONTINUOUS
10
92.2192
20
-82.9818
11
92.2195
21
-82.9816
0
LINE
8
BLACK
6
CONTINUOUS
10
92.2195
20
-82.9816
11
92.2196
21
-82.9813
0
LINE
8
BLACK
6
CONTINUOUS
10
92.2196
20
-82.9813
11
92.2386
21
-82.9608
0
LINE
8
BLACK
6
CONTINUOUS
10
92.2386
20
-82.9608
11
92.239
21
-82.9606
0
LINE
8
BLACK
6
CONTINUOUS
10
92.239
20
-82.9606
11
92.2392
21
-82.9603
0
LINE
8
BLACK
6
CONTINUOUS
10
92.2392
20
-82.9603
11
92.2809
21
-82.9269
0
LINE
8
BLACK
6
CONTINUOUS
10
92.2809
20
-82.9269
11
92.2811
21
-82.9269
0
LINE
8
BLACK
6
CONTINUOUS
10
92.2811
20
-82.9269
11
92.2812
21
-82.9268
0
LINE
8
BLACK
6
CONTINUOUS
10
92.2812
20
-82.9268
11
92.3368
21
-82.8875
0
LINE
8
BLACK
6
CONTINUOUS
10
92.3368
20
-82.8875
11
92.3369
21
-82.8875
0
LINE
8
BLACK
6
CONTINUOUS
10
92.3369
20
-82.8875
11
92.3369
21
-82.8874
0
LINE
8
BLACK
6
CONTINUOUS
10
92.3369
20
-82.8874
11
92.3414
21
-82.8845
0
LINE
8
BLACK
6
CONTINUOUS
10
92.3414
20
-82.8845
11
92.4848
21
-82.7697
0
LINE
8
BLACK
6
CONTINUOUS
10
92.4848
20
-82.7697
11
92.6002
21
-82.636
0
LINE
8
BLACK
6
CONTINUOUS
10
92.6002
20
-82.636
11
92.6869
21
-82.4876
0
LINE
8
BLACK
6
CONTINUOUS
10
92.6869
20
-82.4876
11
92.7438
21
-82.3286
0
LINE
8
BLACK
6
CONTINUOUS
10
92.7438
20
-82.3286
11
92.7701
21
-82.1633
0
LINE
8
BLACK
6
CONTINUOUS
10
92.7701
20
-82.1633
11
92.7646
21
-81.9961
0
LINE
8
BLACK
6
CONTINUOUS
10
92.7646
20
-81.9961
11
92.7264
21
-81.8312
0
LINE
8
BLACK
6
CONTINUOUS
10
92.7264
20
-81.8312
11
92.6545
21
-81.6726
0
LINE
8
BLACK
6
CONTINUOUS
10
92.6545
20
-81.6726
11
92.6335
21
-81.6383
0
LINE
8
BLACK
6
CONTINUOUS
10
92.6335
20
-81.6383
11
92.5234
21
-81.4981
0
LINE
8
BLACK
6
CONTINUOUS
10
92.5234
20
-81.4981
11
92.3934
21
-81.3857
0
LINE
8
BLACK
6
CONTINUOUS
10
92.3934
20
-81.3857
11
92.248
21
-81.3015
0
LINE
8
BLACK
6
CONTINUOUS
10
92.248
20
-81.3015
11
92.0916
21
-81.246
0
LINE
8
BLACK
6
CONTINUOUS
10
92.0916
20
-81.246
11
91.9287
21
-81.2198
0
LINE
8
BLACK
6
CONTINUOUS
10
91.9287
20
-81.2198
11
91.7639
21
-81.2235
0
LINE
8
BLACK
6
CONTINUOUS
10
91.7639
20
-81.2235
11
91.6017
21
-81.2577
0
LINE
8
BLACK
6
CONTINUOUS
10
91.6017
20
-81.2577
11
91.4465
21
-81.323
0
LINE
8
BLACK
6
CONTINUOUS
10
91.4465
20
-81.323
11
91.3026
21
-81.4201
0
LINE
8
BLACK
6
CONTINUOUS
10
91.3026
20
-81.4201
11
91.2584
21
-81.4593
0
LINE
8
BLACK
6
CONTINUOUS
10
91.2584
20
-81.4593
11
91.1451
21
-81.5827
0
LINE
8
BLACK
6
CONTINUOUS
10
91.1451
20
-81.5827
11
91.0627
21
-81.7123
0
LINE
8
BLACK
6
CONTINUOUS
10
91.0627
20
-81.7123
11
91.0062
21
-81.8577
0
LINE
8
BLACK
6
CONTINUOUS
10
91.0062
20
-81.8577
11
90.9747
21
-82.0017
0
LINE
8
BLACK
6
CONTINUOUS
10
90.9747
20
-82.0017
11
90.9669
21
-82.1635
0
LINE
8
BLACK
6
CONTINUOUS
10
90.9669
20
-82.1635
11
90.9928
21
-82.3261
0
LINE
8
BLACK
6
CONTINUOUS
10
90.9928
20
-82.3261
11
91.0498
21
-82.4841
0
LINE
8
BLACK
6
CONTINUOUS
10
91.0498
20
-82.4841
11
91.1353
21
-82.6319
0
LINE
8
BLACK
6
CONTINUOUS
10
91.1353
20
-82.6319
11
91.2465
21
-82.7641
0
LINE
8
BLACK
6
CONTINUOUS
10
91.2465
20
-82.7641
11
91.3811
21
-82.8751
0
LINE
8
BLACK
6
CONTINUOUS
10
91.3811
20
-82.8751
11
91.3986
21
-82.8867
0
LINE
8
BLACK
6
CONTINUOUS
10
91.3986
20
-82.8867
11
91.3987
21
-82.8868
0
LINE
8
BLACK
6
CONTINUOUS
10
91.3987
20
-82.8868
11
91.3987
21
-82.8868
0
LINE
8
BLACK
6
CONTINUOUS
10
91.3987
20
-82.8868
11
91.455
21
-82.9253
0
LINE
8
BLACK
6
CONTINUOUS
10
91.455
20
-82.9253
11
91.4551
21
-82.9254
0
LINE
8
BLACK
6
CONTINUOUS
10
91.4551
20
-82.9254
11
91.4552
21
-82.9255
0
LINE
8
BLACK
6
CONTINUOUS
10
91.4552
20
-82.9255
11
91.498
21
-82.9588
0
LINE
8
BLACK
6
CONTINUOUS
10
91.498
20
-82.9588
11
91.4982
21
-82.9592
0
LINE
8
BLACK
6
CONTINUOUS
10
91.4982
20
-82.9592
11
91.4985
21
-82.9593
0
LINE
8
BLACK
6
CONTINUOUS
10
91.4985
20
-82.9593
11
91.519
21
-82.9806
0
LINE
8
BLACK
6
CONTINUOUS
10
91.519
20
-82.9806
11
91.5193
21
-82.9814
0
LINE
8
BLACK
6
CONTINUOUS
10
91.5193
20
-82.9814
11
91.5199
21
-82.982
0
LINE
8
BLACK
6
CONTINUOUS
10
91.5199
20
-82.982
11
91.5202
21
-82.9827
0
LINE
8
BLACK
6
CONTINUOUS
10
91.5202
20
-82.9827
11
91.5203
21
-82.9839
0
LINE
8
BLACK
6
CONTINUOUS
10
91.5203
20
-82.9839
11
91.5204
21
-82.9842
0
LINE
8
BLACK
6
CONTINUOUS
10
91.5204
20
-82.9842
11
91.5203
21
-82.9843
0
LINE
8
BLACK
6
CONTINUOUS
10
91.5203
20
-82.9843
11
91.5206
21
-82.9857
0
LINE
8
BLACK
6
CONTINUOUS
10
91.5206
20
-82.9857
11
91.5162
21
-83.0087
0
LINE
8
BLACK
6
CONTINUOUS
10
91.5162
20
-83.0087
11
91.516
21
-83.009
0
LINE
8
BLACK
6
CONTINUOUS
10
91.516
20
-83.009
11
91.516
21
-83.0094
0
LINE
8
BLACK
6
CONTINUOUS
10
91.516
20
-83.0094
11
91.4986
21
-83.0616
0
LINE
8
BLACK
6
CONTINUOUS
10
91.4986
20
-83.0616
11
91.4986
21
-83.0617
0
LINE
8
BLACK
6
CONTINUOUS
10
91.4986
20
-83.0617
11
91.4986
21
-83.0618
0
LINE
8
BLACK
6
CONTINUOUS
10
91.4986
20
-83.0618
11
91.47
21
-83.139
0
LINE
8
BLACK
6
CONTINUOUS
10
91.47
20
-83.139
11
91.4699
21
-83.1391
0
LINE
8
BLACK
6
CONTINUOUS
10
91.4699
20
-83.1391
11
91.4699
21
-83.1391
0
LINE
8
BLACK
6
CONTINUOUS
10
91.4699
20
-83.1391
11
91.4319
21
-83.237
0
LINE
8
BLACK
6
CONTINUOUS
10
91.4319
20
-83.237
11
91.4319
21
-83.237
0
LINE
8
BLACK
6
CONTINUOUS
10
91.4319
20
-83.237
11
91.4319
21
-83.237
0
LINE
8
BLACK
6
CONTINUOUS
10
91.4319
20
-83.237
11
91.3863
21
-83.3512
0
LINE
8
BLACK
6
CONTINUOUS
10
91.3863
20
-83.3512
11
91.3863
21
-83.3513
0
LINE
8
BLACK
6
CONTINUOUS
10
91.3863
20
-83.3513
11
91.3863
21
-83.3513
0
LINE
8
BLACK
6
CONTINUOUS
10
91.3863
20
-83.3513
11
91.3349
21
-83.4775
0
LINE
8
BLACK
6
CONTINUOUS
10
91.3349
20
-83.4775
11
91.3349
21
-83.4776
0
LINE
8
BLACK
6
CONTINUOUS
10
91.3349
20
-83.4776
11
91.3349
21
-83.4776
0
LINE
8
BLACK
6
CONTINUOUS
10
91.3349
20
-83.4776
11
91.2796
21
-83.6116
0
LINE
8
BLACK
6
CONTINUOUS
10
91.2796
20
-83.6116
11
91.2796
21
-83.6116
0
LINE
8
BLACK
6
CONTINUOUS
10
91.2796
20
-83.6116
11
91.2796
21
-83.6116
0
LINE
8
BLACK
6
CONTINUOUS
10
91.2796
20
-83.6116
11
91.2221
21
-83.7491
0
LINE
8
BLACK
6
CONTINUOUS
10
91.2221
20
-83.7491
11
91.2221
21
-83.7491
0
LINE
8
BLACK
6
CONTINUOUS
10
91.2221
20
-83.7491
11
91.2221
21
-83.7491
0
LINE
8
BLACK
6
CONTINUOUS
10
91.2221
20
-83.7491
11
91.1642
21
-83.8857
0
LINE
8
BLACK
6
CONTINUOUS
10
91.1642
20
-83.8857
11
91.1642
21
-83.8857
0
LINE
8
BLACK
6
CONTINUOUS
10
91.1642
20
-83.8857
11
91.1642
21
-83.8857
0
LINE
8
BLACK
6
CONTINUOUS
10
91.1642
20
-83.8857
11
91.1078
21
-84.0171
0
LINE
8
BLACK
6
CONTINUOUS
10
91.1078
20
-84.0171
11
91.1078
21
-84.0171
0
LINE
8
BLACK
6
CONTINUOUS
10
91.1078
20
-84.0171
11
91.1078
21
-84.0171
0
LINE
8
BLACK
6
CONTINUOUS
10
91.1078
20
-84.0171
11
91.0546
21
-84.1391
0
LINE
8
BLACK
6
CONTINUOUS
10
91.0546
20
-84.1391
11
91.0546
21
-84.1391
0
LINE
8
BLACK
6
CONTINUOUS
10
91.0546
20
-84.1391
11
91.0546
21
-84.1391
0
LINE
8
BLACK
6
CONTINUOUS
10
91.0546
20
-84.1391
11
91.0066
21
-84.2473
0
LINE
8
BLACK
6
CONTINUOUS
10
91.0066
20
-84.2473
11
91.0065
21
-84.2474
0
LINE
8
BLACK
6
CONTINUOUS
10
91.0065
20
-84.2474
11
91.0065
21
-84.2474
0
LINE
8
BLACK
6
CONTINUOUS
10
91.0065
20
-84.2474
11
90.9653
21
-84.3375
0
LINE
8
BLACK
6
CONTINUOUS
10
90.9653
20
-84.3375
11
90.9653
21
-84.3376
0
LINE
8
BLACK
6
CONTINUOUS
10
90.9653
20
-84.3376
11
90.9653
21
-84.3376
0
LINE
8
BLACK
6
CONTINUOUS
10
90.9653
20
-84.3376
11
90.9328
21
-84.4054
0
LINE
8
BLACK
6
CONTINUOUS
10
90.9328
20
-84.4054
11
90.9327
21
-84.4055
0
LINE
8
BLACK
6
CONTINUOUS
10
90.9327
20
-84.4055
11
90.9327
21
-84.4056
0
LINE
8
BLACK
6
CONTINUOUS
10
90.9327
20
-84.4056
11
90.9107
21
-84.4467
0
LINE
8
BLACK
6
CONTINUOUS
10
90.9107
20
-84.4467
11
90.9103
21
-84.447
0
LINE
8
BLACK
6
CONTINUOUS
10
90.9103
20
-84.447
11
90.9102
21
-84.4475
0
LINE
8
BLACK
6
CONTINUOUS
10
90.9102
20
-84.4475
11
90.9013
21
-84.4583
0
LINE
8
BLACK
6
CONTINUOUS
10
90.9013
20
-84.4583
11
90.9004
21
-84.4588
0
LINE
8
BLACK
6
CONTINUOUS
10
90.9004
20
-84.4588
11
90.8998
21
-84.4596
0
LINE
8
BLACK
6
CONTINUOUS
10
90.8998
20
-84.4596
11
90.8988
21
-84.4596
0
LINE
8
BLACK
6
CONTINUOUS
10
90.8988
20
-84.4596
11
90.8979
21
-84.4601
0
LINE
8
BLACK
6
CONTINUOUS
10
90.8979
20
-84.4601
11
90.897
21
-84.4598
0
LINE
8
BLACK
6
CONTINUOUS
10
90.897
20
-84.4598
11
90.896
21
-84.4599
0
LINE
8
BLACK
6
CONTINUOUS
10
90.896
20
-84.4599
11
90.8689
21
-84.4515
0
LINE
8
BLACK
6
CONTINUOUS
10
90.8689
20
-84.4515
11
90.8686
21
-84.4513
0
LINE
8
BLACK
6
CONTINUOUS
10
90.8686
20
-84.4513
11
90.8683
21
-84.4513
0
LINE
8
BLACK
6
CONTINUOUS
10
90.8683
20
-84.4513
11
90.8177
21
-84.4287
0
LINE
8
BLACK
6
CONTINUOUS
10
90.8177
20
-84.4287
11
90.8176
21
-84.4287
0
LINE
8
BLACK
6
CONTINUOUS
10
90.8176
20
-84.4287
11
90.8175
21
-84.4287
0
LINE
8
BLACK
6
CONTINUOUS
10
90.8175
20
-84.4287
11
90.752
21
-84.396
0
LINE
8
BLACK
6
CONTINUOUS
10
90.752
20
-84.396
11
90.7519
21
-84.3959
0
LINE
8
BLACK
6
CONTINUOUS
10
90.7519
20
-84.3959
11
90.7518
21
-84.3959
0
LINE
8
BLACK
6
CONTINUOUS
10
90.7518
20
-84.3959
11
90.7158
21
-84.3768
0
LINE
8
BLACK
6
CONTINUOUS
10
90.7158
20
-84.3768
11
90.7158
21
-84.3768
0
LINE
8
BLACK
6
CONTINUOUS
10
90.7158
20
-84.3768
11
90.7158
21
-84.3768
0
LINE
8
BLACK
6
CONTINUOUS
10
90.7158
20
-84.3768
11
90.5655
21
-84.2955
0
LINE
8
BLACK
6
CONTINUOUS
10
90.5655
20
-84.2955
11
90.3857
21
-84.4171
0
LINE
8
BLACK
6
CONTINUOUS
10
90.3857
20
-84.4171
11
90.2927
21
-84.4803
0
LINE
8
BLACK
6
CONTINUOUS
10
90.2927
20
-84.4803
11
90.1908
21
-84.5498
0
LINE
8
BLACK
6
CONTINUOUS
10
90.1908
20
-84.5498
11
90.0954
21
-84.6152
0
LINE
8
BLACK
6
CONTINUOUS
10
90.0954
20
-84.6152
11
90.0476
21
-84.6481
0
LINE
8
BLACK
6
CONTINUOUS
10
90.0476
20
-84.6481
11
90.0476
21
-84.6481
0
LINE
8
BLACK
6
CONTINUOUS
10
90.0476
20
-84.6481
11
90.0475
21
-84.6482
0
LINE
8
BLACK
6
CONTINUOUS
10
90.0475
20
-84.6482
11
89.9803
21
-84.6933
0
LINE
8
BLACK
6
CONTINUOUS
10
89.9803
20
-84.6933
11
89.9802
21
-84.6933
0
LINE
8
BLACK
6
CONTINUOUS
10
89.9802
20
-84.6933
11
89.9802
21
-84.6934
0
LINE
8
BLACK
6
CONTINUOUS
10
89.9802
20
-84.6934
11
89.9232
21
-84.7292
0
LINE
8
BLACK
6
CONTINUOUS
10
89.9232
20
-84.7292
11
89.9231
21
-84.7292
0
LINE
8
BLACK
6
CONTINUOUS
10
89.9231
20
-84.7292
11
89.923
21
-84.7293
0
LINE
8
BLACK
6
CONTINUOUS
10
89.923
20
-84.7293
11
89.8838
21
-84.7512
0
LINE
8
BLACK
6
CONTINUOUS
10
89.8838
20
-84.7512
11
89.8834
21
-84.7513
0
LINE
8
BLACK
6
CONTINUOUS
10
89.8834
20
-84.7513
11
89.8831
21
-84.7515
0
LINE
8
BLACK
6
CONTINUOUS
10
89.8831
20
-84.7515
11
89.8703
21
-84.7562
0
LINE
8
BLACK
6
CONTINUOUS
10
89.8703
20
-84.7562
11
89.8699
21
-84.7561
0
LINE
8
BLACK
6
CONTINUOUS
10
89.8699
20
-84.7561
11
89.8696
21
-84.7564
0
LINE
8
BLACK
6
CONTINUOUS
10
89.8696
20
-84.7564
11
89.8681
21
-84.7561
0
LINE
8
BLACK
6
CONTINUOUS
10
89.8681
20
-84.7561
11
89.8665
21
-84.756
0
LINE
8
BLACK
6
CONTINUOUS
10
89.8665
20
-84.756
11
89.8662
21
-84.7557
0
LINE
8
BLACK
6
CONTINUOUS
10
89.8662
20
-84.7557
11
89.8658
21
-84.7556
0
LINE
8
BLACK
6
CONTINUOUS
10
89.8658
20
-84.7556
11
89.8473
21
-84.7431
0
LINE
8
BLACK
6
CONTINUOUS
10
89.8473
20
-84.7431
11
89.8471
21
-84.7429
0
LINE
8
BLACK
6
CONTINUOUS
10
89.8471
20
-84.7429
11
89.8468
21
-84.7428
0
LINE
8
BLACK
6
CONTINUOUS
10
89.8468
20
-84.7428
11
89.8058
21
-84.708
0
LINE
8
BLACK
6
CONTINUOUS
10
89.8058
20
-84.708
11
89.8058
21
-84.7079
0
LINE
8
BLACK
6
CONTINUOUS
10
89.8058
20
-84.7079
11
89.8057
21
-84.7079
0
LINE
8
BLACK
6
CONTINUOUS
10
89.8057
20
-84.7079
11
89.7462
21
-84.6543
0
LINE
8
BLACK
6
CONTINUOUS
10
89.7462
20
-84.6543
11
89.7462
21
-84.6543
0
LINE
8
BLACK
6
CONTINUOUS
10
89.7462
20
-84.6543
11
89.7461
21
-84.6542
0
LINE
8
BLACK
6
CONTINUOUS
10
89.7461
20
-84.6542
11
89.6721
21
-84.5856
0
LINE
8
BLACK
6
CONTINUOUS
10
89.6721
20
-84.5856
11
89.672
21
-84.5855
0
LINE
8
BLACK
6
CONTINUOUS
10
89.672
20
-84.5855
11
89.672
21
-84.5855
0
LINE
8
BLACK
6
CONTINUOUS
10
89.672
20
-84.5855
11
89.5874
21
-84.5053
0
LINE
8
BLACK
6
CONTINUOUS
10
89.5874
20
-84.5053
11
89.5874
21
-84.5053
0
LINE
8
BLACK
6
CONTINUOUS
10
89.5874
20
-84.5053
11
89.5874
21
-84.5053
0
LINE
8
BLACK
6
CONTINUOUS
10
89.5874
20
-84.5053
11
89.5338
21
-84.4538
0
LINE
8
BLACK
6
CONTINUOUS
10
89.5338
20
-84.4538
11
89.5338
21
-84.4538
0
LINE
8
BLACK
6
CONTINUOUS
10
89.5338
20
-84.4538
11
89.5338
21
-84.4538
0
LINE
8
BLACK
6
CONTINUOUS
10
89.5338
20
-84.4538
11
89.4402
21
-84.3618
0
LINE
8
BLACK
6
CONTINUOUS
10
89.4402
20
-84.3618
11
89.4402
21
-84.3617
0
LINE
8
BLACK
6
CONTINUOUS
10
89.4402
20
-84.3617
11
89.4401
21
-84.3617
0
LINE
8
BLACK
6
CONTINUOUS
10
89.4401
20
-84.3617
11
89.3592
21
-84.2794
0
LINE
8
BLACK
6
CONTINUOUS
10
89.3592
20
-84.2794
11
89.3592
21
-84.2794
0
LINE
8
BLACK
6
CONTINUOUS
10
89.3592
20
-84.2794
11
89.3591
21
-84.2793
0
LINE
8
BLACK
6
CONTINUOUS
10
89.3591
20
-84.2793
11
89.2942
21
-84.2103
0
LINE
8
BLACK
6
CONTINUOUS
10
89.2942
20
-84.2103
11
89.2941
21
-84.2102
0
LINE
8
BLACK
6
CONTINUOUS
10
89.2941
20
-84.2102
11
89.2941
21
-84.2101
0
LINE
8
BLACK
6
CONTINUOUS
10
89.2941
20
-84.2101
11
89.2484
21
-84.1578
0
LINE
8
BLACK
6
CONTINUOUS
10
89.2484
20
-84.1578
11
89.2483
21
-84.1576
0
LINE
8
BLACK
6
CONTINUOUS
10
89.2483
20
-84.1576
11
89.2481
21
-84.1575
0
LINE
8
BLACK
6
CONTINUOUS
10
89.2481
20
-84.1575
11
89.2249
21
-84.1255
0
LINE
8
BLACK
6
CONTINUOUS
10
89.2249
20
-84.1255
11
89.2248
21
-84.1247
0
LINE
8
BLACK
6
CONTINUOUS
10
89.2248
20
-84.1247
11
89.2243
21
-84.1241
0
LINE
8
BLACK
6
CONTINUOUS
10
89.2243
20
-84.1241
11
89.222
21
-84.1176
0
LINE
8
BLACK
6
CONTINUOUS
10
89.222
20
-84.1176
11
89.2221
21
-84.1159
0
LINE
8
BLACK
6
CONTINUOUS
10
89.2221
20
-84.1159
11
89.2222
21
-84.1141
0
LINE
8
BLACK
6
CONTINUOUS
10
89.2222
20
-84.1141
11
89.2325
21
-84.0894
0
LINE
8
BLACK
6
CONTINUOUS
10
89.2325
20
-84.0894
11
89.2327
21
-84.0891
0
LINE
8
BLACK
6
CONTINUOUS
10
89.2327
20
-84.0891
11
89.2327
21
-84.0888
0
LINE
8
BLACK
6
CONTINUOUS
10
89.2327
20
-84.0888
11
89.2612
21
-84.0388
0
LINE
8
BLACK
6
CONTINUOUS
10
89.2612
20
-84.0388
11
89.2613
21
-84.0388
0
LINE
8
BLACK
6
CONTINUOUS
10
89.2613
20
-84.0388
11
89.2613
21
-84.0387
0
LINE
8
BLACK
6
CONTINUOUS
10
89.2613
20
-84.0387
11
89.3048
21
-83.9685
0
LINE
8
BLACK
6
CONTINUOUS
10
89.3048
20
-83.9685
11
89.3049
21
-83.9685
0
LINE
8
BLACK
6
CONTINUOUS
10
89.3049
20
-83.9685
11
89.3049
21
-83.9684
0
LINE
8
BLACK
6
CONTINUOUS
10
89.3049
20
-83.9684
11
89.3602
21
-83.8831
0
LINE
8
BLACK
6
CONTINUOUS
10
89.3602
20
-83.8831
11
89.3603
21
-83.883
0
LINE
8
BLACK
6
CONTINUOUS
10
89.3603
20
-83.883
11
89.3603
21
-83.883
0
LINE
8
BLACK
6
CONTINUOUS
10
89.3603
20
-83.883
11
89.4243
21
-83.7876
0
LINE
8
BLACK
6
CONTINUOUS
10
89.4243
20
-83.7876
11
89.4243
21
-83.7876
0
LINE
8
BLACK
6
CONTINUOUS
10
89.4243
20
-83.7876
11
89.4244
21
-83.7875
0
LINE
8
BLACK
6
CONTINUOUS
10
89.4244
20
-83.7875
11
89.4426
21
-83.7609
0
LINE
8
BLACK
6
CONTINUOUS
10
89.4426
20
-83.7609
11
89.4426
21
-83.7609
0
LINE
8
BLACK
6
CONTINUOUS
10
89.4426
20
-83.7609
11
89.4426
21
-83.7609
0
LINE
8
BLACK
6
CONTINUOUS
10
89.4426
20
-83.7609
11
89.509
21
-83.6642
0
LINE
8
BLACK
6
CONTINUOUS
10
89.509
20
-83.6642
11
89.5685
21
-83.5772
0
LINE
8
BLACK
6
CONTINUOUS
10
89.5685
20
-83.5772
11
89.5685
21
-83.5772
0
LINE
8
BLACK
6
CONTINUOUS
10
89.5685
20
-83.5772
11
89.6179
21
-83.5047
0
LINE
8
BLACK
6
CONTINUOUS
10
89.6179
20
-83.5047
11
89.6179
21
-83.5047
0
LINE
8
BLACK
6
CONTINUOUS
10
89.6179
20
-83.5047
11
89.6538
21
-83.4516
0
LINE
8
BLACK
6
CONTINUOUS
10
89.6538
20
-83.4516
11
89.6728
21
-83.4229
0
LINE
8
BLACK
6
CONTINUOUS
10
89.6728
20
-83.4229
11
89.6737
21
-83.4215
0
LINE
8
BLACK
6
CONTINUOUS
10
89.6737
20
-83.4215
11
89.6712
21
-83.4007
0
LINE
8
BLACK
6
CONTINUOUS
10
89.6712
20
-83.4007
11
89.6567
21
-83.3507
0
LINE
8
BLACK
6
CONTINUOUS
10
89.6567
20
-83.3507
11
89.6328
21
-83.2796
0
LINE
8
BLACK
6
CONTINUOUS
10
89.6328
20
-83.2796
11
89.602
21
-83.1942
0
LINE
8
BLACK
6
CONTINUOUS
10
89.602
20
-83.1942
11
89.5671
21
-83.1012
0
LINE
8
BLACK
6
CONTINUOUS
10
89.5671
20
-83.1012
11
89.5304
21
-83.0073
0
LINE
8
BLACK
6
CONTINUOUS
10
89.5304
20
-83.0073
11
89.4947
21
-82.9193
0
LINE
8
BLACK
6
CONTINUOUS
10
89.4947
20
-82.9193
11
89.4624
21
-82.8436
0
LINE
8
BLACK
6
CONTINUOUS
10
89.4624
20
-82.8436
11
89.4362
21
-82.7871
0
LINE
8
BLACK
6
CONTINUOUS
10
89.4362
20
-82.7871
11
89.4188
21
-82.7567
0
LINE
8
BLACK
6
CONTINUOUS
10
89.4188
20
-82.7567
11
89.4181
21
-82.756
0
LINE
8
BLACK
6
CONTINUOUS
10
89.4181
20
-82.756
11
89.408
21
-82.7478
0
LINE
8
BLACK
6
CONTINUOUS
10
89.408
20
-82.7478
11
89.3905
21
-82.7394
0
LINE
8
BLACK
6
CONTINUOUS
10
89.3905
20
-82.7394
11
89.361
21
-82.73
0
LINE
8
BLACK
6
CONTINUOUS
10
89.361
20
-82.73
11
89.3158
21
-82.7188
0
LINE
8
BLACK
6
CONTINUOUS
10
89.3158
20
-82.7188
11
89.2508
21
-82.7049
0
LINE
8
BLACK
6
CONTINUOUS
10
89.2508
20
-82.7049
11
89.1621
21
-82.6875
0
LINE
8
BLACK
6
CONTINUOUS
10
89.1621
20
-82.6875
11
89.0457
21
-82.6656
0
LINE
8
BLACK
6
CONTINUOUS
10
89.0457
20
-82.6656
11
89.0457
21
-82.6656
0
LINE
8
BLACK
6
CONTINUOUS
10
89.0457
20
-82.6656
11
88.8976
21
-82.6384
0
LINE
8
BLACK
6
CONTINUOUS
10
88.8976
20
-82.6384
11
88.8655
21
-82.6326
0
LINE
8
BLACK
6
CONTINUOUS
10
88.8655
20
-82.6326
11
88.8655
21
-82.6325
0
LINE
8
BLACK
6
CONTINUOUS
10
88.8655
20
-82.6325
11
88.8654
21
-82.6326
0
LINE
8
BLACK
6
CONTINUOUS
10
88.8654
20
-82.6326
11
88.7704
21
-82.6142
0
LINE
8
BLACK
6
CONTINUOUS
10
88.7704
20
-82.6142
11
88.7703
21
-82.6142
0
LINE
8
BLACK
6
CONTINUOUS
10
88.7703
20
-82.6142
11
88.7703
21
-82.6142
0
LINE
8
BLACK
6
CONTINUOUS
10
88.7703
20
-82.6142
11
88.6874
21
-82.5962
0
LINE
8
BLACK
6
CONTINUOUS
10
88.6874
20
-82.5962
11
88.6873
21
-82.5961
0
LINE
8
BLACK
6
CONTINUOUS
10
88.6873
20
-82.5961
11
88.6872
21
-82.5962
0
LINE
8
BLACK
6
CONTINUOUS
10
88.6872
20
-82.5962
11
88.6239
21
-82.5803
0
LINE
8
BLACK
6
CONTINUOUS
10
88.6239
20
-82.5803
11
88.6237
21
-82.5802
0
LINE
8
BLACK
6
CONTINUOUS
10
88.6237
20
-82.5802
11
88.6235
21
-82.5802
0
LINE
8
BLACK
6
CONTINUOUS
10
88.6235
20
-82.5802
11
88.587
21
-82.5683
0
LINE
8
BLACK
6
CONTINUOUS
10
88.587
20
-82.5683
11
88.5866
21
-82.5679
0
LINE
8
BLACK
6
CONTINUOUS
10
88.5866
20
-82.5679
11
88.5861
21
-82.5678
0
LINE
8
BLACK
6
CONTINUOUS
10
88.5861
20
-82.5678
11
88.5812
21
-82.5651
0
LINE
8
BLACK
6
CONTINUOUS
10
88.5812
20
-82.5651
11
88.5801
21
-82.5636
0
LINE
8
BLACK
6
CONTINUOUS
10
88.5801
20
-82.5636
11
88.5789
21
-82.5623
0
LINE
8
BLACK
6
CONTINUOUS
10
88.5789
20
-82.5623
11
88.5708
21
-82.5375
0
LINE
8
BLACK
6
CONTINUOUS
10
88.5708
20
-82.5375
11
88.5709
21
-82.537
0
LINE
8
BLACK
6
CONTINUOUS
10
88.5709
20
-82.537
11
88.5706
21
-82.5366
0
LINE
8
BLACK
6
CONTINUOUS
10
88.5706
20
-82.5366
11
88.564
21
-82.4813
0
LINE
8
BLACK
6
CONTINUOUS
10
88.564
20
-82.4813
11
88.5641
21
-82.4811
0
LINE
8
BLACK
6
CONTINUOUS
10
88.5641
20
-82.4811
11
88.564
21
-82.481
0
LINE
8
BLACK
6
CONTINUOUS
10
88.564
20
-82.481
11
88.559
21
-82.4016
0
LINE
8
BLACK
6
CONTINUOUS
10
88.559
20
-82.4016
11
88.559
21
-82.4015
0
LINE
8
BLACK
6
CONTINUOUS
10
88.559
20
-82.4015
11
88.559
21
-82.4015
0
LINE
8
BLACK
6
CONTINUOUS
10
88.559
20
-82.4015
11
88.5554
21
-82.3044
0
LINE
8
BLACK
6
CONTINUOUS
10
88.5554
20
-82.3044
11
88.5555
21
-82.3043
0
LINE
8
BLACK
6
CONTINUOUS
10
88.5555
20
-82.3043
11
88.5554
21
-82.3043
0
LINE
8
BLACK
6
CONTINUOUS
10
88.5554
20
-82.3043
11
88.5534
21
-82.1959
0
LINE
8
BLACK
6
CONTINUOUS
10
88.5534
20
-82.1959
11
88.5535
21
-82.1959
0
LINE
8
BLACK
6
CONTINUOUS
10
88.5535
20
-82.1959
11
88.5534
21
-82.1959
0
LINE
8
BLACK
6
CONTINUOUS
10
88.5534
20
-82.1959
11
88.553
21
-82.0827
0
LINE
8
BLACK
6
CONTINUOUS
10
88.553
20
-82.0827
11
88.553
21
-82.0826
0
LINE
8
BLACK
6
CONTINUOUS
10
88.553
20
-82.0826
11
88.553
21
-82.0826
0
LINE
8
BLACK
6
CONTINUOUS
10
88.553
20
-82.0826
11
88.554
21
-81.971
0
LINE
8
BLACK
6
CONTINUOUS
10
88.554
20
-81.971
11
88.554
21
-81.9709
0
LINE
8
BLACK
6
CONTINUOUS
10
88.554
20
-81.9709
11
88.554
21
-81.9709
0
LINE
8
BLACK
6
CONTINUOUS
10
88.554
20
-81.9709
11
88.5566
21
-81.8673
0
LINE
8
BLACK
6
CONTINUOUS
10
88.5566
20
-81.8673
11
88.5566
21
-81.8673
0
LINE
8
BLACK
6
CONTINUOUS
10
88.5566
20
-81.8673
11
88.5566
21
-81.8672
0
LINE
8
BLACK
6
CONTINUOUS
10
88.5566
20
-81.8672
11
88.5608
21
-81.778
0
LINE
8
BLACK
6
CONTINUOUS
10
88.5608
20
-81.778
11
88.5608
21
-81.778
0
LINE
8
BLACK
6
CONTINUOUS
10
88.5608
20
-81.778
11
88.5608
21
-81.7779
0
LINE
8
BLACK
6
CONTINUOUS
10
88.5608
20
-81.7779
11
88.5665
21
-81.7096
0
LINE
8
BLACK
6
CONTINUOUS
10
88.5665
20
-81.7096
11
88.5666
21
-81.7093
0
LINE
8
BLACK
6
CONTINUOUS
10
88.5666
20
-81.7093
11
88.5665
21
-81.7091
0
LINE
8
BLACK
6
CONTINUOUS
10
88.5665
20
-81.7091
11
88.5737
21
-81.6681
0
LINE
8
BLACK
6
CONTINUOUS
10
88.5737
20
-81.6681
11
88.5742
21
-81.6674
0
LINE
8
BLACK
6
CONTINUOUS
10
88.5742
20
-81.6674
11
88.5742
21
-81.6667
0
LINE
8
BLACK
6
CONTINUOUS
10
88.5742
20
-81.6667
11
88.5786
21
-81.6583
0
LINE
8
BLACK
6
CONTINUOUS
10
88.5786
20
-81.6583
11
88.58
21
-81.6571
0
LINE
8
BLACK
6
CONTINUOUS
10
88.58
20
-81.6571
11
88.5814
21
-81.6559
0
LINE
8
BLACK
6
CONTINUOUS
10
88.5814
20
-81.6559
11
88.6057
21
-81.6474
0
LINE
8
BLACK
6
CONTINUOUS
10
88.6057
20
-81.6474
11
88.6059
21
-81.6474
0
LINE
8
BLACK
6
CONTINUOUS
10
88.6059
20
-81.6474
11
88.6061
21
-81.6473
0
LINE
8
BLACK
6
CONTINUOUS
10
88.6061
20
-81.6473
11
88.6614
21
-81.6335
0
LINE
8
BLACK
6
CONTINUOUS
10
88.6614
20
-81.6335
11
88.6614
21
-81.6335
0
LINE
8
BLACK
6
CONTINUOUS
10
88.6614
20
-81.6335
11
88.6615
21
-81.6335
0
LINE
8
BLACK
6
CONTINUOUS
10
88.6615
20
-81.6335
11
88.7423
21
-81.6156
0
LINE
8
BLACK
6
CONTINUOUS
10
88.7423
20
-81.6156
11
88.7423
21
-81.6156
0
LINE
8
BLACK
6
CONTINUOUS
10
88.7423
20
-81.6156
11
88.7423
21
-81.6156
0
LINE
8
BLACK
6
CONTINUOUS
10
88.7423
20
-81.6156
11
88.8431
21
-81.5948
0
LINE
8
BLACK
6
CONTINUOUS
10
88.8431
20
-81.5948
11
88.8431
21
-81.5948
0
LINE
8
BLACK
6
CONTINUOUS
10
88.8431
20
-81.5948
11
88.8431
21
-81.5947
0
LINE
8
BLACK
6
CONTINUOUS
10
88.8431
20
-81.5947
11
88.9584
21
-81.5722
0
LINE
8
BLACK
6
CONTINUOUS
10
88.9584
20
-81.5722
11
88.9584
21
-81.5722
0
LINE
8
BLACK
6
CONTINUOUS
10
88.9584
20
-81.5722
11
88.9584
21
-81.5722
0
LINE
8
BLACK
6
CONTINUOUS
10
88.9584
20
-81.5722
11
89.0212
21
-81.5604
0
LINE
8
BLACK
6
CONTINUOUS
10
89.0212
20
-81.5604
11
89.0212
21
-81.5604
0
LINE
8
BLACK
6
CONTINUOUS
10
89.0212
20
-81.5604
11
89.0212
21
-81.5604
0
LINE
8
BLACK
6
CONTINUOUS
10
89.0212
20
-81.5604
11
89.1403
21
-81.5381
0
LINE
8
BLACK
6
CONTINUOUS
10
89.1403
20
-81.5381
11
89.1403
21
-81.5381
0
LINE
8
BLACK
6
CONTINUOUS
10
89.1403
20
-81.5381
11
89.2465
21
-81.518
0
LINE
8
BLACK
6
CONTINUOUS
10
89.2465
20
-81.518
11
89.3346
21
-81.5009
0
LINE
8
BLACK
6
CONTINUOUS
10
89.3346
20
-81.5009
11
89.3346
21
-81.5009
0
LINE
8
BLACK
6
CONTINUOUS
10
89.3346
20
-81.5009
11
89.3994
21
-81.488
0
LINE
8
BLACK
6
CONTINUOUS
10
89.3994
20
-81.488
11
89.4356
21
-81.4802
0
LINE
8
BLACK
6
CONTINUOUS
10
89.4356
20
-81.4802
11
89.4394
21
-81.4791
0
LINE
8
BLACK
6
CONTINUOUS
10
89.4394
20
-81.4791
11
89.4484
21
-81.4616
0
LINE
8
BLACK
6
CONTINUOUS
10
89.4484
20
-81.4616
11
89.4698
21
-81.4147
0
LINE
8
BLACK
6
CONTINUOUS
10
89.4698
20
-81.4147
11
89.4996
21
-81.3469
0
LINE
8
BLACK
6
CONTINUOUS
10
89.4996
20
-81.3469
11
89.535
21
-81.265
0
LINE
8
BLACK
6
CONTINUOUS
10
89.535
20
-81.265
11
89.535
21
-81.265
0
LINE
8
BLACK
6
CONTINUOUS
10
89.535
20
-81.265
11
89.5731
21
-81.1758
0
LINE
8
BLACK
6
CONTINUOUS
10
89.5731
20
-81.1758
11
89.5731
21
-81.1758
0
LINE
8
BLACK
6
CONTINUOUS
10
89.5731
20
-81.1758
11
89.611
21
-81.0859
0
LINE
8
BLACK
6
CONTINUOUS
10
89.611
20
-81.0859
11
89.646
21
-81.0021
0
LINE
8
BLACK
6
CONTINUOUS
10
89.646
20
-81.0021
11
89.646
21
-81.0021
0
LINE
8
BLACK
6
CONTINUOUS
10
89.646
20
-81.0021
11
89.6751
21
-80.9312
0
LINE
8
BLACK
6
CONTINUOUS
10
89.6751
20
-80.9312
11
89.6956
21
-80.8798
0
LINE
8
BLACK
6
CONTINUOUS
10
89.6956
20
-80.8798
11
89.704
21
-80.8559
0
LINE
8
BLACK
6
CONTINUOUS
10
89.704
20
-80.8559
11
89.6949
21
-80.8379
0
LINE
8
BLACK
6
CONTINUOUS
10
89.6949
20
-80.8379
11
89.6667
21
-80.7924
0
LINE
8
BLACK
6
CONTINUOUS
10
89.6667
20
-80.7924
11
89.6231
21
-80.7253
0
LINE
8
BLACK
6
CONTINUOUS
10
89.6231
20
-80.7253
11
89.5673
21
-80.6416
0
LINE
8
BLACK
6
CONTINUOUS
10
89.5673
20
-80.6416
11
89.5021
21
-80.5456
0
LINE
8
BLACK
6
CONTINUOUS
10
89.5021
20
-80.5456
11
89.5021
21
-80.5456
0
LINE
8
BLACK
6
CONTINUOUS
10
89.5021
20
-80.5456
11
89.4642
21
-80.4904
0
LINE
8
BLACK
6
CONTINUOUS
10
89.4642
20
-80.4904
11
89.4642
21
-80.4904
0
LINE
8
BLACK
6
CONTINUOUS
10
89.4642
20
-80.4904
11
89.4642
21
-80.4904
0
LINE
8
BLACK
6
CONTINUOUS
10
89.4642
20
-80.4904
11
89.3951
21
-80.3892
0
LINE
8
BLACK
6
CONTINUOUS
10
89.3951
20
-80.3892
11
89.3951
21
-80.3892
0
LINE
8
BLACK
6
CONTINUOUS
10
89.3951
20
-80.3892
11
89.3951
21
-80.3892
0
LINE
8
BLACK
6
CONTINUOUS
10
89.3951
20
-80.3892
11
89.3338
21
-80.2973
0
LINE
8
BLACK
6
CONTINUOUS
10
89.3338
20
-80.2973
11
89.3338
21
-80.2973
0
LINE
8
BLACK
6
CONTINUOUS
10
89.3338
20
-80.2973
11
89.3338
21
-80.2973
0
LINE
8
BLACK
6
CONTINUOUS
10
89.3338
20
-80.2973
11
89.2831
21
-80.2194
0
LINE
8
BLACK
6
CONTINUOUS
10
89.2831
20
-80.2194
11
89.2831
21
-80.2193
0
LINE
8
BLACK
6
CONTINUOUS
10
89.2831
20
-80.2193
11
89.2831
21
-80.2193
0
LINE
8
BLACK
6
CONTINUOUS
10
89.2831
20
-80.2193
11
89.2462
21
-80.16
0
LINE
8
BLACK
6
CONTINUOUS
10
89.2462
20
-80.16
11
89.2462
21
-80.1599
0
LINE
8
BLACK
6
CONTINUOUS
10
89.2462
20
-80.1599
11
89.2461
21
-80.1598
0
LINE
8
BLACK
6
CONTINUOUS
10
89.2461
20
-80.1598
11
89.2259
21
-80.1238
0
LINE
8
BLACK
6
CONTINUOUS
10
89.2259
20
-80.1238
11
89.2258
21
-80.1234
0
LINE
8
BLACK
6
CONTINUOUS
10
89.2258
20
-80.1234
11
89.2255
21
-80.1231
0
LINE
8
BLACK
6
CONTINUOUS
10
89.2255
20
-80.1231
11
89.2226
21
-80.115
0
LINE
8
BLACK
6
CONTINUOUS
10
89.2226
20
-80.115
11
89.2226
21
-80.1146
0
LINE
8
BLACK
6
CONTINUOUS
10
89.2226
20
-80.1146
11
89.2224
21
-80.1143
0
LINE
8
BLACK
6
CONTINUOUS
10
89.2224
20
-80.1143
11
89.2227
21
-80.1127
0
LINE
8
BLACK
6
CONTINUOUS
10
89.2227
20
-80.1127
11
89.2228
21
-80.1112
0
LINE
8
BLACK
6
CONTINUOUS
10
89.2228
20
-80.1112
11
89.2231
21
-80.1109
0
LINE
8
BLACK
6
CONTINUOUS
10
89.2231
20
-80.1109
11
89.2231
21
-80.1105
0
LINE
8
BLACK
6
CONTINUOUS
10
89.2231
20
-80.1105
11
89.2357
21
-80.0917
0
LINE
8
BLACK
6
CONTINUOUS
10
89.2357
20
-80.0917
11
89.236
21
-80.0915
0
LINE
8
BLACK
6
CONTINUOUS
10
89.236
20
-80.0915
11
89.2361
21
-80.0912
0
LINE
8
BLACK
6
CONTINUOUS
10
89.2361
20
-80.0912
11
89.2708
21
-80.0511
0
LINE
8
BLACK
6
CONTINUOUS
10
89.2708
20
-80.0511
11
89.2708
21
-80.0511
0
LINE
8
BLACK
6
CONTINUOUS
10
89.2708
20
-80.0511
11
89.2709
21
-80.051
0
LINE
8
BLACK
6
CONTINUOUS
10
89.2709
20
-80.051
11
89.3233
21
-79.994
0
LINE
8
BLACK
6
CONTINUOUS
10
89.3233
20
-79.994
11
89.3233
21
-79.994
0
LINE
8
BLACK
6
CONTINUOUS
10
89.3233
20
-79.994
11
89.3233
21
-79.994
0
LINE
8
BLACK
6
CONTINUOUS
10
89.3233
20
-79.994
11
89.389
21
-79.9247
0
LINE
8
BLACK
6
CONTINUOUS
10
89.389
20
-79.9247
11
89.389
21
-79.9246
0
LINE
8
BLACK
6
CONTINUOUS
10
89.389
20
-79.9246
11
89.389
21
-79.9246
0
LINE
8
BLACK
6
CONTINUOUS
10
89.389
20
-79.9246
11
89.4635
21
-79.8475
0
LINE
8
BLACK
6
CONTINUOUS
10
89.4635
20
-79.8475
11
89.4636
21
-79.8475
0
LINE
8
BLACK
6
CONTINUOUS
10
89.4636
20
-79.8475
11
89.4636
21
-79.8474
0
LINE
8
BLACK
6
CONTINUOUS
10
89.4636
20
-79.8474
11
89.5425
21
-79.7669
0
LINE
8
BLACK
6
CONTINUOUS
10
89.5425
20
-79.7669
11
89.5425
21
-79.7669
0
LINE
8
BLACK
6
CONTINUOUS
10
89.5425
20
-79.7669
11
89.5425
21
-79.7669
0
LINE
8
BLACK
6
CONTINUOUS
10
89.5425
20
-79.7669
11
89.6215
21
-79.6875
0
LINE
8
BLACK
6
CONTINUOUS
10
89.6215
20
-79.6875
11
89.6215
21
-79.6875
0
LINE
8
BLACK
6
CONTINUOUS
10
89.6215
20
-79.6875
11
89.6215
21
-79.6875
0
LINE
8
BLACK
6
CONTINUOUS
10
89.6215
20
-79.6875
11
89.696
21
-79.6138
0
LINE
8
BLACK
6
CONTINUOUS
10
89.696
20
-79.6138
11
89.696
21
-79.6138
0
LINE
8
BLACK
6
CONTINUOUS
10
89.696
20
-79.6138
11
89.696
21
-79.6138
0
LINE
8
BLACK
6
CONTINUOUS
10
89.696
20
-79.6138
11
89.7616
21
-79.5502
0
LINE
8
BLACK
6
CONTINUOUS
10
89.7616
20
-79.5502
11
89.7617
21
-79.5502
0
LINE
8
BLACK
6
CONTINUOUS
10
89.7617
20
-79.5502
11
89.7617
21
-79.5501
0
LINE
8
BLACK
6
CONTINUOUS
10
89.7617
20
-79.5501
11
89.814
21
-79.5011
0
LINE
8
BLACK
6
CONTINUOUS
10
89.814
20
-79.5011
11
89.8141
21
-79.5011
0
LINE
8
BLACK
6
CONTINUOUS
10
89.8141
20
-79.5011
11
89.8141
21
-79.501
0
LINE
8
BLACK
6
CONTINUOUS
10
89.8141
20
-79.501
11
89.8487
21
-79.4712
0
LINE
8
BLACK
6
CONTINUOUS
10
89.8487
20
-79.4712
11
89.8491
21
-79.471
0
LINE
8
BLACK
6
CONTINUOUS
10
89.8491
20
-79.471
11
89.8493
21
-79.4707
0
LINE
8
BLACK
6
CONTINUOUS
10
89.8493
20
-79.4707
11
89.8609
21
-79.4636
0
LINE
8
BLACK
6
CONTINUOUS
10
89.8609
20
-79.4636
11
89.8616
21
-79.4635
0
LINE
8
BLACK
6
CONTINUOUS
10
89.8616
20
-79.4635
11
89.8621
21
-79.4631
0
LINE
8
BLACK
6
CONTINUOUS
10
89.8621
20
-79.4631
11
89.8634
21
-79.4632
0
LINE
8
BLACK
6
CONTINUOUS
10
89.8634
20
-79.4632
11
89.8647
21
-79.463
0
LINE
8
BLACK
6
CONTINUOUS
10
89.8647
20
-79.463
11
89.8652
21
-79.4634
0
LINE
8
BLACK
6
CONTINUOUS
10
89.8652
20
-79.4634
11
89.8659
21
-79.4634
0
LINE
8
BLACK
6
CONTINUOUS
10
89.8659
20
-79.4634
11
89.8847
21
-79.4734
0
LINE
8
BLACK
6
CONTINUOUS
10
89.8847
20
-79.4734
11
89.8848
21
-79.4736
0
LINE
8
BLACK
6
CONTINUOUS
10
89.8848
20
-79.4736
11
89.885
21
-79.4736
0
LINE
8
BLACK
6
CONTINUOUS
10
89.885
20
-79.4736
11
89.93
21
-79.5017
0
LINE
8
BLACK
6
CONTINUOUS
10
89.93
20
-79.5017
11
89.93
21
-79.5018
0
LINE
8
BLACK
6
CONTINUOUS
10
89.93
20
-79.5018
11
89.9301
21
-79.5018
0
LINE
8
BLACK
6
CONTINUOUS
10
89.9301
20
-79.5018
11
89.9969
21
-79.5452
0
LINE
8
BLACK
6
CONTINUOUS
10
89.9969
20
-79.5452
11
89.9969
21
-79.5452
0
LINE
8
BLACK
6
CONTINUOUS
10
89.9969
20
-79.5452
11
89.997
21
-79.5452
0
LINE
8
BLACK
6
CONTINUOUS
10
89.997
20
-79.5452
11
90.0813
21
-79.601
0
LINE
8
BLACK
6
CONTINUOUS
10
90.0813
20
-79.601
11
90.0813
21
-79.601
0
LINE
8
BLACK
6
CONTINUOUS
10
90.0813
20
-79.601
11
90.0813
21
-79.601
0
LINE
8
BLACK
6
CONTINUOUS
10
90.0813
20
-79.601
11
90.1786
21
-79.6663
0
LINE
8
BLACK
6
CONTINUOUS
10
90.1786
20
-79.6663
11
90.1786
21
-79.6663
0
LINE
8
BLACK
6
CONTINUOUS
10
90.1786
20
-79.6663
11
90.1787
21
-79.6663
0
LINE
8
BLACK
6
CONTINUOUS
10
90.1787
20
-79.6663
11
90.2521
21
-79.716
0
LINE
8
BLACK
6
CONTINUOUS
10
90.2521
20
-79.716
11
90.2521
21
-79.716
0
LINE
8
BLACK
6
CONTINUOUS
10
90.2521
20
-79.716
11
90.2521
21
-79.716
0
LINE
8
BLACK
6
CONTINUOUS
10
90.2521
20
-79.716
11
90.6209
21
-79.9668
0
LINE
8
BLACK
6
CONTINUOUS
10
90.6209
20
-79.9668
11
91.2345
21
-79.7139
0
LINE
8
BLACK
6
CONTINUOUS
10
91.2345
20
-79.7139
11
91.3178
21
-79.2719
0
LINE
8
BLACK
6
CONTINUOUS
10
91.3178
20
-79.2719
11
91.4016
21
-78.8273
0
LINE
8
BLACK
6
CONTINUOUS
10
91.4016
20
-78.8273
11
91.4024
21
-78.826
0
LINE
8
BLACK
6
CONTINUOUS
10
91.4024
20
-78.826
11
91.403
21
-78.8247
0
LINE
8
BLACK
6
CONTINUOUS
10
91.403
20
-78.8247
11
91.4035
21
-78.8245
0
LINE
8
BLACK
6
CONTINUOUS
10
91.4035
20
-78.8245
11
91.4037
21
-78.8241
0
LINE
8
BLACK
6
CONTINUOUS
10
91.4037
20
-78.8241
11
91.4052
21
-78.8238
0
LINE
8
BLACK
6
CONTINUOUS
10
91.4052
20
-78.8238
11
91.4065
21
-78.8232
0
LINE
8
BLACK
6
CONTINUOUS
10
91.4065
20
-78.8232
11
92.332
21
-78.8232
0
LINE
8
BLACK
6
CONTINUOUS
10
92.332
20
-78.8232
11
92.3334
21
-78.8238
0
LINE
8
BLACK
6
CONTINUOUS
10
85.2628
20
-37.3002
11
85.2452
21
-37.2578
0
LINE
8
BLACK
6
CONTINUOUS
10
85.2452
20
-37.2578
11
85.2452
21
-34.8448
0
LINE
8
BLACK
6
CONTINUOUS
10
85.2452
20
-34.8448
11
85.2628
21
-34.8023
0
LINE
8
BLACK
6
CONTINUOUS
10
85.2628
20
-34.8023
11
85.3052
21
-34.7848
0
LINE
8
BLACK
6
CONTINUOUS
10
85.3052
20
-34.7848
11
95.0842
21
-34.7848
0
LINE
8
BLACK
6
CONTINUOUS
10
95.0842
20
-34.7848
11
95.1267
21
-34.8023
0
LINE
8
BLACK
6
CONTINUOUS
10
95.1267
20
-34.8023
11
95.1442
21
-34.8448
0
LINE
8
BLACK
6
CONTINUOUS
10
95.1442
20
-34.8448
11
95.1442
21
-37.2578
0
LINE
8
BLACK
6
CONTINUOUS
10
95.1442
20
-37.2578
11
95.1267
21
-37.3002
0
LINE
8
BLACK
6
CONTINUOUS
10
95.1267
20
-37.3002
11
95.0842
21
-37.3178
0
LINE
8
BLACK
6
CONTINUOUS
10
95.0842
20
-37.3178
11
85.3052
21
-37.3178
0
LINE
8
BLACK
6
CONTINUOUS
10
85.3052
20
-37.3178
11
85.2628
21
-37.3002
0
LINE
8
BLACK
6
CONTINUOUS
10
85.3652
20
-34.9048
11
85.3652
21
-37.1978
0
LINE
8
BLACK
6
CONTINUOUS
10
85.3652
20
-37.1978
11
95.0242
21
-37.1978
0
LINE
8
BLACK
6
CONTINUOUS
10
95.0242
20
-37.1978
11
95.0242
21
-34.9048
0
LINE
8
BLACK
6
CONTINUOUS
10
95.0242
20
-34.9048
11
85.3652
21
-34.9048
0
LINE
8
BLACK
6
CONTINUOUS
10
105.499
20
-86.1156
11
105.565
21
-85.9426
0
LINE
8
BLACK
6
CONTINUOUS
10
105.565
20
-85.9426
11
105.667
21
-85.814
0
LINE
8
BLACK
6
CONTINUOUS
10
105.667
20
-85.814
11
105.8
21
-85.7267
0
LINE
8
BLACK
6
CONTINUOUS
10
105.8
20
-85.7267
11
105.957
21
-85.6767
0
LINE
8
BLACK
6
CONTINUOUS
10
105.957
20
-85.6767
11
106.135
21
-85.66
0
LINE
8
BLACK
6
CONTINUOUS
10
106.135
20
-85.66
11
106.313
21
-85.6767
0
LINE
8
BLACK
6
CONTINUOUS
10
106.313
20
-85.6767
11
106.471
21
-85.7267
0
LINE
8
BLACK
6
CONTINUOUS
10
106.471
20
-85.7267
11
106.605
21
-85.814
0
LINE
8
BLACK
6
CONTINUOUS
10
106.605
20
-85.814
11
106.709
21
-85.9426
0
LINE
8
BLACK
6
CONTINUOUS
10
106.709
20
-85.9426
11
106.776
21
-86.1156
0
LINE
8
BLACK
6
CONTINUOUS
10
106.776
20
-86.1156
11
106.798
21
-86.3363
0
LINE
8
BLACK
6
CONTINUOUS
10
106.798
20
-86.3363
11
106.798
21
-87.3205
0
LINE
8
BLACK
6
CONTINUOUS
10
106.798
20
-87.3205
11
106.776
21
-87.5436
0
LINE
8
BLACK
6
CONTINUOUS
10
106.776
20
-87.5436
11
106.709
21
-87.7174
0
LINE
8
BLACK
6
CONTINUOUS
10
106.709
20
-87.7174
11
106.605
21
-87.846
0
LINE
8
BLACK
6
CONTINUOUS
10
106.605
20
-87.846
11
106.471
21
-87.9333
0
LINE
8
BLACK
6
CONTINUOUS
10
106.471
20
-87.9333
11
106.228
21
-88
0
LINE
8
BLACK
6
CONTINUOUS
10
106.228
20
-88
11
106.043
21
-88
0
LINE
8
BLACK
6
CONTINUOUS
10
106.043
20
-88
11
105.801
21
-87.9333
0
LINE
8
BLACK
6
CONTINUOUS
10
105.801
20
-87.9333
11
105.668
21
-87.846
0
LINE
8
BLACK
6
CONTINUOUS
10
105.668
20
-87.846
11
105.565
21
-87.7174
0
LINE
8
BLACK
6
CONTINUOUS
10
105.565
20
-87.7174
11
105.499
21
-87.5436
0
LINE
8
BLACK
6
CONTINUOUS
10
105.499
20
-87.5436
11
105.477
21
-87.3205
0
LINE
8
BLACK
6
CONTINUOUS
10
105.477
20
-87.3205
11
105.477
21
-86.3363
0
LINE
8
BLACK
6
CONTINUOUS
10
105.477
20
-86.3363
11
105.499
21
-86.1156
0
LINE
8
BLACK
6
CONTINUOUS
10
105.805
20
-87.6888
11
105.946
21
-87.7769
0
LINE
8
BLACK
6
CONTINUOUS
10
105.946
20
-87.7769
11
106.135
21
-87.8063
0
LINE
8
BLACK
6
CONTINUOUS
10
106.135
20
-87.8063
11
106.324
21
-87.7769
0
LINE
8
BLACK
6
CONTINUOUS
10
106.324
20
-87.7769
11
106.468
21
-87.6888
0
LINE
8
BLACK
6
CONTINUOUS
10
106.468
20
-87.6888
11
106.559
21
-87.538
0
LINE
8
BLACK
6
CONTINUOUS
10
106.559
20
-87.538
11
106.589
21
-87.3205
0
LINE
8
BLACK
6
CONTINUOUS
10
106.589
20
-87.3205
11
106.589
21
-86.3363
0
LINE
8
BLACK
6
CONTINUOUS
10
106.589
20
-86.3363
11
106.559
21
-86.1212
0
LINE
8
BLACK
6
CONTINUOUS
10
106.559
20
-86.1212
11
106.468
21
-85.9712
0
LINE
8
BLACK
6
CONTINUOUS
10
106.468
20
-85.9712
11
106.324
21
-85.8831
0
LINE
8
BLACK
6
CONTINUOUS
10
106.324
20
-85.8831
11
106.135
21
-85.8537
0
LINE
8
BLACK
6
CONTINUOUS
10
106.135
20
-85.8537
11
105.946
21
-85.8831
0
LINE
8
BLACK
6
CONTINUOUS
10
105.946
20
-85.8831
11
105.805
21
-85.9712
0
LINE
8
BLACK
6
CONTINUOUS
10
105.805
20
-85.9712
11
105.716
21
-86.1212
0
LINE
8
BLACK
6
CONTINUOUS
10
105.716
20
-86.1212
11
105.687
21
-86.3363
0
LINE
8
BLACK
6
CONTINUOUS
10
105.687
20
-86.3363
11
105.687
21
-87.3205
0
LINE
8
BLACK
6
CONTINUOUS
10
105.687
20
-87.3205
11
105.716
21
-87.538
0
LINE
8
BLACK
6
CONTINUOUS
10
105.716
20
-87.538
11
105.805
21
-87.6888
0
LINE
8
BLACK
6
CONTINUOUS
10
106.22
20
-86.749
11
106.252
21
-86.8316
0
LINE
8
BLACK
6
CONTINUOUS
10
106.252
20
-86.8316
11
106.22
21
-86.9141
0
LINE
8
BLACK
6
CONTINUOUS
10
106.22
20
-86.9141
11
106.138
21
-86.9491
0
LINE
8
BLACK
6
CONTINUOUS
10
106.138
20
-86.9491
11
106.054
21
-86.9141
0
LINE
8
BLACK
6
CONTINUOUS
10
106.054
20
-86.9141
11
106.02
21
-86.8316
0
LINE
8
BLACK
6
CONTINUOUS
10
106.02
20
-86.8316
11
106.054
21
-86.749
0
LINE
8
BLACK
6
CONTINUOUS
10
106.054
20
-86.749
11
106.138
21
-86.7173
0
LINE
8
BLACK
6
CONTINUOUS
10
106.138
20
-86.7173
11
106.22
21
-86.749
0
LINE
8
BLACK
6
CONTINUOUS
10
107.852
20
-81.2771
11
107.913
21
-80.8822
0
LINE
8
BLACK
6
CONTINUOUS
10
107.913
20
-80.8822
11
108.015
21
-80.4956
0
LINE
8
BLACK
6
CONTINUOUS
10
108.015
20
-80.4956
11
108.155
21
-80.1213
0
LINE
8
BLACK
6
CONTINUOUS
10
108.155
20
-80.1213
11
108.332
21
-79.763
0
LINE
8
BLACK
6
CONTINUOUS
10
108.332
20
-79.763
11
108.544
21
-79.4244
0
LINE
8
BLACK
6
CONTINUOUS
10
108.544
20
-79.4244
11
108.79
21
-79.109
0
LINE
8
BLACK
6
CONTINUOUS
10
108.79
20
-79.109
11
109.066
21
-78.82
0
LINE
8
BLACK
6
CONTINUOUS
10
109.066
20
-78.82
11
109.37
21
-78.5605
0
LINE
8
BLACK
6
CONTINUOUS
10
109.37
20
-78.5605
11
109.699
21
-78.3329
0
LINE
8
BLACK
6
CONTINUOUS
10
109.699
20
-78.3329
11
110.048
21
-78.1398
0
LINE
8
BLACK
6
CONTINUOUS
10
110.048
20
-78.1398
11
110.416
21
-77.983
0
LINE
8
BLACK
6
CONTINUOUS
10
110.416
20
-77.983
11
110.798
21
-77.8641
0
LINE
8
BLACK
6
CONTINUOUS
10
110.798
20
-77.8641
11
111.189
21
-77.7844
0
LINE
8
BLACK
6
CONTINUOUS
10
111.189
20
-77.7844
11
111.587
21
-77.7447
0
LINE
8
BLACK
6
CONTINUOUS
10
111.587
20
-77.7447
11
111.987
21
-77.7454
0
LINE
8
BLACK
6
CONTINUOUS
10
111.987
20
-77.7454
11
112.384
21
-77.7865
0
LINE
8
BLACK
6
CONTINUOUS
10
112.384
20
-77.7865
11
112.776
21
-77.8675
0
LINE
8
BLACK
6
CONTINUOUS
10
112.776
20
-77.8675
11
113.157
21
-77.9877
0
LINE
8
BLACK
6
CONTINUOUS
10
113.157
20
-77.9877
11
113.524
21
-78.1458
0
LINE
8
BLACK
6
CONTINUOUS
10
113.524
20
-78.1458
11
113.873
21
-78.3402
0
LINE
8
BLACK
6
CONTINUOUS
10
113.873
20
-78.3402
11
114.201
21
-78.5689
0
LINE
8
BLACK
6
CONTINUOUS
10
114.201
20
-78.5689
11
114.504
21
-78.8295
0
LINE
8
BLACK
6
CONTINUOUS
10
114.504
20
-78.8295
11
114.779
21
-79.1194
0
LINE
8
BLACK
6
CONTINUOUS
10
114.779
20
-79.1194
11
115.024
21
-79.4357
0
LINE
8
BLACK
6
CONTINUOUS
10
115.024
20
-79.4357
11
115.235
21
-79.775
0
LINE
8
BLACK
6
CONTINUOUS
10
115.235
20
-79.775
11
115.411
21
-80.1339
0
LINE
8
BLACK
6
CONTINUOUS
10
115.411
20
-80.1339
11
115.549
21
-80.5088
0
LINE
8
BLACK
6
CONTINUOUS
10
115.549
20
-80.5088
11
115.649
21
-80.8957
0
LINE
8
BLACK
6
CONTINUOUS
10
115.649
20
-80.8957
11
115.71
21
-81.2908
0
LINE
8
BLACK
6
CONTINUOUS
10
115.71
20
-81.2908
11
115.73
21
-81.69
0
LINE
8
BLACK
6
CONTINUOUS
10
115.73
20
-81.69
11
115.73
21
-81.7176
0
LINE
8
BLACK
6
CONTINUOUS
10
115.73
20
-81.7176
11
115.707
21
-82.1166
0
LINE
8
BLACK
6
CONTINUOUS
10
115.707
20
-82.1166
11
115.644
21
-82.5113
0
LINE
8
BLACK
6
CONTINUOUS
10
115.644
20
-82.5113
11
115.541
21
-82.8975
0
LINE
8
BLACK
6
CONTINUOUS
10
115.541
20
-82.8975
11
115.4
21
-83.2714
0
LINE
8
BLACK
6
CONTINUOUS
10
115.4
20
-83.2714
11
115.221
21
-83.6291
0
LINE
8
BLACK
6
CONTINUOUS
10
115.221
20
-83.6291
11
115.008
21
-83.9669
0
LINE
8
BLACK
6
CONTINUOUS
10
115.008
20
-83.9669
11
114.761
21
-84.2814
0
LINE
8
BLACK
6
CONTINUOUS
10
114.761
20
-84.2814
11
114.484
21
-84.5694
0
LINE
8
BLACK
6
CONTINUOUS
10
114.484
20
-84.5694
11
114.179
21
-84.8279
0
LINE
8
BLACK
6
CONTINUOUS
10
114.179
20
-84.8279
11
113.85
21
-85.0543
0
LINE
8
BLACK
6
CONTINUOUS
10
113.85
20
-85.0543
11
113.499
21
-85.2463
0
LINE
8
BLACK
6
CONTINUOUS
10
113.499
20
-85.2463
11
113.131
21
-85.4018
0
LINE
8
BLACK
6
CONTINUOUS
10
113.131
20
-85.4018
11
112.749
21
-85.5193
0
LINE
8
BLACK
6
CONTINUOUS
10
112.749
20
-85.5193
11
112.357
21
-85.5976
0
LINE
8
BLACK
6
CONTINUOUS
10
112.357
20
-85.5976
11
111.959
21
-85.6359
0
LINE
8
BLACK
6
CONTINUOUS
10
111.959
20
-85.6359
11
111.56
21
-85.6338
0
LINE
8
BLACK
6
CONTINUOUS
10
111.56
20
-85.6338
11
111.162
21
-85.5914
0
LINE
8
BLACK
6
CONTINUOUS
10
111.162
20
-85.5914
11
110.771
21
-85.509
0
LINE
8
BLACK
6
CONTINUOUS
10
110.771
20
-85.509
11
110.39
21
-85.3874
0
LINE
8
BLACK
6
CONTINUOUS
10
110.39
20
-85.3874
11
110.024
21
-85.2281
0
LINE
8
BLACK
6
CONTINUOUS
10
110.024
20
-85.2281
11
109.675
21
-85.0325
0
LINE
8
BLACK
6
CONTINUOUS
10
109.675
20
-85.0325
11
109.348
21
-84.8026
0
LINE
8
BLACK
6
CONTINUOUS
10
109.348
20
-84.8026
11
109.046
21
-84.541
0
LINE
8
BLACK
6
CONTINUOUS
10
109.046
20
-84.541
11
108.772
21
-84.2501
0
LINE
8
BLACK
6
CONTINUOUS
10
108.772
20
-84.2501
11
108.529
21
-83.933
0
LINE
8
BLACK
6
CONTINUOUS
10
108.529
20
-83.933
11
108.319
21
-83.5929
0
LINE
8
BLACK
6
CONTINUOUS
10
108.319
20
-83.5929
11
108.144
21
-83.2334
0
LINE
8
BLACK
6
CONTINUOUS
10
108.144
20
-83.2334
11
108.007
21
-82.858
0
LINE
8
BLACK
6
CONTINUOUS
10
108.007
20
-82.858
11
107.908
21
-82.4707
0
LINE
8
BLACK
6
CONTINUOUS
10
107.908
20
-82.4707
11
107.849
21
-82.0755
0
LINE
8
BLACK
6
CONTINUOUS
10
107.849
20
-82.0755
11
107.83
21
-81.6769
0
LINE
8
BLACK
6
CONTINUOUS
10
107.83
20
-81.6769
11
107.83
21
-81.6762
0
LINE
8
BLACK
6
CONTINUOUS
10
107.83
20
-81.6762
11
107.852
21
-81.2771
0
LINE
8
BLACK
6
CONTINUOUS
10
108.099
20
-82.4322
11
108.193
21
-82.8003
0
LINE
8
BLACK
6
CONTINUOUS
10
108.193
20
-82.8003
11
108.324
21
-83.1571
0
LINE
8
BLACK
6
CONTINUOUS
10
108.324
20
-83.1571
11
108.49
21
-83.4989
0
LINE
8
BLACK
6
CONTINUOUS
10
108.49
20
-83.4989
11
108.689
21
-83.8221
0
LINE
8
BLACK
6
CONTINUOUS
10
108.689
20
-83.8221
11
108.921
21
-84.1236
0
LINE
8
BLACK
6
CONTINUOUS
10
108.921
20
-84.1236
11
109.181
21
-84.4001
0
LINE
8
BLACK
6
CONTINUOUS
10
109.181
20
-84.4001
11
109.468
21
-84.6488
0
LINE
8
BLACK
6
CONTINUOUS
10
109.468
20
-84.6488
11
109.779
21
-84.8673
0
LINE
8
BLACK
6
CONTINUOUS
10
109.779
20
-84.8673
11
110.11
21
-85.0532
0
LINE
8
BLACK
6
CONTINUOUS
10
110.11
20
-85.0532
11
110.459
21
-85.2047
0
LINE
8
BLACK
6
CONTINUOUS
10
110.459
20
-85.2047
11
110.821
21
-85.3202
0
LINE
8
BLACK
6
CONTINUOUS
10
110.821
20
-85.3202
11
111.193
21
-85.3986
0
LINE
8
BLACK
6
CONTINUOUS
10
111.193
20
-85.3986
11
111.57
21
-85.439
0
LINE
8
BLACK
6
CONTINUOUS
10
111.57
20
-85.439
11
111.95
21
-85.441
0
LINE
8
BLACK
6
CONTINUOUS
10
111.95
20
-85.441
11
112.329
21
-85.4045
0
LINE
8
BLACK
6
CONTINUOUS
10
112.329
20
-85.4045
11
112.701
21
-85.3301
0
LINE
8
BLACK
6
CONTINUOUS
10
112.701
20
-85.3301
11
113.064
21
-85.2184
0
LINE
8
BLACK
6
CONTINUOUS
10
113.064
20
-85.2184
11
113.414
21
-85.0705
0
LINE
8
BLACK
6
CONTINUOUS
10
113.414
20
-85.0705
11
113.747
21
-84.8881
0
LINE
8
BLACK
6
CONTINUOUS
10
113.747
20
-84.8881
11
114.061
21
-84.6729
0
LINE
8
BLACK
6
CONTINUOUS
10
114.061
20
-84.6729
11
114.35
21
-84.4271
0
LINE
8
BLACK
6
CONTINUOUS
10
114.35
20
-84.4271
11
114.614
21
-84.1534
0
LINE
8
BLACK
6
CONTINUOUS
10
114.614
20
-84.1534
11
114.848
21
-83.8544
0
LINE
8
BLACK
6
CONTINUOUS
10
114.848
20
-83.8544
11
115.051
21
-83.5333
0
LINE
8
BLACK
6
CONTINUOUS
10
115.051
20
-83.5333
11
115.221
21
-83.1932
0
LINE
8
BLACK
6
CONTINUOUS
10
115.221
20
-83.1932
11
115.355
21
-82.8378
0
LINE
8
BLACK
6
CONTINUOUS
10
115.355
20
-82.8378
11
115.453
21
-82.4707
0
LINE
8
BLACK
6
CONTINUOUS
10
115.453
20
-82.4707
11
115.513
21
-82.0955
0
LINE
8
BLACK
6
CONTINUOUS
10
115.513
20
-82.0955
11
115.535
21
-81.7162
0
LINE
8
BLACK
6
CONTINUOUS
10
115.535
20
-81.7162
11
115.535
21
-81.69
0
LINE
8
BLACK
6
CONTINUOUS
10
115.535
20
-81.69
11
115.516
21
-81.3106
0
LINE
8
BLACK
6
CONTINUOUS
10
115.516
20
-81.3106
11
115.458
21
-80.935
0
LINE
8
BLACK
6
CONTINUOUS
10
115.458
20
-80.935
11
115.363
21
-80.5672
0
LINE
8
BLACK
6
CONTINUOUS
10
115.363
20
-80.5672
11
115.231
21
-80.2108
0
LINE
8
BLACK
6
CONTINUOUS
10
115.231
20
-80.2108
11
115.064
21
-79.8696
0
LINE
8
BLACK
6
CONTINUOUS
10
115.064
20
-79.8696
11
114.863
21
-79.5471
0
LINE
8
BLACK
6
CONTINUOUS
10
114.863
20
-79.5471
11
114.631
21
-79.2465
0
LINE
8
BLACK
6
CONTINUOUS
10
114.631
20
-79.2465
11
114.369
21
-78.9709
0
LINE
8
BLACK
6
CONTINUOUS
10
114.369
20
-78.9709
11
114.081
21
-78.7231
0
LINE
8
BLACK
6
CONTINUOUS
10
114.081
20
-78.7231
11
113.77
21
-78.5057
0
LINE
8
BLACK
6
CONTINUOUS
10
113.77
20
-78.5057
11
113.438
21
-78.321
0
LINE
8
BLACK
6
CONTINUOUS
10
113.438
20
-78.321
11
113.089
21
-78.1707
0
LINE
8
BLACK
6
CONTINUOUS
10
113.089
20
-78.1707
11
112.726
21
-78.0564
0
LINE
8
BLACK
6
CONTINUOUS
10
112.726
20
-78.0564
11
112.354
21
-77.9794
0
LINE
8
BLACK
6
CONTINUOUS
10
112.354
20
-77.9794
11
111.977
21
-77.9403
0
LINE
8
BLACK
6
CONTINUOUS
10
111.977
20
-77.9403
11
111.597
21
-77.9397
0
LINE
8
BLACK
6
CONTINUOUS
10
111.597
20
-77.9397
11
111.219
21
-77.9774
0
LINE
8
BLACK
6
CONTINUOUS
10
111.219
20
-77.9774
11
110.846
21
-78.0531
0
LINE
8
BLACK
6
CONTINUOUS
10
110.846
20
-78.0531
11
110.483
21
-78.1661
0
LINE
8
BLACK
6
CONTINUOUS
10
110.483
20
-78.1661
11
110.134
21
-78.3152
0
LINE
8
BLACK
6
CONTINUOUS
10
110.134
20
-78.3152
11
109.801
21
-78.4988
0
LINE
8
BLACK
6
CONTINUOUS
10
109.801
20
-78.4988
11
109.489
21
-78.7151
0
LINE
8
BLACK
6
CONTINUOUS
10
109.489
20
-78.7151
11
109.2
21
-78.9618
0
LINE
8
BLACK
6
CONTINUOUS
10
109.2
20
-78.9618
11
108.938
21
-79.2365
0
LINE
8
BLACK
6
CONTINUOUS
10
108.938
20
-79.2365
11
108.704
21
-79.5363
0
LINE
8
BLACK
6
CONTINUOUS
10
108.704
20
-79.5363
11
108.502
21
-79.8582
0
LINE
8
BLACK
6
CONTINUOUS
10
108.502
20
-79.8582
11
108.334
21
-80.1988
0
LINE
8
BLACK
6
CONTINUOUS
10
108.334
20
-80.1988
11
108.201
21
-80.5547
0
LINE
8
BLACK
6
CONTINUOUS
10
108.201
20
-80.5547
11
108.105
21
-80.9222
0
LINE
8
BLACK
6
CONTINUOUS
10
108.105
20
-80.9222
11
108.046
21
-81.2975
0
LINE
8
BLACK
6
CONTINUOUS
10
108.046
20
-81.2975
11
108.025
21
-81.6769
0
LINE
8
BLACK
6
CONTINUOUS
10
108.025
20
-81.6769
11
108.043
21
-82.0564
0
LINE
8
BLACK
6
CONTINUOUS
10
108.043
20
-82.0564
11
108.099
21
-82.4322
  0
ENDSEC
  0
EOF
