G04 #@! TF.GenerationSoftware,KiCad,Pcbnew,7.0.0-da2b9df05c~165~ubuntu22.04.1*
G04 #@! TF.CreationDate,2023-04-26T22:06:21+00:00*
G04 #@! TF.ProjectId,pcb-panel,7063622d-7061-46e6-956c-2e6b69636164,5.0*
G04 #@! TF.SameCoordinates,Original*
G04 #@! TF.FileFunction,Legend,Bot*
G04 #@! TF.FilePolarity,Positive*
%FSLAX46Y46*%
G04 Gerber Fmt 4.6, Leading zero omitted, Abs format (unit mm)*
G04 Created by KiCad (PCBNEW 7.0.0-da2b9df05c~165~ubuntu22.04.1) date 2023-04-26 22:06:21*
%MOMM*%
%LPD*%
G01*
G04 APERTURE LIST*
%ADD10C,0.120000*%
%ADD11C,0.160000*%
%ADD12C,0.200000*%
%ADD13C,0.010000*%
G04 APERTURE END LIST*
D10*
X40645634Y106995205D02*
X40455158Y106461872D01*
X40455158Y106461872D02*
X40264681Y106995205D01*
X39578967Y107261872D02*
X39959919Y107261872D01*
X39959919Y107261872D02*
X39998015Y106880919D01*
X39998015Y106880919D02*
X39959919Y106919015D01*
X39959919Y106919015D02*
X39883729Y106957110D01*
X39883729Y106957110D02*
X39693253Y106957110D01*
X39693253Y106957110D02*
X39617062Y106919015D01*
X39617062Y106919015D02*
X39578967Y106880919D01*
X39578967Y106880919D02*
X39540872Y106804729D01*
X39540872Y106804729D02*
X39540872Y106614253D01*
X39540872Y106614253D02*
X39578967Y106538062D01*
X39578967Y106538062D02*
X39617062Y106499967D01*
X39617062Y106499967D02*
X39693253Y106461872D01*
X39693253Y106461872D02*
X39883729Y106461872D01*
X39883729Y106461872D02*
X39959919Y106499967D01*
X39959919Y106499967D02*
X39998015Y106538062D01*
X39198014Y106538062D02*
X39159919Y106499967D01*
X39159919Y106499967D02*
X39198014Y106461872D01*
X39198014Y106461872D02*
X39236110Y106499967D01*
X39236110Y106499967D02*
X39198014Y106538062D01*
X39198014Y106538062D02*
X39198014Y106461872D01*
X38664681Y107261872D02*
X38588491Y107261872D01*
X38588491Y107261872D02*
X38512300Y107223776D01*
X38512300Y107223776D02*
X38474205Y107185681D01*
X38474205Y107185681D02*
X38436110Y107109491D01*
X38436110Y107109491D02*
X38398015Y106957110D01*
X38398015Y106957110D02*
X38398015Y106766634D01*
X38398015Y106766634D02*
X38436110Y106614253D01*
X38436110Y106614253D02*
X38474205Y106538062D01*
X38474205Y106538062D02*
X38512300Y106499967D01*
X38512300Y106499967D02*
X38588491Y106461872D01*
X38588491Y106461872D02*
X38664681Y106461872D01*
X38664681Y106461872D02*
X38740872Y106499967D01*
X38740872Y106499967D02*
X38778967Y106538062D01*
X38778967Y106538062D02*
X38817062Y106614253D01*
X38817062Y106614253D02*
X38855158Y106766634D01*
X38855158Y106766634D02*
X38855158Y106957110D01*
X38855158Y106957110D02*
X38817062Y107109491D01*
X38817062Y107109491D02*
X38778967Y107185681D01*
X38778967Y107185681D02*
X38740872Y107223776D01*
X38740872Y107223776D02*
X38664681Y107261872D01*
X102645634Y106995205D02*
X102455158Y106461872D01*
X102455158Y106461872D02*
X102264681Y106995205D01*
X101578967Y107261872D02*
X101959919Y107261872D01*
X101959919Y107261872D02*
X101998015Y106880919D01*
X101998015Y106880919D02*
X101959919Y106919015D01*
X101959919Y106919015D02*
X101883729Y106957110D01*
X101883729Y106957110D02*
X101693253Y106957110D01*
X101693253Y106957110D02*
X101617062Y106919015D01*
X101617062Y106919015D02*
X101578967Y106880919D01*
X101578967Y106880919D02*
X101540872Y106804729D01*
X101540872Y106804729D02*
X101540872Y106614253D01*
X101540872Y106614253D02*
X101578967Y106538062D01*
X101578967Y106538062D02*
X101617062Y106499967D01*
X101617062Y106499967D02*
X101693253Y106461872D01*
X101693253Y106461872D02*
X101883729Y106461872D01*
X101883729Y106461872D02*
X101959919Y106499967D01*
X101959919Y106499967D02*
X101998015Y106538062D01*
X101198014Y106538062D02*
X101159919Y106499967D01*
X101159919Y106499967D02*
X101198014Y106461872D01*
X101198014Y106461872D02*
X101236110Y106499967D01*
X101236110Y106499967D02*
X101198014Y106538062D01*
X101198014Y106538062D02*
X101198014Y106461872D01*
X100664681Y107261872D02*
X100588491Y107261872D01*
X100588491Y107261872D02*
X100512300Y107223776D01*
X100512300Y107223776D02*
X100474205Y107185681D01*
X100474205Y107185681D02*
X100436110Y107109491D01*
X100436110Y107109491D02*
X100398015Y106957110D01*
X100398015Y106957110D02*
X100398015Y106766634D01*
X100398015Y106766634D02*
X100436110Y106614253D01*
X100436110Y106614253D02*
X100474205Y106538062D01*
X100474205Y106538062D02*
X100512300Y106499967D01*
X100512300Y106499967D02*
X100588491Y106461872D01*
X100588491Y106461872D02*
X100664681Y106461872D01*
X100664681Y106461872D02*
X100740872Y106499967D01*
X100740872Y106499967D02*
X100778967Y106538062D01*
X100778967Y106538062D02*
X100817062Y106614253D01*
X100817062Y106614253D02*
X100855158Y106766634D01*
X100855158Y106766634D02*
X100855158Y106957110D01*
X100855158Y106957110D02*
X100817062Y107109491D01*
X100817062Y107109491D02*
X100778967Y107185681D01*
X100778967Y107185681D02*
X100740872Y107223776D01*
X100740872Y107223776D02*
X100664681Y107261872D01*
X33354369Y29004801D02*
X33544845Y29538134D01*
X33544845Y29538134D02*
X33735322Y29004801D01*
X34421036Y28738134D02*
X34040084Y28738134D01*
X34040084Y28738134D02*
X34001988Y29119087D01*
X34001988Y29119087D02*
X34040084Y29080991D01*
X34040084Y29080991D02*
X34116274Y29042896D01*
X34116274Y29042896D02*
X34306750Y29042896D01*
X34306750Y29042896D02*
X34382941Y29080991D01*
X34382941Y29080991D02*
X34421036Y29119087D01*
X34421036Y29119087D02*
X34459131Y29195277D01*
X34459131Y29195277D02*
X34459131Y29385753D01*
X34459131Y29385753D02*
X34421036Y29461944D01*
X34421036Y29461944D02*
X34382941Y29500039D01*
X34382941Y29500039D02*
X34306750Y29538134D01*
X34306750Y29538134D02*
X34116274Y29538134D01*
X34116274Y29538134D02*
X34040084Y29500039D01*
X34040084Y29500039D02*
X34001988Y29461944D01*
X34801989Y29461944D02*
X34840084Y29500039D01*
X34840084Y29500039D02*
X34801989Y29538134D01*
X34801989Y29538134D02*
X34763893Y29500039D01*
X34763893Y29500039D02*
X34801989Y29461944D01*
X34801989Y29461944D02*
X34801989Y29538134D01*
X35335322Y28738134D02*
X35411512Y28738134D01*
X35411512Y28738134D02*
X35487703Y28776229D01*
X35487703Y28776229D02*
X35525798Y28814325D01*
X35525798Y28814325D02*
X35563893Y28890515D01*
X35563893Y28890515D02*
X35601988Y29042896D01*
X35601988Y29042896D02*
X35601988Y29233372D01*
X35601988Y29233372D02*
X35563893Y29385753D01*
X35563893Y29385753D02*
X35525798Y29461944D01*
X35525798Y29461944D02*
X35487703Y29500039D01*
X35487703Y29500039D02*
X35411512Y29538134D01*
X35411512Y29538134D02*
X35335322Y29538134D01*
X35335322Y29538134D02*
X35259131Y29500039D01*
X35259131Y29500039D02*
X35221036Y29461944D01*
X35221036Y29461944D02*
X35182941Y29385753D01*
X35182941Y29385753D02*
X35144845Y29233372D01*
X35144845Y29233372D02*
X35144845Y29042896D01*
X35144845Y29042896D02*
X35182941Y28890515D01*
X35182941Y28890515D02*
X35221036Y28814325D01*
X35221036Y28814325D02*
X35259131Y28776229D01*
X35259131Y28776229D02*
X35335322Y28738134D01*
X95354369Y29004801D02*
X95544845Y29538134D01*
X95544845Y29538134D02*
X95735322Y29004801D01*
X96421036Y28738134D02*
X96040084Y28738134D01*
X96040084Y28738134D02*
X96001988Y29119087D01*
X96001988Y29119087D02*
X96040084Y29080991D01*
X96040084Y29080991D02*
X96116274Y29042896D01*
X96116274Y29042896D02*
X96306750Y29042896D01*
X96306750Y29042896D02*
X96382941Y29080991D01*
X96382941Y29080991D02*
X96421036Y29119087D01*
X96421036Y29119087D02*
X96459131Y29195277D01*
X96459131Y29195277D02*
X96459131Y29385753D01*
X96459131Y29385753D02*
X96421036Y29461944D01*
X96421036Y29461944D02*
X96382941Y29500039D01*
X96382941Y29500039D02*
X96306750Y29538134D01*
X96306750Y29538134D02*
X96116274Y29538134D01*
X96116274Y29538134D02*
X96040084Y29500039D01*
X96040084Y29500039D02*
X96001988Y29461944D01*
X96801989Y29461944D02*
X96840084Y29500039D01*
X96840084Y29500039D02*
X96801989Y29538134D01*
X96801989Y29538134D02*
X96763893Y29500039D01*
X96763893Y29500039D02*
X96801989Y29461944D01*
X96801989Y29461944D02*
X96801989Y29538134D01*
X97335322Y28738134D02*
X97411512Y28738134D01*
X97411512Y28738134D02*
X97487703Y28776229D01*
X97487703Y28776229D02*
X97525798Y28814325D01*
X97525798Y28814325D02*
X97563893Y28890515D01*
X97563893Y28890515D02*
X97601988Y29042896D01*
X97601988Y29042896D02*
X97601988Y29233372D01*
X97601988Y29233372D02*
X97563893Y29385753D01*
X97563893Y29385753D02*
X97525798Y29461944D01*
X97525798Y29461944D02*
X97487703Y29500039D01*
X97487703Y29500039D02*
X97411512Y29538134D01*
X97411512Y29538134D02*
X97335322Y29538134D01*
X97335322Y29538134D02*
X97259131Y29500039D01*
X97259131Y29500039D02*
X97221036Y29461944D01*
X97221036Y29461944D02*
X97182941Y29385753D01*
X97182941Y29385753D02*
X97144845Y29233372D01*
X97144845Y29233372D02*
X97144845Y29042896D01*
X97144845Y29042896D02*
X97182941Y28890515D01*
X97182941Y28890515D02*
X97221036Y28814325D01*
X97221036Y28814325D02*
X97259131Y28776229D01*
X97259131Y28776229D02*
X97335322Y28738134D01*
D11*
X32746110Y107251872D02*
X32288967Y107251872D01*
X32417539Y106451872D02*
X32517539Y107251872D01*
X31708015Y106870919D02*
X31588967Y106832824D01*
X31588967Y106832824D02*
X31546110Y106794729D01*
X31546110Y106794729D02*
X31498491Y106718538D01*
X31498491Y106718538D02*
X31484205Y106604253D01*
X31484205Y106604253D02*
X31512776Y106528062D01*
X31512776Y106528062D02*
X31546110Y106489967D01*
X31546110Y106489967D02*
X31617538Y106451872D01*
X31617538Y106451872D02*
X31922300Y106451872D01*
X31922300Y106451872D02*
X32022300Y107251872D01*
X32022300Y107251872D02*
X31755634Y107251872D01*
X31755634Y107251872D02*
X31674681Y107213776D01*
X31674681Y107213776D02*
X31631824Y107175681D01*
X31631824Y107175681D02*
X31584205Y107099491D01*
X31584205Y107099491D02*
X31574681Y107023300D01*
X31574681Y107023300D02*
X31603253Y106947110D01*
X31603253Y106947110D02*
X31636586Y106909015D01*
X31636586Y106909015D02*
X31708015Y106870919D01*
X31708015Y106870919D02*
X31974681Y106870919D01*
X31122300Y106451872D02*
X31222300Y107251872D01*
X31222300Y107251872D02*
X31031824Y107251872D01*
X31031824Y107251872D02*
X30912776Y107213776D01*
X30912776Y107213776D02*
X30827062Y107137586D01*
X30827062Y107137586D02*
X30779443Y107061396D01*
X30779443Y107061396D02*
X30722300Y106909015D01*
X30722300Y106909015D02*
X30708015Y106794729D01*
X30708015Y106794729D02*
X30727062Y106642348D01*
X30727062Y106642348D02*
X30755634Y106566157D01*
X30755634Y106566157D02*
X30822300Y106489967D01*
X30822300Y106489967D02*
X30931824Y106451872D01*
X30931824Y106451872D02*
X31122300Y106451872D01*
X94746110Y107251872D02*
X94288967Y107251872D01*
X94417539Y106451872D02*
X94517539Y107251872D01*
X93708015Y106870919D02*
X93588967Y106832824D01*
X93588967Y106832824D02*
X93546110Y106794729D01*
X93546110Y106794729D02*
X93498491Y106718538D01*
X93498491Y106718538D02*
X93484205Y106604253D01*
X93484205Y106604253D02*
X93512776Y106528062D01*
X93512776Y106528062D02*
X93546110Y106489967D01*
X93546110Y106489967D02*
X93617538Y106451872D01*
X93617538Y106451872D02*
X93922300Y106451872D01*
X93922300Y106451872D02*
X94022300Y107251872D01*
X94022300Y107251872D02*
X93755634Y107251872D01*
X93755634Y107251872D02*
X93674681Y107213776D01*
X93674681Y107213776D02*
X93631824Y107175681D01*
X93631824Y107175681D02*
X93584205Y107099491D01*
X93584205Y107099491D02*
X93574681Y107023300D01*
X93574681Y107023300D02*
X93603253Y106947110D01*
X93603253Y106947110D02*
X93636586Y106909015D01*
X93636586Y106909015D02*
X93708015Y106870919D01*
X93708015Y106870919D02*
X93974681Y106870919D01*
X93122300Y106451872D02*
X93222300Y107251872D01*
X93222300Y107251872D02*
X93031824Y107251872D01*
X93031824Y107251872D02*
X92912776Y107213776D01*
X92912776Y107213776D02*
X92827062Y107137586D01*
X92827062Y107137586D02*
X92779443Y107061396D01*
X92779443Y107061396D02*
X92722300Y106909015D01*
X92722300Y106909015D02*
X92708015Y106794729D01*
X92708015Y106794729D02*
X92727062Y106642348D01*
X92727062Y106642348D02*
X92755634Y106566157D01*
X92755634Y106566157D02*
X92822300Y106489967D01*
X92822300Y106489967D02*
X92931824Y106451872D01*
X92931824Y106451872D02*
X93122300Y106451872D01*
X41253893Y28748134D02*
X41711036Y28748134D01*
X41582465Y29548134D02*
X41482465Y28748134D01*
X42291989Y29129087D02*
X42411036Y29167182D01*
X42411036Y29167182D02*
X42453893Y29205277D01*
X42453893Y29205277D02*
X42501512Y29281468D01*
X42501512Y29281468D02*
X42515798Y29395753D01*
X42515798Y29395753D02*
X42487227Y29471944D01*
X42487227Y29471944D02*
X42453893Y29510039D01*
X42453893Y29510039D02*
X42382465Y29548134D01*
X42382465Y29548134D02*
X42077703Y29548134D01*
X42077703Y29548134D02*
X41977703Y28748134D01*
X41977703Y28748134D02*
X42244369Y28748134D01*
X42244369Y28748134D02*
X42325322Y28786229D01*
X42325322Y28786229D02*
X42368179Y28824325D01*
X42368179Y28824325D02*
X42415798Y28900515D01*
X42415798Y28900515D02*
X42425322Y28976706D01*
X42425322Y28976706D02*
X42396750Y29052896D01*
X42396750Y29052896D02*
X42363417Y29090991D01*
X42363417Y29090991D02*
X42291989Y29129087D01*
X42291989Y29129087D02*
X42025322Y29129087D01*
X42877703Y29548134D02*
X42777703Y28748134D01*
X42777703Y28748134D02*
X42968179Y28748134D01*
X42968179Y28748134D02*
X43087227Y28786229D01*
X43087227Y28786229D02*
X43172941Y28862420D01*
X43172941Y28862420D02*
X43220560Y28938610D01*
X43220560Y28938610D02*
X43277703Y29090991D01*
X43277703Y29090991D02*
X43291989Y29205277D01*
X43291989Y29205277D02*
X43272941Y29357658D01*
X43272941Y29357658D02*
X43244369Y29433849D01*
X43244369Y29433849D02*
X43177703Y29510039D01*
X43177703Y29510039D02*
X43068179Y29548134D01*
X43068179Y29548134D02*
X42877703Y29548134D01*
X103253893Y28748134D02*
X103711036Y28748134D01*
X103582465Y29548134D02*
X103482465Y28748134D01*
X104291989Y29129087D02*
X104411036Y29167182D01*
X104411036Y29167182D02*
X104453893Y29205277D01*
X104453893Y29205277D02*
X104501512Y29281468D01*
X104501512Y29281468D02*
X104515798Y29395753D01*
X104515798Y29395753D02*
X104487227Y29471944D01*
X104487227Y29471944D02*
X104453893Y29510039D01*
X104453893Y29510039D02*
X104382465Y29548134D01*
X104382465Y29548134D02*
X104077703Y29548134D01*
X104077703Y29548134D02*
X103977703Y28748134D01*
X103977703Y28748134D02*
X104244369Y28748134D01*
X104244369Y28748134D02*
X104325322Y28786229D01*
X104325322Y28786229D02*
X104368179Y28824325D01*
X104368179Y28824325D02*
X104415798Y28900515D01*
X104415798Y28900515D02*
X104425322Y28976706D01*
X104425322Y28976706D02*
X104396750Y29052896D01*
X104396750Y29052896D02*
X104363417Y29090991D01*
X104363417Y29090991D02*
X104291989Y29129087D01*
X104291989Y29129087D02*
X104025322Y29129087D01*
X104877703Y29548134D02*
X104777703Y28748134D01*
X104777703Y28748134D02*
X104968179Y28748134D01*
X104968179Y28748134D02*
X105087227Y28786229D01*
X105087227Y28786229D02*
X105172941Y28862420D01*
X105172941Y28862420D02*
X105220560Y28938610D01*
X105220560Y28938610D02*
X105277703Y29090991D01*
X105277703Y29090991D02*
X105291989Y29205277D01*
X105291989Y29205277D02*
X105272941Y29357658D01*
X105272941Y29357658D02*
X105244369Y29433849D01*
X105244369Y29433849D02*
X105177703Y29510039D01*
X105177703Y29510039D02*
X105068179Y29548134D01*
X105068179Y29548134D02*
X104877703Y29548134D01*
D12*
G04 #@! TO.C,G\u002A\u002A\u002A*
X115477227Y61084229D02*
G75*
G03*
X115477227Y61084229I-3850000J0D01*
G01*
X28222777Y74915776D02*
G75*
G03*
X28222777Y74915776I-3850000J0D01*
G01*
X90222777Y74915776D02*
G75*
G03*
X90222777Y74915776I-3850000J0D01*
G01*
X53477227Y61084229D02*
G75*
G03*
X53477227Y61084229I-3850000J0D01*
G01*
G36*
X34797178Y106884732D02*
G01*
X34855229Y106846682D01*
X34873996Y106780883D01*
X34840516Y106724379D01*
X34802663Y106707403D01*
X34744113Y106724080D01*
X34722777Y106808137D01*
X34733723Y106852585D01*
X34784033Y106885776D01*
X34797178Y106884732D01*
G37*
G36*
X33997178Y106884732D02*
G01*
X34055229Y106846682D01*
X34073996Y106780883D01*
X34040516Y106724379D01*
X34002663Y106707403D01*
X33944113Y106724080D01*
X33922777Y106808137D01*
X33933723Y106852585D01*
X33984033Y106885776D01*
X33997178Y106884732D01*
G37*
G36*
X33197178Y106884732D02*
G01*
X33255229Y106846682D01*
X33273996Y106780883D01*
X33240516Y106724379D01*
X33202663Y106707403D01*
X33144113Y106724080D01*
X33122777Y106808137D01*
X33133723Y106852585D01*
X33184033Y106885776D01*
X33197178Y106884732D01*
G37*
G36*
X31242777Y108085776D02*
G01*
X36684043Y108085776D01*
X36662777Y110305776D01*
X32042777Y110326426D01*
X32042777Y110565776D01*
X36922777Y110565776D01*
X36922777Y109212443D01*
X36922348Y108971413D01*
X36920511Y108668191D01*
X36917396Y108397705D01*
X36913189Y108169410D01*
X36908073Y107992757D01*
X36902233Y107877198D01*
X36895853Y107832185D01*
X36858523Y107828250D01*
X36746937Y107824444D01*
X36567543Y107821152D01*
X36326683Y107818410D01*
X36030698Y107816255D01*
X35685929Y107814721D01*
X35298719Y107813844D01*
X34875409Y107813661D01*
X34422339Y107814207D01*
X33945853Y107815519D01*
X31022777Y107825776D01*
X31001727Y110565776D01*
X31242777Y110565776D01*
X31242777Y108085776D01*
G37*
G36*
X35882777Y106285776D02*
G01*
X35582777Y106285776D01*
X35467615Y106287151D01*
X35355282Y106295551D01*
X35298493Y106314128D01*
X35282777Y106345776D01*
X35301799Y106381488D01*
X35370104Y106400390D01*
X35502777Y106405776D01*
X35722777Y106405776D01*
X35722777Y106765776D01*
X35499444Y106765776D01*
X35367337Y106774500D01*
X35294757Y106798729D01*
X35296181Y106829839D01*
X35370330Y106859122D01*
X35515922Y106877867D01*
X35631523Y106886506D01*
X35695726Y106904867D01*
X35719391Y106947090D01*
X35722777Y107027867D01*
X35722777Y107165776D01*
X35502777Y107165776D01*
X35371834Y107170964D01*
X35302529Y107189593D01*
X35282777Y107225776D01*
X35289651Y107248809D01*
X35331649Y107271276D01*
X35424536Y107282633D01*
X35582777Y107285776D01*
X35882777Y107285776D01*
X35882777Y106285776D01*
G37*
G36*
X32506795Y107271641D02*
G01*
X32605984Y107233127D01*
X32642777Y107176448D01*
X32621519Y107136006D01*
X32542777Y107135567D01*
X32442777Y107154683D01*
X32442777Y106780230D01*
X32442795Y106724855D01*
X32444251Y106569732D01*
X32450945Y106475359D01*
X32466911Y106426638D01*
X32496177Y106408476D01*
X32542777Y106405776D01*
X32608005Y106394033D01*
X32642777Y106345776D01*
X32638695Y106326992D01*
X32601974Y106301993D01*
X32514906Y106289305D01*
X32362777Y106285776D01*
X32275118Y106286651D01*
X32158453Y106294520D01*
X32099244Y106313177D01*
X32082777Y106345776D01*
X32102350Y106384913D01*
X32182777Y106405776D01*
X32282777Y106405776D01*
X32282777Y106845776D01*
X32282959Y106971589D01*
X32285272Y107121784D01*
X32292565Y107214349D01*
X32307682Y107263182D01*
X32333471Y107282177D01*
X32372777Y107285230D01*
X32506795Y107271641D01*
G37*
G36*
X30906795Y107271641D02*
G01*
X31005984Y107233127D01*
X31042777Y107176448D01*
X31021519Y107136006D01*
X30942777Y107135567D01*
X30842777Y107154683D01*
X30842777Y106780230D01*
X30842795Y106724855D01*
X30844251Y106569732D01*
X30850945Y106475359D01*
X30866911Y106426638D01*
X30896177Y106408476D01*
X30942777Y106405776D01*
X31008005Y106394033D01*
X31042777Y106345776D01*
X31038695Y106326992D01*
X31001974Y106301993D01*
X30914906Y106289305D01*
X30762777Y106285776D01*
X30675118Y106286651D01*
X30558453Y106294520D01*
X30499244Y106313177D01*
X30482777Y106345776D01*
X30502350Y106384913D01*
X30582777Y106405776D01*
X30682777Y106405776D01*
X30682777Y106845776D01*
X30682959Y106971589D01*
X30685272Y107121784D01*
X30692565Y107214349D01*
X30707682Y107263182D01*
X30733471Y107282177D01*
X30772777Y107285230D01*
X30906795Y107271641D01*
G37*
G36*
X35102777Y106785776D02*
G01*
X35099946Y106636552D01*
X35086796Y106528746D01*
X35057389Y106454305D01*
X35005805Y106388999D01*
X34955460Y106343853D01*
X34818435Y106288223D01*
X34664570Y106310624D01*
X34634193Y106326605D01*
X34557656Y106418581D01*
X34508077Y106558679D01*
X34485458Y106726327D01*
X34486936Y106785776D01*
X34627777Y106785776D01*
X34631284Y106682451D01*
X34649595Y106547516D01*
X34680175Y106468912D01*
X34756169Y106415616D01*
X34849140Y106417305D01*
X34921370Y106483147D01*
X34937188Y106529883D01*
X34955603Y106646024D01*
X34962777Y106785776D01*
X34961597Y106850819D01*
X34939205Y107027244D01*
X34887727Y107131505D01*
X34806268Y107165776D01*
X34754911Y107158256D01*
X34682328Y107099586D01*
X34640927Y106977505D01*
X34627777Y106785776D01*
X34486936Y106785776D01*
X34489798Y106900950D01*
X34521096Y107061974D01*
X34579353Y107188825D01*
X34664570Y107260929D01*
X34729431Y107279615D01*
X34876899Y107269902D01*
X35005805Y107182554D01*
X35054104Y107122572D01*
X35085092Y107049777D01*
X35099343Y106945588D01*
X35102777Y106785776D01*
G37*
G36*
X34302777Y106785776D02*
G01*
X34299946Y106636552D01*
X34286796Y106528746D01*
X34257389Y106454305D01*
X34205805Y106388999D01*
X34155460Y106343853D01*
X34018435Y106288223D01*
X33864570Y106310624D01*
X33834193Y106326605D01*
X33757656Y106418581D01*
X33708077Y106558679D01*
X33685458Y106726327D01*
X33686936Y106785776D01*
X33827777Y106785776D01*
X33831284Y106682451D01*
X33849595Y106547516D01*
X33880175Y106468912D01*
X33956169Y106415616D01*
X34049140Y106417305D01*
X34121370Y106483147D01*
X34137188Y106529883D01*
X34155603Y106646024D01*
X34162777Y106785776D01*
X34161597Y106850819D01*
X34139205Y107027244D01*
X34087727Y107131505D01*
X34006268Y107165776D01*
X33954911Y107158256D01*
X33882328Y107099586D01*
X33840927Y106977505D01*
X33827777Y106785776D01*
X33686936Y106785776D01*
X33689798Y106900950D01*
X33721096Y107061974D01*
X33779353Y107188825D01*
X33864570Y107260929D01*
X33929431Y107279615D01*
X34076899Y107269902D01*
X34205805Y107182554D01*
X34254104Y107122572D01*
X34285092Y107049777D01*
X34299343Y106945588D01*
X34302777Y106785776D01*
G37*
G36*
X33502777Y106785776D02*
G01*
X33499946Y106636552D01*
X33486796Y106528746D01*
X33457389Y106454305D01*
X33405805Y106388999D01*
X33355460Y106343853D01*
X33218435Y106288223D01*
X33064570Y106310624D01*
X33034193Y106326605D01*
X32957656Y106418581D01*
X32908077Y106558679D01*
X32885458Y106726327D01*
X32886936Y106785776D01*
X33027777Y106785776D01*
X33031284Y106682451D01*
X33049595Y106547516D01*
X33080175Y106468912D01*
X33156169Y106415616D01*
X33249140Y106417305D01*
X33321370Y106483147D01*
X33337188Y106529883D01*
X33355603Y106646024D01*
X33362777Y106785776D01*
X33361597Y106850819D01*
X33339205Y107027244D01*
X33287727Y107131505D01*
X33206268Y107165776D01*
X33154911Y107158256D01*
X33082328Y107099586D01*
X33040927Y106977505D01*
X33027777Y106785776D01*
X32886936Y106785776D01*
X32889798Y106900950D01*
X32921096Y107061974D01*
X32979353Y107188825D01*
X33064570Y107260929D01*
X33129431Y107279615D01*
X33276899Y107269902D01*
X33405805Y107182554D01*
X33454104Y107122572D01*
X33485092Y107049777D01*
X33499343Y106945588D01*
X33502777Y106785776D01*
G37*
G36*
X31760283Y107274637D02*
G01*
X31848331Y107230544D01*
X31882777Y107160090D01*
X31882399Y107143697D01*
X31864726Y107104279D01*
X31805407Y107124369D01*
X31798765Y107127848D01*
X31664812Y107166746D01*
X31550555Y107145178D01*
X31475888Y107066630D01*
X31473805Y107061999D01*
X31454296Y106990137D01*
X31472878Y106917572D01*
X31536753Y106814470D01*
X31560781Y106781138D01*
X31669493Y106647100D01*
X31782784Y106525770D01*
X31827754Y106479407D01*
X31895933Y106394566D01*
X31922777Y106337930D01*
X31919328Y106325565D01*
X31875771Y106302305D01*
X31773799Y106289620D01*
X31602777Y106285776D01*
X31461041Y106287687D01*
X31352536Y106296515D01*
X31297850Y106314991D01*
X31282777Y106345776D01*
X31282833Y106348350D01*
X31304405Y106382903D01*
X31375304Y106400721D01*
X31510624Y106405776D01*
X31738471Y106405776D01*
X31617334Y106535776D01*
X31513329Y106654064D01*
X31380369Y106843341D01*
X31319340Y107000560D01*
X31329893Y107126892D01*
X31411678Y107223508D01*
X31515141Y107271391D01*
X31641573Y107289283D01*
X31760283Y107274637D01*
G37*
G36*
X36722777Y106785776D02*
G01*
X36722777Y106285776D01*
X36519701Y106285776D01*
X36515175Y106285781D01*
X36380645Y106294539D01*
X36287670Y106329060D01*
X36199701Y106402700D01*
X36139842Y106469178D01*
X36102583Y106540338D01*
X36086340Y106636769D01*
X36082836Y106783321D01*
X36223971Y106783321D01*
X36246772Y106608207D01*
X36314468Y106475776D01*
X36368125Y106434665D01*
X36468977Y106405776D01*
X36480325Y106405849D01*
X36519864Y106411683D01*
X36544183Y106437618D01*
X36556978Y106498629D01*
X36561944Y106609690D01*
X36562777Y106785776D01*
X36562766Y106819242D01*
X36561406Y106983869D01*
X36555269Y107085843D01*
X36540814Y107140095D01*
X36514497Y107161558D01*
X36472777Y107165164D01*
X36363113Y107146004D01*
X36289210Y107077229D01*
X36242395Y106944079D01*
X36223971Y106783321D01*
X36082836Y106783321D01*
X36082777Y106785776D01*
X36085685Y106924942D01*
X36100579Y107024648D01*
X36135806Y107096849D01*
X36199701Y107168853D01*
X36202311Y107171456D01*
X36289937Y107243871D01*
X36383550Y107277526D01*
X36519701Y107285776D01*
X36722777Y107285776D01*
X36722777Y106785776D01*
G37*
G36*
X33132777Y109878559D02*
G01*
X33147610Y109876111D01*
X33188830Y109858536D01*
X33213116Y109814125D01*
X33226388Y109725157D01*
X33234567Y109573914D01*
X33246357Y109282052D01*
X33742777Y109305776D01*
X33754581Y109598322D01*
X33757643Y109669377D01*
X33766340Y109791083D01*
X33781543Y109855692D01*
X33809032Y109879379D01*
X33854581Y109878322D01*
X33883661Y109872237D01*
X33908315Y109855081D01*
X33925498Y109815923D01*
X33936923Y109743165D01*
X33944307Y109625210D01*
X33949364Y109450458D01*
X33953809Y109207312D01*
X33955818Y109054117D01*
X33956620Y108846068D01*
X33954974Y108674181D01*
X33951063Y108553061D01*
X33945064Y108497312D01*
X33919380Y108468057D01*
X33844033Y108445776D01*
X33815857Y108448067D01*
X33787017Y108467370D01*
X33771054Y108519641D01*
X33764222Y108620553D01*
X33762777Y108785776D01*
X33762777Y109125776D01*
X33242777Y109125776D01*
X33242777Y108785776D01*
X33241885Y108622434D01*
X33236098Y108521388D01*
X33220756Y108468823D01*
X33191202Y108448898D01*
X33142777Y108445776D01*
X33042777Y108445776D01*
X33042777Y109891341D01*
X33132777Y109878559D01*
G37*
G36*
X36271541Y109099803D02*
G01*
X36271873Y109079214D01*
X36240735Y108863863D01*
X36180093Y108679341D01*
X36095173Y108549081D01*
X36041866Y108502497D01*
X35944532Y108458106D01*
X35807323Y108447049D01*
X35727108Y108451976D01*
X35568377Y108501137D01*
X35453496Y108607567D01*
X35377770Y108776928D01*
X35336506Y109014883D01*
X35330467Y109099856D01*
X35333213Y109174074D01*
X35541073Y109174074D01*
X35548814Y108985881D01*
X35573499Y108822988D01*
X35615128Y108711837D01*
X35652772Y108667859D01*
X35757829Y108611966D01*
X35871930Y108611146D01*
X35965467Y108669017D01*
X35965529Y108669092D01*
X36012846Y108769641D01*
X36042007Y108920370D01*
X36053624Y109099803D01*
X36048307Y109286463D01*
X36026667Y109458875D01*
X35989314Y109595563D01*
X35936860Y109675050D01*
X35831685Y109721572D01*
X35712297Y109706474D01*
X35615128Y109619716D01*
X35576427Y109520590D01*
X35550278Y109361124D01*
X35541073Y109174074D01*
X35333213Y109174074D01*
X35340309Y109365816D01*
X35395243Y109583753D01*
X35491904Y109747301D01*
X35626927Y109850097D01*
X35796946Y109885776D01*
X35818415Y109885380D01*
X35991133Y109844984D01*
X36122823Y109737555D01*
X36214347Y109562054D01*
X36266565Y109317438D01*
X36268278Y109301956D01*
X36271541Y109099803D01*
G37*
G36*
X34807720Y109859451D02*
G01*
X34956967Y109781649D01*
X35050434Y109653255D01*
X35082777Y109477306D01*
X35076204Y109393120D01*
X35024138Y109266145D01*
X34912208Y109172789D01*
X34730912Y109102938D01*
X34573221Y109044463D01*
X34444045Y108957802D01*
X34381749Y108859291D01*
X34390499Y108756194D01*
X34474462Y108655776D01*
X34545970Y108623289D01*
X34680751Y108607675D01*
X34831295Y108622426D01*
X34964764Y108666804D01*
X34976471Y108672847D01*
X35050376Y108705973D01*
X35078389Y108692792D01*
X35082777Y108625515D01*
X35068183Y108553396D01*
X34992777Y108487023D01*
X34941699Y108473134D01*
X34819147Y108456042D01*
X34675847Y108448312D01*
X34655675Y108448162D01*
X34515430Y108455770D01*
X34416721Y108486251D01*
X34325847Y108549332D01*
X34317694Y108556249D01*
X34243981Y108632920D01*
X34210611Y108717541D01*
X34202777Y108845776D01*
X34202783Y108850676D01*
X34211385Y108977781D01*
X34245899Y109061774D01*
X34320438Y109137670D01*
X34365681Y109169930D01*
X34498056Y109237079D01*
X34643472Y109285943D01*
X34693868Y109299491D01*
X34830709Y109363618D01*
X34895335Y109454059D01*
X34891811Y109575551D01*
X34882589Y109600756D01*
X34806871Y109676605D01*
X34681342Y109714668D01*
X34523984Y109711945D01*
X34352777Y109665438D01*
X34337683Y109659978D01*
X34294085Y109666603D01*
X34282777Y109736497D01*
X34284769Y109769508D01*
X34317507Y109829004D01*
X34407777Y109860776D01*
X34608040Y109883626D01*
X34807720Y109859451D01*
G37*
G36*
X31579802Y110913657D02*
G01*
X31624196Y110875776D01*
X31635241Y110832981D01*
X31660936Y110720687D01*
X31698433Y110550866D01*
X31745341Y110334472D01*
X31799268Y110082458D01*
X31857823Y109805776D01*
X31896481Y109623950D01*
X31962381Y109325146D01*
X32015136Y109103220D01*
X32055081Y108956878D01*
X32082554Y108884827D01*
X32097893Y108885776D01*
X32113327Y108949613D01*
X32143108Y109078760D01*
X32175940Y109225776D01*
X32199935Y109327212D01*
X32231895Y109417858D01*
X32271645Y109461767D01*
X32330872Y109477967D01*
X32355825Y109480291D01*
X32401316Y109473109D01*
X32433742Y109435081D01*
X32462739Y109350350D01*
X32497943Y109203060D01*
X32500685Y109190861D01*
X32532072Y109042617D01*
X32554324Y108922035D01*
X32562777Y108854203D01*
X32565142Y108825816D01*
X32580468Y108810134D01*
X32583231Y108818302D01*
X32595903Y108886694D01*
X32614845Y109009106D01*
X32637603Y109167400D01*
X32661724Y109343440D01*
X32684755Y109519088D01*
X32704243Y109676206D01*
X32717735Y109796657D01*
X32722777Y109862303D01*
X32729521Y109873465D01*
X32781797Y109885190D01*
X32851333Y109878768D01*
X32896254Y109855776D01*
X32897480Y109838719D01*
X32891071Y109755472D01*
X32875573Y109618268D01*
X32853259Y109443162D01*
X32826404Y109246212D01*
X32797283Y109043473D01*
X32768168Y108851004D01*
X32741336Y108684860D01*
X32719061Y108561099D01*
X32703616Y108495776D01*
X32684090Y108465895D01*
X32618977Y108444296D01*
X32547600Y108469814D01*
X32503363Y108535776D01*
X32500518Y108548008D01*
X32478502Y108642686D01*
X32445686Y108783839D01*
X32408042Y108945776D01*
X32333658Y109265776D01*
X32241606Y108855776D01*
X32236386Y108832577D01*
X32195066Y108656530D01*
X32162676Y108543626D01*
X32133000Y108480066D01*
X32099822Y108452049D01*
X32056928Y108445776D01*
X31991502Y108461083D01*
X31943290Y108535776D01*
X31940186Y108549142D01*
X31911437Y108676471D01*
X31871999Y108855317D01*
X31824385Y109073887D01*
X31771110Y109320393D01*
X31714688Y109583042D01*
X31657632Y109850045D01*
X31602457Y110109611D01*
X31551676Y110349949D01*
X31507804Y110559270D01*
X31473354Y110725781D01*
X31450841Y110837693D01*
X31442777Y110883214D01*
X31454285Y110907358D01*
X31510451Y110924705D01*
X31579802Y110913657D01*
G37*
G36*
X96797178Y106884732D02*
G01*
X96855229Y106846682D01*
X96873996Y106780883D01*
X96840516Y106724379D01*
X96802663Y106707403D01*
X96744113Y106724080D01*
X96722777Y106808137D01*
X96733723Y106852585D01*
X96784033Y106885776D01*
X96797178Y106884732D01*
G37*
G36*
X95997178Y106884732D02*
G01*
X96055229Y106846682D01*
X96073996Y106780883D01*
X96040516Y106724379D01*
X96002663Y106707403D01*
X95944113Y106724080D01*
X95922777Y106808137D01*
X95933723Y106852585D01*
X95984033Y106885776D01*
X95997178Y106884732D01*
G37*
G36*
X95197178Y106884732D02*
G01*
X95255229Y106846682D01*
X95273996Y106780883D01*
X95240516Y106724379D01*
X95202663Y106707403D01*
X95144113Y106724080D01*
X95122777Y106808137D01*
X95133723Y106852585D01*
X95184033Y106885776D01*
X95197178Y106884732D01*
G37*
G36*
X93242777Y108085776D02*
G01*
X98684043Y108085776D01*
X98662777Y110305776D01*
X94042777Y110326426D01*
X94042777Y110565776D01*
X98922777Y110565776D01*
X98922777Y109212443D01*
X98922348Y108971413D01*
X98920511Y108668191D01*
X98917396Y108397705D01*
X98913189Y108169410D01*
X98908073Y107992757D01*
X98902233Y107877198D01*
X98895853Y107832185D01*
X98858523Y107828250D01*
X98746937Y107824444D01*
X98567543Y107821152D01*
X98326683Y107818410D01*
X98030698Y107816255D01*
X97685929Y107814721D01*
X97298719Y107813844D01*
X96875409Y107813661D01*
X96422339Y107814207D01*
X95945853Y107815519D01*
X93022777Y107825776D01*
X93001727Y110565776D01*
X93242777Y110565776D01*
X93242777Y108085776D01*
G37*
G36*
X97882777Y106285776D02*
G01*
X97582777Y106285776D01*
X97467615Y106287151D01*
X97355282Y106295551D01*
X97298493Y106314128D01*
X97282777Y106345776D01*
X97301799Y106381488D01*
X97370104Y106400390D01*
X97502777Y106405776D01*
X97722777Y106405776D01*
X97722777Y106765776D01*
X97499444Y106765776D01*
X97367337Y106774500D01*
X97294757Y106798729D01*
X97296181Y106829839D01*
X97370330Y106859122D01*
X97515922Y106877867D01*
X97631523Y106886506D01*
X97695726Y106904867D01*
X97719391Y106947090D01*
X97722777Y107027867D01*
X97722777Y107165776D01*
X97502777Y107165776D01*
X97371834Y107170964D01*
X97302529Y107189593D01*
X97282777Y107225776D01*
X97289651Y107248809D01*
X97331649Y107271276D01*
X97424536Y107282633D01*
X97582777Y107285776D01*
X97882777Y107285776D01*
X97882777Y106285776D01*
G37*
G36*
X94506795Y107271641D02*
G01*
X94605984Y107233127D01*
X94642777Y107176448D01*
X94621519Y107136006D01*
X94542777Y107135567D01*
X94442777Y107154683D01*
X94442777Y106780230D01*
X94442795Y106724855D01*
X94444251Y106569732D01*
X94450945Y106475359D01*
X94466911Y106426638D01*
X94496177Y106408476D01*
X94542777Y106405776D01*
X94608005Y106394033D01*
X94642777Y106345776D01*
X94638695Y106326992D01*
X94601974Y106301993D01*
X94514906Y106289305D01*
X94362777Y106285776D01*
X94275118Y106286651D01*
X94158453Y106294520D01*
X94099244Y106313177D01*
X94082777Y106345776D01*
X94102350Y106384913D01*
X94182777Y106405776D01*
X94282777Y106405776D01*
X94282777Y106845776D01*
X94282959Y106971589D01*
X94285272Y107121784D01*
X94292565Y107214349D01*
X94307682Y107263182D01*
X94333471Y107282177D01*
X94372777Y107285230D01*
X94506795Y107271641D01*
G37*
G36*
X92906795Y107271641D02*
G01*
X93005984Y107233127D01*
X93042777Y107176448D01*
X93021519Y107136006D01*
X92942777Y107135567D01*
X92842777Y107154683D01*
X92842777Y106780230D01*
X92842795Y106724855D01*
X92844251Y106569732D01*
X92850945Y106475359D01*
X92866911Y106426638D01*
X92896177Y106408476D01*
X92942777Y106405776D01*
X93008005Y106394033D01*
X93042777Y106345776D01*
X93038695Y106326992D01*
X93001974Y106301993D01*
X92914906Y106289305D01*
X92762777Y106285776D01*
X92675118Y106286651D01*
X92558453Y106294520D01*
X92499244Y106313177D01*
X92482777Y106345776D01*
X92502350Y106384913D01*
X92582777Y106405776D01*
X92682777Y106405776D01*
X92682777Y106845776D01*
X92682959Y106971589D01*
X92685272Y107121784D01*
X92692565Y107214349D01*
X92707682Y107263182D01*
X92733471Y107282177D01*
X92772777Y107285230D01*
X92906795Y107271641D01*
G37*
G36*
X97102777Y106785776D02*
G01*
X97099946Y106636552D01*
X97086796Y106528746D01*
X97057389Y106454305D01*
X97005805Y106388999D01*
X96955460Y106343853D01*
X96818435Y106288223D01*
X96664570Y106310624D01*
X96634193Y106326605D01*
X96557656Y106418581D01*
X96508077Y106558679D01*
X96485458Y106726327D01*
X96486936Y106785776D01*
X96627777Y106785776D01*
X96631284Y106682451D01*
X96649595Y106547516D01*
X96680175Y106468912D01*
X96756169Y106415616D01*
X96849140Y106417305D01*
X96921370Y106483147D01*
X96937188Y106529883D01*
X96955603Y106646024D01*
X96962777Y106785776D01*
X96961597Y106850819D01*
X96939205Y107027244D01*
X96887727Y107131505D01*
X96806268Y107165776D01*
X96754911Y107158256D01*
X96682328Y107099586D01*
X96640927Y106977505D01*
X96627777Y106785776D01*
X96486936Y106785776D01*
X96489798Y106900950D01*
X96521096Y107061974D01*
X96579353Y107188825D01*
X96664570Y107260929D01*
X96729431Y107279615D01*
X96876899Y107269902D01*
X97005805Y107182554D01*
X97054104Y107122572D01*
X97085092Y107049777D01*
X97099343Y106945588D01*
X97102777Y106785776D01*
G37*
G36*
X96302777Y106785776D02*
G01*
X96299946Y106636552D01*
X96286796Y106528746D01*
X96257389Y106454305D01*
X96205805Y106388999D01*
X96155460Y106343853D01*
X96018435Y106288223D01*
X95864570Y106310624D01*
X95834193Y106326605D01*
X95757656Y106418581D01*
X95708077Y106558679D01*
X95685458Y106726327D01*
X95686936Y106785776D01*
X95827777Y106785776D01*
X95831284Y106682451D01*
X95849595Y106547516D01*
X95880175Y106468912D01*
X95956169Y106415616D01*
X96049140Y106417305D01*
X96121370Y106483147D01*
X96137188Y106529883D01*
X96155603Y106646024D01*
X96162777Y106785776D01*
X96161597Y106850819D01*
X96139205Y107027244D01*
X96087727Y107131505D01*
X96006268Y107165776D01*
X95954911Y107158256D01*
X95882328Y107099586D01*
X95840927Y106977505D01*
X95827777Y106785776D01*
X95686936Y106785776D01*
X95689798Y106900950D01*
X95721096Y107061974D01*
X95779353Y107188825D01*
X95864570Y107260929D01*
X95929431Y107279615D01*
X96076899Y107269902D01*
X96205805Y107182554D01*
X96254104Y107122572D01*
X96285092Y107049777D01*
X96299343Y106945588D01*
X96302777Y106785776D01*
G37*
G36*
X95502777Y106785776D02*
G01*
X95499946Y106636552D01*
X95486796Y106528746D01*
X95457389Y106454305D01*
X95405805Y106388999D01*
X95355460Y106343853D01*
X95218435Y106288223D01*
X95064570Y106310624D01*
X95034193Y106326605D01*
X94957656Y106418581D01*
X94908077Y106558679D01*
X94885458Y106726327D01*
X94886936Y106785776D01*
X95027777Y106785776D01*
X95031284Y106682451D01*
X95049595Y106547516D01*
X95080175Y106468912D01*
X95156169Y106415616D01*
X95249140Y106417305D01*
X95321370Y106483147D01*
X95337188Y106529883D01*
X95355603Y106646024D01*
X95362777Y106785776D01*
X95361597Y106850819D01*
X95339205Y107027244D01*
X95287727Y107131505D01*
X95206268Y107165776D01*
X95154911Y107158256D01*
X95082328Y107099586D01*
X95040927Y106977505D01*
X95027777Y106785776D01*
X94886936Y106785776D01*
X94889798Y106900950D01*
X94921096Y107061974D01*
X94979353Y107188825D01*
X95064570Y107260929D01*
X95129431Y107279615D01*
X95276899Y107269902D01*
X95405805Y107182554D01*
X95454104Y107122572D01*
X95485092Y107049777D01*
X95499343Y106945588D01*
X95502777Y106785776D01*
G37*
G36*
X93760283Y107274637D02*
G01*
X93848331Y107230544D01*
X93882777Y107160090D01*
X93882399Y107143697D01*
X93864726Y107104279D01*
X93805407Y107124369D01*
X93798765Y107127848D01*
X93664812Y107166746D01*
X93550555Y107145178D01*
X93475888Y107066630D01*
X93473805Y107061999D01*
X93454296Y106990137D01*
X93472878Y106917572D01*
X93536753Y106814470D01*
X93560781Y106781138D01*
X93669493Y106647100D01*
X93782784Y106525770D01*
X93827754Y106479407D01*
X93895933Y106394566D01*
X93922777Y106337930D01*
X93919328Y106325565D01*
X93875771Y106302305D01*
X93773799Y106289620D01*
X93602777Y106285776D01*
X93461041Y106287687D01*
X93352536Y106296515D01*
X93297850Y106314991D01*
X93282777Y106345776D01*
X93282833Y106348350D01*
X93304405Y106382903D01*
X93375304Y106400721D01*
X93510624Y106405776D01*
X93738471Y106405776D01*
X93617334Y106535776D01*
X93513329Y106654064D01*
X93380369Y106843341D01*
X93319340Y107000560D01*
X93329893Y107126892D01*
X93411678Y107223508D01*
X93515141Y107271391D01*
X93641573Y107289283D01*
X93760283Y107274637D01*
G37*
G36*
X98722777Y106785776D02*
G01*
X98722777Y106285776D01*
X98519701Y106285776D01*
X98515175Y106285781D01*
X98380645Y106294539D01*
X98287670Y106329060D01*
X98199701Y106402700D01*
X98139842Y106469178D01*
X98102583Y106540338D01*
X98086340Y106636769D01*
X98082836Y106783321D01*
X98223971Y106783321D01*
X98246772Y106608207D01*
X98314468Y106475776D01*
X98368125Y106434665D01*
X98468977Y106405776D01*
X98480325Y106405849D01*
X98519864Y106411683D01*
X98544183Y106437618D01*
X98556978Y106498629D01*
X98561944Y106609690D01*
X98562777Y106785776D01*
X98562766Y106819242D01*
X98561406Y106983869D01*
X98555269Y107085843D01*
X98540814Y107140095D01*
X98514497Y107161558D01*
X98472777Y107165164D01*
X98363113Y107146004D01*
X98289210Y107077229D01*
X98242395Y106944079D01*
X98223971Y106783321D01*
X98082836Y106783321D01*
X98082777Y106785776D01*
X98085685Y106924942D01*
X98100579Y107024648D01*
X98135806Y107096849D01*
X98199701Y107168853D01*
X98202311Y107171456D01*
X98289937Y107243871D01*
X98383550Y107277526D01*
X98519701Y107285776D01*
X98722777Y107285776D01*
X98722777Y106785776D01*
G37*
G36*
X95132777Y109878559D02*
G01*
X95147610Y109876111D01*
X95188830Y109858536D01*
X95213116Y109814125D01*
X95226388Y109725157D01*
X95234567Y109573914D01*
X95246357Y109282052D01*
X95742777Y109305776D01*
X95754581Y109598322D01*
X95757643Y109669377D01*
X95766340Y109791083D01*
X95781543Y109855692D01*
X95809032Y109879379D01*
X95854581Y109878322D01*
X95883661Y109872237D01*
X95908315Y109855081D01*
X95925498Y109815923D01*
X95936923Y109743165D01*
X95944307Y109625210D01*
X95949364Y109450458D01*
X95953809Y109207312D01*
X95955818Y109054117D01*
X95956620Y108846068D01*
X95954974Y108674181D01*
X95951063Y108553061D01*
X95945064Y108497312D01*
X95919380Y108468057D01*
X95844033Y108445776D01*
X95815857Y108448067D01*
X95787017Y108467370D01*
X95771054Y108519641D01*
X95764222Y108620553D01*
X95762777Y108785776D01*
X95762777Y109125776D01*
X95242777Y109125776D01*
X95242777Y108785776D01*
X95241885Y108622434D01*
X95236098Y108521388D01*
X95220756Y108468823D01*
X95191202Y108448898D01*
X95142777Y108445776D01*
X95042777Y108445776D01*
X95042777Y109891341D01*
X95132777Y109878559D01*
G37*
G36*
X98271541Y109099803D02*
G01*
X98271873Y109079214D01*
X98240735Y108863863D01*
X98180093Y108679341D01*
X98095173Y108549081D01*
X98041866Y108502497D01*
X97944532Y108458106D01*
X97807323Y108447049D01*
X97727108Y108451976D01*
X97568377Y108501137D01*
X97453496Y108607567D01*
X97377770Y108776928D01*
X97336506Y109014883D01*
X97330467Y109099856D01*
X97333213Y109174074D01*
X97541073Y109174074D01*
X97548814Y108985881D01*
X97573499Y108822988D01*
X97615128Y108711837D01*
X97652772Y108667859D01*
X97757829Y108611966D01*
X97871930Y108611146D01*
X97965467Y108669017D01*
X97965529Y108669092D01*
X98012846Y108769641D01*
X98042007Y108920370D01*
X98053624Y109099803D01*
X98048307Y109286463D01*
X98026667Y109458875D01*
X97989314Y109595563D01*
X97936860Y109675050D01*
X97831685Y109721572D01*
X97712297Y109706474D01*
X97615128Y109619716D01*
X97576427Y109520590D01*
X97550278Y109361124D01*
X97541073Y109174074D01*
X97333213Y109174074D01*
X97340309Y109365816D01*
X97395243Y109583753D01*
X97491904Y109747301D01*
X97626927Y109850097D01*
X97796946Y109885776D01*
X97818415Y109885380D01*
X97991133Y109844984D01*
X98122823Y109737555D01*
X98214347Y109562054D01*
X98266565Y109317438D01*
X98268278Y109301956D01*
X98271541Y109099803D01*
G37*
G36*
X96807720Y109859451D02*
G01*
X96956967Y109781649D01*
X97050434Y109653255D01*
X97082777Y109477306D01*
X97076204Y109393120D01*
X97024138Y109266145D01*
X96912208Y109172789D01*
X96730912Y109102938D01*
X96573221Y109044463D01*
X96444045Y108957802D01*
X96381749Y108859291D01*
X96390499Y108756194D01*
X96474462Y108655776D01*
X96545970Y108623289D01*
X96680751Y108607675D01*
X96831295Y108622426D01*
X96964764Y108666804D01*
X96976471Y108672847D01*
X97050376Y108705973D01*
X97078389Y108692792D01*
X97082777Y108625515D01*
X97068183Y108553396D01*
X96992777Y108487023D01*
X96941699Y108473134D01*
X96819147Y108456042D01*
X96675847Y108448312D01*
X96655675Y108448162D01*
X96515430Y108455770D01*
X96416721Y108486251D01*
X96325847Y108549332D01*
X96317694Y108556249D01*
X96243981Y108632920D01*
X96210611Y108717541D01*
X96202777Y108845776D01*
X96202783Y108850676D01*
X96211385Y108977781D01*
X96245899Y109061774D01*
X96320438Y109137670D01*
X96365681Y109169930D01*
X96498056Y109237079D01*
X96643472Y109285943D01*
X96693868Y109299491D01*
X96830709Y109363618D01*
X96895335Y109454059D01*
X96891811Y109575551D01*
X96882589Y109600756D01*
X96806871Y109676605D01*
X96681342Y109714668D01*
X96523984Y109711945D01*
X96352777Y109665438D01*
X96337683Y109659978D01*
X96294085Y109666603D01*
X96282777Y109736497D01*
X96284769Y109769508D01*
X96317507Y109829004D01*
X96407777Y109860776D01*
X96608040Y109883626D01*
X96807720Y109859451D01*
G37*
G36*
X93579802Y110913657D02*
G01*
X93624196Y110875776D01*
X93635241Y110832981D01*
X93660936Y110720687D01*
X93698433Y110550866D01*
X93745341Y110334472D01*
X93799268Y110082458D01*
X93857823Y109805776D01*
X93896481Y109623950D01*
X93962381Y109325146D01*
X94015136Y109103220D01*
X94055081Y108956878D01*
X94082554Y108884827D01*
X94097893Y108885776D01*
X94113327Y108949613D01*
X94143108Y109078760D01*
X94175940Y109225776D01*
X94199935Y109327212D01*
X94231895Y109417858D01*
X94271645Y109461767D01*
X94330872Y109477967D01*
X94355825Y109480291D01*
X94401316Y109473109D01*
X94433742Y109435081D01*
X94462739Y109350350D01*
X94497943Y109203060D01*
X94500685Y109190861D01*
X94532072Y109042617D01*
X94554324Y108922035D01*
X94562777Y108854203D01*
X94565142Y108825816D01*
X94580468Y108810134D01*
X94583231Y108818302D01*
X94595903Y108886694D01*
X94614845Y109009106D01*
X94637603Y109167400D01*
X94661724Y109343440D01*
X94684755Y109519088D01*
X94704243Y109676206D01*
X94717735Y109796657D01*
X94722777Y109862303D01*
X94729521Y109873465D01*
X94781797Y109885190D01*
X94851333Y109878768D01*
X94896254Y109855776D01*
X94897480Y109838719D01*
X94891071Y109755472D01*
X94875573Y109618268D01*
X94853259Y109443162D01*
X94826404Y109246212D01*
X94797283Y109043473D01*
X94768168Y108851004D01*
X94741336Y108684860D01*
X94719061Y108561099D01*
X94703616Y108495776D01*
X94684090Y108465895D01*
X94618977Y108444296D01*
X94547600Y108469814D01*
X94503363Y108535776D01*
X94500518Y108548008D01*
X94478502Y108642686D01*
X94445686Y108783839D01*
X94408042Y108945776D01*
X94333658Y109265776D01*
X94241606Y108855776D01*
X94236386Y108832577D01*
X94195066Y108656530D01*
X94162676Y108543626D01*
X94133000Y108480066D01*
X94099822Y108452049D01*
X94056928Y108445776D01*
X93991502Y108461083D01*
X93943290Y108535776D01*
X93940186Y108549142D01*
X93911437Y108676471D01*
X93871999Y108855317D01*
X93824385Y109073887D01*
X93771110Y109320393D01*
X93714688Y109583042D01*
X93657632Y109850045D01*
X93602457Y110109611D01*
X93551676Y110349949D01*
X93507804Y110559270D01*
X93473354Y110725781D01*
X93450841Y110837693D01*
X93442777Y110883214D01*
X93454285Y110907358D01*
X93510451Y110924705D01*
X93579802Y110913657D01*
G37*
G36*
X39255891Y29275925D02*
G01*
X39277227Y29191868D01*
X39266281Y29147420D01*
X39215971Y29114229D01*
X39202826Y29115273D01*
X39144775Y29153323D01*
X39126008Y29219122D01*
X39159488Y29275626D01*
X39197341Y29292602D01*
X39255891Y29275925D01*
G37*
G36*
X40055891Y29275925D02*
G01*
X40077227Y29191868D01*
X40066281Y29147420D01*
X40015971Y29114229D01*
X40002826Y29115273D01*
X39944775Y29153323D01*
X39926008Y29219122D01*
X39959488Y29275626D01*
X39997341Y29292602D01*
X40055891Y29275925D01*
G37*
G36*
X40855891Y29275925D02*
G01*
X40877227Y29191868D01*
X40866281Y29147420D01*
X40815971Y29114229D01*
X40802826Y29115273D01*
X40744775Y29153323D01*
X40726008Y29219122D01*
X40759488Y29275626D01*
X40797341Y29292602D01*
X40855891Y29275925D01*
G37*
G36*
X39577665Y28185798D02*
G01*
X40054151Y28184486D01*
X42977227Y28174229D01*
X42998277Y25434229D01*
X42757227Y25434229D01*
X42757227Y27914229D01*
X37315961Y27914229D01*
X37337227Y25694229D01*
X41957227Y25673579D01*
X41957227Y25434229D01*
X37077227Y25434229D01*
X37077227Y26787562D01*
X37077656Y27028592D01*
X37079493Y27331814D01*
X37082608Y27602300D01*
X37086815Y27830595D01*
X37091931Y28007248D01*
X37097771Y28122807D01*
X37104151Y28167820D01*
X37141481Y28171755D01*
X37253067Y28175561D01*
X37432461Y28178853D01*
X37673321Y28181595D01*
X37969306Y28183750D01*
X38314075Y28185284D01*
X38701285Y28186161D01*
X39124595Y28186344D01*
X39577665Y28185798D01*
G37*
G36*
X38532389Y29712854D02*
G01*
X38644722Y29704454D01*
X38701511Y29685877D01*
X38717227Y29654229D01*
X38698205Y29618517D01*
X38629900Y29599615D01*
X38497227Y29594229D01*
X38277227Y29594229D01*
X38277227Y29234229D01*
X38500560Y29234229D01*
X38632667Y29225505D01*
X38705247Y29201276D01*
X38703823Y29170166D01*
X38629674Y29140883D01*
X38484082Y29122138D01*
X38368481Y29113499D01*
X38304278Y29095138D01*
X38280613Y29052915D01*
X38277227Y28972138D01*
X38277227Y28834229D01*
X38497227Y28834229D01*
X38628170Y28829041D01*
X38697475Y28810412D01*
X38717227Y28774229D01*
X38710353Y28751196D01*
X38668355Y28728729D01*
X38575468Y28717372D01*
X38417227Y28714229D01*
X38117227Y28714229D01*
X38117227Y29714229D01*
X38417227Y29714229D01*
X38532389Y29712854D01*
G37*
G36*
X41724886Y29713354D02*
G01*
X41841551Y29705485D01*
X41900760Y29686828D01*
X41917227Y29654229D01*
X41897654Y29615092D01*
X41817227Y29594229D01*
X41717227Y29594229D01*
X41717227Y29154229D01*
X41717045Y29028416D01*
X41714732Y28878221D01*
X41707439Y28785656D01*
X41692322Y28736823D01*
X41666533Y28717828D01*
X41627227Y28714775D01*
X41493209Y28728364D01*
X41394020Y28766878D01*
X41357227Y28823557D01*
X41378485Y28863999D01*
X41457227Y28864438D01*
X41557227Y28845322D01*
X41557227Y29219775D01*
X41557209Y29275150D01*
X41555753Y29430273D01*
X41549059Y29524646D01*
X41533093Y29573367D01*
X41503827Y29591529D01*
X41457227Y29594229D01*
X41391999Y29605972D01*
X41357227Y29654229D01*
X41361309Y29673013D01*
X41398030Y29698012D01*
X41485098Y29710700D01*
X41637227Y29714229D01*
X41724886Y29713354D01*
G37*
G36*
X43324886Y29713354D02*
G01*
X43441551Y29705485D01*
X43500760Y29686828D01*
X43517227Y29654229D01*
X43497654Y29615092D01*
X43417227Y29594229D01*
X43317227Y29594229D01*
X43317227Y29154229D01*
X43317045Y29028416D01*
X43314732Y28878221D01*
X43307439Y28785656D01*
X43292322Y28736823D01*
X43266533Y28717828D01*
X43227227Y28714775D01*
X43093209Y28728364D01*
X42994020Y28766878D01*
X42957227Y28823557D01*
X42978485Y28863999D01*
X43057227Y28864438D01*
X43157227Y28845322D01*
X43157227Y29219775D01*
X43157209Y29275150D01*
X43155753Y29430273D01*
X43149059Y29524646D01*
X43133093Y29573367D01*
X43103827Y29591529D01*
X43057227Y29594229D01*
X42991999Y29605972D01*
X42957227Y29654229D01*
X42961309Y29673013D01*
X42998030Y29698012D01*
X43085098Y29710700D01*
X43237227Y29714229D01*
X43324886Y29713354D01*
G37*
G36*
X38897227Y29214229D02*
G01*
X39037227Y29214229D01*
X39038407Y29149186D01*
X39060799Y28972761D01*
X39112277Y28868500D01*
X39193736Y28834229D01*
X39245093Y28841749D01*
X39317676Y28900419D01*
X39359077Y29022500D01*
X39372227Y29214229D01*
X39368720Y29317554D01*
X39350409Y29452489D01*
X39319829Y29531093D01*
X39243835Y29584389D01*
X39150864Y29582700D01*
X39078634Y29516858D01*
X39062816Y29470122D01*
X39044401Y29353981D01*
X39037227Y29214229D01*
X38897227Y29214229D01*
X38900058Y29363453D01*
X38913208Y29471259D01*
X38942615Y29545700D01*
X38994199Y29611006D01*
X39044544Y29656152D01*
X39181569Y29711782D01*
X39335434Y29689381D01*
X39365811Y29673400D01*
X39442348Y29581424D01*
X39491927Y29441326D01*
X39514546Y29273678D01*
X39510206Y29099055D01*
X39478908Y28938031D01*
X39420651Y28811180D01*
X39335434Y28739076D01*
X39270573Y28720390D01*
X39123105Y28730103D01*
X38994199Y28817451D01*
X38945900Y28877433D01*
X38914912Y28950228D01*
X38900661Y29054417D01*
X38897227Y29214229D01*
G37*
G36*
X39697227Y29214229D02*
G01*
X39837227Y29214229D01*
X39838407Y29149186D01*
X39860799Y28972761D01*
X39912277Y28868500D01*
X39993736Y28834229D01*
X40045093Y28841749D01*
X40117676Y28900419D01*
X40159077Y29022500D01*
X40172227Y29214229D01*
X40168720Y29317554D01*
X40150409Y29452489D01*
X40119829Y29531093D01*
X40043835Y29584389D01*
X39950864Y29582700D01*
X39878634Y29516858D01*
X39862816Y29470122D01*
X39844401Y29353981D01*
X39837227Y29214229D01*
X39697227Y29214229D01*
X39700058Y29363453D01*
X39713208Y29471259D01*
X39742615Y29545700D01*
X39794199Y29611006D01*
X39844544Y29656152D01*
X39981569Y29711782D01*
X40135434Y29689381D01*
X40165811Y29673400D01*
X40242348Y29581424D01*
X40291927Y29441326D01*
X40314546Y29273678D01*
X40310206Y29099055D01*
X40278908Y28938031D01*
X40220651Y28811180D01*
X40135434Y28739076D01*
X40070573Y28720390D01*
X39923105Y28730103D01*
X39794199Y28817451D01*
X39745900Y28877433D01*
X39714912Y28950228D01*
X39700661Y29054417D01*
X39697227Y29214229D01*
G37*
G36*
X40497227Y29214229D02*
G01*
X40637227Y29214229D01*
X40638407Y29149186D01*
X40660799Y28972761D01*
X40712277Y28868500D01*
X40793736Y28834229D01*
X40845093Y28841749D01*
X40917676Y28900419D01*
X40959077Y29022500D01*
X40972227Y29214229D01*
X40968720Y29317554D01*
X40950409Y29452489D01*
X40919829Y29531093D01*
X40843835Y29584389D01*
X40750864Y29582700D01*
X40678634Y29516858D01*
X40662816Y29470122D01*
X40644401Y29353981D01*
X40637227Y29214229D01*
X40497227Y29214229D01*
X40500058Y29363453D01*
X40513208Y29471259D01*
X40542615Y29545700D01*
X40594199Y29611006D01*
X40644544Y29656152D01*
X40781569Y29711782D01*
X40935434Y29689381D01*
X40965811Y29673400D01*
X41042348Y29581424D01*
X41091927Y29441326D01*
X41114546Y29273678D01*
X41110206Y29099055D01*
X41078908Y28938031D01*
X41020651Y28811180D01*
X40935434Y28739076D01*
X40870573Y28720390D01*
X40723105Y28730103D01*
X40594199Y28817451D01*
X40545900Y28877433D01*
X40514912Y28950228D01*
X40500661Y29054417D01*
X40497227Y29214229D01*
G37*
G36*
X42538963Y29712318D02*
G01*
X42647468Y29703490D01*
X42702154Y29685014D01*
X42717227Y29654229D01*
X42717171Y29651655D01*
X42695599Y29617102D01*
X42624700Y29599284D01*
X42489380Y29594229D01*
X42261533Y29594229D01*
X42382670Y29464229D01*
X42486675Y29345941D01*
X42619635Y29156664D01*
X42680664Y28999445D01*
X42670111Y28873113D01*
X42588326Y28776497D01*
X42484863Y28728614D01*
X42358431Y28710722D01*
X42239721Y28725368D01*
X42151673Y28769461D01*
X42117227Y28839915D01*
X42117605Y28856308D01*
X42135278Y28895726D01*
X42194597Y28875636D01*
X42201239Y28872157D01*
X42335192Y28833259D01*
X42449449Y28854827D01*
X42524116Y28933375D01*
X42526199Y28938006D01*
X42545708Y29009868D01*
X42527126Y29082433D01*
X42463251Y29185535D01*
X42439223Y29218867D01*
X42330511Y29352905D01*
X42217220Y29474235D01*
X42172250Y29520598D01*
X42104071Y29605439D01*
X42077227Y29662075D01*
X42080676Y29674440D01*
X42124233Y29697700D01*
X42226205Y29710385D01*
X42397227Y29714229D01*
X42538963Y29712318D01*
G37*
G36*
X37277227Y29214229D02*
G01*
X37437227Y29214229D01*
X37437238Y29180763D01*
X37438598Y29016136D01*
X37444735Y28914162D01*
X37459190Y28859910D01*
X37485507Y28838447D01*
X37527227Y28834841D01*
X37636891Y28854001D01*
X37710794Y28922776D01*
X37757609Y29055926D01*
X37776033Y29216684D01*
X37753232Y29391798D01*
X37685536Y29524229D01*
X37631879Y29565340D01*
X37531027Y29594229D01*
X37519679Y29594156D01*
X37480140Y29588322D01*
X37455821Y29562387D01*
X37443026Y29501376D01*
X37438060Y29390315D01*
X37437227Y29214229D01*
X37277227Y29214229D01*
X37277227Y29714229D01*
X37480303Y29714229D01*
X37484829Y29714224D01*
X37619359Y29705466D01*
X37712334Y29670945D01*
X37800303Y29597305D01*
X37860162Y29530827D01*
X37897421Y29459667D01*
X37913664Y29363236D01*
X37917227Y29214229D01*
X37914319Y29075063D01*
X37899425Y28975357D01*
X37864198Y28903156D01*
X37800303Y28831152D01*
X37797693Y28828549D01*
X37710067Y28756134D01*
X37616454Y28722479D01*
X37480303Y28714229D01*
X37277227Y28714229D01*
X37277227Y29214229D01*
G37*
G36*
X40957227Y26108664D02*
G01*
X40867227Y26121446D01*
X40852394Y26123894D01*
X40811174Y26141469D01*
X40786888Y26185880D01*
X40773616Y26274848D01*
X40765437Y26426091D01*
X40753647Y26717953D01*
X40257227Y26694229D01*
X40245423Y26401683D01*
X40242361Y26330628D01*
X40233664Y26208922D01*
X40218461Y26144313D01*
X40190972Y26120626D01*
X40145423Y26121683D01*
X40116343Y26127768D01*
X40091689Y26144924D01*
X40074506Y26184082D01*
X40063081Y26256840D01*
X40055697Y26374795D01*
X40050640Y26549547D01*
X40046195Y26792693D01*
X40044186Y26945888D01*
X40043384Y27153937D01*
X40045030Y27325824D01*
X40048941Y27446944D01*
X40054940Y27502693D01*
X40080624Y27531948D01*
X40155971Y27554229D01*
X40184147Y27551938D01*
X40212987Y27532635D01*
X40228950Y27480364D01*
X40235782Y27379452D01*
X40237227Y27214229D01*
X40237227Y26874229D01*
X40757227Y26874229D01*
X40757227Y27214229D01*
X40758119Y27377571D01*
X40763906Y27478617D01*
X40779248Y27531182D01*
X40808802Y27551107D01*
X40857227Y27554229D01*
X40957227Y27554229D01*
X40957227Y26108664D01*
G37*
G36*
X37728463Y26900202D02*
G01*
X37946380Y26900202D01*
X37951697Y26713542D01*
X37973337Y26541130D01*
X38010690Y26404442D01*
X38063144Y26324955D01*
X38168319Y26278433D01*
X38287707Y26293531D01*
X38384876Y26380289D01*
X38423577Y26479415D01*
X38449726Y26638881D01*
X38458931Y26825931D01*
X38451190Y27014124D01*
X38426505Y27177017D01*
X38384876Y27288168D01*
X38347232Y27332146D01*
X38242175Y27388039D01*
X38128074Y27388859D01*
X38034537Y27330988D01*
X38034475Y27330913D01*
X37987158Y27230364D01*
X37957997Y27079635D01*
X37946380Y26900202D01*
X37728463Y26900202D01*
X37728131Y26920791D01*
X37759269Y27136142D01*
X37819911Y27320664D01*
X37904831Y27450924D01*
X37958138Y27497508D01*
X38055472Y27541899D01*
X38192681Y27552956D01*
X38272896Y27548029D01*
X38431627Y27498868D01*
X38546508Y27392438D01*
X38622234Y27223077D01*
X38663498Y26985122D01*
X38669537Y26900149D01*
X38659695Y26634189D01*
X38604761Y26416252D01*
X38508100Y26252704D01*
X38373077Y26149908D01*
X38203058Y26114229D01*
X38181589Y26114625D01*
X38008871Y26155021D01*
X37877181Y26262450D01*
X37785657Y26437951D01*
X37733439Y26682567D01*
X37731726Y26698049D01*
X37728463Y26900202D01*
G37*
G36*
X39484574Y27544235D02*
G01*
X39583283Y27513754D01*
X39674157Y27450673D01*
X39682310Y27443756D01*
X39756023Y27367085D01*
X39789393Y27282464D01*
X39797227Y27154229D01*
X39797221Y27149329D01*
X39788619Y27022224D01*
X39754105Y26938231D01*
X39679566Y26862335D01*
X39634323Y26830075D01*
X39501948Y26762926D01*
X39356532Y26714062D01*
X39306136Y26700514D01*
X39169295Y26636387D01*
X39104669Y26545946D01*
X39108193Y26424454D01*
X39117415Y26399249D01*
X39193133Y26323400D01*
X39318662Y26285337D01*
X39476020Y26288060D01*
X39647227Y26334567D01*
X39662321Y26340027D01*
X39705919Y26333402D01*
X39717227Y26263508D01*
X39715235Y26230497D01*
X39682497Y26171001D01*
X39592227Y26139229D01*
X39391964Y26116379D01*
X39192284Y26140554D01*
X39043037Y26218356D01*
X38949570Y26346750D01*
X38917227Y26522699D01*
X38923800Y26606885D01*
X38975866Y26733860D01*
X39087796Y26827216D01*
X39269092Y26897067D01*
X39426783Y26955542D01*
X39555959Y27042203D01*
X39618255Y27140714D01*
X39609505Y27243811D01*
X39525542Y27344229D01*
X39454034Y27376716D01*
X39319253Y27392330D01*
X39168709Y27377579D01*
X39035240Y27333201D01*
X39023533Y27327158D01*
X38949628Y27294032D01*
X38921615Y27307213D01*
X38917227Y27374490D01*
X38931821Y27446609D01*
X39007227Y27512982D01*
X39058305Y27526871D01*
X39180857Y27543963D01*
X39324157Y27551693D01*
X39344329Y27551843D01*
X39484574Y27544235D01*
G37*
G36*
X41452404Y27530191D02*
G01*
X41496641Y27464229D01*
X41499486Y27451997D01*
X41521502Y27357319D01*
X41554318Y27216166D01*
X41591962Y27054229D01*
X41666346Y26734229D01*
X41758398Y27144229D01*
X41763618Y27167428D01*
X41804938Y27343475D01*
X41837328Y27456379D01*
X41867004Y27519939D01*
X41900182Y27547956D01*
X41943076Y27554229D01*
X42008502Y27538922D01*
X42056714Y27464229D01*
X42059818Y27450863D01*
X42088567Y27323534D01*
X42128005Y27144688D01*
X42175619Y26926118D01*
X42228894Y26679612D01*
X42285316Y26416963D01*
X42342372Y26149960D01*
X42397547Y25890394D01*
X42448328Y25650056D01*
X42492200Y25440735D01*
X42526650Y25274224D01*
X42549163Y25162312D01*
X42557227Y25116791D01*
X42545719Y25092647D01*
X42489553Y25075300D01*
X42420202Y25086348D01*
X42375808Y25124229D01*
X42364763Y25167024D01*
X42339068Y25279318D01*
X42301571Y25449139D01*
X42254663Y25665533D01*
X42200736Y25917547D01*
X42142181Y26194229D01*
X42103523Y26376055D01*
X42037623Y26674859D01*
X41984868Y26896785D01*
X41944923Y27043127D01*
X41917450Y27115178D01*
X41902111Y27114229D01*
X41886677Y27050392D01*
X41856896Y26921245D01*
X41824064Y26774229D01*
X41800069Y26672793D01*
X41768109Y26582147D01*
X41728359Y26538238D01*
X41669132Y26522038D01*
X41644179Y26519714D01*
X41598688Y26526896D01*
X41566262Y26564924D01*
X41537265Y26649655D01*
X41502061Y26796945D01*
X41499319Y26809144D01*
X41467932Y26957388D01*
X41445680Y27077970D01*
X41437227Y27145802D01*
X41434862Y27174189D01*
X41419536Y27189871D01*
X41416773Y27181703D01*
X41404101Y27113311D01*
X41385159Y26990899D01*
X41362401Y26832605D01*
X41338280Y26656565D01*
X41315249Y26480917D01*
X41295761Y26323799D01*
X41282269Y26203348D01*
X41277227Y26137702D01*
X41270483Y26126540D01*
X41218207Y26114815D01*
X41148671Y26121237D01*
X41103750Y26144229D01*
X41102524Y26161286D01*
X41108933Y26244533D01*
X41124431Y26381737D01*
X41146745Y26556843D01*
X41173600Y26753793D01*
X41202721Y26956532D01*
X41231836Y27149001D01*
X41258668Y27315145D01*
X41280943Y27438906D01*
X41296388Y27504229D01*
X41315914Y27534110D01*
X41381027Y27555709D01*
X41452404Y27530191D01*
G37*
G36*
X101255891Y29275925D02*
G01*
X101277227Y29191868D01*
X101266281Y29147420D01*
X101215971Y29114229D01*
X101202826Y29115273D01*
X101144775Y29153323D01*
X101126008Y29219122D01*
X101159488Y29275626D01*
X101197341Y29292602D01*
X101255891Y29275925D01*
G37*
G36*
X102055891Y29275925D02*
G01*
X102077227Y29191868D01*
X102066281Y29147420D01*
X102015971Y29114229D01*
X102002826Y29115273D01*
X101944775Y29153323D01*
X101926008Y29219122D01*
X101959488Y29275626D01*
X101997341Y29292602D01*
X102055891Y29275925D01*
G37*
G36*
X102855891Y29275925D02*
G01*
X102877227Y29191868D01*
X102866281Y29147420D01*
X102815971Y29114229D01*
X102802826Y29115273D01*
X102744775Y29153323D01*
X102726008Y29219122D01*
X102759488Y29275626D01*
X102797341Y29292602D01*
X102855891Y29275925D01*
G37*
G36*
X101577665Y28185798D02*
G01*
X102054151Y28184486D01*
X104977227Y28174229D01*
X104998277Y25434229D01*
X104757227Y25434229D01*
X104757227Y27914229D01*
X99315961Y27914229D01*
X99337227Y25694229D01*
X103957227Y25673579D01*
X103957227Y25434229D01*
X99077227Y25434229D01*
X99077227Y26787562D01*
X99077656Y27028592D01*
X99079493Y27331814D01*
X99082608Y27602300D01*
X99086815Y27830595D01*
X99091931Y28007248D01*
X99097771Y28122807D01*
X99104151Y28167820D01*
X99141481Y28171755D01*
X99253067Y28175561D01*
X99432461Y28178853D01*
X99673321Y28181595D01*
X99969306Y28183750D01*
X100314075Y28185284D01*
X100701285Y28186161D01*
X101124595Y28186344D01*
X101577665Y28185798D01*
G37*
G36*
X100532389Y29712854D02*
G01*
X100644722Y29704454D01*
X100701511Y29685877D01*
X100717227Y29654229D01*
X100698205Y29618517D01*
X100629900Y29599615D01*
X100497227Y29594229D01*
X100277227Y29594229D01*
X100277227Y29234229D01*
X100500560Y29234229D01*
X100632667Y29225505D01*
X100705247Y29201276D01*
X100703823Y29170166D01*
X100629674Y29140883D01*
X100484082Y29122138D01*
X100368481Y29113499D01*
X100304278Y29095138D01*
X100280613Y29052915D01*
X100277227Y28972138D01*
X100277227Y28834229D01*
X100497227Y28834229D01*
X100628170Y28829041D01*
X100697475Y28810412D01*
X100717227Y28774229D01*
X100710353Y28751196D01*
X100668355Y28728729D01*
X100575468Y28717372D01*
X100417227Y28714229D01*
X100117227Y28714229D01*
X100117227Y29714229D01*
X100417227Y29714229D01*
X100532389Y29712854D01*
G37*
G36*
X103724886Y29713354D02*
G01*
X103841551Y29705485D01*
X103900760Y29686828D01*
X103917227Y29654229D01*
X103897654Y29615092D01*
X103817227Y29594229D01*
X103717227Y29594229D01*
X103717227Y29154229D01*
X103717045Y29028416D01*
X103714732Y28878221D01*
X103707439Y28785656D01*
X103692322Y28736823D01*
X103666533Y28717828D01*
X103627227Y28714775D01*
X103493209Y28728364D01*
X103394020Y28766878D01*
X103357227Y28823557D01*
X103378485Y28863999D01*
X103457227Y28864438D01*
X103557227Y28845322D01*
X103557227Y29219775D01*
X103557209Y29275150D01*
X103555753Y29430273D01*
X103549059Y29524646D01*
X103533093Y29573367D01*
X103503827Y29591529D01*
X103457227Y29594229D01*
X103391999Y29605972D01*
X103357227Y29654229D01*
X103361309Y29673013D01*
X103398030Y29698012D01*
X103485098Y29710700D01*
X103637227Y29714229D01*
X103724886Y29713354D01*
G37*
G36*
X105324886Y29713354D02*
G01*
X105441551Y29705485D01*
X105500760Y29686828D01*
X105517227Y29654229D01*
X105497654Y29615092D01*
X105417227Y29594229D01*
X105317227Y29594229D01*
X105317227Y29154229D01*
X105317045Y29028416D01*
X105314732Y28878221D01*
X105307439Y28785656D01*
X105292322Y28736823D01*
X105266533Y28717828D01*
X105227227Y28714775D01*
X105093209Y28728364D01*
X104994020Y28766878D01*
X104957227Y28823557D01*
X104978485Y28863999D01*
X105057227Y28864438D01*
X105157227Y28845322D01*
X105157227Y29219775D01*
X105157209Y29275150D01*
X105155753Y29430273D01*
X105149059Y29524646D01*
X105133093Y29573367D01*
X105103827Y29591529D01*
X105057227Y29594229D01*
X104991999Y29605972D01*
X104957227Y29654229D01*
X104961309Y29673013D01*
X104998030Y29698012D01*
X105085098Y29710700D01*
X105237227Y29714229D01*
X105324886Y29713354D01*
G37*
G36*
X100897227Y29214229D02*
G01*
X101037227Y29214229D01*
X101038407Y29149186D01*
X101060799Y28972761D01*
X101112277Y28868500D01*
X101193736Y28834229D01*
X101245093Y28841749D01*
X101317676Y28900419D01*
X101359077Y29022500D01*
X101372227Y29214229D01*
X101368720Y29317554D01*
X101350409Y29452489D01*
X101319829Y29531093D01*
X101243835Y29584389D01*
X101150864Y29582700D01*
X101078634Y29516858D01*
X101062816Y29470122D01*
X101044401Y29353981D01*
X101037227Y29214229D01*
X100897227Y29214229D01*
X100900058Y29363453D01*
X100913208Y29471259D01*
X100942615Y29545700D01*
X100994199Y29611006D01*
X101044544Y29656152D01*
X101181569Y29711782D01*
X101335434Y29689381D01*
X101365811Y29673400D01*
X101442348Y29581424D01*
X101491927Y29441326D01*
X101514546Y29273678D01*
X101510206Y29099055D01*
X101478908Y28938031D01*
X101420651Y28811180D01*
X101335434Y28739076D01*
X101270573Y28720390D01*
X101123105Y28730103D01*
X100994199Y28817451D01*
X100945900Y28877433D01*
X100914912Y28950228D01*
X100900661Y29054417D01*
X100897227Y29214229D01*
G37*
G36*
X101697227Y29214229D02*
G01*
X101837227Y29214229D01*
X101838407Y29149186D01*
X101860799Y28972761D01*
X101912277Y28868500D01*
X101993736Y28834229D01*
X102045093Y28841749D01*
X102117676Y28900419D01*
X102159077Y29022500D01*
X102172227Y29214229D01*
X102168720Y29317554D01*
X102150409Y29452489D01*
X102119829Y29531093D01*
X102043835Y29584389D01*
X101950864Y29582700D01*
X101878634Y29516858D01*
X101862816Y29470122D01*
X101844401Y29353981D01*
X101837227Y29214229D01*
X101697227Y29214229D01*
X101700058Y29363453D01*
X101713208Y29471259D01*
X101742615Y29545700D01*
X101794199Y29611006D01*
X101844544Y29656152D01*
X101981569Y29711782D01*
X102135434Y29689381D01*
X102165811Y29673400D01*
X102242348Y29581424D01*
X102291927Y29441326D01*
X102314546Y29273678D01*
X102310206Y29099055D01*
X102278908Y28938031D01*
X102220651Y28811180D01*
X102135434Y28739076D01*
X102070573Y28720390D01*
X101923105Y28730103D01*
X101794199Y28817451D01*
X101745900Y28877433D01*
X101714912Y28950228D01*
X101700661Y29054417D01*
X101697227Y29214229D01*
G37*
G36*
X102497227Y29214229D02*
G01*
X102637227Y29214229D01*
X102638407Y29149186D01*
X102660799Y28972761D01*
X102712277Y28868500D01*
X102793736Y28834229D01*
X102845093Y28841749D01*
X102917676Y28900419D01*
X102959077Y29022500D01*
X102972227Y29214229D01*
X102968720Y29317554D01*
X102950409Y29452489D01*
X102919829Y29531093D01*
X102843835Y29584389D01*
X102750864Y29582700D01*
X102678634Y29516858D01*
X102662816Y29470122D01*
X102644401Y29353981D01*
X102637227Y29214229D01*
X102497227Y29214229D01*
X102500058Y29363453D01*
X102513208Y29471259D01*
X102542615Y29545700D01*
X102594199Y29611006D01*
X102644544Y29656152D01*
X102781569Y29711782D01*
X102935434Y29689381D01*
X102965811Y29673400D01*
X103042348Y29581424D01*
X103091927Y29441326D01*
X103114546Y29273678D01*
X103110206Y29099055D01*
X103078908Y28938031D01*
X103020651Y28811180D01*
X102935434Y28739076D01*
X102870573Y28720390D01*
X102723105Y28730103D01*
X102594199Y28817451D01*
X102545900Y28877433D01*
X102514912Y28950228D01*
X102500661Y29054417D01*
X102497227Y29214229D01*
G37*
G36*
X104538963Y29712318D02*
G01*
X104647468Y29703490D01*
X104702154Y29685014D01*
X104717227Y29654229D01*
X104717171Y29651655D01*
X104695599Y29617102D01*
X104624700Y29599284D01*
X104489380Y29594229D01*
X104261533Y29594229D01*
X104382670Y29464229D01*
X104486675Y29345941D01*
X104619635Y29156664D01*
X104680664Y28999445D01*
X104670111Y28873113D01*
X104588326Y28776497D01*
X104484863Y28728614D01*
X104358431Y28710722D01*
X104239721Y28725368D01*
X104151673Y28769461D01*
X104117227Y28839915D01*
X104117605Y28856308D01*
X104135278Y28895726D01*
X104194597Y28875636D01*
X104201239Y28872157D01*
X104335192Y28833259D01*
X104449449Y28854827D01*
X104524116Y28933375D01*
X104526199Y28938006D01*
X104545708Y29009868D01*
X104527126Y29082433D01*
X104463251Y29185535D01*
X104439223Y29218867D01*
X104330511Y29352905D01*
X104217220Y29474235D01*
X104172250Y29520598D01*
X104104071Y29605439D01*
X104077227Y29662075D01*
X104080676Y29674440D01*
X104124233Y29697700D01*
X104226205Y29710385D01*
X104397227Y29714229D01*
X104538963Y29712318D01*
G37*
G36*
X99277227Y29214229D02*
G01*
X99437227Y29214229D01*
X99437238Y29180763D01*
X99438598Y29016136D01*
X99444735Y28914162D01*
X99459190Y28859910D01*
X99485507Y28838447D01*
X99527227Y28834841D01*
X99636891Y28854001D01*
X99710794Y28922776D01*
X99757609Y29055926D01*
X99776033Y29216684D01*
X99753232Y29391798D01*
X99685536Y29524229D01*
X99631879Y29565340D01*
X99531027Y29594229D01*
X99519679Y29594156D01*
X99480140Y29588322D01*
X99455821Y29562387D01*
X99443026Y29501376D01*
X99438060Y29390315D01*
X99437227Y29214229D01*
X99277227Y29214229D01*
X99277227Y29714229D01*
X99480303Y29714229D01*
X99484829Y29714224D01*
X99619359Y29705466D01*
X99712334Y29670945D01*
X99800303Y29597305D01*
X99860162Y29530827D01*
X99897421Y29459667D01*
X99913664Y29363236D01*
X99917227Y29214229D01*
X99914319Y29075063D01*
X99899425Y28975357D01*
X99864198Y28903156D01*
X99800303Y28831152D01*
X99797693Y28828549D01*
X99710067Y28756134D01*
X99616454Y28722479D01*
X99480303Y28714229D01*
X99277227Y28714229D01*
X99277227Y29214229D01*
G37*
G36*
X102957227Y26108664D02*
G01*
X102867227Y26121446D01*
X102852394Y26123894D01*
X102811174Y26141469D01*
X102786888Y26185880D01*
X102773616Y26274848D01*
X102765437Y26426091D01*
X102753647Y26717953D01*
X102257227Y26694229D01*
X102245423Y26401683D01*
X102242361Y26330628D01*
X102233664Y26208922D01*
X102218461Y26144313D01*
X102190972Y26120626D01*
X102145423Y26121683D01*
X102116343Y26127768D01*
X102091689Y26144924D01*
X102074506Y26184082D01*
X102063081Y26256840D01*
X102055697Y26374795D01*
X102050640Y26549547D01*
X102046195Y26792693D01*
X102044186Y26945888D01*
X102043384Y27153937D01*
X102045030Y27325824D01*
X102048941Y27446944D01*
X102054940Y27502693D01*
X102080624Y27531948D01*
X102155971Y27554229D01*
X102184147Y27551938D01*
X102212987Y27532635D01*
X102228950Y27480364D01*
X102235782Y27379452D01*
X102237227Y27214229D01*
X102237227Y26874229D01*
X102757227Y26874229D01*
X102757227Y27214229D01*
X102758119Y27377571D01*
X102763906Y27478617D01*
X102779248Y27531182D01*
X102808802Y27551107D01*
X102857227Y27554229D01*
X102957227Y27554229D01*
X102957227Y26108664D01*
G37*
G36*
X99728463Y26900202D02*
G01*
X99946380Y26900202D01*
X99951697Y26713542D01*
X99973337Y26541130D01*
X100010690Y26404442D01*
X100063144Y26324955D01*
X100168319Y26278433D01*
X100287707Y26293531D01*
X100384876Y26380289D01*
X100423577Y26479415D01*
X100449726Y26638881D01*
X100458931Y26825931D01*
X100451190Y27014124D01*
X100426505Y27177017D01*
X100384876Y27288168D01*
X100347232Y27332146D01*
X100242175Y27388039D01*
X100128074Y27388859D01*
X100034537Y27330988D01*
X100034475Y27330913D01*
X99987158Y27230364D01*
X99957997Y27079635D01*
X99946380Y26900202D01*
X99728463Y26900202D01*
X99728131Y26920791D01*
X99759269Y27136142D01*
X99819911Y27320664D01*
X99904831Y27450924D01*
X99958138Y27497508D01*
X100055472Y27541899D01*
X100192681Y27552956D01*
X100272896Y27548029D01*
X100431627Y27498868D01*
X100546508Y27392438D01*
X100622234Y27223077D01*
X100663498Y26985122D01*
X100669537Y26900149D01*
X100659695Y26634189D01*
X100604761Y26416252D01*
X100508100Y26252704D01*
X100373077Y26149908D01*
X100203058Y26114229D01*
X100181589Y26114625D01*
X100008871Y26155021D01*
X99877181Y26262450D01*
X99785657Y26437951D01*
X99733439Y26682567D01*
X99731726Y26698049D01*
X99728463Y26900202D01*
G37*
G36*
X101484574Y27544235D02*
G01*
X101583283Y27513754D01*
X101674157Y27450673D01*
X101682310Y27443756D01*
X101756023Y27367085D01*
X101789393Y27282464D01*
X101797227Y27154229D01*
X101797221Y27149329D01*
X101788619Y27022224D01*
X101754105Y26938231D01*
X101679566Y26862335D01*
X101634323Y26830075D01*
X101501948Y26762926D01*
X101356532Y26714062D01*
X101306136Y26700514D01*
X101169295Y26636387D01*
X101104669Y26545946D01*
X101108193Y26424454D01*
X101117415Y26399249D01*
X101193133Y26323400D01*
X101318662Y26285337D01*
X101476020Y26288060D01*
X101647227Y26334567D01*
X101662321Y26340027D01*
X101705919Y26333402D01*
X101717227Y26263508D01*
X101715235Y26230497D01*
X101682497Y26171001D01*
X101592227Y26139229D01*
X101391964Y26116379D01*
X101192284Y26140554D01*
X101043037Y26218356D01*
X100949570Y26346750D01*
X100917227Y26522699D01*
X100923800Y26606885D01*
X100975866Y26733860D01*
X101087796Y26827216D01*
X101269092Y26897067D01*
X101426783Y26955542D01*
X101555959Y27042203D01*
X101618255Y27140714D01*
X101609505Y27243811D01*
X101525542Y27344229D01*
X101454034Y27376716D01*
X101319253Y27392330D01*
X101168709Y27377579D01*
X101035240Y27333201D01*
X101023533Y27327158D01*
X100949628Y27294032D01*
X100921615Y27307213D01*
X100917227Y27374490D01*
X100931821Y27446609D01*
X101007227Y27512982D01*
X101058305Y27526871D01*
X101180857Y27543963D01*
X101324157Y27551693D01*
X101344329Y27551843D01*
X101484574Y27544235D01*
G37*
G36*
X103452404Y27530191D02*
G01*
X103496641Y27464229D01*
X103499486Y27451997D01*
X103521502Y27357319D01*
X103554318Y27216166D01*
X103591962Y27054229D01*
X103666346Y26734229D01*
X103758398Y27144229D01*
X103763618Y27167428D01*
X103804938Y27343475D01*
X103837328Y27456379D01*
X103867004Y27519939D01*
X103900182Y27547956D01*
X103943076Y27554229D01*
X104008502Y27538922D01*
X104056714Y27464229D01*
X104059818Y27450863D01*
X104088567Y27323534D01*
X104128005Y27144688D01*
X104175619Y26926118D01*
X104228894Y26679612D01*
X104285316Y26416963D01*
X104342372Y26149960D01*
X104397547Y25890394D01*
X104448328Y25650056D01*
X104492200Y25440735D01*
X104526650Y25274224D01*
X104549163Y25162312D01*
X104557227Y25116791D01*
X104545719Y25092647D01*
X104489553Y25075300D01*
X104420202Y25086348D01*
X104375808Y25124229D01*
X104364763Y25167024D01*
X104339068Y25279318D01*
X104301571Y25449139D01*
X104254663Y25665533D01*
X104200736Y25917547D01*
X104142181Y26194229D01*
X104103523Y26376055D01*
X104037623Y26674859D01*
X103984868Y26896785D01*
X103944923Y27043127D01*
X103917450Y27115178D01*
X103902111Y27114229D01*
X103886677Y27050392D01*
X103856896Y26921245D01*
X103824064Y26774229D01*
X103800069Y26672793D01*
X103768109Y26582147D01*
X103728359Y26538238D01*
X103669132Y26522038D01*
X103644179Y26519714D01*
X103598688Y26526896D01*
X103566262Y26564924D01*
X103537265Y26649655D01*
X103502061Y26796945D01*
X103499319Y26809144D01*
X103467932Y26957388D01*
X103445680Y27077970D01*
X103437227Y27145802D01*
X103434862Y27174189D01*
X103419536Y27189871D01*
X103416773Y27181703D01*
X103404101Y27113311D01*
X103385159Y26990899D01*
X103362401Y26832605D01*
X103338280Y26656565D01*
X103315249Y26480917D01*
X103295761Y26323799D01*
X103282269Y26203348D01*
X103277227Y26137702D01*
X103270483Y26126540D01*
X103218207Y26114815D01*
X103148671Y26121237D01*
X103103750Y26144229D01*
X103102524Y26161286D01*
X103108933Y26244533D01*
X103124431Y26381737D01*
X103146745Y26556843D01*
X103173600Y26753793D01*
X103202721Y26956532D01*
X103231836Y27149001D01*
X103258668Y27315145D01*
X103280943Y27438906D01*
X103296388Y27504229D01*
X103315914Y27534110D01*
X103381027Y27555709D01*
X103452404Y27530191D01*
G37*
G04 #@! TO.C,kibuzzard-1*
G36*
X52009015Y107586739D02*
G01*
X52042352Y107504188D01*
X52009015Y107421638D01*
X51924877Y107386713D01*
X51842327Y107421638D01*
X51810577Y107504188D01*
X51842327Y107586739D01*
X51924877Y107618489D01*
X52009015Y107586739D01*
G37*
G36*
X45387552Y108664651D02*
G01*
X45419302Y108631314D01*
X45679652Y108263014D01*
X45711402Y108220151D01*
X45727277Y108167764D01*
X45703464Y108104264D01*
X45644727Y108075689D01*
X45612977Y108085214D01*
X45584402Y108113789D01*
X45457402Y108320164D01*
X45457402Y106437388D01*
X45425652Y106375476D01*
X45373264Y106354838D01*
X45333577Y106354838D01*
X45281189Y106375476D01*
X45247852Y106437388D01*
X45247852Y108599564D01*
X45276427Y108658301D01*
X45339927Y108678939D01*
X45387552Y108664651D01*
G37*
G36*
X41810914Y108650364D02*
G01*
X41841077Y108596389D01*
X41841077Y108116964D01*
X41809327Y108061401D01*
X41736302Y108037589D01*
X41663277Y108061401D01*
X41631527Y108116964D01*
X41631527Y108482089D01*
X40729827Y108482089D01*
X40729827Y108310639D01*
X41679152Y106494538D01*
X41691852Y106450088D01*
X41674389Y106396113D01*
X41626764Y106362776D01*
X41580727Y106351663D01*
X41539452Y106351663D01*
X41495002Y106389763D01*
X40552027Y108231264D01*
X40528214Y108278889D01*
X40520277Y108323339D01*
X40520277Y108596389D01*
X40552027Y108650364D01*
X40618702Y108675764D01*
X41745827Y108675764D01*
X41810914Y108650364D01*
G37*
G36*
X50924752Y107859789D02*
G01*
X50973965Y107820101D01*
X50994602Y107770889D01*
X50988252Y107750251D01*
X50978727Y107729614D01*
X50565977Y107113663D01*
X50988252Y106478663D01*
X51000952Y106434213D01*
X50980315Y106388176D01*
X50931102Y106348488D01*
X50891415Y106332613D01*
X50870777Y106332613D01*
X50843790Y106340551D01*
X50813627Y106364363D01*
X50429452Y106958088D01*
X50042102Y106364363D01*
X50015115Y106340551D01*
X49981777Y106332613D01*
X49924627Y106348488D01*
X49877002Y106388176D01*
X49857952Y106434213D01*
X49861127Y106459613D01*
X49870652Y106478663D01*
X50296102Y107113663D01*
X49880177Y107729614D01*
X49864302Y107770889D01*
X49884940Y107823276D01*
X49934152Y107861376D01*
X49991302Y107875664D01*
X50024640Y107867726D01*
X50051627Y107843914D01*
X50429452Y107262888D01*
X50804102Y107843914D01*
X50834265Y107869314D01*
X50867602Y107875664D01*
X50924752Y107859789D01*
G37*
G36*
X52585277Y107015238D02*
G01*
X52563449Y106792195D01*
X52497965Y106618363D01*
X52395174Y106489776D01*
X52261427Y106402463D01*
X52020127Y106335788D01*
X51834390Y106335788D01*
X51591502Y106402463D01*
X51457358Y106489776D01*
X51353377Y106618363D01*
X51286702Y106792195D01*
X51264477Y107015238D01*
X51474027Y107015238D01*
X51504190Y106797751D01*
X51594677Y106646938D01*
X51738346Y106558832D01*
X51928052Y106529463D01*
X52116965Y106558832D01*
X52258252Y106646938D01*
X52346358Y106797751D01*
X52375727Y107015238D01*
X52375727Y107999489D01*
X52346358Y108214595D01*
X52258252Y108364614D01*
X52116965Y108452720D01*
X51928052Y108482089D01*
X51738346Y108452720D01*
X51594677Y108364614D01*
X51504190Y108214595D01*
X51474027Y107999489D01*
X51474027Y107015238D01*
X51264477Y107015238D01*
X51264477Y107999489D01*
X51286702Y108220151D01*
X51353377Y108393189D01*
X51457358Y108521776D01*
X51591502Y108609089D01*
X51750252Y108659095D01*
X51928052Y108675764D01*
X52105455Y108659095D01*
X52263015Y108609089D01*
X52395571Y108521776D01*
X52497965Y108393189D01*
X52563449Y108220151D01*
X52585277Y107999489D01*
X52585277Y107015238D01*
G37*
G36*
X49072536Y108659095D02*
G01*
X49230890Y108609089D01*
X49366621Y108521776D01*
X49472190Y108393189D01*
X49540055Y108220151D01*
X49562677Y107999489D01*
X49562677Y107015238D01*
X49540452Y106792195D01*
X49473777Y106618363D01*
X49369399Y106489776D01*
X49234065Y106402463D01*
X48994352Y106335788D01*
X48800677Y106335788D01*
X48685186Y106354442D01*
X48548265Y106410401D01*
X48417693Y106496920D01*
X48321252Y106607251D01*
X48261721Y106734648D01*
X48241877Y106872363D01*
X48268865Y106975551D01*
X48349827Y107002538D01*
X48422852Y106981901D01*
X48451427Y106919988D01*
X48476827Y106794576D01*
X48535565Y106667576D01*
X48660977Y106569151D01*
X48886402Y106529463D01*
X49087618Y106558832D01*
X49234065Y106646938D01*
X49323361Y106797751D01*
X49353127Y107015238D01*
X49353127Y107999489D01*
X49323758Y108214595D01*
X49235652Y108364614D01*
X49091983Y108452720D01*
X48895927Y108482089D01*
X48668915Y108442401D01*
X48535565Y108342389D01*
X48472065Y108215389D01*
X48451427Y108097914D01*
X48427615Y108042351D01*
X48346652Y108018539D01*
X48268865Y108043939D01*
X48241877Y108145539D01*
X48261324Y108282857D01*
X48319665Y108409064D01*
X48414518Y108517807D01*
X48543502Y108602739D01*
X48705427Y108657507D01*
X48899102Y108675764D01*
X49072536Y108659095D01*
G37*
G36*
X47846590Y106378651D02*
G01*
X47798965Y106354838D01*
X47720824Y106354838D01*
X47513920Y106354838D01*
X47178252Y106354838D01*
X47011565Y106370713D01*
X46860752Y106418338D01*
X46732958Y106501682D01*
X46635327Y106624713D01*
X46573415Y106792195D01*
X46552777Y107008888D01*
X46552777Y107018413D01*
X46762327Y107018413D01*
X46791696Y106806879D01*
X46879802Y106661226D01*
X47020296Y106576692D01*
X47206827Y106548513D01*
X47664027Y106548513D01*
X47664027Y107523239D01*
X47206827Y107523239D01*
X47020296Y107497838D01*
X46879802Y107421638D01*
X46791696Y107283526D01*
X46762327Y107072388D01*
X46762327Y107018413D01*
X46552777Y107018413D01*
X46552777Y107066038D01*
X46563096Y107216057D01*
X46594052Y107335913D01*
X46708352Y107507364D01*
X46879802Y107612139D01*
X46770661Y107686354D01*
X46684540Y107801051D01*
X46628580Y107952260D01*
X46612183Y108113789D01*
X46819477Y108113789D01*
X46845671Y107921701D01*
X46924252Y107796289D01*
X47058396Y107727232D01*
X47251277Y107704214D01*
X47664027Y107704214D01*
X47664027Y108482089D01*
X47263977Y108482089D01*
X47032202Y108451926D01*
X46876627Y108342389D01*
X46819477Y108113789D01*
X46612183Y108113789D01*
X46609927Y108136014D01*
X46631755Y108334054D01*
X46697240Y108477326D01*
X46799633Y108574560D01*
X46932190Y108634489D01*
X47087368Y108665445D01*
X47257627Y108675764D01*
X47778327Y108675764D01*
X47843415Y108655126D01*
X47873577Y108596389D01*
X47873577Y106434213D01*
X47846590Y106378651D01*
G37*
G36*
X44433464Y108662270D02*
G01*
X44571577Y108621789D01*
X44760489Y108486851D01*
X44855739Y108318576D01*
X44882727Y108164589D01*
X44873202Y108091564D01*
X44841452Y108053464D01*
X44774777Y108043939D01*
X44696989Y108072514D01*
X44673177Y108145539D01*
X44657302Y108256664D01*
X44596977Y108366201D01*
X44471564Y108451926D01*
X44266777Y108485264D01*
X44093739Y108459864D01*
X43974677Y108383664D01*
X43905621Y108255870D01*
X43882602Y108075689D01*
X43928639Y107831214D01*
X44063577Y107705801D01*
X44279477Y107669289D01*
X44339802Y107640714D01*
X44358852Y107577214D01*
X44339802Y107515301D01*
X44279477Y107488313D01*
X44093739Y107462913D01*
X43949277Y107386713D01*
X43856408Y107255745D01*
X43825452Y107066038D01*
X43825452Y107005714D01*
X43854821Y106793385D01*
X43942927Y106645351D01*
X44087389Y106558435D01*
X44285827Y106529463D01*
X44501727Y106564388D01*
X44638252Y106653288D01*
X44709689Y106769176D01*
X44730327Y106881888D01*
X44752552Y106946976D01*
X44841452Y106970788D01*
X44912889Y106948563D01*
X44936702Y106859663D01*
X44898602Y106678688D01*
X44777952Y106510413D01*
X44571577Y106385001D01*
X44363614Y106335788D01*
X44187402Y106335788D01*
X43944514Y106402463D01*
X43809180Y106488982D01*
X43704802Y106615188D01*
X43638127Y106785845D01*
X43615902Y107005714D01*
X43615902Y107066038D01*
X43638921Y107254157D01*
X43707977Y107399413D01*
X43811958Y107506570D01*
X43939752Y107580389D01*
X43837755Y107654207D01*
X43754014Y107767714D01*
X43698055Y107921701D01*
X43679402Y108116964D01*
X43698055Y108302304D01*
X43754014Y108445576D01*
X43842518Y108550748D01*
X43958802Y108621789D01*
X44099296Y108662270D01*
X44260427Y108675764D01*
X44433464Y108662270D01*
G37*
G36*
X42884064Y108662270D02*
G01*
X43022177Y108621789D01*
X43211089Y108486851D01*
X43306339Y108318576D01*
X43333327Y108164589D01*
X43323802Y108091564D01*
X43292052Y108053464D01*
X43225377Y108043939D01*
X43147589Y108072514D01*
X43123777Y108145539D01*
X43107902Y108256664D01*
X43047577Y108366201D01*
X42922164Y108451926D01*
X42717377Y108485264D01*
X42544339Y108459864D01*
X42425277Y108383664D01*
X42356221Y108255870D01*
X42333202Y108075689D01*
X42379239Y107831214D01*
X42514177Y107705801D01*
X42730077Y107669289D01*
X42790402Y107640714D01*
X42809452Y107577214D01*
X42790402Y107515301D01*
X42730077Y107488313D01*
X42544339Y107462913D01*
X42399877Y107386713D01*
X42307008Y107255745D01*
X42276052Y107066038D01*
X42276052Y107005714D01*
X42305421Y106793385D01*
X42393527Y106645351D01*
X42537990Y106558435D01*
X42736427Y106529463D01*
X42952327Y106564388D01*
X43088852Y106653288D01*
X43160289Y106769176D01*
X43180927Y106881888D01*
X43203152Y106946976D01*
X43292052Y106970788D01*
X43363489Y106948563D01*
X43387302Y106859663D01*
X43349202Y106678688D01*
X43228552Y106510413D01*
X43022177Y106385001D01*
X42814214Y106335788D01*
X42638002Y106335788D01*
X42395114Y106402463D01*
X42259780Y106488982D01*
X42155402Y106615188D01*
X42088727Y106785845D01*
X42066502Y107005714D01*
X42066502Y107066038D01*
X42089521Y107254157D01*
X42158577Y107399413D01*
X42262558Y107506570D01*
X42390352Y107580389D01*
X42288355Y107654207D01*
X42204614Y107767714D01*
X42148655Y107921701D01*
X42130002Y108116964D01*
X42148655Y108302304D01*
X42204614Y108445576D01*
X42293118Y108550748D01*
X42409402Y108621789D01*
X42549896Y108662270D01*
X42711027Y108675764D01*
X42884064Y108662270D01*
G37*
G36*
X114009015Y107586739D02*
G01*
X114042352Y107504188D01*
X114009015Y107421638D01*
X113924877Y107386713D01*
X113842327Y107421638D01*
X113810577Y107504188D01*
X113842327Y107586739D01*
X113924877Y107618489D01*
X114009015Y107586739D01*
G37*
G36*
X107387552Y108664651D02*
G01*
X107419302Y108631314D01*
X107679652Y108263014D01*
X107711402Y108220151D01*
X107727277Y108167764D01*
X107703464Y108104264D01*
X107644727Y108075689D01*
X107612977Y108085214D01*
X107584402Y108113789D01*
X107457402Y108320164D01*
X107457402Y106437388D01*
X107425652Y106375476D01*
X107373264Y106354838D01*
X107333577Y106354838D01*
X107281189Y106375476D01*
X107247852Y106437388D01*
X107247852Y108599564D01*
X107276427Y108658301D01*
X107339927Y108678939D01*
X107387552Y108664651D01*
G37*
G36*
X103810914Y108650364D02*
G01*
X103841077Y108596389D01*
X103841077Y108116964D01*
X103809327Y108061401D01*
X103736302Y108037589D01*
X103663277Y108061401D01*
X103631527Y108116964D01*
X103631527Y108482089D01*
X102729827Y108482089D01*
X102729827Y108310639D01*
X103679152Y106494538D01*
X103691852Y106450088D01*
X103674389Y106396113D01*
X103626764Y106362776D01*
X103580727Y106351663D01*
X103539452Y106351663D01*
X103495002Y106389763D01*
X102552027Y108231264D01*
X102528214Y108278889D01*
X102520277Y108323339D01*
X102520277Y108596389D01*
X102552027Y108650364D01*
X102618702Y108675764D01*
X103745827Y108675764D01*
X103810914Y108650364D01*
G37*
G36*
X112924752Y107859789D02*
G01*
X112973965Y107820101D01*
X112994602Y107770889D01*
X112988252Y107750251D01*
X112978727Y107729614D01*
X112565977Y107113663D01*
X112988252Y106478663D01*
X113000952Y106434213D01*
X112980315Y106388176D01*
X112931102Y106348488D01*
X112891415Y106332613D01*
X112870777Y106332613D01*
X112843790Y106340551D01*
X112813627Y106364363D01*
X112429452Y106958088D01*
X112042102Y106364363D01*
X112015115Y106340551D01*
X111981777Y106332613D01*
X111924627Y106348488D01*
X111877002Y106388176D01*
X111857952Y106434213D01*
X111861127Y106459613D01*
X111870652Y106478663D01*
X112296102Y107113663D01*
X111880177Y107729614D01*
X111864302Y107770889D01*
X111884940Y107823276D01*
X111934152Y107861376D01*
X111991302Y107875664D01*
X112024640Y107867726D01*
X112051627Y107843914D01*
X112429452Y107262888D01*
X112804102Y107843914D01*
X112834265Y107869314D01*
X112867602Y107875664D01*
X112924752Y107859789D01*
G37*
G36*
X114585277Y107015238D02*
G01*
X114563449Y106792195D01*
X114497965Y106618363D01*
X114395174Y106489776D01*
X114261427Y106402463D01*
X114020127Y106335788D01*
X113834390Y106335788D01*
X113591502Y106402463D01*
X113457358Y106489776D01*
X113353377Y106618363D01*
X113286702Y106792195D01*
X113264477Y107015238D01*
X113474027Y107015238D01*
X113504190Y106797751D01*
X113594677Y106646938D01*
X113738346Y106558832D01*
X113928052Y106529463D01*
X114116965Y106558832D01*
X114258252Y106646938D01*
X114346358Y106797751D01*
X114375727Y107015238D01*
X114375727Y107999489D01*
X114346358Y108214595D01*
X114258252Y108364614D01*
X114116965Y108452720D01*
X113928052Y108482089D01*
X113738346Y108452720D01*
X113594677Y108364614D01*
X113504190Y108214595D01*
X113474027Y107999489D01*
X113474027Y107015238D01*
X113264477Y107015238D01*
X113264477Y107999489D01*
X113286702Y108220151D01*
X113353377Y108393189D01*
X113457358Y108521776D01*
X113591502Y108609089D01*
X113750252Y108659095D01*
X113928052Y108675764D01*
X114105455Y108659095D01*
X114263015Y108609089D01*
X114395571Y108521776D01*
X114497965Y108393189D01*
X114563449Y108220151D01*
X114585277Y107999489D01*
X114585277Y107015238D01*
G37*
G36*
X111072536Y108659095D02*
G01*
X111230890Y108609089D01*
X111366621Y108521776D01*
X111472190Y108393189D01*
X111540055Y108220151D01*
X111562677Y107999489D01*
X111562677Y107015238D01*
X111540452Y106792195D01*
X111473777Y106618363D01*
X111369399Y106489776D01*
X111234065Y106402463D01*
X110994352Y106335788D01*
X110800677Y106335788D01*
X110685186Y106354442D01*
X110548265Y106410401D01*
X110417693Y106496920D01*
X110321252Y106607251D01*
X110261721Y106734648D01*
X110241877Y106872363D01*
X110268865Y106975551D01*
X110349827Y107002538D01*
X110422852Y106981901D01*
X110451427Y106919988D01*
X110476827Y106794576D01*
X110535565Y106667576D01*
X110660977Y106569151D01*
X110886402Y106529463D01*
X111087618Y106558832D01*
X111234065Y106646938D01*
X111323361Y106797751D01*
X111353127Y107015238D01*
X111353127Y107999489D01*
X111323758Y108214595D01*
X111235652Y108364614D01*
X111091983Y108452720D01*
X110895927Y108482089D01*
X110668915Y108442401D01*
X110535565Y108342389D01*
X110472065Y108215389D01*
X110451427Y108097914D01*
X110427615Y108042351D01*
X110346652Y108018539D01*
X110268865Y108043939D01*
X110241877Y108145539D01*
X110261324Y108282857D01*
X110319665Y108409064D01*
X110414518Y108517807D01*
X110543502Y108602739D01*
X110705427Y108657507D01*
X110899102Y108675764D01*
X111072536Y108659095D01*
G37*
G36*
X109846590Y106378651D02*
G01*
X109798965Y106354838D01*
X109720824Y106354838D01*
X109513920Y106354838D01*
X109178252Y106354838D01*
X109011565Y106370713D01*
X108860752Y106418338D01*
X108732958Y106501682D01*
X108635327Y106624713D01*
X108573415Y106792195D01*
X108552777Y107008888D01*
X108552777Y107018413D01*
X108762327Y107018413D01*
X108791696Y106806879D01*
X108879802Y106661226D01*
X109020296Y106576692D01*
X109206827Y106548513D01*
X109664027Y106548513D01*
X109664027Y107523239D01*
X109206827Y107523239D01*
X109020296Y107497838D01*
X108879802Y107421638D01*
X108791696Y107283526D01*
X108762327Y107072388D01*
X108762327Y107018413D01*
X108552777Y107018413D01*
X108552777Y107066038D01*
X108563096Y107216057D01*
X108594052Y107335913D01*
X108708352Y107507364D01*
X108879802Y107612139D01*
X108770661Y107686354D01*
X108684540Y107801051D01*
X108628580Y107952260D01*
X108612183Y108113789D01*
X108819477Y108113789D01*
X108845671Y107921701D01*
X108924252Y107796289D01*
X109058396Y107727232D01*
X109251277Y107704214D01*
X109664027Y107704214D01*
X109664027Y108482089D01*
X109263977Y108482089D01*
X109032202Y108451926D01*
X108876627Y108342389D01*
X108819477Y108113789D01*
X108612183Y108113789D01*
X108609927Y108136014D01*
X108631755Y108334054D01*
X108697240Y108477326D01*
X108799633Y108574560D01*
X108932190Y108634489D01*
X109087368Y108665445D01*
X109257627Y108675764D01*
X109778327Y108675764D01*
X109843415Y108655126D01*
X109873577Y108596389D01*
X109873577Y106434213D01*
X109846590Y106378651D01*
G37*
G36*
X106433464Y108662270D02*
G01*
X106571577Y108621789D01*
X106760489Y108486851D01*
X106855739Y108318576D01*
X106882727Y108164589D01*
X106873202Y108091564D01*
X106841452Y108053464D01*
X106774777Y108043939D01*
X106696989Y108072514D01*
X106673177Y108145539D01*
X106657302Y108256664D01*
X106596977Y108366201D01*
X106471564Y108451926D01*
X106266777Y108485264D01*
X106093739Y108459864D01*
X105974677Y108383664D01*
X105905621Y108255870D01*
X105882602Y108075689D01*
X105928639Y107831214D01*
X106063577Y107705801D01*
X106279477Y107669289D01*
X106339802Y107640714D01*
X106358852Y107577214D01*
X106339802Y107515301D01*
X106279477Y107488313D01*
X106093739Y107462913D01*
X105949277Y107386713D01*
X105856408Y107255745D01*
X105825452Y107066038D01*
X105825452Y107005714D01*
X105854821Y106793385D01*
X105942927Y106645351D01*
X106087389Y106558435D01*
X106285827Y106529463D01*
X106501727Y106564388D01*
X106638252Y106653288D01*
X106709689Y106769176D01*
X106730327Y106881888D01*
X106752552Y106946976D01*
X106841452Y106970788D01*
X106912889Y106948563D01*
X106936702Y106859663D01*
X106898602Y106678688D01*
X106777952Y106510413D01*
X106571577Y106385001D01*
X106363614Y106335788D01*
X106187402Y106335788D01*
X105944514Y106402463D01*
X105809180Y106488982D01*
X105704802Y106615188D01*
X105638127Y106785845D01*
X105615902Y107005714D01*
X105615902Y107066038D01*
X105638921Y107254157D01*
X105707977Y107399413D01*
X105811958Y107506570D01*
X105939752Y107580389D01*
X105837755Y107654207D01*
X105754014Y107767714D01*
X105698055Y107921701D01*
X105679402Y108116964D01*
X105698055Y108302304D01*
X105754014Y108445576D01*
X105842518Y108550748D01*
X105958802Y108621789D01*
X106099296Y108662270D01*
X106260427Y108675764D01*
X106433464Y108662270D01*
G37*
G36*
X104884064Y108662270D02*
G01*
X105022177Y108621789D01*
X105211089Y108486851D01*
X105306339Y108318576D01*
X105333327Y108164589D01*
X105323802Y108091564D01*
X105292052Y108053464D01*
X105225377Y108043939D01*
X105147589Y108072514D01*
X105123777Y108145539D01*
X105107902Y108256664D01*
X105047577Y108366201D01*
X104922164Y108451926D01*
X104717377Y108485264D01*
X104544339Y108459864D01*
X104425277Y108383664D01*
X104356221Y108255870D01*
X104333202Y108075689D01*
X104379239Y107831214D01*
X104514177Y107705801D01*
X104730077Y107669289D01*
X104790402Y107640714D01*
X104809452Y107577214D01*
X104790402Y107515301D01*
X104730077Y107488313D01*
X104544339Y107462913D01*
X104399877Y107386713D01*
X104307008Y107255745D01*
X104276052Y107066038D01*
X104276052Y107005714D01*
X104305421Y106793385D01*
X104393527Y106645351D01*
X104537990Y106558435D01*
X104736427Y106529463D01*
X104952327Y106564388D01*
X105088852Y106653288D01*
X105160289Y106769176D01*
X105180927Y106881888D01*
X105203152Y106946976D01*
X105292052Y106970788D01*
X105363489Y106948563D01*
X105387302Y106859663D01*
X105349202Y106678688D01*
X105228552Y106510413D01*
X105022177Y106385001D01*
X104814214Y106335788D01*
X104638002Y106335788D01*
X104395114Y106402463D01*
X104259780Y106488982D01*
X104155402Y106615188D01*
X104088727Y106785845D01*
X104066502Y107005714D01*
X104066502Y107066038D01*
X104089521Y107254157D01*
X104158577Y107399413D01*
X104262558Y107506570D01*
X104390352Y107580389D01*
X104288355Y107654207D01*
X104204614Y107767714D01*
X104148655Y107921701D01*
X104130002Y108116964D01*
X104148655Y108302304D01*
X104204614Y108445576D01*
X104293118Y108550748D01*
X104409402Y108621789D01*
X104549896Y108662270D01*
X104711027Y108675764D01*
X104884064Y108662270D01*
G37*
G36*
X22157677Y28578367D02*
G01*
X22189427Y28495817D01*
X22157677Y28413266D01*
X22075127Y28381516D01*
X21990989Y28413266D01*
X21957652Y28495817D01*
X21990989Y28578367D01*
X22075127Y28613292D01*
X22157677Y28578367D01*
G37*
G36*
X28718815Y29624529D02*
G01*
X28752152Y29562617D01*
X28752152Y27400441D01*
X28723577Y27341704D01*
X28660077Y27321066D01*
X28612452Y27335354D01*
X28580702Y27368691D01*
X28320352Y27736991D01*
X28288602Y27779854D01*
X28272727Y27832241D01*
X28296540Y27895741D01*
X28355277Y27924316D01*
X28387027Y27914791D01*
X28415602Y27886216D01*
X28542602Y27679841D01*
X28542602Y29562617D01*
X28574352Y29624529D01*
X28626740Y29645167D01*
X28666427Y29645167D01*
X28718815Y29624529D01*
G37*
G36*
X32505002Y29610242D02*
G01*
X33447977Y27768741D01*
X33471790Y27721116D01*
X33479727Y27676666D01*
X33479727Y27403616D01*
X33447977Y27349641D01*
X33381302Y27324241D01*
X32254177Y27324241D01*
X32189090Y27349641D01*
X32158927Y27403616D01*
X32158927Y27883041D01*
X32190677Y27938604D01*
X32263702Y27962416D01*
X32336727Y27938604D01*
X32368477Y27883041D01*
X32368477Y27517916D01*
X33270177Y27517916D01*
X33270177Y27689366D01*
X32320852Y29505467D01*
X32308152Y29549917D01*
X32325615Y29603892D01*
X32373240Y29637229D01*
X32419277Y29648342D01*
X32460552Y29648342D01*
X32505002Y29610242D01*
G37*
G36*
X23156214Y29659454D02*
G01*
X23186377Y29635642D01*
X23570552Y29041917D01*
X23957902Y29635642D01*
X23984889Y29659454D01*
X24018227Y29667392D01*
X24075377Y29651517D01*
X24123002Y29611829D01*
X24142052Y29565792D01*
X24138877Y29540392D01*
X24129352Y29521342D01*
X23703902Y28886342D01*
X24119827Y28270391D01*
X24135702Y28229116D01*
X24115064Y28176729D01*
X24065852Y28138629D01*
X24008702Y28124341D01*
X23975364Y28132279D01*
X23948377Y28156091D01*
X23570552Y28737117D01*
X23195902Y28156091D01*
X23165739Y28130691D01*
X23132402Y28124341D01*
X23075252Y28140216D01*
X23026039Y28179904D01*
X23005402Y28229116D01*
X23011752Y28249754D01*
X23021277Y28270391D01*
X23434027Y28886342D01*
X23011752Y29521342D01*
X22999052Y29565792D01*
X23019689Y29611829D01*
X23068902Y29651517D01*
X23108589Y29667392D01*
X23129227Y29667392D01*
X23156214Y29659454D01*
G37*
G36*
X21414727Y28984767D02*
G01*
X21436555Y29207810D01*
X21502039Y29381642D01*
X21604830Y29510229D01*
X21738577Y29597542D01*
X21979877Y29664217D01*
X22165614Y29664217D01*
X22408502Y29597542D01*
X22542646Y29510229D01*
X22646627Y29381642D01*
X22713302Y29207810D01*
X22735527Y28984767D01*
X22735527Y28000516D01*
X22713302Y27779854D01*
X22646627Y27606816D01*
X22542646Y27478229D01*
X22408502Y27390916D01*
X22249752Y27340910D01*
X22071952Y27324241D01*
X21894549Y27340910D01*
X21736989Y27390916D01*
X21604433Y27478229D01*
X21502039Y27606816D01*
X21436555Y27779854D01*
X21414727Y28000516D01*
X21624277Y28000516D01*
X21653646Y27785410D01*
X21741752Y27635391D01*
X21883039Y27547285D01*
X22071952Y27517916D01*
X22261658Y27547285D01*
X22405327Y27635391D01*
X22495814Y27785410D01*
X22525977Y28000516D01*
X22525977Y28984767D01*
X22495814Y29202254D01*
X22405327Y29353067D01*
X22261658Y29441173D01*
X22071952Y29470542D01*
X21883039Y29441173D01*
X21741752Y29353067D01*
X21653646Y29202254D01*
X21624277Y28984767D01*
X21624277Y28000516D01*
X21414727Y28000516D01*
X21414727Y28984767D01*
G37*
G36*
X25314818Y29645563D02*
G01*
X25451739Y29589604D01*
X25582311Y29503085D01*
X25678752Y29392754D01*
X25738283Y29265357D01*
X25758127Y29127642D01*
X25731139Y29024454D01*
X25650177Y28997467D01*
X25577152Y29018104D01*
X25548577Y29080017D01*
X25523177Y29205429D01*
X25464439Y29332429D01*
X25339027Y29430854D01*
X25113602Y29470542D01*
X24912386Y29441173D01*
X24765939Y29353067D01*
X24676643Y29202254D01*
X24646877Y28984767D01*
X24646877Y28000516D01*
X24676246Y27785410D01*
X24764352Y27635391D01*
X24908021Y27547285D01*
X25104077Y27517916D01*
X25331089Y27557604D01*
X25464439Y27657616D01*
X25527939Y27784616D01*
X25548577Y27902091D01*
X25572389Y27957654D01*
X25653352Y27981466D01*
X25731139Y27956066D01*
X25758127Y27854466D01*
X25738680Y27717148D01*
X25680339Y27590941D01*
X25585486Y27482198D01*
X25456502Y27397266D01*
X25294577Y27342498D01*
X25100902Y27324241D01*
X24927468Y27340910D01*
X24769114Y27390916D01*
X24633383Y27478229D01*
X24527814Y27606816D01*
X24459949Y27779854D01*
X24437327Y28000516D01*
X24437327Y28984767D01*
X24459552Y29207810D01*
X24526227Y29381642D01*
X24630605Y29510229D01*
X24765939Y29597542D01*
X25005652Y29664217D01*
X25199327Y29664217D01*
X25314818Y29645563D01*
G37*
G36*
X26126427Y29565792D02*
G01*
X26153414Y29621354D01*
X26201039Y29645167D01*
X26279180Y29645167D01*
X26486084Y29645167D01*
X26821752Y29645167D01*
X26988439Y29629292D01*
X27139252Y29581667D01*
X27267046Y29498323D01*
X27364677Y29375292D01*
X27426589Y29207810D01*
X27447227Y28991117D01*
X27447227Y28933967D01*
X27436908Y28783948D01*
X27405952Y28664092D01*
X27291652Y28492641D01*
X27120202Y28387866D01*
X27229343Y28313651D01*
X27315464Y28198954D01*
X27371424Y28047745D01*
X27390077Y27863991D01*
X27368249Y27665951D01*
X27302764Y27522679D01*
X27200371Y27425445D01*
X27067814Y27365516D01*
X26912636Y27334560D01*
X26742377Y27324241D01*
X26221677Y27324241D01*
X26156589Y27344879D01*
X26126427Y27403616D01*
X26126427Y27517916D01*
X26335977Y27517916D01*
X26736027Y27517916D01*
X26967802Y27548079D01*
X27123377Y27657616D01*
X27180527Y27886216D01*
X27154333Y28078304D01*
X27075752Y28203716D01*
X26941608Y28272773D01*
X26748727Y28295791D01*
X26335977Y28295791D01*
X26335977Y27517916D01*
X26126427Y27517916D01*
X26126427Y29451492D01*
X26335977Y29451492D01*
X26335977Y28476766D01*
X26793177Y28476766D01*
X26979708Y28502167D01*
X27120202Y28578367D01*
X27208308Y28716479D01*
X27237677Y28927617D01*
X27237677Y28981592D01*
X27208308Y29193126D01*
X27120202Y29338779D01*
X26979708Y29423313D01*
X26793177Y29451492D01*
X26335977Y29451492D01*
X26126427Y29451492D01*
X26126427Y29565792D01*
G37*
G36*
X30055490Y29597542D02*
G01*
X30190824Y29511023D01*
X30295202Y29384817D01*
X30361877Y29214160D01*
X30384102Y28994291D01*
X30384102Y28933967D01*
X30361083Y28745848D01*
X30292027Y28600592D01*
X30188046Y28493435D01*
X30060252Y28419616D01*
X30162249Y28345798D01*
X30245990Y28232291D01*
X30301949Y28078304D01*
X30320602Y27883041D01*
X30301949Y27697701D01*
X30245990Y27554429D01*
X30157486Y27449257D01*
X30041202Y27378216D01*
X29900708Y27337735D01*
X29739577Y27324241D01*
X29566540Y27337735D01*
X29428427Y27378216D01*
X29239515Y27513154D01*
X29144265Y27681429D01*
X29117277Y27835416D01*
X29126802Y27908441D01*
X29158552Y27946541D01*
X29225227Y27956066D01*
X29303015Y27927491D01*
X29326827Y27854466D01*
X29342702Y27743341D01*
X29403027Y27633804D01*
X29528440Y27548079D01*
X29733227Y27514741D01*
X29906265Y27540141D01*
X30025327Y27616341D01*
X30094383Y27744135D01*
X30117402Y27924316D01*
X30071365Y28168791D01*
X29936427Y28294204D01*
X29720527Y28330716D01*
X29660202Y28359291D01*
X29641152Y28422791D01*
X29660202Y28484704D01*
X29720527Y28511692D01*
X29906265Y28537092D01*
X30050727Y28613292D01*
X30143596Y28744260D01*
X30174552Y28933967D01*
X30174552Y28994291D01*
X30145183Y29206620D01*
X30057077Y29354654D01*
X29912615Y29441570D01*
X29714177Y29470542D01*
X29498277Y29435617D01*
X29361752Y29346717D01*
X29290315Y29230829D01*
X29269677Y29118117D01*
X29247452Y29053029D01*
X29158552Y29029217D01*
X29087115Y29051442D01*
X29063302Y29140342D01*
X29101402Y29321317D01*
X29222052Y29489592D01*
X29428427Y29615004D01*
X29636390Y29664217D01*
X29812602Y29664217D01*
X30055490Y29597542D01*
G37*
G36*
X31604890Y29597542D02*
G01*
X31740224Y29511023D01*
X31844602Y29384817D01*
X31911277Y29214160D01*
X31933502Y28994291D01*
X31933502Y28933967D01*
X31910483Y28745848D01*
X31841427Y28600592D01*
X31737446Y28493435D01*
X31609652Y28419616D01*
X31711649Y28345798D01*
X31795390Y28232291D01*
X31851349Y28078304D01*
X31870002Y27883041D01*
X31851349Y27697701D01*
X31795390Y27554429D01*
X31706886Y27449257D01*
X31590602Y27378216D01*
X31450108Y27337735D01*
X31288977Y27324241D01*
X31115940Y27337735D01*
X30977827Y27378216D01*
X30788915Y27513154D01*
X30693665Y27681429D01*
X30666677Y27835416D01*
X30676202Y27908441D01*
X30707952Y27946541D01*
X30774627Y27956066D01*
X30852415Y27927491D01*
X30876227Y27854466D01*
X30892102Y27743341D01*
X30952427Y27633804D01*
X31077840Y27548079D01*
X31282627Y27514741D01*
X31455665Y27540141D01*
X31574727Y27616341D01*
X31643783Y27744135D01*
X31666802Y27924316D01*
X31620765Y28168791D01*
X31485827Y28294204D01*
X31269927Y28330716D01*
X31209602Y28359291D01*
X31190552Y28422791D01*
X31209602Y28484704D01*
X31269927Y28511692D01*
X31455665Y28537092D01*
X31600127Y28613292D01*
X31692996Y28744260D01*
X31723952Y28933967D01*
X31723952Y28994291D01*
X31694583Y29206620D01*
X31606477Y29354654D01*
X31462014Y29441570D01*
X31263577Y29470542D01*
X31047677Y29435617D01*
X30911152Y29346717D01*
X30839715Y29230829D01*
X30819077Y29118117D01*
X30796852Y29053029D01*
X30707952Y29029217D01*
X30636515Y29051442D01*
X30612702Y29140342D01*
X30650802Y29321317D01*
X30771452Y29489592D01*
X30977827Y29615004D01*
X31185790Y29664217D01*
X31362002Y29664217D01*
X31604890Y29597542D01*
G37*
G36*
X84157677Y28578367D02*
G01*
X84189427Y28495817D01*
X84157677Y28413266D01*
X84075127Y28381516D01*
X83990989Y28413266D01*
X83957652Y28495817D01*
X83990989Y28578367D01*
X84075127Y28613292D01*
X84157677Y28578367D01*
G37*
G36*
X90718815Y29624529D02*
G01*
X90752152Y29562617D01*
X90752152Y27400441D01*
X90723577Y27341704D01*
X90660077Y27321066D01*
X90612452Y27335354D01*
X90580702Y27368691D01*
X90320352Y27736991D01*
X90288602Y27779854D01*
X90272727Y27832241D01*
X90296540Y27895741D01*
X90355277Y27924316D01*
X90387027Y27914791D01*
X90415602Y27886216D01*
X90542602Y27679841D01*
X90542602Y29562617D01*
X90574352Y29624529D01*
X90626740Y29645167D01*
X90666427Y29645167D01*
X90718815Y29624529D01*
G37*
G36*
X94505002Y29610242D02*
G01*
X95447977Y27768741D01*
X95471790Y27721116D01*
X95479727Y27676666D01*
X95479727Y27403616D01*
X95447977Y27349641D01*
X95381302Y27324241D01*
X94254177Y27324241D01*
X94189090Y27349641D01*
X94158927Y27403616D01*
X94158927Y27883041D01*
X94190677Y27938604D01*
X94263702Y27962416D01*
X94336727Y27938604D01*
X94368477Y27883041D01*
X94368477Y27517916D01*
X95270177Y27517916D01*
X95270177Y27689366D01*
X94320852Y29505467D01*
X94308152Y29549917D01*
X94325615Y29603892D01*
X94373240Y29637229D01*
X94419277Y29648342D01*
X94460552Y29648342D01*
X94505002Y29610242D01*
G37*
G36*
X85156214Y29659454D02*
G01*
X85186377Y29635642D01*
X85570552Y29041917D01*
X85957902Y29635642D01*
X85984889Y29659454D01*
X86018227Y29667392D01*
X86075377Y29651517D01*
X86123002Y29611829D01*
X86142052Y29565792D01*
X86138877Y29540392D01*
X86129352Y29521342D01*
X85703902Y28886342D01*
X86119827Y28270391D01*
X86135702Y28229116D01*
X86115064Y28176729D01*
X86065852Y28138629D01*
X86008702Y28124341D01*
X85975364Y28132279D01*
X85948377Y28156091D01*
X85570552Y28737117D01*
X85195902Y28156091D01*
X85165739Y28130691D01*
X85132402Y28124341D01*
X85075252Y28140216D01*
X85026039Y28179904D01*
X85005402Y28229116D01*
X85011752Y28249754D01*
X85021277Y28270391D01*
X85434027Y28886342D01*
X85011752Y29521342D01*
X84999052Y29565792D01*
X85019689Y29611829D01*
X85068902Y29651517D01*
X85108589Y29667392D01*
X85129227Y29667392D01*
X85156214Y29659454D01*
G37*
G36*
X83414727Y28984767D02*
G01*
X83436555Y29207810D01*
X83502039Y29381642D01*
X83604830Y29510229D01*
X83738577Y29597542D01*
X83979877Y29664217D01*
X84165614Y29664217D01*
X84408502Y29597542D01*
X84542646Y29510229D01*
X84646627Y29381642D01*
X84713302Y29207810D01*
X84735527Y28984767D01*
X84735527Y28000516D01*
X84713302Y27779854D01*
X84646627Y27606816D01*
X84542646Y27478229D01*
X84408502Y27390916D01*
X84249752Y27340910D01*
X84071952Y27324241D01*
X83894549Y27340910D01*
X83736989Y27390916D01*
X83604433Y27478229D01*
X83502039Y27606816D01*
X83436555Y27779854D01*
X83414727Y28000516D01*
X83624277Y28000516D01*
X83653646Y27785410D01*
X83741752Y27635391D01*
X83883039Y27547285D01*
X84071952Y27517916D01*
X84261658Y27547285D01*
X84405327Y27635391D01*
X84495814Y27785410D01*
X84525977Y28000516D01*
X84525977Y28984767D01*
X84495814Y29202254D01*
X84405327Y29353067D01*
X84261658Y29441173D01*
X84071952Y29470542D01*
X83883039Y29441173D01*
X83741752Y29353067D01*
X83653646Y29202254D01*
X83624277Y28984767D01*
X83624277Y28000516D01*
X83414727Y28000516D01*
X83414727Y28984767D01*
G37*
G36*
X87314818Y29645563D02*
G01*
X87451739Y29589604D01*
X87582311Y29503085D01*
X87678752Y29392754D01*
X87738283Y29265357D01*
X87758127Y29127642D01*
X87731139Y29024454D01*
X87650177Y28997467D01*
X87577152Y29018104D01*
X87548577Y29080017D01*
X87523177Y29205429D01*
X87464439Y29332429D01*
X87339027Y29430854D01*
X87113602Y29470542D01*
X86912386Y29441173D01*
X86765939Y29353067D01*
X86676643Y29202254D01*
X86646877Y28984767D01*
X86646877Y28000516D01*
X86676246Y27785410D01*
X86764352Y27635391D01*
X86908021Y27547285D01*
X87104077Y27517916D01*
X87331089Y27557604D01*
X87464439Y27657616D01*
X87527939Y27784616D01*
X87548577Y27902091D01*
X87572389Y27957654D01*
X87653352Y27981466D01*
X87731139Y27956066D01*
X87758127Y27854466D01*
X87738680Y27717148D01*
X87680339Y27590941D01*
X87585486Y27482198D01*
X87456502Y27397266D01*
X87294577Y27342498D01*
X87100902Y27324241D01*
X86927468Y27340910D01*
X86769114Y27390916D01*
X86633383Y27478229D01*
X86527814Y27606816D01*
X86459949Y27779854D01*
X86437327Y28000516D01*
X86437327Y28984767D01*
X86459552Y29207810D01*
X86526227Y29381642D01*
X86630605Y29510229D01*
X86765939Y29597542D01*
X87005652Y29664217D01*
X87199327Y29664217D01*
X87314818Y29645563D01*
G37*
G36*
X88126427Y29565792D02*
G01*
X88153414Y29621354D01*
X88201039Y29645167D01*
X88279180Y29645167D01*
X88486084Y29645167D01*
X88821752Y29645167D01*
X88988439Y29629292D01*
X89139252Y29581667D01*
X89267046Y29498323D01*
X89364677Y29375292D01*
X89426589Y29207810D01*
X89447227Y28991117D01*
X89447227Y28933967D01*
X89436908Y28783948D01*
X89405952Y28664092D01*
X89291652Y28492641D01*
X89120202Y28387866D01*
X89229343Y28313651D01*
X89315464Y28198954D01*
X89371424Y28047745D01*
X89390077Y27863991D01*
X89368249Y27665951D01*
X89302764Y27522679D01*
X89200371Y27425445D01*
X89067814Y27365516D01*
X88912636Y27334560D01*
X88742377Y27324241D01*
X88221677Y27324241D01*
X88156589Y27344879D01*
X88126427Y27403616D01*
X88126427Y27517916D01*
X88335977Y27517916D01*
X88736027Y27517916D01*
X88967802Y27548079D01*
X89123377Y27657616D01*
X89180527Y27886216D01*
X89154333Y28078304D01*
X89075752Y28203716D01*
X88941608Y28272773D01*
X88748727Y28295791D01*
X88335977Y28295791D01*
X88335977Y27517916D01*
X88126427Y27517916D01*
X88126427Y29451492D01*
X88335977Y29451492D01*
X88335977Y28476766D01*
X88793177Y28476766D01*
X88979708Y28502167D01*
X89120202Y28578367D01*
X89208308Y28716479D01*
X89237677Y28927617D01*
X89237677Y28981592D01*
X89208308Y29193126D01*
X89120202Y29338779D01*
X88979708Y29423313D01*
X88793177Y29451492D01*
X88335977Y29451492D01*
X88126427Y29451492D01*
X88126427Y29565792D01*
G37*
G36*
X92055490Y29597542D02*
G01*
X92190824Y29511023D01*
X92295202Y29384817D01*
X92361877Y29214160D01*
X92384102Y28994291D01*
X92384102Y28933967D01*
X92361083Y28745848D01*
X92292027Y28600592D01*
X92188046Y28493435D01*
X92060252Y28419616D01*
X92162249Y28345798D01*
X92245990Y28232291D01*
X92301949Y28078304D01*
X92320602Y27883041D01*
X92301949Y27697701D01*
X92245990Y27554429D01*
X92157486Y27449257D01*
X92041202Y27378216D01*
X91900708Y27337735D01*
X91739577Y27324241D01*
X91566540Y27337735D01*
X91428427Y27378216D01*
X91239515Y27513154D01*
X91144265Y27681429D01*
X91117277Y27835416D01*
X91126802Y27908441D01*
X91158552Y27946541D01*
X91225227Y27956066D01*
X91303015Y27927491D01*
X91326827Y27854466D01*
X91342702Y27743341D01*
X91403027Y27633804D01*
X91528440Y27548079D01*
X91733227Y27514741D01*
X91906265Y27540141D01*
X92025327Y27616341D01*
X92094383Y27744135D01*
X92117402Y27924316D01*
X92071365Y28168791D01*
X91936427Y28294204D01*
X91720527Y28330716D01*
X91660202Y28359291D01*
X91641152Y28422791D01*
X91660202Y28484704D01*
X91720527Y28511692D01*
X91906265Y28537092D01*
X92050727Y28613292D01*
X92143596Y28744260D01*
X92174552Y28933967D01*
X92174552Y28994291D01*
X92145183Y29206620D01*
X92057077Y29354654D01*
X91912615Y29441570D01*
X91714177Y29470542D01*
X91498277Y29435617D01*
X91361752Y29346717D01*
X91290315Y29230829D01*
X91269677Y29118117D01*
X91247452Y29053029D01*
X91158552Y29029217D01*
X91087115Y29051442D01*
X91063302Y29140342D01*
X91101402Y29321317D01*
X91222052Y29489592D01*
X91428427Y29615004D01*
X91636390Y29664217D01*
X91812602Y29664217D01*
X92055490Y29597542D01*
G37*
G36*
X93604890Y29597542D02*
G01*
X93740224Y29511023D01*
X93844602Y29384817D01*
X93911277Y29214160D01*
X93933502Y28994291D01*
X93933502Y28933967D01*
X93910483Y28745848D01*
X93841427Y28600592D01*
X93737446Y28493435D01*
X93609652Y28419616D01*
X93711649Y28345798D01*
X93795390Y28232291D01*
X93851349Y28078304D01*
X93870002Y27883041D01*
X93851349Y27697701D01*
X93795390Y27554429D01*
X93706886Y27449257D01*
X93590602Y27378216D01*
X93450108Y27337735D01*
X93288977Y27324241D01*
X93115940Y27337735D01*
X92977827Y27378216D01*
X92788915Y27513154D01*
X92693665Y27681429D01*
X92666677Y27835416D01*
X92676202Y27908441D01*
X92707952Y27946541D01*
X92774627Y27956066D01*
X92852415Y27927491D01*
X92876227Y27854466D01*
X92892102Y27743341D01*
X92952427Y27633804D01*
X93077840Y27548079D01*
X93282627Y27514741D01*
X93455665Y27540141D01*
X93574727Y27616341D01*
X93643783Y27744135D01*
X93666802Y27924316D01*
X93620765Y28168791D01*
X93485827Y28294204D01*
X93269927Y28330716D01*
X93209602Y28359291D01*
X93190552Y28422791D01*
X93209602Y28484704D01*
X93269927Y28511692D01*
X93455665Y28537092D01*
X93600127Y28613292D01*
X93692996Y28744260D01*
X93723952Y28933967D01*
X93723952Y28994291D01*
X93694583Y29206620D01*
X93606477Y29354654D01*
X93462014Y29441570D01*
X93263577Y29470542D01*
X93047677Y29435617D01*
X92911152Y29346717D01*
X92839715Y29230829D01*
X92819077Y29118117D01*
X92796852Y29053029D01*
X92707952Y29029217D01*
X92636515Y29051442D01*
X92612702Y29140342D01*
X92650802Y29321317D01*
X92771452Y29489592D01*
X92977827Y29615004D01*
X93185790Y29664217D01*
X93362002Y29664217D01*
X93604890Y29597542D01*
G37*
D10*
G04 #@! TO.C,C17*
X46992937Y111240776D02*
X47208609Y111240776D01*
X46992937Y110520776D02*
X47208609Y110520776D01*
X108992937Y111240776D02*
X109208609Y111240776D01*
X108992937Y110520776D02*
X109208609Y110520776D01*
X27007067Y24759229D02*
X26791395Y24759229D01*
X27007067Y25479229D02*
X26791395Y25479229D01*
X89007067Y24759229D02*
X88791395Y24759229D01*
X89007067Y25479229D02*
X88791395Y25479229D01*
D12*
G04 #@! TO.C,J3*
X46635773Y74262776D02*
G75*
G03*
X46635773Y74262776I-100000J0D01*
G01*
X108635773Y74262776D02*
G75*
G03*
X108635773Y74262776I-100000J0D01*
G01*
X27564231Y61737229D02*
G75*
G03*
X27564231Y61737229I-100000J0D01*
G01*
X89564231Y61737229D02*
G75*
G03*
X89564231Y61737229I-100000J0D01*
G01*
G04 #@! TO.C,REF\u002A\u002A*
G36*
X24970052Y111116845D02*
G01*
X25053872Y110672221D01*
X25672444Y110417225D01*
X26043484Y110669530D01*
X26116921Y110719270D01*
X26214276Y110784558D01*
X26298564Y110840322D01*
X26365408Y110883698D01*
X26410431Y110911823D01*
X26429255Y110921834D01*
X26440816Y110914715D01*
X26475373Y110884882D01*
X26527671Y110835924D01*
X26593277Y110772336D01*
X26667760Y110698613D01*
X26746690Y110619251D01*
X26825633Y110538745D01*
X26900161Y110461591D01*
X26965840Y110392283D01*
X27018240Y110335319D01*
X27052930Y110295192D01*
X27065478Y110276399D01*
X27062559Y110268325D01*
X27042348Y110232307D01*
X27005440Y110173032D01*
X26954827Y110095146D01*
X26893502Y110003295D01*
X26824456Y109902126D01*
X26786564Y109846950D01*
X26721383Y109750892D01*
X26665500Y109667059D01*
X26621894Y109599999D01*
X26593546Y109554257D01*
X26583434Y109534380D01*
X26583600Y109533279D01*
X26592520Y109508082D01*
X26612983Y109456629D01*
X26642137Y109385641D01*
X26677130Y109301841D01*
X26715109Y109211948D01*
X26753222Y109122685D01*
X26788616Y109040773D01*
X26818439Y108972933D01*
X26839838Y108925886D01*
X26849961Y108906354D01*
X26855951Y108904621D01*
X26892343Y108896807D01*
X26957204Y108883861D01*
X27045342Y108866797D01*
X27151564Y108846625D01*
X27270679Y108824358D01*
X27333460Y108812553D01*
X27448689Y108790028D01*
X27549439Y108769226D01*
X27630203Y108751341D01*
X27685475Y108737568D01*
X27709748Y108729102D01*
X27714108Y108720710D01*
X27721340Y108679704D01*
X27727023Y108611408D01*
X27731159Y108522247D01*
X27733754Y108418648D01*
X27734813Y108307036D01*
X27734338Y108193838D01*
X27732336Y108085480D01*
X27728810Y107988387D01*
X27723764Y107908986D01*
X27717204Y107853704D01*
X27709133Y107828966D01*
X27704235Y107826176D01*
X27667707Y107814207D01*
X27604342Y107798371D01*
X27521463Y107780402D01*
X27426395Y107762035D01*
X27394319Y107756185D01*
X27246170Y107728978D01*
X27129738Y107707113D01*
X27040986Y107689683D01*
X26975880Y107675780D01*
X26930383Y107664499D01*
X26900459Y107654933D01*
X26882071Y107646175D01*
X26871184Y107637319D01*
X26869919Y107635833D01*
X26852115Y107604845D01*
X26825771Y107548142D01*
X26793438Y107472377D01*
X26757670Y107384202D01*
X26721021Y107290269D01*
X26686043Y107197229D01*
X26655290Y107111735D01*
X26631315Y107040440D01*
X26616672Y106989994D01*
X26613913Y106967050D01*
X26615758Y106964073D01*
X26634852Y106935283D01*
X26670761Y106882181D01*
X26720155Y106809659D01*
X26779704Y106722609D01*
X26846080Y106625922D01*
X26864297Y106599320D01*
X26928354Y106503901D01*
X26983714Y106418564D01*
X27027216Y106348371D01*
X27055701Y106298382D01*
X27066009Y106273660D01*
X27063788Y106267160D01*
X27040635Y106235132D01*
X26994954Y106182831D01*
X26930018Y106113777D01*
X26849096Y106031490D01*
X26755462Y105939490D01*
X26701942Y105887995D01*
X26617319Y105807793D01*
X26543252Y105739098D01*
X26483718Y105685524D01*
X26442694Y105650691D01*
X26424158Y105638213D01*
X26411423Y105642838D01*
X26372213Y105664719D01*
X26315272Y105700503D01*
X26248027Y105745659D01*
X26200215Y105778611D01*
X26104762Y105844049D01*
X26002902Y105913548D01*
X25909865Y105976701D01*
X25727609Y106099976D01*
X25574618Y106017256D01*
X25538594Y105998163D01*
X25473080Y105965504D01*
X25422417Y105942957D01*
X25395341Y105934550D01*
X25386480Y105945346D01*
X25364476Y105986453D01*
X25331976Y106054227D01*
X25290787Y106144367D01*
X25242719Y106252571D01*
X25189579Y106374539D01*
X25133176Y106505968D01*
X25075319Y106642558D01*
X25017815Y106780009D01*
X24962474Y106914018D01*
X24911103Y107040285D01*
X24865512Y107154508D01*
X24827509Y107252386D01*
X24798901Y107329619D01*
X24781498Y107381905D01*
X24777108Y107404943D01*
X24777405Y107405616D01*
X24797854Y107426913D01*
X24840627Y107460268D01*
X24896894Y107498765D01*
X24914654Y107510520D01*
X25049791Y107622041D01*
X25161633Y107754870D01*
X25247532Y107903478D01*
X25304839Y108062336D01*
X25330908Y108225916D01*
X25323090Y108388688D01*
X25291421Y108533461D01*
X25234559Y108679652D01*
X25151665Y108810073D01*
X25037908Y108933963D01*
X24993210Y108973541D01*
X24848712Y109071053D01*
X24692615Y109136726D01*
X24529444Y109171146D01*
X24363720Y109174902D01*
X24199969Y109148582D01*
X24042713Y109092773D01*
X23896475Y109008062D01*
X23765781Y108895039D01*
X23655151Y108754289D01*
X23633882Y108719434D01*
X23561587Y108560121D01*
X23523192Y108394224D01*
X23517691Y108226039D01*
X23544078Y108059863D01*
X23601347Y107899992D01*
X23688494Y107750723D01*
X23804513Y107616353D01*
X23948399Y107501177D01*
X23953071Y107498074D01*
X24008741Y107458843D01*
X24050466Y107425490D01*
X24069523Y107404943D01*
X24067119Y107388835D01*
X24052168Y107341932D01*
X24025658Y107269237D01*
X23989397Y107175051D01*
X23945193Y107063678D01*
X23894853Y106939418D01*
X23840184Y106806574D01*
X23782995Y106669449D01*
X23725093Y106532344D01*
X23668287Y106399561D01*
X23614383Y106275402D01*
X23565189Y106164170D01*
X23522514Y106070167D01*
X23488164Y105997694D01*
X23463948Y105951054D01*
X23451674Y105934550D01*
X23441466Y105936785D01*
X23401363Y105952850D01*
X23342095Y105981017D01*
X23272396Y106017256D01*
X23119406Y106099976D01*
X22937150Y105976701D01*
X22883304Y105940197D01*
X22783151Y105871992D01*
X22683302Y105803678D01*
X22598988Y105745659D01*
X22552456Y105714040D01*
X22491977Y105674756D01*
X22447134Y105647864D01*
X22425232Y105637893D01*
X22415822Y105642126D01*
X22381808Y105668055D01*
X22329372Y105713706D01*
X22263078Y105774590D01*
X22187490Y105846215D01*
X22107173Y105924093D01*
X22026690Y106003731D01*
X21950606Y106080641D01*
X21883484Y106150331D01*
X21829889Y106208312D01*
X21794385Y106250092D01*
X21781536Y106271183D01*
X21782277Y106275195D01*
X21797570Y106307856D01*
X21830239Y106364364D01*
X21877127Y106439613D01*
X21935078Y106528501D01*
X22000934Y106625922D01*
X22019404Y106652794D01*
X22084259Y106747353D01*
X22141386Y106830949D01*
X22187455Y106898692D01*
X22219136Y106945690D01*
X22233101Y106967050D01*
X22233445Y106967965D01*
X22229323Y106994098D01*
X22213584Y107047036D01*
X22188781Y107120129D01*
X22157466Y107206724D01*
X22122194Y107300168D01*
X22085517Y107393811D01*
X22049989Y107480999D01*
X22018163Y107555081D01*
X21992593Y107609405D01*
X21975830Y107637319D01*
X21974151Y107639052D01*
X21962149Y107647820D01*
X21941880Y107656661D01*
X21909306Y107666484D01*
X21860393Y107678193D01*
X21791104Y107692696D01*
X21697402Y107710900D01*
X21575253Y107733710D01*
X21420619Y107762035D01*
X21388547Y107767996D01*
X21296670Y107786424D01*
X21219384Y107803884D01*
X21164013Y107818643D01*
X21137882Y107828966D01*
X21133510Y107837579D01*
X21126222Y107878950D01*
X21120446Y107947535D01*
X21116187Y108036908D01*
X21113450Y108140641D01*
X21112239Y108252311D01*
X21112559Y108365489D01*
X21114413Y108473750D01*
X21117807Y108570668D01*
X21122744Y108649817D01*
X21129229Y108704770D01*
X21137266Y108729102D01*
X21145473Y108732697D01*
X21186296Y108744028D01*
X21255301Y108760054D01*
X21346980Y108779581D01*
X21455827Y108801414D01*
X21576335Y108824358D01*
X21642134Y108836617D01*
X21754912Y108857875D01*
X21851984Y108876489D01*
X21928159Y108891448D01*
X21978246Y108901740D01*
X21997053Y108906354D01*
X21997760Y108907305D01*
X22009738Y108931466D01*
X22032571Y108982082D01*
X22063407Y109052438D01*
X22099390Y109135818D01*
X22137668Y109225506D01*
X22175386Y109314787D01*
X22209690Y109396944D01*
X22237726Y109465263D01*
X22256641Y109513028D01*
X22263580Y109533522D01*
X22260519Y109540733D01*
X22240149Y109575048D01*
X22203199Y109632806D01*
X22152637Y109709477D01*
X22091434Y109800528D01*
X22022558Y109901426D01*
X21984771Y109956683D01*
X21919559Y110053561D01*
X21863648Y110138583D01*
X21820018Y110207114D01*
X21791654Y110254516D01*
X21781536Y110276153D01*
X21788567Y110287889D01*
X21817974Y110322958D01*
X21866218Y110376031D01*
X21928870Y110442612D01*
X22001502Y110518202D01*
X22079685Y110598304D01*
X22158991Y110678422D01*
X22234990Y110754058D01*
X22303255Y110820714D01*
X22359357Y110873894D01*
X22398867Y110909100D01*
X22417356Y110921834D01*
X22427620Y110916883D01*
X22465307Y110893919D01*
X22526125Y110854838D01*
X22605690Y110802504D01*
X22699620Y110739780D01*
X22803531Y110669530D01*
X23174571Y110417225D01*
X23483857Y110544723D01*
X23793142Y110672221D01*
X23876963Y111116845D01*
X23960783Y111561469D01*
X24886231Y111561469D01*
X24970052Y111116845D01*
G37*
D13*
X24970052Y111116845D02*
X25053872Y110672221D01*
X25672444Y110417225D01*
X26043484Y110669530D01*
X26116921Y110719270D01*
X26214276Y110784558D01*
X26298564Y110840322D01*
X26365408Y110883698D01*
X26410431Y110911823D01*
X26429255Y110921834D01*
X26440816Y110914715D01*
X26475373Y110884882D01*
X26527671Y110835924D01*
X26593277Y110772336D01*
X26667760Y110698613D01*
X26746690Y110619251D01*
X26825633Y110538745D01*
X26900161Y110461591D01*
X26965840Y110392283D01*
X27018240Y110335319D01*
X27052930Y110295192D01*
X27065478Y110276399D01*
X27062559Y110268325D01*
X27042348Y110232307D01*
X27005440Y110173032D01*
X26954827Y110095146D01*
X26893502Y110003295D01*
X26824456Y109902126D01*
X26786564Y109846950D01*
X26721383Y109750892D01*
X26665500Y109667059D01*
X26621894Y109599999D01*
X26593546Y109554257D01*
X26583434Y109534380D01*
X26583600Y109533279D01*
X26592520Y109508082D01*
X26612983Y109456629D01*
X26642137Y109385641D01*
X26677130Y109301841D01*
X26715109Y109211948D01*
X26753222Y109122685D01*
X26788616Y109040773D01*
X26818439Y108972933D01*
X26839838Y108925886D01*
X26849961Y108906354D01*
X26855951Y108904621D01*
X26892343Y108896807D01*
X26957204Y108883861D01*
X27045342Y108866797D01*
X27151564Y108846625D01*
X27270679Y108824358D01*
X27333460Y108812553D01*
X27448689Y108790028D01*
X27549439Y108769226D01*
X27630203Y108751341D01*
X27685475Y108737568D01*
X27709748Y108729102D01*
X27714108Y108720710D01*
X27721340Y108679704D01*
X27727023Y108611408D01*
X27731159Y108522247D01*
X27733754Y108418648D01*
X27734813Y108307036D01*
X27734338Y108193838D01*
X27732336Y108085480D01*
X27728810Y107988387D01*
X27723764Y107908986D01*
X27717204Y107853704D01*
X27709133Y107828966D01*
X27704235Y107826176D01*
X27667707Y107814207D01*
X27604342Y107798371D01*
X27521463Y107780402D01*
X27426395Y107762035D01*
X27394319Y107756185D01*
X27246170Y107728978D01*
X27129738Y107707113D01*
X27040986Y107689683D01*
X26975880Y107675780D01*
X26930383Y107664499D01*
X26900459Y107654933D01*
X26882071Y107646175D01*
X26871184Y107637319D01*
X26869919Y107635833D01*
X26852115Y107604845D01*
X26825771Y107548142D01*
X26793438Y107472377D01*
X26757670Y107384202D01*
X26721021Y107290269D01*
X26686043Y107197229D01*
X26655290Y107111735D01*
X26631315Y107040440D01*
X26616672Y106989994D01*
X26613913Y106967050D01*
X26615758Y106964073D01*
X26634852Y106935283D01*
X26670761Y106882181D01*
X26720155Y106809659D01*
X26779704Y106722609D01*
X26846080Y106625922D01*
X26864297Y106599320D01*
X26928354Y106503901D01*
X26983714Y106418564D01*
X27027216Y106348371D01*
X27055701Y106298382D01*
X27066009Y106273660D01*
X27063788Y106267160D01*
X27040635Y106235132D01*
X26994954Y106182831D01*
X26930018Y106113777D01*
X26849096Y106031490D01*
X26755462Y105939490D01*
X26701942Y105887995D01*
X26617319Y105807793D01*
X26543252Y105739098D01*
X26483718Y105685524D01*
X26442694Y105650691D01*
X26424158Y105638213D01*
X26411423Y105642838D01*
X26372213Y105664719D01*
X26315272Y105700503D01*
X26248027Y105745659D01*
X26200215Y105778611D01*
X26104762Y105844049D01*
X26002902Y105913548D01*
X25909865Y105976701D01*
X25727609Y106099976D01*
X25574618Y106017256D01*
X25538594Y105998163D01*
X25473080Y105965504D01*
X25422417Y105942957D01*
X25395341Y105934550D01*
X25386480Y105945346D01*
X25364476Y105986453D01*
X25331976Y106054227D01*
X25290787Y106144367D01*
X25242719Y106252571D01*
X25189579Y106374539D01*
X25133176Y106505968D01*
X25075319Y106642558D01*
X25017815Y106780009D01*
X24962474Y106914018D01*
X24911103Y107040285D01*
X24865512Y107154508D01*
X24827509Y107252386D01*
X24798901Y107329619D01*
X24781498Y107381905D01*
X24777108Y107404943D01*
X24777405Y107405616D01*
X24797854Y107426913D01*
X24840627Y107460268D01*
X24896894Y107498765D01*
X24914654Y107510520D01*
X25049791Y107622041D01*
X25161633Y107754870D01*
X25247532Y107903478D01*
X25304839Y108062336D01*
X25330908Y108225916D01*
X25323090Y108388688D01*
X25291421Y108533461D01*
X25234559Y108679652D01*
X25151665Y108810073D01*
X25037908Y108933963D01*
X24993210Y108973541D01*
X24848712Y109071053D01*
X24692615Y109136726D01*
X24529444Y109171146D01*
X24363720Y109174902D01*
X24199969Y109148582D01*
X24042713Y109092773D01*
X23896475Y109008062D01*
X23765781Y108895039D01*
X23655151Y108754289D01*
X23633882Y108719434D01*
X23561587Y108560121D01*
X23523192Y108394224D01*
X23517691Y108226039D01*
X23544078Y108059863D01*
X23601347Y107899992D01*
X23688494Y107750723D01*
X23804513Y107616353D01*
X23948399Y107501177D01*
X23953071Y107498074D01*
X24008741Y107458843D01*
X24050466Y107425490D01*
X24069523Y107404943D01*
X24067119Y107388835D01*
X24052168Y107341932D01*
X24025658Y107269237D01*
X23989397Y107175051D01*
X23945193Y107063678D01*
X23894853Y106939418D01*
X23840184Y106806574D01*
X23782995Y106669449D01*
X23725093Y106532344D01*
X23668287Y106399561D01*
X23614383Y106275402D01*
X23565189Y106164170D01*
X23522514Y106070167D01*
X23488164Y105997694D01*
X23463948Y105951054D01*
X23451674Y105934550D01*
X23441466Y105936785D01*
X23401363Y105952850D01*
X23342095Y105981017D01*
X23272396Y106017256D01*
X23119406Y106099976D01*
X22937150Y105976701D01*
X22883304Y105940197D01*
X22783151Y105871992D01*
X22683302Y105803678D01*
X22598988Y105745659D01*
X22552456Y105714040D01*
X22491977Y105674756D01*
X22447134Y105647864D01*
X22425232Y105637893D01*
X22415822Y105642126D01*
X22381808Y105668055D01*
X22329372Y105713706D01*
X22263078Y105774590D01*
X22187490Y105846215D01*
X22107173Y105924093D01*
X22026690Y106003731D01*
X21950606Y106080641D01*
X21883484Y106150331D01*
X21829889Y106208312D01*
X21794385Y106250092D01*
X21781536Y106271183D01*
X21782277Y106275195D01*
X21797570Y106307856D01*
X21830239Y106364364D01*
X21877127Y106439613D01*
X21935078Y106528501D01*
X22000934Y106625922D01*
X22019404Y106652794D01*
X22084259Y106747353D01*
X22141386Y106830949D01*
X22187455Y106898692D01*
X22219136Y106945690D01*
X22233101Y106967050D01*
X22233445Y106967965D01*
X22229323Y106994098D01*
X22213584Y107047036D01*
X22188781Y107120129D01*
X22157466Y107206724D01*
X22122194Y107300168D01*
X22085517Y107393811D01*
X22049989Y107480999D01*
X22018163Y107555081D01*
X21992593Y107609405D01*
X21975830Y107637319D01*
X21974151Y107639052D01*
X21962149Y107647820D01*
X21941880Y107656661D01*
X21909306Y107666484D01*
X21860393Y107678193D01*
X21791104Y107692696D01*
X21697402Y107710900D01*
X21575253Y107733710D01*
X21420619Y107762035D01*
X21388547Y107767996D01*
X21296670Y107786424D01*
X21219384Y107803884D01*
X21164013Y107818643D01*
X21137882Y107828966D01*
X21133510Y107837579D01*
X21126222Y107878950D01*
X21120446Y107947535D01*
X21116187Y108036908D01*
X21113450Y108140641D01*
X21112239Y108252311D01*
X21112559Y108365489D01*
X21114413Y108473750D01*
X21117807Y108570668D01*
X21122744Y108649817D01*
X21129229Y108704770D01*
X21137266Y108729102D01*
X21145473Y108732697D01*
X21186296Y108744028D01*
X21255301Y108760054D01*
X21346980Y108779581D01*
X21455827Y108801414D01*
X21576335Y108824358D01*
X21642134Y108836617D01*
X21754912Y108857875D01*
X21851984Y108876489D01*
X21928159Y108891448D01*
X21978246Y108901740D01*
X21997053Y108906354D01*
X21997760Y108907305D01*
X22009738Y108931466D01*
X22032571Y108982082D01*
X22063407Y109052438D01*
X22099390Y109135818D01*
X22137668Y109225506D01*
X22175386Y109314787D01*
X22209690Y109396944D01*
X22237726Y109465263D01*
X22256641Y109513028D01*
X22263580Y109533522D01*
X22260519Y109540733D01*
X22240149Y109575048D01*
X22203199Y109632806D01*
X22152637Y109709477D01*
X22091434Y109800528D01*
X22022558Y109901426D01*
X21984771Y109956683D01*
X21919559Y110053561D01*
X21863648Y110138583D01*
X21820018Y110207114D01*
X21791654Y110254516D01*
X21781536Y110276153D01*
X21788567Y110287889D01*
X21817974Y110322958D01*
X21866218Y110376031D01*
X21928870Y110442612D01*
X22001502Y110518202D01*
X22079685Y110598304D01*
X22158991Y110678422D01*
X22234990Y110754058D01*
X22303255Y110820714D01*
X22359357Y110873894D01*
X22398867Y110909100D01*
X22417356Y110921834D01*
X22427620Y110916883D01*
X22465307Y110893919D01*
X22526125Y110854838D01*
X22605690Y110802504D01*
X22699620Y110739780D01*
X22803531Y110669530D01*
X23174571Y110417225D01*
X23483857Y110544723D01*
X23793142Y110672221D01*
X23876963Y111116845D01*
X23960783Y111561469D01*
X24886231Y111561469D01*
X24970052Y111116845D01*
G36*
X86970052Y111116845D02*
G01*
X87053872Y110672221D01*
X87672444Y110417225D01*
X88043484Y110669530D01*
X88116921Y110719270D01*
X88214276Y110784558D01*
X88298564Y110840322D01*
X88365408Y110883698D01*
X88410431Y110911823D01*
X88429255Y110921834D01*
X88440816Y110914715D01*
X88475373Y110884882D01*
X88527671Y110835924D01*
X88593277Y110772336D01*
X88667760Y110698613D01*
X88746690Y110619251D01*
X88825633Y110538745D01*
X88900161Y110461591D01*
X88965840Y110392283D01*
X89018240Y110335319D01*
X89052930Y110295192D01*
X89065478Y110276399D01*
X89062559Y110268325D01*
X89042348Y110232307D01*
X89005440Y110173032D01*
X88954827Y110095146D01*
X88893502Y110003295D01*
X88824456Y109902126D01*
X88786564Y109846950D01*
X88721383Y109750892D01*
X88665500Y109667059D01*
X88621894Y109599999D01*
X88593546Y109554257D01*
X88583434Y109534380D01*
X88583600Y109533279D01*
X88592520Y109508082D01*
X88612983Y109456629D01*
X88642137Y109385641D01*
X88677130Y109301841D01*
X88715109Y109211948D01*
X88753222Y109122685D01*
X88788616Y109040773D01*
X88818439Y108972933D01*
X88839838Y108925886D01*
X88849961Y108906354D01*
X88855951Y108904621D01*
X88892343Y108896807D01*
X88957204Y108883861D01*
X89045342Y108866797D01*
X89151564Y108846625D01*
X89270679Y108824358D01*
X89333460Y108812553D01*
X89448689Y108790028D01*
X89549439Y108769226D01*
X89630203Y108751341D01*
X89685475Y108737568D01*
X89709748Y108729102D01*
X89714108Y108720710D01*
X89721340Y108679704D01*
X89727023Y108611408D01*
X89731159Y108522247D01*
X89733754Y108418648D01*
X89734813Y108307036D01*
X89734338Y108193838D01*
X89732336Y108085480D01*
X89728810Y107988387D01*
X89723764Y107908986D01*
X89717204Y107853704D01*
X89709133Y107828966D01*
X89704235Y107826176D01*
X89667707Y107814207D01*
X89604342Y107798371D01*
X89521463Y107780402D01*
X89426395Y107762035D01*
X89394319Y107756185D01*
X89246170Y107728978D01*
X89129738Y107707113D01*
X89040986Y107689683D01*
X88975880Y107675780D01*
X88930383Y107664499D01*
X88900459Y107654933D01*
X88882071Y107646175D01*
X88871184Y107637319D01*
X88869919Y107635833D01*
X88852115Y107604845D01*
X88825771Y107548142D01*
X88793438Y107472377D01*
X88757670Y107384202D01*
X88721021Y107290269D01*
X88686043Y107197229D01*
X88655290Y107111735D01*
X88631315Y107040440D01*
X88616672Y106989994D01*
X88613913Y106967050D01*
X88615758Y106964073D01*
X88634852Y106935283D01*
X88670761Y106882181D01*
X88720155Y106809659D01*
X88779704Y106722609D01*
X88846080Y106625922D01*
X88864297Y106599320D01*
X88928354Y106503901D01*
X88983714Y106418564D01*
X89027216Y106348371D01*
X89055701Y106298382D01*
X89066009Y106273660D01*
X89063788Y106267160D01*
X89040635Y106235132D01*
X88994954Y106182831D01*
X88930018Y106113777D01*
X88849096Y106031490D01*
X88755462Y105939490D01*
X88701942Y105887995D01*
X88617319Y105807793D01*
X88543252Y105739098D01*
X88483718Y105685524D01*
X88442694Y105650691D01*
X88424158Y105638213D01*
X88411423Y105642838D01*
X88372213Y105664719D01*
X88315272Y105700503D01*
X88248027Y105745659D01*
X88200215Y105778611D01*
X88104762Y105844049D01*
X88002902Y105913548D01*
X87909865Y105976701D01*
X87727609Y106099976D01*
X87574618Y106017256D01*
X87538594Y105998163D01*
X87473080Y105965504D01*
X87422417Y105942957D01*
X87395341Y105934550D01*
X87386480Y105945346D01*
X87364476Y105986453D01*
X87331976Y106054227D01*
X87290787Y106144367D01*
X87242719Y106252571D01*
X87189579Y106374539D01*
X87133176Y106505968D01*
X87075319Y106642558D01*
X87017815Y106780009D01*
X86962474Y106914018D01*
X86911103Y107040285D01*
X86865512Y107154508D01*
X86827509Y107252386D01*
X86798901Y107329619D01*
X86781498Y107381905D01*
X86777108Y107404943D01*
X86777405Y107405616D01*
X86797854Y107426913D01*
X86840627Y107460268D01*
X86896894Y107498765D01*
X86914654Y107510520D01*
X87049791Y107622041D01*
X87161633Y107754870D01*
X87247532Y107903478D01*
X87304839Y108062336D01*
X87330908Y108225916D01*
X87323090Y108388688D01*
X87291421Y108533461D01*
X87234559Y108679652D01*
X87151665Y108810073D01*
X87037908Y108933963D01*
X86993210Y108973541D01*
X86848712Y109071053D01*
X86692615Y109136726D01*
X86529444Y109171146D01*
X86363720Y109174902D01*
X86199969Y109148582D01*
X86042713Y109092773D01*
X85896475Y109008062D01*
X85765781Y108895039D01*
X85655151Y108754289D01*
X85633882Y108719434D01*
X85561587Y108560121D01*
X85523192Y108394224D01*
X85517691Y108226039D01*
X85544078Y108059863D01*
X85601347Y107899992D01*
X85688494Y107750723D01*
X85804513Y107616353D01*
X85948399Y107501177D01*
X85953071Y107498074D01*
X86008741Y107458843D01*
X86050466Y107425490D01*
X86069523Y107404943D01*
X86067119Y107388835D01*
X86052168Y107341932D01*
X86025658Y107269237D01*
X85989397Y107175051D01*
X85945193Y107063678D01*
X85894853Y106939418D01*
X85840184Y106806574D01*
X85782995Y106669449D01*
X85725093Y106532344D01*
X85668287Y106399561D01*
X85614383Y106275402D01*
X85565189Y106164170D01*
X85522514Y106070167D01*
X85488164Y105997694D01*
X85463948Y105951054D01*
X85451674Y105934550D01*
X85441466Y105936785D01*
X85401363Y105952850D01*
X85342095Y105981017D01*
X85272396Y106017256D01*
X85119406Y106099976D01*
X84937150Y105976701D01*
X84883304Y105940197D01*
X84783151Y105871992D01*
X84683302Y105803678D01*
X84598988Y105745659D01*
X84552456Y105714040D01*
X84491977Y105674756D01*
X84447134Y105647864D01*
X84425232Y105637893D01*
X84415822Y105642126D01*
X84381808Y105668055D01*
X84329372Y105713706D01*
X84263078Y105774590D01*
X84187490Y105846215D01*
X84107173Y105924093D01*
X84026690Y106003731D01*
X83950606Y106080641D01*
X83883484Y106150331D01*
X83829889Y106208312D01*
X83794385Y106250092D01*
X83781536Y106271183D01*
X83782277Y106275195D01*
X83797570Y106307856D01*
X83830239Y106364364D01*
X83877127Y106439613D01*
X83935078Y106528501D01*
X84000934Y106625922D01*
X84019404Y106652794D01*
X84084259Y106747353D01*
X84141386Y106830949D01*
X84187455Y106898692D01*
X84219136Y106945690D01*
X84233101Y106967050D01*
X84233445Y106967965D01*
X84229323Y106994098D01*
X84213584Y107047036D01*
X84188781Y107120129D01*
X84157466Y107206724D01*
X84122194Y107300168D01*
X84085517Y107393811D01*
X84049989Y107480999D01*
X84018163Y107555081D01*
X83992593Y107609405D01*
X83975830Y107637319D01*
X83974151Y107639052D01*
X83962149Y107647820D01*
X83941880Y107656661D01*
X83909306Y107666484D01*
X83860393Y107678193D01*
X83791104Y107692696D01*
X83697402Y107710900D01*
X83575253Y107733710D01*
X83420619Y107762035D01*
X83388547Y107767996D01*
X83296670Y107786424D01*
X83219384Y107803884D01*
X83164013Y107818643D01*
X83137882Y107828966D01*
X83133510Y107837579D01*
X83126222Y107878950D01*
X83120446Y107947535D01*
X83116187Y108036908D01*
X83113450Y108140641D01*
X83112239Y108252311D01*
X83112559Y108365489D01*
X83114413Y108473750D01*
X83117807Y108570668D01*
X83122744Y108649817D01*
X83129229Y108704770D01*
X83137266Y108729102D01*
X83145473Y108732697D01*
X83186296Y108744028D01*
X83255301Y108760054D01*
X83346980Y108779581D01*
X83455827Y108801414D01*
X83576335Y108824358D01*
X83642134Y108836617D01*
X83754912Y108857875D01*
X83851984Y108876489D01*
X83928159Y108891448D01*
X83978246Y108901740D01*
X83997053Y108906354D01*
X83997760Y108907305D01*
X84009738Y108931466D01*
X84032571Y108982082D01*
X84063407Y109052438D01*
X84099390Y109135818D01*
X84137668Y109225506D01*
X84175386Y109314787D01*
X84209690Y109396944D01*
X84237726Y109465263D01*
X84256641Y109513028D01*
X84263580Y109533522D01*
X84260519Y109540733D01*
X84240149Y109575048D01*
X84203199Y109632806D01*
X84152637Y109709477D01*
X84091434Y109800528D01*
X84022558Y109901426D01*
X83984771Y109956683D01*
X83919559Y110053561D01*
X83863648Y110138583D01*
X83820018Y110207114D01*
X83791654Y110254516D01*
X83781536Y110276153D01*
X83788567Y110287889D01*
X83817974Y110322958D01*
X83866218Y110376031D01*
X83928870Y110442612D01*
X84001502Y110518202D01*
X84079685Y110598304D01*
X84158991Y110678422D01*
X84234990Y110754058D01*
X84303255Y110820714D01*
X84359357Y110873894D01*
X84398867Y110909100D01*
X84417356Y110921834D01*
X84427620Y110916883D01*
X84465307Y110893919D01*
X84526125Y110854838D01*
X84605690Y110802504D01*
X84699620Y110739780D01*
X84803531Y110669530D01*
X85174571Y110417225D01*
X85483857Y110544723D01*
X85793142Y110672221D01*
X85876963Y111116845D01*
X85960783Y111561469D01*
X86886231Y111561469D01*
X86970052Y111116845D01*
G37*
X86970052Y111116845D02*
X87053872Y110672221D01*
X87672444Y110417225D01*
X88043484Y110669530D01*
X88116921Y110719270D01*
X88214276Y110784558D01*
X88298564Y110840322D01*
X88365408Y110883698D01*
X88410431Y110911823D01*
X88429255Y110921834D01*
X88440816Y110914715D01*
X88475373Y110884882D01*
X88527671Y110835924D01*
X88593277Y110772336D01*
X88667760Y110698613D01*
X88746690Y110619251D01*
X88825633Y110538745D01*
X88900161Y110461591D01*
X88965840Y110392283D01*
X89018240Y110335319D01*
X89052930Y110295192D01*
X89065478Y110276399D01*
X89062559Y110268325D01*
X89042348Y110232307D01*
X89005440Y110173032D01*
X88954827Y110095146D01*
X88893502Y110003295D01*
X88824456Y109902126D01*
X88786564Y109846950D01*
X88721383Y109750892D01*
X88665500Y109667059D01*
X88621894Y109599999D01*
X88593546Y109554257D01*
X88583434Y109534380D01*
X88583600Y109533279D01*
X88592520Y109508082D01*
X88612983Y109456629D01*
X88642137Y109385641D01*
X88677130Y109301841D01*
X88715109Y109211948D01*
X88753222Y109122685D01*
X88788616Y109040773D01*
X88818439Y108972933D01*
X88839838Y108925886D01*
X88849961Y108906354D01*
X88855951Y108904621D01*
X88892343Y108896807D01*
X88957204Y108883861D01*
X89045342Y108866797D01*
X89151564Y108846625D01*
X89270679Y108824358D01*
X89333460Y108812553D01*
X89448689Y108790028D01*
X89549439Y108769226D01*
X89630203Y108751341D01*
X89685475Y108737568D01*
X89709748Y108729102D01*
X89714108Y108720710D01*
X89721340Y108679704D01*
X89727023Y108611408D01*
X89731159Y108522247D01*
X89733754Y108418648D01*
X89734813Y108307036D01*
X89734338Y108193838D01*
X89732336Y108085480D01*
X89728810Y107988387D01*
X89723764Y107908986D01*
X89717204Y107853704D01*
X89709133Y107828966D01*
X89704235Y107826176D01*
X89667707Y107814207D01*
X89604342Y107798371D01*
X89521463Y107780402D01*
X89426395Y107762035D01*
X89394319Y107756185D01*
X89246170Y107728978D01*
X89129738Y107707113D01*
X89040986Y107689683D01*
X88975880Y107675780D01*
X88930383Y107664499D01*
X88900459Y107654933D01*
X88882071Y107646175D01*
X88871184Y107637319D01*
X88869919Y107635833D01*
X88852115Y107604845D01*
X88825771Y107548142D01*
X88793438Y107472377D01*
X88757670Y107384202D01*
X88721021Y107290269D01*
X88686043Y107197229D01*
X88655290Y107111735D01*
X88631315Y107040440D01*
X88616672Y106989994D01*
X88613913Y106967050D01*
X88615758Y106964073D01*
X88634852Y106935283D01*
X88670761Y106882181D01*
X88720155Y106809659D01*
X88779704Y106722609D01*
X88846080Y106625922D01*
X88864297Y106599320D01*
X88928354Y106503901D01*
X88983714Y106418564D01*
X89027216Y106348371D01*
X89055701Y106298382D01*
X89066009Y106273660D01*
X89063788Y106267160D01*
X89040635Y106235132D01*
X88994954Y106182831D01*
X88930018Y106113777D01*
X88849096Y106031490D01*
X88755462Y105939490D01*
X88701942Y105887995D01*
X88617319Y105807793D01*
X88543252Y105739098D01*
X88483718Y105685524D01*
X88442694Y105650691D01*
X88424158Y105638213D01*
X88411423Y105642838D01*
X88372213Y105664719D01*
X88315272Y105700503D01*
X88248027Y105745659D01*
X88200215Y105778611D01*
X88104762Y105844049D01*
X88002902Y105913548D01*
X87909865Y105976701D01*
X87727609Y106099976D01*
X87574618Y106017256D01*
X87538594Y105998163D01*
X87473080Y105965504D01*
X87422417Y105942957D01*
X87395341Y105934550D01*
X87386480Y105945346D01*
X87364476Y105986453D01*
X87331976Y106054227D01*
X87290787Y106144367D01*
X87242719Y106252571D01*
X87189579Y106374539D01*
X87133176Y106505968D01*
X87075319Y106642558D01*
X87017815Y106780009D01*
X86962474Y106914018D01*
X86911103Y107040285D01*
X86865512Y107154508D01*
X86827509Y107252386D01*
X86798901Y107329619D01*
X86781498Y107381905D01*
X86777108Y107404943D01*
X86777405Y107405616D01*
X86797854Y107426913D01*
X86840627Y107460268D01*
X86896894Y107498765D01*
X86914654Y107510520D01*
X87049791Y107622041D01*
X87161633Y107754870D01*
X87247532Y107903478D01*
X87304839Y108062336D01*
X87330908Y108225916D01*
X87323090Y108388688D01*
X87291421Y108533461D01*
X87234559Y108679652D01*
X87151665Y108810073D01*
X87037908Y108933963D01*
X86993210Y108973541D01*
X86848712Y109071053D01*
X86692615Y109136726D01*
X86529444Y109171146D01*
X86363720Y109174902D01*
X86199969Y109148582D01*
X86042713Y109092773D01*
X85896475Y109008062D01*
X85765781Y108895039D01*
X85655151Y108754289D01*
X85633882Y108719434D01*
X85561587Y108560121D01*
X85523192Y108394224D01*
X85517691Y108226039D01*
X85544078Y108059863D01*
X85601347Y107899992D01*
X85688494Y107750723D01*
X85804513Y107616353D01*
X85948399Y107501177D01*
X85953071Y107498074D01*
X86008741Y107458843D01*
X86050466Y107425490D01*
X86069523Y107404943D01*
X86067119Y107388835D01*
X86052168Y107341932D01*
X86025658Y107269237D01*
X85989397Y107175051D01*
X85945193Y107063678D01*
X85894853Y106939418D01*
X85840184Y106806574D01*
X85782995Y106669449D01*
X85725093Y106532344D01*
X85668287Y106399561D01*
X85614383Y106275402D01*
X85565189Y106164170D01*
X85522514Y106070167D01*
X85488164Y105997694D01*
X85463948Y105951054D01*
X85451674Y105934550D01*
X85441466Y105936785D01*
X85401363Y105952850D01*
X85342095Y105981017D01*
X85272396Y106017256D01*
X85119406Y106099976D01*
X84937150Y105976701D01*
X84883304Y105940197D01*
X84783151Y105871992D01*
X84683302Y105803678D01*
X84598988Y105745659D01*
X84552456Y105714040D01*
X84491977Y105674756D01*
X84447134Y105647864D01*
X84425232Y105637893D01*
X84415822Y105642126D01*
X84381808Y105668055D01*
X84329372Y105713706D01*
X84263078Y105774590D01*
X84187490Y105846215D01*
X84107173Y105924093D01*
X84026690Y106003731D01*
X83950606Y106080641D01*
X83883484Y106150331D01*
X83829889Y106208312D01*
X83794385Y106250092D01*
X83781536Y106271183D01*
X83782277Y106275195D01*
X83797570Y106307856D01*
X83830239Y106364364D01*
X83877127Y106439613D01*
X83935078Y106528501D01*
X84000934Y106625922D01*
X84019404Y106652794D01*
X84084259Y106747353D01*
X84141386Y106830949D01*
X84187455Y106898692D01*
X84219136Y106945690D01*
X84233101Y106967050D01*
X84233445Y106967965D01*
X84229323Y106994098D01*
X84213584Y107047036D01*
X84188781Y107120129D01*
X84157466Y107206724D01*
X84122194Y107300168D01*
X84085517Y107393811D01*
X84049989Y107480999D01*
X84018163Y107555081D01*
X83992593Y107609405D01*
X83975830Y107637319D01*
X83974151Y107639052D01*
X83962149Y107647820D01*
X83941880Y107656661D01*
X83909306Y107666484D01*
X83860393Y107678193D01*
X83791104Y107692696D01*
X83697402Y107710900D01*
X83575253Y107733710D01*
X83420619Y107762035D01*
X83388547Y107767996D01*
X83296670Y107786424D01*
X83219384Y107803884D01*
X83164013Y107818643D01*
X83137882Y107828966D01*
X83133510Y107837579D01*
X83126222Y107878950D01*
X83120446Y107947535D01*
X83116187Y108036908D01*
X83113450Y108140641D01*
X83112239Y108252311D01*
X83112559Y108365489D01*
X83114413Y108473750D01*
X83117807Y108570668D01*
X83122744Y108649817D01*
X83129229Y108704770D01*
X83137266Y108729102D01*
X83145473Y108732697D01*
X83186296Y108744028D01*
X83255301Y108760054D01*
X83346980Y108779581D01*
X83455827Y108801414D01*
X83576335Y108824358D01*
X83642134Y108836617D01*
X83754912Y108857875D01*
X83851984Y108876489D01*
X83928159Y108891448D01*
X83978246Y108901740D01*
X83997053Y108906354D01*
X83997760Y108907305D01*
X84009738Y108931466D01*
X84032571Y108982082D01*
X84063407Y109052438D01*
X84099390Y109135818D01*
X84137668Y109225506D01*
X84175386Y109314787D01*
X84209690Y109396944D01*
X84237726Y109465263D01*
X84256641Y109513028D01*
X84263580Y109533522D01*
X84260519Y109540733D01*
X84240149Y109575048D01*
X84203199Y109632806D01*
X84152637Y109709477D01*
X84091434Y109800528D01*
X84022558Y109901426D01*
X83984771Y109956683D01*
X83919559Y110053561D01*
X83863648Y110138583D01*
X83820018Y110207114D01*
X83791654Y110254516D01*
X83781536Y110276153D01*
X83788567Y110287889D01*
X83817974Y110322958D01*
X83866218Y110376031D01*
X83928870Y110442612D01*
X84001502Y110518202D01*
X84079685Y110598304D01*
X84158991Y110678422D01*
X84234990Y110754058D01*
X84303255Y110820714D01*
X84359357Y110873894D01*
X84398867Y110909100D01*
X84417356Y110921834D01*
X84427620Y110916883D01*
X84465307Y110893919D01*
X84526125Y110854838D01*
X84605690Y110802504D01*
X84699620Y110739780D01*
X84803531Y110669530D01*
X85174571Y110417225D01*
X85483857Y110544723D01*
X85793142Y110672221D01*
X85876963Y111116845D01*
X85960783Y111561469D01*
X86886231Y111561469D01*
X86970052Y111116845D01*
G36*
X113584182Y30357879D02*
G01*
X113618196Y30331950D01*
X113670632Y30286299D01*
X113736926Y30225415D01*
X113812514Y30153790D01*
X113892831Y30075912D01*
X113973314Y29996274D01*
X114049398Y29919364D01*
X114116520Y29849674D01*
X114170115Y29791693D01*
X114205619Y29749913D01*
X114218468Y29728822D01*
X114217727Y29724810D01*
X114202434Y29692149D01*
X114169765Y29635641D01*
X114122877Y29560392D01*
X114064926Y29471504D01*
X113999070Y29374083D01*
X113980600Y29347211D01*
X113915745Y29252652D01*
X113858618Y29169056D01*
X113812549Y29101313D01*
X113780868Y29054315D01*
X113766903Y29032955D01*
X113766559Y29032040D01*
X113770681Y29005907D01*
X113786420Y28952969D01*
X113811223Y28879876D01*
X113842538Y28793281D01*
X113877810Y28699837D01*
X113914487Y28606194D01*
X113950015Y28519006D01*
X113981841Y28444924D01*
X114007411Y28390600D01*
X114024174Y28362686D01*
X114025853Y28360953D01*
X114037855Y28352185D01*
X114058124Y28343344D01*
X114090698Y28333521D01*
X114139611Y28321812D01*
X114208900Y28307309D01*
X114302602Y28289105D01*
X114424751Y28266295D01*
X114579385Y28237970D01*
X114611457Y28232009D01*
X114703334Y28213581D01*
X114780620Y28196121D01*
X114835991Y28181362D01*
X114862122Y28171039D01*
X114866494Y28162426D01*
X114873782Y28121055D01*
X114879558Y28052470D01*
X114883817Y27963097D01*
X114886554Y27859364D01*
X114887765Y27747694D01*
X114887445Y27634516D01*
X114885591Y27526255D01*
X114882197Y27429337D01*
X114877260Y27350188D01*
X114870775Y27295235D01*
X114862738Y27270903D01*
X114854531Y27267308D01*
X114813708Y27255977D01*
X114744703Y27239951D01*
X114653024Y27220424D01*
X114544177Y27198591D01*
X114423669Y27175647D01*
X114357870Y27163388D01*
X114245092Y27142130D01*
X114148020Y27123516D01*
X114071845Y27108557D01*
X114021758Y27098265D01*
X114002951Y27093651D01*
X114002244Y27092700D01*
X113990266Y27068539D01*
X113967433Y27017923D01*
X113936597Y26947567D01*
X113900614Y26864187D01*
X113862336Y26774499D01*
X113824618Y26685218D01*
X113790314Y26603061D01*
X113762278Y26534742D01*
X113743363Y26486977D01*
X113736424Y26466483D01*
X113739485Y26459272D01*
X113759855Y26424957D01*
X113796805Y26367199D01*
X113847367Y26290528D01*
X113908570Y26199477D01*
X113977446Y26098579D01*
X114015233Y26043322D01*
X114080445Y25946444D01*
X114136356Y25861422D01*
X114179986Y25792891D01*
X114208350Y25745489D01*
X114218468Y25723852D01*
X114211437Y25712116D01*
X114182030Y25677047D01*
X114133786Y25623974D01*
X114071134Y25557393D01*
X113998502Y25481803D01*
X113920319Y25401701D01*
X113841013Y25321583D01*
X113765014Y25245947D01*
X113696749Y25179291D01*
X113640647Y25126111D01*
X113601137Y25090905D01*
X113582648Y25078171D01*
X113572384Y25083122D01*
X113534697Y25106086D01*
X113473879Y25145167D01*
X113394314Y25197501D01*
X113300384Y25260225D01*
X113196473Y25330475D01*
X112825433Y25582780D01*
X112516147Y25455282D01*
X112206862Y25327784D01*
X112123041Y24883160D01*
X112039221Y24438536D01*
X111113773Y24438536D01*
X111029952Y24883160D01*
X110946132Y25327784D01*
X110327560Y25582780D01*
X109956520Y25330475D01*
X109883083Y25280735D01*
X109785728Y25215447D01*
X109701440Y25159683D01*
X109634596Y25116307D01*
X109589573Y25088182D01*
X109570749Y25078171D01*
X109559188Y25085290D01*
X109524631Y25115123D01*
X109472333Y25164081D01*
X109406727Y25227669D01*
X109332244Y25301392D01*
X109253314Y25380754D01*
X109174371Y25461260D01*
X109099843Y25538414D01*
X109034164Y25607722D01*
X108981764Y25664686D01*
X108947074Y25704813D01*
X108934526Y25723606D01*
X108937445Y25731680D01*
X108957656Y25767698D01*
X108994564Y25826973D01*
X109045177Y25904859D01*
X109106502Y25996710D01*
X109175548Y26097879D01*
X109213440Y26153055D01*
X109278621Y26249113D01*
X109334504Y26332946D01*
X109378110Y26400006D01*
X109406458Y26445748D01*
X109416570Y26465625D01*
X109416404Y26466726D01*
X109407484Y26491923D01*
X109387021Y26543376D01*
X109357867Y26614364D01*
X109322874Y26698164D01*
X109284895Y26788057D01*
X109246782Y26877320D01*
X109211388Y26959232D01*
X109181565Y27027072D01*
X109160166Y27074119D01*
X109150043Y27093651D01*
X109144053Y27095384D01*
X109107661Y27103198D01*
X109042800Y27116144D01*
X108954662Y27133208D01*
X108848440Y27153380D01*
X108729325Y27175647D01*
X108666544Y27187452D01*
X108551315Y27209977D01*
X108450565Y27230779D01*
X108369801Y27248664D01*
X108314529Y27262437D01*
X108290256Y27270903D01*
X108285896Y27279295D01*
X108278664Y27320301D01*
X108272981Y27388597D01*
X108268845Y27477758D01*
X108266250Y27581357D01*
X108265191Y27692969D01*
X108265666Y27806167D01*
X108267668Y27914525D01*
X108271194Y28011618D01*
X108276240Y28091019D01*
X108282800Y28146301D01*
X108290871Y28171039D01*
X108295769Y28173829D01*
X108332297Y28185798D01*
X108395662Y28201634D01*
X108478541Y28219603D01*
X108573609Y28237970D01*
X108605685Y28243820D01*
X108753834Y28271027D01*
X108870266Y28292892D01*
X108959018Y28310322D01*
X109024124Y28324225D01*
X109069621Y28335506D01*
X109099545Y28345072D01*
X109117933Y28353830D01*
X109128820Y28362686D01*
X109130085Y28364172D01*
X109147889Y28395160D01*
X109174233Y28451863D01*
X109206566Y28527628D01*
X109242334Y28615803D01*
X109278983Y28709736D01*
X109313961Y28802776D01*
X109344714Y28888270D01*
X109368689Y28959565D01*
X109383332Y29010011D01*
X109386091Y29032955D01*
X109384246Y29035932D01*
X109365152Y29064722D01*
X109329243Y29117824D01*
X109279849Y29190346D01*
X109220300Y29277396D01*
X109153924Y29374083D01*
X109135707Y29400685D01*
X109071650Y29496104D01*
X109016290Y29581441D01*
X108972788Y29651634D01*
X108944303Y29701623D01*
X108933995Y29726345D01*
X108936216Y29732845D01*
X108959369Y29764873D01*
X109005050Y29817174D01*
X109069986Y29886228D01*
X109150908Y29968515D01*
X109244542Y30060515D01*
X109298062Y30112010D01*
X109382685Y30192212D01*
X109456752Y30260907D01*
X109516286Y30314481D01*
X109557310Y30349314D01*
X109575846Y30361792D01*
X109588581Y30357167D01*
X109627791Y30335286D01*
X109684732Y30299502D01*
X109751977Y30254346D01*
X109799789Y30221394D01*
X109895242Y30155956D01*
X109997102Y30086457D01*
X110090139Y30023304D01*
X110272395Y29900029D01*
X110425386Y29982749D01*
X110461410Y30001842D01*
X110526924Y30034501D01*
X110577587Y30057048D01*
X110604663Y30065455D01*
X110613524Y30054659D01*
X110635528Y30013552D01*
X110668028Y29945778D01*
X110709217Y29855638D01*
X110757285Y29747434D01*
X110810425Y29625466D01*
X110866828Y29494037D01*
X110924685Y29357447D01*
X110982189Y29219996D01*
X111037530Y29085987D01*
X111088901Y28959720D01*
X111134492Y28845497D01*
X111172495Y28747619D01*
X111201103Y28670386D01*
X111218506Y28618100D01*
X111222896Y28595062D01*
X111222599Y28594389D01*
X111202150Y28573092D01*
X111159377Y28539737D01*
X111103110Y28501240D01*
X111085350Y28489485D01*
X110950213Y28377964D01*
X110838371Y28245135D01*
X110752472Y28096527D01*
X110695165Y27937669D01*
X110669096Y27774089D01*
X110676914Y27611317D01*
X110708583Y27466544D01*
X110765445Y27320353D01*
X110848339Y27189932D01*
X110962096Y27066042D01*
X111006794Y27026464D01*
X111151292Y26928952D01*
X111307389Y26863279D01*
X111470560Y26828859D01*
X111636284Y26825103D01*
X111800035Y26851423D01*
X111957291Y26907232D01*
X112103529Y26991943D01*
X112234223Y27104966D01*
X112344853Y27245716D01*
X112366122Y27280571D01*
X112438417Y27439884D01*
X112476812Y27605781D01*
X112482313Y27773966D01*
X112455926Y27940142D01*
X112398657Y28100013D01*
X112311510Y28249282D01*
X112195491Y28383652D01*
X112051605Y28498828D01*
X112046933Y28501931D01*
X111991263Y28541162D01*
X111949538Y28574515D01*
X111930481Y28595062D01*
X111932885Y28611170D01*
X111947836Y28658073D01*
X111974346Y28730768D01*
X112010607Y28824954D01*
X112054811Y28936327D01*
X112105151Y29060587D01*
X112159820Y29193431D01*
X112217009Y29330556D01*
X112274911Y29467661D01*
X112331717Y29600444D01*
X112385621Y29724603D01*
X112434815Y29835835D01*
X112477490Y29929838D01*
X112511840Y30002311D01*
X112536056Y30048951D01*
X112548330Y30065455D01*
X112558538Y30063220D01*
X112598641Y30047155D01*
X112657909Y30018988D01*
X112727608Y29982749D01*
X112880598Y29900029D01*
X113062854Y30023304D01*
X113116700Y30059808D01*
X113216853Y30128013D01*
X113316702Y30196327D01*
X113401016Y30254346D01*
X113447548Y30285965D01*
X113508027Y30325249D01*
X113552870Y30352141D01*
X113574772Y30362112D01*
X113584182Y30357879D01*
G37*
X113584182Y30357879D02*
X113618196Y30331950D01*
X113670632Y30286299D01*
X113736926Y30225415D01*
X113812514Y30153790D01*
X113892831Y30075912D01*
X113973314Y29996274D01*
X114049398Y29919364D01*
X114116520Y29849674D01*
X114170115Y29791693D01*
X114205619Y29749913D01*
X114218468Y29728822D01*
X114217727Y29724810D01*
X114202434Y29692149D01*
X114169765Y29635641D01*
X114122877Y29560392D01*
X114064926Y29471504D01*
X113999070Y29374083D01*
X113980600Y29347211D01*
X113915745Y29252652D01*
X113858618Y29169056D01*
X113812549Y29101313D01*
X113780868Y29054315D01*
X113766903Y29032955D01*
X113766559Y29032040D01*
X113770681Y29005907D01*
X113786420Y28952969D01*
X113811223Y28879876D01*
X113842538Y28793281D01*
X113877810Y28699837D01*
X113914487Y28606194D01*
X113950015Y28519006D01*
X113981841Y28444924D01*
X114007411Y28390600D01*
X114024174Y28362686D01*
X114025853Y28360953D01*
X114037855Y28352185D01*
X114058124Y28343344D01*
X114090698Y28333521D01*
X114139611Y28321812D01*
X114208900Y28307309D01*
X114302602Y28289105D01*
X114424751Y28266295D01*
X114579385Y28237970D01*
X114611457Y28232009D01*
X114703334Y28213581D01*
X114780620Y28196121D01*
X114835991Y28181362D01*
X114862122Y28171039D01*
X114866494Y28162426D01*
X114873782Y28121055D01*
X114879558Y28052470D01*
X114883817Y27963097D01*
X114886554Y27859364D01*
X114887765Y27747694D01*
X114887445Y27634516D01*
X114885591Y27526255D01*
X114882197Y27429337D01*
X114877260Y27350188D01*
X114870775Y27295235D01*
X114862738Y27270903D01*
X114854531Y27267308D01*
X114813708Y27255977D01*
X114744703Y27239951D01*
X114653024Y27220424D01*
X114544177Y27198591D01*
X114423669Y27175647D01*
X114357870Y27163388D01*
X114245092Y27142130D01*
X114148020Y27123516D01*
X114071845Y27108557D01*
X114021758Y27098265D01*
X114002951Y27093651D01*
X114002244Y27092700D01*
X113990266Y27068539D01*
X113967433Y27017923D01*
X113936597Y26947567D01*
X113900614Y26864187D01*
X113862336Y26774499D01*
X113824618Y26685218D01*
X113790314Y26603061D01*
X113762278Y26534742D01*
X113743363Y26486977D01*
X113736424Y26466483D01*
X113739485Y26459272D01*
X113759855Y26424957D01*
X113796805Y26367199D01*
X113847367Y26290528D01*
X113908570Y26199477D01*
X113977446Y26098579D01*
X114015233Y26043322D01*
X114080445Y25946444D01*
X114136356Y25861422D01*
X114179986Y25792891D01*
X114208350Y25745489D01*
X114218468Y25723852D01*
X114211437Y25712116D01*
X114182030Y25677047D01*
X114133786Y25623974D01*
X114071134Y25557393D01*
X113998502Y25481803D01*
X113920319Y25401701D01*
X113841013Y25321583D01*
X113765014Y25245947D01*
X113696749Y25179291D01*
X113640647Y25126111D01*
X113601137Y25090905D01*
X113582648Y25078171D01*
X113572384Y25083122D01*
X113534697Y25106086D01*
X113473879Y25145167D01*
X113394314Y25197501D01*
X113300384Y25260225D01*
X113196473Y25330475D01*
X112825433Y25582780D01*
X112516147Y25455282D01*
X112206862Y25327784D01*
X112123041Y24883160D01*
X112039221Y24438536D01*
X111113773Y24438536D01*
X111029952Y24883160D01*
X110946132Y25327784D01*
X110327560Y25582780D01*
X109956520Y25330475D01*
X109883083Y25280735D01*
X109785728Y25215447D01*
X109701440Y25159683D01*
X109634596Y25116307D01*
X109589573Y25088182D01*
X109570749Y25078171D01*
X109559188Y25085290D01*
X109524631Y25115123D01*
X109472333Y25164081D01*
X109406727Y25227669D01*
X109332244Y25301392D01*
X109253314Y25380754D01*
X109174371Y25461260D01*
X109099843Y25538414D01*
X109034164Y25607722D01*
X108981764Y25664686D01*
X108947074Y25704813D01*
X108934526Y25723606D01*
X108937445Y25731680D01*
X108957656Y25767698D01*
X108994564Y25826973D01*
X109045177Y25904859D01*
X109106502Y25996710D01*
X109175548Y26097879D01*
X109213440Y26153055D01*
X109278621Y26249113D01*
X109334504Y26332946D01*
X109378110Y26400006D01*
X109406458Y26445748D01*
X109416570Y26465625D01*
X109416404Y26466726D01*
X109407484Y26491923D01*
X109387021Y26543376D01*
X109357867Y26614364D01*
X109322874Y26698164D01*
X109284895Y26788057D01*
X109246782Y26877320D01*
X109211388Y26959232D01*
X109181565Y27027072D01*
X109160166Y27074119D01*
X109150043Y27093651D01*
X109144053Y27095384D01*
X109107661Y27103198D01*
X109042800Y27116144D01*
X108954662Y27133208D01*
X108848440Y27153380D01*
X108729325Y27175647D01*
X108666544Y27187452D01*
X108551315Y27209977D01*
X108450565Y27230779D01*
X108369801Y27248664D01*
X108314529Y27262437D01*
X108290256Y27270903D01*
X108285896Y27279295D01*
X108278664Y27320301D01*
X108272981Y27388597D01*
X108268845Y27477758D01*
X108266250Y27581357D01*
X108265191Y27692969D01*
X108265666Y27806167D01*
X108267668Y27914525D01*
X108271194Y28011618D01*
X108276240Y28091019D01*
X108282800Y28146301D01*
X108290871Y28171039D01*
X108295769Y28173829D01*
X108332297Y28185798D01*
X108395662Y28201634D01*
X108478541Y28219603D01*
X108573609Y28237970D01*
X108605685Y28243820D01*
X108753834Y28271027D01*
X108870266Y28292892D01*
X108959018Y28310322D01*
X109024124Y28324225D01*
X109069621Y28335506D01*
X109099545Y28345072D01*
X109117933Y28353830D01*
X109128820Y28362686D01*
X109130085Y28364172D01*
X109147889Y28395160D01*
X109174233Y28451863D01*
X109206566Y28527628D01*
X109242334Y28615803D01*
X109278983Y28709736D01*
X109313961Y28802776D01*
X109344714Y28888270D01*
X109368689Y28959565D01*
X109383332Y29010011D01*
X109386091Y29032955D01*
X109384246Y29035932D01*
X109365152Y29064722D01*
X109329243Y29117824D01*
X109279849Y29190346D01*
X109220300Y29277396D01*
X109153924Y29374083D01*
X109135707Y29400685D01*
X109071650Y29496104D01*
X109016290Y29581441D01*
X108972788Y29651634D01*
X108944303Y29701623D01*
X108933995Y29726345D01*
X108936216Y29732845D01*
X108959369Y29764873D01*
X109005050Y29817174D01*
X109069986Y29886228D01*
X109150908Y29968515D01*
X109244542Y30060515D01*
X109298062Y30112010D01*
X109382685Y30192212D01*
X109456752Y30260907D01*
X109516286Y30314481D01*
X109557310Y30349314D01*
X109575846Y30361792D01*
X109588581Y30357167D01*
X109627791Y30335286D01*
X109684732Y30299502D01*
X109751977Y30254346D01*
X109799789Y30221394D01*
X109895242Y30155956D01*
X109997102Y30086457D01*
X110090139Y30023304D01*
X110272395Y29900029D01*
X110425386Y29982749D01*
X110461410Y30001842D01*
X110526924Y30034501D01*
X110577587Y30057048D01*
X110604663Y30065455D01*
X110613524Y30054659D01*
X110635528Y30013552D01*
X110668028Y29945778D01*
X110709217Y29855638D01*
X110757285Y29747434D01*
X110810425Y29625466D01*
X110866828Y29494037D01*
X110924685Y29357447D01*
X110982189Y29219996D01*
X111037530Y29085987D01*
X111088901Y28959720D01*
X111134492Y28845497D01*
X111172495Y28747619D01*
X111201103Y28670386D01*
X111218506Y28618100D01*
X111222896Y28595062D01*
X111222599Y28594389D01*
X111202150Y28573092D01*
X111159377Y28539737D01*
X111103110Y28501240D01*
X111085350Y28489485D01*
X110950213Y28377964D01*
X110838371Y28245135D01*
X110752472Y28096527D01*
X110695165Y27937669D01*
X110669096Y27774089D01*
X110676914Y27611317D01*
X110708583Y27466544D01*
X110765445Y27320353D01*
X110848339Y27189932D01*
X110962096Y27066042D01*
X111006794Y27026464D01*
X111151292Y26928952D01*
X111307389Y26863279D01*
X111470560Y26828859D01*
X111636284Y26825103D01*
X111800035Y26851423D01*
X111957291Y26907232D01*
X112103529Y26991943D01*
X112234223Y27104966D01*
X112344853Y27245716D01*
X112366122Y27280571D01*
X112438417Y27439884D01*
X112476812Y27605781D01*
X112482313Y27773966D01*
X112455926Y27940142D01*
X112398657Y28100013D01*
X112311510Y28249282D01*
X112195491Y28383652D01*
X112051605Y28498828D01*
X112046933Y28501931D01*
X111991263Y28541162D01*
X111949538Y28574515D01*
X111930481Y28595062D01*
X111932885Y28611170D01*
X111947836Y28658073D01*
X111974346Y28730768D01*
X112010607Y28824954D01*
X112054811Y28936327D01*
X112105151Y29060587D01*
X112159820Y29193431D01*
X112217009Y29330556D01*
X112274911Y29467661D01*
X112331717Y29600444D01*
X112385621Y29724603D01*
X112434815Y29835835D01*
X112477490Y29929838D01*
X112511840Y30002311D01*
X112536056Y30048951D01*
X112548330Y30065455D01*
X112558538Y30063220D01*
X112598641Y30047155D01*
X112657909Y30018988D01*
X112727608Y29982749D01*
X112880598Y29900029D01*
X113062854Y30023304D01*
X113116700Y30059808D01*
X113216853Y30128013D01*
X113316702Y30196327D01*
X113401016Y30254346D01*
X113447548Y30285965D01*
X113508027Y30325249D01*
X113552870Y30352141D01*
X113574772Y30362112D01*
X113584182Y30357879D01*
G36*
X51584182Y30357879D02*
G01*
X51618196Y30331950D01*
X51670632Y30286299D01*
X51736926Y30225415D01*
X51812514Y30153790D01*
X51892831Y30075912D01*
X51973314Y29996274D01*
X52049398Y29919364D01*
X52116520Y29849674D01*
X52170115Y29791693D01*
X52205619Y29749913D01*
X52218468Y29728822D01*
X52217727Y29724810D01*
X52202434Y29692149D01*
X52169765Y29635641D01*
X52122877Y29560392D01*
X52064926Y29471504D01*
X51999070Y29374083D01*
X51980600Y29347211D01*
X51915745Y29252652D01*
X51858618Y29169056D01*
X51812549Y29101313D01*
X51780868Y29054315D01*
X51766903Y29032955D01*
X51766559Y29032040D01*
X51770681Y29005907D01*
X51786420Y28952969D01*
X51811223Y28879876D01*
X51842538Y28793281D01*
X51877810Y28699837D01*
X51914487Y28606194D01*
X51950015Y28519006D01*
X51981841Y28444924D01*
X52007411Y28390600D01*
X52024174Y28362686D01*
X52025853Y28360953D01*
X52037855Y28352185D01*
X52058124Y28343344D01*
X52090698Y28333521D01*
X52139611Y28321812D01*
X52208900Y28307309D01*
X52302602Y28289105D01*
X52424751Y28266295D01*
X52579385Y28237970D01*
X52611457Y28232009D01*
X52703334Y28213581D01*
X52780620Y28196121D01*
X52835991Y28181362D01*
X52862122Y28171039D01*
X52866494Y28162426D01*
X52873782Y28121055D01*
X52879558Y28052470D01*
X52883817Y27963097D01*
X52886554Y27859364D01*
X52887765Y27747694D01*
X52887445Y27634516D01*
X52885591Y27526255D01*
X52882197Y27429337D01*
X52877260Y27350188D01*
X52870775Y27295235D01*
X52862738Y27270903D01*
X52854531Y27267308D01*
X52813708Y27255977D01*
X52744703Y27239951D01*
X52653024Y27220424D01*
X52544177Y27198591D01*
X52423669Y27175647D01*
X52357870Y27163388D01*
X52245092Y27142130D01*
X52148020Y27123516D01*
X52071845Y27108557D01*
X52021758Y27098265D01*
X52002951Y27093651D01*
X52002244Y27092700D01*
X51990266Y27068539D01*
X51967433Y27017923D01*
X51936597Y26947567D01*
X51900614Y26864187D01*
X51862336Y26774499D01*
X51824618Y26685218D01*
X51790314Y26603061D01*
X51762278Y26534742D01*
X51743363Y26486977D01*
X51736424Y26466483D01*
X51739485Y26459272D01*
X51759855Y26424957D01*
X51796805Y26367199D01*
X51847367Y26290528D01*
X51908570Y26199477D01*
X51977446Y26098579D01*
X52015233Y26043322D01*
X52080445Y25946444D01*
X52136356Y25861422D01*
X52179986Y25792891D01*
X52208350Y25745489D01*
X52218468Y25723852D01*
X52211437Y25712116D01*
X52182030Y25677047D01*
X52133786Y25623974D01*
X52071134Y25557393D01*
X51998502Y25481803D01*
X51920319Y25401701D01*
X51841013Y25321583D01*
X51765014Y25245947D01*
X51696749Y25179291D01*
X51640647Y25126111D01*
X51601137Y25090905D01*
X51582648Y25078171D01*
X51572384Y25083122D01*
X51534697Y25106086D01*
X51473879Y25145167D01*
X51394314Y25197501D01*
X51300384Y25260225D01*
X51196473Y25330475D01*
X50825433Y25582780D01*
X50516147Y25455282D01*
X50206862Y25327784D01*
X50123041Y24883160D01*
X50039221Y24438536D01*
X49113773Y24438536D01*
X49029952Y24883160D01*
X48946132Y25327784D01*
X48327560Y25582780D01*
X47956520Y25330475D01*
X47883083Y25280735D01*
X47785728Y25215447D01*
X47701440Y25159683D01*
X47634596Y25116307D01*
X47589573Y25088182D01*
X47570749Y25078171D01*
X47559188Y25085290D01*
X47524631Y25115123D01*
X47472333Y25164081D01*
X47406727Y25227669D01*
X47332244Y25301392D01*
X47253314Y25380754D01*
X47174371Y25461260D01*
X47099843Y25538414D01*
X47034164Y25607722D01*
X46981764Y25664686D01*
X46947074Y25704813D01*
X46934526Y25723606D01*
X46937445Y25731680D01*
X46957656Y25767698D01*
X46994564Y25826973D01*
X47045177Y25904859D01*
X47106502Y25996710D01*
X47175548Y26097879D01*
X47213440Y26153055D01*
X47278621Y26249113D01*
X47334504Y26332946D01*
X47378110Y26400006D01*
X47406458Y26445748D01*
X47416570Y26465625D01*
X47416404Y26466726D01*
X47407484Y26491923D01*
X47387021Y26543376D01*
X47357867Y26614364D01*
X47322874Y26698164D01*
X47284895Y26788057D01*
X47246782Y26877320D01*
X47211388Y26959232D01*
X47181565Y27027072D01*
X47160166Y27074119D01*
X47150043Y27093651D01*
X47144053Y27095384D01*
X47107661Y27103198D01*
X47042800Y27116144D01*
X46954662Y27133208D01*
X46848440Y27153380D01*
X46729325Y27175647D01*
X46666544Y27187452D01*
X46551315Y27209977D01*
X46450565Y27230779D01*
X46369801Y27248664D01*
X46314529Y27262437D01*
X46290256Y27270903D01*
X46285896Y27279295D01*
X46278664Y27320301D01*
X46272981Y27388597D01*
X46268845Y27477758D01*
X46266250Y27581357D01*
X46265191Y27692969D01*
X46265666Y27806167D01*
X46267668Y27914525D01*
X46271194Y28011618D01*
X46276240Y28091019D01*
X46282800Y28146301D01*
X46290871Y28171039D01*
X46295769Y28173829D01*
X46332297Y28185798D01*
X46395662Y28201634D01*
X46478541Y28219603D01*
X46573609Y28237970D01*
X46605685Y28243820D01*
X46753834Y28271027D01*
X46870266Y28292892D01*
X46959018Y28310322D01*
X47024124Y28324225D01*
X47069621Y28335506D01*
X47099545Y28345072D01*
X47117933Y28353830D01*
X47128820Y28362686D01*
X47130085Y28364172D01*
X47147889Y28395160D01*
X47174233Y28451863D01*
X47206566Y28527628D01*
X47242334Y28615803D01*
X47278983Y28709736D01*
X47313961Y28802776D01*
X47344714Y28888270D01*
X47368689Y28959565D01*
X47383332Y29010011D01*
X47386091Y29032955D01*
X47384246Y29035932D01*
X47365152Y29064722D01*
X47329243Y29117824D01*
X47279849Y29190346D01*
X47220300Y29277396D01*
X47153924Y29374083D01*
X47135707Y29400685D01*
X47071650Y29496104D01*
X47016290Y29581441D01*
X46972788Y29651634D01*
X46944303Y29701623D01*
X46933995Y29726345D01*
X46936216Y29732845D01*
X46959369Y29764873D01*
X47005050Y29817174D01*
X47069986Y29886228D01*
X47150908Y29968515D01*
X47244542Y30060515D01*
X47298062Y30112010D01*
X47382685Y30192212D01*
X47456752Y30260907D01*
X47516286Y30314481D01*
X47557310Y30349314D01*
X47575846Y30361792D01*
X47588581Y30357167D01*
X47627791Y30335286D01*
X47684732Y30299502D01*
X47751977Y30254346D01*
X47799789Y30221394D01*
X47895242Y30155956D01*
X47997102Y30086457D01*
X48090139Y30023304D01*
X48272395Y29900029D01*
X48425386Y29982749D01*
X48461410Y30001842D01*
X48526924Y30034501D01*
X48577587Y30057048D01*
X48604663Y30065455D01*
X48613524Y30054659D01*
X48635528Y30013552D01*
X48668028Y29945778D01*
X48709217Y29855638D01*
X48757285Y29747434D01*
X48810425Y29625466D01*
X48866828Y29494037D01*
X48924685Y29357447D01*
X48982189Y29219996D01*
X49037530Y29085987D01*
X49088901Y28959720D01*
X49134492Y28845497D01*
X49172495Y28747619D01*
X49201103Y28670386D01*
X49218506Y28618100D01*
X49222896Y28595062D01*
X49222599Y28594389D01*
X49202150Y28573092D01*
X49159377Y28539737D01*
X49103110Y28501240D01*
X49085350Y28489485D01*
X48950213Y28377964D01*
X48838371Y28245135D01*
X48752472Y28096527D01*
X48695165Y27937669D01*
X48669096Y27774089D01*
X48676914Y27611317D01*
X48708583Y27466544D01*
X48765445Y27320353D01*
X48848339Y27189932D01*
X48962096Y27066042D01*
X49006794Y27026464D01*
X49151292Y26928952D01*
X49307389Y26863279D01*
X49470560Y26828859D01*
X49636284Y26825103D01*
X49800035Y26851423D01*
X49957291Y26907232D01*
X50103529Y26991943D01*
X50234223Y27104966D01*
X50344853Y27245716D01*
X50366122Y27280571D01*
X50438417Y27439884D01*
X50476812Y27605781D01*
X50482313Y27773966D01*
X50455926Y27940142D01*
X50398657Y28100013D01*
X50311510Y28249282D01*
X50195491Y28383652D01*
X50051605Y28498828D01*
X50046933Y28501931D01*
X49991263Y28541162D01*
X49949538Y28574515D01*
X49930481Y28595062D01*
X49932885Y28611170D01*
X49947836Y28658073D01*
X49974346Y28730768D01*
X50010607Y28824954D01*
X50054811Y28936327D01*
X50105151Y29060587D01*
X50159820Y29193431D01*
X50217009Y29330556D01*
X50274911Y29467661D01*
X50331717Y29600444D01*
X50385621Y29724603D01*
X50434815Y29835835D01*
X50477490Y29929838D01*
X50511840Y30002311D01*
X50536056Y30048951D01*
X50548330Y30065455D01*
X50558538Y30063220D01*
X50598641Y30047155D01*
X50657909Y30018988D01*
X50727608Y29982749D01*
X50880598Y29900029D01*
X51062854Y30023304D01*
X51116700Y30059808D01*
X51216853Y30128013D01*
X51316702Y30196327D01*
X51401016Y30254346D01*
X51447548Y30285965D01*
X51508027Y30325249D01*
X51552870Y30352141D01*
X51574772Y30362112D01*
X51584182Y30357879D01*
G37*
X51584182Y30357879D02*
X51618196Y30331950D01*
X51670632Y30286299D01*
X51736926Y30225415D01*
X51812514Y30153790D01*
X51892831Y30075912D01*
X51973314Y29996274D01*
X52049398Y29919364D01*
X52116520Y29849674D01*
X52170115Y29791693D01*
X52205619Y29749913D01*
X52218468Y29728822D01*
X52217727Y29724810D01*
X52202434Y29692149D01*
X52169765Y29635641D01*
X52122877Y29560392D01*
X52064926Y29471504D01*
X51999070Y29374083D01*
X51980600Y29347211D01*
X51915745Y29252652D01*
X51858618Y29169056D01*
X51812549Y29101313D01*
X51780868Y29054315D01*
X51766903Y29032955D01*
X51766559Y29032040D01*
X51770681Y29005907D01*
X51786420Y28952969D01*
X51811223Y28879876D01*
X51842538Y28793281D01*
X51877810Y28699837D01*
X51914487Y28606194D01*
X51950015Y28519006D01*
X51981841Y28444924D01*
X52007411Y28390600D01*
X52024174Y28362686D01*
X52025853Y28360953D01*
X52037855Y28352185D01*
X52058124Y28343344D01*
X52090698Y28333521D01*
X52139611Y28321812D01*
X52208900Y28307309D01*
X52302602Y28289105D01*
X52424751Y28266295D01*
X52579385Y28237970D01*
X52611457Y28232009D01*
X52703334Y28213581D01*
X52780620Y28196121D01*
X52835991Y28181362D01*
X52862122Y28171039D01*
X52866494Y28162426D01*
X52873782Y28121055D01*
X52879558Y28052470D01*
X52883817Y27963097D01*
X52886554Y27859364D01*
X52887765Y27747694D01*
X52887445Y27634516D01*
X52885591Y27526255D01*
X52882197Y27429337D01*
X52877260Y27350188D01*
X52870775Y27295235D01*
X52862738Y27270903D01*
X52854531Y27267308D01*
X52813708Y27255977D01*
X52744703Y27239951D01*
X52653024Y27220424D01*
X52544177Y27198591D01*
X52423669Y27175647D01*
X52357870Y27163388D01*
X52245092Y27142130D01*
X52148020Y27123516D01*
X52071845Y27108557D01*
X52021758Y27098265D01*
X52002951Y27093651D01*
X52002244Y27092700D01*
X51990266Y27068539D01*
X51967433Y27017923D01*
X51936597Y26947567D01*
X51900614Y26864187D01*
X51862336Y26774499D01*
X51824618Y26685218D01*
X51790314Y26603061D01*
X51762278Y26534742D01*
X51743363Y26486977D01*
X51736424Y26466483D01*
X51739485Y26459272D01*
X51759855Y26424957D01*
X51796805Y26367199D01*
X51847367Y26290528D01*
X51908570Y26199477D01*
X51977446Y26098579D01*
X52015233Y26043322D01*
X52080445Y25946444D01*
X52136356Y25861422D01*
X52179986Y25792891D01*
X52208350Y25745489D01*
X52218468Y25723852D01*
X52211437Y25712116D01*
X52182030Y25677047D01*
X52133786Y25623974D01*
X52071134Y25557393D01*
X51998502Y25481803D01*
X51920319Y25401701D01*
X51841013Y25321583D01*
X51765014Y25245947D01*
X51696749Y25179291D01*
X51640647Y25126111D01*
X51601137Y25090905D01*
X51582648Y25078171D01*
X51572384Y25083122D01*
X51534697Y25106086D01*
X51473879Y25145167D01*
X51394314Y25197501D01*
X51300384Y25260225D01*
X51196473Y25330475D01*
X50825433Y25582780D01*
X50516147Y25455282D01*
X50206862Y25327784D01*
X50123041Y24883160D01*
X50039221Y24438536D01*
X49113773Y24438536D01*
X49029952Y24883160D01*
X48946132Y25327784D01*
X48327560Y25582780D01*
X47956520Y25330475D01*
X47883083Y25280735D01*
X47785728Y25215447D01*
X47701440Y25159683D01*
X47634596Y25116307D01*
X47589573Y25088182D01*
X47570749Y25078171D01*
X47559188Y25085290D01*
X47524631Y25115123D01*
X47472333Y25164081D01*
X47406727Y25227669D01*
X47332244Y25301392D01*
X47253314Y25380754D01*
X47174371Y25461260D01*
X47099843Y25538414D01*
X47034164Y25607722D01*
X46981764Y25664686D01*
X46947074Y25704813D01*
X46934526Y25723606D01*
X46937445Y25731680D01*
X46957656Y25767698D01*
X46994564Y25826973D01*
X47045177Y25904859D01*
X47106502Y25996710D01*
X47175548Y26097879D01*
X47213440Y26153055D01*
X47278621Y26249113D01*
X47334504Y26332946D01*
X47378110Y26400006D01*
X47406458Y26445748D01*
X47416570Y26465625D01*
X47416404Y26466726D01*
X47407484Y26491923D01*
X47387021Y26543376D01*
X47357867Y26614364D01*
X47322874Y26698164D01*
X47284895Y26788057D01*
X47246782Y26877320D01*
X47211388Y26959232D01*
X47181565Y27027072D01*
X47160166Y27074119D01*
X47150043Y27093651D01*
X47144053Y27095384D01*
X47107661Y27103198D01*
X47042800Y27116144D01*
X46954662Y27133208D01*
X46848440Y27153380D01*
X46729325Y27175647D01*
X46666544Y27187452D01*
X46551315Y27209977D01*
X46450565Y27230779D01*
X46369801Y27248664D01*
X46314529Y27262437D01*
X46290256Y27270903D01*
X46285896Y27279295D01*
X46278664Y27320301D01*
X46272981Y27388597D01*
X46268845Y27477758D01*
X46266250Y27581357D01*
X46265191Y27692969D01*
X46265666Y27806167D01*
X46267668Y27914525D01*
X46271194Y28011618D01*
X46276240Y28091019D01*
X46282800Y28146301D01*
X46290871Y28171039D01*
X46295769Y28173829D01*
X46332297Y28185798D01*
X46395662Y28201634D01*
X46478541Y28219603D01*
X46573609Y28237970D01*
X46605685Y28243820D01*
X46753834Y28271027D01*
X46870266Y28292892D01*
X46959018Y28310322D01*
X47024124Y28324225D01*
X47069621Y28335506D01*
X47099545Y28345072D01*
X47117933Y28353830D01*
X47128820Y28362686D01*
X47130085Y28364172D01*
X47147889Y28395160D01*
X47174233Y28451863D01*
X47206566Y28527628D01*
X47242334Y28615803D01*
X47278983Y28709736D01*
X47313961Y28802776D01*
X47344714Y28888270D01*
X47368689Y28959565D01*
X47383332Y29010011D01*
X47386091Y29032955D01*
X47384246Y29035932D01*
X47365152Y29064722D01*
X47329243Y29117824D01*
X47279849Y29190346D01*
X47220300Y29277396D01*
X47153924Y29374083D01*
X47135707Y29400685D01*
X47071650Y29496104D01*
X47016290Y29581441D01*
X46972788Y29651634D01*
X46944303Y29701623D01*
X46933995Y29726345D01*
X46936216Y29732845D01*
X46959369Y29764873D01*
X47005050Y29817174D01*
X47069986Y29886228D01*
X47150908Y29968515D01*
X47244542Y30060515D01*
X47298062Y30112010D01*
X47382685Y30192212D01*
X47456752Y30260907D01*
X47516286Y30314481D01*
X47557310Y30349314D01*
X47575846Y30361792D01*
X47588581Y30357167D01*
X47627791Y30335286D01*
X47684732Y30299502D01*
X47751977Y30254346D01*
X47799789Y30221394D01*
X47895242Y30155956D01*
X47997102Y30086457D01*
X48090139Y30023304D01*
X48272395Y29900029D01*
X48425386Y29982749D01*
X48461410Y30001842D01*
X48526924Y30034501D01*
X48577587Y30057048D01*
X48604663Y30065455D01*
X48613524Y30054659D01*
X48635528Y30013552D01*
X48668028Y29945778D01*
X48709217Y29855638D01*
X48757285Y29747434D01*
X48810425Y29625466D01*
X48866828Y29494037D01*
X48924685Y29357447D01*
X48982189Y29219996D01*
X49037530Y29085987D01*
X49088901Y28959720D01*
X49134492Y28845497D01*
X49172495Y28747619D01*
X49201103Y28670386D01*
X49218506Y28618100D01*
X49222896Y28595062D01*
X49222599Y28594389D01*
X49202150Y28573092D01*
X49159377Y28539737D01*
X49103110Y28501240D01*
X49085350Y28489485D01*
X48950213Y28377964D01*
X48838371Y28245135D01*
X48752472Y28096527D01*
X48695165Y27937669D01*
X48669096Y27774089D01*
X48676914Y27611317D01*
X48708583Y27466544D01*
X48765445Y27320353D01*
X48848339Y27189932D01*
X48962096Y27066042D01*
X49006794Y27026464D01*
X49151292Y26928952D01*
X49307389Y26863279D01*
X49470560Y26828859D01*
X49636284Y26825103D01*
X49800035Y26851423D01*
X49957291Y26907232D01*
X50103529Y26991943D01*
X50234223Y27104966D01*
X50344853Y27245716D01*
X50366122Y27280571D01*
X50438417Y27439884D01*
X50476812Y27605781D01*
X50482313Y27773966D01*
X50455926Y27940142D01*
X50398657Y28100013D01*
X50311510Y28249282D01*
X50195491Y28383652D01*
X50051605Y28498828D01*
X50046933Y28501931D01*
X49991263Y28541162D01*
X49949538Y28574515D01*
X49930481Y28595062D01*
X49932885Y28611170D01*
X49947836Y28658073D01*
X49974346Y28730768D01*
X50010607Y28824954D01*
X50054811Y28936327D01*
X50105151Y29060587D01*
X50159820Y29193431D01*
X50217009Y29330556D01*
X50274911Y29467661D01*
X50331717Y29600444D01*
X50385621Y29724603D01*
X50434815Y29835835D01*
X50477490Y29929838D01*
X50511840Y30002311D01*
X50536056Y30048951D01*
X50548330Y30065455D01*
X50558538Y30063220D01*
X50598641Y30047155D01*
X50657909Y30018988D01*
X50727608Y29982749D01*
X50880598Y29900029D01*
X51062854Y30023304D01*
X51116700Y30059808D01*
X51216853Y30128013D01*
X51316702Y30196327D01*
X51401016Y30254346D01*
X51447548Y30285965D01*
X51508027Y30325249D01*
X51552870Y30352141D01*
X51574772Y30362112D01*
X51584182Y30357879D01*
G04 #@! TD*
M02*
