G04 #@! TF.GenerationSoftware,KiCad,Pcbnew,7.0.0-da2b9df05c~165~ubuntu22.04.1*
G04 #@! TF.CreationDate,2023-04-26T22:06:21+00:00*
G04 #@! TF.ProjectId,pcb-panel,7063622d-7061-46e6-956c-2e6b69636164,5.0*
G04 #@! TF.SameCoordinates,Original*
G04 #@! TF.FileFunction,Legend,Top*
G04 #@! TF.FilePolarity,Positive*
%FSLAX46Y46*%
G04 Gerber Fmt 4.6, Leading zero omitted, Abs format (unit mm)*
G04 Created by KiCad (PCBNEW 7.0.0-da2b9df05c~165~ubuntu22.04.1) date 2023-04-26 22:06:21*
%MOMM*%
%LPD*%
G01*
G04 APERTURE LIST*
%ADD10C,0.300000*%
%ADD11C,0.200000*%
G04 APERTURE END LIST*
D10*
X58314289Y134448934D02*
X58457146Y134448934D01*
X58457146Y134448934D02*
X58600003Y134377505D01*
X58600003Y134377505D02*
X58671432Y134306077D01*
X58671432Y134306077D02*
X58742860Y134163220D01*
X58742860Y134163220D02*
X58814289Y133877505D01*
X58814289Y133877505D02*
X58814289Y133520363D01*
X58814289Y133520363D02*
X58742860Y133234648D01*
X58742860Y133234648D02*
X58671432Y133091791D01*
X58671432Y133091791D02*
X58600003Y133020363D01*
X58600003Y133020363D02*
X58457146Y132948934D01*
X58457146Y132948934D02*
X58314289Y132948934D01*
X58314289Y132948934D02*
X58171432Y133020363D01*
X58171432Y133020363D02*
X58100003Y133091791D01*
X58100003Y133091791D02*
X58028574Y133234648D01*
X58028574Y133234648D02*
X57957146Y133520363D01*
X57957146Y133520363D02*
X57957146Y133877505D01*
X57957146Y133877505D02*
X58028574Y134163220D01*
X58028574Y134163220D02*
X58100003Y134306077D01*
X58100003Y134306077D02*
X58171432Y134377505D01*
X58171432Y134377505D02*
X58314289Y134448934D01*
X59314288Y132948934D02*
X60100003Y133948934D01*
X59314288Y133948934D02*
X60100003Y132948934D01*
X61528574Y133091791D02*
X61457146Y133020363D01*
X61457146Y133020363D02*
X61242860Y132948934D01*
X61242860Y132948934D02*
X61100003Y132948934D01*
X61100003Y132948934D02*
X60885717Y133020363D01*
X60885717Y133020363D02*
X60742860Y133163220D01*
X60742860Y133163220D02*
X60671431Y133306077D01*
X60671431Y133306077D02*
X60600003Y133591791D01*
X60600003Y133591791D02*
X60600003Y133806077D01*
X60600003Y133806077D02*
X60671431Y134091791D01*
X60671431Y134091791D02*
X60742860Y134234648D01*
X60742860Y134234648D02*
X60885717Y134377505D01*
X60885717Y134377505D02*
X61100003Y134448934D01*
X61100003Y134448934D02*
X61242860Y134448934D01*
X61242860Y134448934D02*
X61457146Y134377505D01*
X61457146Y134377505D02*
X61528574Y134306077D01*
X62671431Y133734648D02*
X62885717Y133663220D01*
X62885717Y133663220D02*
X62957146Y133591791D01*
X62957146Y133591791D02*
X63028574Y133448934D01*
X63028574Y133448934D02*
X63028574Y133234648D01*
X63028574Y133234648D02*
X62957146Y133091791D01*
X62957146Y133091791D02*
X62885717Y133020363D01*
X62885717Y133020363D02*
X62742860Y132948934D01*
X62742860Y132948934D02*
X62171431Y132948934D01*
X62171431Y132948934D02*
X62171431Y134448934D01*
X62171431Y134448934D02*
X62671431Y134448934D01*
X62671431Y134448934D02*
X62814289Y134377505D01*
X62814289Y134377505D02*
X62885717Y134306077D01*
X62885717Y134306077D02*
X62957146Y134163220D01*
X62957146Y134163220D02*
X62957146Y134020363D01*
X62957146Y134020363D02*
X62885717Y133877505D01*
X62885717Y133877505D02*
X62814289Y133806077D01*
X62814289Y133806077D02*
X62671431Y133734648D01*
X62671431Y133734648D02*
X62171431Y133734648D01*
X65357146Y132948934D02*
X64500003Y132948934D01*
X64928574Y132948934D02*
X64928574Y134448934D01*
X64928574Y134448934D02*
X64785717Y134234648D01*
X64785717Y134234648D02*
X64642860Y134091791D01*
X64642860Y134091791D02*
X64500003Y134020363D01*
X65857145Y134448934D02*
X66785717Y134448934D01*
X66785717Y134448934D02*
X66285717Y133877505D01*
X66285717Y133877505D02*
X66500002Y133877505D01*
X66500002Y133877505D02*
X66642860Y133806077D01*
X66642860Y133806077D02*
X66714288Y133734648D01*
X66714288Y133734648D02*
X66785717Y133591791D01*
X66785717Y133591791D02*
X66785717Y133234648D01*
X66785717Y133234648D02*
X66714288Y133091791D01*
X66714288Y133091791D02*
X66642860Y133020363D01*
X66642860Y133020363D02*
X66500002Y132948934D01*
X66500002Y132948934D02*
X66071431Y132948934D01*
X66071431Y132948934D02*
X65928574Y133020363D01*
X65928574Y133020363D02*
X65857145Y133091791D01*
X67285716Y134448934D02*
X68214288Y134448934D01*
X68214288Y134448934D02*
X67714288Y133877505D01*
X67714288Y133877505D02*
X67928573Y133877505D01*
X67928573Y133877505D02*
X68071431Y133806077D01*
X68071431Y133806077D02*
X68142859Y133734648D01*
X68142859Y133734648D02*
X68214288Y133591791D01*
X68214288Y133591791D02*
X68214288Y133234648D01*
X68214288Y133234648D02*
X68142859Y133091791D01*
X68142859Y133091791D02*
X68071431Y133020363D01*
X68071431Y133020363D02*
X67928573Y132948934D01*
X67928573Y132948934D02*
X67500002Y132948934D01*
X67500002Y132948934D02*
X67357145Y133020363D01*
X67357145Y133020363D02*
X67285716Y133091791D01*
X68714287Y134448934D02*
X69714287Y134448934D01*
X69714287Y134448934D02*
X69071430Y132948934D01*
X72042858Y132948934D02*
X71542858Y133663220D01*
X71185715Y132948934D02*
X71185715Y134448934D01*
X71185715Y134448934D02*
X71757144Y134448934D01*
X71757144Y134448934D02*
X71900001Y134377505D01*
X71900001Y134377505D02*
X71971430Y134306077D01*
X71971430Y134306077D02*
X72042858Y134163220D01*
X72042858Y134163220D02*
X72042858Y133948934D01*
X72042858Y133948934D02*
X71971430Y133806077D01*
X71971430Y133806077D02*
X71900001Y133734648D01*
X71900001Y133734648D02*
X71757144Y133663220D01*
X71757144Y133663220D02*
X71185715Y133663220D01*
X73257144Y133020363D02*
X73114287Y132948934D01*
X73114287Y132948934D02*
X72828573Y132948934D01*
X72828573Y132948934D02*
X72685715Y133020363D01*
X72685715Y133020363D02*
X72614287Y133163220D01*
X72614287Y133163220D02*
X72614287Y133734648D01*
X72614287Y133734648D02*
X72685715Y133877505D01*
X72685715Y133877505D02*
X72828573Y133948934D01*
X72828573Y133948934D02*
X73114287Y133948934D01*
X73114287Y133948934D02*
X73257144Y133877505D01*
X73257144Y133877505D02*
X73328573Y133734648D01*
X73328573Y133734648D02*
X73328573Y133591791D01*
X73328573Y133591791D02*
X72614287Y133448934D01*
X73828572Y133948934D02*
X74185715Y132948934D01*
X74185715Y132948934D02*
X74542858Y133948934D01*
X75828572Y134448934D02*
X75114286Y134448934D01*
X75114286Y134448934D02*
X75042858Y133734648D01*
X75042858Y133734648D02*
X75114286Y133806077D01*
X75114286Y133806077D02*
X75257144Y133877505D01*
X75257144Y133877505D02*
X75614286Y133877505D01*
X75614286Y133877505D02*
X75757144Y133806077D01*
X75757144Y133806077D02*
X75828572Y133734648D01*
X75828572Y133734648D02*
X75900001Y133591791D01*
X75900001Y133591791D02*
X75900001Y133234648D01*
X75900001Y133234648D02*
X75828572Y133091791D01*
X75828572Y133091791D02*
X75757144Y133020363D01*
X75757144Y133020363D02*
X75614286Y132948934D01*
X75614286Y132948934D02*
X75257144Y132948934D01*
X75257144Y132948934D02*
X75114286Y133020363D01*
X75114286Y133020363D02*
X75042858Y133091791D01*
X76542857Y133091791D02*
X76614286Y133020363D01*
X76614286Y133020363D02*
X76542857Y132948934D01*
X76542857Y132948934D02*
X76471429Y133020363D01*
X76471429Y133020363D02*
X76542857Y133091791D01*
X76542857Y133091791D02*
X76542857Y132948934D01*
X77542858Y134448934D02*
X77685715Y134448934D01*
X77685715Y134448934D02*
X77828572Y134377505D01*
X77828572Y134377505D02*
X77900001Y134306077D01*
X77900001Y134306077D02*
X77971429Y134163220D01*
X77971429Y134163220D02*
X78042858Y133877505D01*
X78042858Y133877505D02*
X78042858Y133520363D01*
X78042858Y133520363D02*
X77971429Y133234648D01*
X77971429Y133234648D02*
X77900001Y133091791D01*
X77900001Y133091791D02*
X77828572Y133020363D01*
X77828572Y133020363D02*
X77685715Y132948934D01*
X77685715Y132948934D02*
X77542858Y132948934D01*
X77542858Y132948934D02*
X77400001Y133020363D01*
X77400001Y133020363D02*
X77328572Y133091791D01*
X77328572Y133091791D02*
X77257143Y133234648D01*
X77257143Y133234648D02*
X77185715Y133520363D01*
X77185715Y133520363D02*
X77185715Y133877505D01*
X77185715Y133877505D02*
X77257143Y134163220D01*
X77257143Y134163220D02*
X77328572Y134306077D01*
X77328572Y134306077D02*
X77400001Y134377505D01*
X77400001Y134377505D02*
X77542858Y134448934D01*
D11*
G04 #@! TO.C,G\u002A\u002A\u002A*
X115477227Y61084229D02*
G75*
G03*
X115477227Y61084229I-3850000J0D01*
G01*
X28222777Y74915776D02*
G75*
G03*
X28222777Y74915776I-3850000J0D01*
G01*
X90222777Y74915776D02*
G75*
G03*
X90222777Y74915776I-3850000J0D01*
G01*
X53477227Y61084229D02*
G75*
G03*
X53477227Y61084229I-3850000J0D01*
G01*
G04 #@! TD*
M02*
