G04 #@! TF.GenerationSoftware,KiCad,Pcbnew,7.0.0-da2b9df05c~165~ubuntu22.04.1*
G04 #@! TF.CreationDate,2023-04-27T22:34:57+00:00*
G04 #@! TF.ProjectId,pcb-panel,7063622d-7061-46e6-956c-2e6b69636164,5.0*
G04 #@! TF.SameCoordinates,Original*
G04 #@! TF.FileFunction,Legend,Bot*
G04 #@! TF.FilePolarity,Positive*
%FSLAX46Y46*%
G04 Gerber Fmt 4.6, Leading zero omitted, Abs format (unit mm)*
G04 Created by KiCad (PCBNEW 7.0.0-da2b9df05c~165~ubuntu22.04.1) date 2023-04-27 22:34:57*
%MOMM*%
%LPD*%
G01*
G04 APERTURE LIST*
%ADD10C,0.120000*%
%ADD11C,0.160000*%
%ADD12C,0.200000*%
%ADD13C,0.010000*%
G04 APERTURE END LIST*
D10*
X40645634Y111995205D02*
X40455158Y111461872D01*
X40455158Y111461872D02*
X40264681Y111995205D01*
X39578967Y112261872D02*
X39959919Y112261872D01*
X39959919Y112261872D02*
X39998015Y111880919D01*
X39998015Y111880919D02*
X39959919Y111919015D01*
X39959919Y111919015D02*
X39883729Y111957110D01*
X39883729Y111957110D02*
X39693253Y111957110D01*
X39693253Y111957110D02*
X39617062Y111919015D01*
X39617062Y111919015D02*
X39578967Y111880919D01*
X39578967Y111880919D02*
X39540872Y111804729D01*
X39540872Y111804729D02*
X39540872Y111614253D01*
X39540872Y111614253D02*
X39578967Y111538062D01*
X39578967Y111538062D02*
X39617062Y111499967D01*
X39617062Y111499967D02*
X39693253Y111461872D01*
X39693253Y111461872D02*
X39883729Y111461872D01*
X39883729Y111461872D02*
X39959919Y111499967D01*
X39959919Y111499967D02*
X39998015Y111538062D01*
X39198014Y111538062D02*
X39159919Y111499967D01*
X39159919Y111499967D02*
X39198014Y111461872D01*
X39198014Y111461872D02*
X39236110Y111499967D01*
X39236110Y111499967D02*
X39198014Y111538062D01*
X39198014Y111538062D02*
X39198014Y111461872D01*
X38664681Y112261872D02*
X38588491Y112261872D01*
X38588491Y112261872D02*
X38512300Y112223776D01*
X38512300Y112223776D02*
X38474205Y112185681D01*
X38474205Y112185681D02*
X38436110Y112109491D01*
X38436110Y112109491D02*
X38398015Y111957110D01*
X38398015Y111957110D02*
X38398015Y111766634D01*
X38398015Y111766634D02*
X38436110Y111614253D01*
X38436110Y111614253D02*
X38474205Y111538062D01*
X38474205Y111538062D02*
X38512300Y111499967D01*
X38512300Y111499967D02*
X38588491Y111461872D01*
X38588491Y111461872D02*
X38664681Y111461872D01*
X38664681Y111461872D02*
X38740872Y111499967D01*
X38740872Y111499967D02*
X38778967Y111538062D01*
X38778967Y111538062D02*
X38817062Y111614253D01*
X38817062Y111614253D02*
X38855158Y111766634D01*
X38855158Y111766634D02*
X38855158Y111957110D01*
X38855158Y111957110D02*
X38817062Y112109491D01*
X38817062Y112109491D02*
X38778967Y112185681D01*
X38778967Y112185681D02*
X38740872Y112223776D01*
X38740872Y112223776D02*
X38664681Y112261872D01*
X103645634Y111995205D02*
X103455158Y111461872D01*
X103455158Y111461872D02*
X103264681Y111995205D01*
X102578967Y112261872D02*
X102959919Y112261872D01*
X102959919Y112261872D02*
X102998015Y111880919D01*
X102998015Y111880919D02*
X102959919Y111919015D01*
X102959919Y111919015D02*
X102883729Y111957110D01*
X102883729Y111957110D02*
X102693253Y111957110D01*
X102693253Y111957110D02*
X102617062Y111919015D01*
X102617062Y111919015D02*
X102578967Y111880919D01*
X102578967Y111880919D02*
X102540872Y111804729D01*
X102540872Y111804729D02*
X102540872Y111614253D01*
X102540872Y111614253D02*
X102578967Y111538062D01*
X102578967Y111538062D02*
X102617062Y111499967D01*
X102617062Y111499967D02*
X102693253Y111461872D01*
X102693253Y111461872D02*
X102883729Y111461872D01*
X102883729Y111461872D02*
X102959919Y111499967D01*
X102959919Y111499967D02*
X102998015Y111538062D01*
X102198014Y111538062D02*
X102159919Y111499967D01*
X102159919Y111499967D02*
X102198014Y111461872D01*
X102198014Y111461872D02*
X102236110Y111499967D01*
X102236110Y111499967D02*
X102198014Y111538062D01*
X102198014Y111538062D02*
X102198014Y111461872D01*
X101664681Y112261872D02*
X101588491Y112261872D01*
X101588491Y112261872D02*
X101512300Y112223776D01*
X101512300Y112223776D02*
X101474205Y112185681D01*
X101474205Y112185681D02*
X101436110Y112109491D01*
X101436110Y112109491D02*
X101398015Y111957110D01*
X101398015Y111957110D02*
X101398015Y111766634D01*
X101398015Y111766634D02*
X101436110Y111614253D01*
X101436110Y111614253D02*
X101474205Y111538062D01*
X101474205Y111538062D02*
X101512300Y111499967D01*
X101512300Y111499967D02*
X101588491Y111461872D01*
X101588491Y111461872D02*
X101664681Y111461872D01*
X101664681Y111461872D02*
X101740872Y111499967D01*
X101740872Y111499967D02*
X101778967Y111538062D01*
X101778967Y111538062D02*
X101817062Y111614253D01*
X101817062Y111614253D02*
X101855158Y111766634D01*
X101855158Y111766634D02*
X101855158Y111957110D01*
X101855158Y111957110D02*
X101817062Y112109491D01*
X101817062Y112109491D02*
X101778967Y112185681D01*
X101778967Y112185681D02*
X101740872Y112223776D01*
X101740872Y112223776D02*
X101664681Y112261872D01*
X33354369Y29004801D02*
X33544845Y29538134D01*
X33544845Y29538134D02*
X33735322Y29004801D01*
X34421036Y28738134D02*
X34040084Y28738134D01*
X34040084Y28738134D02*
X34001988Y29119087D01*
X34001988Y29119087D02*
X34040084Y29080991D01*
X34040084Y29080991D02*
X34116274Y29042896D01*
X34116274Y29042896D02*
X34306750Y29042896D01*
X34306750Y29042896D02*
X34382941Y29080991D01*
X34382941Y29080991D02*
X34421036Y29119087D01*
X34421036Y29119087D02*
X34459131Y29195277D01*
X34459131Y29195277D02*
X34459131Y29385753D01*
X34459131Y29385753D02*
X34421036Y29461944D01*
X34421036Y29461944D02*
X34382941Y29500039D01*
X34382941Y29500039D02*
X34306750Y29538134D01*
X34306750Y29538134D02*
X34116274Y29538134D01*
X34116274Y29538134D02*
X34040084Y29500039D01*
X34040084Y29500039D02*
X34001988Y29461944D01*
X34801989Y29461944D02*
X34840084Y29500039D01*
X34840084Y29500039D02*
X34801989Y29538134D01*
X34801989Y29538134D02*
X34763893Y29500039D01*
X34763893Y29500039D02*
X34801989Y29461944D01*
X34801989Y29461944D02*
X34801989Y29538134D01*
X35335322Y28738134D02*
X35411512Y28738134D01*
X35411512Y28738134D02*
X35487703Y28776229D01*
X35487703Y28776229D02*
X35525798Y28814325D01*
X35525798Y28814325D02*
X35563893Y28890515D01*
X35563893Y28890515D02*
X35601988Y29042896D01*
X35601988Y29042896D02*
X35601988Y29233372D01*
X35601988Y29233372D02*
X35563893Y29385753D01*
X35563893Y29385753D02*
X35525798Y29461944D01*
X35525798Y29461944D02*
X35487703Y29500039D01*
X35487703Y29500039D02*
X35411512Y29538134D01*
X35411512Y29538134D02*
X35335322Y29538134D01*
X35335322Y29538134D02*
X35259131Y29500039D01*
X35259131Y29500039D02*
X35221036Y29461944D01*
X35221036Y29461944D02*
X35182941Y29385753D01*
X35182941Y29385753D02*
X35144845Y29233372D01*
X35144845Y29233372D02*
X35144845Y29042896D01*
X35144845Y29042896D02*
X35182941Y28890515D01*
X35182941Y28890515D02*
X35221036Y28814325D01*
X35221036Y28814325D02*
X35259131Y28776229D01*
X35259131Y28776229D02*
X35335322Y28738134D01*
X96354369Y29004801D02*
X96544845Y29538134D01*
X96544845Y29538134D02*
X96735322Y29004801D01*
X97421036Y28738134D02*
X97040084Y28738134D01*
X97040084Y28738134D02*
X97001988Y29119087D01*
X97001988Y29119087D02*
X97040084Y29080991D01*
X97040084Y29080991D02*
X97116274Y29042896D01*
X97116274Y29042896D02*
X97306750Y29042896D01*
X97306750Y29042896D02*
X97382941Y29080991D01*
X97382941Y29080991D02*
X97421036Y29119087D01*
X97421036Y29119087D02*
X97459131Y29195277D01*
X97459131Y29195277D02*
X97459131Y29385753D01*
X97459131Y29385753D02*
X97421036Y29461944D01*
X97421036Y29461944D02*
X97382941Y29500039D01*
X97382941Y29500039D02*
X97306750Y29538134D01*
X97306750Y29538134D02*
X97116274Y29538134D01*
X97116274Y29538134D02*
X97040084Y29500039D01*
X97040084Y29500039D02*
X97001988Y29461944D01*
X97801989Y29461944D02*
X97840084Y29500039D01*
X97840084Y29500039D02*
X97801989Y29538134D01*
X97801989Y29538134D02*
X97763893Y29500039D01*
X97763893Y29500039D02*
X97801989Y29461944D01*
X97801989Y29461944D02*
X97801989Y29538134D01*
X98335322Y28738134D02*
X98411512Y28738134D01*
X98411512Y28738134D02*
X98487703Y28776229D01*
X98487703Y28776229D02*
X98525798Y28814325D01*
X98525798Y28814325D02*
X98563893Y28890515D01*
X98563893Y28890515D02*
X98601988Y29042896D01*
X98601988Y29042896D02*
X98601988Y29233372D01*
X98601988Y29233372D02*
X98563893Y29385753D01*
X98563893Y29385753D02*
X98525798Y29461944D01*
X98525798Y29461944D02*
X98487703Y29500039D01*
X98487703Y29500039D02*
X98411512Y29538134D01*
X98411512Y29538134D02*
X98335322Y29538134D01*
X98335322Y29538134D02*
X98259131Y29500039D01*
X98259131Y29500039D02*
X98221036Y29461944D01*
X98221036Y29461944D02*
X98182941Y29385753D01*
X98182941Y29385753D02*
X98144845Y29233372D01*
X98144845Y29233372D02*
X98144845Y29042896D01*
X98144845Y29042896D02*
X98182941Y28890515D01*
X98182941Y28890515D02*
X98221036Y28814325D01*
X98221036Y28814325D02*
X98259131Y28776229D01*
X98259131Y28776229D02*
X98335322Y28738134D01*
D11*
X32746110Y112251872D02*
X32288967Y112251872D01*
X32417539Y111451872D02*
X32517539Y112251872D01*
X31708015Y111870919D02*
X31588967Y111832824D01*
X31588967Y111832824D02*
X31546110Y111794729D01*
X31546110Y111794729D02*
X31498491Y111718538D01*
X31498491Y111718538D02*
X31484205Y111604253D01*
X31484205Y111604253D02*
X31512776Y111528062D01*
X31512776Y111528062D02*
X31546110Y111489967D01*
X31546110Y111489967D02*
X31617538Y111451872D01*
X31617538Y111451872D02*
X31922300Y111451872D01*
X31922300Y111451872D02*
X32022300Y112251872D01*
X32022300Y112251872D02*
X31755634Y112251872D01*
X31755634Y112251872D02*
X31674681Y112213776D01*
X31674681Y112213776D02*
X31631824Y112175681D01*
X31631824Y112175681D02*
X31584205Y112099491D01*
X31584205Y112099491D02*
X31574681Y112023300D01*
X31574681Y112023300D02*
X31603253Y111947110D01*
X31603253Y111947110D02*
X31636586Y111909015D01*
X31636586Y111909015D02*
X31708015Y111870919D01*
X31708015Y111870919D02*
X31974681Y111870919D01*
X31122300Y111451872D02*
X31222300Y112251872D01*
X31222300Y112251872D02*
X31031824Y112251872D01*
X31031824Y112251872D02*
X30912776Y112213776D01*
X30912776Y112213776D02*
X30827062Y112137586D01*
X30827062Y112137586D02*
X30779443Y112061396D01*
X30779443Y112061396D02*
X30722300Y111909015D01*
X30722300Y111909015D02*
X30708015Y111794729D01*
X30708015Y111794729D02*
X30727062Y111642348D01*
X30727062Y111642348D02*
X30755634Y111566157D01*
X30755634Y111566157D02*
X30822300Y111489967D01*
X30822300Y111489967D02*
X30931824Y111451872D01*
X30931824Y111451872D02*
X31122300Y111451872D01*
X95746110Y112251872D02*
X95288967Y112251872D01*
X95417539Y111451872D02*
X95517539Y112251872D01*
X94708015Y111870919D02*
X94588967Y111832824D01*
X94588967Y111832824D02*
X94546110Y111794729D01*
X94546110Y111794729D02*
X94498491Y111718538D01*
X94498491Y111718538D02*
X94484205Y111604253D01*
X94484205Y111604253D02*
X94512776Y111528062D01*
X94512776Y111528062D02*
X94546110Y111489967D01*
X94546110Y111489967D02*
X94617538Y111451872D01*
X94617538Y111451872D02*
X94922300Y111451872D01*
X94922300Y111451872D02*
X95022300Y112251872D01*
X95022300Y112251872D02*
X94755634Y112251872D01*
X94755634Y112251872D02*
X94674681Y112213776D01*
X94674681Y112213776D02*
X94631824Y112175681D01*
X94631824Y112175681D02*
X94584205Y112099491D01*
X94584205Y112099491D02*
X94574681Y112023300D01*
X94574681Y112023300D02*
X94603253Y111947110D01*
X94603253Y111947110D02*
X94636586Y111909015D01*
X94636586Y111909015D02*
X94708015Y111870919D01*
X94708015Y111870919D02*
X94974681Y111870919D01*
X94122300Y111451872D02*
X94222300Y112251872D01*
X94222300Y112251872D02*
X94031824Y112251872D01*
X94031824Y112251872D02*
X93912776Y112213776D01*
X93912776Y112213776D02*
X93827062Y112137586D01*
X93827062Y112137586D02*
X93779443Y112061396D01*
X93779443Y112061396D02*
X93722300Y111909015D01*
X93722300Y111909015D02*
X93708015Y111794729D01*
X93708015Y111794729D02*
X93727062Y111642348D01*
X93727062Y111642348D02*
X93755634Y111566157D01*
X93755634Y111566157D02*
X93822300Y111489967D01*
X93822300Y111489967D02*
X93931824Y111451872D01*
X93931824Y111451872D02*
X94122300Y111451872D01*
X41253893Y28748134D02*
X41711036Y28748134D01*
X41582465Y29548134D02*
X41482465Y28748134D01*
X42291989Y29129087D02*
X42411036Y29167182D01*
X42411036Y29167182D02*
X42453893Y29205277D01*
X42453893Y29205277D02*
X42501512Y29281468D01*
X42501512Y29281468D02*
X42515798Y29395753D01*
X42515798Y29395753D02*
X42487227Y29471944D01*
X42487227Y29471944D02*
X42453893Y29510039D01*
X42453893Y29510039D02*
X42382465Y29548134D01*
X42382465Y29548134D02*
X42077703Y29548134D01*
X42077703Y29548134D02*
X41977703Y28748134D01*
X41977703Y28748134D02*
X42244369Y28748134D01*
X42244369Y28748134D02*
X42325322Y28786229D01*
X42325322Y28786229D02*
X42368179Y28824325D01*
X42368179Y28824325D02*
X42415798Y28900515D01*
X42415798Y28900515D02*
X42425322Y28976706D01*
X42425322Y28976706D02*
X42396750Y29052896D01*
X42396750Y29052896D02*
X42363417Y29090991D01*
X42363417Y29090991D02*
X42291989Y29129087D01*
X42291989Y29129087D02*
X42025322Y29129087D01*
X42877703Y29548134D02*
X42777703Y28748134D01*
X42777703Y28748134D02*
X42968179Y28748134D01*
X42968179Y28748134D02*
X43087227Y28786229D01*
X43087227Y28786229D02*
X43172941Y28862420D01*
X43172941Y28862420D02*
X43220560Y28938610D01*
X43220560Y28938610D02*
X43277703Y29090991D01*
X43277703Y29090991D02*
X43291989Y29205277D01*
X43291989Y29205277D02*
X43272941Y29357658D01*
X43272941Y29357658D02*
X43244369Y29433849D01*
X43244369Y29433849D02*
X43177703Y29510039D01*
X43177703Y29510039D02*
X43068179Y29548134D01*
X43068179Y29548134D02*
X42877703Y29548134D01*
X104253893Y28748134D02*
X104711036Y28748134D01*
X104582465Y29548134D02*
X104482465Y28748134D01*
X105291989Y29129087D02*
X105411036Y29167182D01*
X105411036Y29167182D02*
X105453893Y29205277D01*
X105453893Y29205277D02*
X105501512Y29281468D01*
X105501512Y29281468D02*
X105515798Y29395753D01*
X105515798Y29395753D02*
X105487227Y29471944D01*
X105487227Y29471944D02*
X105453893Y29510039D01*
X105453893Y29510039D02*
X105382465Y29548134D01*
X105382465Y29548134D02*
X105077703Y29548134D01*
X105077703Y29548134D02*
X104977703Y28748134D01*
X104977703Y28748134D02*
X105244369Y28748134D01*
X105244369Y28748134D02*
X105325322Y28786229D01*
X105325322Y28786229D02*
X105368179Y28824325D01*
X105368179Y28824325D02*
X105415798Y28900515D01*
X105415798Y28900515D02*
X105425322Y28976706D01*
X105425322Y28976706D02*
X105396750Y29052896D01*
X105396750Y29052896D02*
X105363417Y29090991D01*
X105363417Y29090991D02*
X105291989Y29129087D01*
X105291989Y29129087D02*
X105025322Y29129087D01*
X105877703Y29548134D02*
X105777703Y28748134D01*
X105777703Y28748134D02*
X105968179Y28748134D01*
X105968179Y28748134D02*
X106087227Y28786229D01*
X106087227Y28786229D02*
X106172941Y28862420D01*
X106172941Y28862420D02*
X106220560Y28938610D01*
X106220560Y28938610D02*
X106277703Y29090991D01*
X106277703Y29090991D02*
X106291989Y29205277D01*
X106291989Y29205277D02*
X106272941Y29357658D01*
X106272941Y29357658D02*
X106244369Y29433849D01*
X106244369Y29433849D02*
X106177703Y29510039D01*
X106177703Y29510039D02*
X106068179Y29548134D01*
X106068179Y29548134D02*
X105877703Y29548134D01*
D12*
G04 #@! TO.C,G\u002A\u002A\u002A*
X28222777Y79915776D02*
G75*
G03*
X28222777Y79915776I-3850000J0D01*
G01*
X91222777Y79915776D02*
G75*
G03*
X91222777Y79915776I-3850000J0D01*
G01*
X53477227Y61084229D02*
G75*
G03*
X53477227Y61084229I-3850000J0D01*
G01*
X116477227Y61084229D02*
G75*
G03*
X116477227Y61084229I-3850000J0D01*
G01*
G36*
X34797178Y111884732D02*
G01*
X34855229Y111846682D01*
X34873996Y111780883D01*
X34840516Y111724379D01*
X34802663Y111707403D01*
X34744113Y111724080D01*
X34722777Y111808137D01*
X34733723Y111852585D01*
X34784033Y111885776D01*
X34797178Y111884732D01*
G37*
G36*
X33997178Y111884732D02*
G01*
X34055229Y111846682D01*
X34073996Y111780883D01*
X34040516Y111724379D01*
X34002663Y111707403D01*
X33944113Y111724080D01*
X33922777Y111808137D01*
X33933723Y111852585D01*
X33984033Y111885776D01*
X33997178Y111884732D01*
G37*
G36*
X33197178Y111884732D02*
G01*
X33255229Y111846682D01*
X33273996Y111780883D01*
X33240516Y111724379D01*
X33202663Y111707403D01*
X33144113Y111724080D01*
X33122777Y111808137D01*
X33133723Y111852585D01*
X33184033Y111885776D01*
X33197178Y111884732D01*
G37*
G36*
X31242777Y113085776D02*
G01*
X36684043Y113085776D01*
X36662777Y115305776D01*
X32042777Y115326426D01*
X32042777Y115565776D01*
X36922777Y115565776D01*
X36922777Y114212443D01*
X36922348Y113971413D01*
X36920511Y113668191D01*
X36917396Y113397705D01*
X36913189Y113169410D01*
X36908073Y112992757D01*
X36902233Y112877198D01*
X36895853Y112832185D01*
X36858523Y112828250D01*
X36746937Y112824444D01*
X36567543Y112821152D01*
X36326683Y112818410D01*
X36030698Y112816255D01*
X35685929Y112814721D01*
X35298719Y112813844D01*
X34875409Y112813661D01*
X34422339Y112814207D01*
X33945853Y112815519D01*
X31022777Y112825776D01*
X31001727Y115565776D01*
X31242777Y115565776D01*
X31242777Y113085776D01*
G37*
G36*
X35882777Y111285776D02*
G01*
X35582777Y111285776D01*
X35467615Y111287151D01*
X35355282Y111295551D01*
X35298493Y111314128D01*
X35282777Y111345776D01*
X35301799Y111381488D01*
X35370104Y111400390D01*
X35502777Y111405776D01*
X35722777Y111405776D01*
X35722777Y111765776D01*
X35499444Y111765776D01*
X35367337Y111774500D01*
X35294757Y111798729D01*
X35296181Y111829839D01*
X35370330Y111859122D01*
X35515922Y111877867D01*
X35631523Y111886506D01*
X35695726Y111904867D01*
X35719391Y111947090D01*
X35722777Y112027867D01*
X35722777Y112165776D01*
X35502777Y112165776D01*
X35371834Y112170964D01*
X35302529Y112189593D01*
X35282777Y112225776D01*
X35289651Y112248809D01*
X35331649Y112271276D01*
X35424536Y112282633D01*
X35582777Y112285776D01*
X35882777Y112285776D01*
X35882777Y111285776D01*
G37*
G36*
X32506795Y112271641D02*
G01*
X32605984Y112233127D01*
X32642777Y112176448D01*
X32621519Y112136006D01*
X32542777Y112135567D01*
X32442777Y112154683D01*
X32442777Y111780230D01*
X32442795Y111724855D01*
X32444251Y111569732D01*
X32450945Y111475359D01*
X32466911Y111426638D01*
X32496177Y111408476D01*
X32542777Y111405776D01*
X32608005Y111394033D01*
X32642777Y111345776D01*
X32638695Y111326992D01*
X32601974Y111301993D01*
X32514906Y111289305D01*
X32362777Y111285776D01*
X32275118Y111286651D01*
X32158453Y111294520D01*
X32099244Y111313177D01*
X32082777Y111345776D01*
X32102350Y111384913D01*
X32182777Y111405776D01*
X32282777Y111405776D01*
X32282777Y111845776D01*
X32282959Y111971589D01*
X32285272Y112121784D01*
X32292565Y112214349D01*
X32307682Y112263182D01*
X32333471Y112282177D01*
X32372777Y112285230D01*
X32506795Y112271641D01*
G37*
G36*
X30906795Y112271641D02*
G01*
X31005984Y112233127D01*
X31042777Y112176448D01*
X31021519Y112136006D01*
X30942777Y112135567D01*
X30842777Y112154683D01*
X30842777Y111780230D01*
X30842795Y111724855D01*
X30844251Y111569732D01*
X30850945Y111475359D01*
X30866911Y111426638D01*
X30896177Y111408476D01*
X30942777Y111405776D01*
X31008005Y111394033D01*
X31042777Y111345776D01*
X31038695Y111326992D01*
X31001974Y111301993D01*
X30914906Y111289305D01*
X30762777Y111285776D01*
X30675118Y111286651D01*
X30558453Y111294520D01*
X30499244Y111313177D01*
X30482777Y111345776D01*
X30502350Y111384913D01*
X30582777Y111405776D01*
X30682777Y111405776D01*
X30682777Y111845776D01*
X30682959Y111971589D01*
X30685272Y112121784D01*
X30692565Y112214349D01*
X30707682Y112263182D01*
X30733471Y112282177D01*
X30772777Y112285230D01*
X30906795Y112271641D01*
G37*
G36*
X35102777Y111785776D02*
G01*
X35099946Y111636552D01*
X35086796Y111528746D01*
X35057389Y111454305D01*
X35005805Y111388999D01*
X34955460Y111343853D01*
X34818435Y111288223D01*
X34664570Y111310624D01*
X34634193Y111326605D01*
X34557656Y111418581D01*
X34508077Y111558679D01*
X34485458Y111726327D01*
X34486936Y111785776D01*
X34627777Y111785776D01*
X34631284Y111682451D01*
X34649595Y111547516D01*
X34680175Y111468912D01*
X34756169Y111415616D01*
X34849140Y111417305D01*
X34921370Y111483147D01*
X34937188Y111529883D01*
X34955603Y111646024D01*
X34962777Y111785776D01*
X34961597Y111850819D01*
X34939205Y112027244D01*
X34887727Y112131505D01*
X34806268Y112165776D01*
X34754911Y112158256D01*
X34682328Y112099586D01*
X34640927Y111977505D01*
X34627777Y111785776D01*
X34486936Y111785776D01*
X34489798Y111900950D01*
X34521096Y112061974D01*
X34579353Y112188825D01*
X34664570Y112260929D01*
X34729431Y112279615D01*
X34876899Y112269902D01*
X35005805Y112182554D01*
X35054104Y112122572D01*
X35085092Y112049777D01*
X35099343Y111945588D01*
X35102777Y111785776D01*
G37*
G36*
X34302777Y111785776D02*
G01*
X34299946Y111636552D01*
X34286796Y111528746D01*
X34257389Y111454305D01*
X34205805Y111388999D01*
X34155460Y111343853D01*
X34018435Y111288223D01*
X33864570Y111310624D01*
X33834193Y111326605D01*
X33757656Y111418581D01*
X33708077Y111558679D01*
X33685458Y111726327D01*
X33686936Y111785776D01*
X33827777Y111785776D01*
X33831284Y111682451D01*
X33849595Y111547516D01*
X33880175Y111468912D01*
X33956169Y111415616D01*
X34049140Y111417305D01*
X34121370Y111483147D01*
X34137188Y111529883D01*
X34155603Y111646024D01*
X34162777Y111785776D01*
X34161597Y111850819D01*
X34139205Y112027244D01*
X34087727Y112131505D01*
X34006268Y112165776D01*
X33954911Y112158256D01*
X33882328Y112099586D01*
X33840927Y111977505D01*
X33827777Y111785776D01*
X33686936Y111785776D01*
X33689798Y111900950D01*
X33721096Y112061974D01*
X33779353Y112188825D01*
X33864570Y112260929D01*
X33929431Y112279615D01*
X34076899Y112269902D01*
X34205805Y112182554D01*
X34254104Y112122572D01*
X34285092Y112049777D01*
X34299343Y111945588D01*
X34302777Y111785776D01*
G37*
G36*
X33502777Y111785776D02*
G01*
X33499946Y111636552D01*
X33486796Y111528746D01*
X33457389Y111454305D01*
X33405805Y111388999D01*
X33355460Y111343853D01*
X33218435Y111288223D01*
X33064570Y111310624D01*
X33034193Y111326605D01*
X32957656Y111418581D01*
X32908077Y111558679D01*
X32885458Y111726327D01*
X32886936Y111785776D01*
X33027777Y111785776D01*
X33031284Y111682451D01*
X33049595Y111547516D01*
X33080175Y111468912D01*
X33156169Y111415616D01*
X33249140Y111417305D01*
X33321370Y111483147D01*
X33337188Y111529883D01*
X33355603Y111646024D01*
X33362777Y111785776D01*
X33361597Y111850819D01*
X33339205Y112027244D01*
X33287727Y112131505D01*
X33206268Y112165776D01*
X33154911Y112158256D01*
X33082328Y112099586D01*
X33040927Y111977505D01*
X33027777Y111785776D01*
X32886936Y111785776D01*
X32889798Y111900950D01*
X32921096Y112061974D01*
X32979353Y112188825D01*
X33064570Y112260929D01*
X33129431Y112279615D01*
X33276899Y112269902D01*
X33405805Y112182554D01*
X33454104Y112122572D01*
X33485092Y112049777D01*
X33499343Y111945588D01*
X33502777Y111785776D01*
G37*
G36*
X31760283Y112274637D02*
G01*
X31848331Y112230544D01*
X31882777Y112160090D01*
X31882399Y112143697D01*
X31864726Y112104279D01*
X31805407Y112124369D01*
X31798765Y112127848D01*
X31664812Y112166746D01*
X31550555Y112145178D01*
X31475888Y112066630D01*
X31473805Y112061999D01*
X31454296Y111990137D01*
X31472878Y111917572D01*
X31536753Y111814470D01*
X31560781Y111781138D01*
X31669493Y111647100D01*
X31782784Y111525770D01*
X31827754Y111479407D01*
X31895933Y111394566D01*
X31922777Y111337930D01*
X31919328Y111325565D01*
X31875771Y111302305D01*
X31773799Y111289620D01*
X31602777Y111285776D01*
X31461041Y111287687D01*
X31352536Y111296515D01*
X31297850Y111314991D01*
X31282777Y111345776D01*
X31282833Y111348350D01*
X31304405Y111382903D01*
X31375304Y111400721D01*
X31510624Y111405776D01*
X31738471Y111405776D01*
X31617334Y111535776D01*
X31513329Y111654064D01*
X31380369Y111843341D01*
X31319340Y112000560D01*
X31329893Y112126892D01*
X31411678Y112223508D01*
X31515141Y112271391D01*
X31641573Y112289283D01*
X31760283Y112274637D01*
G37*
G36*
X36722777Y111785776D02*
G01*
X36722777Y111285776D01*
X36519701Y111285776D01*
X36515175Y111285781D01*
X36380645Y111294539D01*
X36287670Y111329060D01*
X36199701Y111402700D01*
X36139842Y111469178D01*
X36102583Y111540338D01*
X36086340Y111636769D01*
X36082836Y111783321D01*
X36223971Y111783321D01*
X36246772Y111608207D01*
X36314468Y111475776D01*
X36368125Y111434665D01*
X36468977Y111405776D01*
X36480325Y111405849D01*
X36519864Y111411683D01*
X36544183Y111437618D01*
X36556978Y111498629D01*
X36561944Y111609690D01*
X36562777Y111785776D01*
X36562766Y111819242D01*
X36561406Y111983869D01*
X36555269Y112085843D01*
X36540814Y112140095D01*
X36514497Y112161558D01*
X36472777Y112165164D01*
X36363113Y112146004D01*
X36289210Y112077229D01*
X36242395Y111944079D01*
X36223971Y111783321D01*
X36082836Y111783321D01*
X36082777Y111785776D01*
X36085685Y111924942D01*
X36100579Y112024648D01*
X36135806Y112096849D01*
X36199701Y112168853D01*
X36202311Y112171456D01*
X36289937Y112243871D01*
X36383550Y112277526D01*
X36519701Y112285776D01*
X36722777Y112285776D01*
X36722777Y111785776D01*
G37*
G36*
X33132777Y114878559D02*
G01*
X33147610Y114876111D01*
X33188830Y114858536D01*
X33213116Y114814125D01*
X33226388Y114725157D01*
X33234567Y114573914D01*
X33246357Y114282052D01*
X33742777Y114305776D01*
X33754581Y114598322D01*
X33757643Y114669377D01*
X33766340Y114791083D01*
X33781543Y114855692D01*
X33809032Y114879379D01*
X33854581Y114878322D01*
X33883661Y114872237D01*
X33908315Y114855081D01*
X33925498Y114815923D01*
X33936923Y114743165D01*
X33944307Y114625210D01*
X33949364Y114450458D01*
X33953809Y114207312D01*
X33955818Y114054117D01*
X33956620Y113846068D01*
X33954974Y113674181D01*
X33951063Y113553061D01*
X33945064Y113497312D01*
X33919380Y113468057D01*
X33844033Y113445776D01*
X33815857Y113448067D01*
X33787017Y113467370D01*
X33771054Y113519641D01*
X33764222Y113620553D01*
X33762777Y113785776D01*
X33762777Y114125776D01*
X33242777Y114125776D01*
X33242777Y113785776D01*
X33241885Y113622434D01*
X33236098Y113521388D01*
X33220756Y113468823D01*
X33191202Y113448898D01*
X33142777Y113445776D01*
X33042777Y113445776D01*
X33042777Y114891341D01*
X33132777Y114878559D01*
G37*
G36*
X36271541Y114099803D02*
G01*
X36271873Y114079214D01*
X36240735Y113863863D01*
X36180093Y113679341D01*
X36095173Y113549081D01*
X36041866Y113502497D01*
X35944532Y113458106D01*
X35807323Y113447049D01*
X35727108Y113451976D01*
X35568377Y113501137D01*
X35453496Y113607567D01*
X35377770Y113776928D01*
X35336506Y114014883D01*
X35330467Y114099856D01*
X35333213Y114174074D01*
X35541073Y114174074D01*
X35548814Y113985881D01*
X35573499Y113822988D01*
X35615128Y113711837D01*
X35652772Y113667859D01*
X35757829Y113611966D01*
X35871930Y113611146D01*
X35965467Y113669017D01*
X35965529Y113669092D01*
X36012846Y113769641D01*
X36042007Y113920370D01*
X36053624Y114099803D01*
X36048307Y114286463D01*
X36026667Y114458875D01*
X35989314Y114595563D01*
X35936860Y114675050D01*
X35831685Y114721572D01*
X35712297Y114706474D01*
X35615128Y114619716D01*
X35576427Y114520590D01*
X35550278Y114361124D01*
X35541073Y114174074D01*
X35333213Y114174074D01*
X35340309Y114365816D01*
X35395243Y114583753D01*
X35491904Y114747301D01*
X35626927Y114850097D01*
X35796946Y114885776D01*
X35818415Y114885380D01*
X35991133Y114844984D01*
X36122823Y114737555D01*
X36214347Y114562054D01*
X36266565Y114317438D01*
X36268278Y114301956D01*
X36271541Y114099803D01*
G37*
G36*
X34807720Y114859451D02*
G01*
X34956967Y114781649D01*
X35050434Y114653255D01*
X35082777Y114477306D01*
X35076204Y114393120D01*
X35024138Y114266145D01*
X34912208Y114172789D01*
X34730912Y114102938D01*
X34573221Y114044463D01*
X34444045Y113957802D01*
X34381749Y113859291D01*
X34390499Y113756194D01*
X34474462Y113655776D01*
X34545970Y113623289D01*
X34680751Y113607675D01*
X34831295Y113622426D01*
X34964764Y113666804D01*
X34976471Y113672847D01*
X35050376Y113705973D01*
X35078389Y113692792D01*
X35082777Y113625515D01*
X35068183Y113553396D01*
X34992777Y113487023D01*
X34941699Y113473134D01*
X34819147Y113456042D01*
X34675847Y113448312D01*
X34655675Y113448162D01*
X34515430Y113455770D01*
X34416721Y113486251D01*
X34325847Y113549332D01*
X34317694Y113556249D01*
X34243981Y113632920D01*
X34210611Y113717541D01*
X34202777Y113845776D01*
X34202783Y113850676D01*
X34211385Y113977781D01*
X34245899Y114061774D01*
X34320438Y114137670D01*
X34365681Y114169930D01*
X34498056Y114237079D01*
X34643472Y114285943D01*
X34693868Y114299491D01*
X34830709Y114363618D01*
X34895335Y114454059D01*
X34891811Y114575551D01*
X34882589Y114600756D01*
X34806871Y114676605D01*
X34681342Y114714668D01*
X34523984Y114711945D01*
X34352777Y114665438D01*
X34337683Y114659978D01*
X34294085Y114666603D01*
X34282777Y114736497D01*
X34284769Y114769508D01*
X34317507Y114829004D01*
X34407777Y114860776D01*
X34608040Y114883626D01*
X34807720Y114859451D01*
G37*
G36*
X31579802Y115913657D02*
G01*
X31624196Y115875776D01*
X31635241Y115832981D01*
X31660936Y115720687D01*
X31698433Y115550866D01*
X31745341Y115334472D01*
X31799268Y115082458D01*
X31857823Y114805776D01*
X31896481Y114623950D01*
X31962381Y114325146D01*
X32015136Y114103220D01*
X32055081Y113956878D01*
X32082554Y113884827D01*
X32097893Y113885776D01*
X32113327Y113949613D01*
X32143108Y114078760D01*
X32175940Y114225776D01*
X32199935Y114327212D01*
X32231895Y114417858D01*
X32271645Y114461767D01*
X32330872Y114477967D01*
X32355825Y114480291D01*
X32401316Y114473109D01*
X32433742Y114435081D01*
X32462739Y114350350D01*
X32497943Y114203060D01*
X32500685Y114190861D01*
X32532072Y114042617D01*
X32554324Y113922035D01*
X32562777Y113854203D01*
X32565142Y113825816D01*
X32580468Y113810134D01*
X32583231Y113818302D01*
X32595903Y113886694D01*
X32614845Y114009106D01*
X32637603Y114167400D01*
X32661724Y114343440D01*
X32684755Y114519088D01*
X32704243Y114676206D01*
X32717735Y114796657D01*
X32722777Y114862303D01*
X32729521Y114873465D01*
X32781797Y114885190D01*
X32851333Y114878768D01*
X32896254Y114855776D01*
X32897480Y114838719D01*
X32891071Y114755472D01*
X32875573Y114618268D01*
X32853259Y114443162D01*
X32826404Y114246212D01*
X32797283Y114043473D01*
X32768168Y113851004D01*
X32741336Y113684860D01*
X32719061Y113561099D01*
X32703616Y113495776D01*
X32684090Y113465895D01*
X32618977Y113444296D01*
X32547600Y113469814D01*
X32503363Y113535776D01*
X32500518Y113548008D01*
X32478502Y113642686D01*
X32445686Y113783839D01*
X32408042Y113945776D01*
X32333658Y114265776D01*
X32241606Y113855776D01*
X32236386Y113832577D01*
X32195066Y113656530D01*
X32162676Y113543626D01*
X32133000Y113480066D01*
X32099822Y113452049D01*
X32056928Y113445776D01*
X31991502Y113461083D01*
X31943290Y113535776D01*
X31940186Y113549142D01*
X31911437Y113676471D01*
X31871999Y113855317D01*
X31824385Y114073887D01*
X31771110Y114320393D01*
X31714688Y114583042D01*
X31657632Y114850045D01*
X31602457Y115109611D01*
X31551676Y115349949D01*
X31507804Y115559270D01*
X31473354Y115725781D01*
X31450841Y115837693D01*
X31442777Y115883214D01*
X31454285Y115907358D01*
X31510451Y115924705D01*
X31579802Y115913657D01*
G37*
G36*
X97797178Y111884732D02*
G01*
X97855229Y111846682D01*
X97873996Y111780883D01*
X97840516Y111724379D01*
X97802663Y111707403D01*
X97744113Y111724080D01*
X97722777Y111808137D01*
X97733723Y111852585D01*
X97784033Y111885776D01*
X97797178Y111884732D01*
G37*
G36*
X96997178Y111884732D02*
G01*
X97055229Y111846682D01*
X97073996Y111780883D01*
X97040516Y111724379D01*
X97002663Y111707403D01*
X96944113Y111724080D01*
X96922777Y111808137D01*
X96933723Y111852585D01*
X96984033Y111885776D01*
X96997178Y111884732D01*
G37*
G36*
X96197178Y111884732D02*
G01*
X96255229Y111846682D01*
X96273996Y111780883D01*
X96240516Y111724379D01*
X96202663Y111707403D01*
X96144113Y111724080D01*
X96122777Y111808137D01*
X96133723Y111852585D01*
X96184033Y111885776D01*
X96197178Y111884732D01*
G37*
G36*
X94242777Y113085776D02*
G01*
X99684043Y113085776D01*
X99662777Y115305776D01*
X95042777Y115326426D01*
X95042777Y115565776D01*
X99922777Y115565776D01*
X99922777Y114212443D01*
X99922348Y113971413D01*
X99920511Y113668191D01*
X99917396Y113397705D01*
X99913189Y113169410D01*
X99908073Y112992757D01*
X99902233Y112877198D01*
X99895853Y112832185D01*
X99858523Y112828250D01*
X99746937Y112824444D01*
X99567543Y112821152D01*
X99326683Y112818410D01*
X99030698Y112816255D01*
X98685929Y112814721D01*
X98298719Y112813844D01*
X97875409Y112813661D01*
X97422339Y112814207D01*
X96945853Y112815519D01*
X94022777Y112825776D01*
X94001727Y115565776D01*
X94242777Y115565776D01*
X94242777Y113085776D01*
G37*
G36*
X98882777Y111285776D02*
G01*
X98582777Y111285776D01*
X98467615Y111287151D01*
X98355282Y111295551D01*
X98298493Y111314128D01*
X98282777Y111345776D01*
X98301799Y111381488D01*
X98370104Y111400390D01*
X98502777Y111405776D01*
X98722777Y111405776D01*
X98722777Y111765776D01*
X98499444Y111765776D01*
X98367337Y111774500D01*
X98294757Y111798729D01*
X98296181Y111829839D01*
X98370330Y111859122D01*
X98515922Y111877867D01*
X98631523Y111886506D01*
X98695726Y111904867D01*
X98719391Y111947090D01*
X98722777Y112027867D01*
X98722777Y112165776D01*
X98502777Y112165776D01*
X98371834Y112170964D01*
X98302529Y112189593D01*
X98282777Y112225776D01*
X98289651Y112248809D01*
X98331649Y112271276D01*
X98424536Y112282633D01*
X98582777Y112285776D01*
X98882777Y112285776D01*
X98882777Y111285776D01*
G37*
G36*
X95506795Y112271641D02*
G01*
X95605984Y112233127D01*
X95642777Y112176448D01*
X95621519Y112136006D01*
X95542777Y112135567D01*
X95442777Y112154683D01*
X95442777Y111780230D01*
X95442795Y111724855D01*
X95444251Y111569732D01*
X95450945Y111475359D01*
X95466911Y111426638D01*
X95496177Y111408476D01*
X95542777Y111405776D01*
X95608005Y111394033D01*
X95642777Y111345776D01*
X95638695Y111326992D01*
X95601974Y111301993D01*
X95514906Y111289305D01*
X95362777Y111285776D01*
X95275118Y111286651D01*
X95158453Y111294520D01*
X95099244Y111313177D01*
X95082777Y111345776D01*
X95102350Y111384913D01*
X95182777Y111405776D01*
X95282777Y111405776D01*
X95282777Y111845776D01*
X95282959Y111971589D01*
X95285272Y112121784D01*
X95292565Y112214349D01*
X95307682Y112263182D01*
X95333471Y112282177D01*
X95372777Y112285230D01*
X95506795Y112271641D01*
G37*
G36*
X93906795Y112271641D02*
G01*
X94005984Y112233127D01*
X94042777Y112176448D01*
X94021519Y112136006D01*
X93942777Y112135567D01*
X93842777Y112154683D01*
X93842777Y111780230D01*
X93842795Y111724855D01*
X93844251Y111569732D01*
X93850945Y111475359D01*
X93866911Y111426638D01*
X93896177Y111408476D01*
X93942777Y111405776D01*
X94008005Y111394033D01*
X94042777Y111345776D01*
X94038695Y111326992D01*
X94001974Y111301993D01*
X93914906Y111289305D01*
X93762777Y111285776D01*
X93675118Y111286651D01*
X93558453Y111294520D01*
X93499244Y111313177D01*
X93482777Y111345776D01*
X93502350Y111384913D01*
X93582777Y111405776D01*
X93682777Y111405776D01*
X93682777Y111845776D01*
X93682959Y111971589D01*
X93685272Y112121784D01*
X93692565Y112214349D01*
X93707682Y112263182D01*
X93733471Y112282177D01*
X93772777Y112285230D01*
X93906795Y112271641D01*
G37*
G36*
X98102777Y111785776D02*
G01*
X98099946Y111636552D01*
X98086796Y111528746D01*
X98057389Y111454305D01*
X98005805Y111388999D01*
X97955460Y111343853D01*
X97818435Y111288223D01*
X97664570Y111310624D01*
X97634193Y111326605D01*
X97557656Y111418581D01*
X97508077Y111558679D01*
X97485458Y111726327D01*
X97486936Y111785776D01*
X97627777Y111785776D01*
X97631284Y111682451D01*
X97649595Y111547516D01*
X97680175Y111468912D01*
X97756169Y111415616D01*
X97849140Y111417305D01*
X97921370Y111483147D01*
X97937188Y111529883D01*
X97955603Y111646024D01*
X97962777Y111785776D01*
X97961597Y111850819D01*
X97939205Y112027244D01*
X97887727Y112131505D01*
X97806268Y112165776D01*
X97754911Y112158256D01*
X97682328Y112099586D01*
X97640927Y111977505D01*
X97627777Y111785776D01*
X97486936Y111785776D01*
X97489798Y111900950D01*
X97521096Y112061974D01*
X97579353Y112188825D01*
X97664570Y112260929D01*
X97729431Y112279615D01*
X97876899Y112269902D01*
X98005805Y112182554D01*
X98054104Y112122572D01*
X98085092Y112049777D01*
X98099343Y111945588D01*
X98102777Y111785776D01*
G37*
G36*
X97302777Y111785776D02*
G01*
X97299946Y111636552D01*
X97286796Y111528746D01*
X97257389Y111454305D01*
X97205805Y111388999D01*
X97155460Y111343853D01*
X97018435Y111288223D01*
X96864570Y111310624D01*
X96834193Y111326605D01*
X96757656Y111418581D01*
X96708077Y111558679D01*
X96685458Y111726327D01*
X96686936Y111785776D01*
X96827777Y111785776D01*
X96831284Y111682451D01*
X96849595Y111547516D01*
X96880175Y111468912D01*
X96956169Y111415616D01*
X97049140Y111417305D01*
X97121370Y111483147D01*
X97137188Y111529883D01*
X97155603Y111646024D01*
X97162777Y111785776D01*
X97161597Y111850819D01*
X97139205Y112027244D01*
X97087727Y112131505D01*
X97006268Y112165776D01*
X96954911Y112158256D01*
X96882328Y112099586D01*
X96840927Y111977505D01*
X96827777Y111785776D01*
X96686936Y111785776D01*
X96689798Y111900950D01*
X96721096Y112061974D01*
X96779353Y112188825D01*
X96864570Y112260929D01*
X96929431Y112279615D01*
X97076899Y112269902D01*
X97205805Y112182554D01*
X97254104Y112122572D01*
X97285092Y112049777D01*
X97299343Y111945588D01*
X97302777Y111785776D01*
G37*
G36*
X96502777Y111785776D02*
G01*
X96499946Y111636552D01*
X96486796Y111528746D01*
X96457389Y111454305D01*
X96405805Y111388999D01*
X96355460Y111343853D01*
X96218435Y111288223D01*
X96064570Y111310624D01*
X96034193Y111326605D01*
X95957656Y111418581D01*
X95908077Y111558679D01*
X95885458Y111726327D01*
X95886936Y111785776D01*
X96027777Y111785776D01*
X96031284Y111682451D01*
X96049595Y111547516D01*
X96080175Y111468912D01*
X96156169Y111415616D01*
X96249140Y111417305D01*
X96321370Y111483147D01*
X96337188Y111529883D01*
X96355603Y111646024D01*
X96362777Y111785776D01*
X96361597Y111850819D01*
X96339205Y112027244D01*
X96287727Y112131505D01*
X96206268Y112165776D01*
X96154911Y112158256D01*
X96082328Y112099586D01*
X96040927Y111977505D01*
X96027777Y111785776D01*
X95886936Y111785776D01*
X95889798Y111900950D01*
X95921096Y112061974D01*
X95979353Y112188825D01*
X96064570Y112260929D01*
X96129431Y112279615D01*
X96276899Y112269902D01*
X96405805Y112182554D01*
X96454104Y112122572D01*
X96485092Y112049777D01*
X96499343Y111945588D01*
X96502777Y111785776D01*
G37*
G36*
X94760283Y112274637D02*
G01*
X94848331Y112230544D01*
X94882777Y112160090D01*
X94882399Y112143697D01*
X94864726Y112104279D01*
X94805407Y112124369D01*
X94798765Y112127848D01*
X94664812Y112166746D01*
X94550555Y112145178D01*
X94475888Y112066630D01*
X94473805Y112061999D01*
X94454296Y111990137D01*
X94472878Y111917572D01*
X94536753Y111814470D01*
X94560781Y111781138D01*
X94669493Y111647100D01*
X94782784Y111525770D01*
X94827754Y111479407D01*
X94895933Y111394566D01*
X94922777Y111337930D01*
X94919328Y111325565D01*
X94875771Y111302305D01*
X94773799Y111289620D01*
X94602777Y111285776D01*
X94461041Y111287687D01*
X94352536Y111296515D01*
X94297850Y111314991D01*
X94282777Y111345776D01*
X94282833Y111348350D01*
X94304405Y111382903D01*
X94375304Y111400721D01*
X94510624Y111405776D01*
X94738471Y111405776D01*
X94617334Y111535776D01*
X94513329Y111654064D01*
X94380369Y111843341D01*
X94319340Y112000560D01*
X94329893Y112126892D01*
X94411678Y112223508D01*
X94515141Y112271391D01*
X94641573Y112289283D01*
X94760283Y112274637D01*
G37*
G36*
X99722777Y111785776D02*
G01*
X99722777Y111285776D01*
X99519701Y111285776D01*
X99515175Y111285781D01*
X99380645Y111294539D01*
X99287670Y111329060D01*
X99199701Y111402700D01*
X99139842Y111469178D01*
X99102583Y111540338D01*
X99086340Y111636769D01*
X99082836Y111783321D01*
X99223971Y111783321D01*
X99246772Y111608207D01*
X99314468Y111475776D01*
X99368125Y111434665D01*
X99468977Y111405776D01*
X99480325Y111405849D01*
X99519864Y111411683D01*
X99544183Y111437618D01*
X99556978Y111498629D01*
X99561944Y111609690D01*
X99562777Y111785776D01*
X99562766Y111819242D01*
X99561406Y111983869D01*
X99555269Y112085843D01*
X99540814Y112140095D01*
X99514497Y112161558D01*
X99472777Y112165164D01*
X99363113Y112146004D01*
X99289210Y112077229D01*
X99242395Y111944079D01*
X99223971Y111783321D01*
X99082836Y111783321D01*
X99082777Y111785776D01*
X99085685Y111924942D01*
X99100579Y112024648D01*
X99135806Y112096849D01*
X99199701Y112168853D01*
X99202311Y112171456D01*
X99289937Y112243871D01*
X99383550Y112277526D01*
X99519701Y112285776D01*
X99722777Y112285776D01*
X99722777Y111785776D01*
G37*
G36*
X96132777Y114878559D02*
G01*
X96147610Y114876111D01*
X96188830Y114858536D01*
X96213116Y114814125D01*
X96226388Y114725157D01*
X96234567Y114573914D01*
X96246357Y114282052D01*
X96742777Y114305776D01*
X96754581Y114598322D01*
X96757643Y114669377D01*
X96766340Y114791083D01*
X96781543Y114855692D01*
X96809032Y114879379D01*
X96854581Y114878322D01*
X96883661Y114872237D01*
X96908315Y114855081D01*
X96925498Y114815923D01*
X96936923Y114743165D01*
X96944307Y114625210D01*
X96949364Y114450458D01*
X96953809Y114207312D01*
X96955818Y114054117D01*
X96956620Y113846068D01*
X96954974Y113674181D01*
X96951063Y113553061D01*
X96945064Y113497312D01*
X96919380Y113468057D01*
X96844033Y113445776D01*
X96815857Y113448067D01*
X96787017Y113467370D01*
X96771054Y113519641D01*
X96764222Y113620553D01*
X96762777Y113785776D01*
X96762777Y114125776D01*
X96242777Y114125776D01*
X96242777Y113785776D01*
X96241885Y113622434D01*
X96236098Y113521388D01*
X96220756Y113468823D01*
X96191202Y113448898D01*
X96142777Y113445776D01*
X96042777Y113445776D01*
X96042777Y114891341D01*
X96132777Y114878559D01*
G37*
G36*
X99271541Y114099803D02*
G01*
X99271873Y114079214D01*
X99240735Y113863863D01*
X99180093Y113679341D01*
X99095173Y113549081D01*
X99041866Y113502497D01*
X98944532Y113458106D01*
X98807323Y113447049D01*
X98727108Y113451976D01*
X98568377Y113501137D01*
X98453496Y113607567D01*
X98377770Y113776928D01*
X98336506Y114014883D01*
X98330467Y114099856D01*
X98333213Y114174074D01*
X98541073Y114174074D01*
X98548814Y113985881D01*
X98573499Y113822988D01*
X98615128Y113711837D01*
X98652772Y113667859D01*
X98757829Y113611966D01*
X98871930Y113611146D01*
X98965467Y113669017D01*
X98965529Y113669092D01*
X99012846Y113769641D01*
X99042007Y113920370D01*
X99053624Y114099803D01*
X99048307Y114286463D01*
X99026667Y114458875D01*
X98989314Y114595563D01*
X98936860Y114675050D01*
X98831685Y114721572D01*
X98712297Y114706474D01*
X98615128Y114619716D01*
X98576427Y114520590D01*
X98550278Y114361124D01*
X98541073Y114174074D01*
X98333213Y114174074D01*
X98340309Y114365816D01*
X98395243Y114583753D01*
X98491904Y114747301D01*
X98626927Y114850097D01*
X98796946Y114885776D01*
X98818415Y114885380D01*
X98991133Y114844984D01*
X99122823Y114737555D01*
X99214347Y114562054D01*
X99266565Y114317438D01*
X99268278Y114301956D01*
X99271541Y114099803D01*
G37*
G36*
X97807720Y114859451D02*
G01*
X97956967Y114781649D01*
X98050434Y114653255D01*
X98082777Y114477306D01*
X98076204Y114393120D01*
X98024138Y114266145D01*
X97912208Y114172789D01*
X97730912Y114102938D01*
X97573221Y114044463D01*
X97444045Y113957802D01*
X97381749Y113859291D01*
X97390499Y113756194D01*
X97474462Y113655776D01*
X97545970Y113623289D01*
X97680751Y113607675D01*
X97831295Y113622426D01*
X97964764Y113666804D01*
X97976471Y113672847D01*
X98050376Y113705973D01*
X98078389Y113692792D01*
X98082777Y113625515D01*
X98068183Y113553396D01*
X97992777Y113487023D01*
X97941699Y113473134D01*
X97819147Y113456042D01*
X97675847Y113448312D01*
X97655675Y113448162D01*
X97515430Y113455770D01*
X97416721Y113486251D01*
X97325847Y113549332D01*
X97317694Y113556249D01*
X97243981Y113632920D01*
X97210611Y113717541D01*
X97202777Y113845776D01*
X97202783Y113850676D01*
X97211385Y113977781D01*
X97245899Y114061774D01*
X97320438Y114137670D01*
X97365681Y114169930D01*
X97498056Y114237079D01*
X97643472Y114285943D01*
X97693868Y114299491D01*
X97830709Y114363618D01*
X97895335Y114454059D01*
X97891811Y114575551D01*
X97882589Y114600756D01*
X97806871Y114676605D01*
X97681342Y114714668D01*
X97523984Y114711945D01*
X97352777Y114665438D01*
X97337683Y114659978D01*
X97294085Y114666603D01*
X97282777Y114736497D01*
X97284769Y114769508D01*
X97317507Y114829004D01*
X97407777Y114860776D01*
X97608040Y114883626D01*
X97807720Y114859451D01*
G37*
G36*
X94579802Y115913657D02*
G01*
X94624196Y115875776D01*
X94635241Y115832981D01*
X94660936Y115720687D01*
X94698433Y115550866D01*
X94745341Y115334472D01*
X94799268Y115082458D01*
X94857823Y114805776D01*
X94896481Y114623950D01*
X94962381Y114325146D01*
X95015136Y114103220D01*
X95055081Y113956878D01*
X95082554Y113884827D01*
X95097893Y113885776D01*
X95113327Y113949613D01*
X95143108Y114078760D01*
X95175940Y114225776D01*
X95199935Y114327212D01*
X95231895Y114417858D01*
X95271645Y114461767D01*
X95330872Y114477967D01*
X95355825Y114480291D01*
X95401316Y114473109D01*
X95433742Y114435081D01*
X95462739Y114350350D01*
X95497943Y114203060D01*
X95500685Y114190861D01*
X95532072Y114042617D01*
X95554324Y113922035D01*
X95562777Y113854203D01*
X95565142Y113825816D01*
X95580468Y113810134D01*
X95583231Y113818302D01*
X95595903Y113886694D01*
X95614845Y114009106D01*
X95637603Y114167400D01*
X95661724Y114343440D01*
X95684755Y114519088D01*
X95704243Y114676206D01*
X95717735Y114796657D01*
X95722777Y114862303D01*
X95729521Y114873465D01*
X95781797Y114885190D01*
X95851333Y114878768D01*
X95896254Y114855776D01*
X95897480Y114838719D01*
X95891071Y114755472D01*
X95875573Y114618268D01*
X95853259Y114443162D01*
X95826404Y114246212D01*
X95797283Y114043473D01*
X95768168Y113851004D01*
X95741336Y113684860D01*
X95719061Y113561099D01*
X95703616Y113495776D01*
X95684090Y113465895D01*
X95618977Y113444296D01*
X95547600Y113469814D01*
X95503363Y113535776D01*
X95500518Y113548008D01*
X95478502Y113642686D01*
X95445686Y113783839D01*
X95408042Y113945776D01*
X95333658Y114265776D01*
X95241606Y113855776D01*
X95236386Y113832577D01*
X95195066Y113656530D01*
X95162676Y113543626D01*
X95133000Y113480066D01*
X95099822Y113452049D01*
X95056928Y113445776D01*
X94991502Y113461083D01*
X94943290Y113535776D01*
X94940186Y113549142D01*
X94911437Y113676471D01*
X94871999Y113855317D01*
X94824385Y114073887D01*
X94771110Y114320393D01*
X94714688Y114583042D01*
X94657632Y114850045D01*
X94602457Y115109611D01*
X94551676Y115349949D01*
X94507804Y115559270D01*
X94473354Y115725781D01*
X94450841Y115837693D01*
X94442777Y115883214D01*
X94454285Y115907358D01*
X94510451Y115924705D01*
X94579802Y115913657D01*
G37*
G36*
X39255891Y29275925D02*
G01*
X39277227Y29191868D01*
X39266281Y29147420D01*
X39215971Y29114229D01*
X39202826Y29115273D01*
X39144775Y29153323D01*
X39126008Y29219122D01*
X39159488Y29275626D01*
X39197341Y29292602D01*
X39255891Y29275925D01*
G37*
G36*
X40055891Y29275925D02*
G01*
X40077227Y29191868D01*
X40066281Y29147420D01*
X40015971Y29114229D01*
X40002826Y29115273D01*
X39944775Y29153323D01*
X39926008Y29219122D01*
X39959488Y29275626D01*
X39997341Y29292602D01*
X40055891Y29275925D01*
G37*
G36*
X40855891Y29275925D02*
G01*
X40877227Y29191868D01*
X40866281Y29147420D01*
X40815971Y29114229D01*
X40802826Y29115273D01*
X40744775Y29153323D01*
X40726008Y29219122D01*
X40759488Y29275626D01*
X40797341Y29292602D01*
X40855891Y29275925D01*
G37*
G36*
X39577665Y28185798D02*
G01*
X40054151Y28184486D01*
X42977227Y28174229D01*
X42998277Y25434229D01*
X42757227Y25434229D01*
X42757227Y27914229D01*
X37315961Y27914229D01*
X37337227Y25694229D01*
X41957227Y25673579D01*
X41957227Y25434229D01*
X37077227Y25434229D01*
X37077227Y26787562D01*
X37077656Y27028592D01*
X37079493Y27331814D01*
X37082608Y27602300D01*
X37086815Y27830595D01*
X37091931Y28007248D01*
X37097771Y28122807D01*
X37104151Y28167820D01*
X37141481Y28171755D01*
X37253067Y28175561D01*
X37432461Y28178853D01*
X37673321Y28181595D01*
X37969306Y28183750D01*
X38314075Y28185284D01*
X38701285Y28186161D01*
X39124595Y28186344D01*
X39577665Y28185798D01*
G37*
G36*
X38532389Y29712854D02*
G01*
X38644722Y29704454D01*
X38701511Y29685877D01*
X38717227Y29654229D01*
X38698205Y29618517D01*
X38629900Y29599615D01*
X38497227Y29594229D01*
X38277227Y29594229D01*
X38277227Y29234229D01*
X38500560Y29234229D01*
X38632667Y29225505D01*
X38705247Y29201276D01*
X38703823Y29170166D01*
X38629674Y29140883D01*
X38484082Y29122138D01*
X38368481Y29113499D01*
X38304278Y29095138D01*
X38280613Y29052915D01*
X38277227Y28972138D01*
X38277227Y28834229D01*
X38497227Y28834229D01*
X38628170Y28829041D01*
X38697475Y28810412D01*
X38717227Y28774229D01*
X38710353Y28751196D01*
X38668355Y28728729D01*
X38575468Y28717372D01*
X38417227Y28714229D01*
X38117227Y28714229D01*
X38117227Y29714229D01*
X38417227Y29714229D01*
X38532389Y29712854D01*
G37*
G36*
X41724886Y29713354D02*
G01*
X41841551Y29705485D01*
X41900760Y29686828D01*
X41917227Y29654229D01*
X41897654Y29615092D01*
X41817227Y29594229D01*
X41717227Y29594229D01*
X41717227Y29154229D01*
X41717045Y29028416D01*
X41714732Y28878221D01*
X41707439Y28785656D01*
X41692322Y28736823D01*
X41666533Y28717828D01*
X41627227Y28714775D01*
X41493209Y28728364D01*
X41394020Y28766878D01*
X41357227Y28823557D01*
X41378485Y28863999D01*
X41457227Y28864438D01*
X41557227Y28845322D01*
X41557227Y29219775D01*
X41557209Y29275150D01*
X41555753Y29430273D01*
X41549059Y29524646D01*
X41533093Y29573367D01*
X41503827Y29591529D01*
X41457227Y29594229D01*
X41391999Y29605972D01*
X41357227Y29654229D01*
X41361309Y29673013D01*
X41398030Y29698012D01*
X41485098Y29710700D01*
X41637227Y29714229D01*
X41724886Y29713354D01*
G37*
G36*
X43324886Y29713354D02*
G01*
X43441551Y29705485D01*
X43500760Y29686828D01*
X43517227Y29654229D01*
X43497654Y29615092D01*
X43417227Y29594229D01*
X43317227Y29594229D01*
X43317227Y29154229D01*
X43317045Y29028416D01*
X43314732Y28878221D01*
X43307439Y28785656D01*
X43292322Y28736823D01*
X43266533Y28717828D01*
X43227227Y28714775D01*
X43093209Y28728364D01*
X42994020Y28766878D01*
X42957227Y28823557D01*
X42978485Y28863999D01*
X43057227Y28864438D01*
X43157227Y28845322D01*
X43157227Y29219775D01*
X43157209Y29275150D01*
X43155753Y29430273D01*
X43149059Y29524646D01*
X43133093Y29573367D01*
X43103827Y29591529D01*
X43057227Y29594229D01*
X42991999Y29605972D01*
X42957227Y29654229D01*
X42961309Y29673013D01*
X42998030Y29698012D01*
X43085098Y29710700D01*
X43237227Y29714229D01*
X43324886Y29713354D01*
G37*
G36*
X38897227Y29214229D02*
G01*
X39037227Y29214229D01*
X39038407Y29149186D01*
X39060799Y28972761D01*
X39112277Y28868500D01*
X39193736Y28834229D01*
X39245093Y28841749D01*
X39317676Y28900419D01*
X39359077Y29022500D01*
X39372227Y29214229D01*
X39368720Y29317554D01*
X39350409Y29452489D01*
X39319829Y29531093D01*
X39243835Y29584389D01*
X39150864Y29582700D01*
X39078634Y29516858D01*
X39062816Y29470122D01*
X39044401Y29353981D01*
X39037227Y29214229D01*
X38897227Y29214229D01*
X38900058Y29363453D01*
X38913208Y29471259D01*
X38942615Y29545700D01*
X38994199Y29611006D01*
X39044544Y29656152D01*
X39181569Y29711782D01*
X39335434Y29689381D01*
X39365811Y29673400D01*
X39442348Y29581424D01*
X39491927Y29441326D01*
X39514546Y29273678D01*
X39510206Y29099055D01*
X39478908Y28938031D01*
X39420651Y28811180D01*
X39335434Y28739076D01*
X39270573Y28720390D01*
X39123105Y28730103D01*
X38994199Y28817451D01*
X38945900Y28877433D01*
X38914912Y28950228D01*
X38900661Y29054417D01*
X38897227Y29214229D01*
G37*
G36*
X39697227Y29214229D02*
G01*
X39837227Y29214229D01*
X39838407Y29149186D01*
X39860799Y28972761D01*
X39912277Y28868500D01*
X39993736Y28834229D01*
X40045093Y28841749D01*
X40117676Y28900419D01*
X40159077Y29022500D01*
X40172227Y29214229D01*
X40168720Y29317554D01*
X40150409Y29452489D01*
X40119829Y29531093D01*
X40043835Y29584389D01*
X39950864Y29582700D01*
X39878634Y29516858D01*
X39862816Y29470122D01*
X39844401Y29353981D01*
X39837227Y29214229D01*
X39697227Y29214229D01*
X39700058Y29363453D01*
X39713208Y29471259D01*
X39742615Y29545700D01*
X39794199Y29611006D01*
X39844544Y29656152D01*
X39981569Y29711782D01*
X40135434Y29689381D01*
X40165811Y29673400D01*
X40242348Y29581424D01*
X40291927Y29441326D01*
X40314546Y29273678D01*
X40310206Y29099055D01*
X40278908Y28938031D01*
X40220651Y28811180D01*
X40135434Y28739076D01*
X40070573Y28720390D01*
X39923105Y28730103D01*
X39794199Y28817451D01*
X39745900Y28877433D01*
X39714912Y28950228D01*
X39700661Y29054417D01*
X39697227Y29214229D01*
G37*
G36*
X40497227Y29214229D02*
G01*
X40637227Y29214229D01*
X40638407Y29149186D01*
X40660799Y28972761D01*
X40712277Y28868500D01*
X40793736Y28834229D01*
X40845093Y28841749D01*
X40917676Y28900419D01*
X40959077Y29022500D01*
X40972227Y29214229D01*
X40968720Y29317554D01*
X40950409Y29452489D01*
X40919829Y29531093D01*
X40843835Y29584389D01*
X40750864Y29582700D01*
X40678634Y29516858D01*
X40662816Y29470122D01*
X40644401Y29353981D01*
X40637227Y29214229D01*
X40497227Y29214229D01*
X40500058Y29363453D01*
X40513208Y29471259D01*
X40542615Y29545700D01*
X40594199Y29611006D01*
X40644544Y29656152D01*
X40781569Y29711782D01*
X40935434Y29689381D01*
X40965811Y29673400D01*
X41042348Y29581424D01*
X41091927Y29441326D01*
X41114546Y29273678D01*
X41110206Y29099055D01*
X41078908Y28938031D01*
X41020651Y28811180D01*
X40935434Y28739076D01*
X40870573Y28720390D01*
X40723105Y28730103D01*
X40594199Y28817451D01*
X40545900Y28877433D01*
X40514912Y28950228D01*
X40500661Y29054417D01*
X40497227Y29214229D01*
G37*
G36*
X42538963Y29712318D02*
G01*
X42647468Y29703490D01*
X42702154Y29685014D01*
X42717227Y29654229D01*
X42717171Y29651655D01*
X42695599Y29617102D01*
X42624700Y29599284D01*
X42489380Y29594229D01*
X42261533Y29594229D01*
X42382670Y29464229D01*
X42486675Y29345941D01*
X42619635Y29156664D01*
X42680664Y28999445D01*
X42670111Y28873113D01*
X42588326Y28776497D01*
X42484863Y28728614D01*
X42358431Y28710722D01*
X42239721Y28725368D01*
X42151673Y28769461D01*
X42117227Y28839915D01*
X42117605Y28856308D01*
X42135278Y28895726D01*
X42194597Y28875636D01*
X42201239Y28872157D01*
X42335192Y28833259D01*
X42449449Y28854827D01*
X42524116Y28933375D01*
X42526199Y28938006D01*
X42545708Y29009868D01*
X42527126Y29082433D01*
X42463251Y29185535D01*
X42439223Y29218867D01*
X42330511Y29352905D01*
X42217220Y29474235D01*
X42172250Y29520598D01*
X42104071Y29605439D01*
X42077227Y29662075D01*
X42080676Y29674440D01*
X42124233Y29697700D01*
X42226205Y29710385D01*
X42397227Y29714229D01*
X42538963Y29712318D01*
G37*
G36*
X37277227Y29214229D02*
G01*
X37437227Y29214229D01*
X37437238Y29180763D01*
X37438598Y29016136D01*
X37444735Y28914162D01*
X37459190Y28859910D01*
X37485507Y28838447D01*
X37527227Y28834841D01*
X37636891Y28854001D01*
X37710794Y28922776D01*
X37757609Y29055926D01*
X37776033Y29216684D01*
X37753232Y29391798D01*
X37685536Y29524229D01*
X37631879Y29565340D01*
X37531027Y29594229D01*
X37519679Y29594156D01*
X37480140Y29588322D01*
X37455821Y29562387D01*
X37443026Y29501376D01*
X37438060Y29390315D01*
X37437227Y29214229D01*
X37277227Y29214229D01*
X37277227Y29714229D01*
X37480303Y29714229D01*
X37484829Y29714224D01*
X37619359Y29705466D01*
X37712334Y29670945D01*
X37800303Y29597305D01*
X37860162Y29530827D01*
X37897421Y29459667D01*
X37913664Y29363236D01*
X37917227Y29214229D01*
X37914319Y29075063D01*
X37899425Y28975357D01*
X37864198Y28903156D01*
X37800303Y28831152D01*
X37797693Y28828549D01*
X37710067Y28756134D01*
X37616454Y28722479D01*
X37480303Y28714229D01*
X37277227Y28714229D01*
X37277227Y29214229D01*
G37*
G36*
X40957227Y26108664D02*
G01*
X40867227Y26121446D01*
X40852394Y26123894D01*
X40811174Y26141469D01*
X40786888Y26185880D01*
X40773616Y26274848D01*
X40765437Y26426091D01*
X40753647Y26717953D01*
X40257227Y26694229D01*
X40245423Y26401683D01*
X40242361Y26330628D01*
X40233664Y26208922D01*
X40218461Y26144313D01*
X40190972Y26120626D01*
X40145423Y26121683D01*
X40116343Y26127768D01*
X40091689Y26144924D01*
X40074506Y26184082D01*
X40063081Y26256840D01*
X40055697Y26374795D01*
X40050640Y26549547D01*
X40046195Y26792693D01*
X40044186Y26945888D01*
X40043384Y27153937D01*
X40045030Y27325824D01*
X40048941Y27446944D01*
X40054940Y27502693D01*
X40080624Y27531948D01*
X40155971Y27554229D01*
X40184147Y27551938D01*
X40212987Y27532635D01*
X40228950Y27480364D01*
X40235782Y27379452D01*
X40237227Y27214229D01*
X40237227Y26874229D01*
X40757227Y26874229D01*
X40757227Y27214229D01*
X40758119Y27377571D01*
X40763906Y27478617D01*
X40779248Y27531182D01*
X40808802Y27551107D01*
X40857227Y27554229D01*
X40957227Y27554229D01*
X40957227Y26108664D01*
G37*
G36*
X37728463Y26900202D02*
G01*
X37946380Y26900202D01*
X37951697Y26713542D01*
X37973337Y26541130D01*
X38010690Y26404442D01*
X38063144Y26324955D01*
X38168319Y26278433D01*
X38287707Y26293531D01*
X38384876Y26380289D01*
X38423577Y26479415D01*
X38449726Y26638881D01*
X38458931Y26825931D01*
X38451190Y27014124D01*
X38426505Y27177017D01*
X38384876Y27288168D01*
X38347232Y27332146D01*
X38242175Y27388039D01*
X38128074Y27388859D01*
X38034537Y27330988D01*
X38034475Y27330913D01*
X37987158Y27230364D01*
X37957997Y27079635D01*
X37946380Y26900202D01*
X37728463Y26900202D01*
X37728131Y26920791D01*
X37759269Y27136142D01*
X37819911Y27320664D01*
X37904831Y27450924D01*
X37958138Y27497508D01*
X38055472Y27541899D01*
X38192681Y27552956D01*
X38272896Y27548029D01*
X38431627Y27498868D01*
X38546508Y27392438D01*
X38622234Y27223077D01*
X38663498Y26985122D01*
X38669537Y26900149D01*
X38659695Y26634189D01*
X38604761Y26416252D01*
X38508100Y26252704D01*
X38373077Y26149908D01*
X38203058Y26114229D01*
X38181589Y26114625D01*
X38008871Y26155021D01*
X37877181Y26262450D01*
X37785657Y26437951D01*
X37733439Y26682567D01*
X37731726Y26698049D01*
X37728463Y26900202D01*
G37*
G36*
X39484574Y27544235D02*
G01*
X39583283Y27513754D01*
X39674157Y27450673D01*
X39682310Y27443756D01*
X39756023Y27367085D01*
X39789393Y27282464D01*
X39797227Y27154229D01*
X39797221Y27149329D01*
X39788619Y27022224D01*
X39754105Y26938231D01*
X39679566Y26862335D01*
X39634323Y26830075D01*
X39501948Y26762926D01*
X39356532Y26714062D01*
X39306136Y26700514D01*
X39169295Y26636387D01*
X39104669Y26545946D01*
X39108193Y26424454D01*
X39117415Y26399249D01*
X39193133Y26323400D01*
X39318662Y26285337D01*
X39476020Y26288060D01*
X39647227Y26334567D01*
X39662321Y26340027D01*
X39705919Y26333402D01*
X39717227Y26263508D01*
X39715235Y26230497D01*
X39682497Y26171001D01*
X39592227Y26139229D01*
X39391964Y26116379D01*
X39192284Y26140554D01*
X39043037Y26218356D01*
X38949570Y26346750D01*
X38917227Y26522699D01*
X38923800Y26606885D01*
X38975866Y26733860D01*
X39087796Y26827216D01*
X39269092Y26897067D01*
X39426783Y26955542D01*
X39555959Y27042203D01*
X39618255Y27140714D01*
X39609505Y27243811D01*
X39525542Y27344229D01*
X39454034Y27376716D01*
X39319253Y27392330D01*
X39168709Y27377579D01*
X39035240Y27333201D01*
X39023533Y27327158D01*
X38949628Y27294032D01*
X38921615Y27307213D01*
X38917227Y27374490D01*
X38931821Y27446609D01*
X39007227Y27512982D01*
X39058305Y27526871D01*
X39180857Y27543963D01*
X39324157Y27551693D01*
X39344329Y27551843D01*
X39484574Y27544235D01*
G37*
G36*
X41452404Y27530191D02*
G01*
X41496641Y27464229D01*
X41499486Y27451997D01*
X41521502Y27357319D01*
X41554318Y27216166D01*
X41591962Y27054229D01*
X41666346Y26734229D01*
X41758398Y27144229D01*
X41763618Y27167428D01*
X41804938Y27343475D01*
X41837328Y27456379D01*
X41867004Y27519939D01*
X41900182Y27547956D01*
X41943076Y27554229D01*
X42008502Y27538922D01*
X42056714Y27464229D01*
X42059818Y27450863D01*
X42088567Y27323534D01*
X42128005Y27144688D01*
X42175619Y26926118D01*
X42228894Y26679612D01*
X42285316Y26416963D01*
X42342372Y26149960D01*
X42397547Y25890394D01*
X42448328Y25650056D01*
X42492200Y25440735D01*
X42526650Y25274224D01*
X42549163Y25162312D01*
X42557227Y25116791D01*
X42545719Y25092647D01*
X42489553Y25075300D01*
X42420202Y25086348D01*
X42375808Y25124229D01*
X42364763Y25167024D01*
X42339068Y25279318D01*
X42301571Y25449139D01*
X42254663Y25665533D01*
X42200736Y25917547D01*
X42142181Y26194229D01*
X42103523Y26376055D01*
X42037623Y26674859D01*
X41984868Y26896785D01*
X41944923Y27043127D01*
X41917450Y27115178D01*
X41902111Y27114229D01*
X41886677Y27050392D01*
X41856896Y26921245D01*
X41824064Y26774229D01*
X41800069Y26672793D01*
X41768109Y26582147D01*
X41728359Y26538238D01*
X41669132Y26522038D01*
X41644179Y26519714D01*
X41598688Y26526896D01*
X41566262Y26564924D01*
X41537265Y26649655D01*
X41502061Y26796945D01*
X41499319Y26809144D01*
X41467932Y26957388D01*
X41445680Y27077970D01*
X41437227Y27145802D01*
X41434862Y27174189D01*
X41419536Y27189871D01*
X41416773Y27181703D01*
X41404101Y27113311D01*
X41385159Y26990899D01*
X41362401Y26832605D01*
X41338280Y26656565D01*
X41315249Y26480917D01*
X41295761Y26323799D01*
X41282269Y26203348D01*
X41277227Y26137702D01*
X41270483Y26126540D01*
X41218207Y26114815D01*
X41148671Y26121237D01*
X41103750Y26144229D01*
X41102524Y26161286D01*
X41108933Y26244533D01*
X41124431Y26381737D01*
X41146745Y26556843D01*
X41173600Y26753793D01*
X41202721Y26956532D01*
X41231836Y27149001D01*
X41258668Y27315145D01*
X41280943Y27438906D01*
X41296388Y27504229D01*
X41315914Y27534110D01*
X41381027Y27555709D01*
X41452404Y27530191D01*
G37*
G36*
X102255891Y29275925D02*
G01*
X102277227Y29191868D01*
X102266281Y29147420D01*
X102215971Y29114229D01*
X102202826Y29115273D01*
X102144775Y29153323D01*
X102126008Y29219122D01*
X102159488Y29275626D01*
X102197341Y29292602D01*
X102255891Y29275925D01*
G37*
G36*
X103055891Y29275925D02*
G01*
X103077227Y29191868D01*
X103066281Y29147420D01*
X103015971Y29114229D01*
X103002826Y29115273D01*
X102944775Y29153323D01*
X102926008Y29219122D01*
X102959488Y29275626D01*
X102997341Y29292602D01*
X103055891Y29275925D01*
G37*
G36*
X103855891Y29275925D02*
G01*
X103877227Y29191868D01*
X103866281Y29147420D01*
X103815971Y29114229D01*
X103802826Y29115273D01*
X103744775Y29153323D01*
X103726008Y29219122D01*
X103759488Y29275626D01*
X103797341Y29292602D01*
X103855891Y29275925D01*
G37*
G36*
X102577665Y28185798D02*
G01*
X103054151Y28184486D01*
X105977227Y28174229D01*
X105998277Y25434229D01*
X105757227Y25434229D01*
X105757227Y27914229D01*
X100315961Y27914229D01*
X100337227Y25694229D01*
X104957227Y25673579D01*
X104957227Y25434229D01*
X100077227Y25434229D01*
X100077227Y26787562D01*
X100077656Y27028592D01*
X100079493Y27331814D01*
X100082608Y27602300D01*
X100086815Y27830595D01*
X100091931Y28007248D01*
X100097771Y28122807D01*
X100104151Y28167820D01*
X100141481Y28171755D01*
X100253067Y28175561D01*
X100432461Y28178853D01*
X100673321Y28181595D01*
X100969306Y28183750D01*
X101314075Y28185284D01*
X101701285Y28186161D01*
X102124595Y28186344D01*
X102577665Y28185798D01*
G37*
G36*
X101532389Y29712854D02*
G01*
X101644722Y29704454D01*
X101701511Y29685877D01*
X101717227Y29654229D01*
X101698205Y29618517D01*
X101629900Y29599615D01*
X101497227Y29594229D01*
X101277227Y29594229D01*
X101277227Y29234229D01*
X101500560Y29234229D01*
X101632667Y29225505D01*
X101705247Y29201276D01*
X101703823Y29170166D01*
X101629674Y29140883D01*
X101484082Y29122138D01*
X101368481Y29113499D01*
X101304278Y29095138D01*
X101280613Y29052915D01*
X101277227Y28972138D01*
X101277227Y28834229D01*
X101497227Y28834229D01*
X101628170Y28829041D01*
X101697475Y28810412D01*
X101717227Y28774229D01*
X101710353Y28751196D01*
X101668355Y28728729D01*
X101575468Y28717372D01*
X101417227Y28714229D01*
X101117227Y28714229D01*
X101117227Y29714229D01*
X101417227Y29714229D01*
X101532389Y29712854D01*
G37*
G36*
X104724886Y29713354D02*
G01*
X104841551Y29705485D01*
X104900760Y29686828D01*
X104917227Y29654229D01*
X104897654Y29615092D01*
X104817227Y29594229D01*
X104717227Y29594229D01*
X104717227Y29154229D01*
X104717045Y29028416D01*
X104714732Y28878221D01*
X104707439Y28785656D01*
X104692322Y28736823D01*
X104666533Y28717828D01*
X104627227Y28714775D01*
X104493209Y28728364D01*
X104394020Y28766878D01*
X104357227Y28823557D01*
X104378485Y28863999D01*
X104457227Y28864438D01*
X104557227Y28845322D01*
X104557227Y29219775D01*
X104557209Y29275150D01*
X104555753Y29430273D01*
X104549059Y29524646D01*
X104533093Y29573367D01*
X104503827Y29591529D01*
X104457227Y29594229D01*
X104391999Y29605972D01*
X104357227Y29654229D01*
X104361309Y29673013D01*
X104398030Y29698012D01*
X104485098Y29710700D01*
X104637227Y29714229D01*
X104724886Y29713354D01*
G37*
G36*
X106324886Y29713354D02*
G01*
X106441551Y29705485D01*
X106500760Y29686828D01*
X106517227Y29654229D01*
X106497654Y29615092D01*
X106417227Y29594229D01*
X106317227Y29594229D01*
X106317227Y29154229D01*
X106317045Y29028416D01*
X106314732Y28878221D01*
X106307439Y28785656D01*
X106292322Y28736823D01*
X106266533Y28717828D01*
X106227227Y28714775D01*
X106093209Y28728364D01*
X105994020Y28766878D01*
X105957227Y28823557D01*
X105978485Y28863999D01*
X106057227Y28864438D01*
X106157227Y28845322D01*
X106157227Y29219775D01*
X106157209Y29275150D01*
X106155753Y29430273D01*
X106149059Y29524646D01*
X106133093Y29573367D01*
X106103827Y29591529D01*
X106057227Y29594229D01*
X105991999Y29605972D01*
X105957227Y29654229D01*
X105961309Y29673013D01*
X105998030Y29698012D01*
X106085098Y29710700D01*
X106237227Y29714229D01*
X106324886Y29713354D01*
G37*
G36*
X101897227Y29214229D02*
G01*
X102037227Y29214229D01*
X102038407Y29149186D01*
X102060799Y28972761D01*
X102112277Y28868500D01*
X102193736Y28834229D01*
X102245093Y28841749D01*
X102317676Y28900419D01*
X102359077Y29022500D01*
X102372227Y29214229D01*
X102368720Y29317554D01*
X102350409Y29452489D01*
X102319829Y29531093D01*
X102243835Y29584389D01*
X102150864Y29582700D01*
X102078634Y29516858D01*
X102062816Y29470122D01*
X102044401Y29353981D01*
X102037227Y29214229D01*
X101897227Y29214229D01*
X101900058Y29363453D01*
X101913208Y29471259D01*
X101942615Y29545700D01*
X101994199Y29611006D01*
X102044544Y29656152D01*
X102181569Y29711782D01*
X102335434Y29689381D01*
X102365811Y29673400D01*
X102442348Y29581424D01*
X102491927Y29441326D01*
X102514546Y29273678D01*
X102510206Y29099055D01*
X102478908Y28938031D01*
X102420651Y28811180D01*
X102335434Y28739076D01*
X102270573Y28720390D01*
X102123105Y28730103D01*
X101994199Y28817451D01*
X101945900Y28877433D01*
X101914912Y28950228D01*
X101900661Y29054417D01*
X101897227Y29214229D01*
G37*
G36*
X102697227Y29214229D02*
G01*
X102837227Y29214229D01*
X102838407Y29149186D01*
X102860799Y28972761D01*
X102912277Y28868500D01*
X102993736Y28834229D01*
X103045093Y28841749D01*
X103117676Y28900419D01*
X103159077Y29022500D01*
X103172227Y29214229D01*
X103168720Y29317554D01*
X103150409Y29452489D01*
X103119829Y29531093D01*
X103043835Y29584389D01*
X102950864Y29582700D01*
X102878634Y29516858D01*
X102862816Y29470122D01*
X102844401Y29353981D01*
X102837227Y29214229D01*
X102697227Y29214229D01*
X102700058Y29363453D01*
X102713208Y29471259D01*
X102742615Y29545700D01*
X102794199Y29611006D01*
X102844544Y29656152D01*
X102981569Y29711782D01*
X103135434Y29689381D01*
X103165811Y29673400D01*
X103242348Y29581424D01*
X103291927Y29441326D01*
X103314546Y29273678D01*
X103310206Y29099055D01*
X103278908Y28938031D01*
X103220651Y28811180D01*
X103135434Y28739076D01*
X103070573Y28720390D01*
X102923105Y28730103D01*
X102794199Y28817451D01*
X102745900Y28877433D01*
X102714912Y28950228D01*
X102700661Y29054417D01*
X102697227Y29214229D01*
G37*
G36*
X103497227Y29214229D02*
G01*
X103637227Y29214229D01*
X103638407Y29149186D01*
X103660799Y28972761D01*
X103712277Y28868500D01*
X103793736Y28834229D01*
X103845093Y28841749D01*
X103917676Y28900419D01*
X103959077Y29022500D01*
X103972227Y29214229D01*
X103968720Y29317554D01*
X103950409Y29452489D01*
X103919829Y29531093D01*
X103843835Y29584389D01*
X103750864Y29582700D01*
X103678634Y29516858D01*
X103662816Y29470122D01*
X103644401Y29353981D01*
X103637227Y29214229D01*
X103497227Y29214229D01*
X103500058Y29363453D01*
X103513208Y29471259D01*
X103542615Y29545700D01*
X103594199Y29611006D01*
X103644544Y29656152D01*
X103781569Y29711782D01*
X103935434Y29689381D01*
X103965811Y29673400D01*
X104042348Y29581424D01*
X104091927Y29441326D01*
X104114546Y29273678D01*
X104110206Y29099055D01*
X104078908Y28938031D01*
X104020651Y28811180D01*
X103935434Y28739076D01*
X103870573Y28720390D01*
X103723105Y28730103D01*
X103594199Y28817451D01*
X103545900Y28877433D01*
X103514912Y28950228D01*
X103500661Y29054417D01*
X103497227Y29214229D01*
G37*
G36*
X105538963Y29712318D02*
G01*
X105647468Y29703490D01*
X105702154Y29685014D01*
X105717227Y29654229D01*
X105717171Y29651655D01*
X105695599Y29617102D01*
X105624700Y29599284D01*
X105489380Y29594229D01*
X105261533Y29594229D01*
X105382670Y29464229D01*
X105486675Y29345941D01*
X105619635Y29156664D01*
X105680664Y28999445D01*
X105670111Y28873113D01*
X105588326Y28776497D01*
X105484863Y28728614D01*
X105358431Y28710722D01*
X105239721Y28725368D01*
X105151673Y28769461D01*
X105117227Y28839915D01*
X105117605Y28856308D01*
X105135278Y28895726D01*
X105194597Y28875636D01*
X105201239Y28872157D01*
X105335192Y28833259D01*
X105449449Y28854827D01*
X105524116Y28933375D01*
X105526199Y28938006D01*
X105545708Y29009868D01*
X105527126Y29082433D01*
X105463251Y29185535D01*
X105439223Y29218867D01*
X105330511Y29352905D01*
X105217220Y29474235D01*
X105172250Y29520598D01*
X105104071Y29605439D01*
X105077227Y29662075D01*
X105080676Y29674440D01*
X105124233Y29697700D01*
X105226205Y29710385D01*
X105397227Y29714229D01*
X105538963Y29712318D01*
G37*
G36*
X100277227Y29214229D02*
G01*
X100437227Y29214229D01*
X100437238Y29180763D01*
X100438598Y29016136D01*
X100444735Y28914162D01*
X100459190Y28859910D01*
X100485507Y28838447D01*
X100527227Y28834841D01*
X100636891Y28854001D01*
X100710794Y28922776D01*
X100757609Y29055926D01*
X100776033Y29216684D01*
X100753232Y29391798D01*
X100685536Y29524229D01*
X100631879Y29565340D01*
X100531027Y29594229D01*
X100519679Y29594156D01*
X100480140Y29588322D01*
X100455821Y29562387D01*
X100443026Y29501376D01*
X100438060Y29390315D01*
X100437227Y29214229D01*
X100277227Y29214229D01*
X100277227Y29714229D01*
X100480303Y29714229D01*
X100484829Y29714224D01*
X100619359Y29705466D01*
X100712334Y29670945D01*
X100800303Y29597305D01*
X100860162Y29530827D01*
X100897421Y29459667D01*
X100913664Y29363236D01*
X100917227Y29214229D01*
X100914319Y29075063D01*
X100899425Y28975357D01*
X100864198Y28903156D01*
X100800303Y28831152D01*
X100797693Y28828549D01*
X100710067Y28756134D01*
X100616454Y28722479D01*
X100480303Y28714229D01*
X100277227Y28714229D01*
X100277227Y29214229D01*
G37*
G36*
X103957227Y26108664D02*
G01*
X103867227Y26121446D01*
X103852394Y26123894D01*
X103811174Y26141469D01*
X103786888Y26185880D01*
X103773616Y26274848D01*
X103765437Y26426091D01*
X103753647Y26717953D01*
X103257227Y26694229D01*
X103245423Y26401683D01*
X103242361Y26330628D01*
X103233664Y26208922D01*
X103218461Y26144313D01*
X103190972Y26120626D01*
X103145423Y26121683D01*
X103116343Y26127768D01*
X103091689Y26144924D01*
X103074506Y26184082D01*
X103063081Y26256840D01*
X103055697Y26374795D01*
X103050640Y26549547D01*
X103046195Y26792693D01*
X103044186Y26945888D01*
X103043384Y27153937D01*
X103045030Y27325824D01*
X103048941Y27446944D01*
X103054940Y27502693D01*
X103080624Y27531948D01*
X103155971Y27554229D01*
X103184147Y27551938D01*
X103212987Y27532635D01*
X103228950Y27480364D01*
X103235782Y27379452D01*
X103237227Y27214229D01*
X103237227Y26874229D01*
X103757227Y26874229D01*
X103757227Y27214229D01*
X103758119Y27377571D01*
X103763906Y27478617D01*
X103779248Y27531182D01*
X103808802Y27551107D01*
X103857227Y27554229D01*
X103957227Y27554229D01*
X103957227Y26108664D01*
G37*
G36*
X100728463Y26900202D02*
G01*
X100946380Y26900202D01*
X100951697Y26713542D01*
X100973337Y26541130D01*
X101010690Y26404442D01*
X101063144Y26324955D01*
X101168319Y26278433D01*
X101287707Y26293531D01*
X101384876Y26380289D01*
X101423577Y26479415D01*
X101449726Y26638881D01*
X101458931Y26825931D01*
X101451190Y27014124D01*
X101426505Y27177017D01*
X101384876Y27288168D01*
X101347232Y27332146D01*
X101242175Y27388039D01*
X101128074Y27388859D01*
X101034537Y27330988D01*
X101034475Y27330913D01*
X100987158Y27230364D01*
X100957997Y27079635D01*
X100946380Y26900202D01*
X100728463Y26900202D01*
X100728131Y26920791D01*
X100759269Y27136142D01*
X100819911Y27320664D01*
X100904831Y27450924D01*
X100958138Y27497508D01*
X101055472Y27541899D01*
X101192681Y27552956D01*
X101272896Y27548029D01*
X101431627Y27498868D01*
X101546508Y27392438D01*
X101622234Y27223077D01*
X101663498Y26985122D01*
X101669537Y26900149D01*
X101659695Y26634189D01*
X101604761Y26416252D01*
X101508100Y26252704D01*
X101373077Y26149908D01*
X101203058Y26114229D01*
X101181589Y26114625D01*
X101008871Y26155021D01*
X100877181Y26262450D01*
X100785657Y26437951D01*
X100733439Y26682567D01*
X100731726Y26698049D01*
X100728463Y26900202D01*
G37*
G36*
X102484574Y27544235D02*
G01*
X102583283Y27513754D01*
X102674157Y27450673D01*
X102682310Y27443756D01*
X102756023Y27367085D01*
X102789393Y27282464D01*
X102797227Y27154229D01*
X102797221Y27149329D01*
X102788619Y27022224D01*
X102754105Y26938231D01*
X102679566Y26862335D01*
X102634323Y26830075D01*
X102501948Y26762926D01*
X102356532Y26714062D01*
X102306136Y26700514D01*
X102169295Y26636387D01*
X102104669Y26545946D01*
X102108193Y26424454D01*
X102117415Y26399249D01*
X102193133Y26323400D01*
X102318662Y26285337D01*
X102476020Y26288060D01*
X102647227Y26334567D01*
X102662321Y26340027D01*
X102705919Y26333402D01*
X102717227Y26263508D01*
X102715235Y26230497D01*
X102682497Y26171001D01*
X102592227Y26139229D01*
X102391964Y26116379D01*
X102192284Y26140554D01*
X102043037Y26218356D01*
X101949570Y26346750D01*
X101917227Y26522699D01*
X101923800Y26606885D01*
X101975866Y26733860D01*
X102087796Y26827216D01*
X102269092Y26897067D01*
X102426783Y26955542D01*
X102555959Y27042203D01*
X102618255Y27140714D01*
X102609505Y27243811D01*
X102525542Y27344229D01*
X102454034Y27376716D01*
X102319253Y27392330D01*
X102168709Y27377579D01*
X102035240Y27333201D01*
X102023533Y27327158D01*
X101949628Y27294032D01*
X101921615Y27307213D01*
X101917227Y27374490D01*
X101931821Y27446609D01*
X102007227Y27512982D01*
X102058305Y27526871D01*
X102180857Y27543963D01*
X102324157Y27551693D01*
X102344329Y27551843D01*
X102484574Y27544235D01*
G37*
G36*
X104452404Y27530191D02*
G01*
X104496641Y27464229D01*
X104499486Y27451997D01*
X104521502Y27357319D01*
X104554318Y27216166D01*
X104591962Y27054229D01*
X104666346Y26734229D01*
X104758398Y27144229D01*
X104763618Y27167428D01*
X104804938Y27343475D01*
X104837328Y27456379D01*
X104867004Y27519939D01*
X104900182Y27547956D01*
X104943076Y27554229D01*
X105008502Y27538922D01*
X105056714Y27464229D01*
X105059818Y27450863D01*
X105088567Y27323534D01*
X105128005Y27144688D01*
X105175619Y26926118D01*
X105228894Y26679612D01*
X105285316Y26416963D01*
X105342372Y26149960D01*
X105397547Y25890394D01*
X105448328Y25650056D01*
X105492200Y25440735D01*
X105526650Y25274224D01*
X105549163Y25162312D01*
X105557227Y25116791D01*
X105545719Y25092647D01*
X105489553Y25075300D01*
X105420202Y25086348D01*
X105375808Y25124229D01*
X105364763Y25167024D01*
X105339068Y25279318D01*
X105301571Y25449139D01*
X105254663Y25665533D01*
X105200736Y25917547D01*
X105142181Y26194229D01*
X105103523Y26376055D01*
X105037623Y26674859D01*
X104984868Y26896785D01*
X104944923Y27043127D01*
X104917450Y27115178D01*
X104902111Y27114229D01*
X104886677Y27050392D01*
X104856896Y26921245D01*
X104824064Y26774229D01*
X104800069Y26672793D01*
X104768109Y26582147D01*
X104728359Y26538238D01*
X104669132Y26522038D01*
X104644179Y26519714D01*
X104598688Y26526896D01*
X104566262Y26564924D01*
X104537265Y26649655D01*
X104502061Y26796945D01*
X104499319Y26809144D01*
X104467932Y26957388D01*
X104445680Y27077970D01*
X104437227Y27145802D01*
X104434862Y27174189D01*
X104419536Y27189871D01*
X104416773Y27181703D01*
X104404101Y27113311D01*
X104385159Y26990899D01*
X104362401Y26832605D01*
X104338280Y26656565D01*
X104315249Y26480917D01*
X104295761Y26323799D01*
X104282269Y26203348D01*
X104277227Y26137702D01*
X104270483Y26126540D01*
X104218207Y26114815D01*
X104148671Y26121237D01*
X104103750Y26144229D01*
X104102524Y26161286D01*
X104108933Y26244533D01*
X104124431Y26381737D01*
X104146745Y26556843D01*
X104173600Y26753793D01*
X104202721Y26956532D01*
X104231836Y27149001D01*
X104258668Y27315145D01*
X104280943Y27438906D01*
X104296388Y27504229D01*
X104315914Y27534110D01*
X104381027Y27555709D01*
X104452404Y27530191D01*
G37*
G04 #@! TO.C,kibuzzard-1*
G36*
X52009015Y112586739D02*
G01*
X52042352Y112504188D01*
X52009015Y112421638D01*
X51924877Y112386713D01*
X51842327Y112421638D01*
X51810577Y112504188D01*
X51842327Y112586739D01*
X51924877Y112618489D01*
X52009015Y112586739D01*
G37*
G36*
X45387552Y113664651D02*
G01*
X45419302Y113631314D01*
X45679652Y113263014D01*
X45711402Y113220151D01*
X45727277Y113167764D01*
X45703464Y113104264D01*
X45644727Y113075689D01*
X45612977Y113085214D01*
X45584402Y113113789D01*
X45457402Y113320164D01*
X45457402Y111437388D01*
X45425652Y111375476D01*
X45373264Y111354838D01*
X45333577Y111354838D01*
X45281189Y111375476D01*
X45247852Y111437388D01*
X45247852Y113599564D01*
X45276427Y113658301D01*
X45339927Y113678939D01*
X45387552Y113664651D01*
G37*
G36*
X41810914Y113650364D02*
G01*
X41841077Y113596389D01*
X41841077Y113116964D01*
X41809327Y113061401D01*
X41736302Y113037589D01*
X41663277Y113061401D01*
X41631527Y113116964D01*
X41631527Y113482089D01*
X40729827Y113482089D01*
X40729827Y113310639D01*
X41679152Y111494538D01*
X41691852Y111450088D01*
X41674389Y111396113D01*
X41626764Y111362776D01*
X41580727Y111351663D01*
X41539452Y111351663D01*
X41495002Y111389763D01*
X40552027Y113231264D01*
X40528214Y113278889D01*
X40520277Y113323339D01*
X40520277Y113596389D01*
X40552027Y113650364D01*
X40618702Y113675764D01*
X41745827Y113675764D01*
X41810914Y113650364D01*
G37*
G36*
X50924752Y112859789D02*
G01*
X50973965Y112820101D01*
X50994602Y112770889D01*
X50988252Y112750251D01*
X50978727Y112729614D01*
X50565977Y112113663D01*
X50988252Y111478663D01*
X51000952Y111434213D01*
X50980315Y111388176D01*
X50931102Y111348488D01*
X50891415Y111332613D01*
X50870777Y111332613D01*
X50843790Y111340551D01*
X50813627Y111364363D01*
X50429452Y111958088D01*
X50042102Y111364363D01*
X50015115Y111340551D01*
X49981777Y111332613D01*
X49924627Y111348488D01*
X49877002Y111388176D01*
X49857952Y111434213D01*
X49861127Y111459613D01*
X49870652Y111478663D01*
X50296102Y112113663D01*
X49880177Y112729614D01*
X49864302Y112770889D01*
X49884940Y112823276D01*
X49934152Y112861376D01*
X49991302Y112875664D01*
X50024640Y112867726D01*
X50051627Y112843914D01*
X50429452Y112262888D01*
X50804102Y112843914D01*
X50834265Y112869314D01*
X50867602Y112875664D01*
X50924752Y112859789D01*
G37*
G36*
X52585277Y112015238D02*
G01*
X52563449Y111792195D01*
X52497965Y111618363D01*
X52395174Y111489776D01*
X52261427Y111402463D01*
X52020127Y111335788D01*
X51834390Y111335788D01*
X51591502Y111402463D01*
X51457358Y111489776D01*
X51353377Y111618363D01*
X51286702Y111792195D01*
X51264477Y112015238D01*
X51474027Y112015238D01*
X51504190Y111797751D01*
X51594677Y111646938D01*
X51738346Y111558832D01*
X51928052Y111529463D01*
X52116965Y111558832D01*
X52258252Y111646938D01*
X52346358Y111797751D01*
X52375727Y112015238D01*
X52375727Y112999489D01*
X52346358Y113214595D01*
X52258252Y113364614D01*
X52116965Y113452720D01*
X51928052Y113482089D01*
X51738346Y113452720D01*
X51594677Y113364614D01*
X51504190Y113214595D01*
X51474027Y112999489D01*
X51474027Y112015238D01*
X51264477Y112015238D01*
X51264477Y112999489D01*
X51286702Y113220151D01*
X51353377Y113393189D01*
X51457358Y113521776D01*
X51591502Y113609089D01*
X51750252Y113659095D01*
X51928052Y113675764D01*
X52105455Y113659095D01*
X52263015Y113609089D01*
X52395571Y113521776D01*
X52497965Y113393189D01*
X52563449Y113220151D01*
X52585277Y112999489D01*
X52585277Y112015238D01*
G37*
G36*
X49072536Y113659095D02*
G01*
X49230890Y113609089D01*
X49366621Y113521776D01*
X49472190Y113393189D01*
X49540055Y113220151D01*
X49562677Y112999489D01*
X49562677Y112015238D01*
X49540452Y111792195D01*
X49473777Y111618363D01*
X49369399Y111489776D01*
X49234065Y111402463D01*
X48994352Y111335788D01*
X48800677Y111335788D01*
X48685186Y111354442D01*
X48548265Y111410401D01*
X48417693Y111496920D01*
X48321252Y111607251D01*
X48261721Y111734648D01*
X48241877Y111872363D01*
X48268865Y111975551D01*
X48349827Y112002538D01*
X48422852Y111981901D01*
X48451427Y111919988D01*
X48476827Y111794576D01*
X48535565Y111667576D01*
X48660977Y111569151D01*
X48886402Y111529463D01*
X49087618Y111558832D01*
X49234065Y111646938D01*
X49323361Y111797751D01*
X49353127Y112015238D01*
X49353127Y112999489D01*
X49323758Y113214595D01*
X49235652Y113364614D01*
X49091983Y113452720D01*
X48895927Y113482089D01*
X48668915Y113442401D01*
X48535565Y113342389D01*
X48472065Y113215389D01*
X48451427Y113097914D01*
X48427615Y113042351D01*
X48346652Y113018539D01*
X48268865Y113043939D01*
X48241877Y113145539D01*
X48261324Y113282857D01*
X48319665Y113409064D01*
X48414518Y113517807D01*
X48543502Y113602739D01*
X48705427Y113657507D01*
X48899102Y113675764D01*
X49072536Y113659095D01*
G37*
G36*
X47846590Y111378651D02*
G01*
X47798965Y111354838D01*
X47720824Y111354838D01*
X47513920Y111354838D01*
X47178252Y111354838D01*
X47011565Y111370713D01*
X46860752Y111418338D01*
X46732958Y111501682D01*
X46635327Y111624713D01*
X46573415Y111792195D01*
X46552777Y112008888D01*
X46552777Y112018413D01*
X46762327Y112018413D01*
X46791696Y111806879D01*
X46879802Y111661226D01*
X47020296Y111576692D01*
X47206827Y111548513D01*
X47664027Y111548513D01*
X47664027Y112523239D01*
X47206827Y112523239D01*
X47020296Y112497838D01*
X46879802Y112421638D01*
X46791696Y112283526D01*
X46762327Y112072388D01*
X46762327Y112018413D01*
X46552777Y112018413D01*
X46552777Y112066038D01*
X46563096Y112216057D01*
X46594052Y112335913D01*
X46708352Y112507364D01*
X46879802Y112612139D01*
X46770661Y112686354D01*
X46684540Y112801051D01*
X46628580Y112952260D01*
X46612183Y113113789D01*
X46819477Y113113789D01*
X46845671Y112921701D01*
X46924252Y112796289D01*
X47058396Y112727232D01*
X47251277Y112704214D01*
X47664027Y112704214D01*
X47664027Y113482089D01*
X47263977Y113482089D01*
X47032202Y113451926D01*
X46876627Y113342389D01*
X46819477Y113113789D01*
X46612183Y113113789D01*
X46609927Y113136014D01*
X46631755Y113334054D01*
X46697240Y113477326D01*
X46799633Y113574560D01*
X46932190Y113634489D01*
X47087368Y113665445D01*
X47257627Y113675764D01*
X47778327Y113675764D01*
X47843415Y113655126D01*
X47873577Y113596389D01*
X47873577Y111434213D01*
X47846590Y111378651D01*
G37*
G36*
X44433464Y113662270D02*
G01*
X44571577Y113621789D01*
X44760489Y113486851D01*
X44855739Y113318576D01*
X44882727Y113164589D01*
X44873202Y113091564D01*
X44841452Y113053464D01*
X44774777Y113043939D01*
X44696989Y113072514D01*
X44673177Y113145539D01*
X44657302Y113256664D01*
X44596977Y113366201D01*
X44471564Y113451926D01*
X44266777Y113485264D01*
X44093739Y113459864D01*
X43974677Y113383664D01*
X43905621Y113255870D01*
X43882602Y113075689D01*
X43928639Y112831214D01*
X44063577Y112705801D01*
X44279477Y112669289D01*
X44339802Y112640714D01*
X44358852Y112577214D01*
X44339802Y112515301D01*
X44279477Y112488313D01*
X44093739Y112462913D01*
X43949277Y112386713D01*
X43856408Y112255745D01*
X43825452Y112066038D01*
X43825452Y112005714D01*
X43854821Y111793385D01*
X43942927Y111645351D01*
X44087389Y111558435D01*
X44285827Y111529463D01*
X44501727Y111564388D01*
X44638252Y111653288D01*
X44709689Y111769176D01*
X44730327Y111881888D01*
X44752552Y111946976D01*
X44841452Y111970788D01*
X44912889Y111948563D01*
X44936702Y111859663D01*
X44898602Y111678688D01*
X44777952Y111510413D01*
X44571577Y111385001D01*
X44363614Y111335788D01*
X44187402Y111335788D01*
X43944514Y111402463D01*
X43809180Y111488982D01*
X43704802Y111615188D01*
X43638127Y111785845D01*
X43615902Y112005714D01*
X43615902Y112066038D01*
X43638921Y112254157D01*
X43707977Y112399413D01*
X43811958Y112506570D01*
X43939752Y112580389D01*
X43837755Y112654207D01*
X43754014Y112767714D01*
X43698055Y112921701D01*
X43679402Y113116964D01*
X43698055Y113302304D01*
X43754014Y113445576D01*
X43842518Y113550748D01*
X43958802Y113621789D01*
X44099296Y113662270D01*
X44260427Y113675764D01*
X44433464Y113662270D01*
G37*
G36*
X42884064Y113662270D02*
G01*
X43022177Y113621789D01*
X43211089Y113486851D01*
X43306339Y113318576D01*
X43333327Y113164589D01*
X43323802Y113091564D01*
X43292052Y113053464D01*
X43225377Y113043939D01*
X43147589Y113072514D01*
X43123777Y113145539D01*
X43107902Y113256664D01*
X43047577Y113366201D01*
X42922164Y113451926D01*
X42717377Y113485264D01*
X42544339Y113459864D01*
X42425277Y113383664D01*
X42356221Y113255870D01*
X42333202Y113075689D01*
X42379239Y112831214D01*
X42514177Y112705801D01*
X42730077Y112669289D01*
X42790402Y112640714D01*
X42809452Y112577214D01*
X42790402Y112515301D01*
X42730077Y112488313D01*
X42544339Y112462913D01*
X42399877Y112386713D01*
X42307008Y112255745D01*
X42276052Y112066038D01*
X42276052Y112005714D01*
X42305421Y111793385D01*
X42393527Y111645351D01*
X42537990Y111558435D01*
X42736427Y111529463D01*
X42952327Y111564388D01*
X43088852Y111653288D01*
X43160289Y111769176D01*
X43180927Y111881888D01*
X43203152Y111946976D01*
X43292052Y111970788D01*
X43363489Y111948563D01*
X43387302Y111859663D01*
X43349202Y111678688D01*
X43228552Y111510413D01*
X43022177Y111385001D01*
X42814214Y111335788D01*
X42638002Y111335788D01*
X42395114Y111402463D01*
X42259780Y111488982D01*
X42155402Y111615188D01*
X42088727Y111785845D01*
X42066502Y112005714D01*
X42066502Y112066038D01*
X42089521Y112254157D01*
X42158577Y112399413D01*
X42262558Y112506570D01*
X42390352Y112580389D01*
X42288355Y112654207D01*
X42204614Y112767714D01*
X42148655Y112921701D01*
X42130002Y113116964D01*
X42148655Y113302304D01*
X42204614Y113445576D01*
X42293118Y113550748D01*
X42409402Y113621789D01*
X42549896Y113662270D01*
X42711027Y113675764D01*
X42884064Y113662270D01*
G37*
G36*
X115009015Y112586739D02*
G01*
X115042352Y112504188D01*
X115009015Y112421638D01*
X114924877Y112386713D01*
X114842327Y112421638D01*
X114810577Y112504188D01*
X114842327Y112586739D01*
X114924877Y112618489D01*
X115009015Y112586739D01*
G37*
G36*
X108387552Y113664651D02*
G01*
X108419302Y113631314D01*
X108679652Y113263014D01*
X108711402Y113220151D01*
X108727277Y113167764D01*
X108703464Y113104264D01*
X108644727Y113075689D01*
X108612977Y113085214D01*
X108584402Y113113789D01*
X108457402Y113320164D01*
X108457402Y111437388D01*
X108425652Y111375476D01*
X108373264Y111354838D01*
X108333577Y111354838D01*
X108281189Y111375476D01*
X108247852Y111437388D01*
X108247852Y113599564D01*
X108276427Y113658301D01*
X108339927Y113678939D01*
X108387552Y113664651D01*
G37*
G36*
X104810914Y113650364D02*
G01*
X104841077Y113596389D01*
X104841077Y113116964D01*
X104809327Y113061401D01*
X104736302Y113037589D01*
X104663277Y113061401D01*
X104631527Y113116964D01*
X104631527Y113482089D01*
X103729827Y113482089D01*
X103729827Y113310639D01*
X104679152Y111494538D01*
X104691852Y111450088D01*
X104674389Y111396113D01*
X104626764Y111362776D01*
X104580727Y111351663D01*
X104539452Y111351663D01*
X104495002Y111389763D01*
X103552027Y113231264D01*
X103528214Y113278889D01*
X103520277Y113323339D01*
X103520277Y113596389D01*
X103552027Y113650364D01*
X103618702Y113675764D01*
X104745827Y113675764D01*
X104810914Y113650364D01*
G37*
G36*
X113924752Y112859789D02*
G01*
X113973965Y112820101D01*
X113994602Y112770889D01*
X113988252Y112750251D01*
X113978727Y112729614D01*
X113565977Y112113663D01*
X113988252Y111478663D01*
X114000952Y111434213D01*
X113980315Y111388176D01*
X113931102Y111348488D01*
X113891415Y111332613D01*
X113870777Y111332613D01*
X113843790Y111340551D01*
X113813627Y111364363D01*
X113429452Y111958088D01*
X113042102Y111364363D01*
X113015115Y111340551D01*
X112981777Y111332613D01*
X112924627Y111348488D01*
X112877002Y111388176D01*
X112857952Y111434213D01*
X112861127Y111459613D01*
X112870652Y111478663D01*
X113296102Y112113663D01*
X112880177Y112729614D01*
X112864302Y112770889D01*
X112884940Y112823276D01*
X112934152Y112861376D01*
X112991302Y112875664D01*
X113024640Y112867726D01*
X113051627Y112843914D01*
X113429452Y112262888D01*
X113804102Y112843914D01*
X113834265Y112869314D01*
X113867602Y112875664D01*
X113924752Y112859789D01*
G37*
G36*
X115585277Y112015238D02*
G01*
X115563449Y111792195D01*
X115497965Y111618363D01*
X115395174Y111489776D01*
X115261427Y111402463D01*
X115020127Y111335788D01*
X114834390Y111335788D01*
X114591502Y111402463D01*
X114457358Y111489776D01*
X114353377Y111618363D01*
X114286702Y111792195D01*
X114264477Y112015238D01*
X114474027Y112015238D01*
X114504190Y111797751D01*
X114594677Y111646938D01*
X114738346Y111558832D01*
X114928052Y111529463D01*
X115116965Y111558832D01*
X115258252Y111646938D01*
X115346358Y111797751D01*
X115375727Y112015238D01*
X115375727Y112999489D01*
X115346358Y113214595D01*
X115258252Y113364614D01*
X115116965Y113452720D01*
X114928052Y113482089D01*
X114738346Y113452720D01*
X114594677Y113364614D01*
X114504190Y113214595D01*
X114474027Y112999489D01*
X114474027Y112015238D01*
X114264477Y112015238D01*
X114264477Y112999489D01*
X114286702Y113220151D01*
X114353377Y113393189D01*
X114457358Y113521776D01*
X114591502Y113609089D01*
X114750252Y113659095D01*
X114928052Y113675764D01*
X115105455Y113659095D01*
X115263015Y113609089D01*
X115395571Y113521776D01*
X115497965Y113393189D01*
X115563449Y113220151D01*
X115585277Y112999489D01*
X115585277Y112015238D01*
G37*
G36*
X112072536Y113659095D02*
G01*
X112230890Y113609089D01*
X112366621Y113521776D01*
X112472190Y113393189D01*
X112540055Y113220151D01*
X112562677Y112999489D01*
X112562677Y112015238D01*
X112540452Y111792195D01*
X112473777Y111618363D01*
X112369399Y111489776D01*
X112234065Y111402463D01*
X111994352Y111335788D01*
X111800677Y111335788D01*
X111685186Y111354442D01*
X111548265Y111410401D01*
X111417693Y111496920D01*
X111321252Y111607251D01*
X111261721Y111734648D01*
X111241877Y111872363D01*
X111268865Y111975551D01*
X111349827Y112002538D01*
X111422852Y111981901D01*
X111451427Y111919988D01*
X111476827Y111794576D01*
X111535565Y111667576D01*
X111660977Y111569151D01*
X111886402Y111529463D01*
X112087618Y111558832D01*
X112234065Y111646938D01*
X112323361Y111797751D01*
X112353127Y112015238D01*
X112353127Y112999489D01*
X112323758Y113214595D01*
X112235652Y113364614D01*
X112091983Y113452720D01*
X111895927Y113482089D01*
X111668915Y113442401D01*
X111535565Y113342389D01*
X111472065Y113215389D01*
X111451427Y113097914D01*
X111427615Y113042351D01*
X111346652Y113018539D01*
X111268865Y113043939D01*
X111241877Y113145539D01*
X111261324Y113282857D01*
X111319665Y113409064D01*
X111414518Y113517807D01*
X111543502Y113602739D01*
X111705427Y113657507D01*
X111899102Y113675764D01*
X112072536Y113659095D01*
G37*
G36*
X110846590Y111378651D02*
G01*
X110798965Y111354838D01*
X110720824Y111354838D01*
X110513920Y111354838D01*
X110178252Y111354838D01*
X110011565Y111370713D01*
X109860752Y111418338D01*
X109732958Y111501682D01*
X109635327Y111624713D01*
X109573415Y111792195D01*
X109552777Y112008888D01*
X109552777Y112018413D01*
X109762327Y112018413D01*
X109791696Y111806879D01*
X109879802Y111661226D01*
X110020296Y111576692D01*
X110206827Y111548513D01*
X110664027Y111548513D01*
X110664027Y112523239D01*
X110206827Y112523239D01*
X110020296Y112497838D01*
X109879802Y112421638D01*
X109791696Y112283526D01*
X109762327Y112072388D01*
X109762327Y112018413D01*
X109552777Y112018413D01*
X109552777Y112066038D01*
X109563096Y112216057D01*
X109594052Y112335913D01*
X109708352Y112507364D01*
X109879802Y112612139D01*
X109770661Y112686354D01*
X109684540Y112801051D01*
X109628580Y112952260D01*
X109612183Y113113789D01*
X109819477Y113113789D01*
X109845671Y112921701D01*
X109924252Y112796289D01*
X110058396Y112727232D01*
X110251277Y112704214D01*
X110664027Y112704214D01*
X110664027Y113482089D01*
X110263977Y113482089D01*
X110032202Y113451926D01*
X109876627Y113342389D01*
X109819477Y113113789D01*
X109612183Y113113789D01*
X109609927Y113136014D01*
X109631755Y113334054D01*
X109697240Y113477326D01*
X109799633Y113574560D01*
X109932190Y113634489D01*
X110087368Y113665445D01*
X110257627Y113675764D01*
X110778327Y113675764D01*
X110843415Y113655126D01*
X110873577Y113596389D01*
X110873577Y111434213D01*
X110846590Y111378651D01*
G37*
G36*
X107433464Y113662270D02*
G01*
X107571577Y113621789D01*
X107760489Y113486851D01*
X107855739Y113318576D01*
X107882727Y113164589D01*
X107873202Y113091564D01*
X107841452Y113053464D01*
X107774777Y113043939D01*
X107696989Y113072514D01*
X107673177Y113145539D01*
X107657302Y113256664D01*
X107596977Y113366201D01*
X107471564Y113451926D01*
X107266777Y113485264D01*
X107093739Y113459864D01*
X106974677Y113383664D01*
X106905621Y113255870D01*
X106882602Y113075689D01*
X106928639Y112831214D01*
X107063577Y112705801D01*
X107279477Y112669289D01*
X107339802Y112640714D01*
X107358852Y112577214D01*
X107339802Y112515301D01*
X107279477Y112488313D01*
X107093739Y112462913D01*
X106949277Y112386713D01*
X106856408Y112255745D01*
X106825452Y112066038D01*
X106825452Y112005714D01*
X106854821Y111793385D01*
X106942927Y111645351D01*
X107087389Y111558435D01*
X107285827Y111529463D01*
X107501727Y111564388D01*
X107638252Y111653288D01*
X107709689Y111769176D01*
X107730327Y111881888D01*
X107752552Y111946976D01*
X107841452Y111970788D01*
X107912889Y111948563D01*
X107936702Y111859663D01*
X107898602Y111678688D01*
X107777952Y111510413D01*
X107571577Y111385001D01*
X107363614Y111335788D01*
X107187402Y111335788D01*
X106944514Y111402463D01*
X106809180Y111488982D01*
X106704802Y111615188D01*
X106638127Y111785845D01*
X106615902Y112005714D01*
X106615902Y112066038D01*
X106638921Y112254157D01*
X106707977Y112399413D01*
X106811958Y112506570D01*
X106939752Y112580389D01*
X106837755Y112654207D01*
X106754014Y112767714D01*
X106698055Y112921701D01*
X106679402Y113116964D01*
X106698055Y113302304D01*
X106754014Y113445576D01*
X106842518Y113550748D01*
X106958802Y113621789D01*
X107099296Y113662270D01*
X107260427Y113675764D01*
X107433464Y113662270D01*
G37*
G36*
X105884064Y113662270D02*
G01*
X106022177Y113621789D01*
X106211089Y113486851D01*
X106306339Y113318576D01*
X106333327Y113164589D01*
X106323802Y113091564D01*
X106292052Y113053464D01*
X106225377Y113043939D01*
X106147589Y113072514D01*
X106123777Y113145539D01*
X106107902Y113256664D01*
X106047577Y113366201D01*
X105922164Y113451926D01*
X105717377Y113485264D01*
X105544339Y113459864D01*
X105425277Y113383664D01*
X105356221Y113255870D01*
X105333202Y113075689D01*
X105379239Y112831214D01*
X105514177Y112705801D01*
X105730077Y112669289D01*
X105790402Y112640714D01*
X105809452Y112577214D01*
X105790402Y112515301D01*
X105730077Y112488313D01*
X105544339Y112462913D01*
X105399877Y112386713D01*
X105307008Y112255745D01*
X105276052Y112066038D01*
X105276052Y112005714D01*
X105305421Y111793385D01*
X105393527Y111645351D01*
X105537990Y111558435D01*
X105736427Y111529463D01*
X105952327Y111564388D01*
X106088852Y111653288D01*
X106160289Y111769176D01*
X106180927Y111881888D01*
X106203152Y111946976D01*
X106292052Y111970788D01*
X106363489Y111948563D01*
X106387302Y111859663D01*
X106349202Y111678688D01*
X106228552Y111510413D01*
X106022177Y111385001D01*
X105814214Y111335788D01*
X105638002Y111335788D01*
X105395114Y111402463D01*
X105259780Y111488982D01*
X105155402Y111615188D01*
X105088727Y111785845D01*
X105066502Y112005714D01*
X105066502Y112066038D01*
X105089521Y112254157D01*
X105158577Y112399413D01*
X105262558Y112506570D01*
X105390352Y112580389D01*
X105288355Y112654207D01*
X105204614Y112767714D01*
X105148655Y112921701D01*
X105130002Y113116964D01*
X105148655Y113302304D01*
X105204614Y113445576D01*
X105293118Y113550748D01*
X105409402Y113621789D01*
X105549896Y113662270D01*
X105711027Y113675764D01*
X105884064Y113662270D01*
G37*
G36*
X22157677Y28578367D02*
G01*
X22189427Y28495817D01*
X22157677Y28413266D01*
X22075127Y28381516D01*
X21990989Y28413266D01*
X21957652Y28495817D01*
X21990989Y28578367D01*
X22075127Y28613292D01*
X22157677Y28578367D01*
G37*
G36*
X28718815Y29624529D02*
G01*
X28752152Y29562617D01*
X28752152Y27400441D01*
X28723577Y27341704D01*
X28660077Y27321066D01*
X28612452Y27335354D01*
X28580702Y27368691D01*
X28320352Y27736991D01*
X28288602Y27779854D01*
X28272727Y27832241D01*
X28296540Y27895741D01*
X28355277Y27924316D01*
X28387027Y27914791D01*
X28415602Y27886216D01*
X28542602Y27679841D01*
X28542602Y29562617D01*
X28574352Y29624529D01*
X28626740Y29645167D01*
X28666427Y29645167D01*
X28718815Y29624529D01*
G37*
G36*
X32505002Y29610242D02*
G01*
X33447977Y27768741D01*
X33471790Y27721116D01*
X33479727Y27676666D01*
X33479727Y27403616D01*
X33447977Y27349641D01*
X33381302Y27324241D01*
X32254177Y27324241D01*
X32189090Y27349641D01*
X32158927Y27403616D01*
X32158927Y27883041D01*
X32190677Y27938604D01*
X32263702Y27962416D01*
X32336727Y27938604D01*
X32368477Y27883041D01*
X32368477Y27517916D01*
X33270177Y27517916D01*
X33270177Y27689366D01*
X32320852Y29505467D01*
X32308152Y29549917D01*
X32325615Y29603892D01*
X32373240Y29637229D01*
X32419277Y29648342D01*
X32460552Y29648342D01*
X32505002Y29610242D01*
G37*
G36*
X23156214Y29659454D02*
G01*
X23186377Y29635642D01*
X23570552Y29041917D01*
X23957902Y29635642D01*
X23984889Y29659454D01*
X24018227Y29667392D01*
X24075377Y29651517D01*
X24123002Y29611829D01*
X24142052Y29565792D01*
X24138877Y29540392D01*
X24129352Y29521342D01*
X23703902Y28886342D01*
X24119827Y28270391D01*
X24135702Y28229116D01*
X24115064Y28176729D01*
X24065852Y28138629D01*
X24008702Y28124341D01*
X23975364Y28132279D01*
X23948377Y28156091D01*
X23570552Y28737117D01*
X23195902Y28156091D01*
X23165739Y28130691D01*
X23132402Y28124341D01*
X23075252Y28140216D01*
X23026039Y28179904D01*
X23005402Y28229116D01*
X23011752Y28249754D01*
X23021277Y28270391D01*
X23434027Y28886342D01*
X23011752Y29521342D01*
X22999052Y29565792D01*
X23019689Y29611829D01*
X23068902Y29651517D01*
X23108589Y29667392D01*
X23129227Y29667392D01*
X23156214Y29659454D01*
G37*
G36*
X21414727Y28984767D02*
G01*
X21436555Y29207810D01*
X21502039Y29381642D01*
X21604830Y29510229D01*
X21738577Y29597542D01*
X21979877Y29664217D01*
X22165614Y29664217D01*
X22408502Y29597542D01*
X22542646Y29510229D01*
X22646627Y29381642D01*
X22713302Y29207810D01*
X22735527Y28984767D01*
X22735527Y28000516D01*
X22713302Y27779854D01*
X22646627Y27606816D01*
X22542646Y27478229D01*
X22408502Y27390916D01*
X22249752Y27340910D01*
X22071952Y27324241D01*
X21894549Y27340910D01*
X21736989Y27390916D01*
X21604433Y27478229D01*
X21502039Y27606816D01*
X21436555Y27779854D01*
X21414727Y28000516D01*
X21624277Y28000516D01*
X21653646Y27785410D01*
X21741752Y27635391D01*
X21883039Y27547285D01*
X22071952Y27517916D01*
X22261658Y27547285D01*
X22405327Y27635391D01*
X22495814Y27785410D01*
X22525977Y28000516D01*
X22525977Y28984767D01*
X22495814Y29202254D01*
X22405327Y29353067D01*
X22261658Y29441173D01*
X22071952Y29470542D01*
X21883039Y29441173D01*
X21741752Y29353067D01*
X21653646Y29202254D01*
X21624277Y28984767D01*
X21624277Y28000516D01*
X21414727Y28000516D01*
X21414727Y28984767D01*
G37*
G36*
X25314818Y29645563D02*
G01*
X25451739Y29589604D01*
X25582311Y29503085D01*
X25678752Y29392754D01*
X25738283Y29265357D01*
X25758127Y29127642D01*
X25731139Y29024454D01*
X25650177Y28997467D01*
X25577152Y29018104D01*
X25548577Y29080017D01*
X25523177Y29205429D01*
X25464439Y29332429D01*
X25339027Y29430854D01*
X25113602Y29470542D01*
X24912386Y29441173D01*
X24765939Y29353067D01*
X24676643Y29202254D01*
X24646877Y28984767D01*
X24646877Y28000516D01*
X24676246Y27785410D01*
X24764352Y27635391D01*
X24908021Y27547285D01*
X25104077Y27517916D01*
X25331089Y27557604D01*
X25464439Y27657616D01*
X25527939Y27784616D01*
X25548577Y27902091D01*
X25572389Y27957654D01*
X25653352Y27981466D01*
X25731139Y27956066D01*
X25758127Y27854466D01*
X25738680Y27717148D01*
X25680339Y27590941D01*
X25585486Y27482198D01*
X25456502Y27397266D01*
X25294577Y27342498D01*
X25100902Y27324241D01*
X24927468Y27340910D01*
X24769114Y27390916D01*
X24633383Y27478229D01*
X24527814Y27606816D01*
X24459949Y27779854D01*
X24437327Y28000516D01*
X24437327Y28984767D01*
X24459552Y29207810D01*
X24526227Y29381642D01*
X24630605Y29510229D01*
X24765939Y29597542D01*
X25005652Y29664217D01*
X25199327Y29664217D01*
X25314818Y29645563D01*
G37*
G36*
X26126427Y29565792D02*
G01*
X26153414Y29621354D01*
X26201039Y29645167D01*
X26279180Y29645167D01*
X26486084Y29645167D01*
X26821752Y29645167D01*
X26988439Y29629292D01*
X27139252Y29581667D01*
X27267046Y29498323D01*
X27364677Y29375292D01*
X27426589Y29207810D01*
X27447227Y28991117D01*
X27447227Y28933967D01*
X27436908Y28783948D01*
X27405952Y28664092D01*
X27291652Y28492641D01*
X27120202Y28387866D01*
X27229343Y28313651D01*
X27315464Y28198954D01*
X27371424Y28047745D01*
X27390077Y27863991D01*
X27368249Y27665951D01*
X27302764Y27522679D01*
X27200371Y27425445D01*
X27067814Y27365516D01*
X26912636Y27334560D01*
X26742377Y27324241D01*
X26221677Y27324241D01*
X26156589Y27344879D01*
X26126427Y27403616D01*
X26126427Y27517916D01*
X26335977Y27517916D01*
X26736027Y27517916D01*
X26967802Y27548079D01*
X27123377Y27657616D01*
X27180527Y27886216D01*
X27154333Y28078304D01*
X27075752Y28203716D01*
X26941608Y28272773D01*
X26748727Y28295791D01*
X26335977Y28295791D01*
X26335977Y27517916D01*
X26126427Y27517916D01*
X26126427Y29451492D01*
X26335977Y29451492D01*
X26335977Y28476766D01*
X26793177Y28476766D01*
X26979708Y28502167D01*
X27120202Y28578367D01*
X27208308Y28716479D01*
X27237677Y28927617D01*
X27237677Y28981592D01*
X27208308Y29193126D01*
X27120202Y29338779D01*
X26979708Y29423313D01*
X26793177Y29451492D01*
X26335977Y29451492D01*
X26126427Y29451492D01*
X26126427Y29565792D01*
G37*
G36*
X30055490Y29597542D02*
G01*
X30190824Y29511023D01*
X30295202Y29384817D01*
X30361877Y29214160D01*
X30384102Y28994291D01*
X30384102Y28933967D01*
X30361083Y28745848D01*
X30292027Y28600592D01*
X30188046Y28493435D01*
X30060252Y28419616D01*
X30162249Y28345798D01*
X30245990Y28232291D01*
X30301949Y28078304D01*
X30320602Y27883041D01*
X30301949Y27697701D01*
X30245990Y27554429D01*
X30157486Y27449257D01*
X30041202Y27378216D01*
X29900708Y27337735D01*
X29739577Y27324241D01*
X29566540Y27337735D01*
X29428427Y27378216D01*
X29239515Y27513154D01*
X29144265Y27681429D01*
X29117277Y27835416D01*
X29126802Y27908441D01*
X29158552Y27946541D01*
X29225227Y27956066D01*
X29303015Y27927491D01*
X29326827Y27854466D01*
X29342702Y27743341D01*
X29403027Y27633804D01*
X29528440Y27548079D01*
X29733227Y27514741D01*
X29906265Y27540141D01*
X30025327Y27616341D01*
X30094383Y27744135D01*
X30117402Y27924316D01*
X30071365Y28168791D01*
X29936427Y28294204D01*
X29720527Y28330716D01*
X29660202Y28359291D01*
X29641152Y28422791D01*
X29660202Y28484704D01*
X29720527Y28511692D01*
X29906265Y28537092D01*
X30050727Y28613292D01*
X30143596Y28744260D01*
X30174552Y28933967D01*
X30174552Y28994291D01*
X30145183Y29206620D01*
X30057077Y29354654D01*
X29912615Y29441570D01*
X29714177Y29470542D01*
X29498277Y29435617D01*
X29361752Y29346717D01*
X29290315Y29230829D01*
X29269677Y29118117D01*
X29247452Y29053029D01*
X29158552Y29029217D01*
X29087115Y29051442D01*
X29063302Y29140342D01*
X29101402Y29321317D01*
X29222052Y29489592D01*
X29428427Y29615004D01*
X29636390Y29664217D01*
X29812602Y29664217D01*
X30055490Y29597542D01*
G37*
G36*
X31604890Y29597542D02*
G01*
X31740224Y29511023D01*
X31844602Y29384817D01*
X31911277Y29214160D01*
X31933502Y28994291D01*
X31933502Y28933967D01*
X31910483Y28745848D01*
X31841427Y28600592D01*
X31737446Y28493435D01*
X31609652Y28419616D01*
X31711649Y28345798D01*
X31795390Y28232291D01*
X31851349Y28078304D01*
X31870002Y27883041D01*
X31851349Y27697701D01*
X31795390Y27554429D01*
X31706886Y27449257D01*
X31590602Y27378216D01*
X31450108Y27337735D01*
X31288977Y27324241D01*
X31115940Y27337735D01*
X30977827Y27378216D01*
X30788915Y27513154D01*
X30693665Y27681429D01*
X30666677Y27835416D01*
X30676202Y27908441D01*
X30707952Y27946541D01*
X30774627Y27956066D01*
X30852415Y27927491D01*
X30876227Y27854466D01*
X30892102Y27743341D01*
X30952427Y27633804D01*
X31077840Y27548079D01*
X31282627Y27514741D01*
X31455665Y27540141D01*
X31574727Y27616341D01*
X31643783Y27744135D01*
X31666802Y27924316D01*
X31620765Y28168791D01*
X31485827Y28294204D01*
X31269927Y28330716D01*
X31209602Y28359291D01*
X31190552Y28422791D01*
X31209602Y28484704D01*
X31269927Y28511692D01*
X31455665Y28537092D01*
X31600127Y28613292D01*
X31692996Y28744260D01*
X31723952Y28933967D01*
X31723952Y28994291D01*
X31694583Y29206620D01*
X31606477Y29354654D01*
X31462014Y29441570D01*
X31263577Y29470542D01*
X31047677Y29435617D01*
X30911152Y29346717D01*
X30839715Y29230829D01*
X30819077Y29118117D01*
X30796852Y29053029D01*
X30707952Y29029217D01*
X30636515Y29051442D01*
X30612702Y29140342D01*
X30650802Y29321317D01*
X30771452Y29489592D01*
X30977827Y29615004D01*
X31185790Y29664217D01*
X31362002Y29664217D01*
X31604890Y29597542D01*
G37*
G36*
X85157677Y28578367D02*
G01*
X85189427Y28495817D01*
X85157677Y28413266D01*
X85075127Y28381516D01*
X84990989Y28413266D01*
X84957652Y28495817D01*
X84990989Y28578367D01*
X85075127Y28613292D01*
X85157677Y28578367D01*
G37*
G36*
X91718815Y29624529D02*
G01*
X91752152Y29562617D01*
X91752152Y27400441D01*
X91723577Y27341704D01*
X91660077Y27321066D01*
X91612452Y27335354D01*
X91580702Y27368691D01*
X91320352Y27736991D01*
X91288602Y27779854D01*
X91272727Y27832241D01*
X91296540Y27895741D01*
X91355277Y27924316D01*
X91387027Y27914791D01*
X91415602Y27886216D01*
X91542602Y27679841D01*
X91542602Y29562617D01*
X91574352Y29624529D01*
X91626740Y29645167D01*
X91666427Y29645167D01*
X91718815Y29624529D01*
G37*
G36*
X95505002Y29610242D02*
G01*
X96447977Y27768741D01*
X96471790Y27721116D01*
X96479727Y27676666D01*
X96479727Y27403616D01*
X96447977Y27349641D01*
X96381302Y27324241D01*
X95254177Y27324241D01*
X95189090Y27349641D01*
X95158927Y27403616D01*
X95158927Y27883041D01*
X95190677Y27938604D01*
X95263702Y27962416D01*
X95336727Y27938604D01*
X95368477Y27883041D01*
X95368477Y27517916D01*
X96270177Y27517916D01*
X96270177Y27689366D01*
X95320852Y29505467D01*
X95308152Y29549917D01*
X95325615Y29603892D01*
X95373240Y29637229D01*
X95419277Y29648342D01*
X95460552Y29648342D01*
X95505002Y29610242D01*
G37*
G36*
X86156214Y29659454D02*
G01*
X86186377Y29635642D01*
X86570552Y29041917D01*
X86957902Y29635642D01*
X86984889Y29659454D01*
X87018227Y29667392D01*
X87075377Y29651517D01*
X87123002Y29611829D01*
X87142052Y29565792D01*
X87138877Y29540392D01*
X87129352Y29521342D01*
X86703902Y28886342D01*
X87119827Y28270391D01*
X87135702Y28229116D01*
X87115064Y28176729D01*
X87065852Y28138629D01*
X87008702Y28124341D01*
X86975364Y28132279D01*
X86948377Y28156091D01*
X86570552Y28737117D01*
X86195902Y28156091D01*
X86165739Y28130691D01*
X86132402Y28124341D01*
X86075252Y28140216D01*
X86026039Y28179904D01*
X86005402Y28229116D01*
X86011752Y28249754D01*
X86021277Y28270391D01*
X86434027Y28886342D01*
X86011752Y29521342D01*
X85999052Y29565792D01*
X86019689Y29611829D01*
X86068902Y29651517D01*
X86108589Y29667392D01*
X86129227Y29667392D01*
X86156214Y29659454D01*
G37*
G36*
X84414727Y28984767D02*
G01*
X84436555Y29207810D01*
X84502039Y29381642D01*
X84604830Y29510229D01*
X84738577Y29597542D01*
X84979877Y29664217D01*
X85165614Y29664217D01*
X85408502Y29597542D01*
X85542646Y29510229D01*
X85646627Y29381642D01*
X85713302Y29207810D01*
X85735527Y28984767D01*
X85735527Y28000516D01*
X85713302Y27779854D01*
X85646627Y27606816D01*
X85542646Y27478229D01*
X85408502Y27390916D01*
X85249752Y27340910D01*
X85071952Y27324241D01*
X84894549Y27340910D01*
X84736989Y27390916D01*
X84604433Y27478229D01*
X84502039Y27606816D01*
X84436555Y27779854D01*
X84414727Y28000516D01*
X84624277Y28000516D01*
X84653646Y27785410D01*
X84741752Y27635391D01*
X84883039Y27547285D01*
X85071952Y27517916D01*
X85261658Y27547285D01*
X85405327Y27635391D01*
X85495814Y27785410D01*
X85525977Y28000516D01*
X85525977Y28984767D01*
X85495814Y29202254D01*
X85405327Y29353067D01*
X85261658Y29441173D01*
X85071952Y29470542D01*
X84883039Y29441173D01*
X84741752Y29353067D01*
X84653646Y29202254D01*
X84624277Y28984767D01*
X84624277Y28000516D01*
X84414727Y28000516D01*
X84414727Y28984767D01*
G37*
G36*
X88314818Y29645563D02*
G01*
X88451739Y29589604D01*
X88582311Y29503085D01*
X88678752Y29392754D01*
X88738283Y29265357D01*
X88758127Y29127642D01*
X88731139Y29024454D01*
X88650177Y28997467D01*
X88577152Y29018104D01*
X88548577Y29080017D01*
X88523177Y29205429D01*
X88464439Y29332429D01*
X88339027Y29430854D01*
X88113602Y29470542D01*
X87912386Y29441173D01*
X87765939Y29353067D01*
X87676643Y29202254D01*
X87646877Y28984767D01*
X87646877Y28000516D01*
X87676246Y27785410D01*
X87764352Y27635391D01*
X87908021Y27547285D01*
X88104077Y27517916D01*
X88331089Y27557604D01*
X88464439Y27657616D01*
X88527939Y27784616D01*
X88548577Y27902091D01*
X88572389Y27957654D01*
X88653352Y27981466D01*
X88731139Y27956066D01*
X88758127Y27854466D01*
X88738680Y27717148D01*
X88680339Y27590941D01*
X88585486Y27482198D01*
X88456502Y27397266D01*
X88294577Y27342498D01*
X88100902Y27324241D01*
X87927468Y27340910D01*
X87769114Y27390916D01*
X87633383Y27478229D01*
X87527814Y27606816D01*
X87459949Y27779854D01*
X87437327Y28000516D01*
X87437327Y28984767D01*
X87459552Y29207810D01*
X87526227Y29381642D01*
X87630605Y29510229D01*
X87765939Y29597542D01*
X88005652Y29664217D01*
X88199327Y29664217D01*
X88314818Y29645563D01*
G37*
G36*
X89126427Y29565792D02*
G01*
X89153414Y29621354D01*
X89201039Y29645167D01*
X89279180Y29645167D01*
X89486084Y29645167D01*
X89821752Y29645167D01*
X89988439Y29629292D01*
X90139252Y29581667D01*
X90267046Y29498323D01*
X90364677Y29375292D01*
X90426589Y29207810D01*
X90447227Y28991117D01*
X90447227Y28933967D01*
X90436908Y28783948D01*
X90405952Y28664092D01*
X90291652Y28492641D01*
X90120202Y28387866D01*
X90229343Y28313651D01*
X90315464Y28198954D01*
X90371424Y28047745D01*
X90390077Y27863991D01*
X90368249Y27665951D01*
X90302764Y27522679D01*
X90200371Y27425445D01*
X90067814Y27365516D01*
X89912636Y27334560D01*
X89742377Y27324241D01*
X89221677Y27324241D01*
X89156589Y27344879D01*
X89126427Y27403616D01*
X89126427Y27517916D01*
X89335977Y27517916D01*
X89736027Y27517916D01*
X89967802Y27548079D01*
X90123377Y27657616D01*
X90180527Y27886216D01*
X90154333Y28078304D01*
X90075752Y28203716D01*
X89941608Y28272773D01*
X89748727Y28295791D01*
X89335977Y28295791D01*
X89335977Y27517916D01*
X89126427Y27517916D01*
X89126427Y29451492D01*
X89335977Y29451492D01*
X89335977Y28476766D01*
X89793177Y28476766D01*
X89979708Y28502167D01*
X90120202Y28578367D01*
X90208308Y28716479D01*
X90237677Y28927617D01*
X90237677Y28981592D01*
X90208308Y29193126D01*
X90120202Y29338779D01*
X89979708Y29423313D01*
X89793177Y29451492D01*
X89335977Y29451492D01*
X89126427Y29451492D01*
X89126427Y29565792D01*
G37*
G36*
X93055490Y29597542D02*
G01*
X93190824Y29511023D01*
X93295202Y29384817D01*
X93361877Y29214160D01*
X93384102Y28994291D01*
X93384102Y28933967D01*
X93361083Y28745848D01*
X93292027Y28600592D01*
X93188046Y28493435D01*
X93060252Y28419616D01*
X93162249Y28345798D01*
X93245990Y28232291D01*
X93301949Y28078304D01*
X93320602Y27883041D01*
X93301949Y27697701D01*
X93245990Y27554429D01*
X93157486Y27449257D01*
X93041202Y27378216D01*
X92900708Y27337735D01*
X92739577Y27324241D01*
X92566540Y27337735D01*
X92428427Y27378216D01*
X92239515Y27513154D01*
X92144265Y27681429D01*
X92117277Y27835416D01*
X92126802Y27908441D01*
X92158552Y27946541D01*
X92225227Y27956066D01*
X92303015Y27927491D01*
X92326827Y27854466D01*
X92342702Y27743341D01*
X92403027Y27633804D01*
X92528440Y27548079D01*
X92733227Y27514741D01*
X92906265Y27540141D01*
X93025327Y27616341D01*
X93094383Y27744135D01*
X93117402Y27924316D01*
X93071365Y28168791D01*
X92936427Y28294204D01*
X92720527Y28330716D01*
X92660202Y28359291D01*
X92641152Y28422791D01*
X92660202Y28484704D01*
X92720527Y28511692D01*
X92906265Y28537092D01*
X93050727Y28613292D01*
X93143596Y28744260D01*
X93174552Y28933967D01*
X93174552Y28994291D01*
X93145183Y29206620D01*
X93057077Y29354654D01*
X92912615Y29441570D01*
X92714177Y29470542D01*
X92498277Y29435617D01*
X92361752Y29346717D01*
X92290315Y29230829D01*
X92269677Y29118117D01*
X92247452Y29053029D01*
X92158552Y29029217D01*
X92087115Y29051442D01*
X92063302Y29140342D01*
X92101402Y29321317D01*
X92222052Y29489592D01*
X92428427Y29615004D01*
X92636390Y29664217D01*
X92812602Y29664217D01*
X93055490Y29597542D01*
G37*
G36*
X94604890Y29597542D02*
G01*
X94740224Y29511023D01*
X94844602Y29384817D01*
X94911277Y29214160D01*
X94933502Y28994291D01*
X94933502Y28933967D01*
X94910483Y28745848D01*
X94841427Y28600592D01*
X94737446Y28493435D01*
X94609652Y28419616D01*
X94711649Y28345798D01*
X94795390Y28232291D01*
X94851349Y28078304D01*
X94870002Y27883041D01*
X94851349Y27697701D01*
X94795390Y27554429D01*
X94706886Y27449257D01*
X94590602Y27378216D01*
X94450108Y27337735D01*
X94288977Y27324241D01*
X94115940Y27337735D01*
X93977827Y27378216D01*
X93788915Y27513154D01*
X93693665Y27681429D01*
X93666677Y27835416D01*
X93676202Y27908441D01*
X93707952Y27946541D01*
X93774627Y27956066D01*
X93852415Y27927491D01*
X93876227Y27854466D01*
X93892102Y27743341D01*
X93952427Y27633804D01*
X94077840Y27548079D01*
X94282627Y27514741D01*
X94455665Y27540141D01*
X94574727Y27616341D01*
X94643783Y27744135D01*
X94666802Y27924316D01*
X94620765Y28168791D01*
X94485827Y28294204D01*
X94269927Y28330716D01*
X94209602Y28359291D01*
X94190552Y28422791D01*
X94209602Y28484704D01*
X94269927Y28511692D01*
X94455665Y28537092D01*
X94600127Y28613292D01*
X94692996Y28744260D01*
X94723952Y28933967D01*
X94723952Y28994291D01*
X94694583Y29206620D01*
X94606477Y29354654D01*
X94462014Y29441570D01*
X94263577Y29470542D01*
X94047677Y29435617D01*
X93911152Y29346717D01*
X93839715Y29230829D01*
X93819077Y29118117D01*
X93796852Y29053029D01*
X93707952Y29029217D01*
X93636515Y29051442D01*
X93612702Y29140342D01*
X93650802Y29321317D01*
X93771452Y29489592D01*
X93977827Y29615004D01*
X94185790Y29664217D01*
X94362002Y29664217D01*
X94604890Y29597542D01*
G37*
D10*
G04 #@! TO.C,C17*
X46992937Y116240776D02*
X47208609Y116240776D01*
X46992937Y115520776D02*
X47208609Y115520776D01*
X109992937Y116240776D02*
X110208609Y116240776D01*
X109992937Y115520776D02*
X110208609Y115520776D01*
X27007067Y24759229D02*
X26791395Y24759229D01*
X27007067Y25479229D02*
X26791395Y25479229D01*
X90007067Y24759229D02*
X89791395Y24759229D01*
X90007067Y25479229D02*
X89791395Y25479229D01*
D12*
G04 #@! TO.C,J3*
X46635773Y79262776D02*
G75*
G03*
X46635773Y79262776I-100000J0D01*
G01*
X109635773Y79262776D02*
G75*
G03*
X109635773Y79262776I-100000J0D01*
G01*
X27564231Y61737229D02*
G75*
G03*
X27564231Y61737229I-100000J0D01*
G01*
X90564231Y61737229D02*
G75*
G03*
X90564231Y61737229I-100000J0D01*
G01*
G04 #@! TO.C,REF\u002A\u002A*
G36*
X24970052Y116116845D02*
G01*
X25053872Y115672221D01*
X25672444Y115417225D01*
X26043484Y115669530D01*
X26116921Y115719270D01*
X26214276Y115784558D01*
X26298564Y115840322D01*
X26365408Y115883698D01*
X26410431Y115911823D01*
X26429255Y115921834D01*
X26440816Y115914715D01*
X26475373Y115884882D01*
X26527671Y115835924D01*
X26593277Y115772336D01*
X26667760Y115698613D01*
X26746690Y115619251D01*
X26825633Y115538745D01*
X26900161Y115461591D01*
X26965840Y115392283D01*
X27018240Y115335319D01*
X27052930Y115295192D01*
X27065478Y115276399D01*
X27062559Y115268325D01*
X27042348Y115232307D01*
X27005440Y115173032D01*
X26954827Y115095146D01*
X26893502Y115003295D01*
X26824456Y114902126D01*
X26786564Y114846950D01*
X26721383Y114750892D01*
X26665500Y114667059D01*
X26621894Y114599999D01*
X26593546Y114554257D01*
X26583434Y114534380D01*
X26583600Y114533279D01*
X26592520Y114508082D01*
X26612983Y114456629D01*
X26642137Y114385641D01*
X26677130Y114301841D01*
X26715109Y114211948D01*
X26753222Y114122685D01*
X26788616Y114040773D01*
X26818439Y113972933D01*
X26839838Y113925886D01*
X26849961Y113906354D01*
X26855951Y113904621D01*
X26892343Y113896807D01*
X26957204Y113883861D01*
X27045342Y113866797D01*
X27151564Y113846625D01*
X27270679Y113824358D01*
X27333460Y113812553D01*
X27448689Y113790028D01*
X27549439Y113769226D01*
X27630203Y113751341D01*
X27685475Y113737568D01*
X27709748Y113729102D01*
X27714108Y113720710D01*
X27721340Y113679704D01*
X27727023Y113611408D01*
X27731159Y113522247D01*
X27733754Y113418648D01*
X27734813Y113307036D01*
X27734338Y113193838D01*
X27732336Y113085480D01*
X27728810Y112988387D01*
X27723764Y112908986D01*
X27717204Y112853704D01*
X27709133Y112828966D01*
X27704235Y112826176D01*
X27667707Y112814207D01*
X27604342Y112798371D01*
X27521463Y112780402D01*
X27426395Y112762035D01*
X27394319Y112756185D01*
X27246170Y112728978D01*
X27129738Y112707113D01*
X27040986Y112689683D01*
X26975880Y112675780D01*
X26930383Y112664499D01*
X26900459Y112654933D01*
X26882071Y112646175D01*
X26871184Y112637319D01*
X26869919Y112635833D01*
X26852115Y112604845D01*
X26825771Y112548142D01*
X26793438Y112472377D01*
X26757670Y112384202D01*
X26721021Y112290269D01*
X26686043Y112197229D01*
X26655290Y112111735D01*
X26631315Y112040440D01*
X26616672Y111989994D01*
X26613913Y111967050D01*
X26615758Y111964073D01*
X26634852Y111935283D01*
X26670761Y111882181D01*
X26720155Y111809659D01*
X26779704Y111722609D01*
X26846080Y111625922D01*
X26864297Y111599320D01*
X26928354Y111503901D01*
X26983714Y111418564D01*
X27027216Y111348371D01*
X27055701Y111298382D01*
X27066009Y111273660D01*
X27063788Y111267160D01*
X27040635Y111235132D01*
X26994954Y111182831D01*
X26930018Y111113777D01*
X26849096Y111031490D01*
X26755462Y110939490D01*
X26701942Y110887995D01*
X26617319Y110807793D01*
X26543252Y110739098D01*
X26483718Y110685524D01*
X26442694Y110650691D01*
X26424158Y110638213D01*
X26411423Y110642838D01*
X26372213Y110664719D01*
X26315272Y110700503D01*
X26248027Y110745659D01*
X26200215Y110778611D01*
X26104762Y110844049D01*
X26002902Y110913548D01*
X25909865Y110976701D01*
X25727609Y111099976D01*
X25574618Y111017256D01*
X25538594Y110998163D01*
X25473080Y110965504D01*
X25422417Y110942957D01*
X25395341Y110934550D01*
X25386480Y110945346D01*
X25364476Y110986453D01*
X25331976Y111054227D01*
X25290787Y111144367D01*
X25242719Y111252571D01*
X25189579Y111374539D01*
X25133176Y111505968D01*
X25075319Y111642558D01*
X25017815Y111780009D01*
X24962474Y111914018D01*
X24911103Y112040285D01*
X24865512Y112154508D01*
X24827509Y112252386D01*
X24798901Y112329619D01*
X24781498Y112381905D01*
X24777108Y112404943D01*
X24777405Y112405616D01*
X24797854Y112426913D01*
X24840627Y112460268D01*
X24896894Y112498765D01*
X24914654Y112510520D01*
X25049791Y112622041D01*
X25161633Y112754870D01*
X25247532Y112903478D01*
X25304839Y113062336D01*
X25330908Y113225916D01*
X25323090Y113388688D01*
X25291421Y113533461D01*
X25234559Y113679652D01*
X25151665Y113810073D01*
X25037908Y113933963D01*
X24993210Y113973541D01*
X24848712Y114071053D01*
X24692615Y114136726D01*
X24529444Y114171146D01*
X24363720Y114174902D01*
X24199969Y114148582D01*
X24042713Y114092773D01*
X23896475Y114008062D01*
X23765781Y113895039D01*
X23655151Y113754289D01*
X23633882Y113719434D01*
X23561587Y113560121D01*
X23523192Y113394224D01*
X23517691Y113226039D01*
X23544078Y113059863D01*
X23601347Y112899992D01*
X23688494Y112750723D01*
X23804513Y112616353D01*
X23948399Y112501177D01*
X23953071Y112498074D01*
X24008741Y112458843D01*
X24050466Y112425490D01*
X24069523Y112404943D01*
X24067119Y112388835D01*
X24052168Y112341932D01*
X24025658Y112269237D01*
X23989397Y112175051D01*
X23945193Y112063678D01*
X23894853Y111939418D01*
X23840184Y111806574D01*
X23782995Y111669449D01*
X23725093Y111532344D01*
X23668287Y111399561D01*
X23614383Y111275402D01*
X23565189Y111164170D01*
X23522514Y111070167D01*
X23488164Y110997694D01*
X23463948Y110951054D01*
X23451674Y110934550D01*
X23441466Y110936785D01*
X23401363Y110952850D01*
X23342095Y110981017D01*
X23272396Y111017256D01*
X23119406Y111099976D01*
X22937150Y110976701D01*
X22883304Y110940197D01*
X22783151Y110871992D01*
X22683302Y110803678D01*
X22598988Y110745659D01*
X22552456Y110714040D01*
X22491977Y110674756D01*
X22447134Y110647864D01*
X22425232Y110637893D01*
X22415822Y110642126D01*
X22381808Y110668055D01*
X22329372Y110713706D01*
X22263078Y110774590D01*
X22187490Y110846215D01*
X22107173Y110924093D01*
X22026690Y111003731D01*
X21950606Y111080641D01*
X21883484Y111150331D01*
X21829889Y111208312D01*
X21794385Y111250092D01*
X21781536Y111271183D01*
X21782277Y111275195D01*
X21797570Y111307856D01*
X21830239Y111364364D01*
X21877127Y111439613D01*
X21935078Y111528501D01*
X22000934Y111625922D01*
X22019404Y111652794D01*
X22084259Y111747353D01*
X22141386Y111830949D01*
X22187455Y111898692D01*
X22219136Y111945690D01*
X22233101Y111967050D01*
X22233445Y111967965D01*
X22229323Y111994098D01*
X22213584Y112047036D01*
X22188781Y112120129D01*
X22157466Y112206724D01*
X22122194Y112300168D01*
X22085517Y112393811D01*
X22049989Y112480999D01*
X22018163Y112555081D01*
X21992593Y112609405D01*
X21975830Y112637319D01*
X21974151Y112639052D01*
X21962149Y112647820D01*
X21941880Y112656661D01*
X21909306Y112666484D01*
X21860393Y112678193D01*
X21791104Y112692696D01*
X21697402Y112710900D01*
X21575253Y112733710D01*
X21420619Y112762035D01*
X21388547Y112767996D01*
X21296670Y112786424D01*
X21219384Y112803884D01*
X21164013Y112818643D01*
X21137882Y112828966D01*
X21133510Y112837579D01*
X21126222Y112878950D01*
X21120446Y112947535D01*
X21116187Y113036908D01*
X21113450Y113140641D01*
X21112239Y113252311D01*
X21112559Y113365489D01*
X21114413Y113473750D01*
X21117807Y113570668D01*
X21122744Y113649817D01*
X21129229Y113704770D01*
X21137266Y113729102D01*
X21145473Y113732697D01*
X21186296Y113744028D01*
X21255301Y113760054D01*
X21346980Y113779581D01*
X21455827Y113801414D01*
X21576335Y113824358D01*
X21642134Y113836617D01*
X21754912Y113857875D01*
X21851984Y113876489D01*
X21928159Y113891448D01*
X21978246Y113901740D01*
X21997053Y113906354D01*
X21997760Y113907305D01*
X22009738Y113931466D01*
X22032571Y113982082D01*
X22063407Y114052438D01*
X22099390Y114135818D01*
X22137668Y114225506D01*
X22175386Y114314787D01*
X22209690Y114396944D01*
X22237726Y114465263D01*
X22256641Y114513028D01*
X22263580Y114533522D01*
X22260519Y114540733D01*
X22240149Y114575048D01*
X22203199Y114632806D01*
X22152637Y114709477D01*
X22091434Y114800528D01*
X22022558Y114901426D01*
X21984771Y114956683D01*
X21919559Y115053561D01*
X21863648Y115138583D01*
X21820018Y115207114D01*
X21791654Y115254516D01*
X21781536Y115276153D01*
X21788567Y115287889D01*
X21817974Y115322958D01*
X21866218Y115376031D01*
X21928870Y115442612D01*
X22001502Y115518202D01*
X22079685Y115598304D01*
X22158991Y115678422D01*
X22234990Y115754058D01*
X22303255Y115820714D01*
X22359357Y115873894D01*
X22398867Y115909100D01*
X22417356Y115921834D01*
X22427620Y115916883D01*
X22465307Y115893919D01*
X22526125Y115854838D01*
X22605690Y115802504D01*
X22699620Y115739780D01*
X22803531Y115669530D01*
X23174571Y115417225D01*
X23483857Y115544723D01*
X23793142Y115672221D01*
X23876963Y116116845D01*
X23960783Y116561469D01*
X24886231Y116561469D01*
X24970052Y116116845D01*
G37*
D13*
X24970052Y116116845D02*
X25053872Y115672221D01*
X25672444Y115417225D01*
X26043484Y115669530D01*
X26116921Y115719270D01*
X26214276Y115784558D01*
X26298564Y115840322D01*
X26365408Y115883698D01*
X26410431Y115911823D01*
X26429255Y115921834D01*
X26440816Y115914715D01*
X26475373Y115884882D01*
X26527671Y115835924D01*
X26593277Y115772336D01*
X26667760Y115698613D01*
X26746690Y115619251D01*
X26825633Y115538745D01*
X26900161Y115461591D01*
X26965840Y115392283D01*
X27018240Y115335319D01*
X27052930Y115295192D01*
X27065478Y115276399D01*
X27062559Y115268325D01*
X27042348Y115232307D01*
X27005440Y115173032D01*
X26954827Y115095146D01*
X26893502Y115003295D01*
X26824456Y114902126D01*
X26786564Y114846950D01*
X26721383Y114750892D01*
X26665500Y114667059D01*
X26621894Y114599999D01*
X26593546Y114554257D01*
X26583434Y114534380D01*
X26583600Y114533279D01*
X26592520Y114508082D01*
X26612983Y114456629D01*
X26642137Y114385641D01*
X26677130Y114301841D01*
X26715109Y114211948D01*
X26753222Y114122685D01*
X26788616Y114040773D01*
X26818439Y113972933D01*
X26839838Y113925886D01*
X26849961Y113906354D01*
X26855951Y113904621D01*
X26892343Y113896807D01*
X26957204Y113883861D01*
X27045342Y113866797D01*
X27151564Y113846625D01*
X27270679Y113824358D01*
X27333460Y113812553D01*
X27448689Y113790028D01*
X27549439Y113769226D01*
X27630203Y113751341D01*
X27685475Y113737568D01*
X27709748Y113729102D01*
X27714108Y113720710D01*
X27721340Y113679704D01*
X27727023Y113611408D01*
X27731159Y113522247D01*
X27733754Y113418648D01*
X27734813Y113307036D01*
X27734338Y113193838D01*
X27732336Y113085480D01*
X27728810Y112988387D01*
X27723764Y112908986D01*
X27717204Y112853704D01*
X27709133Y112828966D01*
X27704235Y112826176D01*
X27667707Y112814207D01*
X27604342Y112798371D01*
X27521463Y112780402D01*
X27426395Y112762035D01*
X27394319Y112756185D01*
X27246170Y112728978D01*
X27129738Y112707113D01*
X27040986Y112689683D01*
X26975880Y112675780D01*
X26930383Y112664499D01*
X26900459Y112654933D01*
X26882071Y112646175D01*
X26871184Y112637319D01*
X26869919Y112635833D01*
X26852115Y112604845D01*
X26825771Y112548142D01*
X26793438Y112472377D01*
X26757670Y112384202D01*
X26721021Y112290269D01*
X26686043Y112197229D01*
X26655290Y112111735D01*
X26631315Y112040440D01*
X26616672Y111989994D01*
X26613913Y111967050D01*
X26615758Y111964073D01*
X26634852Y111935283D01*
X26670761Y111882181D01*
X26720155Y111809659D01*
X26779704Y111722609D01*
X26846080Y111625922D01*
X26864297Y111599320D01*
X26928354Y111503901D01*
X26983714Y111418564D01*
X27027216Y111348371D01*
X27055701Y111298382D01*
X27066009Y111273660D01*
X27063788Y111267160D01*
X27040635Y111235132D01*
X26994954Y111182831D01*
X26930018Y111113777D01*
X26849096Y111031490D01*
X26755462Y110939490D01*
X26701942Y110887995D01*
X26617319Y110807793D01*
X26543252Y110739098D01*
X26483718Y110685524D01*
X26442694Y110650691D01*
X26424158Y110638213D01*
X26411423Y110642838D01*
X26372213Y110664719D01*
X26315272Y110700503D01*
X26248027Y110745659D01*
X26200215Y110778611D01*
X26104762Y110844049D01*
X26002902Y110913548D01*
X25909865Y110976701D01*
X25727609Y111099976D01*
X25574618Y111017256D01*
X25538594Y110998163D01*
X25473080Y110965504D01*
X25422417Y110942957D01*
X25395341Y110934550D01*
X25386480Y110945346D01*
X25364476Y110986453D01*
X25331976Y111054227D01*
X25290787Y111144367D01*
X25242719Y111252571D01*
X25189579Y111374539D01*
X25133176Y111505968D01*
X25075319Y111642558D01*
X25017815Y111780009D01*
X24962474Y111914018D01*
X24911103Y112040285D01*
X24865512Y112154508D01*
X24827509Y112252386D01*
X24798901Y112329619D01*
X24781498Y112381905D01*
X24777108Y112404943D01*
X24777405Y112405616D01*
X24797854Y112426913D01*
X24840627Y112460268D01*
X24896894Y112498765D01*
X24914654Y112510520D01*
X25049791Y112622041D01*
X25161633Y112754870D01*
X25247532Y112903478D01*
X25304839Y113062336D01*
X25330908Y113225916D01*
X25323090Y113388688D01*
X25291421Y113533461D01*
X25234559Y113679652D01*
X25151665Y113810073D01*
X25037908Y113933963D01*
X24993210Y113973541D01*
X24848712Y114071053D01*
X24692615Y114136726D01*
X24529444Y114171146D01*
X24363720Y114174902D01*
X24199969Y114148582D01*
X24042713Y114092773D01*
X23896475Y114008062D01*
X23765781Y113895039D01*
X23655151Y113754289D01*
X23633882Y113719434D01*
X23561587Y113560121D01*
X23523192Y113394224D01*
X23517691Y113226039D01*
X23544078Y113059863D01*
X23601347Y112899992D01*
X23688494Y112750723D01*
X23804513Y112616353D01*
X23948399Y112501177D01*
X23953071Y112498074D01*
X24008741Y112458843D01*
X24050466Y112425490D01*
X24069523Y112404943D01*
X24067119Y112388835D01*
X24052168Y112341932D01*
X24025658Y112269237D01*
X23989397Y112175051D01*
X23945193Y112063678D01*
X23894853Y111939418D01*
X23840184Y111806574D01*
X23782995Y111669449D01*
X23725093Y111532344D01*
X23668287Y111399561D01*
X23614383Y111275402D01*
X23565189Y111164170D01*
X23522514Y111070167D01*
X23488164Y110997694D01*
X23463948Y110951054D01*
X23451674Y110934550D01*
X23441466Y110936785D01*
X23401363Y110952850D01*
X23342095Y110981017D01*
X23272396Y111017256D01*
X23119406Y111099976D01*
X22937150Y110976701D01*
X22883304Y110940197D01*
X22783151Y110871992D01*
X22683302Y110803678D01*
X22598988Y110745659D01*
X22552456Y110714040D01*
X22491977Y110674756D01*
X22447134Y110647864D01*
X22425232Y110637893D01*
X22415822Y110642126D01*
X22381808Y110668055D01*
X22329372Y110713706D01*
X22263078Y110774590D01*
X22187490Y110846215D01*
X22107173Y110924093D01*
X22026690Y111003731D01*
X21950606Y111080641D01*
X21883484Y111150331D01*
X21829889Y111208312D01*
X21794385Y111250092D01*
X21781536Y111271183D01*
X21782277Y111275195D01*
X21797570Y111307856D01*
X21830239Y111364364D01*
X21877127Y111439613D01*
X21935078Y111528501D01*
X22000934Y111625922D01*
X22019404Y111652794D01*
X22084259Y111747353D01*
X22141386Y111830949D01*
X22187455Y111898692D01*
X22219136Y111945690D01*
X22233101Y111967050D01*
X22233445Y111967965D01*
X22229323Y111994098D01*
X22213584Y112047036D01*
X22188781Y112120129D01*
X22157466Y112206724D01*
X22122194Y112300168D01*
X22085517Y112393811D01*
X22049989Y112480999D01*
X22018163Y112555081D01*
X21992593Y112609405D01*
X21975830Y112637319D01*
X21974151Y112639052D01*
X21962149Y112647820D01*
X21941880Y112656661D01*
X21909306Y112666484D01*
X21860393Y112678193D01*
X21791104Y112692696D01*
X21697402Y112710900D01*
X21575253Y112733710D01*
X21420619Y112762035D01*
X21388547Y112767996D01*
X21296670Y112786424D01*
X21219384Y112803884D01*
X21164013Y112818643D01*
X21137882Y112828966D01*
X21133510Y112837579D01*
X21126222Y112878950D01*
X21120446Y112947535D01*
X21116187Y113036908D01*
X21113450Y113140641D01*
X21112239Y113252311D01*
X21112559Y113365489D01*
X21114413Y113473750D01*
X21117807Y113570668D01*
X21122744Y113649817D01*
X21129229Y113704770D01*
X21137266Y113729102D01*
X21145473Y113732697D01*
X21186296Y113744028D01*
X21255301Y113760054D01*
X21346980Y113779581D01*
X21455827Y113801414D01*
X21576335Y113824358D01*
X21642134Y113836617D01*
X21754912Y113857875D01*
X21851984Y113876489D01*
X21928159Y113891448D01*
X21978246Y113901740D01*
X21997053Y113906354D01*
X21997760Y113907305D01*
X22009738Y113931466D01*
X22032571Y113982082D01*
X22063407Y114052438D01*
X22099390Y114135818D01*
X22137668Y114225506D01*
X22175386Y114314787D01*
X22209690Y114396944D01*
X22237726Y114465263D01*
X22256641Y114513028D01*
X22263580Y114533522D01*
X22260519Y114540733D01*
X22240149Y114575048D01*
X22203199Y114632806D01*
X22152637Y114709477D01*
X22091434Y114800528D01*
X22022558Y114901426D01*
X21984771Y114956683D01*
X21919559Y115053561D01*
X21863648Y115138583D01*
X21820018Y115207114D01*
X21791654Y115254516D01*
X21781536Y115276153D01*
X21788567Y115287889D01*
X21817974Y115322958D01*
X21866218Y115376031D01*
X21928870Y115442612D01*
X22001502Y115518202D01*
X22079685Y115598304D01*
X22158991Y115678422D01*
X22234990Y115754058D01*
X22303255Y115820714D01*
X22359357Y115873894D01*
X22398867Y115909100D01*
X22417356Y115921834D01*
X22427620Y115916883D01*
X22465307Y115893919D01*
X22526125Y115854838D01*
X22605690Y115802504D01*
X22699620Y115739780D01*
X22803531Y115669530D01*
X23174571Y115417225D01*
X23483857Y115544723D01*
X23793142Y115672221D01*
X23876963Y116116845D01*
X23960783Y116561469D01*
X24886231Y116561469D01*
X24970052Y116116845D01*
G36*
X87970052Y116116845D02*
G01*
X88053872Y115672221D01*
X88672444Y115417225D01*
X89043484Y115669530D01*
X89116921Y115719270D01*
X89214276Y115784558D01*
X89298564Y115840322D01*
X89365408Y115883698D01*
X89410431Y115911823D01*
X89429255Y115921834D01*
X89440816Y115914715D01*
X89475373Y115884882D01*
X89527671Y115835924D01*
X89593277Y115772336D01*
X89667760Y115698613D01*
X89746690Y115619251D01*
X89825633Y115538745D01*
X89900161Y115461591D01*
X89965840Y115392283D01*
X90018240Y115335319D01*
X90052930Y115295192D01*
X90065478Y115276399D01*
X90062559Y115268325D01*
X90042348Y115232307D01*
X90005440Y115173032D01*
X89954827Y115095146D01*
X89893502Y115003295D01*
X89824456Y114902126D01*
X89786564Y114846950D01*
X89721383Y114750892D01*
X89665500Y114667059D01*
X89621894Y114599999D01*
X89593546Y114554257D01*
X89583434Y114534380D01*
X89583600Y114533279D01*
X89592520Y114508082D01*
X89612983Y114456629D01*
X89642137Y114385641D01*
X89677130Y114301841D01*
X89715109Y114211948D01*
X89753222Y114122685D01*
X89788616Y114040773D01*
X89818439Y113972933D01*
X89839838Y113925886D01*
X89849961Y113906354D01*
X89855951Y113904621D01*
X89892343Y113896807D01*
X89957204Y113883861D01*
X90045342Y113866797D01*
X90151564Y113846625D01*
X90270679Y113824358D01*
X90333460Y113812553D01*
X90448689Y113790028D01*
X90549439Y113769226D01*
X90630203Y113751341D01*
X90685475Y113737568D01*
X90709748Y113729102D01*
X90714108Y113720710D01*
X90721340Y113679704D01*
X90727023Y113611408D01*
X90731159Y113522247D01*
X90733754Y113418648D01*
X90734813Y113307036D01*
X90734338Y113193838D01*
X90732336Y113085480D01*
X90728810Y112988387D01*
X90723764Y112908986D01*
X90717204Y112853704D01*
X90709133Y112828966D01*
X90704235Y112826176D01*
X90667707Y112814207D01*
X90604342Y112798371D01*
X90521463Y112780402D01*
X90426395Y112762035D01*
X90394319Y112756185D01*
X90246170Y112728978D01*
X90129738Y112707113D01*
X90040986Y112689683D01*
X89975880Y112675780D01*
X89930383Y112664499D01*
X89900459Y112654933D01*
X89882071Y112646175D01*
X89871184Y112637319D01*
X89869919Y112635833D01*
X89852115Y112604845D01*
X89825771Y112548142D01*
X89793438Y112472377D01*
X89757670Y112384202D01*
X89721021Y112290269D01*
X89686043Y112197229D01*
X89655290Y112111735D01*
X89631315Y112040440D01*
X89616672Y111989994D01*
X89613913Y111967050D01*
X89615758Y111964073D01*
X89634852Y111935283D01*
X89670761Y111882181D01*
X89720155Y111809659D01*
X89779704Y111722609D01*
X89846080Y111625922D01*
X89864297Y111599320D01*
X89928354Y111503901D01*
X89983714Y111418564D01*
X90027216Y111348371D01*
X90055701Y111298382D01*
X90066009Y111273660D01*
X90063788Y111267160D01*
X90040635Y111235132D01*
X89994954Y111182831D01*
X89930018Y111113777D01*
X89849096Y111031490D01*
X89755462Y110939490D01*
X89701942Y110887995D01*
X89617319Y110807793D01*
X89543252Y110739098D01*
X89483718Y110685524D01*
X89442694Y110650691D01*
X89424158Y110638213D01*
X89411423Y110642838D01*
X89372213Y110664719D01*
X89315272Y110700503D01*
X89248027Y110745659D01*
X89200215Y110778611D01*
X89104762Y110844049D01*
X89002902Y110913548D01*
X88909865Y110976701D01*
X88727609Y111099976D01*
X88574618Y111017256D01*
X88538594Y110998163D01*
X88473080Y110965504D01*
X88422417Y110942957D01*
X88395341Y110934550D01*
X88386480Y110945346D01*
X88364476Y110986453D01*
X88331976Y111054227D01*
X88290787Y111144367D01*
X88242719Y111252571D01*
X88189579Y111374539D01*
X88133176Y111505968D01*
X88075319Y111642558D01*
X88017815Y111780009D01*
X87962474Y111914018D01*
X87911103Y112040285D01*
X87865512Y112154508D01*
X87827509Y112252386D01*
X87798901Y112329619D01*
X87781498Y112381905D01*
X87777108Y112404943D01*
X87777405Y112405616D01*
X87797854Y112426913D01*
X87840627Y112460268D01*
X87896894Y112498765D01*
X87914654Y112510520D01*
X88049791Y112622041D01*
X88161633Y112754870D01*
X88247532Y112903478D01*
X88304839Y113062336D01*
X88330908Y113225916D01*
X88323090Y113388688D01*
X88291421Y113533461D01*
X88234559Y113679652D01*
X88151665Y113810073D01*
X88037908Y113933963D01*
X87993210Y113973541D01*
X87848712Y114071053D01*
X87692615Y114136726D01*
X87529444Y114171146D01*
X87363720Y114174902D01*
X87199969Y114148582D01*
X87042713Y114092773D01*
X86896475Y114008062D01*
X86765781Y113895039D01*
X86655151Y113754289D01*
X86633882Y113719434D01*
X86561587Y113560121D01*
X86523192Y113394224D01*
X86517691Y113226039D01*
X86544078Y113059863D01*
X86601347Y112899992D01*
X86688494Y112750723D01*
X86804513Y112616353D01*
X86948399Y112501177D01*
X86953071Y112498074D01*
X87008741Y112458843D01*
X87050466Y112425490D01*
X87069523Y112404943D01*
X87067119Y112388835D01*
X87052168Y112341932D01*
X87025658Y112269237D01*
X86989397Y112175051D01*
X86945193Y112063678D01*
X86894853Y111939418D01*
X86840184Y111806574D01*
X86782995Y111669449D01*
X86725093Y111532344D01*
X86668287Y111399561D01*
X86614383Y111275402D01*
X86565189Y111164170D01*
X86522514Y111070167D01*
X86488164Y110997694D01*
X86463948Y110951054D01*
X86451674Y110934550D01*
X86441466Y110936785D01*
X86401363Y110952850D01*
X86342095Y110981017D01*
X86272396Y111017256D01*
X86119406Y111099976D01*
X85937150Y110976701D01*
X85883304Y110940197D01*
X85783151Y110871992D01*
X85683302Y110803678D01*
X85598988Y110745659D01*
X85552456Y110714040D01*
X85491977Y110674756D01*
X85447134Y110647864D01*
X85425232Y110637893D01*
X85415822Y110642126D01*
X85381808Y110668055D01*
X85329372Y110713706D01*
X85263078Y110774590D01*
X85187490Y110846215D01*
X85107173Y110924093D01*
X85026690Y111003731D01*
X84950606Y111080641D01*
X84883484Y111150331D01*
X84829889Y111208312D01*
X84794385Y111250092D01*
X84781536Y111271183D01*
X84782277Y111275195D01*
X84797570Y111307856D01*
X84830239Y111364364D01*
X84877127Y111439613D01*
X84935078Y111528501D01*
X85000934Y111625922D01*
X85019404Y111652794D01*
X85084259Y111747353D01*
X85141386Y111830949D01*
X85187455Y111898692D01*
X85219136Y111945690D01*
X85233101Y111967050D01*
X85233445Y111967965D01*
X85229323Y111994098D01*
X85213584Y112047036D01*
X85188781Y112120129D01*
X85157466Y112206724D01*
X85122194Y112300168D01*
X85085517Y112393811D01*
X85049989Y112480999D01*
X85018163Y112555081D01*
X84992593Y112609405D01*
X84975830Y112637319D01*
X84974151Y112639052D01*
X84962149Y112647820D01*
X84941880Y112656661D01*
X84909306Y112666484D01*
X84860393Y112678193D01*
X84791104Y112692696D01*
X84697402Y112710900D01*
X84575253Y112733710D01*
X84420619Y112762035D01*
X84388547Y112767996D01*
X84296670Y112786424D01*
X84219384Y112803884D01*
X84164013Y112818643D01*
X84137882Y112828966D01*
X84133510Y112837579D01*
X84126222Y112878950D01*
X84120446Y112947535D01*
X84116187Y113036908D01*
X84113450Y113140641D01*
X84112239Y113252311D01*
X84112559Y113365489D01*
X84114413Y113473750D01*
X84117807Y113570668D01*
X84122744Y113649817D01*
X84129229Y113704770D01*
X84137266Y113729102D01*
X84145473Y113732697D01*
X84186296Y113744028D01*
X84255301Y113760054D01*
X84346980Y113779581D01*
X84455827Y113801414D01*
X84576335Y113824358D01*
X84642134Y113836617D01*
X84754912Y113857875D01*
X84851984Y113876489D01*
X84928159Y113891448D01*
X84978246Y113901740D01*
X84997053Y113906354D01*
X84997760Y113907305D01*
X85009738Y113931466D01*
X85032571Y113982082D01*
X85063407Y114052438D01*
X85099390Y114135818D01*
X85137668Y114225506D01*
X85175386Y114314787D01*
X85209690Y114396944D01*
X85237726Y114465263D01*
X85256641Y114513028D01*
X85263580Y114533522D01*
X85260519Y114540733D01*
X85240149Y114575048D01*
X85203199Y114632806D01*
X85152637Y114709477D01*
X85091434Y114800528D01*
X85022558Y114901426D01*
X84984771Y114956683D01*
X84919559Y115053561D01*
X84863648Y115138583D01*
X84820018Y115207114D01*
X84791654Y115254516D01*
X84781536Y115276153D01*
X84788567Y115287889D01*
X84817974Y115322958D01*
X84866218Y115376031D01*
X84928870Y115442612D01*
X85001502Y115518202D01*
X85079685Y115598304D01*
X85158991Y115678422D01*
X85234990Y115754058D01*
X85303255Y115820714D01*
X85359357Y115873894D01*
X85398867Y115909100D01*
X85417356Y115921834D01*
X85427620Y115916883D01*
X85465307Y115893919D01*
X85526125Y115854838D01*
X85605690Y115802504D01*
X85699620Y115739780D01*
X85803531Y115669530D01*
X86174571Y115417225D01*
X86483857Y115544723D01*
X86793142Y115672221D01*
X86876963Y116116845D01*
X86960783Y116561469D01*
X87886231Y116561469D01*
X87970052Y116116845D01*
G37*
X87970052Y116116845D02*
X88053872Y115672221D01*
X88672444Y115417225D01*
X89043484Y115669530D01*
X89116921Y115719270D01*
X89214276Y115784558D01*
X89298564Y115840322D01*
X89365408Y115883698D01*
X89410431Y115911823D01*
X89429255Y115921834D01*
X89440816Y115914715D01*
X89475373Y115884882D01*
X89527671Y115835924D01*
X89593277Y115772336D01*
X89667760Y115698613D01*
X89746690Y115619251D01*
X89825633Y115538745D01*
X89900161Y115461591D01*
X89965840Y115392283D01*
X90018240Y115335319D01*
X90052930Y115295192D01*
X90065478Y115276399D01*
X90062559Y115268325D01*
X90042348Y115232307D01*
X90005440Y115173032D01*
X89954827Y115095146D01*
X89893502Y115003295D01*
X89824456Y114902126D01*
X89786564Y114846950D01*
X89721383Y114750892D01*
X89665500Y114667059D01*
X89621894Y114599999D01*
X89593546Y114554257D01*
X89583434Y114534380D01*
X89583600Y114533279D01*
X89592520Y114508082D01*
X89612983Y114456629D01*
X89642137Y114385641D01*
X89677130Y114301841D01*
X89715109Y114211948D01*
X89753222Y114122685D01*
X89788616Y114040773D01*
X89818439Y113972933D01*
X89839838Y113925886D01*
X89849961Y113906354D01*
X89855951Y113904621D01*
X89892343Y113896807D01*
X89957204Y113883861D01*
X90045342Y113866797D01*
X90151564Y113846625D01*
X90270679Y113824358D01*
X90333460Y113812553D01*
X90448689Y113790028D01*
X90549439Y113769226D01*
X90630203Y113751341D01*
X90685475Y113737568D01*
X90709748Y113729102D01*
X90714108Y113720710D01*
X90721340Y113679704D01*
X90727023Y113611408D01*
X90731159Y113522247D01*
X90733754Y113418648D01*
X90734813Y113307036D01*
X90734338Y113193838D01*
X90732336Y113085480D01*
X90728810Y112988387D01*
X90723764Y112908986D01*
X90717204Y112853704D01*
X90709133Y112828966D01*
X90704235Y112826176D01*
X90667707Y112814207D01*
X90604342Y112798371D01*
X90521463Y112780402D01*
X90426395Y112762035D01*
X90394319Y112756185D01*
X90246170Y112728978D01*
X90129738Y112707113D01*
X90040986Y112689683D01*
X89975880Y112675780D01*
X89930383Y112664499D01*
X89900459Y112654933D01*
X89882071Y112646175D01*
X89871184Y112637319D01*
X89869919Y112635833D01*
X89852115Y112604845D01*
X89825771Y112548142D01*
X89793438Y112472377D01*
X89757670Y112384202D01*
X89721021Y112290269D01*
X89686043Y112197229D01*
X89655290Y112111735D01*
X89631315Y112040440D01*
X89616672Y111989994D01*
X89613913Y111967050D01*
X89615758Y111964073D01*
X89634852Y111935283D01*
X89670761Y111882181D01*
X89720155Y111809659D01*
X89779704Y111722609D01*
X89846080Y111625922D01*
X89864297Y111599320D01*
X89928354Y111503901D01*
X89983714Y111418564D01*
X90027216Y111348371D01*
X90055701Y111298382D01*
X90066009Y111273660D01*
X90063788Y111267160D01*
X90040635Y111235132D01*
X89994954Y111182831D01*
X89930018Y111113777D01*
X89849096Y111031490D01*
X89755462Y110939490D01*
X89701942Y110887995D01*
X89617319Y110807793D01*
X89543252Y110739098D01*
X89483718Y110685524D01*
X89442694Y110650691D01*
X89424158Y110638213D01*
X89411423Y110642838D01*
X89372213Y110664719D01*
X89315272Y110700503D01*
X89248027Y110745659D01*
X89200215Y110778611D01*
X89104762Y110844049D01*
X89002902Y110913548D01*
X88909865Y110976701D01*
X88727609Y111099976D01*
X88574618Y111017256D01*
X88538594Y110998163D01*
X88473080Y110965504D01*
X88422417Y110942957D01*
X88395341Y110934550D01*
X88386480Y110945346D01*
X88364476Y110986453D01*
X88331976Y111054227D01*
X88290787Y111144367D01*
X88242719Y111252571D01*
X88189579Y111374539D01*
X88133176Y111505968D01*
X88075319Y111642558D01*
X88017815Y111780009D01*
X87962474Y111914018D01*
X87911103Y112040285D01*
X87865512Y112154508D01*
X87827509Y112252386D01*
X87798901Y112329619D01*
X87781498Y112381905D01*
X87777108Y112404943D01*
X87777405Y112405616D01*
X87797854Y112426913D01*
X87840627Y112460268D01*
X87896894Y112498765D01*
X87914654Y112510520D01*
X88049791Y112622041D01*
X88161633Y112754870D01*
X88247532Y112903478D01*
X88304839Y113062336D01*
X88330908Y113225916D01*
X88323090Y113388688D01*
X88291421Y113533461D01*
X88234559Y113679652D01*
X88151665Y113810073D01*
X88037908Y113933963D01*
X87993210Y113973541D01*
X87848712Y114071053D01*
X87692615Y114136726D01*
X87529444Y114171146D01*
X87363720Y114174902D01*
X87199969Y114148582D01*
X87042713Y114092773D01*
X86896475Y114008062D01*
X86765781Y113895039D01*
X86655151Y113754289D01*
X86633882Y113719434D01*
X86561587Y113560121D01*
X86523192Y113394224D01*
X86517691Y113226039D01*
X86544078Y113059863D01*
X86601347Y112899992D01*
X86688494Y112750723D01*
X86804513Y112616353D01*
X86948399Y112501177D01*
X86953071Y112498074D01*
X87008741Y112458843D01*
X87050466Y112425490D01*
X87069523Y112404943D01*
X87067119Y112388835D01*
X87052168Y112341932D01*
X87025658Y112269237D01*
X86989397Y112175051D01*
X86945193Y112063678D01*
X86894853Y111939418D01*
X86840184Y111806574D01*
X86782995Y111669449D01*
X86725093Y111532344D01*
X86668287Y111399561D01*
X86614383Y111275402D01*
X86565189Y111164170D01*
X86522514Y111070167D01*
X86488164Y110997694D01*
X86463948Y110951054D01*
X86451674Y110934550D01*
X86441466Y110936785D01*
X86401363Y110952850D01*
X86342095Y110981017D01*
X86272396Y111017256D01*
X86119406Y111099976D01*
X85937150Y110976701D01*
X85883304Y110940197D01*
X85783151Y110871992D01*
X85683302Y110803678D01*
X85598988Y110745659D01*
X85552456Y110714040D01*
X85491977Y110674756D01*
X85447134Y110647864D01*
X85425232Y110637893D01*
X85415822Y110642126D01*
X85381808Y110668055D01*
X85329372Y110713706D01*
X85263078Y110774590D01*
X85187490Y110846215D01*
X85107173Y110924093D01*
X85026690Y111003731D01*
X84950606Y111080641D01*
X84883484Y111150331D01*
X84829889Y111208312D01*
X84794385Y111250092D01*
X84781536Y111271183D01*
X84782277Y111275195D01*
X84797570Y111307856D01*
X84830239Y111364364D01*
X84877127Y111439613D01*
X84935078Y111528501D01*
X85000934Y111625922D01*
X85019404Y111652794D01*
X85084259Y111747353D01*
X85141386Y111830949D01*
X85187455Y111898692D01*
X85219136Y111945690D01*
X85233101Y111967050D01*
X85233445Y111967965D01*
X85229323Y111994098D01*
X85213584Y112047036D01*
X85188781Y112120129D01*
X85157466Y112206724D01*
X85122194Y112300168D01*
X85085517Y112393811D01*
X85049989Y112480999D01*
X85018163Y112555081D01*
X84992593Y112609405D01*
X84975830Y112637319D01*
X84974151Y112639052D01*
X84962149Y112647820D01*
X84941880Y112656661D01*
X84909306Y112666484D01*
X84860393Y112678193D01*
X84791104Y112692696D01*
X84697402Y112710900D01*
X84575253Y112733710D01*
X84420619Y112762035D01*
X84388547Y112767996D01*
X84296670Y112786424D01*
X84219384Y112803884D01*
X84164013Y112818643D01*
X84137882Y112828966D01*
X84133510Y112837579D01*
X84126222Y112878950D01*
X84120446Y112947535D01*
X84116187Y113036908D01*
X84113450Y113140641D01*
X84112239Y113252311D01*
X84112559Y113365489D01*
X84114413Y113473750D01*
X84117807Y113570668D01*
X84122744Y113649817D01*
X84129229Y113704770D01*
X84137266Y113729102D01*
X84145473Y113732697D01*
X84186296Y113744028D01*
X84255301Y113760054D01*
X84346980Y113779581D01*
X84455827Y113801414D01*
X84576335Y113824358D01*
X84642134Y113836617D01*
X84754912Y113857875D01*
X84851984Y113876489D01*
X84928159Y113891448D01*
X84978246Y113901740D01*
X84997053Y113906354D01*
X84997760Y113907305D01*
X85009738Y113931466D01*
X85032571Y113982082D01*
X85063407Y114052438D01*
X85099390Y114135818D01*
X85137668Y114225506D01*
X85175386Y114314787D01*
X85209690Y114396944D01*
X85237726Y114465263D01*
X85256641Y114513028D01*
X85263580Y114533522D01*
X85260519Y114540733D01*
X85240149Y114575048D01*
X85203199Y114632806D01*
X85152637Y114709477D01*
X85091434Y114800528D01*
X85022558Y114901426D01*
X84984771Y114956683D01*
X84919559Y115053561D01*
X84863648Y115138583D01*
X84820018Y115207114D01*
X84791654Y115254516D01*
X84781536Y115276153D01*
X84788567Y115287889D01*
X84817974Y115322958D01*
X84866218Y115376031D01*
X84928870Y115442612D01*
X85001502Y115518202D01*
X85079685Y115598304D01*
X85158991Y115678422D01*
X85234990Y115754058D01*
X85303255Y115820714D01*
X85359357Y115873894D01*
X85398867Y115909100D01*
X85417356Y115921834D01*
X85427620Y115916883D01*
X85465307Y115893919D01*
X85526125Y115854838D01*
X85605690Y115802504D01*
X85699620Y115739780D01*
X85803531Y115669530D01*
X86174571Y115417225D01*
X86483857Y115544723D01*
X86793142Y115672221D01*
X86876963Y116116845D01*
X86960783Y116561469D01*
X87886231Y116561469D01*
X87970052Y116116845D01*
G36*
X51584182Y30357879D02*
G01*
X51618196Y30331950D01*
X51670632Y30286299D01*
X51736926Y30225415D01*
X51812514Y30153790D01*
X51892831Y30075912D01*
X51973314Y29996274D01*
X52049398Y29919364D01*
X52116520Y29849674D01*
X52170115Y29791693D01*
X52205619Y29749913D01*
X52218468Y29728822D01*
X52217727Y29724810D01*
X52202434Y29692149D01*
X52169765Y29635641D01*
X52122877Y29560392D01*
X52064926Y29471504D01*
X51999070Y29374083D01*
X51980600Y29347211D01*
X51915745Y29252652D01*
X51858618Y29169056D01*
X51812549Y29101313D01*
X51780868Y29054315D01*
X51766903Y29032955D01*
X51766559Y29032040D01*
X51770681Y29005907D01*
X51786420Y28952969D01*
X51811223Y28879876D01*
X51842538Y28793281D01*
X51877810Y28699837D01*
X51914487Y28606194D01*
X51950015Y28519006D01*
X51981841Y28444924D01*
X52007411Y28390600D01*
X52024174Y28362686D01*
X52025853Y28360953D01*
X52037855Y28352185D01*
X52058124Y28343344D01*
X52090698Y28333521D01*
X52139611Y28321812D01*
X52208900Y28307309D01*
X52302602Y28289105D01*
X52424751Y28266295D01*
X52579385Y28237970D01*
X52611457Y28232009D01*
X52703334Y28213581D01*
X52780620Y28196121D01*
X52835991Y28181362D01*
X52862122Y28171039D01*
X52866494Y28162426D01*
X52873782Y28121055D01*
X52879558Y28052470D01*
X52883817Y27963097D01*
X52886554Y27859364D01*
X52887765Y27747694D01*
X52887445Y27634516D01*
X52885591Y27526255D01*
X52882197Y27429337D01*
X52877260Y27350188D01*
X52870775Y27295235D01*
X52862738Y27270903D01*
X52854531Y27267308D01*
X52813708Y27255977D01*
X52744703Y27239951D01*
X52653024Y27220424D01*
X52544177Y27198591D01*
X52423669Y27175647D01*
X52357870Y27163388D01*
X52245092Y27142130D01*
X52148020Y27123516D01*
X52071845Y27108557D01*
X52021758Y27098265D01*
X52002951Y27093651D01*
X52002244Y27092700D01*
X51990266Y27068539D01*
X51967433Y27017923D01*
X51936597Y26947567D01*
X51900614Y26864187D01*
X51862336Y26774499D01*
X51824618Y26685218D01*
X51790314Y26603061D01*
X51762278Y26534742D01*
X51743363Y26486977D01*
X51736424Y26466483D01*
X51739485Y26459272D01*
X51759855Y26424957D01*
X51796805Y26367199D01*
X51847367Y26290528D01*
X51908570Y26199477D01*
X51977446Y26098579D01*
X52015233Y26043322D01*
X52080445Y25946444D01*
X52136356Y25861422D01*
X52179986Y25792891D01*
X52208350Y25745489D01*
X52218468Y25723852D01*
X52211437Y25712116D01*
X52182030Y25677047D01*
X52133786Y25623974D01*
X52071134Y25557393D01*
X51998502Y25481803D01*
X51920319Y25401701D01*
X51841013Y25321583D01*
X51765014Y25245947D01*
X51696749Y25179291D01*
X51640647Y25126111D01*
X51601137Y25090905D01*
X51582648Y25078171D01*
X51572384Y25083122D01*
X51534697Y25106086D01*
X51473879Y25145167D01*
X51394314Y25197501D01*
X51300384Y25260225D01*
X51196473Y25330475D01*
X50825433Y25582780D01*
X50516147Y25455282D01*
X50206862Y25327784D01*
X50123041Y24883160D01*
X50039221Y24438536D01*
X49113773Y24438536D01*
X49029952Y24883160D01*
X48946132Y25327784D01*
X48327560Y25582780D01*
X47956520Y25330475D01*
X47883083Y25280735D01*
X47785728Y25215447D01*
X47701440Y25159683D01*
X47634596Y25116307D01*
X47589573Y25088182D01*
X47570749Y25078171D01*
X47559188Y25085290D01*
X47524631Y25115123D01*
X47472333Y25164081D01*
X47406727Y25227669D01*
X47332244Y25301392D01*
X47253314Y25380754D01*
X47174371Y25461260D01*
X47099843Y25538414D01*
X47034164Y25607722D01*
X46981764Y25664686D01*
X46947074Y25704813D01*
X46934526Y25723606D01*
X46937445Y25731680D01*
X46957656Y25767698D01*
X46994564Y25826973D01*
X47045177Y25904859D01*
X47106502Y25996710D01*
X47175548Y26097879D01*
X47213440Y26153055D01*
X47278621Y26249113D01*
X47334504Y26332946D01*
X47378110Y26400006D01*
X47406458Y26445748D01*
X47416570Y26465625D01*
X47416404Y26466726D01*
X47407484Y26491923D01*
X47387021Y26543376D01*
X47357867Y26614364D01*
X47322874Y26698164D01*
X47284895Y26788057D01*
X47246782Y26877320D01*
X47211388Y26959232D01*
X47181565Y27027072D01*
X47160166Y27074119D01*
X47150043Y27093651D01*
X47144053Y27095384D01*
X47107661Y27103198D01*
X47042800Y27116144D01*
X46954662Y27133208D01*
X46848440Y27153380D01*
X46729325Y27175647D01*
X46666544Y27187452D01*
X46551315Y27209977D01*
X46450565Y27230779D01*
X46369801Y27248664D01*
X46314529Y27262437D01*
X46290256Y27270903D01*
X46285896Y27279295D01*
X46278664Y27320301D01*
X46272981Y27388597D01*
X46268845Y27477758D01*
X46266250Y27581357D01*
X46265191Y27692969D01*
X46265666Y27806167D01*
X46267668Y27914525D01*
X46271194Y28011618D01*
X46276240Y28091019D01*
X46282800Y28146301D01*
X46290871Y28171039D01*
X46295769Y28173829D01*
X46332297Y28185798D01*
X46395662Y28201634D01*
X46478541Y28219603D01*
X46573609Y28237970D01*
X46605685Y28243820D01*
X46753834Y28271027D01*
X46870266Y28292892D01*
X46959018Y28310322D01*
X47024124Y28324225D01*
X47069621Y28335506D01*
X47099545Y28345072D01*
X47117933Y28353830D01*
X47128820Y28362686D01*
X47130085Y28364172D01*
X47147889Y28395160D01*
X47174233Y28451863D01*
X47206566Y28527628D01*
X47242334Y28615803D01*
X47278983Y28709736D01*
X47313961Y28802776D01*
X47344714Y28888270D01*
X47368689Y28959565D01*
X47383332Y29010011D01*
X47386091Y29032955D01*
X47384246Y29035932D01*
X47365152Y29064722D01*
X47329243Y29117824D01*
X47279849Y29190346D01*
X47220300Y29277396D01*
X47153924Y29374083D01*
X47135707Y29400685D01*
X47071650Y29496104D01*
X47016290Y29581441D01*
X46972788Y29651634D01*
X46944303Y29701623D01*
X46933995Y29726345D01*
X46936216Y29732845D01*
X46959369Y29764873D01*
X47005050Y29817174D01*
X47069986Y29886228D01*
X47150908Y29968515D01*
X47244542Y30060515D01*
X47298062Y30112010D01*
X47382685Y30192212D01*
X47456752Y30260907D01*
X47516286Y30314481D01*
X47557310Y30349314D01*
X47575846Y30361792D01*
X47588581Y30357167D01*
X47627791Y30335286D01*
X47684732Y30299502D01*
X47751977Y30254346D01*
X47799789Y30221394D01*
X47895242Y30155956D01*
X47997102Y30086457D01*
X48090139Y30023304D01*
X48272395Y29900029D01*
X48425386Y29982749D01*
X48461410Y30001842D01*
X48526924Y30034501D01*
X48577587Y30057048D01*
X48604663Y30065455D01*
X48613524Y30054659D01*
X48635528Y30013552D01*
X48668028Y29945778D01*
X48709217Y29855638D01*
X48757285Y29747434D01*
X48810425Y29625466D01*
X48866828Y29494037D01*
X48924685Y29357447D01*
X48982189Y29219996D01*
X49037530Y29085987D01*
X49088901Y28959720D01*
X49134492Y28845497D01*
X49172495Y28747619D01*
X49201103Y28670386D01*
X49218506Y28618100D01*
X49222896Y28595062D01*
X49222599Y28594389D01*
X49202150Y28573092D01*
X49159377Y28539737D01*
X49103110Y28501240D01*
X49085350Y28489485D01*
X48950213Y28377964D01*
X48838371Y28245135D01*
X48752472Y28096527D01*
X48695165Y27937669D01*
X48669096Y27774089D01*
X48676914Y27611317D01*
X48708583Y27466544D01*
X48765445Y27320353D01*
X48848339Y27189932D01*
X48962096Y27066042D01*
X49006794Y27026464D01*
X49151292Y26928952D01*
X49307389Y26863279D01*
X49470560Y26828859D01*
X49636284Y26825103D01*
X49800035Y26851423D01*
X49957291Y26907232D01*
X50103529Y26991943D01*
X50234223Y27104966D01*
X50344853Y27245716D01*
X50366122Y27280571D01*
X50438417Y27439884D01*
X50476812Y27605781D01*
X50482313Y27773966D01*
X50455926Y27940142D01*
X50398657Y28100013D01*
X50311510Y28249282D01*
X50195491Y28383652D01*
X50051605Y28498828D01*
X50046933Y28501931D01*
X49991263Y28541162D01*
X49949538Y28574515D01*
X49930481Y28595062D01*
X49932885Y28611170D01*
X49947836Y28658073D01*
X49974346Y28730768D01*
X50010607Y28824954D01*
X50054811Y28936327D01*
X50105151Y29060587D01*
X50159820Y29193431D01*
X50217009Y29330556D01*
X50274911Y29467661D01*
X50331717Y29600444D01*
X50385621Y29724603D01*
X50434815Y29835835D01*
X50477490Y29929838D01*
X50511840Y30002311D01*
X50536056Y30048951D01*
X50548330Y30065455D01*
X50558538Y30063220D01*
X50598641Y30047155D01*
X50657909Y30018988D01*
X50727608Y29982749D01*
X50880598Y29900029D01*
X51062854Y30023304D01*
X51116700Y30059808D01*
X51216853Y30128013D01*
X51316702Y30196327D01*
X51401016Y30254346D01*
X51447548Y30285965D01*
X51508027Y30325249D01*
X51552870Y30352141D01*
X51574772Y30362112D01*
X51584182Y30357879D01*
G37*
X51584182Y30357879D02*
X51618196Y30331950D01*
X51670632Y30286299D01*
X51736926Y30225415D01*
X51812514Y30153790D01*
X51892831Y30075912D01*
X51973314Y29996274D01*
X52049398Y29919364D01*
X52116520Y29849674D01*
X52170115Y29791693D01*
X52205619Y29749913D01*
X52218468Y29728822D01*
X52217727Y29724810D01*
X52202434Y29692149D01*
X52169765Y29635641D01*
X52122877Y29560392D01*
X52064926Y29471504D01*
X51999070Y29374083D01*
X51980600Y29347211D01*
X51915745Y29252652D01*
X51858618Y29169056D01*
X51812549Y29101313D01*
X51780868Y29054315D01*
X51766903Y29032955D01*
X51766559Y29032040D01*
X51770681Y29005907D01*
X51786420Y28952969D01*
X51811223Y28879876D01*
X51842538Y28793281D01*
X51877810Y28699837D01*
X51914487Y28606194D01*
X51950015Y28519006D01*
X51981841Y28444924D01*
X52007411Y28390600D01*
X52024174Y28362686D01*
X52025853Y28360953D01*
X52037855Y28352185D01*
X52058124Y28343344D01*
X52090698Y28333521D01*
X52139611Y28321812D01*
X52208900Y28307309D01*
X52302602Y28289105D01*
X52424751Y28266295D01*
X52579385Y28237970D01*
X52611457Y28232009D01*
X52703334Y28213581D01*
X52780620Y28196121D01*
X52835991Y28181362D01*
X52862122Y28171039D01*
X52866494Y28162426D01*
X52873782Y28121055D01*
X52879558Y28052470D01*
X52883817Y27963097D01*
X52886554Y27859364D01*
X52887765Y27747694D01*
X52887445Y27634516D01*
X52885591Y27526255D01*
X52882197Y27429337D01*
X52877260Y27350188D01*
X52870775Y27295235D01*
X52862738Y27270903D01*
X52854531Y27267308D01*
X52813708Y27255977D01*
X52744703Y27239951D01*
X52653024Y27220424D01*
X52544177Y27198591D01*
X52423669Y27175647D01*
X52357870Y27163388D01*
X52245092Y27142130D01*
X52148020Y27123516D01*
X52071845Y27108557D01*
X52021758Y27098265D01*
X52002951Y27093651D01*
X52002244Y27092700D01*
X51990266Y27068539D01*
X51967433Y27017923D01*
X51936597Y26947567D01*
X51900614Y26864187D01*
X51862336Y26774499D01*
X51824618Y26685218D01*
X51790314Y26603061D01*
X51762278Y26534742D01*
X51743363Y26486977D01*
X51736424Y26466483D01*
X51739485Y26459272D01*
X51759855Y26424957D01*
X51796805Y26367199D01*
X51847367Y26290528D01*
X51908570Y26199477D01*
X51977446Y26098579D01*
X52015233Y26043322D01*
X52080445Y25946444D01*
X52136356Y25861422D01*
X52179986Y25792891D01*
X52208350Y25745489D01*
X52218468Y25723852D01*
X52211437Y25712116D01*
X52182030Y25677047D01*
X52133786Y25623974D01*
X52071134Y25557393D01*
X51998502Y25481803D01*
X51920319Y25401701D01*
X51841013Y25321583D01*
X51765014Y25245947D01*
X51696749Y25179291D01*
X51640647Y25126111D01*
X51601137Y25090905D01*
X51582648Y25078171D01*
X51572384Y25083122D01*
X51534697Y25106086D01*
X51473879Y25145167D01*
X51394314Y25197501D01*
X51300384Y25260225D01*
X51196473Y25330475D01*
X50825433Y25582780D01*
X50516147Y25455282D01*
X50206862Y25327784D01*
X50123041Y24883160D01*
X50039221Y24438536D01*
X49113773Y24438536D01*
X49029952Y24883160D01*
X48946132Y25327784D01*
X48327560Y25582780D01*
X47956520Y25330475D01*
X47883083Y25280735D01*
X47785728Y25215447D01*
X47701440Y25159683D01*
X47634596Y25116307D01*
X47589573Y25088182D01*
X47570749Y25078171D01*
X47559188Y25085290D01*
X47524631Y25115123D01*
X47472333Y25164081D01*
X47406727Y25227669D01*
X47332244Y25301392D01*
X47253314Y25380754D01*
X47174371Y25461260D01*
X47099843Y25538414D01*
X47034164Y25607722D01*
X46981764Y25664686D01*
X46947074Y25704813D01*
X46934526Y25723606D01*
X46937445Y25731680D01*
X46957656Y25767698D01*
X46994564Y25826973D01*
X47045177Y25904859D01*
X47106502Y25996710D01*
X47175548Y26097879D01*
X47213440Y26153055D01*
X47278621Y26249113D01*
X47334504Y26332946D01*
X47378110Y26400006D01*
X47406458Y26445748D01*
X47416570Y26465625D01*
X47416404Y26466726D01*
X47407484Y26491923D01*
X47387021Y26543376D01*
X47357867Y26614364D01*
X47322874Y26698164D01*
X47284895Y26788057D01*
X47246782Y26877320D01*
X47211388Y26959232D01*
X47181565Y27027072D01*
X47160166Y27074119D01*
X47150043Y27093651D01*
X47144053Y27095384D01*
X47107661Y27103198D01*
X47042800Y27116144D01*
X46954662Y27133208D01*
X46848440Y27153380D01*
X46729325Y27175647D01*
X46666544Y27187452D01*
X46551315Y27209977D01*
X46450565Y27230779D01*
X46369801Y27248664D01*
X46314529Y27262437D01*
X46290256Y27270903D01*
X46285896Y27279295D01*
X46278664Y27320301D01*
X46272981Y27388597D01*
X46268845Y27477758D01*
X46266250Y27581357D01*
X46265191Y27692969D01*
X46265666Y27806167D01*
X46267668Y27914525D01*
X46271194Y28011618D01*
X46276240Y28091019D01*
X46282800Y28146301D01*
X46290871Y28171039D01*
X46295769Y28173829D01*
X46332297Y28185798D01*
X46395662Y28201634D01*
X46478541Y28219603D01*
X46573609Y28237970D01*
X46605685Y28243820D01*
X46753834Y28271027D01*
X46870266Y28292892D01*
X46959018Y28310322D01*
X47024124Y28324225D01*
X47069621Y28335506D01*
X47099545Y28345072D01*
X47117933Y28353830D01*
X47128820Y28362686D01*
X47130085Y28364172D01*
X47147889Y28395160D01*
X47174233Y28451863D01*
X47206566Y28527628D01*
X47242334Y28615803D01*
X47278983Y28709736D01*
X47313961Y28802776D01*
X47344714Y28888270D01*
X47368689Y28959565D01*
X47383332Y29010011D01*
X47386091Y29032955D01*
X47384246Y29035932D01*
X47365152Y29064722D01*
X47329243Y29117824D01*
X47279849Y29190346D01*
X47220300Y29277396D01*
X47153924Y29374083D01*
X47135707Y29400685D01*
X47071650Y29496104D01*
X47016290Y29581441D01*
X46972788Y29651634D01*
X46944303Y29701623D01*
X46933995Y29726345D01*
X46936216Y29732845D01*
X46959369Y29764873D01*
X47005050Y29817174D01*
X47069986Y29886228D01*
X47150908Y29968515D01*
X47244542Y30060515D01*
X47298062Y30112010D01*
X47382685Y30192212D01*
X47456752Y30260907D01*
X47516286Y30314481D01*
X47557310Y30349314D01*
X47575846Y30361792D01*
X47588581Y30357167D01*
X47627791Y30335286D01*
X47684732Y30299502D01*
X47751977Y30254346D01*
X47799789Y30221394D01*
X47895242Y30155956D01*
X47997102Y30086457D01*
X48090139Y30023304D01*
X48272395Y29900029D01*
X48425386Y29982749D01*
X48461410Y30001842D01*
X48526924Y30034501D01*
X48577587Y30057048D01*
X48604663Y30065455D01*
X48613524Y30054659D01*
X48635528Y30013552D01*
X48668028Y29945778D01*
X48709217Y29855638D01*
X48757285Y29747434D01*
X48810425Y29625466D01*
X48866828Y29494037D01*
X48924685Y29357447D01*
X48982189Y29219996D01*
X49037530Y29085987D01*
X49088901Y28959720D01*
X49134492Y28845497D01*
X49172495Y28747619D01*
X49201103Y28670386D01*
X49218506Y28618100D01*
X49222896Y28595062D01*
X49222599Y28594389D01*
X49202150Y28573092D01*
X49159377Y28539737D01*
X49103110Y28501240D01*
X49085350Y28489485D01*
X48950213Y28377964D01*
X48838371Y28245135D01*
X48752472Y28096527D01*
X48695165Y27937669D01*
X48669096Y27774089D01*
X48676914Y27611317D01*
X48708583Y27466544D01*
X48765445Y27320353D01*
X48848339Y27189932D01*
X48962096Y27066042D01*
X49006794Y27026464D01*
X49151292Y26928952D01*
X49307389Y26863279D01*
X49470560Y26828859D01*
X49636284Y26825103D01*
X49800035Y26851423D01*
X49957291Y26907232D01*
X50103529Y26991943D01*
X50234223Y27104966D01*
X50344853Y27245716D01*
X50366122Y27280571D01*
X50438417Y27439884D01*
X50476812Y27605781D01*
X50482313Y27773966D01*
X50455926Y27940142D01*
X50398657Y28100013D01*
X50311510Y28249282D01*
X50195491Y28383652D01*
X50051605Y28498828D01*
X50046933Y28501931D01*
X49991263Y28541162D01*
X49949538Y28574515D01*
X49930481Y28595062D01*
X49932885Y28611170D01*
X49947836Y28658073D01*
X49974346Y28730768D01*
X50010607Y28824954D01*
X50054811Y28936327D01*
X50105151Y29060587D01*
X50159820Y29193431D01*
X50217009Y29330556D01*
X50274911Y29467661D01*
X50331717Y29600444D01*
X50385621Y29724603D01*
X50434815Y29835835D01*
X50477490Y29929838D01*
X50511840Y30002311D01*
X50536056Y30048951D01*
X50548330Y30065455D01*
X50558538Y30063220D01*
X50598641Y30047155D01*
X50657909Y30018988D01*
X50727608Y29982749D01*
X50880598Y29900029D01*
X51062854Y30023304D01*
X51116700Y30059808D01*
X51216853Y30128013D01*
X51316702Y30196327D01*
X51401016Y30254346D01*
X51447548Y30285965D01*
X51508027Y30325249D01*
X51552870Y30352141D01*
X51574772Y30362112D01*
X51584182Y30357879D01*
G36*
X114584182Y30357879D02*
G01*
X114618196Y30331950D01*
X114670632Y30286299D01*
X114736926Y30225415D01*
X114812514Y30153790D01*
X114892831Y30075912D01*
X114973314Y29996274D01*
X115049398Y29919364D01*
X115116520Y29849674D01*
X115170115Y29791693D01*
X115205619Y29749913D01*
X115218468Y29728822D01*
X115217727Y29724810D01*
X115202434Y29692149D01*
X115169765Y29635641D01*
X115122877Y29560392D01*
X115064926Y29471504D01*
X114999070Y29374083D01*
X114980600Y29347211D01*
X114915745Y29252652D01*
X114858618Y29169056D01*
X114812549Y29101313D01*
X114780868Y29054315D01*
X114766903Y29032955D01*
X114766559Y29032040D01*
X114770681Y29005907D01*
X114786420Y28952969D01*
X114811223Y28879876D01*
X114842538Y28793281D01*
X114877810Y28699837D01*
X114914487Y28606194D01*
X114950015Y28519006D01*
X114981841Y28444924D01*
X115007411Y28390600D01*
X115024174Y28362686D01*
X115025853Y28360953D01*
X115037855Y28352185D01*
X115058124Y28343344D01*
X115090698Y28333521D01*
X115139611Y28321812D01*
X115208900Y28307309D01*
X115302602Y28289105D01*
X115424751Y28266295D01*
X115579385Y28237970D01*
X115611457Y28232009D01*
X115703334Y28213581D01*
X115780620Y28196121D01*
X115835991Y28181362D01*
X115862122Y28171039D01*
X115866494Y28162426D01*
X115873782Y28121055D01*
X115879558Y28052470D01*
X115883817Y27963097D01*
X115886554Y27859364D01*
X115887765Y27747694D01*
X115887445Y27634516D01*
X115885591Y27526255D01*
X115882197Y27429337D01*
X115877260Y27350188D01*
X115870775Y27295235D01*
X115862738Y27270903D01*
X115854531Y27267308D01*
X115813708Y27255977D01*
X115744703Y27239951D01*
X115653024Y27220424D01*
X115544177Y27198591D01*
X115423669Y27175647D01*
X115357870Y27163388D01*
X115245092Y27142130D01*
X115148020Y27123516D01*
X115071845Y27108557D01*
X115021758Y27098265D01*
X115002951Y27093651D01*
X115002244Y27092700D01*
X114990266Y27068539D01*
X114967433Y27017923D01*
X114936597Y26947567D01*
X114900614Y26864187D01*
X114862336Y26774499D01*
X114824618Y26685218D01*
X114790314Y26603061D01*
X114762278Y26534742D01*
X114743363Y26486977D01*
X114736424Y26466483D01*
X114739485Y26459272D01*
X114759855Y26424957D01*
X114796805Y26367199D01*
X114847367Y26290528D01*
X114908570Y26199477D01*
X114977446Y26098579D01*
X115015233Y26043322D01*
X115080445Y25946444D01*
X115136356Y25861422D01*
X115179986Y25792891D01*
X115208350Y25745489D01*
X115218468Y25723852D01*
X115211437Y25712116D01*
X115182030Y25677047D01*
X115133786Y25623974D01*
X115071134Y25557393D01*
X114998502Y25481803D01*
X114920319Y25401701D01*
X114841013Y25321583D01*
X114765014Y25245947D01*
X114696749Y25179291D01*
X114640647Y25126111D01*
X114601137Y25090905D01*
X114582648Y25078171D01*
X114572384Y25083122D01*
X114534697Y25106086D01*
X114473879Y25145167D01*
X114394314Y25197501D01*
X114300384Y25260225D01*
X114196473Y25330475D01*
X113825433Y25582780D01*
X113516147Y25455282D01*
X113206862Y25327784D01*
X113123041Y24883160D01*
X113039221Y24438536D01*
X112113773Y24438536D01*
X112029952Y24883160D01*
X111946132Y25327784D01*
X111327560Y25582780D01*
X110956520Y25330475D01*
X110883083Y25280735D01*
X110785728Y25215447D01*
X110701440Y25159683D01*
X110634596Y25116307D01*
X110589573Y25088182D01*
X110570749Y25078171D01*
X110559188Y25085290D01*
X110524631Y25115123D01*
X110472333Y25164081D01*
X110406727Y25227669D01*
X110332244Y25301392D01*
X110253314Y25380754D01*
X110174371Y25461260D01*
X110099843Y25538414D01*
X110034164Y25607722D01*
X109981764Y25664686D01*
X109947074Y25704813D01*
X109934526Y25723606D01*
X109937445Y25731680D01*
X109957656Y25767698D01*
X109994564Y25826973D01*
X110045177Y25904859D01*
X110106502Y25996710D01*
X110175548Y26097879D01*
X110213440Y26153055D01*
X110278621Y26249113D01*
X110334504Y26332946D01*
X110378110Y26400006D01*
X110406458Y26445748D01*
X110416570Y26465625D01*
X110416404Y26466726D01*
X110407484Y26491923D01*
X110387021Y26543376D01*
X110357867Y26614364D01*
X110322874Y26698164D01*
X110284895Y26788057D01*
X110246782Y26877320D01*
X110211388Y26959232D01*
X110181565Y27027072D01*
X110160166Y27074119D01*
X110150043Y27093651D01*
X110144053Y27095384D01*
X110107661Y27103198D01*
X110042800Y27116144D01*
X109954662Y27133208D01*
X109848440Y27153380D01*
X109729325Y27175647D01*
X109666544Y27187452D01*
X109551315Y27209977D01*
X109450565Y27230779D01*
X109369801Y27248664D01*
X109314529Y27262437D01*
X109290256Y27270903D01*
X109285896Y27279295D01*
X109278664Y27320301D01*
X109272981Y27388597D01*
X109268845Y27477758D01*
X109266250Y27581357D01*
X109265191Y27692969D01*
X109265666Y27806167D01*
X109267668Y27914525D01*
X109271194Y28011618D01*
X109276240Y28091019D01*
X109282800Y28146301D01*
X109290871Y28171039D01*
X109295769Y28173829D01*
X109332297Y28185798D01*
X109395662Y28201634D01*
X109478541Y28219603D01*
X109573609Y28237970D01*
X109605685Y28243820D01*
X109753834Y28271027D01*
X109870266Y28292892D01*
X109959018Y28310322D01*
X110024124Y28324225D01*
X110069621Y28335506D01*
X110099545Y28345072D01*
X110117933Y28353830D01*
X110128820Y28362686D01*
X110130085Y28364172D01*
X110147889Y28395160D01*
X110174233Y28451863D01*
X110206566Y28527628D01*
X110242334Y28615803D01*
X110278983Y28709736D01*
X110313961Y28802776D01*
X110344714Y28888270D01*
X110368689Y28959565D01*
X110383332Y29010011D01*
X110386091Y29032955D01*
X110384246Y29035932D01*
X110365152Y29064722D01*
X110329243Y29117824D01*
X110279849Y29190346D01*
X110220300Y29277396D01*
X110153924Y29374083D01*
X110135707Y29400685D01*
X110071650Y29496104D01*
X110016290Y29581441D01*
X109972788Y29651634D01*
X109944303Y29701623D01*
X109933995Y29726345D01*
X109936216Y29732845D01*
X109959369Y29764873D01*
X110005050Y29817174D01*
X110069986Y29886228D01*
X110150908Y29968515D01*
X110244542Y30060515D01*
X110298062Y30112010D01*
X110382685Y30192212D01*
X110456752Y30260907D01*
X110516286Y30314481D01*
X110557310Y30349314D01*
X110575846Y30361792D01*
X110588581Y30357167D01*
X110627791Y30335286D01*
X110684732Y30299502D01*
X110751977Y30254346D01*
X110799789Y30221394D01*
X110895242Y30155956D01*
X110997102Y30086457D01*
X111090139Y30023304D01*
X111272395Y29900029D01*
X111425386Y29982749D01*
X111461410Y30001842D01*
X111526924Y30034501D01*
X111577587Y30057048D01*
X111604663Y30065455D01*
X111613524Y30054659D01*
X111635528Y30013552D01*
X111668028Y29945778D01*
X111709217Y29855638D01*
X111757285Y29747434D01*
X111810425Y29625466D01*
X111866828Y29494037D01*
X111924685Y29357447D01*
X111982189Y29219996D01*
X112037530Y29085987D01*
X112088901Y28959720D01*
X112134492Y28845497D01*
X112172495Y28747619D01*
X112201103Y28670386D01*
X112218506Y28618100D01*
X112222896Y28595062D01*
X112222599Y28594389D01*
X112202150Y28573092D01*
X112159377Y28539737D01*
X112103110Y28501240D01*
X112085350Y28489485D01*
X111950213Y28377964D01*
X111838371Y28245135D01*
X111752472Y28096527D01*
X111695165Y27937669D01*
X111669096Y27774089D01*
X111676914Y27611317D01*
X111708583Y27466544D01*
X111765445Y27320353D01*
X111848339Y27189932D01*
X111962096Y27066042D01*
X112006794Y27026464D01*
X112151292Y26928952D01*
X112307389Y26863279D01*
X112470560Y26828859D01*
X112636284Y26825103D01*
X112800035Y26851423D01*
X112957291Y26907232D01*
X113103529Y26991943D01*
X113234223Y27104966D01*
X113344853Y27245716D01*
X113366122Y27280571D01*
X113438417Y27439884D01*
X113476812Y27605781D01*
X113482313Y27773966D01*
X113455926Y27940142D01*
X113398657Y28100013D01*
X113311510Y28249282D01*
X113195491Y28383652D01*
X113051605Y28498828D01*
X113046933Y28501931D01*
X112991263Y28541162D01*
X112949538Y28574515D01*
X112930481Y28595062D01*
X112932885Y28611170D01*
X112947836Y28658073D01*
X112974346Y28730768D01*
X113010607Y28824954D01*
X113054811Y28936327D01*
X113105151Y29060587D01*
X113159820Y29193431D01*
X113217009Y29330556D01*
X113274911Y29467661D01*
X113331717Y29600444D01*
X113385621Y29724603D01*
X113434815Y29835835D01*
X113477490Y29929838D01*
X113511840Y30002311D01*
X113536056Y30048951D01*
X113548330Y30065455D01*
X113558538Y30063220D01*
X113598641Y30047155D01*
X113657909Y30018988D01*
X113727608Y29982749D01*
X113880598Y29900029D01*
X114062854Y30023304D01*
X114116700Y30059808D01*
X114216853Y30128013D01*
X114316702Y30196327D01*
X114401016Y30254346D01*
X114447548Y30285965D01*
X114508027Y30325249D01*
X114552870Y30352141D01*
X114574772Y30362112D01*
X114584182Y30357879D01*
G37*
X114584182Y30357879D02*
X114618196Y30331950D01*
X114670632Y30286299D01*
X114736926Y30225415D01*
X114812514Y30153790D01*
X114892831Y30075912D01*
X114973314Y29996274D01*
X115049398Y29919364D01*
X115116520Y29849674D01*
X115170115Y29791693D01*
X115205619Y29749913D01*
X115218468Y29728822D01*
X115217727Y29724810D01*
X115202434Y29692149D01*
X115169765Y29635641D01*
X115122877Y29560392D01*
X115064926Y29471504D01*
X114999070Y29374083D01*
X114980600Y29347211D01*
X114915745Y29252652D01*
X114858618Y29169056D01*
X114812549Y29101313D01*
X114780868Y29054315D01*
X114766903Y29032955D01*
X114766559Y29032040D01*
X114770681Y29005907D01*
X114786420Y28952969D01*
X114811223Y28879876D01*
X114842538Y28793281D01*
X114877810Y28699837D01*
X114914487Y28606194D01*
X114950015Y28519006D01*
X114981841Y28444924D01*
X115007411Y28390600D01*
X115024174Y28362686D01*
X115025853Y28360953D01*
X115037855Y28352185D01*
X115058124Y28343344D01*
X115090698Y28333521D01*
X115139611Y28321812D01*
X115208900Y28307309D01*
X115302602Y28289105D01*
X115424751Y28266295D01*
X115579385Y28237970D01*
X115611457Y28232009D01*
X115703334Y28213581D01*
X115780620Y28196121D01*
X115835991Y28181362D01*
X115862122Y28171039D01*
X115866494Y28162426D01*
X115873782Y28121055D01*
X115879558Y28052470D01*
X115883817Y27963097D01*
X115886554Y27859364D01*
X115887765Y27747694D01*
X115887445Y27634516D01*
X115885591Y27526255D01*
X115882197Y27429337D01*
X115877260Y27350188D01*
X115870775Y27295235D01*
X115862738Y27270903D01*
X115854531Y27267308D01*
X115813708Y27255977D01*
X115744703Y27239951D01*
X115653024Y27220424D01*
X115544177Y27198591D01*
X115423669Y27175647D01*
X115357870Y27163388D01*
X115245092Y27142130D01*
X115148020Y27123516D01*
X115071845Y27108557D01*
X115021758Y27098265D01*
X115002951Y27093651D01*
X115002244Y27092700D01*
X114990266Y27068539D01*
X114967433Y27017923D01*
X114936597Y26947567D01*
X114900614Y26864187D01*
X114862336Y26774499D01*
X114824618Y26685218D01*
X114790314Y26603061D01*
X114762278Y26534742D01*
X114743363Y26486977D01*
X114736424Y26466483D01*
X114739485Y26459272D01*
X114759855Y26424957D01*
X114796805Y26367199D01*
X114847367Y26290528D01*
X114908570Y26199477D01*
X114977446Y26098579D01*
X115015233Y26043322D01*
X115080445Y25946444D01*
X115136356Y25861422D01*
X115179986Y25792891D01*
X115208350Y25745489D01*
X115218468Y25723852D01*
X115211437Y25712116D01*
X115182030Y25677047D01*
X115133786Y25623974D01*
X115071134Y25557393D01*
X114998502Y25481803D01*
X114920319Y25401701D01*
X114841013Y25321583D01*
X114765014Y25245947D01*
X114696749Y25179291D01*
X114640647Y25126111D01*
X114601137Y25090905D01*
X114582648Y25078171D01*
X114572384Y25083122D01*
X114534697Y25106086D01*
X114473879Y25145167D01*
X114394314Y25197501D01*
X114300384Y25260225D01*
X114196473Y25330475D01*
X113825433Y25582780D01*
X113516147Y25455282D01*
X113206862Y25327784D01*
X113123041Y24883160D01*
X113039221Y24438536D01*
X112113773Y24438536D01*
X112029952Y24883160D01*
X111946132Y25327784D01*
X111327560Y25582780D01*
X110956520Y25330475D01*
X110883083Y25280735D01*
X110785728Y25215447D01*
X110701440Y25159683D01*
X110634596Y25116307D01*
X110589573Y25088182D01*
X110570749Y25078171D01*
X110559188Y25085290D01*
X110524631Y25115123D01*
X110472333Y25164081D01*
X110406727Y25227669D01*
X110332244Y25301392D01*
X110253314Y25380754D01*
X110174371Y25461260D01*
X110099843Y25538414D01*
X110034164Y25607722D01*
X109981764Y25664686D01*
X109947074Y25704813D01*
X109934526Y25723606D01*
X109937445Y25731680D01*
X109957656Y25767698D01*
X109994564Y25826973D01*
X110045177Y25904859D01*
X110106502Y25996710D01*
X110175548Y26097879D01*
X110213440Y26153055D01*
X110278621Y26249113D01*
X110334504Y26332946D01*
X110378110Y26400006D01*
X110406458Y26445748D01*
X110416570Y26465625D01*
X110416404Y26466726D01*
X110407484Y26491923D01*
X110387021Y26543376D01*
X110357867Y26614364D01*
X110322874Y26698164D01*
X110284895Y26788057D01*
X110246782Y26877320D01*
X110211388Y26959232D01*
X110181565Y27027072D01*
X110160166Y27074119D01*
X110150043Y27093651D01*
X110144053Y27095384D01*
X110107661Y27103198D01*
X110042800Y27116144D01*
X109954662Y27133208D01*
X109848440Y27153380D01*
X109729325Y27175647D01*
X109666544Y27187452D01*
X109551315Y27209977D01*
X109450565Y27230779D01*
X109369801Y27248664D01*
X109314529Y27262437D01*
X109290256Y27270903D01*
X109285896Y27279295D01*
X109278664Y27320301D01*
X109272981Y27388597D01*
X109268845Y27477758D01*
X109266250Y27581357D01*
X109265191Y27692969D01*
X109265666Y27806167D01*
X109267668Y27914525D01*
X109271194Y28011618D01*
X109276240Y28091019D01*
X109282800Y28146301D01*
X109290871Y28171039D01*
X109295769Y28173829D01*
X109332297Y28185798D01*
X109395662Y28201634D01*
X109478541Y28219603D01*
X109573609Y28237970D01*
X109605685Y28243820D01*
X109753834Y28271027D01*
X109870266Y28292892D01*
X109959018Y28310322D01*
X110024124Y28324225D01*
X110069621Y28335506D01*
X110099545Y28345072D01*
X110117933Y28353830D01*
X110128820Y28362686D01*
X110130085Y28364172D01*
X110147889Y28395160D01*
X110174233Y28451863D01*
X110206566Y28527628D01*
X110242334Y28615803D01*
X110278983Y28709736D01*
X110313961Y28802776D01*
X110344714Y28888270D01*
X110368689Y28959565D01*
X110383332Y29010011D01*
X110386091Y29032955D01*
X110384246Y29035932D01*
X110365152Y29064722D01*
X110329243Y29117824D01*
X110279849Y29190346D01*
X110220300Y29277396D01*
X110153924Y29374083D01*
X110135707Y29400685D01*
X110071650Y29496104D01*
X110016290Y29581441D01*
X109972788Y29651634D01*
X109944303Y29701623D01*
X109933995Y29726345D01*
X109936216Y29732845D01*
X109959369Y29764873D01*
X110005050Y29817174D01*
X110069986Y29886228D01*
X110150908Y29968515D01*
X110244542Y30060515D01*
X110298062Y30112010D01*
X110382685Y30192212D01*
X110456752Y30260907D01*
X110516286Y30314481D01*
X110557310Y30349314D01*
X110575846Y30361792D01*
X110588581Y30357167D01*
X110627791Y30335286D01*
X110684732Y30299502D01*
X110751977Y30254346D01*
X110799789Y30221394D01*
X110895242Y30155956D01*
X110997102Y30086457D01*
X111090139Y30023304D01*
X111272395Y29900029D01*
X111425386Y29982749D01*
X111461410Y30001842D01*
X111526924Y30034501D01*
X111577587Y30057048D01*
X111604663Y30065455D01*
X111613524Y30054659D01*
X111635528Y30013552D01*
X111668028Y29945778D01*
X111709217Y29855638D01*
X111757285Y29747434D01*
X111810425Y29625466D01*
X111866828Y29494037D01*
X111924685Y29357447D01*
X111982189Y29219996D01*
X112037530Y29085987D01*
X112088901Y28959720D01*
X112134492Y28845497D01*
X112172495Y28747619D01*
X112201103Y28670386D01*
X112218506Y28618100D01*
X112222896Y28595062D01*
X112222599Y28594389D01*
X112202150Y28573092D01*
X112159377Y28539737D01*
X112103110Y28501240D01*
X112085350Y28489485D01*
X111950213Y28377964D01*
X111838371Y28245135D01*
X111752472Y28096527D01*
X111695165Y27937669D01*
X111669096Y27774089D01*
X111676914Y27611317D01*
X111708583Y27466544D01*
X111765445Y27320353D01*
X111848339Y27189932D01*
X111962096Y27066042D01*
X112006794Y27026464D01*
X112151292Y26928952D01*
X112307389Y26863279D01*
X112470560Y26828859D01*
X112636284Y26825103D01*
X112800035Y26851423D01*
X112957291Y26907232D01*
X113103529Y26991943D01*
X113234223Y27104966D01*
X113344853Y27245716D01*
X113366122Y27280571D01*
X113438417Y27439884D01*
X113476812Y27605781D01*
X113482313Y27773966D01*
X113455926Y27940142D01*
X113398657Y28100013D01*
X113311510Y28249282D01*
X113195491Y28383652D01*
X113051605Y28498828D01*
X113046933Y28501931D01*
X112991263Y28541162D01*
X112949538Y28574515D01*
X112930481Y28595062D01*
X112932885Y28611170D01*
X112947836Y28658073D01*
X112974346Y28730768D01*
X113010607Y28824954D01*
X113054811Y28936327D01*
X113105151Y29060587D01*
X113159820Y29193431D01*
X113217009Y29330556D01*
X113274911Y29467661D01*
X113331717Y29600444D01*
X113385621Y29724603D01*
X113434815Y29835835D01*
X113477490Y29929838D01*
X113511840Y30002311D01*
X113536056Y30048951D01*
X113548330Y30065455D01*
X113558538Y30063220D01*
X113598641Y30047155D01*
X113657909Y30018988D01*
X113727608Y29982749D01*
X113880598Y29900029D01*
X114062854Y30023304D01*
X114116700Y30059808D01*
X114216853Y30128013D01*
X114316702Y30196327D01*
X114401016Y30254346D01*
X114447548Y30285965D01*
X114508027Y30325249D01*
X114552870Y30352141D01*
X114574772Y30362112D01*
X114584182Y30357879D01*
G04 #@! TD*
M02*
