G04 #@! TF.GenerationSoftware,KiCad,Pcbnew,7.0.0-da2b9df05c~165~ubuntu22.04.1*
G04 #@! TF.CreationDate,2023-04-27T22:34:57+00:00*
G04 #@! TF.ProjectId,pcb-panel,7063622d-7061-46e6-956c-2e6b69636164,5.0*
G04 #@! TF.SameCoordinates,Original*
G04 #@! TF.FileFunction,Other,Comment*
%FSLAX46Y46*%
G04 Gerber Fmt 4.6, Leading zero omitted, Abs format (unit mm)*
G04 Created by KiCad (PCBNEW 7.0.0-da2b9df05c~165~ubuntu22.04.1) date 2023-04-27 22:34:57*
%MOMM*%
%LPD*%
G01*
G04 APERTURE LIST*
%ADD10C,0.400000*%
G04 APERTURE END LIST*
D10*
X-3000000Y73000004D02*
X140000004Y73000004D01*
X-3000000Y68000004D02*
X140000004Y68000004D01*
X6000002Y144000005D02*
X6000002Y-3000000D01*
X131000002Y144000005D02*
X131000002Y-3000000D01*
X-3000000Y6000004D02*
X140000004Y6000004D01*
X-3000000Y135000004D02*
X140000004Y135000004D01*
X143190480Y69265243D02*
X143857146Y67265243D01*
X143857146Y67265243D02*
X144523813Y69265243D01*
X145190480Y68027147D02*
X146714290Y68027147D01*
X148809527Y67455719D02*
X148714289Y67360481D01*
X148714289Y67360481D02*
X148428575Y67265243D01*
X148428575Y67265243D02*
X148238099Y67265243D01*
X148238099Y67265243D02*
X147952384Y67360481D01*
X147952384Y67360481D02*
X147761908Y67550957D01*
X147761908Y67550957D02*
X147666670Y67741433D01*
X147666670Y67741433D02*
X147571432Y68122385D01*
X147571432Y68122385D02*
X147571432Y68408100D01*
X147571432Y68408100D02*
X147666670Y68789052D01*
X147666670Y68789052D02*
X147761908Y68979528D01*
X147761908Y68979528D02*
X147952384Y69170004D01*
X147952384Y69170004D02*
X148238099Y69265243D01*
X148238099Y69265243D02*
X148428575Y69265243D01*
X148428575Y69265243D02*
X148714289Y69170004D01*
X148714289Y69170004D02*
X148809527Y69074766D01*
X149666670Y69265243D02*
X149666670Y67646195D01*
X149666670Y67646195D02*
X149761908Y67455719D01*
X149761908Y67455719D02*
X149857146Y67360481D01*
X149857146Y67360481D02*
X150047622Y67265243D01*
X150047622Y67265243D02*
X150428575Y67265243D01*
X150428575Y67265243D02*
X150619051Y67360481D01*
X150619051Y67360481D02*
X150714289Y67455719D01*
X150714289Y67455719D02*
X150809527Y67646195D01*
X150809527Y67646195D02*
X150809527Y69265243D01*
X151476194Y69265243D02*
X152619051Y69265243D01*
X152047622Y67265243D02*
X152047622Y69265243D01*
X143190480Y7265243D02*
X143857146Y5265243D01*
X143857146Y5265243D02*
X144523813Y7265243D01*
X145190480Y6027147D02*
X146714290Y6027147D01*
X148809527Y5455719D02*
X148714289Y5360481D01*
X148714289Y5360481D02*
X148428575Y5265243D01*
X148428575Y5265243D02*
X148238099Y5265243D01*
X148238099Y5265243D02*
X147952384Y5360481D01*
X147952384Y5360481D02*
X147761908Y5550957D01*
X147761908Y5550957D02*
X147666670Y5741433D01*
X147666670Y5741433D02*
X147571432Y6122385D01*
X147571432Y6122385D02*
X147571432Y6408100D01*
X147571432Y6408100D02*
X147666670Y6789052D01*
X147666670Y6789052D02*
X147761908Y6979528D01*
X147761908Y6979528D02*
X147952384Y7170004D01*
X147952384Y7170004D02*
X148238099Y7265243D01*
X148238099Y7265243D02*
X148428575Y7265243D01*
X148428575Y7265243D02*
X148714289Y7170004D01*
X148714289Y7170004D02*
X148809527Y7074766D01*
X149666670Y7265243D02*
X149666670Y5646195D01*
X149666670Y5646195D02*
X149761908Y5455719D01*
X149761908Y5455719D02*
X149857146Y5360481D01*
X149857146Y5360481D02*
X150047622Y5265243D01*
X150047622Y5265243D02*
X150428575Y5265243D01*
X150428575Y5265243D02*
X150619051Y5360481D01*
X150619051Y5360481D02*
X150714289Y5455719D01*
X150714289Y5455719D02*
X150809527Y5646195D01*
X150809527Y5646195D02*
X150809527Y7265243D01*
X151476194Y7265243D02*
X152619051Y7265243D01*
X152047622Y5265243D02*
X152047622Y7265243D01*
X129734763Y147190482D02*
X131734763Y147857148D01*
X131734763Y147857148D02*
X129734763Y148523815D01*
X130972859Y149190482D02*
X130972859Y150714291D01*
X131544287Y152809529D02*
X131639525Y152714291D01*
X131639525Y152714291D02*
X131734763Y152428577D01*
X131734763Y152428577D02*
X131734763Y152238101D01*
X131734763Y152238101D02*
X131639525Y151952386D01*
X131639525Y151952386D02*
X131449049Y151761910D01*
X131449049Y151761910D02*
X131258573Y151666672D01*
X131258573Y151666672D02*
X130877621Y151571434D01*
X130877621Y151571434D02*
X130591906Y151571434D01*
X130591906Y151571434D02*
X130210954Y151666672D01*
X130210954Y151666672D02*
X130020478Y151761910D01*
X130020478Y151761910D02*
X129830002Y151952386D01*
X129830002Y151952386D02*
X129734763Y152238101D01*
X129734763Y152238101D02*
X129734763Y152428577D01*
X129734763Y152428577D02*
X129830002Y152714291D01*
X129830002Y152714291D02*
X129925240Y152809529D01*
X129734763Y153666672D02*
X131353811Y153666672D01*
X131353811Y153666672D02*
X131544287Y153761910D01*
X131544287Y153761910D02*
X131639525Y153857148D01*
X131639525Y153857148D02*
X131734763Y154047624D01*
X131734763Y154047624D02*
X131734763Y154428577D01*
X131734763Y154428577D02*
X131639525Y154619053D01*
X131639525Y154619053D02*
X131544287Y154714291D01*
X131544287Y154714291D02*
X131353811Y154809529D01*
X131353811Y154809529D02*
X129734763Y154809529D01*
X129734763Y155476196D02*
X129734763Y156619053D01*
X131734763Y156047624D02*
X129734763Y156047624D01*
X4734763Y147190482D02*
X6734763Y147857148D01*
X6734763Y147857148D02*
X4734763Y148523815D01*
X5972859Y149190482D02*
X5972859Y150714291D01*
X6544287Y152809529D02*
X6639525Y152714291D01*
X6639525Y152714291D02*
X6734763Y152428577D01*
X6734763Y152428577D02*
X6734763Y152238101D01*
X6734763Y152238101D02*
X6639525Y151952386D01*
X6639525Y151952386D02*
X6449049Y151761910D01*
X6449049Y151761910D02*
X6258573Y151666672D01*
X6258573Y151666672D02*
X5877621Y151571434D01*
X5877621Y151571434D02*
X5591906Y151571434D01*
X5591906Y151571434D02*
X5210954Y151666672D01*
X5210954Y151666672D02*
X5020478Y151761910D01*
X5020478Y151761910D02*
X4830002Y151952386D01*
X4830002Y151952386D02*
X4734763Y152238101D01*
X4734763Y152238101D02*
X4734763Y152428577D01*
X4734763Y152428577D02*
X4830002Y152714291D01*
X4830002Y152714291D02*
X4925240Y152809529D01*
X4734763Y153666672D02*
X6353811Y153666672D01*
X6353811Y153666672D02*
X6544287Y153761910D01*
X6544287Y153761910D02*
X6639525Y153857148D01*
X6639525Y153857148D02*
X6734763Y154047624D01*
X6734763Y154047624D02*
X6734763Y154428577D01*
X6734763Y154428577D02*
X6639525Y154619053D01*
X6639525Y154619053D02*
X6544287Y154714291D01*
X6544287Y154714291D02*
X6353811Y154809529D01*
X6353811Y154809529D02*
X4734763Y154809529D01*
X4734763Y155476196D02*
X4734763Y156619053D01*
X6734763Y156047624D02*
X4734763Y156047624D01*
X143190480Y74265243D02*
X143857146Y72265243D01*
X143857146Y72265243D02*
X144523813Y74265243D01*
X145190480Y73027147D02*
X146714290Y73027147D01*
X148809527Y72455719D02*
X148714289Y72360481D01*
X148714289Y72360481D02*
X148428575Y72265243D01*
X148428575Y72265243D02*
X148238099Y72265243D01*
X148238099Y72265243D02*
X147952384Y72360481D01*
X147952384Y72360481D02*
X147761908Y72550957D01*
X147761908Y72550957D02*
X147666670Y72741433D01*
X147666670Y72741433D02*
X147571432Y73122385D01*
X147571432Y73122385D02*
X147571432Y73408100D01*
X147571432Y73408100D02*
X147666670Y73789052D01*
X147666670Y73789052D02*
X147761908Y73979528D01*
X147761908Y73979528D02*
X147952384Y74170004D01*
X147952384Y74170004D02*
X148238099Y74265243D01*
X148238099Y74265243D02*
X148428575Y74265243D01*
X148428575Y74265243D02*
X148714289Y74170004D01*
X148714289Y74170004D02*
X148809527Y74074766D01*
X149666670Y74265243D02*
X149666670Y72646195D01*
X149666670Y72646195D02*
X149761908Y72455719D01*
X149761908Y72455719D02*
X149857146Y72360481D01*
X149857146Y72360481D02*
X150047622Y72265243D01*
X150047622Y72265243D02*
X150428575Y72265243D01*
X150428575Y72265243D02*
X150619051Y72360481D01*
X150619051Y72360481D02*
X150714289Y72455719D01*
X150714289Y72455719D02*
X150809527Y72646195D01*
X150809527Y72646195D02*
X150809527Y74265243D01*
X151476194Y74265243D02*
X152619051Y74265243D01*
X152047622Y72265243D02*
X152047622Y74265243D01*
X143190480Y136265243D02*
X143857146Y134265243D01*
X143857146Y134265243D02*
X144523813Y136265243D01*
X145190480Y135027147D02*
X146714290Y135027147D01*
X148809527Y134455719D02*
X148714289Y134360481D01*
X148714289Y134360481D02*
X148428575Y134265243D01*
X148428575Y134265243D02*
X148238099Y134265243D01*
X148238099Y134265243D02*
X147952384Y134360481D01*
X147952384Y134360481D02*
X147761908Y134550957D01*
X147761908Y134550957D02*
X147666670Y134741433D01*
X147666670Y134741433D02*
X147571432Y135122385D01*
X147571432Y135122385D02*
X147571432Y135408100D01*
X147571432Y135408100D02*
X147666670Y135789052D01*
X147666670Y135789052D02*
X147761908Y135979528D01*
X147761908Y135979528D02*
X147952384Y136170004D01*
X147952384Y136170004D02*
X148238099Y136265243D01*
X148238099Y136265243D02*
X148428575Y136265243D01*
X148428575Y136265243D02*
X148714289Y136170004D01*
X148714289Y136170004D02*
X148809527Y136074766D01*
X149666670Y136265243D02*
X149666670Y134646195D01*
X149666670Y134646195D02*
X149761908Y134455719D01*
X149761908Y134455719D02*
X149857146Y134360481D01*
X149857146Y134360481D02*
X150047622Y134265243D01*
X150047622Y134265243D02*
X150428575Y134265243D01*
X150428575Y134265243D02*
X150619051Y134360481D01*
X150619051Y134360481D02*
X150714289Y134455719D01*
X150714289Y134455719D02*
X150809527Y134646195D01*
X150809527Y134646195D02*
X150809527Y136265243D01*
X151476194Y136265243D02*
X152619051Y136265243D01*
X152047622Y134265243D02*
X152047622Y136265243D01*
M02*
