G04 #@! TF.GenerationSoftware,KiCad,Pcbnew,7.0.0-da2b9df05c~165~ubuntu22.04.1*
G04 #@! TF.CreationDate,2023-05-29T12:10:48+00:00*
G04 #@! TF.ProjectId,pcb-panel,7063622d-7061-46e6-956c-2e6b69636164,5.0*
G04 #@! TF.SameCoordinates,Original*
G04 #@! TF.FileFunction,Legend,Top*
G04 #@! TF.FilePolarity,Positive*
%FSLAX46Y46*%
G04 Gerber Fmt 4.6, Leading zero omitted, Abs format (unit mm)*
G04 Created by KiCad (PCBNEW 7.0.0-da2b9df05c~165~ubuntu22.04.1) date 2023-05-29 12:10:48*
%MOMM*%
%LPD*%
G01*
G04 APERTURE LIST*
%ADD10C,0.300000*%
%ADD11C,0.200000*%
G04 APERTURE END LIST*
D10*
X58814289Y139448934D02*
X58957146Y139448934D01*
X58957146Y139448934D02*
X59100003Y139377505D01*
X59100003Y139377505D02*
X59171432Y139306077D01*
X59171432Y139306077D02*
X59242860Y139163220D01*
X59242860Y139163220D02*
X59314289Y138877505D01*
X59314289Y138877505D02*
X59314289Y138520363D01*
X59314289Y138520363D02*
X59242860Y138234648D01*
X59242860Y138234648D02*
X59171432Y138091791D01*
X59171432Y138091791D02*
X59100003Y138020363D01*
X59100003Y138020363D02*
X58957146Y137948934D01*
X58957146Y137948934D02*
X58814289Y137948934D01*
X58814289Y137948934D02*
X58671432Y138020363D01*
X58671432Y138020363D02*
X58600003Y138091791D01*
X58600003Y138091791D02*
X58528574Y138234648D01*
X58528574Y138234648D02*
X58457146Y138520363D01*
X58457146Y138520363D02*
X58457146Y138877505D01*
X58457146Y138877505D02*
X58528574Y139163220D01*
X58528574Y139163220D02*
X58600003Y139306077D01*
X58600003Y139306077D02*
X58671432Y139377505D01*
X58671432Y139377505D02*
X58814289Y139448934D01*
X59814288Y137948934D02*
X60600003Y138948934D01*
X59814288Y138948934D02*
X60600003Y137948934D01*
X62028574Y138091791D02*
X61957146Y138020363D01*
X61957146Y138020363D02*
X61742860Y137948934D01*
X61742860Y137948934D02*
X61600003Y137948934D01*
X61600003Y137948934D02*
X61385717Y138020363D01*
X61385717Y138020363D02*
X61242860Y138163220D01*
X61242860Y138163220D02*
X61171431Y138306077D01*
X61171431Y138306077D02*
X61100003Y138591791D01*
X61100003Y138591791D02*
X61100003Y138806077D01*
X61100003Y138806077D02*
X61171431Y139091791D01*
X61171431Y139091791D02*
X61242860Y139234648D01*
X61242860Y139234648D02*
X61385717Y139377505D01*
X61385717Y139377505D02*
X61600003Y139448934D01*
X61600003Y139448934D02*
X61742860Y139448934D01*
X61742860Y139448934D02*
X61957146Y139377505D01*
X61957146Y139377505D02*
X62028574Y139306077D01*
X63171431Y138734648D02*
X63385717Y138663220D01*
X63385717Y138663220D02*
X63457146Y138591791D01*
X63457146Y138591791D02*
X63528574Y138448934D01*
X63528574Y138448934D02*
X63528574Y138234648D01*
X63528574Y138234648D02*
X63457146Y138091791D01*
X63457146Y138091791D02*
X63385717Y138020363D01*
X63385717Y138020363D02*
X63242860Y137948934D01*
X63242860Y137948934D02*
X62671431Y137948934D01*
X62671431Y137948934D02*
X62671431Y139448934D01*
X62671431Y139448934D02*
X63171431Y139448934D01*
X63171431Y139448934D02*
X63314289Y139377505D01*
X63314289Y139377505D02*
X63385717Y139306077D01*
X63385717Y139306077D02*
X63457146Y139163220D01*
X63457146Y139163220D02*
X63457146Y139020363D01*
X63457146Y139020363D02*
X63385717Y138877505D01*
X63385717Y138877505D02*
X63314289Y138806077D01*
X63314289Y138806077D02*
X63171431Y138734648D01*
X63171431Y138734648D02*
X62671431Y138734648D01*
X65857146Y137948934D02*
X65000003Y137948934D01*
X65428574Y137948934D02*
X65428574Y139448934D01*
X65428574Y139448934D02*
X65285717Y139234648D01*
X65285717Y139234648D02*
X65142860Y139091791D01*
X65142860Y139091791D02*
X65000003Y139020363D01*
X66357145Y139448934D02*
X67285717Y139448934D01*
X67285717Y139448934D02*
X66785717Y138877505D01*
X66785717Y138877505D02*
X67000002Y138877505D01*
X67000002Y138877505D02*
X67142860Y138806077D01*
X67142860Y138806077D02*
X67214288Y138734648D01*
X67214288Y138734648D02*
X67285717Y138591791D01*
X67285717Y138591791D02*
X67285717Y138234648D01*
X67285717Y138234648D02*
X67214288Y138091791D01*
X67214288Y138091791D02*
X67142860Y138020363D01*
X67142860Y138020363D02*
X67000002Y137948934D01*
X67000002Y137948934D02*
X66571431Y137948934D01*
X66571431Y137948934D02*
X66428574Y138020363D01*
X66428574Y138020363D02*
X66357145Y138091791D01*
X67785716Y139448934D02*
X68714288Y139448934D01*
X68714288Y139448934D02*
X68214288Y138877505D01*
X68214288Y138877505D02*
X68428573Y138877505D01*
X68428573Y138877505D02*
X68571431Y138806077D01*
X68571431Y138806077D02*
X68642859Y138734648D01*
X68642859Y138734648D02*
X68714288Y138591791D01*
X68714288Y138591791D02*
X68714288Y138234648D01*
X68714288Y138234648D02*
X68642859Y138091791D01*
X68642859Y138091791D02*
X68571431Y138020363D01*
X68571431Y138020363D02*
X68428573Y137948934D01*
X68428573Y137948934D02*
X68000002Y137948934D01*
X68000002Y137948934D02*
X67857145Y138020363D01*
X67857145Y138020363D02*
X67785716Y138091791D01*
X69214287Y139448934D02*
X70214287Y139448934D01*
X70214287Y139448934D02*
X69571430Y137948934D01*
X72542858Y137948934D02*
X72042858Y138663220D01*
X71685715Y137948934D02*
X71685715Y139448934D01*
X71685715Y139448934D02*
X72257144Y139448934D01*
X72257144Y139448934D02*
X72400001Y139377505D01*
X72400001Y139377505D02*
X72471430Y139306077D01*
X72471430Y139306077D02*
X72542858Y139163220D01*
X72542858Y139163220D02*
X72542858Y138948934D01*
X72542858Y138948934D02*
X72471430Y138806077D01*
X72471430Y138806077D02*
X72400001Y138734648D01*
X72400001Y138734648D02*
X72257144Y138663220D01*
X72257144Y138663220D02*
X71685715Y138663220D01*
X73757144Y138020363D02*
X73614287Y137948934D01*
X73614287Y137948934D02*
X73328573Y137948934D01*
X73328573Y137948934D02*
X73185715Y138020363D01*
X73185715Y138020363D02*
X73114287Y138163220D01*
X73114287Y138163220D02*
X73114287Y138734648D01*
X73114287Y138734648D02*
X73185715Y138877505D01*
X73185715Y138877505D02*
X73328573Y138948934D01*
X73328573Y138948934D02*
X73614287Y138948934D01*
X73614287Y138948934D02*
X73757144Y138877505D01*
X73757144Y138877505D02*
X73828573Y138734648D01*
X73828573Y138734648D02*
X73828573Y138591791D01*
X73828573Y138591791D02*
X73114287Y138448934D01*
X74328572Y138948934D02*
X74685715Y137948934D01*
X74685715Y137948934D02*
X75042858Y138948934D01*
X76328572Y139448934D02*
X75614286Y139448934D01*
X75614286Y139448934D02*
X75542858Y138734648D01*
X75542858Y138734648D02*
X75614286Y138806077D01*
X75614286Y138806077D02*
X75757144Y138877505D01*
X75757144Y138877505D02*
X76114286Y138877505D01*
X76114286Y138877505D02*
X76257144Y138806077D01*
X76257144Y138806077D02*
X76328572Y138734648D01*
X76328572Y138734648D02*
X76400001Y138591791D01*
X76400001Y138591791D02*
X76400001Y138234648D01*
X76400001Y138234648D02*
X76328572Y138091791D01*
X76328572Y138091791D02*
X76257144Y138020363D01*
X76257144Y138020363D02*
X76114286Y137948934D01*
X76114286Y137948934D02*
X75757144Y137948934D01*
X75757144Y137948934D02*
X75614286Y138020363D01*
X75614286Y138020363D02*
X75542858Y138091791D01*
X77042857Y138091791D02*
X77114286Y138020363D01*
X77114286Y138020363D02*
X77042857Y137948934D01*
X77042857Y137948934D02*
X76971429Y138020363D01*
X76971429Y138020363D02*
X77042857Y138091791D01*
X77042857Y138091791D02*
X77042857Y137948934D01*
X78042858Y139448934D02*
X78185715Y139448934D01*
X78185715Y139448934D02*
X78328572Y139377505D01*
X78328572Y139377505D02*
X78400001Y139306077D01*
X78400001Y139306077D02*
X78471429Y139163220D01*
X78471429Y139163220D02*
X78542858Y138877505D01*
X78542858Y138877505D02*
X78542858Y138520363D01*
X78542858Y138520363D02*
X78471429Y138234648D01*
X78471429Y138234648D02*
X78400001Y138091791D01*
X78400001Y138091791D02*
X78328572Y138020363D01*
X78328572Y138020363D02*
X78185715Y137948934D01*
X78185715Y137948934D02*
X78042858Y137948934D01*
X78042858Y137948934D02*
X77900001Y138020363D01*
X77900001Y138020363D02*
X77828572Y138091791D01*
X77828572Y138091791D02*
X77757143Y138234648D01*
X77757143Y138234648D02*
X77685715Y138520363D01*
X77685715Y138520363D02*
X77685715Y138877505D01*
X77685715Y138877505D02*
X77757143Y139163220D01*
X77757143Y139163220D02*
X77828572Y139306077D01*
X77828572Y139306077D02*
X77900001Y139377505D01*
X77900001Y139377505D02*
X78042858Y139448934D01*
D11*
G04 #@! TO.C,G\u002A\u002A\u002A*
X91222777Y79915776D02*
G75*
G03*
X91222777Y79915776I-3850000J0D01*
G01*
X28222777Y79915776D02*
G75*
G03*
X28222777Y79915776I-3850000J0D01*
G01*
X116477227Y61084229D02*
G75*
G03*
X116477227Y61084229I-3850000J0D01*
G01*
X53477227Y61084229D02*
G75*
G03*
X53477227Y61084229I-3850000J0D01*
G01*
G04 #@! TD*
M02*
