G04 #@! TF.GenerationSoftware,KiCad,Pcbnew,7.0.0-da2b9df05c~165~ubuntu22.04.1*
G04 #@! TF.CreationDate,2023-04-27T22:34:57+00:00*
G04 #@! TF.ProjectId,pcb-panel,7063622d-7061-46e6-956c-2e6b69636164,5.0*
G04 #@! TF.SameCoordinates,Original*
G04 #@! TF.FileFunction,Soldermask,Bot*
G04 #@! TF.FilePolarity,Negative*
%FSLAX46Y46*%
G04 Gerber Fmt 4.6, Leading zero omitted, Abs format (unit mm)*
G04 Created by KiCad (PCBNEW 7.0.0-da2b9df05c~165~ubuntu22.04.1) date 2023-04-27 22:34:57*
%MOMM*%
%LPD*%
G01*
G04 APERTURE LIST*
G04 Aperture macros list*
%AMRoundRect*
0 Rectangle with rounded corners*
0 $1 Rounding radius*
0 $2 $3 $4 $5 $6 $7 $8 $9 X,Y pos of 4 corners*
0 Add a 4 corners polygon primitive as box body*
4,1,4,$2,$3,$4,$5,$6,$7,$8,$9,$2,$3,0*
0 Add four circle primitives for the rounded corners*
1,1,$1+$1,$2,$3*
1,1,$1+$1,$4,$5*
1,1,$1+$1,$6,$7*
1,1,$1+$1,$8,$9*
0 Add four rect primitives between the rounded corners*
20,1,$1+$1,$2,$3,$4,$5,0*
20,1,$1+$1,$4,$5,$6,$7,0*
20,1,$1+$1,$6,$7,$8,$9,0*
20,1,$1+$1,$8,$9,$2,$3,0*%
%AMFreePoly0*
4,1,35,0.284755,0.299039,0.332590,0.289524,0.350614,0.282058,0.391167,0.254961,0.404961,0.241167,0.432058,0.200614,0.439524,0.182590,0.449039,0.134755,0.450000,0.125000,0.450000,-0.125000,0.449039,-0.134755,0.439524,-0.182590,0.432058,-0.200614,0.404961,-0.241167,0.391167,-0.254961,0.350614,-0.282058,0.332590,-0.289524,0.284755,-0.299039,0.275000,-0.300000,-0.150000,-0.300000,
-0.185355,-0.285355,-0.435355,-0.035355,-0.450000,0.000000,-0.450000,0.125000,-0.449039,0.134755,-0.439524,0.182590,-0.432058,0.200614,-0.404961,0.241167,-0.391167,0.254961,-0.350614,0.282058,-0.332590,0.289524,-0.284755,0.299039,-0.275000,0.300000,0.275000,0.300000,0.284755,0.299039,0.284755,0.299039,$1*%
%AMFreePoly1*
4,1,35,0.397255,0.149039,0.416389,0.145233,0.434413,0.137767,0.450634,0.126928,0.464428,0.113134,0.475267,0.096913,0.482733,0.078889,0.486539,0.059755,0.487500,0.050000,0.487500,-0.050000,0.486539,-0.059755,0.482733,-0.078889,0.475267,-0.096913,0.464428,-0.113134,0.450634,-0.126928,0.434413,-0.137767,0.416389,-0.145233,0.397255,-0.149039,0.387500,-0.150000,-0.337500,-0.150000,
-0.372855,-0.135355,-0.472855,-0.035355,-0.487500,0.000000,-0.487500,0.050000,-0.486539,0.059755,-0.482733,0.078889,-0.475267,0.096913,-0.464428,0.113134,-0.450634,0.126928,-0.434413,0.137767,-0.416389,0.145233,-0.397255,0.149039,-0.387500,0.150000,0.387500,0.150000,0.397255,0.149039,0.397255,0.149039,$1*%
%AMFreePoly2*
4,1,35,0.184754,0.399039,0.251724,0.385718,0.269748,0.378253,0.326522,0.340318,0.340318,0.326522,0.378253,0.269748,0.385718,0.251724,0.399039,0.184754,0.400000,0.175000,0.400000,-0.175000,0.399039,-0.184754,0.385718,-0.251724,0.378253,-0.269748,0.340318,-0.326522,0.326522,-0.340318,0.269748,-0.378253,0.251724,-0.385718,0.184754,-0.399039,0.175000,-0.400000,-0.070000,-0.400000,
-0.105355,-0.385355,-0.385355,-0.105355,-0.400000,-0.070000,-0.400000,0.175000,-0.399039,0.184754,-0.385718,0.251724,-0.378253,0.269748,-0.340318,0.326522,-0.326522,0.340318,-0.269748,0.378253,-0.251724,0.385718,-0.184754,0.399039,-0.175000,0.400000,0.175000,0.400000,0.184754,0.399039,0.184754,0.399039,$1*%
%AMFreePoly3*
4,1,35,0.574153,0.339040,0.589690,0.335950,0.607715,0.328484,0.620887,0.319683,0.634683,0.305887,0.643484,0.292715,0.650950,0.274690,0.654040,0.259153,0.655000,0.249400,0.655000,-0.249400,0.654040,-0.259153,0.650950,-0.274690,0.643484,-0.292715,0.634683,-0.305887,0.620887,-0.319683,0.607715,-0.328484,0.589690,-0.335950,0.574153,-0.339040,0.564400,-0.340000,-0.315000,-0.340000,
-0.350355,-0.325355,-0.640355,-0.035355,-0.655000,0.000000,-0.655000,0.249400,-0.654040,0.259153,-0.650950,0.274690,-0.643484,0.292715,-0.634683,0.305887,-0.620887,0.319683,-0.607715,0.328484,-0.589690,0.335950,-0.574153,0.339040,-0.564400,0.340000,0.564400,0.340000,0.574153,0.339040,0.574153,0.339040,$1*%
%AMFreePoly4*
4,1,35,0.109755,0.449039,0.148023,0.441427,0.166046,0.433962,0.198489,0.412285,0.212285,0.398489,0.233962,0.366046,0.241427,0.348023,0.249039,0.309755,0.250000,0.300000,0.250000,-0.300000,0.249039,-0.309755,0.241427,-0.348023,0.233962,-0.366046,0.212285,-0.398489,0.198489,-0.412285,0.166046,-0.433962,0.148023,-0.441427,0.109755,-0.449039,0.100000,-0.450000,-0.100000,-0.450000,
-0.109755,-0.449039,-0.148023,-0.441427,-0.166046,-0.433962,-0.198489,-0.412285,-0.212285,-0.398489,-0.233962,-0.366046,-0.241427,-0.348023,-0.249039,-0.309755,-0.250000,-0.300000,-0.250000,0.200000,-0.235355,0.235355,-0.035355,0.435355,0.000000,0.450000,0.100000,0.450000,0.109755,0.449039,0.109755,0.449039,$1*%
%AMFreePoly5*
4,1,35,0.337755,0.849039,0.369135,0.842797,0.387158,0.835332,0.413761,0.817557,0.427557,0.803761,0.445332,0.777158,0.452797,0.759135,0.459039,0.727755,0.460000,0.718000,0.460000,-0.718000,0.459039,-0.727755,0.452797,-0.759135,0.445332,-0.777158,0.427557,-0.803761,0.413761,-0.817557,0.387158,-0.835332,0.369135,-0.842797,0.337755,-0.849039,0.328000,-0.850000,0.000000,-0.850000,
-0.035355,-0.835355,-0.445355,-0.425355,-0.460000,-0.390000,-0.460000,0.718000,-0.459039,0.727755,-0.452797,0.759135,-0.445332,0.777158,-0.427557,0.803761,-0.413761,0.817557,-0.387158,0.835332,-0.369135,0.842797,-0.337755,0.849039,-0.328000,0.850000,0.328000,0.850000,0.337755,0.849039,0.337755,0.849039,$1*%
%AMFreePoly6*
4,1,35,0.274754,0.219039,0.307282,0.212569,0.325307,0.205103,0.352883,0.186677,0.366677,0.172883,0.385103,0.145307,0.392569,0.127282,0.399039,0.094754,0.400000,0.085000,0.400000,-0.085000,0.399039,-0.094754,0.392569,-0.127282,0.385103,-0.145307,0.366677,-0.172883,0.352883,-0.186677,0.325307,-0.205103,0.307282,-0.212569,0.274754,-0.219039,0.265000,-0.220000,-0.180000,-0.220000,
-0.215355,-0.205355,-0.385355,-0.035355,-0.400000,0.000000,-0.400000,0.085000,-0.399039,0.094754,-0.392569,0.127282,-0.385103,0.145307,-0.366677,0.172883,-0.352883,0.186677,-0.325307,0.205103,-0.307282,0.212569,-0.274754,0.219039,-0.265000,0.220000,0.265000,0.220000,0.274754,0.219039,0.274754,0.219039,$1*%
%AMFreePoly7*
4,1,35,0.166004,0.236539,0.201881,0.229403,0.219906,0.221937,0.250320,0.201614,0.264114,0.187820,0.284437,0.157406,0.291903,0.139381,0.299039,0.103504,0.300000,0.093750,0.300000,-0.093750,0.299039,-0.103504,0.291903,-0.139381,0.284437,-0.157406,0.264114,-0.187820,0.250320,-0.201614,0.219906,-0.221937,0.201881,-0.229403,0.166004,-0.236539,0.156250,-0.237500,-0.062500,-0.237500,
-0.097855,-0.222855,-0.285355,-0.035355,-0.300000,0.000000,-0.300000,0.093750,-0.299039,0.103504,-0.291903,0.139381,-0.284437,0.157406,-0.264114,0.187820,-0.250320,0.201614,-0.219906,0.221937,-0.201881,0.229403,-0.166004,0.236539,-0.156250,0.237500,0.156250,0.237500,0.166004,0.236539,0.166004,0.236539,$1*%
%AMFreePoly8*
4,1,35,0.522254,0.349039,0.579657,0.337621,0.597682,0.330155,0.646345,0.297639,0.660139,0.283845,0.692655,0.235182,0.700121,0.217157,0.711539,0.159754,0.712500,0.150000,0.712500,-0.150000,0.711539,-0.159754,0.700121,-0.217157,0.692655,-0.235182,0.660139,-0.283845,0.646345,-0.297639,0.597682,-0.330155,0.579657,-0.337621,0.522254,-0.349039,0.512500,-0.350000,-0.362500,-0.350000,
-0.397855,-0.335355,-0.697855,-0.035355,-0.712500,0.000000,-0.712500,0.150000,-0.711539,0.159754,-0.700121,0.217157,-0.692655,0.235182,-0.660139,0.283845,-0.646345,0.297639,-0.597682,0.330155,-0.579657,0.337621,-0.522254,0.349039,-0.512500,0.350000,0.512500,0.350000,0.522254,0.349039,0.522254,0.349039,$1*%
%AMFreePoly9*
4,1,35,0.334754,0.549039,0.430425,0.530009,0.448449,0.522544,0.529555,0.468351,0.543351,0.454555,0.597544,0.373449,0.605009,0.355425,0.624039,0.259754,0.625000,0.250000,0.625000,-0.250000,0.624039,-0.259754,0.605009,-0.355425,0.597544,-0.373449,0.543351,-0.454555,0.529555,-0.468351,0.448449,-0.522544,0.430425,-0.530009,0.334754,-0.549039,0.325000,-0.550000,-0.325000,-0.550000,
-0.334754,-0.549039,-0.430425,-0.530009,-0.448449,-0.522544,-0.529555,-0.468351,-0.543351,-0.454555,-0.597544,-0.373449,-0.605009,-0.355425,-0.624039,-0.259754,-0.625000,-0.250000,-0.625000,0.200000,-0.610355,0.235355,-0.310355,0.535355,-0.275000,0.550000,0.325000,0.550000,0.334754,0.549039,0.334754,0.549039,$1*%
G04 Aperture macros list end*
%ADD10C,3.750000*%
%ADD11C,2.000000*%
%ADD12RoundRect,0.050000X-1.000000X-1.000000X1.000000X-1.000000X1.000000X1.000000X-1.000000X1.000000X0*%
%ADD13C,2.100000*%
%ADD14RoundRect,0.050000X-1.600000X-1.000000X1.600000X-1.000000X1.600000X1.000000X-1.600000X1.000000X0*%
%ADD15RoundRect,0.050000X1.000000X1.000000X-1.000000X1.000000X-1.000000X-1.000000X1.000000X-1.000000X0*%
%ADD16RoundRect,0.050000X1.600000X1.000000X-1.600000X1.000000X-1.600000X-1.000000X1.600000X-1.000000X0*%
%ADD17RoundRect,0.150000X0.130000X0.100000X-0.130000X0.100000X-0.130000X-0.100000X0.130000X-0.100000X0*%
%ADD18RoundRect,0.150000X-0.130000X-0.100000X0.130000X-0.100000X0.130000X0.100000X-0.130000X0.100000X0*%
%ADD19FreePoly0,0.000000*%
%ADD20RoundRect,0.150000X-0.300000X-0.100000X0.300000X-0.100000X0.300000X0.100000X-0.300000X0.100000X0*%
%ADD21RoundRect,0.175000X-0.275000X-0.125000X0.275000X-0.125000X0.275000X0.125000X-0.275000X0.125000X0*%
%ADD22FreePoly0,180.000000*%
%ADD23RoundRect,0.150000X0.300000X0.100000X-0.300000X0.100000X-0.300000X-0.100000X0.300000X-0.100000X0*%
%ADD24RoundRect,0.175000X0.275000X0.125000X-0.275000X0.125000X-0.275000X-0.125000X0.275000X-0.125000X0*%
%ADD25C,1.850000*%
%ADD26C,3.100000*%
%ADD27C,4.100000*%
%ADD28RoundRect,0.675000X0.650000X0.625000X-0.650000X0.625000X-0.650000X-0.625000X0.650000X-0.625000X0*%
%ADD29RoundRect,0.675000X-0.650000X-0.625000X0.650000X-0.625000X0.650000X0.625000X-0.650000X0.625000X0*%
%ADD30FreePoly1,0.000000*%
%ADD31RoundRect,0.100000X-0.387500X-0.050000X0.387500X-0.050000X0.387500X0.050000X-0.387500X0.050000X0*%
%ADD32RoundRect,0.100000X-0.050000X-0.387500X0.050000X-0.387500X0.050000X0.387500X-0.050000X0.387500X0*%
%ADD33RoundRect,0.194000X-1.456000X-1.456000X1.456000X-1.456000X1.456000X1.456000X-1.456000X1.456000X0*%
%ADD34FreePoly1,180.000000*%
%ADD35RoundRect,0.100000X0.387500X0.050000X-0.387500X0.050000X-0.387500X-0.050000X0.387500X-0.050000X0*%
%ADD36RoundRect,0.100000X0.050000X0.387500X-0.050000X0.387500X-0.050000X-0.387500X0.050000X-0.387500X0*%
%ADD37RoundRect,0.194000X1.456000X1.456000X-1.456000X1.456000X-1.456000X-1.456000X1.456000X-1.456000X0*%
%ADD38FreePoly2,180.000000*%
%ADD39RoundRect,0.225000X0.175000X0.175000X-0.175000X0.175000X-0.175000X-0.175000X0.175000X-0.175000X0*%
%ADD40FreePoly2,0.000000*%
%ADD41RoundRect,0.225000X-0.175000X-0.175000X0.175000X-0.175000X0.175000X0.175000X-0.175000X0.175000X0*%
%ADD42RoundRect,0.185000X0.185000X-0.135000X0.185000X0.135000X-0.185000X0.135000X-0.185000X-0.135000X0*%
%ADD43RoundRect,0.185000X-0.185000X0.135000X-0.185000X-0.135000X0.185000X-0.135000X0.185000X0.135000X0*%
%ADD44FreePoly3,270.000000*%
%ADD45RoundRect,0.090600X-0.249400X0.564400X-0.249400X-0.564400X0.249400X-0.564400X0.249400X0.564400X0*%
%ADD46FreePoly3,90.000000*%
%ADD47RoundRect,0.090600X0.249400X-0.564400X0.249400X0.564400X-0.249400X0.564400X-0.249400X-0.564400X0*%
%ADD48FreePoly2,270.000000*%
%ADD49RoundRect,0.225000X-0.175000X0.175000X-0.175000X-0.175000X0.175000X-0.175000X0.175000X0.175000X0*%
%ADD50FreePoly2,90.000000*%
%ADD51RoundRect,0.225000X0.175000X-0.175000X0.175000X0.175000X-0.175000X0.175000X-0.175000X-0.175000X0*%
%ADD52RoundRect,0.268750X0.218750X0.256250X-0.218750X0.256250X-0.218750X-0.256250X0.218750X-0.256250X0*%
%ADD53RoundRect,0.268750X-0.218750X-0.256250X0.218750X-0.256250X0.218750X0.256250X-0.218750X0.256250X0*%
%ADD54RoundRect,0.150000X0.100000X-0.130000X0.100000X0.130000X-0.100000X0.130000X-0.100000X-0.130000X0*%
%ADD55RoundRect,0.150000X-0.100000X0.130000X-0.100000X-0.130000X0.100000X-0.130000X0.100000X0.130000X0*%
%ADD56RoundRect,0.190000X-0.140000X-0.170000X0.140000X-0.170000X0.140000X0.170000X-0.140000X0.170000X0*%
%ADD57RoundRect,0.190000X0.140000X0.170000X-0.140000X0.170000X-0.140000X-0.170000X0.140000X-0.170000X0*%
%ADD58FreePoly4,90.000000*%
%ADD59RoundRect,0.150000X0.300000X-0.100000X0.300000X0.100000X-0.300000X0.100000X-0.300000X-0.100000X0*%
%ADD60RoundRect,0.137500X-0.087500X-0.312500X0.087500X-0.312500X0.087500X0.312500X-0.087500X0.312500X0*%
%ADD61FreePoly4,270.000000*%
%ADD62RoundRect,0.150000X-0.300000X0.100000X-0.300000X-0.100000X0.300000X-0.100000X0.300000X0.100000X0*%
%ADD63RoundRect,0.137500X0.087500X0.312500X-0.087500X0.312500X-0.087500X-0.312500X0.087500X-0.312500X0*%
%ADD64RoundRect,0.132000X-0.718000X0.328000X-0.718000X-0.328000X0.718000X-0.328000X0.718000X0.328000X0*%
%ADD65FreePoly5,270.000000*%
%ADD66RoundRect,0.132000X0.718000X-0.328000X0.718000X0.328000X-0.718000X0.328000X-0.718000X-0.328000X0*%
%ADD67FreePoly5,90.000000*%
%ADD68FreePoly6,90.000000*%
%ADD69RoundRect,0.135000X0.085000X-0.265000X0.085000X0.265000X-0.085000X0.265000X-0.085000X-0.265000X0*%
%ADD70FreePoly6,270.000000*%
%ADD71RoundRect,0.135000X-0.085000X0.265000X-0.085000X-0.265000X0.085000X-0.265000X0.085000X0.265000X0*%
%ADD72FreePoly7,90.000000*%
%ADD73RoundRect,0.125000X0.075000X-0.250000X0.075000X0.250000X-0.075000X0.250000X-0.075000X-0.250000X0*%
%ADD74RoundRect,0.143750X0.093750X-0.156250X0.093750X0.156250X-0.093750X0.156250X-0.093750X-0.156250X0*%
%ADD75FreePoly7,270.000000*%
%ADD76RoundRect,0.125000X-0.075000X0.250000X-0.075000X-0.250000X0.075000X-0.250000X0.075000X0.250000X0*%
%ADD77RoundRect,0.143750X-0.093750X0.156250X-0.093750X-0.156250X0.093750X-0.156250X0.093750X0.156250X0*%
%ADD78RoundRect,0.050000X-0.300000X-0.575000X0.300000X-0.575000X0.300000X0.575000X-0.300000X0.575000X0*%
%ADD79RoundRect,0.050000X-0.150000X-0.575000X0.150000X-0.575000X0.150000X0.575000X-0.150000X0.575000X0*%
%ADD80O,1.100000X1.800000*%
%ADD81O,1.100000X2.200000*%
%ADD82RoundRect,0.050000X0.300000X0.575000X-0.300000X0.575000X-0.300000X-0.575000X0.300000X-0.575000X0*%
%ADD83RoundRect,0.050000X0.150000X0.575000X-0.150000X0.575000X-0.150000X-0.575000X0.150000X-0.575000X0*%
%ADD84FreePoly8,270.000000*%
%ADD85RoundRect,0.200000X-0.150000X0.512500X-0.150000X-0.512500X0.150000X-0.512500X0.150000X0.512500X0*%
%ADD86FreePoly8,90.000000*%
%ADD87RoundRect,0.200000X0.150000X-0.512500X0.150000X0.512500X-0.150000X0.512500X-0.150000X-0.512500X0*%
%ADD88FreePoly9,180.000000*%
%ADD89RoundRect,0.300000X0.325000X0.250000X-0.325000X0.250000X-0.325000X-0.250000X0.325000X-0.250000X0*%
%ADD90FreePoly9,0.000000*%
%ADD91RoundRect,0.300000X-0.325000X-0.250000X0.325000X-0.250000X0.325000X0.250000X-0.325000X0.250000X0*%
%ADD92RoundRect,0.125000X-0.075000X-0.575000X0.075000X-0.575000X0.075000X0.575000X-0.075000X0.575000X0*%
%ADD93RoundRect,0.625000X-0.575000X-1.075000X0.575000X-1.075000X0.575000X1.075000X-0.575000X1.075000X0*%
%ADD94RoundRect,0.125000X0.075000X0.575000X-0.075000X0.575000X-0.075000X-0.575000X0.075000X-0.575000X0*%
%ADD95RoundRect,0.625000X0.575000X1.075000X-0.575000X1.075000X-0.575000X-1.075000X0.575000X-1.075000X0*%
%ADD96C,1.167000*%
%ADD97C,0.887000*%
G04 APERTURE END LIST*
G04 #@! TO.C,G\u002A\u002A\u002A*
D10*
X26247777Y79915776D02*
G75*
G03*
X26247777Y79915776I-1875000J0D01*
G01*
X89247777Y79915776D02*
G75*
G03*
X89247777Y79915776I-1875000J0D01*
G01*
X51502227Y61084229D02*
G75*
G03*
X51502227Y61084229I-1875000J0D01*
G01*
X114502227Y61084229D02*
G75*
G03*
X114502227Y61084229I-1875000J0D01*
G01*
G04 #@! TD*
D11*
G04 #@! TO.C,REF\u002A\u002A*
X134500004Y138500005D03*
G04 #@! TD*
G04 #@! TO.C,REF\u002A\u002A*
X2500000Y2500000D03*
G04 #@! TD*
D12*
G04 #@! TO.C,MX3*
X70653752Y20418750D03*
D13*
X70653752Y15418750D03*
X70653752Y17918750D03*
D14*
X78153752Y23518750D03*
X78153752Y12318750D03*
D13*
X85153752Y15418750D03*
X85153752Y20418750D03*
G04 #@! TD*
D15*
G04 #@! TO.C,MX3*
X66346252Y120581255D03*
D13*
X66346252Y125581255D03*
X66346252Y123081255D03*
D16*
X58846252Y117481255D03*
X58846252Y128681255D03*
D13*
X51846252Y125581255D03*
X51846252Y120581255D03*
G04 #@! TD*
D15*
G04 #@! TO.C,MX3*
X129346252Y120581255D03*
D13*
X129346252Y125581255D03*
X129346252Y123081255D03*
D16*
X121846252Y117481255D03*
X121846252Y128681255D03*
D13*
X114846252Y125581255D03*
X114846252Y120581255D03*
G04 #@! TD*
D12*
G04 #@! TO.C,MX3*
X7653752Y20418750D03*
D13*
X7653752Y15418750D03*
X7653752Y17918750D03*
D14*
X15153752Y23518750D03*
X15153752Y12318750D03*
D13*
X22153752Y15418750D03*
X22153752Y20418750D03*
G04 #@! TD*
D11*
G04 #@! TO.C,REF\u002A\u002A*
X2500000Y138500005D03*
G04 #@! TD*
D17*
G04 #@! TO.C,C13*
X12290773Y119610776D03*
X11650773Y119610776D03*
G04 #@! TD*
D18*
G04 #@! TO.C,C13*
X61709231Y21389229D03*
X62349231Y21389229D03*
G04 #@! TD*
G04 #@! TO.C,C13*
X124709231Y21389229D03*
X125349231Y21389229D03*
G04 #@! TD*
D17*
G04 #@! TO.C,C13*
X75290773Y119610776D03*
X74650773Y119610776D03*
G04 #@! TD*
D19*
G04 #@! TO.C,RN1*
X74309231Y16729229D03*
D20*
X74309231Y17529229D03*
X74309231Y18329229D03*
D21*
X74309231Y19129229D03*
X76109231Y19129229D03*
D20*
X76109231Y18329229D03*
X76109231Y17529229D03*
D21*
X76109231Y16729229D03*
G04 #@! TD*
D22*
G04 #@! TO.C,RN1*
X62690773Y124270776D03*
D23*
X62690773Y123470776D03*
X62690773Y122670776D03*
D24*
X62690773Y121870776D03*
X60890773Y121870776D03*
D23*
X60890773Y122670776D03*
X60890773Y123470776D03*
D24*
X60890773Y124270776D03*
G04 #@! TD*
D19*
G04 #@! TO.C,RN1*
X11309231Y16729229D03*
D20*
X11309231Y17529229D03*
X11309231Y18329229D03*
D21*
X11309231Y19129229D03*
X13109231Y19129229D03*
D20*
X13109231Y18329229D03*
X13109231Y17529229D03*
D21*
X13109231Y16729229D03*
G04 #@! TD*
D22*
G04 #@! TO.C,RN1*
X125690773Y124270776D03*
D23*
X125690773Y123470776D03*
X125690773Y122670776D03*
D24*
X125690773Y121870776D03*
X123890773Y121870776D03*
D23*
X123890773Y122670776D03*
X123890773Y123470776D03*
D24*
X123890773Y124270776D03*
G04 #@! TD*
D25*
G04 #@! TO.C,MX8*
X102026252Y84981255D03*
D26*
X99486252Y90061255D03*
D27*
X96946252Y84981255D03*
D26*
X93136252Y87521255D03*
D25*
X91866252Y84981255D03*
D28*
X89861252Y87521255D03*
X102788252Y90061255D03*
G04 #@! TD*
D25*
G04 #@! TO.C,MX8*
X34973752Y56018750D03*
D26*
X37513752Y50938750D03*
D27*
X40053752Y56018750D03*
D26*
X43863752Y53478750D03*
D25*
X45133752Y56018750D03*
D29*
X47138752Y53478750D03*
X34211752Y50938750D03*
G04 #@! TD*
D25*
G04 #@! TO.C,MX8*
X39026252Y84981255D03*
D26*
X36486252Y90061255D03*
D27*
X33946252Y84981255D03*
D26*
X30136252Y87521255D03*
D25*
X28866252Y84981255D03*
D28*
X26861252Y87521255D03*
X39788252Y90061255D03*
G04 #@! TD*
D25*
G04 #@! TO.C,MX8*
X97973752Y56018750D03*
D26*
X100513752Y50938750D03*
D27*
X103053752Y56018750D03*
D26*
X106863752Y53478750D03*
D25*
X108133752Y56018750D03*
D29*
X110138752Y53478750D03*
X97211752Y50938750D03*
G04 #@! TD*
D30*
G04 #@! TO.C,U6*
X87641731Y45259229D03*
D31*
X87641731Y45659229D03*
X87641731Y46059229D03*
X87641731Y46459229D03*
X87641731Y46859229D03*
X87641731Y47259229D03*
X87641731Y47659229D03*
X87641731Y48059229D03*
X87641731Y48459229D03*
X87641731Y48859229D03*
X87641731Y49259229D03*
X87641731Y49659229D03*
X87641731Y50059229D03*
X87641731Y50459229D03*
D32*
X88479231Y51296729D03*
X88879231Y51296729D03*
X89279231Y51296729D03*
X89679231Y51296729D03*
X90079231Y51296729D03*
X90479231Y51296729D03*
X90879231Y51296729D03*
X91279231Y51296729D03*
X91679231Y51296729D03*
X92079231Y51296729D03*
X92479231Y51296729D03*
X92879231Y51296729D03*
X93279231Y51296729D03*
X93679231Y51296729D03*
D31*
X94516731Y50459229D03*
X94516731Y50059229D03*
X94516731Y49659229D03*
X94516731Y49259229D03*
X94516731Y48859229D03*
X94516731Y48459229D03*
X94516731Y48059229D03*
X94516731Y47659229D03*
X94516731Y47259229D03*
X94516731Y46859229D03*
X94516731Y46459229D03*
X94516731Y46059229D03*
X94516731Y45659229D03*
X94516731Y45259229D03*
D32*
X93679231Y44421729D03*
X93279231Y44421729D03*
X92879231Y44421729D03*
X92479231Y44421729D03*
X92079231Y44421729D03*
X91679231Y44421729D03*
X91279231Y44421729D03*
X90879231Y44421729D03*
X90479231Y44421729D03*
X90079231Y44421729D03*
X89679231Y44421729D03*
X89279231Y44421729D03*
X88879231Y44421729D03*
X88479231Y44421729D03*
D33*
X91079231Y47859229D03*
G04 #@! TD*
D34*
G04 #@! TO.C,U6*
X112358273Y95740776D03*
D35*
X112358273Y95340776D03*
X112358273Y94940776D03*
X112358273Y94540776D03*
X112358273Y94140776D03*
X112358273Y93740776D03*
X112358273Y93340776D03*
X112358273Y92940776D03*
X112358273Y92540776D03*
X112358273Y92140776D03*
X112358273Y91740776D03*
X112358273Y91340776D03*
X112358273Y90940776D03*
X112358273Y90540776D03*
D36*
X111520773Y89703276D03*
X111120773Y89703276D03*
X110720773Y89703276D03*
X110320773Y89703276D03*
X109920773Y89703276D03*
X109520773Y89703276D03*
X109120773Y89703276D03*
X108720773Y89703276D03*
X108320773Y89703276D03*
X107920773Y89703276D03*
X107520773Y89703276D03*
X107120773Y89703276D03*
X106720773Y89703276D03*
X106320773Y89703276D03*
D35*
X105483273Y90540776D03*
X105483273Y90940776D03*
X105483273Y91340776D03*
X105483273Y91740776D03*
X105483273Y92140776D03*
X105483273Y92540776D03*
X105483273Y92940776D03*
X105483273Y93340776D03*
X105483273Y93740776D03*
X105483273Y94140776D03*
X105483273Y94540776D03*
X105483273Y94940776D03*
X105483273Y95340776D03*
X105483273Y95740776D03*
D36*
X106320773Y96578276D03*
X106720773Y96578276D03*
X107120773Y96578276D03*
X107520773Y96578276D03*
X107920773Y96578276D03*
X108320773Y96578276D03*
X108720773Y96578276D03*
X109120773Y96578276D03*
X109520773Y96578276D03*
X109920773Y96578276D03*
X110320773Y96578276D03*
X110720773Y96578276D03*
X111120773Y96578276D03*
X111520773Y96578276D03*
D37*
X108920773Y93140776D03*
G04 #@! TD*
D34*
G04 #@! TO.C,U6*
X49358273Y95740776D03*
D35*
X49358273Y95340776D03*
X49358273Y94940776D03*
X49358273Y94540776D03*
X49358273Y94140776D03*
X49358273Y93740776D03*
X49358273Y93340776D03*
X49358273Y92940776D03*
X49358273Y92540776D03*
X49358273Y92140776D03*
X49358273Y91740776D03*
X49358273Y91340776D03*
X49358273Y90940776D03*
X49358273Y90540776D03*
D36*
X48520773Y89703276D03*
X48120773Y89703276D03*
X47720773Y89703276D03*
X47320773Y89703276D03*
X46920773Y89703276D03*
X46520773Y89703276D03*
X46120773Y89703276D03*
X45720773Y89703276D03*
X45320773Y89703276D03*
X44920773Y89703276D03*
X44520773Y89703276D03*
X44120773Y89703276D03*
X43720773Y89703276D03*
X43320773Y89703276D03*
D35*
X42483273Y90540776D03*
X42483273Y90940776D03*
X42483273Y91340776D03*
X42483273Y91740776D03*
X42483273Y92140776D03*
X42483273Y92540776D03*
X42483273Y92940776D03*
X42483273Y93340776D03*
X42483273Y93740776D03*
X42483273Y94140776D03*
X42483273Y94540776D03*
X42483273Y94940776D03*
X42483273Y95340776D03*
X42483273Y95740776D03*
D36*
X43320773Y96578276D03*
X43720773Y96578276D03*
X44120773Y96578276D03*
X44520773Y96578276D03*
X44920773Y96578276D03*
X45320773Y96578276D03*
X45720773Y96578276D03*
X46120773Y96578276D03*
X46520773Y96578276D03*
X46920773Y96578276D03*
X47320773Y96578276D03*
X47720773Y96578276D03*
X48120773Y96578276D03*
X48520773Y96578276D03*
D37*
X45920773Y93140776D03*
G04 #@! TD*
D30*
G04 #@! TO.C,U6*
X24641731Y45259229D03*
D31*
X24641731Y45659229D03*
X24641731Y46059229D03*
X24641731Y46459229D03*
X24641731Y46859229D03*
X24641731Y47259229D03*
X24641731Y47659229D03*
X24641731Y48059229D03*
X24641731Y48459229D03*
X24641731Y48859229D03*
X24641731Y49259229D03*
X24641731Y49659229D03*
X24641731Y50059229D03*
X24641731Y50459229D03*
D32*
X25479231Y51296729D03*
X25879231Y51296729D03*
X26279231Y51296729D03*
X26679231Y51296729D03*
X27079231Y51296729D03*
X27479231Y51296729D03*
X27879231Y51296729D03*
X28279231Y51296729D03*
X28679231Y51296729D03*
X29079231Y51296729D03*
X29479231Y51296729D03*
X29879231Y51296729D03*
X30279231Y51296729D03*
X30679231Y51296729D03*
D31*
X31516731Y50459229D03*
X31516731Y50059229D03*
X31516731Y49659229D03*
X31516731Y49259229D03*
X31516731Y48859229D03*
X31516731Y48459229D03*
X31516731Y48059229D03*
X31516731Y47659229D03*
X31516731Y47259229D03*
X31516731Y46859229D03*
X31516731Y46459229D03*
X31516731Y46059229D03*
X31516731Y45659229D03*
X31516731Y45259229D03*
D32*
X30679231Y44421729D03*
X30279231Y44421729D03*
X29879231Y44421729D03*
X29479231Y44421729D03*
X29079231Y44421729D03*
X28679231Y44421729D03*
X28279231Y44421729D03*
X27879231Y44421729D03*
X27479231Y44421729D03*
X27079231Y44421729D03*
X26679231Y44421729D03*
X26279231Y44421729D03*
X25879231Y44421729D03*
X25479231Y44421729D03*
D33*
X28079231Y47859229D03*
G04 #@! TD*
D17*
G04 #@! TO.C,C3*
X32960773Y131770776D03*
X32320773Y131770776D03*
G04 #@! TD*
D18*
G04 #@! TO.C,C3*
X104039231Y9229229D03*
X104679231Y9229229D03*
G04 #@! TD*
G04 #@! TO.C,C3*
X41039231Y9229229D03*
X41679231Y9229229D03*
G04 #@! TD*
D17*
G04 #@! TO.C,C3*
X95960773Y131770776D03*
X95320773Y131770776D03*
G04 #@! TD*
D38*
G04 #@! TO.C,D9*
X75874231Y8179229D03*
D39*
X75874231Y7079229D03*
X74044231Y7079229D03*
X74044231Y8179229D03*
G04 #@! TD*
D38*
G04 #@! TO.C,D9*
X12874231Y8179229D03*
D39*
X12874231Y7079229D03*
X11044231Y7079229D03*
X11044231Y8179229D03*
G04 #@! TD*
D40*
G04 #@! TO.C,D9*
X124125773Y132820776D03*
D41*
X124125773Y133920776D03*
X125955773Y133920776D03*
X125955773Y132820776D03*
G04 #@! TD*
D40*
G04 #@! TO.C,D9*
X61125773Y132820776D03*
D41*
X61125773Y133920776D03*
X62955773Y133920776D03*
X62955773Y132820776D03*
G04 #@! TD*
D40*
G04 #@! TO.C,D13*
X11125773Y132820776D03*
D41*
X11125773Y133920776D03*
X12955773Y133920776D03*
X12955773Y132820776D03*
G04 #@! TD*
D38*
G04 #@! TO.C,D13*
X62874231Y8179229D03*
D39*
X62874231Y7079229D03*
X61044231Y7079229D03*
X61044231Y8179229D03*
G04 #@! TD*
D40*
G04 #@! TO.C,D13*
X74125773Y132820776D03*
D41*
X74125773Y133920776D03*
X75955773Y133920776D03*
X75955773Y132820776D03*
G04 #@! TD*
D38*
G04 #@! TO.C,D13*
X125874231Y8179229D03*
D39*
X125874231Y7079229D03*
X124044231Y7079229D03*
X124044231Y8179229D03*
G04 #@! TD*
D25*
G04 #@! TO.C,MX6*
X9823752Y36968750D03*
D26*
X12363752Y31888750D03*
D27*
X14903752Y36968750D03*
D26*
X18713752Y34428750D03*
D25*
X19983752Y36968750D03*
D29*
X21988752Y34428750D03*
X9061752Y31888750D03*
G04 #@! TD*
D25*
G04 #@! TO.C,MX6*
X72823752Y36968750D03*
D26*
X75363752Y31888750D03*
D27*
X77903752Y36968750D03*
D26*
X81713752Y34428750D03*
D25*
X82983752Y36968750D03*
D29*
X84988752Y34428750D03*
X72061752Y31888750D03*
G04 #@! TD*
D25*
G04 #@! TO.C,MX6*
X64176252Y104031255D03*
D26*
X61636252Y109111255D03*
D27*
X59096252Y104031255D03*
D26*
X55286252Y106571255D03*
D25*
X54016252Y104031255D03*
D28*
X52011252Y106571255D03*
X64938252Y109111255D03*
G04 #@! TD*
D25*
G04 #@! TO.C,MX6*
X127176252Y104031255D03*
D26*
X124636252Y109111255D03*
D27*
X122096252Y104031255D03*
D26*
X118286252Y106571255D03*
D25*
X117016252Y104031255D03*
D28*
X115011252Y106571255D03*
X127938252Y109111255D03*
G04 #@! TD*
D40*
G04 #@! TO.C,D30*
X114054231Y65819229D03*
D41*
X114054231Y66919229D03*
X115884231Y66919229D03*
X115884231Y65819229D03*
G04 #@! TD*
D40*
G04 #@! TO.C,D30*
X51054231Y65819229D03*
D41*
X51054231Y66919229D03*
X52884231Y66919229D03*
X52884231Y65819229D03*
G04 #@! TD*
D38*
G04 #@! TO.C,D30*
X22945773Y75180776D03*
D39*
X22945773Y74080776D03*
X21115773Y74080776D03*
X21115773Y75180776D03*
G04 #@! TD*
D38*
G04 #@! TO.C,D30*
X85945773Y75180776D03*
D39*
X85945773Y74080776D03*
X84115773Y74080776D03*
X84115773Y75180776D03*
G04 #@! TD*
D42*
G04 #@! TO.C,FB1*
X108030773Y130280776D03*
X108030773Y131300776D03*
G04 #@! TD*
D43*
G04 #@! TO.C,FB1*
X91969231Y10719229D03*
X91969231Y9699229D03*
G04 #@! TD*
D42*
G04 #@! TO.C,FB1*
X45030773Y130280776D03*
X45030773Y131300776D03*
G04 #@! TD*
D43*
G04 #@! TO.C,FB1*
X28969231Y10719229D03*
X28969231Y9699229D03*
G04 #@! TD*
D44*
G04 #@! TO.C,U3*
X43190773Y119725776D03*
D45*
X44140773Y119725776D03*
X45090773Y119725776D03*
X45090773Y117215776D03*
X44140773Y117215776D03*
X43190773Y117215776D03*
G04 #@! TD*
D46*
G04 #@! TO.C,U3*
X30809231Y21274229D03*
D47*
X29859231Y21274229D03*
X28909231Y21274229D03*
X28909231Y23784229D03*
X29859231Y23784229D03*
X30809231Y23784229D03*
G04 #@! TD*
D44*
G04 #@! TO.C,U3*
X106190773Y119725776D03*
D45*
X107140773Y119725776D03*
X108090773Y119725776D03*
X108090773Y117215776D03*
X107140773Y117215776D03*
X106190773Y117215776D03*
G04 #@! TD*
D46*
G04 #@! TO.C,U3*
X93809231Y21274229D03*
D47*
X92859231Y21274229D03*
X91909231Y21274229D03*
X91909231Y23784229D03*
X92859231Y23784229D03*
X93809231Y23784229D03*
G04 #@! TD*
D18*
G04 #@! TO.C,C5*
X61029231Y9229229D03*
X61669231Y9229229D03*
G04 #@! TD*
D17*
G04 #@! TO.C,C5*
X75970773Y131770776D03*
X75330773Y131770776D03*
G04 #@! TD*
G04 #@! TO.C,C5*
X12970773Y131770776D03*
X12330773Y131770776D03*
G04 #@! TD*
D18*
G04 #@! TO.C,C5*
X124029231Y9229229D03*
X124669231Y9229229D03*
G04 #@! TD*
D48*
G04 #@! TO.C,D20*
X65940773Y103785776D03*
D49*
X67040773Y103785776D03*
X67040773Y101955776D03*
X65940773Y101955776D03*
G04 #@! TD*
D48*
G04 #@! TO.C,D20*
X128940773Y103785776D03*
D49*
X130040773Y103785776D03*
X130040773Y101955776D03*
X128940773Y101955776D03*
G04 #@! TD*
D50*
G04 #@! TO.C,D20*
X8059231Y37214229D03*
D51*
X6959231Y37214229D03*
X6959231Y39044229D03*
X8059231Y39044229D03*
G04 #@! TD*
D50*
G04 #@! TO.C,D20*
X71059231Y37214229D03*
D51*
X69959231Y37214229D03*
X69959231Y39044229D03*
X71059231Y39044229D03*
G04 #@! TD*
D18*
G04 #@! TO.C,C4*
X119039231Y9229229D03*
X119679231Y9229229D03*
G04 #@! TD*
D17*
G04 #@! TO.C,C4*
X17960773Y131770776D03*
X17320773Y131770776D03*
G04 #@! TD*
D18*
G04 #@! TO.C,C4*
X56039231Y9229229D03*
X56679231Y9229229D03*
G04 #@! TD*
D17*
G04 #@! TO.C,C4*
X80960773Y131770776D03*
X80320773Y131770776D03*
G04 #@! TD*
D38*
G04 #@! TO.C,D26*
X125945773Y75180776D03*
D39*
X125945773Y74080776D03*
X124115773Y74080776D03*
X124115773Y75180776D03*
G04 #@! TD*
D40*
G04 #@! TO.C,D26*
X11054231Y65819229D03*
D41*
X11054231Y66919229D03*
X12884231Y66919229D03*
X12884231Y65819229D03*
G04 #@! TD*
D40*
G04 #@! TO.C,D26*
X74054231Y65819229D03*
D41*
X74054231Y66919229D03*
X75884231Y66919229D03*
X75884231Y65819229D03*
G04 #@! TD*
D38*
G04 #@! TO.C,D26*
X62945773Y75180776D03*
D39*
X62945773Y74080776D03*
X61115773Y74080776D03*
X61115773Y75180776D03*
G04 #@! TD*
D52*
G04 #@! TO.C,F1*
X92006731Y15599229D03*
X90431731Y15599229D03*
G04 #@! TD*
G04 #@! TO.C,F1*
X29006731Y15599229D03*
X27431731Y15599229D03*
G04 #@! TD*
D53*
G04 #@! TO.C,F1*
X44993273Y125400776D03*
X46568273Y125400776D03*
G04 #@! TD*
G04 #@! TO.C,F1*
X107993273Y125400776D03*
X109568273Y125400776D03*
G04 #@! TD*
D54*
G04 #@! TO.C,C14*
X127859231Y19469229D03*
X127859231Y20109229D03*
G04 #@! TD*
D55*
G04 #@! TO.C,C14*
X9140773Y121530776D03*
X9140773Y120890776D03*
G04 #@! TD*
G04 #@! TO.C,C14*
X72140773Y121530776D03*
X72140773Y120890776D03*
G04 #@! TD*
D54*
G04 #@! TO.C,C14*
X64859231Y19469229D03*
X64859231Y20109229D03*
G04 #@! TD*
D55*
G04 #@! TO.C,C27*
X31384231Y43154229D03*
X31384231Y42514229D03*
G04 #@! TD*
G04 #@! TO.C,C27*
X94384231Y43154229D03*
X94384231Y42514229D03*
G04 #@! TD*
D54*
G04 #@! TO.C,C27*
X42615773Y97845776D03*
X42615773Y98485776D03*
G04 #@! TD*
G04 #@! TO.C,C27*
X105615773Y97845776D03*
X105615773Y98485776D03*
G04 #@! TD*
D50*
G04 #@! TO.C,D19*
X8090773Y111785776D03*
D51*
X6990773Y111785776D03*
X6990773Y113615776D03*
X8090773Y113615776D03*
G04 #@! TD*
D48*
G04 #@! TO.C,D19*
X128909231Y29214229D03*
D49*
X130009231Y29214229D03*
X130009231Y27384229D03*
X128909231Y27384229D03*
G04 #@! TD*
D50*
G04 #@! TO.C,D19*
X71090773Y111785776D03*
D51*
X69990773Y111785776D03*
X69990773Y113615776D03*
X71090773Y113615776D03*
G04 #@! TD*
D48*
G04 #@! TO.C,D19*
X65909231Y29214229D03*
D49*
X67009231Y29214229D03*
X67009231Y27384229D03*
X65909231Y27384229D03*
G04 #@! TD*
D55*
G04 #@! TO.C,C19*
X127890773Y101960776D03*
X127890773Y101320776D03*
G04 #@! TD*
D54*
G04 #@! TO.C,C19*
X9109231Y39039229D03*
X9109231Y39679229D03*
G04 #@! TD*
G04 #@! TO.C,C19*
X72109231Y39039229D03*
X72109231Y39679229D03*
G04 #@! TD*
D55*
G04 #@! TO.C,C19*
X64890773Y101960776D03*
X64890773Y101320776D03*
G04 #@! TD*
G04 #@! TO.C,R7*
X20199231Y41499229D03*
X20199231Y40859229D03*
G04 #@! TD*
D54*
G04 #@! TO.C,R7*
X116800773Y99500776D03*
X116800773Y100140776D03*
G04 #@! TD*
D55*
G04 #@! TO.C,R7*
X83199231Y41499229D03*
X83199231Y40859229D03*
G04 #@! TD*
D54*
G04 #@! TO.C,R7*
X53800773Y99500776D03*
X53800773Y100140776D03*
G04 #@! TD*
D56*
G04 #@! TO.C,C11*
X110560773Y121045776D03*
X111520773Y121045776D03*
G04 #@! TD*
D57*
G04 #@! TO.C,C11*
X26439231Y19954229D03*
X25479231Y19954229D03*
G04 #@! TD*
D56*
G04 #@! TO.C,C11*
X47560773Y121045776D03*
X48520773Y121045776D03*
G04 #@! TD*
D57*
G04 #@! TO.C,C11*
X89439231Y19954229D03*
X88479231Y19954229D03*
G04 #@! TD*
D58*
G04 #@! TO.C,U5*
X21042731Y40861229D03*
D59*
X21042731Y41661229D03*
X21042731Y42461229D03*
X21042731Y43261229D03*
X23642731Y43261229D03*
X23642731Y42461229D03*
X23642731Y41661229D03*
X23642731Y40861229D03*
D60*
X22342731Y41259229D03*
X22342731Y42859229D03*
G04 #@! TD*
D61*
G04 #@! TO.C,U5*
X115957273Y100138776D03*
D62*
X115957273Y99338776D03*
X115957273Y98538776D03*
X115957273Y97738776D03*
X113357273Y97738776D03*
X113357273Y98538776D03*
X113357273Y99338776D03*
X113357273Y100138776D03*
D63*
X114657273Y99740776D03*
X114657273Y98140776D03*
G04 #@! TD*
D58*
G04 #@! TO.C,U5*
X84042731Y40861229D03*
D59*
X84042731Y41661229D03*
X84042731Y42461229D03*
X84042731Y43261229D03*
X86642731Y43261229D03*
X86642731Y42461229D03*
X86642731Y41661229D03*
X86642731Y40861229D03*
D60*
X85342731Y41259229D03*
X85342731Y42859229D03*
G04 #@! TD*
D61*
G04 #@! TO.C,U5*
X52957273Y100138776D03*
D62*
X52957273Y99338776D03*
X52957273Y98538776D03*
X52957273Y97738776D03*
X50357273Y97738776D03*
X50357273Y98538776D03*
X50357273Y99338776D03*
X50357273Y100138776D03*
D63*
X51657273Y99740776D03*
X51657273Y98140776D03*
G04 #@! TD*
D48*
G04 #@! TO.C,D24*
X128940773Y79870776D03*
D49*
X130040773Y79870776D03*
X130040773Y78040776D03*
X128940773Y78040776D03*
G04 #@! TD*
D50*
G04 #@! TO.C,D24*
X8059231Y61129229D03*
D51*
X6959231Y61129229D03*
X6959231Y62959229D03*
X8059231Y62959229D03*
G04 #@! TD*
D50*
G04 #@! TO.C,D24*
X71059231Y61129229D03*
D51*
X69959231Y61129229D03*
X69959231Y62959229D03*
X71059231Y62959229D03*
G04 #@! TD*
D48*
G04 #@! TO.C,D24*
X65940773Y79870776D03*
D49*
X67040773Y79870776D03*
X67040773Y78040776D03*
X65940773Y78040776D03*
G04 #@! TD*
D55*
G04 #@! TO.C,C18*
X9140773Y113610776D03*
X9140773Y112970776D03*
G04 #@! TD*
G04 #@! TO.C,C18*
X72140773Y113610776D03*
X72140773Y112970776D03*
G04 #@! TD*
D54*
G04 #@! TO.C,C18*
X64859231Y27389229D03*
X64859231Y28029229D03*
G04 #@! TD*
G04 #@! TO.C,C18*
X127859231Y27389229D03*
X127859231Y28029229D03*
G04 #@! TD*
D64*
G04 #@! TO.C,D4*
X105649231Y41289228D03*
X105649231Y42789228D03*
D65*
X100449231Y42789228D03*
D64*
X100449231Y41289228D03*
G04 #@! TD*
D66*
G04 #@! TO.C,D4*
X31350773Y99710777D03*
X31350773Y98210777D03*
D67*
X36550773Y98210777D03*
D66*
X36550773Y99710777D03*
G04 #@! TD*
G04 #@! TO.C,D4*
X94350773Y99710777D03*
X94350773Y98210777D03*
D67*
X99550773Y98210777D03*
D66*
X99550773Y99710777D03*
G04 #@! TD*
D64*
G04 #@! TO.C,D4*
X42649231Y41289228D03*
X42649231Y42789228D03*
D65*
X37449231Y42789228D03*
D64*
X37449231Y41289228D03*
G04 #@! TD*
D54*
G04 #@! TO.C,C21*
X109215773Y97850776D03*
X109215773Y98490776D03*
G04 #@! TD*
D55*
G04 #@! TO.C,C21*
X27784231Y43149229D03*
X27784231Y42509229D03*
G04 #@! TD*
G04 #@! TO.C,C21*
X90784231Y43149229D03*
X90784231Y42509229D03*
G04 #@! TD*
D54*
G04 #@! TO.C,C21*
X46215773Y97850776D03*
X46215773Y98490776D03*
G04 #@! TD*
D50*
G04 #@! TO.C,D22*
X71059231Y46299229D03*
D51*
X69959231Y46299229D03*
X69959231Y48129229D03*
X71059231Y48129229D03*
G04 #@! TD*
D48*
G04 #@! TO.C,D22*
X65940773Y94700776D03*
D49*
X67040773Y94700776D03*
X67040773Y92870776D03*
X65940773Y92870776D03*
G04 #@! TD*
D48*
G04 #@! TO.C,D22*
X128940773Y94700776D03*
D49*
X130040773Y94700776D03*
X130040773Y92870776D03*
X128940773Y92870776D03*
G04 #@! TD*
D50*
G04 #@! TO.C,D22*
X8059231Y46299229D03*
D51*
X6959231Y46299229D03*
X6959231Y48129229D03*
X8059231Y48129229D03*
G04 #@! TD*
D11*
G04 #@! TO.C,REF\u002A\u002A*
X5000000Y137150005D03*
G04 #@! TD*
D17*
G04 #@! TO.C,C35*
X41185773Y92145776D03*
X40545773Y92145776D03*
G04 #@! TD*
G04 #@! TO.C,C35*
X104185773Y92145776D03*
X103545773Y92145776D03*
G04 #@! TD*
D18*
G04 #@! TO.C,C35*
X32814231Y48854229D03*
X33454231Y48854229D03*
G04 #@! TD*
G04 #@! TO.C,C35*
X95814231Y48854229D03*
X96454231Y48854229D03*
G04 #@! TD*
D55*
G04 #@! TO.C,R3*
X39867053Y118816209D03*
X39867053Y118176209D03*
G04 #@! TD*
G04 #@! TO.C,R3*
X102867053Y118816209D03*
X102867053Y118176209D03*
G04 #@! TD*
D54*
G04 #@! TO.C,R3*
X34132951Y22183796D03*
X34132951Y22823796D03*
G04 #@! TD*
G04 #@! TO.C,R3*
X97132951Y22183796D03*
X97132951Y22823796D03*
G04 #@! TD*
D55*
G04 #@! TO.C,C16*
X127890773Y111860776D03*
X127890773Y111220776D03*
G04 #@! TD*
D54*
G04 #@! TO.C,C16*
X9109231Y29139229D03*
X9109231Y29779229D03*
G04 #@! TD*
G04 #@! TO.C,C16*
X72109231Y29139229D03*
X72109231Y29779229D03*
G04 #@! TD*
D55*
G04 #@! TO.C,C16*
X64890773Y111860776D03*
X64890773Y111220776D03*
G04 #@! TD*
D50*
G04 #@! TO.C,D15*
X71090773Y127955776D03*
D51*
X69990773Y127955776D03*
X69990773Y129785776D03*
X71090773Y129785776D03*
G04 #@! TD*
D48*
G04 #@! TO.C,D15*
X65909231Y13044229D03*
D49*
X67009231Y13044229D03*
X67009231Y11214229D03*
X65909231Y11214229D03*
G04 #@! TD*
D48*
G04 #@! TO.C,D15*
X128909231Y13044229D03*
D49*
X130009231Y13044229D03*
X130009231Y11214229D03*
X128909231Y11214229D03*
G04 #@! TD*
D50*
G04 #@! TO.C,D15*
X8090773Y127955776D03*
D51*
X6990773Y127955776D03*
X6990773Y129785776D03*
X8090773Y129785776D03*
G04 #@! TD*
D11*
G04 #@! TO.C,REF\u002A\u002A*
X5000000Y3850000D03*
G04 #@! TD*
D18*
G04 #@! TO.C,C20*
X17509231Y40419229D03*
X18149231Y40419229D03*
G04 #@! TD*
G04 #@! TO.C,C20*
X80509231Y40419229D03*
X81149231Y40419229D03*
G04 #@! TD*
D17*
G04 #@! TO.C,C20*
X56490773Y100580776D03*
X55850773Y100580776D03*
G04 #@! TD*
G04 #@! TO.C,C20*
X119490773Y100580776D03*
X118850773Y100580776D03*
G04 #@! TD*
D50*
G04 #@! TO.C,D25*
X8090773Y77955776D03*
D51*
X6990773Y77955776D03*
X6990773Y79785776D03*
X8090773Y79785776D03*
G04 #@! TD*
D50*
G04 #@! TO.C,D25*
X71090773Y77955776D03*
D51*
X69990773Y77955776D03*
X69990773Y79785776D03*
X71090773Y79785776D03*
G04 #@! TD*
D48*
G04 #@! TO.C,D25*
X65909231Y63044229D03*
D49*
X67009231Y63044229D03*
X67009231Y61214229D03*
X65909231Y61214229D03*
G04 #@! TD*
D48*
G04 #@! TO.C,D25*
X128909231Y63044229D03*
D49*
X130009231Y63044229D03*
X130009231Y61214229D03*
X128909231Y61214229D03*
G04 #@! TD*
D48*
G04 #@! TO.C,D18*
X65940773Y113700776D03*
D49*
X67040773Y113700776D03*
X67040773Y111870776D03*
X65940773Y111870776D03*
G04 #@! TD*
D48*
G04 #@! TO.C,D18*
X128940773Y113700776D03*
D49*
X130040773Y113700776D03*
X130040773Y111870776D03*
X128940773Y111870776D03*
G04 #@! TD*
D50*
G04 #@! TO.C,D18*
X8059231Y27299229D03*
D51*
X6959231Y27299229D03*
X6959231Y29129229D03*
X8059231Y29129229D03*
G04 #@! TD*
D50*
G04 #@! TO.C,D18*
X71059231Y27299229D03*
D51*
X69959231Y27299229D03*
X69959231Y29129229D03*
X71059231Y29129229D03*
G04 #@! TD*
D55*
G04 #@! TO.C,R6*
X116810773Y98395776D03*
X116810773Y97755776D03*
G04 #@! TD*
D54*
G04 #@! TO.C,R6*
X20189231Y42604229D03*
X20189231Y43244229D03*
G04 #@! TD*
G04 #@! TO.C,R6*
X83189231Y42604229D03*
X83189231Y43244229D03*
G04 #@! TD*
D55*
G04 #@! TO.C,R6*
X53810773Y98395776D03*
X53810773Y97755776D03*
G04 #@! TD*
D17*
G04 #@! TO.C,C28*
X31350773Y100560776D03*
X30710773Y100560776D03*
G04 #@! TD*
G04 #@! TO.C,C28*
X94350773Y100560776D03*
X93710773Y100560776D03*
G04 #@! TD*
D18*
G04 #@! TO.C,C28*
X42649231Y40439229D03*
X43289231Y40439229D03*
G04 #@! TD*
G04 #@! TO.C,C28*
X105649231Y40439229D03*
X106289231Y40439229D03*
G04 #@! TD*
D38*
G04 #@! TO.C,D27*
X52945773Y75180776D03*
D39*
X52945773Y74080776D03*
X51115773Y74080776D03*
X51115773Y75180776D03*
G04 #@! TD*
D38*
G04 #@! TO.C,D27*
X115945773Y75180776D03*
D39*
X115945773Y74080776D03*
X114115773Y74080776D03*
X114115773Y75180776D03*
G04 #@! TD*
D40*
G04 #@! TO.C,D27*
X21054231Y65819229D03*
D41*
X21054231Y66919229D03*
X22884231Y66919229D03*
X22884231Y65819229D03*
G04 #@! TD*
D40*
G04 #@! TO.C,D27*
X84054231Y65819229D03*
D41*
X84054231Y66919229D03*
X85884231Y66919229D03*
X85884231Y65819229D03*
G04 #@! TD*
D40*
G04 #@! TO.C,D11*
X31125773Y132820776D03*
D41*
X31125773Y133920776D03*
X32955773Y133920776D03*
X32955773Y132820776D03*
G04 #@! TD*
D40*
G04 #@! TO.C,D11*
X94125773Y132820776D03*
D41*
X94125773Y133920776D03*
X95955773Y133920776D03*
X95955773Y132820776D03*
G04 #@! TD*
D38*
G04 #@! TO.C,D11*
X42874231Y8179229D03*
D39*
X42874231Y7079229D03*
X41044231Y7079229D03*
X41044231Y8179229D03*
G04 #@! TD*
D38*
G04 #@! TO.C,D11*
X105874231Y8179229D03*
D39*
X105874231Y7079229D03*
X104044231Y7079229D03*
X104044231Y8179229D03*
G04 #@! TD*
D66*
G04 #@! TO.C,D5*
X56496252Y99701256D03*
X56496252Y98201256D03*
D67*
X61696252Y98201256D03*
D66*
X61696252Y99701256D03*
G04 #@! TD*
G04 #@! TO.C,D5*
X119496252Y99701256D03*
X119496252Y98201256D03*
D67*
X124696252Y98201256D03*
D66*
X124696252Y99701256D03*
G04 #@! TD*
D64*
G04 #@! TO.C,D5*
X17503752Y41298749D03*
X17503752Y42798749D03*
D65*
X12303752Y42798749D03*
D64*
X12303752Y41298749D03*
G04 #@! TD*
G04 #@! TO.C,D5*
X80503752Y41298749D03*
X80503752Y42798749D03*
D65*
X75303752Y42798749D03*
D64*
X75303752Y41298749D03*
G04 #@! TD*
D55*
G04 #@! TO.C,C37*
X47990773Y86165776D03*
X47990773Y85525776D03*
G04 #@! TD*
G04 #@! TO.C,C37*
X110990773Y86165776D03*
X110990773Y85525776D03*
G04 #@! TD*
D54*
G04 #@! TO.C,C37*
X26009231Y54834229D03*
X26009231Y55474229D03*
G04 #@! TD*
G04 #@! TO.C,C37*
X89009231Y54834229D03*
X89009231Y55474229D03*
G04 #@! TD*
D40*
G04 #@! TO.C,D31*
X124054231Y65819229D03*
D41*
X124054231Y66919229D03*
X125884231Y66919229D03*
X125884231Y65819229D03*
G04 #@! TD*
D38*
G04 #@! TO.C,D31*
X12945773Y75180776D03*
D39*
X12945773Y74080776D03*
X11115773Y74080776D03*
X11115773Y75180776D03*
G04 #@! TD*
D38*
G04 #@! TO.C,D31*
X75945773Y75180776D03*
D39*
X75945773Y74080776D03*
X74115773Y74080776D03*
X74115773Y75180776D03*
G04 #@! TD*
D40*
G04 #@! TO.C,D31*
X61054231Y65819229D03*
D41*
X61054231Y66919229D03*
X62884231Y66919229D03*
X62884231Y65819229D03*
G04 #@! TD*
D54*
G04 #@! TO.C,R4*
X45070773Y115290776D03*
X45070773Y115930776D03*
G04 #@! TD*
G04 #@! TO.C,R4*
X108070773Y115290776D03*
X108070773Y115930776D03*
G04 #@! TD*
D55*
G04 #@! TO.C,R4*
X28929231Y25709229D03*
X28929231Y25069229D03*
G04 #@! TD*
G04 #@! TO.C,R4*
X91929231Y25709229D03*
X91929231Y25069229D03*
G04 #@! TD*
D43*
G04 #@! TO.C,FB2*
X47540773Y123090776D03*
X47540773Y122070776D03*
G04 #@! TD*
G04 #@! TO.C,FB2*
X110540773Y123090776D03*
X110540773Y122070776D03*
G04 #@! TD*
D42*
G04 #@! TO.C,FB2*
X26459231Y17909229D03*
X26459231Y18929229D03*
G04 #@! TD*
G04 #@! TO.C,FB2*
X89459231Y17909229D03*
X89459231Y18929229D03*
G04 #@! TD*
D68*
G04 #@! TO.C,U4*
X41840773Y117745776D03*
D69*
X41340773Y117745776D03*
X40840773Y117745776D03*
X40840773Y119245776D03*
X41340773Y119245776D03*
X41840773Y119245776D03*
G04 #@! TD*
D68*
G04 #@! TO.C,U4*
X104840773Y117745776D03*
D69*
X104340773Y117745776D03*
X103840773Y117745776D03*
X103840773Y119245776D03*
X104340773Y119245776D03*
X104840773Y119245776D03*
G04 #@! TD*
D70*
G04 #@! TO.C,U4*
X32159231Y23254229D03*
D71*
X32659231Y23254229D03*
X33159231Y23254229D03*
X33159231Y21754229D03*
X32659231Y21754229D03*
X32159231Y21754229D03*
G04 #@! TD*
D70*
G04 #@! TO.C,U4*
X95159231Y23254229D03*
D71*
X95659231Y23254229D03*
X96159231Y23254229D03*
X96159231Y21754229D03*
X95659231Y21754229D03*
X95159231Y21754229D03*
G04 #@! TD*
D17*
G04 #@! TO.C,C43*
X12290773Y81550776D03*
X11650773Y81550776D03*
G04 #@! TD*
G04 #@! TO.C,C43*
X75290773Y81550776D03*
X74650773Y81550776D03*
G04 #@! TD*
D18*
G04 #@! TO.C,C43*
X61709231Y59449229D03*
X62349231Y59449229D03*
G04 #@! TD*
G04 #@! TO.C,C43*
X124709231Y59449229D03*
X125349231Y59449229D03*
G04 #@! TD*
D66*
G04 #@! TO.C,D3*
X12296252Y99701256D03*
X12296252Y98201256D03*
D67*
X17496252Y98201256D03*
D66*
X17496252Y99701256D03*
G04 #@! TD*
G04 #@! TO.C,D3*
X75296252Y99701256D03*
X75296252Y98201256D03*
D67*
X80496252Y98201256D03*
D66*
X80496252Y99701256D03*
G04 #@! TD*
D64*
G04 #@! TO.C,D3*
X61703752Y41298749D03*
X61703752Y42798749D03*
D65*
X56503752Y42798749D03*
D64*
X56503752Y41298749D03*
G04 #@! TD*
G04 #@! TO.C,D3*
X124703752Y41298749D03*
X124703752Y42798749D03*
D65*
X119503752Y42798749D03*
D64*
X119503752Y41298749D03*
G04 #@! TD*
D55*
G04 #@! TO.C,C24*
X49470773Y100140776D03*
X49470773Y99500776D03*
G04 #@! TD*
G04 #@! TO.C,C24*
X112470773Y100140776D03*
X112470773Y99500776D03*
G04 #@! TD*
D54*
G04 #@! TO.C,C24*
X24529231Y40859229D03*
X24529231Y41499229D03*
G04 #@! TD*
G04 #@! TO.C,C24*
X87529231Y40859229D03*
X87529231Y41499229D03*
G04 #@! TD*
D55*
G04 #@! TO.C,C38*
X45515773Y88590776D03*
X45515773Y87950776D03*
G04 #@! TD*
G04 #@! TO.C,C38*
X108515773Y88590776D03*
X108515773Y87950776D03*
G04 #@! TD*
D54*
G04 #@! TO.C,C38*
X28484231Y52409229D03*
X28484231Y53049229D03*
G04 #@! TD*
G04 #@! TO.C,C38*
X91484231Y52409229D03*
X91484231Y53049229D03*
G04 #@! TD*
D17*
G04 #@! TO.C,C29*
X12290773Y100580776D03*
X11650773Y100580776D03*
G04 #@! TD*
G04 #@! TO.C,C29*
X75290773Y100580776D03*
X74650773Y100580776D03*
G04 #@! TD*
D18*
G04 #@! TO.C,C29*
X61709231Y40419229D03*
X62349231Y40419229D03*
G04 #@! TD*
G04 #@! TO.C,C29*
X124709231Y40419229D03*
X125349231Y40419229D03*
G04 #@! TD*
D55*
G04 #@! TO.C,C44*
X9140773Y79780776D03*
X9140773Y79140776D03*
G04 #@! TD*
G04 #@! TO.C,C44*
X72140773Y79780776D03*
X72140773Y79140776D03*
G04 #@! TD*
D54*
G04 #@! TO.C,C44*
X64859231Y61219229D03*
X64859231Y61859229D03*
G04 #@! TD*
G04 #@! TO.C,C44*
X127859231Y61219229D03*
X127859231Y61859229D03*
G04 #@! TD*
D25*
G04 #@! TO.C,MX9*
X72823752Y56018750D03*
D26*
X75363752Y50938750D03*
D27*
X77903752Y56018750D03*
D26*
X81713752Y53478750D03*
D25*
X82983752Y56018750D03*
D29*
X84988752Y53478750D03*
X72061752Y50938750D03*
G04 #@! TD*
D25*
G04 #@! TO.C,MX9*
X64176252Y84981255D03*
D26*
X61636252Y90061255D03*
D27*
X59096252Y84981255D03*
D26*
X55286252Y87521255D03*
D25*
X54016252Y84981255D03*
D28*
X52011252Y87521255D03*
X64938252Y90061255D03*
G04 #@! TD*
D25*
G04 #@! TO.C,MX9*
X127176252Y84981255D03*
D26*
X124636252Y90061255D03*
D27*
X122096252Y84981255D03*
D26*
X118286252Y87521255D03*
D25*
X117016252Y84981255D03*
D28*
X115011252Y87521255D03*
X127938252Y90061255D03*
G04 #@! TD*
D25*
G04 #@! TO.C,MX9*
X9823752Y56018750D03*
D26*
X12363752Y50938750D03*
D27*
X14903752Y56018750D03*
D26*
X18713752Y53478750D03*
D25*
X19983752Y56018750D03*
D29*
X21988752Y53478750D03*
X9061752Y50938750D03*
G04 #@! TD*
D40*
G04 #@! TO.C,D10*
X41125773Y132820776D03*
D41*
X41125773Y133920776D03*
X42955773Y133920776D03*
X42955773Y132820776D03*
G04 #@! TD*
D40*
G04 #@! TO.C,D10*
X104125773Y132820776D03*
D41*
X104125773Y133920776D03*
X105955773Y133920776D03*
X105955773Y132820776D03*
G04 #@! TD*
D38*
G04 #@! TO.C,D10*
X32874231Y8179229D03*
D39*
X32874231Y7079229D03*
X31044231Y7079229D03*
X31044231Y8179229D03*
G04 #@! TD*
D38*
G04 #@! TO.C,D10*
X95874231Y8179229D03*
D39*
X95874231Y7079229D03*
X94044231Y7079229D03*
X94044231Y8179229D03*
G04 #@! TD*
D55*
G04 #@! TO.C,C15*
X64940773Y116540776D03*
X64940773Y115900776D03*
G04 #@! TD*
G04 #@! TO.C,C15*
X127940773Y116540776D03*
X127940773Y115900776D03*
G04 #@! TD*
D54*
G04 #@! TO.C,C15*
X9059231Y24459229D03*
X9059231Y25099229D03*
G04 #@! TD*
G04 #@! TO.C,C15*
X72059231Y24459229D03*
X72059231Y25099229D03*
G04 #@! TD*
D72*
G04 #@! TO.C,U1*
X49758273Y122370776D03*
D73*
X49220773Y122295776D03*
D74*
X48683273Y122370776D03*
X48683273Y124070776D03*
D73*
X49220773Y124145776D03*
D74*
X49758273Y124070776D03*
G04 #@! TD*
D72*
G04 #@! TO.C,U1*
X112758273Y122370776D03*
D73*
X112220773Y122295776D03*
D74*
X111683273Y122370776D03*
X111683273Y124070776D03*
D73*
X112220773Y124145776D03*
D74*
X112758273Y124070776D03*
G04 #@! TD*
D75*
G04 #@! TO.C,U1*
X24241731Y18629229D03*
D76*
X24779231Y18704229D03*
D77*
X25316731Y18629229D03*
X25316731Y16929229D03*
D76*
X24779231Y16854229D03*
D77*
X24241731Y16929229D03*
G04 #@! TD*
D75*
G04 #@! TO.C,U1*
X87241731Y18629229D03*
D76*
X87779231Y18704229D03*
D77*
X88316731Y18629229D03*
X88316731Y16929229D03*
D76*
X87779231Y16854229D03*
D77*
X87241731Y16929229D03*
G04 #@! TD*
D25*
G04 #@! TO.C,MX1*
X19976252Y123081255D03*
D26*
X17436252Y128161255D03*
D27*
X14896252Y123081255D03*
D26*
X11086252Y125621255D03*
D25*
X9816252Y123081255D03*
D28*
X7811252Y125621255D03*
X20738252Y128161255D03*
G04 #@! TD*
D25*
G04 #@! TO.C,MX1*
X82976252Y123081255D03*
D26*
X80436252Y128161255D03*
D27*
X77896252Y123081255D03*
D26*
X74086252Y125621255D03*
D25*
X72816252Y123081255D03*
D28*
X70811252Y125621255D03*
X83738252Y128161255D03*
G04 #@! TD*
D25*
G04 #@! TO.C,MX1*
X54023752Y17918750D03*
D26*
X56563752Y12838750D03*
D27*
X59103752Y17918750D03*
D26*
X62913752Y15378750D03*
D25*
X64183752Y17918750D03*
D29*
X66188752Y15378750D03*
X53261752Y12838750D03*
G04 #@! TD*
D25*
G04 #@! TO.C,MX1*
X117023752Y17918750D03*
D26*
X119563752Y12838750D03*
D27*
X122103752Y17918750D03*
D26*
X125913752Y15378750D03*
D25*
X127183752Y17918750D03*
D29*
X129188752Y15378750D03*
X116261752Y12838750D03*
G04 #@! TD*
D25*
G04 #@! TO.C,MX2*
X39026252Y123081255D03*
D26*
X36486252Y128161255D03*
D27*
X33946252Y123081255D03*
D26*
X30136252Y125621255D03*
D25*
X28866252Y123081255D03*
D28*
X26861252Y125621255D03*
X39788252Y128161255D03*
G04 #@! TD*
D25*
G04 #@! TO.C,MX2*
X102026252Y123081255D03*
D26*
X99486252Y128161255D03*
D27*
X96946252Y123081255D03*
D26*
X93136252Y125621255D03*
D25*
X91866252Y123081255D03*
D28*
X89861252Y125621255D03*
X102788252Y128161255D03*
G04 #@! TD*
D25*
G04 #@! TO.C,MX2*
X34973752Y17918750D03*
D26*
X37513752Y12838750D03*
D27*
X40053752Y17918750D03*
D26*
X43863752Y15378750D03*
D25*
X45133752Y17918750D03*
D29*
X47138752Y15378750D03*
X34211752Y12838750D03*
G04 #@! TD*
D25*
G04 #@! TO.C,MX2*
X97973752Y17918750D03*
D26*
X100513752Y12838750D03*
D27*
X103053752Y17918750D03*
D26*
X106863752Y15378750D03*
D25*
X108133752Y17918750D03*
D29*
X110138752Y15378750D03*
X97211752Y12838750D03*
G04 #@! TD*
D55*
G04 #@! TO.C,C6*
X9160773Y129780776D03*
X9160773Y129140776D03*
G04 #@! TD*
G04 #@! TO.C,C6*
X72160773Y129780776D03*
X72160773Y129140776D03*
G04 #@! TD*
D54*
G04 #@! TO.C,C6*
X64839231Y11219229D03*
X64839231Y11859229D03*
G04 #@! TD*
G04 #@! TO.C,C6*
X127839231Y11219229D03*
X127839231Y11859229D03*
G04 #@! TD*
G04 #@! TO.C,C39*
X92084231Y52409229D03*
X92084231Y53049229D03*
G04 #@! TD*
D55*
G04 #@! TO.C,C39*
X44915773Y88590776D03*
X44915773Y87950776D03*
G04 #@! TD*
G04 #@! TO.C,C39*
X107915773Y88590776D03*
X107915773Y87950776D03*
G04 #@! TD*
D54*
G04 #@! TO.C,C39*
X29084231Y52409229D03*
X29084231Y53049229D03*
G04 #@! TD*
D66*
G04 #@! TO.C,D7*
X94346252Y80651256D03*
X94346252Y79151256D03*
D67*
X99546252Y79151256D03*
D66*
X99546252Y80651256D03*
G04 #@! TD*
G04 #@! TO.C,D7*
X31346252Y80651256D03*
X31346252Y79151256D03*
D67*
X36546252Y79151256D03*
D66*
X36546252Y80651256D03*
G04 #@! TD*
D64*
G04 #@! TO.C,D7*
X42653752Y60348749D03*
X42653752Y61848749D03*
D65*
X37453752Y61848749D03*
D64*
X37453752Y60348749D03*
G04 #@! TD*
G04 #@! TO.C,D7*
X105653752Y60348749D03*
X105653752Y61848749D03*
D65*
X100453752Y61848749D03*
D64*
X100453752Y60348749D03*
G04 #@! TD*
D54*
G04 #@! TO.C,R2*
X47750773Y125100776D03*
X47750773Y125740776D03*
G04 #@! TD*
G04 #@! TO.C,R2*
X110750773Y125100776D03*
X110750773Y125740776D03*
G04 #@! TD*
D55*
G04 #@! TO.C,R2*
X26249231Y15899229D03*
X26249231Y15259229D03*
G04 #@! TD*
G04 #@! TO.C,R2*
X89249231Y15899229D03*
X89249231Y15259229D03*
G04 #@! TD*
D17*
G04 #@! TO.C,C12*
X31340773Y119600776D03*
X30700773Y119600776D03*
G04 #@! TD*
G04 #@! TO.C,C12*
X94340773Y119600776D03*
X93700773Y119600776D03*
G04 #@! TD*
D18*
G04 #@! TO.C,C12*
X42659231Y21399229D03*
X43299231Y21399229D03*
G04 #@! TD*
G04 #@! TO.C,C12*
X105659231Y21399229D03*
X106299231Y21399229D03*
G04 #@! TD*
D50*
G04 #@! TO.C,D17*
X8090773Y119705776D03*
D51*
X6990773Y119705776D03*
X6990773Y121535776D03*
X8090773Y121535776D03*
G04 #@! TD*
D50*
G04 #@! TO.C,D17*
X71090773Y119705776D03*
D51*
X69990773Y119705776D03*
X69990773Y121535776D03*
X71090773Y121535776D03*
G04 #@! TD*
D48*
G04 #@! TO.C,D17*
X65909231Y21294229D03*
D49*
X67009231Y21294229D03*
X67009231Y19464229D03*
X65909231Y19464229D03*
G04 #@! TD*
D48*
G04 #@! TO.C,D17*
X128909231Y21294229D03*
D49*
X130009231Y21294229D03*
X130009231Y19464229D03*
X128909231Y19464229D03*
G04 #@! TD*
D66*
G04 #@! TO.C,D8*
X56496252Y80651256D03*
X56496252Y79151256D03*
D67*
X61696252Y79151256D03*
D66*
X61696252Y80651256D03*
G04 #@! TD*
G04 #@! TO.C,D8*
X119496252Y80651256D03*
X119496252Y79151256D03*
D67*
X124696252Y79151256D03*
D66*
X124696252Y80651256D03*
G04 #@! TD*
D64*
G04 #@! TO.C,D8*
X17503752Y60348749D03*
X17503752Y61848749D03*
D65*
X12303752Y61848749D03*
D64*
X12303752Y60348749D03*
G04 #@! TD*
G04 #@! TO.C,D8*
X80503752Y60348749D03*
X80503752Y61848749D03*
D65*
X75303752Y61848749D03*
D64*
X75303752Y60348749D03*
G04 #@! TD*
D40*
G04 #@! TO.C,D12*
X16125773Y132820776D03*
D41*
X16125773Y133920776D03*
X17955773Y133920776D03*
X17955773Y132820776D03*
G04 #@! TD*
D40*
G04 #@! TO.C,D12*
X79125773Y132820776D03*
D41*
X79125773Y133920776D03*
X80955773Y133920776D03*
X80955773Y132820776D03*
G04 #@! TD*
D38*
G04 #@! TO.C,D12*
X57874231Y8179229D03*
D39*
X57874231Y7079229D03*
X56044231Y7079229D03*
X56044231Y8179229D03*
G04 #@! TD*
D38*
G04 #@! TO.C,D12*
X120874231Y8179229D03*
D39*
X120874231Y7079229D03*
X119044231Y7079229D03*
X119044231Y8179229D03*
G04 #@! TD*
D78*
G04 #@! TO.C,J1*
X47410773Y127600776D03*
X48210773Y127600776D03*
D79*
X49360773Y127600776D03*
X50360773Y127600776D03*
X50860773Y127600776D03*
X51860773Y127600776D03*
D78*
X53010773Y127600776D03*
X53810773Y127600776D03*
X53810773Y127600776D03*
X53010773Y127600776D03*
D79*
X52360773Y127600776D03*
X51360773Y127600776D03*
X49860773Y127600776D03*
X48860773Y127600776D03*
D78*
X48210773Y127600776D03*
X47410773Y127600776D03*
D80*
X45035772Y128900775D03*
X56185772Y128900775D03*
D81*
X56185772Y132900775D03*
X45035772Y132900775D03*
G04 #@! TD*
D78*
G04 #@! TO.C,J1*
X110410773Y127600776D03*
X111210773Y127600776D03*
D79*
X112360773Y127600776D03*
X113360773Y127600776D03*
X113860773Y127600776D03*
X114860773Y127600776D03*
D78*
X116010773Y127600776D03*
X116810773Y127600776D03*
X116810773Y127600776D03*
X116010773Y127600776D03*
D79*
X115360773Y127600776D03*
X114360773Y127600776D03*
X112860773Y127600776D03*
X111860773Y127600776D03*
D78*
X111210773Y127600776D03*
X110410773Y127600776D03*
D80*
X108035772Y128900775D03*
X119185772Y128900775D03*
D81*
X119185772Y132900775D03*
X108035772Y132900775D03*
G04 #@! TD*
D82*
G04 #@! TO.C,J1*
X26589231Y13399229D03*
X25789231Y13399229D03*
D83*
X24639231Y13399229D03*
X23639231Y13399229D03*
X23139231Y13399229D03*
X22139231Y13399229D03*
D82*
X20989231Y13399229D03*
X20189231Y13399229D03*
X20189231Y13399229D03*
X20989231Y13399229D03*
D83*
X21639231Y13399229D03*
X22639231Y13399229D03*
X24139231Y13399229D03*
X25139231Y13399229D03*
D82*
X25789231Y13399229D03*
X26589231Y13399229D03*
D80*
X28964230Y12099228D03*
X17814230Y12099228D03*
D81*
X17814230Y8099228D03*
X28964230Y8099228D03*
G04 #@! TD*
D82*
G04 #@! TO.C,J1*
X89589231Y13399229D03*
X88789231Y13399229D03*
D83*
X87639231Y13399229D03*
X86639231Y13399229D03*
X86139231Y13399229D03*
X85139231Y13399229D03*
D82*
X83989231Y13399229D03*
X83189231Y13399229D03*
X83189231Y13399229D03*
X83989231Y13399229D03*
D83*
X84639231Y13399229D03*
X85639231Y13399229D03*
X87139231Y13399229D03*
X88139231Y13399229D03*
D82*
X88789231Y13399229D03*
X89589231Y13399229D03*
D80*
X91964230Y12099228D03*
X80814230Y12099228D03*
D81*
X80814230Y8099228D03*
X91964230Y8099228D03*
G04 #@! TD*
D17*
G04 #@! TO.C,C49*
X31110773Y76230776D03*
X30470773Y76230776D03*
G04 #@! TD*
G04 #@! TO.C,C49*
X94110773Y76230776D03*
X93470773Y76230776D03*
G04 #@! TD*
D18*
G04 #@! TO.C,C49*
X42889231Y64769229D03*
X43529231Y64769229D03*
G04 #@! TD*
G04 #@! TO.C,C49*
X105889231Y64769229D03*
X106529231Y64769229D03*
G04 #@! TD*
D48*
G04 #@! TO.C,D16*
X65990773Y118370776D03*
D49*
X67090773Y118370776D03*
X67090773Y116540776D03*
X65990773Y116540776D03*
G04 #@! TD*
D48*
G04 #@! TO.C,D16*
X128990773Y118370776D03*
D49*
X130090773Y118370776D03*
X130090773Y116540776D03*
X128990773Y116540776D03*
G04 #@! TD*
D50*
G04 #@! TO.C,D16*
X8009231Y22629229D03*
D51*
X6909231Y22629229D03*
X6909231Y24459229D03*
X8009231Y24459229D03*
G04 #@! TD*
D50*
G04 #@! TO.C,D16*
X71009231Y22629229D03*
D51*
X69909231Y22629229D03*
X69909231Y24459229D03*
X71009231Y24459229D03*
G04 #@! TD*
D18*
G04 #@! TO.C,C32*
X50700773Y92145776D03*
X51340773Y92145776D03*
G04 #@! TD*
G04 #@! TO.C,C32*
X113700773Y92145776D03*
X114340773Y92145776D03*
G04 #@! TD*
D17*
G04 #@! TO.C,C32*
X23299231Y48854229D03*
X22659231Y48854229D03*
G04 #@! TD*
G04 #@! TO.C,C32*
X86299231Y48854229D03*
X85659231Y48854229D03*
G04 #@! TD*
G04 #@! TO.C,C46*
X61130773Y76230776D03*
X60490773Y76230776D03*
G04 #@! TD*
G04 #@! TO.C,C46*
X124130773Y76230776D03*
X123490773Y76230776D03*
G04 #@! TD*
D18*
G04 #@! TO.C,C46*
X12869231Y64769229D03*
X13509231Y64769229D03*
G04 #@! TD*
G04 #@! TO.C,C46*
X75869231Y64769229D03*
X76509231Y64769229D03*
G04 #@! TD*
D17*
G04 #@! TO.C,C34*
X104185773Y95745776D03*
X103545773Y95745776D03*
G04 #@! TD*
D18*
G04 #@! TO.C,C34*
X32814231Y45254229D03*
X33454231Y45254229D03*
G04 #@! TD*
G04 #@! TO.C,C34*
X95814231Y45254229D03*
X96454231Y45254229D03*
G04 #@! TD*
D17*
G04 #@! TO.C,C34*
X41185773Y95745776D03*
X40545773Y95745776D03*
G04 #@! TD*
D38*
G04 #@! TO.C,D28*
X42945773Y75180776D03*
D39*
X42945773Y74080776D03*
X41115773Y74080776D03*
X41115773Y75180776D03*
G04 #@! TD*
D38*
G04 #@! TO.C,D28*
X105945773Y75180776D03*
D39*
X105945773Y74080776D03*
X104115773Y74080776D03*
X104115773Y75180776D03*
G04 #@! TD*
D40*
G04 #@! TO.C,D28*
X31054231Y65819229D03*
D41*
X31054231Y66919229D03*
X32884231Y66919229D03*
X32884231Y65819229D03*
G04 #@! TD*
D40*
G04 #@! TO.C,D28*
X94054231Y65819229D03*
D41*
X94054231Y66919229D03*
X95884231Y66919229D03*
X95884231Y65819229D03*
G04 #@! TD*
D55*
G04 #@! TO.C,R8*
X45015773Y98495776D03*
X45015773Y97855776D03*
G04 #@! TD*
G04 #@! TO.C,R8*
X108015773Y98495776D03*
X108015773Y97855776D03*
G04 #@! TD*
D54*
G04 #@! TO.C,R8*
X28984231Y42504229D03*
X28984231Y43144229D03*
G04 #@! TD*
G04 #@! TO.C,R8*
X91984231Y42504229D03*
X91984231Y43144229D03*
G04 #@! TD*
D48*
G04 #@! TO.C,D14*
X65940773Y129870776D03*
D49*
X67040773Y129870776D03*
X67040773Y128040776D03*
X65940773Y128040776D03*
G04 #@! TD*
D48*
G04 #@! TO.C,D14*
X128940773Y129870776D03*
D49*
X130040773Y129870776D03*
X130040773Y128040776D03*
X128940773Y128040776D03*
G04 #@! TD*
D50*
G04 #@! TO.C,D14*
X8059231Y11129229D03*
D51*
X6959231Y11129229D03*
X6959231Y12959229D03*
X8059231Y12959229D03*
G04 #@! TD*
D50*
G04 #@! TO.C,D14*
X71059231Y11129229D03*
D51*
X69959231Y11129229D03*
X69959231Y12959229D03*
X71059231Y12959229D03*
G04 #@! TD*
D11*
G04 #@! TO.C,REF\u002A\u002A*
X132000004Y137150005D03*
G04 #@! TD*
D55*
G04 #@! TO.C,C36*
X9140773Y94610776D03*
X9140773Y93970776D03*
G04 #@! TD*
G04 #@! TO.C,C36*
X72140773Y94610776D03*
X72140773Y93970776D03*
G04 #@! TD*
D54*
G04 #@! TO.C,C36*
X64859231Y46389229D03*
X64859231Y47029229D03*
G04 #@! TD*
G04 #@! TO.C,C36*
X127859231Y46389229D03*
X127859231Y47029229D03*
G04 #@! TD*
D55*
G04 #@! TO.C,C30*
X9140773Y102670776D03*
X9140773Y102030776D03*
G04 #@! TD*
G04 #@! TO.C,C30*
X72140773Y102670776D03*
X72140773Y102030776D03*
G04 #@! TD*
D54*
G04 #@! TO.C,C30*
X64859231Y38329229D03*
X64859231Y38969229D03*
G04 #@! TD*
G04 #@! TO.C,C30*
X127859231Y38329229D03*
X127859231Y38969229D03*
G04 #@! TD*
D17*
G04 #@! TO.C,C50*
X21110773Y76230776D03*
X20470773Y76230776D03*
G04 #@! TD*
G04 #@! TO.C,C50*
X84110773Y76230776D03*
X83470773Y76230776D03*
G04 #@! TD*
D18*
G04 #@! TO.C,C50*
X52889231Y64769229D03*
X53529231Y64769229D03*
G04 #@! TD*
G04 #@! TO.C,C50*
X115889231Y64769229D03*
X116529231Y64769229D03*
G04 #@! TD*
D38*
G04 #@! TO.C,D29*
X32945773Y75180776D03*
D39*
X32945773Y74080776D03*
X31115773Y74080776D03*
X31115773Y75180776D03*
G04 #@! TD*
D38*
G04 #@! TO.C,D29*
X95945773Y75180776D03*
D39*
X95945773Y74080776D03*
X94115773Y74080776D03*
X94115773Y75180776D03*
G04 #@! TD*
D40*
G04 #@! TO.C,D29*
X41054231Y65819229D03*
D41*
X41054231Y66919229D03*
X42884231Y66919229D03*
X42884231Y65819229D03*
G04 #@! TD*
D40*
G04 #@! TO.C,D29*
X104054231Y65819229D03*
D41*
X104054231Y66919229D03*
X105884231Y66919229D03*
X105884231Y65819229D03*
G04 #@! TD*
D55*
G04 #@! TO.C,C22*
X43815773Y98490776D03*
X43815773Y97850776D03*
G04 #@! TD*
G04 #@! TO.C,C22*
X106815773Y98490776D03*
X106815773Y97850776D03*
G04 #@! TD*
D54*
G04 #@! TO.C,C22*
X30184231Y42509229D03*
X30184231Y43149229D03*
G04 #@! TD*
G04 #@! TO.C,C22*
X93184231Y42509229D03*
X93184231Y43149229D03*
G04 #@! TD*
D17*
G04 #@! TO.C,C47*
X51120773Y76230776D03*
X50480773Y76230776D03*
G04 #@! TD*
G04 #@! TO.C,C47*
X114120773Y76230776D03*
X113480773Y76230776D03*
G04 #@! TD*
D18*
G04 #@! TO.C,C47*
X22879231Y64769229D03*
X23519231Y64769229D03*
G04 #@! TD*
G04 #@! TO.C,C47*
X85879231Y64769229D03*
X86519231Y64769229D03*
G04 #@! TD*
D55*
G04 #@! TO.C,C31*
X64890773Y92860776D03*
X64890773Y92220776D03*
G04 #@! TD*
G04 #@! TO.C,C31*
X127890773Y92860776D03*
X127890773Y92220776D03*
G04 #@! TD*
D54*
G04 #@! TO.C,C31*
X9109231Y48139229D03*
X9109231Y48779229D03*
G04 #@! TD*
G04 #@! TO.C,C31*
X72109231Y48139229D03*
X72109231Y48779229D03*
G04 #@! TD*
D18*
G04 #@! TO.C,C8*
X63720773Y122670776D03*
X64360773Y122670776D03*
G04 #@! TD*
G04 #@! TO.C,C8*
X126720773Y122670776D03*
X127360773Y122670776D03*
G04 #@! TD*
D17*
G04 #@! TO.C,C8*
X10279231Y18329229D03*
X9639231Y18329229D03*
G04 #@! TD*
G04 #@! TO.C,C8*
X73279231Y18329229D03*
X72639231Y18329229D03*
G04 #@! TD*
D84*
G04 #@! TO.C,U2*
X46610773Y119628276D03*
D85*
X47560773Y119628276D03*
X48510773Y119628276D03*
X48510773Y117353276D03*
X46610773Y117353276D03*
G04 #@! TD*
D84*
G04 #@! TO.C,U2*
X109610773Y119628276D03*
D85*
X110560773Y119628276D03*
X111510773Y119628276D03*
X111510773Y117353276D03*
X109610773Y117353276D03*
G04 #@! TD*
D86*
G04 #@! TO.C,U2*
X27389231Y21371729D03*
D87*
X26439231Y21371729D03*
X25489231Y21371729D03*
X25489231Y23646729D03*
X27389231Y23646729D03*
G04 #@! TD*
D86*
G04 #@! TO.C,U2*
X90389231Y21371729D03*
D87*
X89439231Y21371729D03*
X88489231Y21371729D03*
X88489231Y23646729D03*
X90389231Y23646729D03*
G04 #@! TD*
D54*
G04 #@! TO.C,R10*
X46115773Y87950776D03*
X46115773Y88590776D03*
G04 #@! TD*
G04 #@! TO.C,R10*
X109115773Y87950776D03*
X109115773Y88590776D03*
G04 #@! TD*
D55*
G04 #@! TO.C,R10*
X27884231Y53049229D03*
X27884231Y52409229D03*
G04 #@! TD*
G04 #@! TO.C,R10*
X90884231Y53049229D03*
X90884231Y52409229D03*
G04 #@! TD*
D17*
G04 #@! TO.C,C1*
X125960773Y131770776D03*
X125320773Y131770776D03*
G04 #@! TD*
D18*
G04 #@! TO.C,C1*
X11039231Y9229229D03*
X11679231Y9229229D03*
G04 #@! TD*
G04 #@! TO.C,C1*
X74039231Y9229229D03*
X74679231Y9229229D03*
G04 #@! TD*
D17*
G04 #@! TO.C,C1*
X62960773Y131770776D03*
X62320773Y131770776D03*
G04 #@! TD*
D18*
G04 #@! TO.C,C7*
X63720773Y123470776D03*
X64360773Y123470776D03*
G04 #@! TD*
G04 #@! TO.C,C7*
X126720773Y123470776D03*
X127360773Y123470776D03*
G04 #@! TD*
D17*
G04 #@! TO.C,C7*
X10279231Y17529229D03*
X9639231Y17529229D03*
G04 #@! TD*
G04 #@! TO.C,C7*
X73279231Y17529229D03*
X72639231Y17529229D03*
G04 #@! TD*
D66*
G04 #@! TO.C,D6*
X12296252Y80651256D03*
X12296252Y79151256D03*
D67*
X17496252Y79151256D03*
D66*
X17496252Y80651256D03*
G04 #@! TD*
G04 #@! TO.C,D6*
X75296252Y80651256D03*
X75296252Y79151256D03*
D67*
X80496252Y79151256D03*
D66*
X80496252Y80651256D03*
G04 #@! TD*
D64*
G04 #@! TO.C,D6*
X61703752Y60348749D03*
X61703752Y61848749D03*
D65*
X56503752Y61848749D03*
D64*
X56503752Y60348749D03*
G04 #@! TD*
G04 #@! TO.C,D6*
X124703752Y60348749D03*
X124703752Y61848749D03*
D65*
X119503752Y61848749D03*
D64*
X119503752Y60348749D03*
G04 #@! TD*
D17*
G04 #@! TO.C,C42*
X31340773Y81540776D03*
X30700773Y81540776D03*
G04 #@! TD*
G04 #@! TO.C,C42*
X94340773Y81540776D03*
X93700773Y81540776D03*
G04 #@! TD*
D18*
G04 #@! TO.C,C42*
X42659231Y59459229D03*
X43299231Y59459229D03*
G04 #@! TD*
G04 #@! TO.C,C42*
X105659231Y59459229D03*
X106299231Y59459229D03*
G04 #@! TD*
D66*
G04 #@! TO.C,D2*
X31346252Y118751256D03*
X31346252Y117251256D03*
D67*
X36546252Y117251256D03*
D66*
X36546252Y118751256D03*
G04 #@! TD*
G04 #@! TO.C,D2*
X94346252Y118751256D03*
X94346252Y117251256D03*
D67*
X99546252Y117251256D03*
D66*
X99546252Y118751256D03*
G04 #@! TD*
D64*
G04 #@! TO.C,D2*
X42653752Y22248749D03*
X42653752Y23748749D03*
D65*
X37453752Y23748749D03*
D64*
X37453752Y22248749D03*
G04 #@! TD*
G04 #@! TO.C,D2*
X105653752Y22248749D03*
X105653752Y23748749D03*
D65*
X100453752Y23748749D03*
D64*
X100453752Y22248749D03*
G04 #@! TD*
D25*
G04 #@! TO.C,MX7*
X19976252Y84981255D03*
D26*
X17436252Y90061255D03*
D27*
X14896252Y84981255D03*
D26*
X11086252Y87521255D03*
D25*
X9816252Y84981255D03*
D28*
X7811252Y87521255D03*
X20738252Y90061255D03*
G04 #@! TD*
D25*
G04 #@! TO.C,MX7*
X82976252Y84981255D03*
D26*
X80436252Y90061255D03*
D27*
X77896252Y84981255D03*
D26*
X74086252Y87521255D03*
D25*
X72816252Y84981255D03*
D28*
X70811252Y87521255D03*
X83738252Y90061255D03*
G04 #@! TD*
D25*
G04 #@! TO.C,MX7*
X54023752Y56018750D03*
D26*
X56563752Y50938750D03*
D27*
X59103752Y56018750D03*
D26*
X62913752Y53478750D03*
D25*
X64183752Y56018750D03*
D29*
X66188752Y53478750D03*
X53261752Y50938750D03*
G04 #@! TD*
D25*
G04 #@! TO.C,MX7*
X117023752Y56018750D03*
D26*
X119563752Y50938750D03*
D27*
X122103752Y56018750D03*
D26*
X125913752Y53478750D03*
D25*
X127183752Y56018750D03*
D29*
X129188752Y53478750D03*
X116261752Y50938750D03*
G04 #@! TD*
D17*
G04 #@! TO.C,C48*
X41130773Y76230776D03*
X40490773Y76230776D03*
G04 #@! TD*
G04 #@! TO.C,C48*
X104130773Y76230776D03*
X103490773Y76230776D03*
G04 #@! TD*
D18*
G04 #@! TO.C,C48*
X32869231Y64769229D03*
X33509231Y64769229D03*
G04 #@! TD*
G04 #@! TO.C,C48*
X95869231Y64769229D03*
X96509231Y64769229D03*
G04 #@! TD*
D54*
G04 #@! TO.C,C40*
X43865773Y85525776D03*
X43865773Y86165776D03*
G04 #@! TD*
G04 #@! TO.C,C40*
X106865773Y85525776D03*
X106865773Y86165776D03*
G04 #@! TD*
D55*
G04 #@! TO.C,C40*
X30134231Y55474229D03*
X30134231Y54834229D03*
G04 #@! TD*
G04 #@! TO.C,C40*
X93134231Y55474229D03*
X93134231Y54834229D03*
G04 #@! TD*
D88*
G04 #@! TO.C,Y1*
X91959231Y54429229D03*
D89*
X90209231Y54429229D03*
X90209231Y55829229D03*
X91959231Y55829229D03*
G04 #@! TD*
D90*
G04 #@! TO.C,Y1*
X45040773Y86570776D03*
D91*
X46790773Y86570776D03*
X46790773Y85170776D03*
X45040773Y85170776D03*
G04 #@! TD*
D90*
G04 #@! TO.C,Y1*
X108040773Y86570776D03*
D91*
X109790773Y86570776D03*
X109790773Y85170776D03*
X108040773Y85170776D03*
G04 #@! TD*
D88*
G04 #@! TO.C,Y1*
X28959231Y54429229D03*
D89*
X27209231Y54429229D03*
X27209231Y55829229D03*
X28959231Y55829229D03*
G04 #@! TD*
D56*
G04 #@! TO.C,C17*
X46620773Y115880776D03*
X47580773Y115880776D03*
G04 #@! TD*
G04 #@! TO.C,C17*
X109620773Y115880776D03*
X110580773Y115880776D03*
G04 #@! TD*
D57*
G04 #@! TO.C,C17*
X27379231Y25119229D03*
X26419231Y25119229D03*
G04 #@! TD*
G04 #@! TO.C,C17*
X90379231Y25119229D03*
X89419231Y25119229D03*
G04 #@! TD*
D92*
G04 #@! TO.C,J2*
X21690773Y130995776D03*
X22190773Y130995776D03*
X22690773Y130995776D03*
X23190773Y130995776D03*
X23690773Y130995776D03*
X24190773Y130995776D03*
X24690773Y130995776D03*
X25190773Y130995776D03*
X25690773Y130995776D03*
X26190773Y130995776D03*
X26690773Y130995776D03*
X27190773Y130995776D03*
D93*
X28840773Y133345776D03*
X20040773Y133345776D03*
G04 #@! TD*
D92*
G04 #@! TO.C,J2*
X84690773Y130995776D03*
X85190773Y130995776D03*
X85690773Y130995776D03*
X86190773Y130995776D03*
X86690773Y130995776D03*
X87190773Y130995776D03*
X87690773Y130995776D03*
X88190773Y130995776D03*
X88690773Y130995776D03*
X89190773Y130995776D03*
X89690773Y130995776D03*
X90190773Y130995776D03*
D93*
X91840773Y133345776D03*
X83040773Y133345776D03*
G04 #@! TD*
D94*
G04 #@! TO.C,J2*
X52309231Y10004229D03*
X51809231Y10004229D03*
X51309231Y10004229D03*
X50809231Y10004229D03*
X50309231Y10004229D03*
X49809231Y10004229D03*
X49309231Y10004229D03*
X48809231Y10004229D03*
X48309231Y10004229D03*
X47809231Y10004229D03*
X47309231Y10004229D03*
X46809231Y10004229D03*
D95*
X45159231Y7654229D03*
X53959231Y7654229D03*
G04 #@! TD*
D94*
G04 #@! TO.C,J2*
X115309231Y10004229D03*
X114809231Y10004229D03*
X114309231Y10004229D03*
X113809231Y10004229D03*
X113309231Y10004229D03*
X112809231Y10004229D03*
X112309231Y10004229D03*
X111809231Y10004229D03*
X111309231Y10004229D03*
X110809231Y10004229D03*
X110309231Y10004229D03*
X109809231Y10004229D03*
D95*
X108159231Y7654229D03*
X116959231Y7654229D03*
G04 #@! TD*
D17*
G04 #@! TO.C,C2*
X42960773Y131770776D03*
X42320773Y131770776D03*
G04 #@! TD*
G04 #@! TO.C,C2*
X105960773Y131770776D03*
X105320773Y131770776D03*
G04 #@! TD*
D18*
G04 #@! TO.C,C2*
X31039231Y9229229D03*
X31679231Y9229229D03*
G04 #@! TD*
G04 #@! TO.C,C2*
X94039231Y9229229D03*
X94679231Y9229229D03*
G04 #@! TD*
D66*
G04 #@! TO.C,D1*
X12296252Y118751256D03*
X12296252Y117251256D03*
D67*
X17496252Y117251256D03*
D66*
X17496252Y118751256D03*
G04 #@! TD*
G04 #@! TO.C,D1*
X75296252Y118751256D03*
X75296252Y117251256D03*
D67*
X80496252Y117251256D03*
D66*
X80496252Y118751256D03*
G04 #@! TD*
D64*
G04 #@! TO.C,D1*
X61703752Y22248749D03*
X61703752Y23748749D03*
D65*
X56503752Y23748749D03*
D64*
X56503752Y22248749D03*
G04 #@! TD*
G04 #@! TO.C,D1*
X124703752Y22248749D03*
X124703752Y23748749D03*
D65*
X119503752Y23748749D03*
D64*
X119503752Y22248749D03*
G04 #@! TD*
D55*
G04 #@! TO.C,R9*
X44415773Y98490776D03*
X44415773Y97850776D03*
G04 #@! TD*
G04 #@! TO.C,R9*
X107415773Y98490776D03*
X107415773Y97850776D03*
G04 #@! TD*
D54*
G04 #@! TO.C,R9*
X29584231Y42509229D03*
X29584231Y43149229D03*
G04 #@! TD*
G04 #@! TO.C,R9*
X92584231Y42509229D03*
X92584231Y43149229D03*
G04 #@! TD*
D55*
G04 #@! TO.C,C26*
X43215773Y98490776D03*
X43215773Y97850776D03*
G04 #@! TD*
G04 #@! TO.C,C26*
X106215773Y98490776D03*
X106215773Y97850776D03*
G04 #@! TD*
D54*
G04 #@! TO.C,C26*
X30784231Y42509229D03*
X30784231Y43149229D03*
G04 #@! TD*
G04 #@! TO.C,C26*
X93784231Y42509229D03*
X93784231Y43149229D03*
G04 #@! TD*
D50*
G04 #@! TO.C,D23*
X8090773Y92785776D03*
D51*
X6990773Y92785776D03*
X6990773Y94615776D03*
X8090773Y94615776D03*
G04 #@! TD*
D50*
G04 #@! TO.C,D23*
X71090773Y92785776D03*
D51*
X69990773Y92785776D03*
X69990773Y94615776D03*
X71090773Y94615776D03*
G04 #@! TD*
D48*
G04 #@! TO.C,D23*
X65909231Y48214229D03*
D49*
X67009231Y48214229D03*
X67009231Y46384229D03*
X65909231Y46384229D03*
G04 #@! TD*
D48*
G04 #@! TO.C,D23*
X128909231Y48214229D03*
D49*
X130009231Y48214229D03*
X130009231Y46384229D03*
X128909231Y46384229D03*
G04 #@! TD*
D57*
G04 #@! TO.C,C10*
X47570773Y124060776D03*
X46610773Y124060776D03*
G04 #@! TD*
G04 #@! TO.C,C10*
X110570773Y124060776D03*
X109610773Y124060776D03*
G04 #@! TD*
D56*
G04 #@! TO.C,C10*
X26429231Y16939229D03*
X27389231Y16939229D03*
G04 #@! TD*
G04 #@! TO.C,C10*
X89429231Y16939229D03*
X90389231Y16939229D03*
G04 #@! TD*
D25*
G04 #@! TO.C,MX4*
X19976252Y104031255D03*
D26*
X17436252Y109111255D03*
D27*
X14896252Y104031255D03*
D26*
X11086252Y106571255D03*
D25*
X9816252Y104031255D03*
D28*
X7811252Y106571255D03*
X20738252Y109111255D03*
G04 #@! TD*
D25*
G04 #@! TO.C,MX4*
X82976252Y104031255D03*
D26*
X80436252Y109111255D03*
D27*
X77896252Y104031255D03*
D26*
X74086252Y106571255D03*
D25*
X72816252Y104031255D03*
D28*
X70811252Y106571255D03*
X83738252Y109111255D03*
G04 #@! TD*
D25*
G04 #@! TO.C,MX4*
X54023752Y36968750D03*
D26*
X56563752Y31888750D03*
D27*
X59103752Y36968750D03*
D26*
X62913752Y34428750D03*
D25*
X64183752Y36968750D03*
D29*
X66188752Y34428750D03*
X53261752Y31888750D03*
G04 #@! TD*
D25*
G04 #@! TO.C,MX4*
X117023752Y36968750D03*
D26*
X119563752Y31888750D03*
D27*
X122103752Y36968750D03*
D26*
X125913752Y34428750D03*
D25*
X127183752Y36968750D03*
D29*
X129188752Y34428750D03*
X116261752Y31888750D03*
G04 #@! TD*
D54*
G04 #@! TO.C,C23*
X45615773Y97850776D03*
X45615773Y98490776D03*
G04 #@! TD*
G04 #@! TO.C,C23*
X108615773Y97850776D03*
X108615773Y98490776D03*
G04 #@! TD*
D55*
G04 #@! TO.C,C23*
X28384231Y43149229D03*
X28384231Y42509229D03*
G04 #@! TD*
G04 #@! TO.C,C23*
X91384231Y43149229D03*
X91384231Y42509229D03*
G04 #@! TD*
G04 #@! TO.C,C45*
X64890773Y78020776D03*
X64890773Y77380776D03*
G04 #@! TD*
G04 #@! TO.C,C45*
X127890773Y78020776D03*
X127890773Y77380776D03*
G04 #@! TD*
D54*
G04 #@! TO.C,C45*
X9109231Y62979229D03*
X9109231Y63619229D03*
G04 #@! TD*
G04 #@! TO.C,C45*
X72109231Y62979229D03*
X72109231Y63619229D03*
G04 #@! TD*
D96*
G04 #@! TO.C,J3*
X47815773Y77992776D03*
X46799773Y83072776D03*
X48831773Y83072776D03*
D97*
X47180773Y79262776D03*
X48450773Y79262776D03*
X47180773Y80532776D03*
X48450773Y80532776D03*
X47180773Y81802776D03*
X48450773Y81802776D03*
G04 #@! TD*
D96*
G04 #@! TO.C,J3*
X110815773Y77992776D03*
X109799773Y83072776D03*
X111831773Y83072776D03*
D97*
X110180773Y79262776D03*
X111450773Y79262776D03*
X110180773Y80532776D03*
X111450773Y80532776D03*
X110180773Y81802776D03*
X111450773Y81802776D03*
G04 #@! TD*
D96*
G04 #@! TO.C,J3*
X26184231Y63007229D03*
X27200231Y57927229D03*
X25168231Y57927229D03*
D97*
X26819231Y61737229D03*
X25549231Y61737229D03*
X26819231Y60467229D03*
X25549231Y60467229D03*
X26819231Y59197229D03*
X25549231Y59197229D03*
G04 #@! TD*
D96*
G04 #@! TO.C,J3*
X89184231Y63007229D03*
X90200231Y57927229D03*
X88168231Y57927229D03*
D97*
X89819231Y61737229D03*
X88549231Y61737229D03*
X89819231Y60467229D03*
X88549231Y60467229D03*
X89819231Y59197229D03*
X88549231Y59197229D03*
G04 #@! TD*
D17*
G04 #@! TO.C,C51*
X11120773Y76230776D03*
X10480773Y76230776D03*
G04 #@! TD*
G04 #@! TO.C,C51*
X74120773Y76230776D03*
X73480773Y76230776D03*
G04 #@! TD*
D18*
G04 #@! TO.C,C51*
X62879231Y64769229D03*
X63519231Y64769229D03*
G04 #@! TD*
G04 #@! TO.C,C51*
X125879231Y64769229D03*
X126519231Y64769229D03*
G04 #@! TD*
D55*
G04 #@! TO.C,C9*
X64890773Y128040776D03*
X64890773Y127400776D03*
G04 #@! TD*
G04 #@! TO.C,C9*
X127890773Y128040776D03*
X127890773Y127400776D03*
G04 #@! TD*
D54*
G04 #@! TO.C,C9*
X9109231Y12959229D03*
X9109231Y13599229D03*
G04 #@! TD*
G04 #@! TO.C,C9*
X72109231Y12959229D03*
X72109231Y13599229D03*
G04 #@! TD*
D18*
G04 #@! TO.C,C33*
X50695773Y95745776D03*
X51335773Y95745776D03*
G04 #@! TD*
G04 #@! TO.C,C33*
X113695773Y95745776D03*
X114335773Y95745776D03*
G04 #@! TD*
D17*
G04 #@! TO.C,C33*
X23304231Y45254229D03*
X22664231Y45254229D03*
G04 #@! TD*
G04 #@! TO.C,C33*
X86304231Y45254229D03*
X85664231Y45254229D03*
G04 #@! TD*
D54*
G04 #@! TO.C,R1*
X53490773Y125105776D03*
X53490773Y125745776D03*
G04 #@! TD*
G04 #@! TO.C,R1*
X116490773Y125105776D03*
X116490773Y125745776D03*
G04 #@! TD*
D55*
G04 #@! TO.C,R1*
X20509231Y15894229D03*
X20509231Y15254229D03*
G04 #@! TD*
G04 #@! TO.C,R1*
X83509231Y15894229D03*
X83509231Y15254229D03*
G04 #@! TD*
D25*
G04 #@! TO.C,MX5*
X97969231Y36959229D03*
D26*
X100509231Y31879229D03*
D27*
X103049231Y36959229D03*
D26*
X106859231Y34419229D03*
D25*
X108129231Y36959229D03*
D29*
X110134231Y34419229D03*
X97207231Y31879229D03*
G04 #@! TD*
D25*
G04 #@! TO.C,MX5*
X39030773Y104040776D03*
D26*
X36490773Y109120776D03*
D27*
X33950773Y104040776D03*
D26*
X30140773Y106580776D03*
D25*
X28870773Y104040776D03*
D28*
X26865773Y106580776D03*
X39792773Y109120776D03*
G04 #@! TD*
D25*
G04 #@! TO.C,MX5*
X102030773Y104040776D03*
D26*
X99490773Y109120776D03*
D27*
X96950773Y104040776D03*
D26*
X93140773Y106580776D03*
D25*
X91870773Y104040776D03*
D28*
X89865773Y106580776D03*
X102792773Y109120776D03*
G04 #@! TD*
D25*
G04 #@! TO.C,MX5*
X34969231Y36959229D03*
D26*
X37509231Y31879229D03*
D27*
X40049231Y36959229D03*
D26*
X43859231Y34419229D03*
D25*
X45129231Y36959229D03*
D29*
X47134231Y34419229D03*
X34207231Y31879229D03*
G04 #@! TD*
D54*
G04 #@! TO.C,C25*
X46815773Y97850776D03*
X46815773Y98490776D03*
G04 #@! TD*
G04 #@! TO.C,C25*
X109815773Y97850776D03*
X109815773Y98490776D03*
G04 #@! TD*
D55*
G04 #@! TO.C,C25*
X27184231Y43149229D03*
X27184231Y42509229D03*
G04 #@! TD*
G04 #@! TO.C,C25*
X90184231Y43149229D03*
X90184231Y42509229D03*
G04 #@! TD*
D50*
G04 #@! TO.C,D21*
X8090773Y101870776D03*
D51*
X6990773Y101870776D03*
X6990773Y103700776D03*
X8090773Y103700776D03*
G04 #@! TD*
D50*
G04 #@! TO.C,D21*
X71090773Y101870776D03*
D51*
X69990773Y101870776D03*
X69990773Y103700776D03*
X71090773Y103700776D03*
G04 #@! TD*
D48*
G04 #@! TO.C,D21*
X65909231Y39129229D03*
D49*
X67009231Y39129229D03*
X67009231Y37299229D03*
X65909231Y37299229D03*
G04 #@! TD*
D48*
G04 #@! TO.C,D21*
X128909231Y39129229D03*
D49*
X130009231Y39129229D03*
X130009231Y37299229D03*
X128909231Y37299229D03*
G04 #@! TD*
D55*
G04 #@! TO.C,R5*
X44120773Y115935776D03*
X44120773Y115295776D03*
G04 #@! TD*
G04 #@! TO.C,R5*
X107120773Y115935776D03*
X107120773Y115295776D03*
G04 #@! TD*
D54*
G04 #@! TO.C,R5*
X29879231Y25064229D03*
X29879231Y25704229D03*
G04 #@! TD*
G04 #@! TO.C,R5*
X92879231Y25064229D03*
X92879231Y25704229D03*
G04 #@! TD*
D17*
G04 #@! TO.C,C41*
X56510773Y81520776D03*
X55870773Y81520776D03*
G04 #@! TD*
G04 #@! TO.C,C41*
X119510773Y81520776D03*
X118870773Y81520776D03*
G04 #@! TD*
D18*
G04 #@! TO.C,C41*
X17489231Y59479229D03*
X18129231Y59479229D03*
G04 #@! TD*
G04 #@! TO.C,C41*
X80489231Y59479229D03*
X81129231Y59479229D03*
G04 #@! TD*
M02*
