G04 #@! TF.GenerationSoftware,KiCad,Pcbnew,7.0.0-da2b9df05c~165~ubuntu22.04.1*
G04 #@! TF.CreationDate,2023-05-29T12:10:48+00:00*
G04 #@! TF.ProjectId,pcb-panel,7063622d-7061-46e6-956c-2e6b69636164,5.0*
G04 #@! TF.SameCoordinates,Original*
G04 #@! TF.FileFunction,Paste,Bot*
G04 #@! TF.FilePolarity,Positive*
%FSLAX46Y46*%
G04 Gerber Fmt 4.6, Leading zero omitted, Abs format (unit mm)*
G04 Created by KiCad (PCBNEW 7.0.0-da2b9df05c~165~ubuntu22.04.1) date 2023-05-29 12:10:48*
%MOMM*%
%LPD*%
G01*
G04 APERTURE LIST*
G04 Aperture macros list*
%AMRoundRect*
0 Rectangle with rounded corners*
0 $1 Rounding radius*
0 $2 $3 $4 $5 $6 $7 $8 $9 X,Y pos of 4 corners*
0 Add a 4 corners polygon primitive as box body*
4,1,4,$2,$3,$4,$5,$6,$7,$8,$9,$2,$3,0*
0 Add four circle primitives for the rounded corners*
1,1,$1+$1,$2,$3*
1,1,$1+$1,$4,$5*
1,1,$1+$1,$6,$7*
1,1,$1+$1,$8,$9*
0 Add four rect primitives between the rounded corners*
20,1,$1+$1,$2,$3,$4,$5,0*
20,1,$1+$1,$4,$5,$6,$7,0*
20,1,$1+$1,$6,$7,$8,$9,0*
20,1,$1+$1,$8,$9,$2,$3,0*%
%AMFreePoly0*
4,1,18,-0.400000,0.125000,-0.390485,0.172835,-0.363388,0.213388,-0.322835,0.240485,-0.275000,0.250000,0.275000,0.250000,0.322835,0.240485,0.363388,0.213388,0.390485,0.172835,0.400000,0.125000,0.400000,-0.125000,0.390485,-0.172835,0.363388,-0.213388,0.322835,-0.240485,0.275000,-0.250000,-0.150000,-0.250000,-0.400000,0.000000,-0.400000,0.125000,-0.400000,0.125000,$1*%
%AMFreePoly1*
4,1,18,-0.437500,0.050000,-0.433694,0.069134,-0.422855,0.085355,-0.406634,0.096194,-0.387500,0.100000,0.387500,0.100000,0.406634,0.096194,0.422855,0.085355,0.433694,0.069134,0.437500,0.050000,0.437500,-0.050000,0.433694,-0.069134,0.422855,-0.085355,0.406634,-0.096194,0.387500,-0.100000,-0.337500,-0.100000,-0.437500,0.000000,-0.437500,0.050000,-0.437500,0.050000,$1*%
%AMFreePoly2*
4,1,18,-0.350000,0.175000,-0.336679,0.241970,-0.298744,0.298744,-0.241970,0.336679,-0.175000,0.350000,0.175000,0.350000,0.241970,0.336679,0.298744,0.298744,0.336679,0.241970,0.350000,0.175000,0.350000,-0.175000,0.336679,-0.241970,0.298744,-0.298744,0.241970,-0.336679,0.175000,-0.350000,-0.070000,-0.350000,-0.350000,-0.070000,-0.350000,0.175000,-0.350000,0.175000,$1*%
%AMFreePoly3*
4,1,18,-0.605000,0.249400,-0.601910,0.264937,-0.593109,0.278109,-0.579937,0.286910,-0.564400,0.290000,0.564400,0.290000,0.579937,0.286910,0.593109,0.278109,0.601910,0.264937,0.605000,0.249400,0.605000,-0.249400,0.601910,-0.264937,0.593109,-0.278109,0.579937,-0.286910,0.564400,-0.290000,-0.315000,-0.290000,-0.605000,0.000000,-0.605000,0.249400,-0.605000,0.249400,$1*%
%AMFreePoly4*
4,1,18,-0.410000,0.718000,-0.403758,0.749380,-0.385983,0.775983,-0.359380,0.793758,-0.328000,0.800000,0.328000,0.800000,0.359380,0.793758,0.385983,0.775983,0.403758,0.749380,0.410000,0.718000,0.410000,-0.718000,0.403758,-0.749380,0.385983,-0.775983,0.359380,-0.793758,0.328000,-0.800000,0.000000,-0.800000,-0.410000,-0.390000,-0.410000,0.718000,-0.410000,0.718000,$1*%
%AMFreePoly5*
4,1,18,-0.350000,0.085000,-0.343530,0.117528,-0.325104,0.145104,-0.297528,0.163530,-0.265000,0.170000,0.265000,0.170000,0.297528,0.163530,0.325104,0.145104,0.343530,0.117528,0.350000,0.085000,0.350000,-0.085000,0.343530,-0.117528,0.325104,-0.145104,0.297528,-0.163530,0.265000,-0.170000,-0.180000,-0.170000,-0.350000,0.000000,-0.350000,0.085000,-0.350000,0.085000,$1*%
%AMFreePoly6*
4,1,18,-0.250000,0.093750,-0.242864,0.129627,-0.222541,0.160041,-0.192127,0.180364,-0.156250,0.187500,0.156250,0.187500,0.192127,0.180364,0.222541,0.160041,0.242864,0.129627,0.250000,0.093750,0.250000,-0.093750,0.242864,-0.129627,0.222541,-0.160041,0.192127,-0.180364,0.156250,-0.187500,-0.062500,-0.187500,-0.250000,0.000000,-0.250000,0.093750,-0.250000,0.093750,$1*%
%AMFreePoly7*
4,1,18,-0.662500,0.150000,-0.651082,0.207403,-0.618566,0.256066,-0.569903,0.288582,-0.512500,0.300000,0.512500,0.300000,0.569903,0.288582,0.618566,0.256066,0.651082,0.207403,0.662500,0.150000,0.662500,-0.150000,0.651082,-0.207403,0.618566,-0.256066,0.569903,-0.288582,0.512500,-0.300000,-0.362500,-0.300000,-0.662500,0.000000,-0.662500,0.150000,-0.662500,0.150000,$1*%
%AMFreePoly8*
4,1,18,-0.575000,0.200000,-0.275000,0.500000,0.325000,0.500000,0.420671,0.480970,0.501777,0.426777,0.555970,0.345671,0.575000,0.250000,0.575000,-0.250000,0.555970,-0.345671,0.501777,-0.426777,0.420671,-0.480970,0.325000,-0.500000,-0.325000,-0.500000,-0.420671,-0.480970,-0.501777,-0.426777,-0.555970,-0.345671,-0.575000,-0.250000,-0.575000,0.200000,-0.575000,0.200000,$1*%
G04 Aperture macros list end*
%ADD10C,2.000000*%
%ADD11RoundRect,0.079500X0.079500X0.100500X-0.079500X0.100500X-0.079500X-0.100500X0.079500X-0.100500X0*%
%ADD12RoundRect,0.079500X-0.079500X-0.100500X0.079500X-0.100500X0.079500X0.100500X-0.079500X0.100500X0*%
%ADD13FreePoly0,180.000000*%
%ADD14RoundRect,0.100000X0.300000X0.100000X-0.300000X0.100000X-0.300000X-0.100000X0.300000X-0.100000X0*%
%ADD15RoundRect,0.125000X0.275000X0.125000X-0.275000X0.125000X-0.275000X-0.125000X0.275000X-0.125000X0*%
%ADD16FreePoly0,0.000000*%
%ADD17RoundRect,0.100000X-0.300000X-0.100000X0.300000X-0.100000X0.300000X0.100000X-0.300000X0.100000X0*%
%ADD18RoundRect,0.125000X-0.275000X-0.125000X0.275000X-0.125000X0.275000X0.125000X-0.275000X0.125000X0*%
%ADD19RoundRect,0.625000X-0.650000X-0.625000X0.650000X-0.625000X0.650000X0.625000X-0.650000X0.625000X0*%
%ADD20RoundRect,0.625000X0.650000X0.625000X-0.650000X0.625000X-0.650000X-0.625000X0.650000X-0.625000X0*%
%ADD21RoundRect,0.250000X-0.292217X-0.292217X0.292217X-0.292217X0.292217X0.292217X-0.292217X0.292217X0*%
%ADD22FreePoly1,0.000000*%
%ADD23RoundRect,0.050000X-0.387500X-0.050000X0.387500X-0.050000X0.387500X0.050000X-0.387500X0.050000X0*%
%ADD24RoundRect,0.050000X-0.050000X-0.387500X0.050000X-0.387500X0.050000X0.387500X-0.050000X0.387500X0*%
%ADD25RoundRect,0.250000X0.292217X0.292217X-0.292217X0.292217X-0.292217X-0.292217X0.292217X-0.292217X0*%
%ADD26FreePoly1,180.000000*%
%ADD27RoundRect,0.050000X0.387500X0.050000X-0.387500X0.050000X-0.387500X-0.050000X0.387500X-0.050000X0*%
%ADD28RoundRect,0.050000X0.050000X0.387500X-0.050000X0.387500X-0.050000X-0.387500X0.050000X-0.387500X0*%
%ADD29FreePoly2,0.000000*%
%ADD30RoundRect,0.175000X-0.175000X-0.175000X0.175000X-0.175000X0.175000X0.175000X-0.175000X0.175000X0*%
%ADD31FreePoly2,180.000000*%
%ADD32RoundRect,0.175000X0.175000X0.175000X-0.175000X0.175000X-0.175000X-0.175000X0.175000X-0.175000X0*%
%ADD33RoundRect,0.135000X0.185000X-0.135000X0.185000X0.135000X-0.185000X0.135000X-0.185000X-0.135000X0*%
%ADD34RoundRect,0.135000X-0.185000X0.135000X-0.185000X-0.135000X0.185000X-0.135000X0.185000X0.135000X0*%
%ADD35FreePoly3,270.000000*%
%ADD36RoundRect,0.040600X-0.249400X0.564400X-0.249400X-0.564400X0.249400X-0.564400X0.249400X0.564400X0*%
%ADD37FreePoly3,90.000000*%
%ADD38RoundRect,0.040600X0.249400X-0.564400X0.249400X0.564400X-0.249400X0.564400X-0.249400X-0.564400X0*%
%ADD39FreePoly2,90.000000*%
%ADD40RoundRect,0.175000X0.175000X-0.175000X0.175000X0.175000X-0.175000X0.175000X-0.175000X-0.175000X0*%
%ADD41FreePoly2,270.000000*%
%ADD42RoundRect,0.175000X-0.175000X0.175000X-0.175000X-0.175000X0.175000X-0.175000X0.175000X0.175000X0*%
%ADD43RoundRect,0.218750X0.218750X0.256250X-0.218750X0.256250X-0.218750X-0.256250X0.218750X-0.256250X0*%
%ADD44RoundRect,0.218750X-0.218750X-0.256250X0.218750X-0.256250X0.218750X0.256250X-0.218750X0.256250X0*%
%ADD45RoundRect,0.079500X-0.100500X0.079500X-0.100500X-0.079500X0.100500X-0.079500X0.100500X0.079500X0*%
%ADD46RoundRect,0.079500X0.100500X-0.079500X0.100500X0.079500X-0.100500X0.079500X-0.100500X-0.079500X0*%
%ADD47RoundRect,0.140000X0.140000X0.170000X-0.140000X0.170000X-0.140000X-0.170000X0.140000X-0.170000X0*%
%ADD48RoundRect,0.140000X-0.140000X-0.170000X0.140000X-0.170000X0.140000X0.170000X-0.140000X0.170000X0*%
%ADD49R,0.800000X0.400000*%
%ADD50R,0.350000X0.800000*%
%ADD51RoundRect,0.082000X0.718000X-0.328000X0.718000X0.328000X-0.718000X0.328000X-0.718000X-0.328000X0*%
%ADD52FreePoly4,90.000000*%
%ADD53RoundRect,0.082000X-0.718000X0.328000X-0.718000X-0.328000X0.718000X-0.328000X0.718000X0.328000X0*%
%ADD54FreePoly4,270.000000*%
%ADD55FreePoly5,90.000000*%
%ADD56RoundRect,0.085000X0.085000X-0.265000X0.085000X0.265000X-0.085000X0.265000X-0.085000X-0.265000X0*%
%ADD57FreePoly5,270.000000*%
%ADD58RoundRect,0.085000X-0.085000X0.265000X-0.085000X-0.265000X0.085000X-0.265000X0.085000X0.265000X0*%
%ADD59FreePoly6,270.000000*%
%ADD60RoundRect,0.075000X-0.075000X0.250000X-0.075000X-0.250000X0.075000X-0.250000X0.075000X0.250000X0*%
%ADD61RoundRect,0.093750X-0.093750X0.156250X-0.093750X-0.156250X0.093750X-0.156250X0.093750X0.156250X0*%
%ADD62FreePoly6,90.000000*%
%ADD63RoundRect,0.075000X0.075000X-0.250000X0.075000X0.250000X-0.075000X0.250000X-0.075000X-0.250000X0*%
%ADD64RoundRect,0.093750X0.093750X-0.156250X0.093750X0.156250X-0.093750X0.156250X-0.093750X-0.156250X0*%
%ADD65R,0.600000X1.150000*%
%ADD66R,0.300000X1.150000*%
%ADD67FreePoly7,90.000000*%
%ADD68RoundRect,0.150000X0.150000X-0.512500X0.150000X0.512500X-0.150000X0.512500X-0.150000X-0.512500X0*%
%ADD69FreePoly7,270.000000*%
%ADD70RoundRect,0.150000X-0.150000X0.512500X-0.150000X-0.512500X0.150000X-0.512500X0.150000X0.512500X0*%
%ADD71FreePoly8,0.000000*%
%ADD72RoundRect,0.250000X-0.325000X-0.250000X0.325000X-0.250000X0.325000X0.250000X-0.325000X0.250000X0*%
%ADD73FreePoly8,180.000000*%
%ADD74RoundRect,0.250000X0.325000X0.250000X-0.325000X0.250000X-0.325000X-0.250000X0.325000X-0.250000X0*%
%ADD75RoundRect,0.075000X-0.075000X-0.575000X0.075000X-0.575000X0.075000X0.575000X-0.075000X0.575000X0*%
%ADD76RoundRect,0.575000X-0.575000X-1.075000X0.575000X-1.075000X0.575000X1.075000X-0.575000X1.075000X0*%
%ADD77RoundRect,0.075000X0.075000X0.575000X-0.075000X0.575000X-0.075000X-0.575000X0.075000X-0.575000X0*%
%ADD78RoundRect,0.575000X0.575000X1.075000X-0.575000X1.075000X-0.575000X-1.075000X0.575000X-1.075000X0*%
G04 APERTURE END LIST*
D10*
G04 #@! TO.C,REF\u002A\u002A*
X134500004Y138500005D03*
G04 #@! TD*
G04 #@! TO.C,REF\u002A\u002A*
X2500000Y2500000D03*
G04 #@! TD*
G04 #@! TO.C,REF\u002A\u002A*
X2500000Y138500005D03*
G04 #@! TD*
D11*
G04 #@! TO.C,C13*
X12315773Y119610776D03*
X11625773Y119610776D03*
G04 #@! TD*
D12*
G04 #@! TO.C,C13*
X124684231Y21389229D03*
X125374231Y21389229D03*
G04 #@! TD*
D11*
G04 #@! TO.C,C13*
X75315773Y119610776D03*
X74625773Y119610776D03*
G04 #@! TD*
D12*
G04 #@! TO.C,C13*
X61684231Y21389229D03*
X62374231Y21389229D03*
G04 #@! TD*
D13*
G04 #@! TO.C,RN1*
X125690772Y124270775D03*
D14*
X125690773Y123470776D03*
X125690773Y122670776D03*
D15*
X125690773Y121870776D03*
X123890773Y121870776D03*
D14*
X123890773Y122670776D03*
X123890773Y123470776D03*
D15*
X123890773Y124270776D03*
G04 #@! TD*
D16*
G04 #@! TO.C,RN1*
X74309230Y16729228D03*
D17*
X74309231Y17529229D03*
X74309231Y18329229D03*
D18*
X74309231Y19129229D03*
X76109231Y19129229D03*
D17*
X76109231Y18329229D03*
X76109231Y17529229D03*
D18*
X76109231Y16729229D03*
G04 #@! TD*
D16*
G04 #@! TO.C,RN1*
X11309230Y16729228D03*
D17*
X11309231Y17529229D03*
X11309231Y18329229D03*
D18*
X11309231Y19129229D03*
X13109231Y19129229D03*
D17*
X13109231Y18329229D03*
X13109231Y17529229D03*
D18*
X13109231Y16729229D03*
G04 #@! TD*
D13*
G04 #@! TO.C,RN1*
X62690772Y124270775D03*
D14*
X62690773Y123470776D03*
X62690773Y122670776D03*
D15*
X62690773Y121870776D03*
X60890773Y121870776D03*
D14*
X60890773Y122670776D03*
X60890773Y123470776D03*
D15*
X60890773Y124270776D03*
G04 #@! TD*
D19*
G04 #@! TO.C,MX8*
X110138752Y53478750D03*
X97211752Y50938750D03*
G04 #@! TD*
D20*
G04 #@! TO.C,MX8*
X89861252Y87521255D03*
X102788252Y90061255D03*
G04 #@! TD*
G04 #@! TO.C,MX8*
X26861252Y87521255D03*
X39788252Y90061255D03*
G04 #@! TD*
D19*
G04 #@! TO.C,MX8*
X47138752Y53478750D03*
X34211752Y50938750D03*
G04 #@! TD*
D21*
G04 #@! TO.C,U6*
X90441731Y48496729D03*
X90441731Y47221729D03*
X91716731Y48496729D03*
X91716731Y47221729D03*
D22*
X87641730Y45259228D03*
D23*
X87641731Y45659229D03*
X87641731Y46059229D03*
X87641731Y46459229D03*
X87641731Y46859229D03*
X87641731Y47259229D03*
X87641731Y47659229D03*
X87641731Y48059229D03*
X87641731Y48459229D03*
X87641731Y48859229D03*
X87641731Y49259229D03*
X87641731Y49659229D03*
X87641731Y50059229D03*
X87641731Y50459229D03*
D24*
X88479231Y51296729D03*
X88879231Y51296729D03*
X89279231Y51296729D03*
X89679231Y51296729D03*
X90079231Y51296729D03*
X90479231Y51296729D03*
X90879231Y51296729D03*
X91279231Y51296729D03*
X91679231Y51296729D03*
X92079231Y51296729D03*
X92479231Y51296729D03*
X92879231Y51296729D03*
X93279231Y51296729D03*
X93679231Y51296729D03*
D23*
X94516731Y50459229D03*
X94516731Y50059229D03*
X94516731Y49659229D03*
X94516731Y49259229D03*
X94516731Y48859229D03*
X94516731Y48459229D03*
X94516731Y48059229D03*
X94516731Y47659229D03*
X94516731Y47259229D03*
X94516731Y46859229D03*
X94516731Y46459229D03*
X94516731Y46059229D03*
X94516731Y45659229D03*
X94516731Y45259229D03*
D24*
X93679231Y44421729D03*
X93279231Y44421729D03*
X92879231Y44421729D03*
X92479231Y44421729D03*
X92079231Y44421729D03*
X91679231Y44421729D03*
X91279231Y44421729D03*
X90879231Y44421729D03*
X90479231Y44421729D03*
X90079231Y44421729D03*
X89679231Y44421729D03*
X89279231Y44421729D03*
X88879231Y44421729D03*
X88479231Y44421729D03*
G04 #@! TD*
D25*
G04 #@! TO.C,U6*
X109558273Y92503276D03*
X109558273Y93778276D03*
X108283273Y92503276D03*
X108283273Y93778276D03*
D26*
X112358272Y95740775D03*
D27*
X112358273Y95340776D03*
X112358273Y94940776D03*
X112358273Y94540776D03*
X112358273Y94140776D03*
X112358273Y93740776D03*
X112358273Y93340776D03*
X112358273Y92940776D03*
X112358273Y92540776D03*
X112358273Y92140776D03*
X112358273Y91740776D03*
X112358273Y91340776D03*
X112358273Y90940776D03*
X112358273Y90540776D03*
D28*
X111520773Y89703276D03*
X111120773Y89703276D03*
X110720773Y89703276D03*
X110320773Y89703276D03*
X109920773Y89703276D03*
X109520773Y89703276D03*
X109120773Y89703276D03*
X108720773Y89703276D03*
X108320773Y89703276D03*
X107920773Y89703276D03*
X107520773Y89703276D03*
X107120773Y89703276D03*
X106720773Y89703276D03*
X106320773Y89703276D03*
D27*
X105483273Y90540776D03*
X105483273Y90940776D03*
X105483273Y91340776D03*
X105483273Y91740776D03*
X105483273Y92140776D03*
X105483273Y92540776D03*
X105483273Y92940776D03*
X105483273Y93340776D03*
X105483273Y93740776D03*
X105483273Y94140776D03*
X105483273Y94540776D03*
X105483273Y94940776D03*
X105483273Y95340776D03*
X105483273Y95740776D03*
D28*
X106320773Y96578276D03*
X106720773Y96578276D03*
X107120773Y96578276D03*
X107520773Y96578276D03*
X107920773Y96578276D03*
X108320773Y96578276D03*
X108720773Y96578276D03*
X109120773Y96578276D03*
X109520773Y96578276D03*
X109920773Y96578276D03*
X110320773Y96578276D03*
X110720773Y96578276D03*
X111120773Y96578276D03*
X111520773Y96578276D03*
G04 #@! TD*
D25*
G04 #@! TO.C,U6*
X46558273Y92503276D03*
X46558273Y93778276D03*
X45283273Y92503276D03*
X45283273Y93778276D03*
D26*
X49358272Y95740775D03*
D27*
X49358273Y95340776D03*
X49358273Y94940776D03*
X49358273Y94540776D03*
X49358273Y94140776D03*
X49358273Y93740776D03*
X49358273Y93340776D03*
X49358273Y92940776D03*
X49358273Y92540776D03*
X49358273Y92140776D03*
X49358273Y91740776D03*
X49358273Y91340776D03*
X49358273Y90940776D03*
X49358273Y90540776D03*
D28*
X48520773Y89703276D03*
X48120773Y89703276D03*
X47720773Y89703276D03*
X47320773Y89703276D03*
X46920773Y89703276D03*
X46520773Y89703276D03*
X46120773Y89703276D03*
X45720773Y89703276D03*
X45320773Y89703276D03*
X44920773Y89703276D03*
X44520773Y89703276D03*
X44120773Y89703276D03*
X43720773Y89703276D03*
X43320773Y89703276D03*
D27*
X42483273Y90540776D03*
X42483273Y90940776D03*
X42483273Y91340776D03*
X42483273Y91740776D03*
X42483273Y92140776D03*
X42483273Y92540776D03*
X42483273Y92940776D03*
X42483273Y93340776D03*
X42483273Y93740776D03*
X42483273Y94140776D03*
X42483273Y94540776D03*
X42483273Y94940776D03*
X42483273Y95340776D03*
X42483273Y95740776D03*
D28*
X43320773Y96578276D03*
X43720773Y96578276D03*
X44120773Y96578276D03*
X44520773Y96578276D03*
X44920773Y96578276D03*
X45320773Y96578276D03*
X45720773Y96578276D03*
X46120773Y96578276D03*
X46520773Y96578276D03*
X46920773Y96578276D03*
X47320773Y96578276D03*
X47720773Y96578276D03*
X48120773Y96578276D03*
X48520773Y96578276D03*
G04 #@! TD*
D21*
G04 #@! TO.C,U6*
X27441731Y48496729D03*
X27441731Y47221729D03*
X28716731Y48496729D03*
X28716731Y47221729D03*
D22*
X24641730Y45259228D03*
D23*
X24641731Y45659229D03*
X24641731Y46059229D03*
X24641731Y46459229D03*
X24641731Y46859229D03*
X24641731Y47259229D03*
X24641731Y47659229D03*
X24641731Y48059229D03*
X24641731Y48459229D03*
X24641731Y48859229D03*
X24641731Y49259229D03*
X24641731Y49659229D03*
X24641731Y50059229D03*
X24641731Y50459229D03*
D24*
X25479231Y51296729D03*
X25879231Y51296729D03*
X26279231Y51296729D03*
X26679231Y51296729D03*
X27079231Y51296729D03*
X27479231Y51296729D03*
X27879231Y51296729D03*
X28279231Y51296729D03*
X28679231Y51296729D03*
X29079231Y51296729D03*
X29479231Y51296729D03*
X29879231Y51296729D03*
X30279231Y51296729D03*
X30679231Y51296729D03*
D23*
X31516731Y50459229D03*
X31516731Y50059229D03*
X31516731Y49659229D03*
X31516731Y49259229D03*
X31516731Y48859229D03*
X31516731Y48459229D03*
X31516731Y48059229D03*
X31516731Y47659229D03*
X31516731Y47259229D03*
X31516731Y46859229D03*
X31516731Y46459229D03*
X31516731Y46059229D03*
X31516731Y45659229D03*
X31516731Y45259229D03*
D24*
X30679231Y44421729D03*
X30279231Y44421729D03*
X29879231Y44421729D03*
X29479231Y44421729D03*
X29079231Y44421729D03*
X28679231Y44421729D03*
X28279231Y44421729D03*
X27879231Y44421729D03*
X27479231Y44421729D03*
X27079231Y44421729D03*
X26679231Y44421729D03*
X26279231Y44421729D03*
X25879231Y44421729D03*
X25479231Y44421729D03*
G04 #@! TD*
D11*
G04 #@! TO.C,C3*
X95985773Y131770776D03*
X95295773Y131770776D03*
G04 #@! TD*
D12*
G04 #@! TO.C,C3*
X104014231Y9229229D03*
X104704231Y9229229D03*
G04 #@! TD*
G04 #@! TO.C,C3*
X41014231Y9229229D03*
X41704231Y9229229D03*
G04 #@! TD*
D11*
G04 #@! TO.C,C3*
X32985773Y131770776D03*
X32295773Y131770776D03*
G04 #@! TD*
D29*
G04 #@! TO.C,D9*
X124125772Y132820775D03*
D30*
X124125773Y133920776D03*
X125955773Y133920776D03*
X125955773Y132820776D03*
G04 #@! TD*
D29*
G04 #@! TO.C,D9*
X61125772Y132820775D03*
D30*
X61125773Y133920776D03*
X62955773Y133920776D03*
X62955773Y132820776D03*
G04 #@! TD*
D31*
G04 #@! TO.C,D9*
X12874230Y8179228D03*
D32*
X12874231Y7079229D03*
X11044231Y7079229D03*
X11044231Y8179229D03*
G04 #@! TD*
D31*
G04 #@! TO.C,D9*
X75874230Y8179228D03*
D32*
X75874231Y7079229D03*
X74044231Y7079229D03*
X74044231Y8179229D03*
G04 #@! TD*
D29*
G04 #@! TO.C,D13*
X74125772Y132820775D03*
D30*
X74125773Y133920776D03*
X75955773Y133920776D03*
X75955773Y132820776D03*
G04 #@! TD*
D31*
G04 #@! TO.C,D13*
X62874230Y8179228D03*
D32*
X62874231Y7079229D03*
X61044231Y7079229D03*
X61044231Y8179229D03*
G04 #@! TD*
D29*
G04 #@! TO.C,D13*
X11125772Y132820775D03*
D30*
X11125773Y133920776D03*
X12955773Y133920776D03*
X12955773Y132820776D03*
G04 #@! TD*
D31*
G04 #@! TO.C,D13*
X125874230Y8179228D03*
D32*
X125874231Y7079229D03*
X124044231Y7079229D03*
X124044231Y8179229D03*
G04 #@! TD*
D20*
G04 #@! TO.C,MX6*
X115011252Y106571255D03*
X127938252Y109111255D03*
G04 #@! TD*
G04 #@! TO.C,MX6*
X52011252Y106571255D03*
X64938252Y109111255D03*
G04 #@! TD*
D19*
G04 #@! TO.C,MX6*
X21988752Y34428750D03*
X9061752Y31888750D03*
G04 #@! TD*
G04 #@! TO.C,MX6*
X84988752Y34428750D03*
X72061752Y31888750D03*
G04 #@! TD*
D31*
G04 #@! TO.C,D30*
X22945772Y75180775D03*
D32*
X22945773Y74080776D03*
X21115773Y74080776D03*
X21115773Y75180776D03*
G04 #@! TD*
D29*
G04 #@! TO.C,D30*
X51054230Y65819228D03*
D30*
X51054231Y66919229D03*
X52884231Y66919229D03*
X52884231Y65819229D03*
G04 #@! TD*
D31*
G04 #@! TO.C,D30*
X85945772Y75180775D03*
D32*
X85945773Y74080776D03*
X84115773Y74080776D03*
X84115773Y75180776D03*
G04 #@! TD*
D29*
G04 #@! TO.C,D30*
X114054230Y65819228D03*
D30*
X114054231Y66919229D03*
X115884231Y66919229D03*
X115884231Y65819229D03*
G04 #@! TD*
D33*
G04 #@! TO.C,FB1*
X45030773Y130280776D03*
X45030773Y131300776D03*
G04 #@! TD*
G04 #@! TO.C,FB1*
X108030773Y130280776D03*
X108030773Y131300776D03*
G04 #@! TD*
D34*
G04 #@! TO.C,FB1*
X91969231Y10719229D03*
X91969231Y9699229D03*
G04 #@! TD*
G04 #@! TO.C,FB1*
X28969231Y10719229D03*
X28969231Y9699229D03*
G04 #@! TD*
D35*
G04 #@! TO.C,U3*
X106190772Y119725775D03*
D36*
X107140773Y119725776D03*
X108090773Y119725776D03*
X108090773Y117215776D03*
X107140773Y117215776D03*
X106190773Y117215776D03*
G04 #@! TD*
D37*
G04 #@! TO.C,U3*
X93809230Y21274228D03*
D38*
X92859231Y21274229D03*
X91909231Y21274229D03*
X91909231Y23784229D03*
X92859231Y23784229D03*
X93809231Y23784229D03*
G04 #@! TD*
D37*
G04 #@! TO.C,U3*
X30809230Y21274228D03*
D38*
X29859231Y21274229D03*
X28909231Y21274229D03*
X28909231Y23784229D03*
X29859231Y23784229D03*
X30809231Y23784229D03*
G04 #@! TD*
D35*
G04 #@! TO.C,U3*
X43190772Y119725775D03*
D36*
X44140773Y119725776D03*
X45090773Y119725776D03*
X45090773Y117215776D03*
X44140773Y117215776D03*
X43190773Y117215776D03*
G04 #@! TD*
D12*
G04 #@! TO.C,C5*
X61004231Y9229229D03*
X61694231Y9229229D03*
G04 #@! TD*
D11*
G04 #@! TO.C,C5*
X75995773Y131770776D03*
X75305773Y131770776D03*
G04 #@! TD*
D12*
G04 #@! TO.C,C5*
X124004231Y9229229D03*
X124694231Y9229229D03*
G04 #@! TD*
D11*
G04 #@! TO.C,C5*
X12995773Y131770776D03*
X12305773Y131770776D03*
G04 #@! TD*
D39*
G04 #@! TO.C,D20*
X8059230Y37214228D03*
D40*
X6959231Y37214229D03*
X6959231Y39044229D03*
X8059231Y39044229D03*
G04 #@! TD*
D41*
G04 #@! TO.C,D20*
X65940772Y103785775D03*
D42*
X67040773Y103785776D03*
X67040773Y101955776D03*
X65940773Y101955776D03*
G04 #@! TD*
D41*
G04 #@! TO.C,D20*
X128940772Y103785775D03*
D42*
X130040773Y103785776D03*
X130040773Y101955776D03*
X128940773Y101955776D03*
G04 #@! TD*
D39*
G04 #@! TO.C,D20*
X71059230Y37214228D03*
D40*
X69959231Y37214229D03*
X69959231Y39044229D03*
X71059231Y39044229D03*
G04 #@! TD*
D12*
G04 #@! TO.C,C4*
X119014231Y9229229D03*
X119704231Y9229229D03*
G04 #@! TD*
D11*
G04 #@! TO.C,C4*
X17985773Y131770776D03*
X17295773Y131770776D03*
G04 #@! TD*
G04 #@! TO.C,C4*
X80985773Y131770776D03*
X80295773Y131770776D03*
G04 #@! TD*
D12*
G04 #@! TO.C,C4*
X56014231Y9229229D03*
X56704231Y9229229D03*
G04 #@! TD*
D29*
G04 #@! TO.C,D26*
X11054230Y65819228D03*
D30*
X11054231Y66919229D03*
X12884231Y66919229D03*
X12884231Y65819229D03*
G04 #@! TD*
D29*
G04 #@! TO.C,D26*
X74054230Y65819228D03*
D30*
X74054231Y66919229D03*
X75884231Y66919229D03*
X75884231Y65819229D03*
G04 #@! TD*
D31*
G04 #@! TO.C,D26*
X62945772Y75180775D03*
D32*
X62945773Y74080776D03*
X61115773Y74080776D03*
X61115773Y75180776D03*
G04 #@! TD*
D31*
G04 #@! TO.C,D26*
X125945772Y75180775D03*
D32*
X125945773Y74080776D03*
X124115773Y74080776D03*
X124115773Y75180776D03*
G04 #@! TD*
D43*
G04 #@! TO.C,F1*
X29006731Y15599229D03*
X27431731Y15599229D03*
G04 #@! TD*
D44*
G04 #@! TO.C,F1*
X44993273Y125400776D03*
X46568273Y125400776D03*
G04 #@! TD*
D43*
G04 #@! TO.C,F1*
X92006731Y15599229D03*
X90431731Y15599229D03*
G04 #@! TD*
D44*
G04 #@! TO.C,F1*
X107993273Y125400776D03*
X109568273Y125400776D03*
G04 #@! TD*
D45*
G04 #@! TO.C,C14*
X72140773Y121555776D03*
X72140773Y120865776D03*
G04 #@! TD*
D46*
G04 #@! TO.C,C14*
X127859231Y19444229D03*
X127859231Y20134229D03*
G04 #@! TD*
G04 #@! TO.C,C14*
X64859231Y19444229D03*
X64859231Y20134229D03*
G04 #@! TD*
D45*
G04 #@! TO.C,C14*
X9140773Y121555776D03*
X9140773Y120865776D03*
G04 #@! TD*
D46*
G04 #@! TO.C,C27*
X42615773Y97820776D03*
X42615773Y98510776D03*
G04 #@! TD*
D45*
G04 #@! TO.C,C27*
X31384231Y43179229D03*
X31384231Y42489229D03*
G04 #@! TD*
G04 #@! TO.C,C27*
X94384231Y43179229D03*
X94384231Y42489229D03*
G04 #@! TD*
D46*
G04 #@! TO.C,C27*
X105615773Y97820776D03*
X105615773Y98510776D03*
G04 #@! TD*
D41*
G04 #@! TO.C,D19*
X65909230Y29214228D03*
D42*
X67009231Y29214229D03*
X67009231Y27384229D03*
X65909231Y27384229D03*
G04 #@! TD*
D39*
G04 #@! TO.C,D19*
X8090772Y111785775D03*
D40*
X6990773Y111785776D03*
X6990773Y113615776D03*
X8090773Y113615776D03*
G04 #@! TD*
D41*
G04 #@! TO.C,D19*
X128909230Y29214228D03*
D42*
X130009231Y29214229D03*
X130009231Y27384229D03*
X128909231Y27384229D03*
G04 #@! TD*
D39*
G04 #@! TO.C,D19*
X71090772Y111785775D03*
D40*
X69990773Y111785776D03*
X69990773Y113615776D03*
X71090773Y113615776D03*
G04 #@! TD*
D45*
G04 #@! TO.C,C19*
X127890773Y101985776D03*
X127890773Y101295776D03*
G04 #@! TD*
D46*
G04 #@! TO.C,C19*
X72109231Y39014229D03*
X72109231Y39704229D03*
G04 #@! TD*
G04 #@! TO.C,C19*
X9109231Y39014229D03*
X9109231Y39704229D03*
G04 #@! TD*
D45*
G04 #@! TO.C,C19*
X64890773Y101985776D03*
X64890773Y101295776D03*
G04 #@! TD*
G04 #@! TO.C,R7*
X20199231Y41524229D03*
X20199231Y40834229D03*
G04 #@! TD*
D46*
G04 #@! TO.C,R7*
X116800773Y99475776D03*
X116800773Y100165776D03*
G04 #@! TD*
D45*
G04 #@! TO.C,R7*
X83199231Y41524229D03*
X83199231Y40834229D03*
G04 #@! TD*
D46*
G04 #@! TO.C,R7*
X53800773Y99475776D03*
X53800773Y100165776D03*
G04 #@! TD*
D47*
G04 #@! TO.C,C11*
X26439231Y19954229D03*
X25479231Y19954229D03*
G04 #@! TD*
G04 #@! TO.C,C11*
X89439231Y19954229D03*
X88479231Y19954229D03*
G04 #@! TD*
D48*
G04 #@! TO.C,C11*
X110560773Y121045776D03*
X111520773Y121045776D03*
G04 #@! TD*
G04 #@! TO.C,C11*
X47560773Y121045776D03*
X48520773Y121045776D03*
G04 #@! TD*
D49*
G04 #@! TO.C,U5*
X84042730Y40861228D03*
X84042730Y41661228D03*
X84042730Y42461228D03*
X84042730Y43261228D03*
X86642730Y43261228D03*
X86642730Y42461228D03*
X86642730Y41661228D03*
X86642730Y40861228D03*
D50*
X85342730Y41259228D03*
X85342730Y42859228D03*
G04 #@! TD*
D49*
G04 #@! TO.C,U5*
X52957272Y100138775D03*
X52957272Y99338775D03*
X52957272Y98538775D03*
X52957272Y97738775D03*
X50357272Y97738775D03*
X50357272Y98538775D03*
X50357272Y99338775D03*
X50357272Y100138775D03*
D50*
X51657272Y99740775D03*
X51657272Y98140775D03*
G04 #@! TD*
D49*
G04 #@! TO.C,U5*
X115957272Y100138775D03*
X115957272Y99338775D03*
X115957272Y98538775D03*
X115957272Y97738775D03*
X113357272Y97738775D03*
X113357272Y98538775D03*
X113357272Y99338775D03*
X113357272Y100138775D03*
D50*
X114657272Y99740775D03*
X114657272Y98140775D03*
G04 #@! TD*
D49*
G04 #@! TO.C,U5*
X21042730Y40861228D03*
X21042730Y41661228D03*
X21042730Y42461228D03*
X21042730Y43261228D03*
X23642730Y43261228D03*
X23642730Y42461228D03*
X23642730Y41661228D03*
X23642730Y40861228D03*
D50*
X22342730Y41259228D03*
X22342730Y42859228D03*
G04 #@! TD*
D41*
G04 #@! TO.C,D24*
X65940772Y79870775D03*
D42*
X67040773Y79870776D03*
X67040773Y78040776D03*
X65940773Y78040776D03*
G04 #@! TD*
D41*
G04 #@! TO.C,D24*
X128940772Y79870775D03*
D42*
X130040773Y79870776D03*
X130040773Y78040776D03*
X128940773Y78040776D03*
G04 #@! TD*
D39*
G04 #@! TO.C,D24*
X8059230Y61129228D03*
D40*
X6959231Y61129229D03*
X6959231Y62959229D03*
X8059231Y62959229D03*
G04 #@! TD*
D39*
G04 #@! TO.C,D24*
X71059230Y61129228D03*
D40*
X69959231Y61129229D03*
X69959231Y62959229D03*
X71059231Y62959229D03*
G04 #@! TD*
D45*
G04 #@! TO.C,C18*
X9140773Y113635776D03*
X9140773Y112945776D03*
G04 #@! TD*
G04 #@! TO.C,C18*
X72140773Y113635776D03*
X72140773Y112945776D03*
G04 #@! TD*
D46*
G04 #@! TO.C,C18*
X64859231Y27364229D03*
X64859231Y28054229D03*
G04 #@! TD*
G04 #@! TO.C,C18*
X127859231Y27364229D03*
X127859231Y28054229D03*
G04 #@! TD*
D51*
G04 #@! TO.C,D4*
X31350773Y99710777D03*
X31350773Y98210777D03*
D52*
X36550772Y98210776D03*
D51*
X36550773Y99710777D03*
G04 #@! TD*
G04 #@! TO.C,D4*
X94350773Y99710777D03*
X94350773Y98210777D03*
D52*
X99550772Y98210776D03*
D51*
X99550773Y99710777D03*
G04 #@! TD*
D53*
G04 #@! TO.C,D4*
X42649231Y41289228D03*
X42649231Y42789228D03*
D54*
X37449230Y42789227D03*
D53*
X37449231Y41289228D03*
G04 #@! TD*
G04 #@! TO.C,D4*
X105649231Y41289228D03*
X105649231Y42789228D03*
D54*
X100449230Y42789227D03*
D53*
X100449231Y41289228D03*
G04 #@! TD*
D46*
G04 #@! TO.C,C21*
X109215773Y97825776D03*
X109215773Y98515776D03*
G04 #@! TD*
D45*
G04 #@! TO.C,C21*
X90784231Y43174229D03*
X90784231Y42484229D03*
G04 #@! TD*
G04 #@! TO.C,C21*
X27784231Y43174229D03*
X27784231Y42484229D03*
G04 #@! TD*
D46*
G04 #@! TO.C,C21*
X46215773Y97825776D03*
X46215773Y98515776D03*
G04 #@! TD*
D41*
G04 #@! TO.C,D22*
X128940772Y94700775D03*
D42*
X130040773Y94700776D03*
X130040773Y92870776D03*
X128940773Y92870776D03*
G04 #@! TD*
D41*
G04 #@! TO.C,D22*
X65940772Y94700775D03*
D42*
X67040773Y94700776D03*
X67040773Y92870776D03*
X65940773Y92870776D03*
G04 #@! TD*
D39*
G04 #@! TO.C,D22*
X71059230Y46299228D03*
D40*
X69959231Y46299229D03*
X69959231Y48129229D03*
X71059231Y48129229D03*
G04 #@! TD*
D39*
G04 #@! TO.C,D22*
X8059230Y46299228D03*
D40*
X6959231Y46299229D03*
X6959231Y48129229D03*
X8059231Y48129229D03*
G04 #@! TD*
D12*
G04 #@! TO.C,C35*
X95789231Y48854229D03*
X96479231Y48854229D03*
G04 #@! TD*
D11*
G04 #@! TO.C,C35*
X104210773Y92145776D03*
X103520773Y92145776D03*
G04 #@! TD*
D12*
G04 #@! TO.C,C35*
X32789231Y48854229D03*
X33479231Y48854229D03*
G04 #@! TD*
D11*
G04 #@! TO.C,C35*
X41210773Y92145776D03*
X40520773Y92145776D03*
G04 #@! TD*
D45*
G04 #@! TO.C,R3*
X102867053Y118841209D03*
X102867053Y118151209D03*
G04 #@! TD*
G04 #@! TO.C,R3*
X39867053Y118841209D03*
X39867053Y118151209D03*
G04 #@! TD*
D46*
G04 #@! TO.C,R3*
X97132951Y22158796D03*
X97132951Y22848796D03*
G04 #@! TD*
G04 #@! TO.C,R3*
X34132951Y22158796D03*
X34132951Y22848796D03*
G04 #@! TD*
D45*
G04 #@! TO.C,C16*
X64890773Y111885776D03*
X64890773Y111195776D03*
G04 #@! TD*
D46*
G04 #@! TO.C,C16*
X9109231Y29114229D03*
X9109231Y29804229D03*
G04 #@! TD*
D45*
G04 #@! TO.C,C16*
X127890773Y111885776D03*
X127890773Y111195776D03*
G04 #@! TD*
D46*
G04 #@! TO.C,C16*
X72109231Y29114229D03*
X72109231Y29804229D03*
G04 #@! TD*
D41*
G04 #@! TO.C,D15*
X128909230Y13044228D03*
D42*
X130009231Y13044229D03*
X130009231Y11214229D03*
X128909231Y11214229D03*
G04 #@! TD*
D39*
G04 #@! TO.C,D15*
X71090772Y127955775D03*
D40*
X69990773Y127955776D03*
X69990773Y129785776D03*
X71090773Y129785776D03*
G04 #@! TD*
D39*
G04 #@! TO.C,D15*
X8090772Y127955775D03*
D40*
X6990773Y127955776D03*
X6990773Y129785776D03*
X8090773Y129785776D03*
G04 #@! TD*
D41*
G04 #@! TO.C,D15*
X65909230Y13044228D03*
D42*
X67009231Y13044229D03*
X67009231Y11214229D03*
X65909231Y11214229D03*
G04 #@! TD*
D12*
G04 #@! TO.C,C20*
X80484231Y40419229D03*
X81174231Y40419229D03*
G04 #@! TD*
D11*
G04 #@! TO.C,C20*
X119515773Y100580776D03*
X118825773Y100580776D03*
G04 #@! TD*
D12*
G04 #@! TO.C,C20*
X17484231Y40419229D03*
X18174231Y40419229D03*
G04 #@! TD*
D11*
G04 #@! TO.C,C20*
X56515773Y100580776D03*
X55825773Y100580776D03*
G04 #@! TD*
D41*
G04 #@! TO.C,D25*
X65909230Y63044228D03*
D42*
X67009231Y63044229D03*
X67009231Y61214229D03*
X65909231Y61214229D03*
G04 #@! TD*
D41*
G04 #@! TO.C,D25*
X128909230Y63044228D03*
D42*
X130009231Y63044229D03*
X130009231Y61214229D03*
X128909231Y61214229D03*
G04 #@! TD*
D39*
G04 #@! TO.C,D25*
X8090772Y77955775D03*
D40*
X6990773Y77955776D03*
X6990773Y79785776D03*
X8090773Y79785776D03*
G04 #@! TD*
D39*
G04 #@! TO.C,D25*
X71090772Y77955775D03*
D40*
X69990773Y77955776D03*
X69990773Y79785776D03*
X71090773Y79785776D03*
G04 #@! TD*
D39*
G04 #@! TO.C,D18*
X71059230Y27299228D03*
D40*
X69959231Y27299229D03*
X69959231Y29129229D03*
X71059231Y29129229D03*
G04 #@! TD*
D41*
G04 #@! TO.C,D18*
X65940772Y113700775D03*
D42*
X67040773Y113700776D03*
X67040773Y111870776D03*
X65940773Y111870776D03*
G04 #@! TD*
D41*
G04 #@! TO.C,D18*
X128940772Y113700775D03*
D42*
X130040773Y113700776D03*
X130040773Y111870776D03*
X128940773Y111870776D03*
G04 #@! TD*
D39*
G04 #@! TO.C,D18*
X8059230Y27299228D03*
D40*
X6959231Y27299229D03*
X6959231Y29129229D03*
X8059231Y29129229D03*
G04 #@! TD*
D46*
G04 #@! TO.C,R6*
X83189231Y42579229D03*
X83189231Y43269229D03*
G04 #@! TD*
G04 #@! TO.C,R6*
X20189231Y42579229D03*
X20189231Y43269229D03*
G04 #@! TD*
D45*
G04 #@! TO.C,R6*
X116810773Y98420776D03*
X116810773Y97730776D03*
G04 #@! TD*
G04 #@! TO.C,R6*
X53810773Y98420776D03*
X53810773Y97730776D03*
G04 #@! TD*
D11*
G04 #@! TO.C,C28*
X94375773Y100560776D03*
X93685773Y100560776D03*
G04 #@! TD*
D12*
G04 #@! TO.C,C28*
X105624231Y40439229D03*
X106314231Y40439229D03*
G04 #@! TD*
G04 #@! TO.C,C28*
X42624231Y40439229D03*
X43314231Y40439229D03*
G04 #@! TD*
D11*
G04 #@! TO.C,C28*
X31375773Y100560776D03*
X30685773Y100560776D03*
G04 #@! TD*
D31*
G04 #@! TO.C,D27*
X115945772Y75180775D03*
D32*
X115945773Y74080776D03*
X114115773Y74080776D03*
X114115773Y75180776D03*
G04 #@! TD*
D29*
G04 #@! TO.C,D27*
X84054230Y65819228D03*
D30*
X84054231Y66919229D03*
X85884231Y66919229D03*
X85884231Y65819229D03*
G04 #@! TD*
D31*
G04 #@! TO.C,D27*
X52945772Y75180775D03*
D32*
X52945773Y74080776D03*
X51115773Y74080776D03*
X51115773Y75180776D03*
G04 #@! TD*
D29*
G04 #@! TO.C,D27*
X21054230Y65819228D03*
D30*
X21054231Y66919229D03*
X22884231Y66919229D03*
X22884231Y65819229D03*
G04 #@! TD*
D29*
G04 #@! TO.C,D11*
X94125772Y132820775D03*
D30*
X94125773Y133920776D03*
X95955773Y133920776D03*
X95955773Y132820776D03*
G04 #@! TD*
D31*
G04 #@! TO.C,D11*
X42874230Y8179228D03*
D32*
X42874231Y7079229D03*
X41044231Y7079229D03*
X41044231Y8179229D03*
G04 #@! TD*
D29*
G04 #@! TO.C,D11*
X31125772Y132820775D03*
D30*
X31125773Y133920776D03*
X32955773Y133920776D03*
X32955773Y132820776D03*
G04 #@! TD*
D31*
G04 #@! TO.C,D11*
X105874230Y8179228D03*
D32*
X105874231Y7079229D03*
X104044231Y7079229D03*
X104044231Y8179229D03*
G04 #@! TD*
D53*
G04 #@! TO.C,D5*
X17503752Y41298749D03*
X17503752Y42798749D03*
D54*
X12303751Y42798748D03*
D53*
X12303752Y41298749D03*
G04 #@! TD*
G04 #@! TO.C,D5*
X80503752Y41298749D03*
X80503752Y42798749D03*
D54*
X75303751Y42798748D03*
D53*
X75303752Y41298749D03*
G04 #@! TD*
D51*
G04 #@! TO.C,D5*
X119496252Y99701256D03*
X119496252Y98201256D03*
D52*
X124696251Y98201255D03*
D51*
X124696252Y99701256D03*
G04 #@! TD*
G04 #@! TO.C,D5*
X56496252Y99701256D03*
X56496252Y98201256D03*
D52*
X61696251Y98201255D03*
D51*
X61696252Y99701256D03*
G04 #@! TD*
D46*
G04 #@! TO.C,C37*
X89009231Y54809229D03*
X89009231Y55499229D03*
G04 #@! TD*
D45*
G04 #@! TO.C,C37*
X47990773Y86190776D03*
X47990773Y85500776D03*
G04 #@! TD*
G04 #@! TO.C,C37*
X110990773Y86190776D03*
X110990773Y85500776D03*
G04 #@! TD*
D46*
G04 #@! TO.C,C37*
X26009231Y54809229D03*
X26009231Y55499229D03*
G04 #@! TD*
D31*
G04 #@! TO.C,D31*
X75945772Y75180775D03*
D32*
X75945773Y74080776D03*
X74115773Y74080776D03*
X74115773Y75180776D03*
G04 #@! TD*
D29*
G04 #@! TO.C,D31*
X61054230Y65819228D03*
D30*
X61054231Y66919229D03*
X62884231Y66919229D03*
X62884231Y65819229D03*
G04 #@! TD*
D29*
G04 #@! TO.C,D31*
X124054230Y65819228D03*
D30*
X124054231Y66919229D03*
X125884231Y66919229D03*
X125884231Y65819229D03*
G04 #@! TD*
D31*
G04 #@! TO.C,D31*
X12945772Y75180775D03*
D32*
X12945773Y74080776D03*
X11115773Y74080776D03*
X11115773Y75180776D03*
G04 #@! TD*
D45*
G04 #@! TO.C,R4*
X28929231Y25734229D03*
X28929231Y25044229D03*
G04 #@! TD*
D46*
G04 #@! TO.C,R4*
X45070773Y115265776D03*
X45070773Y115955776D03*
G04 #@! TD*
D45*
G04 #@! TO.C,R4*
X91929231Y25734229D03*
X91929231Y25044229D03*
G04 #@! TD*
D46*
G04 #@! TO.C,R4*
X108070773Y115265776D03*
X108070773Y115955776D03*
G04 #@! TD*
D34*
G04 #@! TO.C,FB2*
X47540773Y123090776D03*
X47540773Y122070776D03*
G04 #@! TD*
G04 #@! TO.C,FB2*
X110540773Y123090776D03*
X110540773Y122070776D03*
G04 #@! TD*
D33*
G04 #@! TO.C,FB2*
X26459231Y17909229D03*
X26459231Y18929229D03*
G04 #@! TD*
G04 #@! TO.C,FB2*
X89459231Y17909229D03*
X89459231Y18929229D03*
G04 #@! TD*
D55*
G04 #@! TO.C,U4*
X104840772Y117745775D03*
D56*
X104340773Y117745776D03*
X103840773Y117745776D03*
X103840773Y119245776D03*
X104340773Y119245776D03*
X104840773Y119245776D03*
G04 #@! TD*
D57*
G04 #@! TO.C,U4*
X32159230Y23254228D03*
D58*
X32659231Y23254229D03*
X33159231Y23254229D03*
X33159231Y21754229D03*
X32659231Y21754229D03*
X32159231Y21754229D03*
G04 #@! TD*
D55*
G04 #@! TO.C,U4*
X41840772Y117745775D03*
D56*
X41340773Y117745776D03*
X40840773Y117745776D03*
X40840773Y119245776D03*
X41340773Y119245776D03*
X41840773Y119245776D03*
G04 #@! TD*
D57*
G04 #@! TO.C,U4*
X95159230Y23254228D03*
D58*
X95659231Y23254229D03*
X96159231Y23254229D03*
X96159231Y21754229D03*
X95659231Y21754229D03*
X95159231Y21754229D03*
G04 #@! TD*
D12*
G04 #@! TO.C,C43*
X124684231Y59449229D03*
X125374231Y59449229D03*
G04 #@! TD*
G04 #@! TO.C,C43*
X61684231Y59449229D03*
X62374231Y59449229D03*
G04 #@! TD*
D11*
G04 #@! TO.C,C43*
X75315773Y81550776D03*
X74625773Y81550776D03*
G04 #@! TD*
G04 #@! TO.C,C43*
X12315773Y81550776D03*
X11625773Y81550776D03*
G04 #@! TD*
D51*
G04 #@! TO.C,D3*
X12296252Y99701256D03*
X12296252Y98201256D03*
D52*
X17496251Y98201255D03*
D51*
X17496252Y99701256D03*
G04 #@! TD*
D53*
G04 #@! TO.C,D3*
X61703752Y41298749D03*
X61703752Y42798749D03*
D54*
X56503751Y42798748D03*
D53*
X56503752Y41298749D03*
G04 #@! TD*
D51*
G04 #@! TO.C,D3*
X75296252Y99701256D03*
X75296252Y98201256D03*
D52*
X80496251Y98201255D03*
D51*
X80496252Y99701256D03*
G04 #@! TD*
D53*
G04 #@! TO.C,D3*
X124703752Y41298749D03*
X124703752Y42798749D03*
D54*
X119503751Y42798748D03*
D53*
X119503752Y41298749D03*
G04 #@! TD*
D45*
G04 #@! TO.C,C24*
X49470773Y100165776D03*
X49470773Y99475776D03*
G04 #@! TD*
D46*
G04 #@! TO.C,C24*
X87529231Y40834229D03*
X87529231Y41524229D03*
G04 #@! TD*
D45*
G04 #@! TO.C,C24*
X112470773Y100165776D03*
X112470773Y99475776D03*
G04 #@! TD*
D46*
G04 #@! TO.C,C24*
X24529231Y40834229D03*
X24529231Y41524229D03*
G04 #@! TD*
G04 #@! TO.C,C38*
X28484231Y52384229D03*
X28484231Y53074229D03*
G04 #@! TD*
G04 #@! TO.C,C38*
X91484231Y52384229D03*
X91484231Y53074229D03*
G04 #@! TD*
D45*
G04 #@! TO.C,C38*
X108515773Y88615776D03*
X108515773Y87925776D03*
G04 #@! TD*
G04 #@! TO.C,C38*
X45515773Y88615776D03*
X45515773Y87925776D03*
G04 #@! TD*
D11*
G04 #@! TO.C,C29*
X12315773Y100580776D03*
X11625773Y100580776D03*
G04 #@! TD*
G04 #@! TO.C,C29*
X75315773Y100580776D03*
X74625773Y100580776D03*
G04 #@! TD*
D12*
G04 #@! TO.C,C29*
X124684231Y40419229D03*
X125374231Y40419229D03*
G04 #@! TD*
G04 #@! TO.C,C29*
X61684231Y40419229D03*
X62374231Y40419229D03*
G04 #@! TD*
D46*
G04 #@! TO.C,C44*
X127859231Y61194229D03*
X127859231Y61884229D03*
G04 #@! TD*
G04 #@! TO.C,C44*
X64859231Y61194229D03*
X64859231Y61884229D03*
G04 #@! TD*
D45*
G04 #@! TO.C,C44*
X9140773Y79805776D03*
X9140773Y79115776D03*
G04 #@! TD*
G04 #@! TO.C,C44*
X72140773Y79805776D03*
X72140773Y79115776D03*
G04 #@! TD*
D20*
G04 #@! TO.C,MX9*
X52011252Y87521255D03*
X64938252Y90061255D03*
G04 #@! TD*
D19*
G04 #@! TO.C,MX9*
X21988752Y53478750D03*
X9061752Y50938750D03*
G04 #@! TD*
G04 #@! TO.C,MX9*
X84988752Y53478750D03*
X72061752Y50938750D03*
G04 #@! TD*
D20*
G04 #@! TO.C,MX9*
X115011252Y87521255D03*
X127938252Y90061255D03*
G04 #@! TD*
D29*
G04 #@! TO.C,D10*
X41125772Y132820775D03*
D30*
X41125773Y133920776D03*
X42955773Y133920776D03*
X42955773Y132820776D03*
G04 #@! TD*
D29*
G04 #@! TO.C,D10*
X104125772Y132820775D03*
D30*
X104125773Y133920776D03*
X105955773Y133920776D03*
X105955773Y132820776D03*
G04 #@! TD*
D31*
G04 #@! TO.C,D10*
X32874230Y8179228D03*
D32*
X32874231Y7079229D03*
X31044231Y7079229D03*
X31044231Y8179229D03*
G04 #@! TD*
D31*
G04 #@! TO.C,D10*
X95874230Y8179228D03*
D32*
X95874231Y7079229D03*
X94044231Y7079229D03*
X94044231Y8179229D03*
G04 #@! TD*
D45*
G04 #@! TO.C,C15*
X127940773Y116565776D03*
X127940773Y115875776D03*
G04 #@! TD*
G04 #@! TO.C,C15*
X64940773Y116565776D03*
X64940773Y115875776D03*
G04 #@! TD*
D46*
G04 #@! TO.C,C15*
X72059231Y24434229D03*
X72059231Y25124229D03*
G04 #@! TD*
G04 #@! TO.C,C15*
X9059231Y24434229D03*
X9059231Y25124229D03*
G04 #@! TD*
D59*
G04 #@! TO.C,U1*
X87241730Y18629228D03*
D60*
X87779231Y18704229D03*
D61*
X88316731Y18629229D03*
X88316731Y16929229D03*
D60*
X87779231Y16854229D03*
D61*
X87241731Y16929229D03*
G04 #@! TD*
D62*
G04 #@! TO.C,U1*
X112758272Y122370775D03*
D63*
X112220773Y122295776D03*
D64*
X111683273Y122370776D03*
X111683273Y124070776D03*
D63*
X112220773Y124145776D03*
D64*
X112758273Y124070776D03*
G04 #@! TD*
D59*
G04 #@! TO.C,U1*
X24241730Y18629228D03*
D60*
X24779231Y18704229D03*
D61*
X25316731Y18629229D03*
X25316731Y16929229D03*
D60*
X24779231Y16854229D03*
D61*
X24241731Y16929229D03*
G04 #@! TD*
D62*
G04 #@! TO.C,U1*
X49758272Y122370775D03*
D63*
X49220773Y122295776D03*
D64*
X48683273Y122370776D03*
X48683273Y124070776D03*
D63*
X49220773Y124145776D03*
D64*
X49758273Y124070776D03*
G04 #@! TD*
D20*
G04 #@! TO.C,MX1*
X7811252Y125621255D03*
X20738252Y128161255D03*
G04 #@! TD*
D19*
G04 #@! TO.C,MX1*
X66188752Y15378750D03*
X53261752Y12838750D03*
G04 #@! TD*
D20*
G04 #@! TO.C,MX1*
X70811252Y125621255D03*
X83738252Y128161255D03*
G04 #@! TD*
D19*
G04 #@! TO.C,MX1*
X129188752Y15378750D03*
X116261752Y12838750D03*
G04 #@! TD*
G04 #@! TO.C,MX2*
X47138752Y15378750D03*
X34211752Y12838750D03*
G04 #@! TD*
D20*
G04 #@! TO.C,MX2*
X89861252Y125621255D03*
X102788252Y128161255D03*
G04 #@! TD*
D19*
G04 #@! TO.C,MX2*
X110138752Y15378750D03*
X97211752Y12838750D03*
G04 #@! TD*
D20*
G04 #@! TO.C,MX2*
X26861252Y125621255D03*
X39788252Y128161255D03*
G04 #@! TD*
D45*
G04 #@! TO.C,C6*
X9160773Y129805776D03*
X9160773Y129115776D03*
G04 #@! TD*
G04 #@! TO.C,C6*
X72160773Y129805776D03*
X72160773Y129115776D03*
G04 #@! TD*
D46*
G04 #@! TO.C,C6*
X127839231Y11194229D03*
X127839231Y11884229D03*
G04 #@! TD*
G04 #@! TO.C,C6*
X64839231Y11194229D03*
X64839231Y11884229D03*
G04 #@! TD*
D45*
G04 #@! TO.C,C39*
X107915773Y88615776D03*
X107915773Y87925776D03*
G04 #@! TD*
D46*
G04 #@! TO.C,C39*
X29084231Y52384229D03*
X29084231Y53074229D03*
G04 #@! TD*
G04 #@! TO.C,C39*
X92084231Y52384229D03*
X92084231Y53074229D03*
G04 #@! TD*
D45*
G04 #@! TO.C,C39*
X44915773Y88615776D03*
X44915773Y87925776D03*
G04 #@! TD*
D53*
G04 #@! TO.C,D7*
X105653752Y60348749D03*
X105653752Y61848749D03*
D54*
X100453751Y61848748D03*
D53*
X100453752Y60348749D03*
G04 #@! TD*
G04 #@! TO.C,D7*
X42653752Y60348749D03*
X42653752Y61848749D03*
D54*
X37453751Y61848748D03*
D53*
X37453752Y60348749D03*
G04 #@! TD*
D51*
G04 #@! TO.C,D7*
X94346252Y80651256D03*
X94346252Y79151256D03*
D52*
X99546251Y79151255D03*
D51*
X99546252Y80651256D03*
G04 #@! TD*
G04 #@! TO.C,D7*
X31346252Y80651256D03*
X31346252Y79151256D03*
D52*
X36546251Y79151255D03*
D51*
X36546252Y80651256D03*
G04 #@! TD*
D45*
G04 #@! TO.C,R2*
X26249231Y15924229D03*
X26249231Y15234229D03*
G04 #@! TD*
D46*
G04 #@! TO.C,R2*
X110750773Y125075776D03*
X110750773Y125765776D03*
G04 #@! TD*
G04 #@! TO.C,R2*
X47750773Y125075776D03*
X47750773Y125765776D03*
G04 #@! TD*
D45*
G04 #@! TO.C,R2*
X89249231Y15924229D03*
X89249231Y15234229D03*
G04 #@! TD*
D12*
G04 #@! TO.C,C12*
X105634231Y21399229D03*
X106324231Y21399229D03*
G04 #@! TD*
G04 #@! TO.C,C12*
X42634231Y21399229D03*
X43324231Y21399229D03*
G04 #@! TD*
D11*
G04 #@! TO.C,C12*
X31365773Y119600776D03*
X30675773Y119600776D03*
G04 #@! TD*
G04 #@! TO.C,C12*
X94365773Y119600776D03*
X93675773Y119600776D03*
G04 #@! TD*
D39*
G04 #@! TO.C,D17*
X8090772Y119705775D03*
D40*
X6990773Y119705776D03*
X6990773Y121535776D03*
X8090773Y121535776D03*
G04 #@! TD*
D41*
G04 #@! TO.C,D17*
X65909230Y21294228D03*
D42*
X67009231Y21294229D03*
X67009231Y19464229D03*
X65909231Y19464229D03*
G04 #@! TD*
D41*
G04 #@! TO.C,D17*
X128909230Y21294228D03*
D42*
X130009231Y21294229D03*
X130009231Y19464229D03*
X128909231Y19464229D03*
G04 #@! TD*
D39*
G04 #@! TO.C,D17*
X71090772Y119705775D03*
D40*
X69990773Y119705776D03*
X69990773Y121535776D03*
X71090773Y121535776D03*
G04 #@! TD*
D51*
G04 #@! TO.C,D8*
X119496252Y80651256D03*
X119496252Y79151256D03*
D52*
X124696251Y79151255D03*
D51*
X124696252Y80651256D03*
G04 #@! TD*
G04 #@! TO.C,D8*
X56496252Y80651256D03*
X56496252Y79151256D03*
D52*
X61696251Y79151255D03*
D51*
X61696252Y80651256D03*
G04 #@! TD*
D53*
G04 #@! TO.C,D8*
X80503752Y60348749D03*
X80503752Y61848749D03*
D54*
X75303751Y61848748D03*
D53*
X75303752Y60348749D03*
G04 #@! TD*
G04 #@! TO.C,D8*
X17503752Y60348749D03*
X17503752Y61848749D03*
D54*
X12303751Y61848748D03*
D53*
X12303752Y60348749D03*
G04 #@! TD*
D29*
G04 #@! TO.C,D12*
X16125772Y132820775D03*
D30*
X16125773Y133920776D03*
X17955773Y133920776D03*
X17955773Y132820776D03*
G04 #@! TD*
D31*
G04 #@! TO.C,D12*
X120874230Y8179228D03*
D32*
X120874231Y7079229D03*
X119044231Y7079229D03*
X119044231Y8179229D03*
G04 #@! TD*
D29*
G04 #@! TO.C,D12*
X79125772Y132820775D03*
D30*
X79125773Y133920776D03*
X80955773Y133920776D03*
X80955773Y132820776D03*
G04 #@! TD*
D31*
G04 #@! TO.C,D12*
X57874230Y8179228D03*
D32*
X57874231Y7079229D03*
X56044231Y7079229D03*
X56044231Y8179229D03*
G04 #@! TD*
D65*
G04 #@! TO.C,J1*
X110410772Y127600775D03*
X111210772Y127600775D03*
D66*
X112360772Y127600775D03*
X113360772Y127600775D03*
X113860772Y127600775D03*
X114860772Y127600775D03*
D65*
X116010772Y127600775D03*
X116810772Y127600775D03*
X116810772Y127600775D03*
X116010772Y127600775D03*
D66*
X115360772Y127600775D03*
X114360772Y127600775D03*
X112860772Y127600775D03*
X111860772Y127600775D03*
D65*
X111210772Y127600775D03*
X110410772Y127600775D03*
G04 #@! TD*
G04 #@! TO.C,J1*
X47410772Y127600775D03*
X48210772Y127600775D03*
D66*
X49360772Y127600775D03*
X50360772Y127600775D03*
X50860772Y127600775D03*
X51860772Y127600775D03*
D65*
X53010772Y127600775D03*
X53810772Y127600775D03*
X53810772Y127600775D03*
X53010772Y127600775D03*
D66*
X52360772Y127600775D03*
X51360772Y127600775D03*
X49860772Y127600775D03*
X48860772Y127600775D03*
D65*
X48210772Y127600775D03*
X47410772Y127600775D03*
G04 #@! TD*
G04 #@! TO.C,J1*
X89589230Y13399228D03*
X88789230Y13399228D03*
D66*
X87639230Y13399228D03*
X86639230Y13399228D03*
X86139230Y13399228D03*
X85139230Y13399228D03*
D65*
X83989230Y13399228D03*
X83189230Y13399228D03*
X83189230Y13399228D03*
X83989230Y13399228D03*
D66*
X84639230Y13399228D03*
X85639230Y13399228D03*
X87139230Y13399228D03*
X88139230Y13399228D03*
D65*
X88789230Y13399228D03*
X89589230Y13399228D03*
G04 #@! TD*
G04 #@! TO.C,J1*
X26589230Y13399228D03*
X25789230Y13399228D03*
D66*
X24639230Y13399228D03*
X23639230Y13399228D03*
X23139230Y13399228D03*
X22139230Y13399228D03*
D65*
X20989230Y13399228D03*
X20189230Y13399228D03*
X20189230Y13399228D03*
X20989230Y13399228D03*
D66*
X21639230Y13399228D03*
X22639230Y13399228D03*
X24139230Y13399228D03*
X25139230Y13399228D03*
D65*
X25789230Y13399228D03*
X26589230Y13399228D03*
G04 #@! TD*
D12*
G04 #@! TO.C,C49*
X105864231Y64769229D03*
X106554231Y64769229D03*
G04 #@! TD*
D11*
G04 #@! TO.C,C49*
X94135773Y76230776D03*
X93445773Y76230776D03*
G04 #@! TD*
D12*
G04 #@! TO.C,C49*
X42864231Y64769229D03*
X43554231Y64769229D03*
G04 #@! TD*
D11*
G04 #@! TO.C,C49*
X31135773Y76230776D03*
X30445773Y76230776D03*
G04 #@! TD*
D41*
G04 #@! TO.C,D16*
X128990772Y118370775D03*
D42*
X130090773Y118370776D03*
X130090773Y116540776D03*
X128990773Y116540776D03*
G04 #@! TD*
D39*
G04 #@! TO.C,D16*
X71009230Y22629228D03*
D40*
X69909231Y22629229D03*
X69909231Y24459229D03*
X71009231Y24459229D03*
G04 #@! TD*
D39*
G04 #@! TO.C,D16*
X8009230Y22629228D03*
D40*
X6909231Y22629229D03*
X6909231Y24459229D03*
X8009231Y24459229D03*
G04 #@! TD*
D41*
G04 #@! TO.C,D16*
X65990772Y118370775D03*
D42*
X67090773Y118370776D03*
X67090773Y116540776D03*
X65990773Y116540776D03*
G04 #@! TD*
D12*
G04 #@! TO.C,C32*
X50675773Y92145776D03*
X51365773Y92145776D03*
G04 #@! TD*
D11*
G04 #@! TO.C,C32*
X86324231Y48854229D03*
X85634231Y48854229D03*
G04 #@! TD*
D12*
G04 #@! TO.C,C32*
X113675773Y92145776D03*
X114365773Y92145776D03*
G04 #@! TD*
D11*
G04 #@! TO.C,C32*
X23324231Y48854229D03*
X22634231Y48854229D03*
G04 #@! TD*
D12*
G04 #@! TO.C,C46*
X75844231Y64769229D03*
X76534231Y64769229D03*
G04 #@! TD*
D11*
G04 #@! TO.C,C46*
X61155773Y76230776D03*
X60465773Y76230776D03*
G04 #@! TD*
G04 #@! TO.C,C46*
X124155773Y76230776D03*
X123465773Y76230776D03*
G04 #@! TD*
D12*
G04 #@! TO.C,C46*
X12844231Y64769229D03*
X13534231Y64769229D03*
G04 #@! TD*
D11*
G04 #@! TO.C,C34*
X41210773Y95745776D03*
X40520773Y95745776D03*
G04 #@! TD*
D12*
G04 #@! TO.C,C34*
X32789231Y45254229D03*
X33479231Y45254229D03*
G04 #@! TD*
D11*
G04 #@! TO.C,C34*
X104210773Y95745776D03*
X103520773Y95745776D03*
G04 #@! TD*
D12*
G04 #@! TO.C,C34*
X95789231Y45254229D03*
X96479231Y45254229D03*
G04 #@! TD*
D31*
G04 #@! TO.C,D28*
X42945772Y75180775D03*
D32*
X42945773Y74080776D03*
X41115773Y74080776D03*
X41115773Y75180776D03*
G04 #@! TD*
D29*
G04 #@! TO.C,D28*
X94054230Y65819228D03*
D30*
X94054231Y66919229D03*
X95884231Y66919229D03*
X95884231Y65819229D03*
G04 #@! TD*
D31*
G04 #@! TO.C,D28*
X105945772Y75180775D03*
D32*
X105945773Y74080776D03*
X104115773Y74080776D03*
X104115773Y75180776D03*
G04 #@! TD*
D29*
G04 #@! TO.C,D28*
X31054230Y65819228D03*
D30*
X31054231Y66919229D03*
X32884231Y66919229D03*
X32884231Y65819229D03*
G04 #@! TD*
D45*
G04 #@! TO.C,R8*
X108015773Y98520776D03*
X108015773Y97830776D03*
G04 #@! TD*
D46*
G04 #@! TO.C,R8*
X28984231Y42479229D03*
X28984231Y43169229D03*
G04 #@! TD*
D45*
G04 #@! TO.C,R8*
X45015773Y98520776D03*
X45015773Y97830776D03*
G04 #@! TD*
D46*
G04 #@! TO.C,R8*
X91984231Y42479229D03*
X91984231Y43169229D03*
G04 #@! TD*
D39*
G04 #@! TO.C,D14*
X71059230Y11129228D03*
D40*
X69959231Y11129229D03*
X69959231Y12959229D03*
X71059231Y12959229D03*
G04 #@! TD*
D41*
G04 #@! TO.C,D14*
X128940772Y129870775D03*
D42*
X130040773Y129870776D03*
X130040773Y128040776D03*
X128940773Y128040776D03*
G04 #@! TD*
D39*
G04 #@! TO.C,D14*
X8059230Y11129228D03*
D40*
X6959231Y11129229D03*
X6959231Y12959229D03*
X8059231Y12959229D03*
G04 #@! TD*
D41*
G04 #@! TO.C,D14*
X65940772Y129870775D03*
D42*
X67040773Y129870776D03*
X67040773Y128040776D03*
X65940773Y128040776D03*
G04 #@! TD*
D46*
G04 #@! TO.C,C36*
X127859231Y46364229D03*
X127859231Y47054229D03*
G04 #@! TD*
D45*
G04 #@! TO.C,C36*
X72140773Y94635776D03*
X72140773Y93945776D03*
G04 #@! TD*
G04 #@! TO.C,C36*
X9140773Y94635776D03*
X9140773Y93945776D03*
G04 #@! TD*
D46*
G04 #@! TO.C,C36*
X64859231Y46364229D03*
X64859231Y47054229D03*
G04 #@! TD*
G04 #@! TO.C,C30*
X127859231Y38304229D03*
X127859231Y38994229D03*
G04 #@! TD*
D45*
G04 #@! TO.C,C30*
X9140773Y102695776D03*
X9140773Y102005776D03*
G04 #@! TD*
G04 #@! TO.C,C30*
X72140773Y102695776D03*
X72140773Y102005776D03*
G04 #@! TD*
D46*
G04 #@! TO.C,C30*
X64859231Y38304229D03*
X64859231Y38994229D03*
G04 #@! TD*
D12*
G04 #@! TO.C,C50*
X115864231Y64769229D03*
X116554231Y64769229D03*
G04 #@! TD*
D11*
G04 #@! TO.C,C50*
X21135773Y76230776D03*
X20445773Y76230776D03*
G04 #@! TD*
G04 #@! TO.C,C50*
X84135773Y76230776D03*
X83445773Y76230776D03*
G04 #@! TD*
D12*
G04 #@! TO.C,C50*
X52864231Y64769229D03*
X53554231Y64769229D03*
G04 #@! TD*
D29*
G04 #@! TO.C,D29*
X41054230Y65819228D03*
D30*
X41054231Y66919229D03*
X42884231Y66919229D03*
X42884231Y65819229D03*
G04 #@! TD*
D31*
G04 #@! TO.C,D29*
X95945772Y75180775D03*
D32*
X95945773Y74080776D03*
X94115773Y74080776D03*
X94115773Y75180776D03*
G04 #@! TD*
D31*
G04 #@! TO.C,D29*
X32945772Y75180775D03*
D32*
X32945773Y74080776D03*
X31115773Y74080776D03*
X31115773Y75180776D03*
G04 #@! TD*
D29*
G04 #@! TO.C,D29*
X104054230Y65819228D03*
D30*
X104054231Y66919229D03*
X105884231Y66919229D03*
X105884231Y65819229D03*
G04 #@! TD*
D45*
G04 #@! TO.C,C22*
X43815773Y98515776D03*
X43815773Y97825776D03*
G04 #@! TD*
G04 #@! TO.C,C22*
X106815773Y98515776D03*
X106815773Y97825776D03*
G04 #@! TD*
D46*
G04 #@! TO.C,C22*
X30184231Y42484229D03*
X30184231Y43174229D03*
G04 #@! TD*
G04 #@! TO.C,C22*
X93184231Y42484229D03*
X93184231Y43174229D03*
G04 #@! TD*
D12*
G04 #@! TO.C,C47*
X22854231Y64769229D03*
X23544231Y64769229D03*
G04 #@! TD*
D11*
G04 #@! TO.C,C47*
X114145773Y76230776D03*
X113455773Y76230776D03*
G04 #@! TD*
G04 #@! TO.C,C47*
X51145773Y76230776D03*
X50455773Y76230776D03*
G04 #@! TD*
D12*
G04 #@! TO.C,C47*
X85854231Y64769229D03*
X86544231Y64769229D03*
G04 #@! TD*
D45*
G04 #@! TO.C,C31*
X127890773Y92885776D03*
X127890773Y92195776D03*
G04 #@! TD*
G04 #@! TO.C,C31*
X64890773Y92885776D03*
X64890773Y92195776D03*
G04 #@! TD*
D46*
G04 #@! TO.C,C31*
X72109231Y48114229D03*
X72109231Y48804229D03*
G04 #@! TD*
G04 #@! TO.C,C31*
X9109231Y48114229D03*
X9109231Y48804229D03*
G04 #@! TD*
D11*
G04 #@! TO.C,C8*
X10304231Y18329229D03*
X9614231Y18329229D03*
G04 #@! TD*
G04 #@! TO.C,C8*
X73304231Y18329229D03*
X72614231Y18329229D03*
G04 #@! TD*
D12*
G04 #@! TO.C,C8*
X63695773Y122670776D03*
X64385773Y122670776D03*
G04 #@! TD*
G04 #@! TO.C,C8*
X126695773Y122670776D03*
X127385773Y122670776D03*
G04 #@! TD*
D67*
G04 #@! TO.C,U2*
X90389230Y21371728D03*
D68*
X89439231Y21371729D03*
X88489231Y21371729D03*
X88489231Y23646729D03*
X90389231Y23646729D03*
G04 #@! TD*
D69*
G04 #@! TO.C,U2*
X46610772Y119628275D03*
D70*
X47560773Y119628276D03*
X48510773Y119628276D03*
X48510773Y117353276D03*
X46610773Y117353276D03*
G04 #@! TD*
D69*
G04 #@! TO.C,U2*
X109610772Y119628275D03*
D70*
X110560773Y119628276D03*
X111510773Y119628276D03*
X111510773Y117353276D03*
X109610773Y117353276D03*
G04 #@! TD*
D67*
G04 #@! TO.C,U2*
X27389230Y21371728D03*
D68*
X26439231Y21371729D03*
X25489231Y21371729D03*
X25489231Y23646729D03*
X27389231Y23646729D03*
G04 #@! TD*
D45*
G04 #@! TO.C,R10*
X27884231Y53074229D03*
X27884231Y52384229D03*
G04 #@! TD*
G04 #@! TO.C,R10*
X90884231Y53074229D03*
X90884231Y52384229D03*
G04 #@! TD*
D46*
G04 #@! TO.C,R10*
X46115773Y87925776D03*
X46115773Y88615776D03*
G04 #@! TD*
G04 #@! TO.C,R10*
X109115773Y87925776D03*
X109115773Y88615776D03*
G04 #@! TD*
D11*
G04 #@! TO.C,C1*
X62985773Y131770776D03*
X62295773Y131770776D03*
G04 #@! TD*
D12*
G04 #@! TO.C,C1*
X11014231Y9229229D03*
X11704231Y9229229D03*
G04 #@! TD*
D11*
G04 #@! TO.C,C1*
X125985773Y131770776D03*
X125295773Y131770776D03*
G04 #@! TD*
D12*
G04 #@! TO.C,C1*
X74014231Y9229229D03*
X74704231Y9229229D03*
G04 #@! TD*
D11*
G04 #@! TO.C,C7*
X73304231Y17529229D03*
X72614231Y17529229D03*
G04 #@! TD*
G04 #@! TO.C,C7*
X10304231Y17529229D03*
X9614231Y17529229D03*
G04 #@! TD*
D12*
G04 #@! TO.C,C7*
X126695773Y123470776D03*
X127385773Y123470776D03*
G04 #@! TD*
G04 #@! TO.C,C7*
X63695773Y123470776D03*
X64385773Y123470776D03*
G04 #@! TD*
D51*
G04 #@! TO.C,D6*
X12296252Y80651256D03*
X12296252Y79151256D03*
D52*
X17496251Y79151255D03*
D51*
X17496252Y80651256D03*
G04 #@! TD*
G04 #@! TO.C,D6*
X75296252Y80651256D03*
X75296252Y79151256D03*
D52*
X80496251Y79151255D03*
D51*
X80496252Y80651256D03*
G04 #@! TD*
D53*
G04 #@! TO.C,D6*
X61703752Y60348749D03*
X61703752Y61848749D03*
D54*
X56503751Y61848748D03*
D53*
X56503752Y60348749D03*
G04 #@! TD*
G04 #@! TO.C,D6*
X124703752Y60348749D03*
X124703752Y61848749D03*
D54*
X119503751Y61848748D03*
D53*
X119503752Y60348749D03*
G04 #@! TD*
D11*
G04 #@! TO.C,C42*
X31365773Y81540776D03*
X30675773Y81540776D03*
G04 #@! TD*
G04 #@! TO.C,C42*
X94365773Y81540776D03*
X93675773Y81540776D03*
G04 #@! TD*
D12*
G04 #@! TO.C,C42*
X42634231Y59459229D03*
X43324231Y59459229D03*
G04 #@! TD*
G04 #@! TO.C,C42*
X105634231Y59459229D03*
X106324231Y59459229D03*
G04 #@! TD*
D53*
G04 #@! TO.C,D2*
X105653752Y22248749D03*
X105653752Y23748749D03*
D54*
X100453751Y23748748D03*
D53*
X100453752Y22248749D03*
G04 #@! TD*
D51*
G04 #@! TO.C,D2*
X31346252Y118751256D03*
X31346252Y117251256D03*
D52*
X36546251Y117251255D03*
D51*
X36546252Y118751256D03*
G04 #@! TD*
G04 #@! TO.C,D2*
X94346252Y118751256D03*
X94346252Y117251256D03*
D52*
X99546251Y117251255D03*
D51*
X99546252Y118751256D03*
G04 #@! TD*
D53*
G04 #@! TO.C,D2*
X42653752Y22248749D03*
X42653752Y23748749D03*
D54*
X37453751Y23748748D03*
D53*
X37453752Y22248749D03*
G04 #@! TD*
D20*
G04 #@! TO.C,MX7*
X7811252Y87521255D03*
X20738252Y90061255D03*
G04 #@! TD*
G04 #@! TO.C,MX7*
X70811252Y87521255D03*
X83738252Y90061255D03*
G04 #@! TD*
D19*
G04 #@! TO.C,MX7*
X66188752Y53478750D03*
X53261752Y50938750D03*
G04 #@! TD*
G04 #@! TO.C,MX7*
X129188752Y53478750D03*
X116261752Y50938750D03*
G04 #@! TD*
D11*
G04 #@! TO.C,C48*
X41155773Y76230776D03*
X40465773Y76230776D03*
G04 #@! TD*
G04 #@! TO.C,C48*
X104155773Y76230776D03*
X103465773Y76230776D03*
G04 #@! TD*
D12*
G04 #@! TO.C,C48*
X32844231Y64769229D03*
X33534231Y64769229D03*
G04 #@! TD*
G04 #@! TO.C,C48*
X95844231Y64769229D03*
X96534231Y64769229D03*
G04 #@! TD*
D46*
G04 #@! TO.C,C40*
X43865773Y85500776D03*
X43865773Y86190776D03*
G04 #@! TD*
G04 #@! TO.C,C40*
X106865773Y85500776D03*
X106865773Y86190776D03*
G04 #@! TD*
D45*
G04 #@! TO.C,C40*
X30134231Y55499229D03*
X30134231Y54809229D03*
G04 #@! TD*
G04 #@! TO.C,C40*
X93134231Y55499229D03*
X93134231Y54809229D03*
G04 #@! TD*
D71*
G04 #@! TO.C,Y1*
X45040772Y86570775D03*
D72*
X46790773Y86570776D03*
X46790773Y85170776D03*
X45040773Y85170776D03*
G04 #@! TD*
D71*
G04 #@! TO.C,Y1*
X108040772Y86570775D03*
D72*
X109790773Y86570776D03*
X109790773Y85170776D03*
X108040773Y85170776D03*
G04 #@! TD*
D73*
G04 #@! TO.C,Y1*
X28959230Y54429228D03*
D74*
X27209231Y54429229D03*
X27209231Y55829229D03*
X28959231Y55829229D03*
G04 #@! TD*
D73*
G04 #@! TO.C,Y1*
X91959230Y54429228D03*
D74*
X90209231Y54429229D03*
X90209231Y55829229D03*
X91959231Y55829229D03*
G04 #@! TD*
D48*
G04 #@! TO.C,C17*
X46620773Y115880776D03*
X47580773Y115880776D03*
G04 #@! TD*
G04 #@! TO.C,C17*
X109620773Y115880776D03*
X110580773Y115880776D03*
G04 #@! TD*
D47*
G04 #@! TO.C,C17*
X27379231Y25119229D03*
X26419231Y25119229D03*
G04 #@! TD*
G04 #@! TO.C,C17*
X90379231Y25119229D03*
X89419231Y25119229D03*
G04 #@! TD*
D75*
G04 #@! TO.C,J2*
X21690773Y130995776D03*
X22190773Y130995776D03*
X22690773Y130995776D03*
X23190773Y130995776D03*
X23690773Y130995776D03*
X24190773Y130995776D03*
X24690773Y130995776D03*
X25190773Y130995776D03*
X25690773Y130995776D03*
X26190773Y130995776D03*
X26690773Y130995776D03*
X27190773Y130995776D03*
D76*
X28840773Y133345776D03*
X20040773Y133345776D03*
G04 #@! TD*
D75*
G04 #@! TO.C,J2*
X84690773Y130995776D03*
X85190773Y130995776D03*
X85690773Y130995776D03*
X86190773Y130995776D03*
X86690773Y130995776D03*
X87190773Y130995776D03*
X87690773Y130995776D03*
X88190773Y130995776D03*
X88690773Y130995776D03*
X89190773Y130995776D03*
X89690773Y130995776D03*
X90190773Y130995776D03*
D76*
X91840773Y133345776D03*
X83040773Y133345776D03*
G04 #@! TD*
D77*
G04 #@! TO.C,J2*
X52309231Y10004229D03*
X51809231Y10004229D03*
X51309231Y10004229D03*
X50809231Y10004229D03*
X50309231Y10004229D03*
X49809231Y10004229D03*
X49309231Y10004229D03*
X48809231Y10004229D03*
X48309231Y10004229D03*
X47809231Y10004229D03*
X47309231Y10004229D03*
X46809231Y10004229D03*
D78*
X45159231Y7654229D03*
X53959231Y7654229D03*
G04 #@! TD*
D77*
G04 #@! TO.C,J2*
X115309231Y10004229D03*
X114809231Y10004229D03*
X114309231Y10004229D03*
X113809231Y10004229D03*
X113309231Y10004229D03*
X112809231Y10004229D03*
X112309231Y10004229D03*
X111809231Y10004229D03*
X111309231Y10004229D03*
X110809231Y10004229D03*
X110309231Y10004229D03*
X109809231Y10004229D03*
D78*
X108159231Y7654229D03*
X116959231Y7654229D03*
G04 #@! TD*
D11*
G04 #@! TO.C,C2*
X42985773Y131770776D03*
X42295773Y131770776D03*
G04 #@! TD*
G04 #@! TO.C,C2*
X105985773Y131770776D03*
X105295773Y131770776D03*
G04 #@! TD*
D12*
G04 #@! TO.C,C2*
X31014231Y9229229D03*
X31704231Y9229229D03*
G04 #@! TD*
G04 #@! TO.C,C2*
X94014231Y9229229D03*
X94704231Y9229229D03*
G04 #@! TD*
D51*
G04 #@! TO.C,D1*
X12296252Y118751256D03*
X12296252Y117251256D03*
D52*
X17496251Y117251255D03*
D51*
X17496252Y118751256D03*
G04 #@! TD*
G04 #@! TO.C,D1*
X75296252Y118751256D03*
X75296252Y117251256D03*
D52*
X80496251Y117251255D03*
D51*
X80496252Y118751256D03*
G04 #@! TD*
D53*
G04 #@! TO.C,D1*
X61703752Y22248749D03*
X61703752Y23748749D03*
D54*
X56503751Y23748748D03*
D53*
X56503752Y22248749D03*
G04 #@! TD*
G04 #@! TO.C,D1*
X124703752Y22248749D03*
X124703752Y23748749D03*
D54*
X119503751Y23748748D03*
D53*
X119503752Y22248749D03*
G04 #@! TD*
D45*
G04 #@! TO.C,R9*
X44415773Y98515776D03*
X44415773Y97825776D03*
G04 #@! TD*
G04 #@! TO.C,R9*
X107415773Y98515776D03*
X107415773Y97825776D03*
G04 #@! TD*
D46*
G04 #@! TO.C,R9*
X29584231Y42484229D03*
X29584231Y43174229D03*
G04 #@! TD*
G04 #@! TO.C,R9*
X92584231Y42484229D03*
X92584231Y43174229D03*
G04 #@! TD*
G04 #@! TO.C,C26*
X93784231Y42484229D03*
X93784231Y43174229D03*
G04 #@! TD*
D45*
G04 #@! TO.C,C26*
X43215773Y98515776D03*
X43215773Y97825776D03*
G04 #@! TD*
G04 #@! TO.C,C26*
X106215773Y98515776D03*
X106215773Y97825776D03*
G04 #@! TD*
D46*
G04 #@! TO.C,C26*
X30784231Y42484229D03*
X30784231Y43174229D03*
G04 #@! TD*
D39*
G04 #@! TO.C,D23*
X8090772Y92785775D03*
D40*
X6990773Y92785776D03*
X6990773Y94615776D03*
X8090773Y94615776D03*
G04 #@! TD*
D39*
G04 #@! TO.C,D23*
X71090772Y92785775D03*
D40*
X69990773Y92785776D03*
X69990773Y94615776D03*
X71090773Y94615776D03*
G04 #@! TD*
D41*
G04 #@! TO.C,D23*
X65909230Y48214228D03*
D42*
X67009231Y48214229D03*
X67009231Y46384229D03*
X65909231Y46384229D03*
G04 #@! TD*
D41*
G04 #@! TO.C,D23*
X128909230Y48214228D03*
D42*
X130009231Y48214229D03*
X130009231Y46384229D03*
X128909231Y46384229D03*
G04 #@! TD*
D47*
G04 #@! TO.C,C10*
X47570773Y124060776D03*
X46610773Y124060776D03*
G04 #@! TD*
G04 #@! TO.C,C10*
X110570773Y124060776D03*
X109610773Y124060776D03*
G04 #@! TD*
D48*
G04 #@! TO.C,C10*
X26429231Y16939229D03*
X27389231Y16939229D03*
G04 #@! TD*
G04 #@! TO.C,C10*
X89429231Y16939229D03*
X90389231Y16939229D03*
G04 #@! TD*
D20*
G04 #@! TO.C,MX4*
X7811252Y106571255D03*
X20738252Y109111255D03*
G04 #@! TD*
G04 #@! TO.C,MX4*
X70811252Y106571255D03*
X83738252Y109111255D03*
G04 #@! TD*
D19*
G04 #@! TO.C,MX4*
X66188752Y34428750D03*
X53261752Y31888750D03*
G04 #@! TD*
G04 #@! TO.C,MX4*
X129188752Y34428750D03*
X116261752Y31888750D03*
G04 #@! TD*
D46*
G04 #@! TO.C,C23*
X45615773Y97825776D03*
X45615773Y98515776D03*
G04 #@! TD*
G04 #@! TO.C,C23*
X108615773Y97825776D03*
X108615773Y98515776D03*
G04 #@! TD*
D45*
G04 #@! TO.C,C23*
X28384231Y43174229D03*
X28384231Y42484229D03*
G04 #@! TD*
G04 #@! TO.C,C23*
X91384231Y43174229D03*
X91384231Y42484229D03*
G04 #@! TD*
G04 #@! TO.C,C45*
X64890773Y78045776D03*
X64890773Y77355776D03*
G04 #@! TD*
G04 #@! TO.C,C45*
X127890773Y78045776D03*
X127890773Y77355776D03*
G04 #@! TD*
D46*
G04 #@! TO.C,C45*
X9109231Y62954229D03*
X9109231Y63644229D03*
G04 #@! TD*
G04 #@! TO.C,C45*
X72109231Y62954229D03*
X72109231Y63644229D03*
G04 #@! TD*
D11*
G04 #@! TO.C,C51*
X11145773Y76230776D03*
X10455773Y76230776D03*
G04 #@! TD*
G04 #@! TO.C,C51*
X74145773Y76230776D03*
X73455773Y76230776D03*
G04 #@! TD*
D12*
G04 #@! TO.C,C51*
X62854231Y64769229D03*
X63544231Y64769229D03*
G04 #@! TD*
G04 #@! TO.C,C51*
X125854231Y64769229D03*
X126544231Y64769229D03*
G04 #@! TD*
D45*
G04 #@! TO.C,C9*
X64890773Y128065776D03*
X64890773Y127375776D03*
G04 #@! TD*
G04 #@! TO.C,C9*
X127890773Y128065776D03*
X127890773Y127375776D03*
G04 #@! TD*
D46*
G04 #@! TO.C,C9*
X9109231Y12934229D03*
X9109231Y13624229D03*
G04 #@! TD*
G04 #@! TO.C,C9*
X72109231Y12934229D03*
X72109231Y13624229D03*
G04 #@! TD*
D12*
G04 #@! TO.C,C33*
X50670773Y95745776D03*
X51360773Y95745776D03*
G04 #@! TD*
G04 #@! TO.C,C33*
X113670773Y95745776D03*
X114360773Y95745776D03*
G04 #@! TD*
D11*
G04 #@! TO.C,C33*
X23329231Y45254229D03*
X22639231Y45254229D03*
G04 #@! TD*
G04 #@! TO.C,C33*
X86329231Y45254229D03*
X85639231Y45254229D03*
G04 #@! TD*
D46*
G04 #@! TO.C,R1*
X53490773Y125080776D03*
X53490773Y125770776D03*
G04 #@! TD*
G04 #@! TO.C,R1*
X116490773Y125080776D03*
X116490773Y125770776D03*
G04 #@! TD*
D45*
G04 #@! TO.C,R1*
X20509231Y15919229D03*
X20509231Y15229229D03*
G04 #@! TD*
G04 #@! TO.C,R1*
X83509231Y15919229D03*
X83509231Y15229229D03*
G04 #@! TD*
D20*
G04 #@! TO.C,MX5*
X26865773Y106580776D03*
X39792773Y109120776D03*
G04 #@! TD*
G04 #@! TO.C,MX5*
X89865773Y106580776D03*
X102792773Y109120776D03*
G04 #@! TD*
D19*
G04 #@! TO.C,MX5*
X47134231Y34419229D03*
X34207231Y31879229D03*
G04 #@! TD*
G04 #@! TO.C,MX5*
X110134231Y34419229D03*
X97207231Y31879229D03*
G04 #@! TD*
D46*
G04 #@! TO.C,C25*
X46815773Y97825776D03*
X46815773Y98515776D03*
G04 #@! TD*
G04 #@! TO.C,C25*
X109815773Y97825776D03*
X109815773Y98515776D03*
G04 #@! TD*
D45*
G04 #@! TO.C,C25*
X27184231Y43174229D03*
X27184231Y42484229D03*
G04 #@! TD*
G04 #@! TO.C,C25*
X90184231Y43174229D03*
X90184231Y42484229D03*
G04 #@! TD*
D39*
G04 #@! TO.C,D21*
X8090772Y101870775D03*
D40*
X6990773Y101870776D03*
X6990773Y103700776D03*
X8090773Y103700776D03*
G04 #@! TD*
D39*
G04 #@! TO.C,D21*
X71090772Y101870775D03*
D40*
X69990773Y101870776D03*
X69990773Y103700776D03*
X71090773Y103700776D03*
G04 #@! TD*
D41*
G04 #@! TO.C,D21*
X65909230Y39129228D03*
D42*
X67009231Y39129229D03*
X67009231Y37299229D03*
X65909231Y37299229D03*
G04 #@! TD*
D41*
G04 #@! TO.C,D21*
X128909230Y39129228D03*
D42*
X130009231Y39129229D03*
X130009231Y37299229D03*
X128909231Y37299229D03*
G04 #@! TD*
D45*
G04 #@! TO.C,R5*
X44120773Y115960776D03*
X44120773Y115270776D03*
G04 #@! TD*
G04 #@! TO.C,R5*
X107120773Y115960776D03*
X107120773Y115270776D03*
G04 #@! TD*
D46*
G04 #@! TO.C,R5*
X29879231Y25039229D03*
X29879231Y25729229D03*
G04 #@! TD*
G04 #@! TO.C,R5*
X92879231Y25039229D03*
X92879231Y25729229D03*
G04 #@! TD*
D11*
G04 #@! TO.C,C41*
X56535773Y81520776D03*
X55845773Y81520776D03*
G04 #@! TD*
G04 #@! TO.C,C41*
X119535773Y81520776D03*
X118845773Y81520776D03*
G04 #@! TD*
D12*
G04 #@! TO.C,C41*
X17464231Y59479229D03*
X18154231Y59479229D03*
G04 #@! TD*
G04 #@! TO.C,C41*
X80464231Y59479229D03*
X81154231Y59479229D03*
G04 #@! TD*
M02*
