M48
; DRILL file {KiCad 7.0.0-da2b9df05c~165~ubuntu22.04.1} date Mon May 29 12:10:48 2023
; FORMAT={-:-/ absolute / metric / decimal}
; #@! TF.CreationDate,2023-05-29T12:10:48+00:00
; #@! TF.GenerationSoftware,Kicad,Pcbnew,7.0.0-da2b9df05c~165~ubuntu22.04.1
; #@! TF.FileFunction,MixedPlating,1,4
FMAT,2
METRIC
; #@! TA.AperFunction,Plated,PTH,ViaDrill
T1C0.150
; #@! TA.AperFunction,Plated,PTH,ViaDrill
T2C0.300
; #@! TA.AperFunction,Plated,PTH,ComponentDrill
T3C0.350
; #@! TA.AperFunction,Plated,PTH,ViaDrill
T4C0.400
; #@! TA.AperFunction,Plated,PTH,ComponentDrill
T5C0.600
; #@! TA.AperFunction,Plated,PTH,ComponentDrill
T6C1.000
; #@! TA.AperFunction,Plated,PTH,ComponentDrill
T7C1.500
; #@! TA.AperFunction,NonPlated,NPTH,ComponentDrill
T8C1.067
; #@! TA.AperFunction,NonPlated,NPTH,ComponentDrill
T9C1.750
; #@! TA.AperFunction,NonPlated,NPTH,ComponentDrill
T10C2.000
; #@! TA.AperFunction,NonPlated,NPTH,ComponentDrill
T11C3.000
; #@! TA.AperFunction,NonPlated,NPTH,ComponentDrill
T12C4.000
%
G90
G05
T1
X9.062Y31.889
X9.062Y50.939
X9.454Y24.459
X9.474Y48.129
X9.494Y12.959
X9.504Y62.979
X9.504Y39.039
X9.504Y29.139
X9.536Y121.531
X9.536Y102.671
X9.546Y129.781
X9.546Y113.611
X9.546Y94.611
X9.546Y79.781
X10.279Y18.839
X10.279Y17.009
X11.039Y9.644
X11.121Y76.693
X11.959Y8.129
X12.289Y42.064
X12.301Y118.017
X12.301Y98.967
X12.869Y64.384
X12.971Y131.376
X17.491Y98.936
X17.501Y118.011
X17.501Y79.886
X17.509Y61.083
X17.961Y131.386
X20.189Y43.239
X20.199Y41.499
X21.111Y76.616
X21.691Y42.461
X21.699Y40.859
X21.709Y41.669
X22.691Y133.121
X22.719Y45.829
X22.879Y64.364
X22.989Y43.259
X22.999Y42.469
X22.999Y41.679
X23.191Y132.631
X23.299Y48.854
X23.304Y45.254
X23.636Y14.082
X23.701Y133.121
X23.759Y45.849
X24.191Y132.631
X24.219Y16.429
X24.229Y59.189
X24.237Y61.739
X24.237Y60.469
X24.529Y40.859
X24.691Y133.091
X24.959Y50.884
X25.191Y132.611
X25.404Y45.254
X25.409Y46.399
X25.417Y45.825
X25.589Y48.789
X25.599Y50.519
X25.691Y133.071
X25.855Y49.275
X26.119Y49.809
X26.191Y132.621
X26.389Y50.539
X26.659Y45.604
X26.984Y52.154
X27.103Y45.168
X27.184Y43.154
X27.484Y45.604
X27.784Y43.154
X28.131Y61.739
X28.131Y60.469
X28.384Y43.154
X28.484Y52.404
X28.809Y22.574
X28.934Y50.429
X29.084Y52.404
X29.483Y50.429
X30.033Y50.417
X30.184Y43.154
X30.319Y48.579
X30.659Y49.509
X30.669Y50.06
X30.784Y43.154
X31.039Y9.614
X31.111Y76.636
X31.341Y79.917
X31.351Y118.001
X31.351Y98.976
X31.384Y43.154
X31.709Y7.129
X32.814Y48.854
X32.814Y45.254
X32.869Y64.364
X32.961Y131.366
X34.323Y23.014
X34.629Y47.684
X35.289Y47.685
X35.798Y47.385
X36.543Y117.986
X36.551Y79.886
X36.561Y98.945
X37.439Y42.055
X37.449Y61.114
X37.457Y23.014
X38.202Y93.615
X38.711Y93.315
X39.371Y93.316
X39.677Y117.986
X41.039Y9.634
X41.131Y76.636
X41.186Y95.746
X41.186Y92.146
X42.291Y133.871
X42.616Y97.846
X42.649Y42.024
X42.649Y22.999
X42.659Y61.083
X42.889Y64.364
X42.961Y131.386
X43.216Y97.846
X43.331Y90.94
X43.341Y91.491
X43.681Y92.421
X43.816Y97.846
X43.967Y90.583
X44.517Y90.571
X44.916Y88.596
X45.066Y90.571
X45.191Y118.426
X45.516Y88.596
X45.616Y97.846
X45.869Y80.531
X45.869Y79.261
X46.216Y97.846
X46.516Y95.396
X46.816Y97.846
X46.897Y95.832
X47.016Y88.846
X47.341Y95.396
X47.611Y90.461
X47.809Y8.379
X47.881Y91.191
X48.145Y91.725
X48.309Y7.929
X48.401Y90.481
X48.411Y92.211
X48.583Y95.175
X48.591Y94.601
X48.596Y95.746
X48.809Y8.389
X49.041Y90.116
X49.309Y7.909
X49.471Y100.141
X49.763Y80.531
X49.763Y79.261
X49.771Y81.811
X49.781Y124.571
X49.809Y8.369
X50.241Y95.151
X50.299Y7.879
X50.364Y126.918
X50.696Y95.746
X50.701Y92.146
X50.809Y8.369
X51.001Y99.321
X51.001Y98.531
X51.011Y97.741
X51.121Y76.636
X51.281Y95.171
X51.309Y7.879
X52.291Y99.331
X52.301Y100.141
X52.309Y98.539
X52.889Y64.384
X53.801Y99.501
X53.811Y97.761
X56.039Y9.614
X56.491Y79.917
X56.499Y61.114
X56.499Y22.989
X56.509Y42.064
X61.029Y9.624
X61.131Y76.616
X61.699Y42.033
X61.699Y22.983
X61.711Y98.936
X62.041Y132.871
X62.879Y64.307
X62.961Y131.356
X63.721Y123.991
X63.721Y122.161
X64.454Y61.219
X64.454Y46.389
X64.454Y27.389
X64.454Y11.219
X64.464Y38.329
X64.464Y19.469
X64.496Y111.861
X64.496Y101.961
X64.496Y78.021
X64.506Y128.041
X64.526Y92.871
X64.546Y116.541
X64.938Y90.061
X64.938Y109.111
X72.062Y31.889
X72.062Y50.939
X72.454Y24.459
X72.474Y48.129
X72.494Y12.959
X72.504Y62.979
X72.504Y39.039
X72.504Y29.139
X72.536Y121.531
X72.536Y102.671
X72.546Y129.781
X72.546Y113.611
X72.546Y94.611
X72.546Y79.781
X73.279Y18.839
X73.279Y17.009
X74.039Y9.644
X74.121Y76.693
X74.959Y8.129
X75.289Y42.064
X75.301Y118.017
X75.301Y98.967
X75.869Y64.384
X75.971Y131.376
X80.491Y98.936
X80.501Y118.011
X80.501Y79.886
X80.509Y61.083
X80.961Y131.386
X83.189Y43.239
X83.199Y41.499
X84.111Y76.616
X84.691Y42.461
X84.699Y40.859
X84.709Y41.669
X85.691Y133.121
X85.719Y45.829
X85.879Y64.364
X85.989Y43.259
X85.999Y42.469
X85.999Y41.679
X86.191Y132.631
X86.299Y48.854
X86.304Y45.254
X86.636Y14.082
X86.701Y133.121
X86.759Y45.849
X87.191Y132.631
X87.219Y16.429
X87.229Y59.189
X87.237Y61.739
X87.237Y60.469
X87.529Y40.859
X87.691Y133.091
X87.959Y50.884
X88.191Y132.611
X88.404Y45.254
X88.409Y46.399
X88.417Y45.825
X88.589Y48.789
X88.599Y50.519
X88.691Y133.071
X88.855Y49.275
X89.119Y49.809
X89.191Y132.621
X89.389Y50.539
X89.659Y45.604
X89.984Y52.154
X90.103Y45.168
X90.184Y43.154
X90.484Y45.604
X90.784Y43.154
X91.131Y61.739
X91.131Y60.469
X91.384Y43.154
X91.484Y52.404
X91.809Y22.574
X91.934Y50.429
X92.084Y52.404
X92.483Y50.429
X93.033Y50.417
X93.184Y43.154
X93.319Y48.579
X93.659Y49.509
X93.669Y50.06
X93.784Y43.154
X94.039Y9.614
X94.111Y76.636
X94.341Y79.917
X94.351Y118.001
X94.351Y98.976
X94.384Y43.154
X94.709Y7.129
X95.814Y48.854
X95.814Y45.254
X95.869Y64.364
X95.961Y131.366
X97.323Y23.014
X97.629Y47.684
X98.289Y47.685
X98.798Y47.385
X99.543Y117.986
X99.551Y79.886
X99.561Y98.945
X100.439Y42.055
X100.449Y61.114
X100.457Y23.014
X101.202Y93.615
X101.711Y93.315
X102.371Y93.316
X102.677Y117.986
X104.039Y9.634
X104.131Y76.636
X104.186Y95.746
X104.186Y92.146
X105.291Y133.871
X105.616Y97.846
X105.649Y42.024
X105.649Y22.999
X105.659Y61.083
X105.889Y64.364
X105.961Y131.386
X106.216Y97.846
X106.331Y90.94
X106.341Y91.491
X106.681Y92.421
X106.816Y97.846
X106.967Y90.583
X107.517Y90.571
X107.916Y88.596
X108.066Y90.571
X108.191Y118.426
X108.516Y88.596
X108.616Y97.846
X108.869Y80.531
X108.869Y79.261
X109.216Y97.846
X109.516Y95.396
X109.816Y97.846
X109.897Y95.832
X110.016Y88.846
X110.341Y95.396
X110.611Y90.461
X110.809Y8.379
X110.881Y91.191
X111.145Y91.725
X111.309Y7.929
X111.401Y90.481
X111.411Y92.211
X111.583Y95.175
X111.591Y94.601
X111.596Y95.746
X111.809Y8.389
X112.041Y90.116
X112.309Y7.909
X112.471Y100.141
X112.763Y80.531
X112.763Y79.261
X112.771Y81.811
X112.781Y124.571
X112.809Y8.369
X113.241Y95.151
X113.299Y7.879
X113.364Y126.918
X113.696Y95.746
X113.701Y92.146
X113.809Y8.369
X114.001Y99.321
X114.001Y98.531
X114.011Y97.741
X114.121Y76.636
X114.281Y95.171
X114.309Y7.879
X115.291Y99.331
X115.301Y100.141
X115.309Y98.539
X115.889Y64.384
X116.801Y99.501
X116.811Y97.761
X119.039Y9.614
X119.491Y79.917
X119.499Y61.114
X119.499Y22.989
X119.509Y42.064
X124.029Y9.624
X124.131Y76.616
X124.699Y42.033
X124.699Y22.983
X124.711Y98.936
X125.041Y132.871
X125.879Y64.307
X125.961Y131.356
X126.721Y123.991
X126.721Y122.161
X127.454Y61.219
X127.454Y46.389
X127.454Y27.389
X127.454Y11.219
X127.464Y38.329
X127.464Y19.469
X127.496Y111.861
X127.496Y101.961
X127.496Y78.021
X127.506Y128.041
X127.526Y92.871
X127.546Y116.541
X127.938Y90.061
X127.938Y109.111
T2
X6.911Y102.781
X6.993Y123.076
X9.687Y59.284
X10.133Y91.266
X10.213Y81.766
X10.233Y97.586
X10.253Y110.416
X11.237Y25.814
X11.297Y13.074
X11.307Y38.594
X11.783Y121.506
X12.281Y82.021
X12.291Y101.041
X12.296Y120.071
X13.109Y19.754
X13.109Y16.104
X14.437Y44.764
X14.993Y131.046
X16.007Y49.694
X16.057Y14.564
X16.097Y8.354
X16.593Y113.506
X17.489Y59.039
X17.504Y39.884
X17.587Y19.484
X17.637Y29.094
X18.173Y92.786
X18.203Y83.386
X20.847Y57.704
X21.363Y99.236
X22.467Y24.294
X22.843Y88.076
X23.977Y38.614
X25.109Y15.329
X25.567Y30.614
X25.647Y52.894
X27.227Y35.354
X27.713Y99.306
X29.263Y91.246
X29.273Y116.606
X30.407Y32.304
X30.893Y83.276
X31.341Y120.051
X31.351Y101.011
X31.351Y82.011
X31.937Y62.424
X31.987Y17.864
X32.563Y110.316
X32.659Y21.054
X33.547Y54.624
X35.117Y40.184
X36.757Y9.944
X37.243Y131.056
X38.883Y100.816
X40.453Y86.376
X41.341Y119.946
X41.437Y30.684
X42.013Y123.136
X42.063Y78.576
X42.649Y58.989
X42.649Y39.989
X42.659Y20.949
X43.107Y57.724
X43.593Y108.696
X44.727Y24.394
X44.737Y49.754
X46.287Y41.694
X46.773Y105.646
X48.353Y88.106
X48.433Y110.386
X48.891Y125.671
X50.023Y102.386
X51.157Y52.924
X51.533Y116.706
X52.637Y41.764
X53.153Y83.296
X55.797Y57.614
X55.827Y48.214
X56.363Y111.906
X56.413Y121.516
X56.496Y101.116
X56.511Y81.961
X57.407Y27.494
X57.903Y132.646
X57.943Y126.436
X57.993Y91.306
X59.007Y9.954
X59.563Y96.236
X60.891Y124.896
X60.891Y121.246
X61.704Y20.929
X61.709Y39.959
X61.719Y58.979
X62.217Y19.494
X62.693Y102.406
X62.703Y127.926
X62.763Y115.186
X63.747Y30.584
X63.767Y43.414
X63.787Y59.234
X63.867Y49.734
X64.313Y81.716
X67.007Y17.924
X67.089Y38.219
X69.911Y102.781
X69.993Y123.076
X72.687Y59.284
X73.133Y91.266
X73.213Y81.766
X73.233Y97.586
X73.253Y110.416
X74.237Y25.814
X74.297Y13.074
X74.307Y38.594
X74.783Y121.506
X75.281Y82.021
X75.291Y101.041
X75.296Y120.071
X76.109Y19.754
X76.109Y16.104
X77.437Y44.764
X77.993Y131.046
X79.007Y49.694
X79.057Y14.564
X79.097Y8.354
X79.593Y113.506
X80.489Y59.039
X80.504Y39.884
X80.587Y19.484
X80.637Y29.094
X81.173Y92.786
X81.203Y83.386
X83.847Y57.704
X84.363Y99.236
X85.467Y24.294
X85.843Y88.076
X86.977Y38.614
X88.109Y15.329
X88.567Y30.614
X88.647Y52.894
X90.227Y35.354
X90.713Y99.306
X92.263Y91.246
X92.273Y116.606
X93.407Y32.304
X93.893Y83.276
X94.341Y120.051
X94.351Y101.011
X94.351Y82.011
X94.937Y62.424
X94.987Y17.864
X95.563Y110.316
X95.659Y21.054
X96.547Y54.624
X98.117Y40.184
X99.757Y9.944
X100.243Y131.056
X101.883Y100.816
X103.453Y86.376
X104.341Y119.946
X104.437Y30.684
X105.013Y123.136
X105.063Y78.576
X105.649Y58.989
X105.649Y39.989
X105.659Y20.949
X106.107Y57.724
X106.593Y108.696
X107.727Y24.394
X107.737Y49.754
X109.287Y41.694
X109.773Y105.646
X111.353Y88.106
X111.433Y110.386
X111.891Y125.671
X113.023Y102.386
X114.157Y52.924
X114.533Y116.706
X115.637Y41.764
X116.153Y83.296
X118.797Y57.614
X118.827Y48.214
X119.363Y111.906
X119.413Y121.516
X119.496Y101.116
X119.511Y81.961
X120.407Y27.494
X120.903Y132.646
X120.943Y126.436
X120.993Y91.306
X122.007Y9.954
X122.563Y96.236
X123.891Y124.896
X123.891Y121.246
X124.704Y20.929
X124.709Y39.959
X124.719Y58.979
X125.217Y19.494
X125.693Y102.406
X125.703Y127.926
X125.763Y115.186
X126.747Y30.584
X126.767Y43.414
X126.787Y59.234
X126.867Y49.734
X127.313Y81.716
X130.007Y17.924
X130.089Y38.219
T3
X26.804Y49.134
X26.804Y47.859
X26.804Y46.584
X28.079Y49.134
X28.079Y47.859
X28.079Y46.584
X29.354Y49.134
X29.354Y47.859
X29.354Y46.584
X44.646Y94.416
X44.646Y93.141
X44.646Y91.866
X45.921Y94.416
X45.921Y93.141
X45.921Y91.866
X47.196Y94.416
X47.196Y93.141
X47.196Y91.866
X89.804Y49.134
X89.804Y47.859
X89.804Y46.584
X91.079Y49.134
X91.079Y47.859
X91.079Y46.584
X92.354Y49.134
X92.354Y47.859
X92.354Y46.584
X107.646Y94.416
X107.646Y93.141
X107.646Y91.866
X108.921Y94.416
X108.921Y93.141
X108.921Y91.866
X110.196Y94.416
X110.196Y93.141
X110.196Y91.866
T4
X19.334Y13.404
X20.334Y14.529
X20.991Y130.996
X26.259Y14.53
X26.439Y22.509
X27.359Y25.954
X27.409Y13.404
X27.891Y130.996
X28.369Y15.579
X29.859Y22.529
X30.269Y10.269
X30.809Y24.829
X32.959Y44.329
X41.041Y96.671
X43.191Y116.171
X43.731Y130.731
X44.141Y118.471
X45.631Y125.421
X46.109Y10.004
X46.591Y127.596
X46.641Y115.046
X47.561Y118.491
X47.741Y126.47
X53.009Y10.004
X53.666Y126.471
X54.666Y127.596
X82.334Y13.404
X83.334Y14.529
X83.991Y130.996
X89.259Y14.53
X89.439Y22.509
X90.359Y25.954
X90.409Y13.404
X90.891Y130.996
X91.369Y15.579
X92.859Y22.529
X93.269Y10.269
X93.809Y24.829
X95.959Y44.329
X104.041Y96.671
X106.191Y116.171
X106.731Y130.731
X107.141Y118.471
X108.631Y125.421
X109.109Y10.004
X109.591Y127.596
X109.641Y115.046
X110.561Y118.491
X110.741Y126.47
X116.009Y10.004
X116.666Y126.471
X117.666Y127.596
T6
X7.654Y20.419
X7.654Y17.919
X7.654Y15.419
X22.154Y20.419
X22.154Y15.419
X51.846Y125.581
X51.846Y120.581
X66.346Y125.581
X66.346Y123.081
X66.346Y120.581
X70.654Y20.419
X70.654Y17.919
X70.654Y15.419
X85.154Y20.419
X85.154Y15.419
X114.846Y125.581
X114.846Y120.581
X129.346Y125.581
X129.346Y123.081
X129.346Y120.581
T8
X25.168Y57.927
X26.184Y63.007
X27.2Y57.927
X46.8Y83.073
X47.816Y77.993
X48.832Y83.073
X88.168Y57.927
X89.184Y63.007
X90.2Y57.927
X109.8Y83.073
X110.816Y77.993
X111.832Y83.073
T9
X9.816Y123.081
X9.816Y104.031
X9.816Y84.981
X9.824Y56.019
X9.824Y36.969
X19.976Y123.081
X19.976Y104.031
X19.976Y84.981
X19.984Y56.019
X19.984Y36.969
X28.866Y123.081
X28.866Y84.981
X28.871Y104.041
X34.969Y36.959
X34.974Y56.019
X34.974Y17.919
X39.026Y123.081
X39.026Y84.981
X39.031Y104.041
X45.129Y36.959
X45.134Y56.019
X45.134Y17.919
X54.016Y104.031
X54.016Y84.981
X54.024Y56.019
X54.024Y36.969
X54.024Y17.919
X64.176Y104.031
X64.176Y84.981
X64.184Y56.019
X64.184Y36.969
X64.184Y17.919
X72.816Y123.081
X72.816Y104.031
X72.816Y84.981
X72.824Y56.019
X72.824Y36.969
X82.976Y123.081
X82.976Y104.031
X82.976Y84.981
X82.984Y56.019
X82.984Y36.969
X91.866Y123.081
X91.866Y84.981
X91.871Y104.041
X97.969Y36.959
X97.974Y56.019
X97.974Y17.919
X102.026Y123.081
X102.026Y84.981
X102.031Y104.041
X108.129Y36.959
X108.134Y56.019
X108.134Y17.919
X117.016Y104.031
X117.016Y84.981
X117.024Y56.019
X117.024Y36.969
X117.024Y17.919
X127.176Y104.031
X127.176Y84.981
X127.184Y56.019
X127.184Y36.969
X127.184Y17.919
T10
X2.5Y138.5
X2.5Y2.5
X134.5Y138.5
T11
X11.086Y125.621
X11.086Y106.571
X11.086Y87.521
X12.364Y50.939
X12.364Y31.889
X17.436Y128.161
X17.436Y109.111
X17.436Y90.061
X18.714Y53.479
X18.714Y34.429
X30.136Y125.621
X30.136Y87.521
X30.141Y106.581
X36.486Y128.161
X36.486Y90.061
X36.491Y109.121
X37.509Y31.879
X37.514Y50.939
X37.514Y12.839
X43.859Y34.419
X43.864Y53.479
X43.864Y15.379
X55.286Y106.571
X55.286Y87.521
X56.564Y50.939
X56.564Y31.889
X56.564Y12.839
X61.636Y109.111
X61.636Y90.061
X62.914Y53.479
X62.914Y34.429
X62.914Y15.379
X74.086Y125.621
X74.086Y106.571
X74.086Y87.521
X75.364Y50.939
X75.364Y31.889
X80.436Y128.161
X80.436Y109.111
X80.436Y90.061
X81.714Y53.479
X81.714Y34.429
X93.136Y125.621
X93.136Y87.521
X93.141Y106.581
X99.486Y128.161
X99.486Y90.061
X99.491Y109.121
X100.509Y31.879
X100.514Y50.939
X100.514Y12.839
X106.859Y34.419
X106.864Y53.479
X106.864Y15.379
X118.286Y106.571
X118.286Y87.521
X119.564Y50.939
X119.564Y31.889
X119.564Y12.839
X124.636Y109.111
X124.636Y90.061
X125.914Y53.479
X125.914Y34.429
X125.914Y15.379
T12
X14.896Y123.081
X14.896Y104.031
X14.896Y84.981
X14.904Y56.019
X14.904Y36.969
X33.946Y123.081
X33.946Y84.981
X33.951Y104.041
X40.049Y36.959
X40.054Y56.019
X40.054Y17.919
X59.096Y104.031
X59.096Y84.981
X59.104Y56.019
X59.104Y36.969
X59.104Y17.919
X77.896Y123.081
X77.896Y104.031
X77.896Y84.981
X77.904Y56.019
X77.904Y36.969
X96.946Y123.081
X96.946Y84.981
X96.951Y104.041
X103.049Y36.959
X103.054Y56.019
X103.054Y17.919
X122.096Y104.031
X122.096Y84.981
X122.104Y56.019
X122.104Y36.969
X122.104Y17.919
T5
X17.814Y11.749G85X17.814Y12.449
G05
X17.814Y7.549G85X17.814Y8.649
G05
X28.964Y11.749G85X28.964Y12.449
G05
X28.964Y7.549G85X28.964Y8.649
G05
X45.036Y133.451G85X45.036Y132.351
G05
X45.036Y129.251G85X45.036Y128.551
G05
X56.186Y133.451G85X56.186Y132.351
G05
X56.186Y129.251G85X56.186Y128.551
G05
X80.814Y11.749G85X80.814Y12.449
G05
X80.814Y7.549G85X80.814Y8.649
G05
X91.964Y11.749G85X91.964Y12.449
G05
X91.964Y7.549G85X91.964Y8.649
G05
X108.036Y133.451G85X108.036Y132.351
G05
X108.036Y129.251G85X108.036Y128.551
G05
X119.186Y133.451G85X119.186Y132.351
G05
X119.186Y129.251G85X119.186Y128.551
G05
T7
X14.504Y23.519G85X15.804Y23.519
G05
X14.504Y12.319G85X15.804Y12.319
G05
X59.496Y128.681G85X58.196Y128.681
G05
X59.496Y117.481G85X58.196Y117.481
G05
X77.504Y23.519G85X78.804Y23.519
G05
X77.504Y12.319G85X78.804Y12.319
G05
X122.496Y128.681G85X121.196Y128.681
G05
X122.496Y117.481G85X121.196Y117.481
G05
T0
M30
