G04 #@! TF.GenerationSoftware,KiCad,Pcbnew,7.0.0-da2b9df05c~165~ubuntu22.04.1*
G04 #@! TF.CreationDate,2023-04-26T22:06:21+00:00*
G04 #@! TF.ProjectId,pcb-panel,7063622d-7061-46e6-956c-2e6b69636164,5.0*
G04 #@! TF.SameCoordinates,Original*
G04 #@! TF.FileFunction,Soldermask,Bot*
G04 #@! TF.FilePolarity,Negative*
%FSLAX46Y46*%
G04 Gerber Fmt 4.6, Leading zero omitted, Abs format (unit mm)*
G04 Created by KiCad (PCBNEW 7.0.0-da2b9df05c~165~ubuntu22.04.1) date 2023-04-26 22:06:21*
%MOMM*%
%LPD*%
G01*
G04 APERTURE LIST*
G04 Aperture macros list*
%AMRoundRect*
0 Rectangle with rounded corners*
0 $1 Rounding radius*
0 $2 $3 $4 $5 $6 $7 $8 $9 X,Y pos of 4 corners*
0 Add a 4 corners polygon primitive as box body*
4,1,4,$2,$3,$4,$5,$6,$7,$8,$9,$2,$3,0*
0 Add four circle primitives for the rounded corners*
1,1,$1+$1,$2,$3*
1,1,$1+$1,$4,$5*
1,1,$1+$1,$6,$7*
1,1,$1+$1,$8,$9*
0 Add four rect primitives between the rounded corners*
20,1,$1+$1,$2,$3,$4,$5,0*
20,1,$1+$1,$4,$5,$6,$7,0*
20,1,$1+$1,$6,$7,$8,$9,0*
20,1,$1+$1,$8,$9,$2,$3,0*%
%AMFreePoly0*
4,1,35,0.035355,0.835355,0.445355,0.425355,0.460000,0.390000,0.460000,-0.718000,0.459039,-0.727755,0.452797,-0.759135,0.445332,-0.777158,0.427557,-0.803761,0.413761,-0.817557,0.387158,-0.835332,0.369135,-0.842797,0.337755,-0.849039,0.328000,-0.850000,-0.328000,-0.850000,-0.337755,-0.849039,-0.369135,-0.842797,-0.387158,-0.835332,-0.413761,-0.817557,-0.427557,-0.803761,-0.445332,-0.777158,
-0.452797,-0.759135,-0.459039,-0.727755,-0.460000,-0.718000,-0.460000,0.718000,-0.459039,0.727755,-0.452797,0.759135,-0.445332,0.777158,-0.427557,0.803761,-0.413761,0.817557,-0.387158,0.835332,-0.369135,0.842797,-0.337755,0.849039,-0.328000,0.850000,0.000000,0.850000,0.035355,0.835355,0.035355,0.835355,$1*%
%AMFreePoly1*
4,1,35,0.284755,0.299039,0.332590,0.289524,0.350614,0.282058,0.391167,0.254961,0.404961,0.241167,0.432058,0.200614,0.439524,0.182590,0.449039,0.134755,0.450000,0.125000,0.450000,-0.125000,0.449039,-0.134755,0.439524,-0.182590,0.432058,-0.200614,0.404961,-0.241167,0.391167,-0.254961,0.350614,-0.282058,0.332590,-0.289524,0.284755,-0.299039,0.275000,-0.300000,-0.150000,-0.300000,
-0.185355,-0.285355,-0.435355,-0.035355,-0.450000,0.000000,-0.450000,0.125000,-0.449039,0.134755,-0.439524,0.182590,-0.432058,0.200614,-0.404961,0.241167,-0.391167,0.254961,-0.350614,0.282058,-0.332590,0.289524,-0.284755,0.299039,-0.275000,0.300000,0.275000,0.300000,0.284755,0.299039,0.284755,0.299039,$1*%
%AMFreePoly2*
4,1,35,0.397255,0.149039,0.416389,0.145233,0.434413,0.137767,0.450634,0.126928,0.464428,0.113134,0.475267,0.096913,0.482733,0.078889,0.486539,0.059755,0.487500,0.050000,0.487500,-0.050000,0.486539,-0.059755,0.482733,-0.078889,0.475267,-0.096913,0.464428,-0.113134,0.450634,-0.126928,0.434413,-0.137767,0.416389,-0.145233,0.397255,-0.149039,0.387500,-0.150000,-0.337500,-0.150000,
-0.372855,-0.135355,-0.472855,-0.035355,-0.487500,0.000000,-0.487500,0.050000,-0.486539,0.059755,-0.482733,0.078889,-0.475267,0.096913,-0.464428,0.113134,-0.450634,0.126928,-0.434413,0.137767,-0.416389,0.145233,-0.397255,0.149039,-0.387500,0.150000,0.387500,0.150000,0.397255,0.149039,0.397255,0.149039,$1*%
%AMFreePoly3*
4,1,35,0.184754,0.399039,0.251724,0.385718,0.269748,0.378253,0.326522,0.340318,0.340318,0.326522,0.378253,0.269748,0.385718,0.251724,0.399039,0.184754,0.400000,0.175000,0.400000,-0.175000,0.399039,-0.184754,0.385718,-0.251724,0.378253,-0.269748,0.340318,-0.326522,0.326522,-0.340318,0.269748,-0.378253,0.251724,-0.385718,0.184754,-0.399039,0.175000,-0.400000,-0.070000,-0.400000,
-0.105355,-0.385355,-0.385355,-0.105355,-0.400000,-0.070000,-0.400000,0.175000,-0.399039,0.184754,-0.385718,0.251724,-0.378253,0.269748,-0.340318,0.326522,-0.326522,0.340318,-0.269748,0.378253,-0.251724,0.385718,-0.184754,0.399039,-0.175000,0.400000,0.175000,0.400000,0.184754,0.399039,0.184754,0.399039,$1*%
%AMFreePoly4*
4,1,35,0.574153,0.339040,0.589690,0.335950,0.607715,0.328484,0.620887,0.319683,0.634683,0.305887,0.643484,0.292715,0.650950,0.274690,0.654040,0.259153,0.655000,0.249400,0.655000,-0.249400,0.654040,-0.259153,0.650950,-0.274690,0.643484,-0.292715,0.634683,-0.305887,0.620887,-0.319683,0.607715,-0.328484,0.589690,-0.335950,0.574153,-0.339040,0.564400,-0.340000,-0.315000,-0.340000,
-0.350355,-0.325355,-0.640355,-0.035355,-0.655000,0.000000,-0.655000,0.249400,-0.654040,0.259153,-0.650950,0.274690,-0.643484,0.292715,-0.634683,0.305887,-0.620887,0.319683,-0.607715,0.328484,-0.589690,0.335950,-0.574153,0.339040,-0.564400,0.340000,0.564400,0.340000,0.574153,0.339040,0.574153,0.339040,$1*%
%AMFreePoly5*
4,1,35,0.109755,0.449039,0.148023,0.441427,0.166046,0.433962,0.198489,0.412285,0.212285,0.398489,0.233962,0.366046,0.241427,0.348023,0.249039,0.309755,0.250000,0.300000,0.250000,-0.300000,0.249039,-0.309755,0.241427,-0.348023,0.233962,-0.366046,0.212285,-0.398489,0.198489,-0.412285,0.166046,-0.433962,0.148023,-0.441427,0.109755,-0.449039,0.100000,-0.450000,-0.100000,-0.450000,
-0.109755,-0.449039,-0.148023,-0.441427,-0.166046,-0.433962,-0.198489,-0.412285,-0.212285,-0.398489,-0.233962,-0.366046,-0.241427,-0.348023,-0.249039,-0.309755,-0.250000,-0.300000,-0.250000,0.200000,-0.235355,0.235355,-0.035355,0.435355,0.000000,0.450000,0.100000,0.450000,0.109755,0.449039,0.109755,0.449039,$1*%
%AMFreePoly6*
4,1,35,0.274754,0.219039,0.307282,0.212569,0.325307,0.205103,0.352883,0.186677,0.366677,0.172883,0.385103,0.145307,0.392569,0.127282,0.399039,0.094754,0.400000,0.085000,0.400000,-0.085000,0.399039,-0.094754,0.392569,-0.127282,0.385103,-0.145307,0.366677,-0.172883,0.352883,-0.186677,0.325307,-0.205103,0.307282,-0.212569,0.274754,-0.219039,0.265000,-0.220000,-0.180000,-0.220000,
-0.215355,-0.205355,-0.385355,-0.035355,-0.400000,0.000000,-0.400000,0.085000,-0.399039,0.094754,-0.392569,0.127282,-0.385103,0.145307,-0.366677,0.172883,-0.352883,0.186677,-0.325307,0.205103,-0.307282,0.212569,-0.274754,0.219039,-0.265000,0.220000,0.265000,0.220000,0.274754,0.219039,0.274754,0.219039,$1*%
%AMFreePoly7*
4,1,35,0.166004,0.236539,0.201881,0.229403,0.219906,0.221937,0.250320,0.201614,0.264114,0.187820,0.284437,0.157406,0.291903,0.139381,0.299039,0.103504,0.300000,0.093750,0.300000,-0.093750,0.299039,-0.103504,0.291903,-0.139381,0.284437,-0.157406,0.264114,-0.187820,0.250320,-0.201614,0.219906,-0.221937,0.201881,-0.229403,0.166004,-0.236539,0.156250,-0.237500,-0.062500,-0.237500,
-0.097855,-0.222855,-0.285355,-0.035355,-0.300000,0.000000,-0.300000,0.093750,-0.299039,0.103504,-0.291903,0.139381,-0.284437,0.157406,-0.264114,0.187820,-0.250320,0.201614,-0.219906,0.221937,-0.201881,0.229403,-0.166004,0.236539,-0.156250,0.237500,0.156250,0.237500,0.166004,0.236539,0.166004,0.236539,$1*%
%AMFreePoly8*
4,1,35,0.522254,0.349039,0.579657,0.337621,0.597682,0.330155,0.646345,0.297639,0.660139,0.283845,0.692655,0.235182,0.700121,0.217157,0.711539,0.159754,0.712500,0.150000,0.712500,-0.150000,0.711539,-0.159754,0.700121,-0.217157,0.692655,-0.235182,0.660139,-0.283845,0.646345,-0.297639,0.597682,-0.330155,0.579657,-0.337621,0.522254,-0.349039,0.512500,-0.350000,-0.362500,-0.350000,
-0.397855,-0.335355,-0.697855,-0.035355,-0.712500,0.000000,-0.712500,0.150000,-0.711539,0.159754,-0.700121,0.217157,-0.692655,0.235182,-0.660139,0.283845,-0.646345,0.297639,-0.597682,0.330155,-0.579657,0.337621,-0.522254,0.349039,-0.512500,0.350000,0.512500,0.350000,0.522254,0.349039,0.522254,0.349039,$1*%
%AMFreePoly9*
4,1,35,0.334754,0.549039,0.430425,0.530009,0.448449,0.522544,0.529555,0.468351,0.543351,0.454555,0.597544,0.373449,0.605009,0.355425,0.624039,0.259754,0.625000,0.250000,0.625000,-0.250000,0.624039,-0.259754,0.605009,-0.355425,0.597544,-0.373449,0.543351,-0.454555,0.529555,-0.468351,0.448449,-0.522544,0.430425,-0.530009,0.334754,-0.549039,0.325000,-0.550000,-0.325000,-0.550000,
-0.334754,-0.549039,-0.430425,-0.530009,-0.448449,-0.522544,-0.529555,-0.468351,-0.543351,-0.454555,-0.597544,-0.373449,-0.605009,-0.355425,-0.624039,-0.259754,-0.625000,-0.250000,-0.625000,0.200000,-0.610355,0.235355,-0.310355,0.535355,-0.275000,0.550000,0.325000,0.550000,0.334754,0.549039,0.334754,0.549039,$1*%
G04 Aperture macros list end*
%ADD10C,3.750000*%
%ADD11C,1.850000*%
%ADD12C,3.100000*%
%ADD13C,4.100000*%
%ADD14RoundRect,0.675000X-0.650000X-0.625000X0.650000X-0.625000X0.650000X0.625000X-0.650000X0.625000X0*%
%ADD15RoundRect,0.675000X0.650000X0.625000X-0.650000X0.625000X-0.650000X-0.625000X0.650000X-0.625000X0*%
%ADD16RoundRect,0.132000X-0.718000X0.328000X-0.718000X-0.328000X0.718000X-0.328000X0.718000X0.328000X0*%
%ADD17FreePoly0,270.000000*%
%ADD18RoundRect,0.132000X0.718000X-0.328000X0.718000X0.328000X-0.718000X0.328000X-0.718000X-0.328000X0*%
%ADD19FreePoly0,90.000000*%
%ADD20C,2.000000*%
%ADD21RoundRect,0.050000X1.000000X1.000000X-1.000000X1.000000X-1.000000X-1.000000X1.000000X-1.000000X0*%
%ADD22C,2.100000*%
%ADD23RoundRect,0.050000X1.600000X1.000000X-1.600000X1.000000X-1.600000X-1.000000X1.600000X-1.000000X0*%
%ADD24RoundRect,0.050000X-1.000000X-1.000000X1.000000X-1.000000X1.000000X1.000000X-1.000000X1.000000X0*%
%ADD25RoundRect,0.050000X-1.600000X-1.000000X1.600000X-1.000000X1.600000X1.000000X-1.600000X1.000000X0*%
%ADD26RoundRect,0.150000X-0.130000X-0.100000X0.130000X-0.100000X0.130000X0.100000X-0.130000X0.100000X0*%
%ADD27RoundRect,0.150000X0.130000X0.100000X-0.130000X0.100000X-0.130000X-0.100000X0.130000X-0.100000X0*%
%ADD28FreePoly1,180.000000*%
%ADD29RoundRect,0.150000X0.300000X0.100000X-0.300000X0.100000X-0.300000X-0.100000X0.300000X-0.100000X0*%
%ADD30RoundRect,0.175000X0.275000X0.125000X-0.275000X0.125000X-0.275000X-0.125000X0.275000X-0.125000X0*%
%ADD31FreePoly1,0.000000*%
%ADD32RoundRect,0.150000X-0.300000X-0.100000X0.300000X-0.100000X0.300000X0.100000X-0.300000X0.100000X0*%
%ADD33RoundRect,0.175000X-0.275000X-0.125000X0.275000X-0.125000X0.275000X0.125000X-0.275000X0.125000X0*%
%ADD34FreePoly2,180.000000*%
%ADD35RoundRect,0.100000X0.387500X0.050000X-0.387500X0.050000X-0.387500X-0.050000X0.387500X-0.050000X0*%
%ADD36RoundRect,0.100000X0.050000X0.387500X-0.050000X0.387500X-0.050000X-0.387500X0.050000X-0.387500X0*%
%ADD37RoundRect,0.194000X1.456000X1.456000X-1.456000X1.456000X-1.456000X-1.456000X1.456000X-1.456000X0*%
%ADD38FreePoly2,0.000000*%
%ADD39RoundRect,0.100000X-0.387500X-0.050000X0.387500X-0.050000X0.387500X0.050000X-0.387500X0.050000X0*%
%ADD40RoundRect,0.100000X-0.050000X-0.387500X0.050000X-0.387500X0.050000X0.387500X-0.050000X0.387500X0*%
%ADD41RoundRect,0.194000X-1.456000X-1.456000X1.456000X-1.456000X1.456000X1.456000X-1.456000X1.456000X0*%
%ADD42FreePoly3,0.000000*%
%ADD43RoundRect,0.225000X-0.175000X-0.175000X0.175000X-0.175000X0.175000X0.175000X-0.175000X0.175000X0*%
%ADD44FreePoly3,180.000000*%
%ADD45RoundRect,0.225000X0.175000X0.175000X-0.175000X0.175000X-0.175000X-0.175000X0.175000X-0.175000X0*%
%ADD46RoundRect,0.185000X-0.185000X0.135000X-0.185000X-0.135000X0.185000X-0.135000X0.185000X0.135000X0*%
%ADD47RoundRect,0.185000X0.185000X-0.135000X0.185000X0.135000X-0.185000X0.135000X-0.185000X-0.135000X0*%
%ADD48FreePoly4,270.000000*%
%ADD49RoundRect,0.090600X-0.249400X0.564400X-0.249400X-0.564400X0.249400X-0.564400X0.249400X0.564400X0*%
%ADD50FreePoly4,90.000000*%
%ADD51RoundRect,0.090600X0.249400X-0.564400X0.249400X0.564400X-0.249400X0.564400X-0.249400X-0.564400X0*%
%ADD52FreePoly3,90.000000*%
%ADD53RoundRect,0.225000X0.175000X-0.175000X0.175000X0.175000X-0.175000X0.175000X-0.175000X-0.175000X0*%
%ADD54FreePoly3,270.000000*%
%ADD55RoundRect,0.225000X-0.175000X0.175000X-0.175000X-0.175000X0.175000X-0.175000X0.175000X0.175000X0*%
%ADD56RoundRect,0.268750X-0.218750X-0.256250X0.218750X-0.256250X0.218750X0.256250X-0.218750X0.256250X0*%
%ADD57RoundRect,0.268750X0.218750X0.256250X-0.218750X0.256250X-0.218750X-0.256250X0.218750X-0.256250X0*%
%ADD58RoundRect,0.150000X0.100000X-0.130000X0.100000X0.130000X-0.100000X0.130000X-0.100000X-0.130000X0*%
%ADD59RoundRect,0.150000X-0.100000X0.130000X-0.100000X-0.130000X0.100000X-0.130000X0.100000X0.130000X0*%
%ADD60RoundRect,0.190000X-0.140000X-0.170000X0.140000X-0.170000X0.140000X0.170000X-0.140000X0.170000X0*%
%ADD61RoundRect,0.190000X0.140000X0.170000X-0.140000X0.170000X-0.140000X-0.170000X0.140000X-0.170000X0*%
%ADD62FreePoly5,270.000000*%
%ADD63RoundRect,0.150000X-0.300000X0.100000X-0.300000X-0.100000X0.300000X-0.100000X0.300000X0.100000X0*%
%ADD64RoundRect,0.137500X0.087500X0.312500X-0.087500X0.312500X-0.087500X-0.312500X0.087500X-0.312500X0*%
%ADD65FreePoly5,90.000000*%
%ADD66RoundRect,0.150000X0.300000X-0.100000X0.300000X0.100000X-0.300000X0.100000X-0.300000X-0.100000X0*%
%ADD67RoundRect,0.137500X-0.087500X-0.312500X0.087500X-0.312500X0.087500X0.312500X-0.087500X0.312500X0*%
%ADD68FreePoly6,90.000000*%
%ADD69RoundRect,0.135000X0.085000X-0.265000X0.085000X0.265000X-0.085000X0.265000X-0.085000X-0.265000X0*%
%ADD70FreePoly6,270.000000*%
%ADD71RoundRect,0.135000X-0.085000X0.265000X-0.085000X-0.265000X0.085000X-0.265000X0.085000X0.265000X0*%
%ADD72FreePoly7,90.000000*%
%ADD73RoundRect,0.125000X0.075000X-0.250000X0.075000X0.250000X-0.075000X0.250000X-0.075000X-0.250000X0*%
%ADD74RoundRect,0.143750X0.093750X-0.156250X0.093750X0.156250X-0.093750X0.156250X-0.093750X-0.156250X0*%
%ADD75FreePoly7,270.000000*%
%ADD76RoundRect,0.125000X-0.075000X0.250000X-0.075000X-0.250000X0.075000X-0.250000X0.075000X0.250000X0*%
%ADD77RoundRect,0.143750X-0.093750X0.156250X-0.093750X-0.156250X0.093750X-0.156250X0.093750X0.156250X0*%
%ADD78RoundRect,0.050000X-0.300000X-0.575000X0.300000X-0.575000X0.300000X0.575000X-0.300000X0.575000X0*%
%ADD79RoundRect,0.050000X-0.150000X-0.575000X0.150000X-0.575000X0.150000X0.575000X-0.150000X0.575000X0*%
%ADD80O,1.100000X1.800000*%
%ADD81O,1.100000X2.200000*%
%ADD82RoundRect,0.050000X0.300000X0.575000X-0.300000X0.575000X-0.300000X-0.575000X0.300000X-0.575000X0*%
%ADD83RoundRect,0.050000X0.150000X0.575000X-0.150000X0.575000X-0.150000X-0.575000X0.150000X-0.575000X0*%
%ADD84FreePoly8,270.000000*%
%ADD85RoundRect,0.200000X-0.150000X0.512500X-0.150000X-0.512500X0.150000X-0.512500X0.150000X0.512500X0*%
%ADD86FreePoly8,90.000000*%
%ADD87RoundRect,0.200000X0.150000X-0.512500X0.150000X0.512500X-0.150000X0.512500X-0.150000X-0.512500X0*%
%ADD88FreePoly9,0.000000*%
%ADD89RoundRect,0.300000X-0.325000X-0.250000X0.325000X-0.250000X0.325000X0.250000X-0.325000X0.250000X0*%
%ADD90FreePoly9,180.000000*%
%ADD91RoundRect,0.300000X0.325000X0.250000X-0.325000X0.250000X-0.325000X-0.250000X0.325000X-0.250000X0*%
%ADD92RoundRect,0.125000X-0.075000X-0.575000X0.075000X-0.575000X0.075000X0.575000X-0.075000X0.575000X0*%
%ADD93RoundRect,0.625000X-0.575000X-1.075000X0.575000X-1.075000X0.575000X1.075000X-0.575000X1.075000X0*%
%ADD94RoundRect,0.125000X0.075000X0.575000X-0.075000X0.575000X-0.075000X-0.575000X0.075000X-0.575000X0*%
%ADD95RoundRect,0.625000X0.575000X1.075000X-0.575000X1.075000X-0.575000X-1.075000X0.575000X-1.075000X0*%
%ADD96C,1.167000*%
%ADD97C,0.887000*%
G04 APERTURE END LIST*
G04 #@! TO.C,G\u002A\u002A\u002A*
D10*
X113502227Y61084229D02*
G75*
G03*
X113502227Y61084229I-1875000J0D01*
G01*
X26247777Y74915776D02*
G75*
G03*
X26247777Y74915776I-1875000J0D01*
G01*
X88247777Y74915776D02*
G75*
G03*
X88247777Y74915776I-1875000J0D01*
G01*
X51502227Y61084229D02*
G75*
G03*
X51502227Y61084229I-1875000J0D01*
G01*
G04 #@! TD*
D11*
G04 #@! TO.C,MX8*
X28866252Y79981255D03*
D12*
X30136252Y82521255D03*
D13*
X33946252Y79981255D03*
D12*
X36486252Y85061255D03*
D11*
X39026252Y79981255D03*
D14*
X26861252Y82521255D03*
X39788252Y85061255D03*
G04 #@! TD*
D11*
G04 #@! TO.C,MX8*
X107133752Y56018750D03*
D12*
X105863752Y53478750D03*
D13*
X102053752Y56018750D03*
D12*
X99513752Y50938750D03*
D11*
X96973752Y56018750D03*
D15*
X109138752Y53478750D03*
X96211752Y50938750D03*
G04 #@! TD*
D11*
G04 #@! TO.C,MX8*
X45133752Y56018750D03*
D12*
X43863752Y53478750D03*
D13*
X40053752Y56018750D03*
D12*
X37513752Y50938750D03*
D11*
X34973752Y56018750D03*
D15*
X47138752Y53478750D03*
X34211752Y50938750D03*
G04 #@! TD*
D11*
G04 #@! TO.C,MX8*
X90866252Y79981255D03*
D12*
X92136252Y82521255D03*
D13*
X95946252Y79981255D03*
D12*
X98486252Y85061255D03*
D11*
X101026252Y79981255D03*
D14*
X88861252Y82521255D03*
X101788252Y85061255D03*
G04 #@! TD*
D11*
G04 #@! TO.C,MX6*
X116016252Y99031255D03*
D12*
X117286252Y101571255D03*
D13*
X121096252Y99031255D03*
D12*
X123636252Y104111255D03*
D11*
X126176252Y99031255D03*
D14*
X114011252Y101571255D03*
X126938252Y104111255D03*
G04 #@! TD*
D11*
G04 #@! TO.C,MX6*
X54016252Y99031255D03*
D12*
X55286252Y101571255D03*
D13*
X59096252Y99031255D03*
D12*
X61636252Y104111255D03*
D11*
X64176252Y99031255D03*
D14*
X52011252Y101571255D03*
X64938252Y104111255D03*
G04 #@! TD*
D11*
G04 #@! TO.C,MX6*
X19983752Y36968750D03*
D12*
X18713752Y34428750D03*
D13*
X14903752Y36968750D03*
D12*
X12363752Y31888750D03*
D11*
X9823752Y36968750D03*
D15*
X21988752Y34428750D03*
X9061752Y31888750D03*
G04 #@! TD*
D11*
G04 #@! TO.C,MX6*
X81983752Y36968750D03*
D12*
X80713752Y34428750D03*
D13*
X76903752Y36968750D03*
D12*
X74363752Y31888750D03*
D11*
X71823752Y36968750D03*
D15*
X83988752Y34428750D03*
X71061752Y31888750D03*
G04 #@! TD*
D16*
G04 #@! TO.C,D4*
X31350773Y94710777D03*
X31350773Y93210777D03*
D17*
X36550773Y93210777D03*
D16*
X36550773Y94710777D03*
G04 #@! TD*
G04 #@! TO.C,D4*
X93350773Y94710777D03*
X93350773Y93210777D03*
D17*
X98550773Y93210777D03*
D16*
X98550773Y94710777D03*
G04 #@! TD*
D18*
G04 #@! TO.C,D4*
X104649231Y41289228D03*
X104649231Y42789228D03*
D19*
X99449231Y42789228D03*
D18*
X99449231Y41289228D03*
G04 #@! TD*
G04 #@! TO.C,D4*
X42649231Y41289228D03*
X42649231Y42789228D03*
D19*
X37449231Y42789228D03*
D18*
X37449231Y41289228D03*
G04 #@! TD*
D16*
G04 #@! TO.C,D5*
X118496252Y94701256D03*
X118496252Y93201256D03*
D17*
X123696252Y93201256D03*
D16*
X123696252Y94701256D03*
G04 #@! TD*
D18*
G04 #@! TO.C,D5*
X17503752Y41298749D03*
X17503752Y42798749D03*
D19*
X12303752Y42798749D03*
D18*
X12303752Y41298749D03*
G04 #@! TD*
G04 #@! TO.C,D5*
X79503752Y41298749D03*
X79503752Y42798749D03*
D19*
X74303752Y42798749D03*
D18*
X74303752Y41298749D03*
G04 #@! TD*
D16*
G04 #@! TO.C,D5*
X56496252Y94701256D03*
X56496252Y93201256D03*
D17*
X61696252Y93201256D03*
D16*
X61696252Y94701256D03*
G04 #@! TD*
D20*
G04 #@! TO.C,REF\u002A\u002A*
X2500000Y2500000D03*
G04 #@! TD*
D18*
G04 #@! TO.C,D3*
X61703752Y41298749D03*
X61703752Y42798749D03*
D19*
X56503752Y42798749D03*
D18*
X56503752Y41298749D03*
G04 #@! TD*
G04 #@! TO.C,D3*
X123703752Y41298749D03*
X123703752Y42798749D03*
D19*
X118503752Y42798749D03*
D18*
X118503752Y41298749D03*
G04 #@! TD*
D16*
G04 #@! TO.C,D3*
X74296252Y94701256D03*
X74296252Y93201256D03*
D17*
X79496252Y93201256D03*
D16*
X79496252Y94701256D03*
G04 #@! TD*
G04 #@! TO.C,D3*
X12296252Y94701256D03*
X12296252Y93201256D03*
D17*
X17496252Y93201256D03*
D16*
X17496252Y94701256D03*
G04 #@! TD*
D11*
G04 #@! TO.C,MX9*
X19983752Y56018750D03*
D12*
X18713752Y53478750D03*
D13*
X14903752Y56018750D03*
D12*
X12363752Y50938750D03*
D11*
X9823752Y56018750D03*
D15*
X21988752Y53478750D03*
X9061752Y50938750D03*
G04 #@! TD*
D11*
G04 #@! TO.C,MX9*
X116016252Y79981255D03*
D12*
X117286252Y82521255D03*
D13*
X121096252Y79981255D03*
D12*
X123636252Y85061255D03*
D11*
X126176252Y79981255D03*
D14*
X114011252Y82521255D03*
X126938252Y85061255D03*
G04 #@! TD*
D11*
G04 #@! TO.C,MX9*
X81983752Y56018750D03*
D12*
X80713752Y53478750D03*
D13*
X76903752Y56018750D03*
D12*
X74363752Y50938750D03*
D11*
X71823752Y56018750D03*
D15*
X83988752Y53478750D03*
X71061752Y50938750D03*
G04 #@! TD*
D11*
G04 #@! TO.C,MX9*
X54016252Y79981255D03*
D12*
X55286252Y82521255D03*
D13*
X59096252Y79981255D03*
D12*
X61636252Y85061255D03*
D11*
X64176252Y79981255D03*
D14*
X52011252Y82521255D03*
X64938252Y85061255D03*
G04 #@! TD*
D11*
G04 #@! TO.C,MX1*
X71816252Y118081255D03*
D12*
X73086252Y120621255D03*
D13*
X76896252Y118081255D03*
D12*
X79436252Y123161255D03*
D11*
X81976252Y118081255D03*
D14*
X69811252Y120621255D03*
X82738252Y123161255D03*
G04 #@! TD*
D11*
G04 #@! TO.C,MX1*
X64183752Y17918750D03*
D12*
X62913752Y15378750D03*
D13*
X59103752Y17918750D03*
D12*
X56563752Y12838750D03*
D11*
X54023752Y17918750D03*
D15*
X66188752Y15378750D03*
X53261752Y12838750D03*
G04 #@! TD*
D11*
G04 #@! TO.C,MX1*
X126183752Y17918750D03*
D12*
X124913752Y15378750D03*
D13*
X121103752Y17918750D03*
D12*
X118563752Y12838750D03*
D11*
X116023752Y17918750D03*
D15*
X128188752Y15378750D03*
X115261752Y12838750D03*
G04 #@! TD*
D11*
G04 #@! TO.C,MX1*
X9816252Y118081255D03*
D12*
X11086252Y120621255D03*
D13*
X14896252Y118081255D03*
D12*
X17436252Y123161255D03*
D11*
X19976252Y118081255D03*
D14*
X7811252Y120621255D03*
X20738252Y123161255D03*
G04 #@! TD*
D11*
G04 #@! TO.C,MX2*
X28866252Y118081255D03*
D12*
X30136252Y120621255D03*
D13*
X33946252Y118081255D03*
D12*
X36486252Y123161255D03*
D11*
X39026252Y118081255D03*
D14*
X26861252Y120621255D03*
X39788252Y123161255D03*
G04 #@! TD*
D11*
G04 #@! TO.C,MX2*
X45133752Y17918750D03*
D12*
X43863752Y15378750D03*
D13*
X40053752Y17918750D03*
D12*
X37513752Y12838750D03*
D11*
X34973752Y17918750D03*
D15*
X47138752Y15378750D03*
X34211752Y12838750D03*
G04 #@! TD*
D11*
G04 #@! TO.C,MX2*
X107133752Y17918750D03*
D12*
X105863752Y15378750D03*
D13*
X102053752Y17918750D03*
D12*
X99513752Y12838750D03*
D11*
X96973752Y17918750D03*
D15*
X109138752Y15378750D03*
X96211752Y12838750D03*
G04 #@! TD*
D11*
G04 #@! TO.C,MX2*
X90866252Y118081255D03*
D12*
X92136252Y120621255D03*
D13*
X95946252Y118081255D03*
D12*
X98486252Y123161255D03*
D11*
X101026252Y118081255D03*
D14*
X88861252Y120621255D03*
X101788252Y123161255D03*
G04 #@! TD*
D16*
G04 #@! TO.C,D7*
X31346252Y75651256D03*
X31346252Y74151256D03*
D17*
X36546252Y74151256D03*
D16*
X36546252Y75651256D03*
G04 #@! TD*
D18*
G04 #@! TO.C,D7*
X42653752Y60348749D03*
X42653752Y61848749D03*
D19*
X37453752Y61848749D03*
D18*
X37453752Y60348749D03*
G04 #@! TD*
D16*
G04 #@! TO.C,D7*
X93346252Y75651256D03*
X93346252Y74151256D03*
D17*
X98546252Y74151256D03*
D16*
X98546252Y75651256D03*
G04 #@! TD*
D18*
G04 #@! TO.C,D7*
X104653752Y60348749D03*
X104653752Y61848749D03*
D19*
X99453752Y61848749D03*
D18*
X99453752Y60348749D03*
G04 #@! TD*
D16*
G04 #@! TO.C,D8*
X56496252Y75651256D03*
X56496252Y74151256D03*
D17*
X61696252Y74151256D03*
D16*
X61696252Y75651256D03*
G04 #@! TD*
G04 #@! TO.C,D8*
X118496252Y75651256D03*
X118496252Y74151256D03*
D17*
X123696252Y74151256D03*
D16*
X123696252Y75651256D03*
G04 #@! TD*
D18*
G04 #@! TO.C,D8*
X79503752Y60348749D03*
X79503752Y61848749D03*
D19*
X74303752Y61848749D03*
D18*
X74303752Y60348749D03*
G04 #@! TD*
G04 #@! TO.C,D8*
X17503752Y60348749D03*
X17503752Y61848749D03*
D19*
X12303752Y61848749D03*
D18*
X12303752Y60348749D03*
G04 #@! TD*
D21*
G04 #@! TO.C,MX3*
X128346252Y115581255D03*
D22*
X128346252Y120581255D03*
X128346252Y118081255D03*
D23*
X120846252Y112481255D03*
X120846252Y123681255D03*
D22*
X113846252Y120581255D03*
X113846252Y115581255D03*
G04 #@! TD*
D24*
G04 #@! TO.C,MX3*
X7653752Y20418750D03*
D22*
X7653752Y15418750D03*
X7653752Y17918750D03*
D25*
X15153752Y23518750D03*
X15153752Y12318750D03*
D22*
X22153752Y15418750D03*
X22153752Y20418750D03*
G04 #@! TD*
D24*
G04 #@! TO.C,MX3*
X69653752Y20418750D03*
D22*
X69653752Y15418750D03*
X69653752Y17918750D03*
D25*
X77153752Y23518750D03*
X77153752Y12318750D03*
D22*
X84153752Y15418750D03*
X84153752Y20418750D03*
G04 #@! TD*
D21*
G04 #@! TO.C,MX3*
X66346252Y115581255D03*
D22*
X66346252Y120581255D03*
X66346252Y118081255D03*
D23*
X58846252Y112481255D03*
X58846252Y123681255D03*
D22*
X51846252Y120581255D03*
X51846252Y115581255D03*
G04 #@! TD*
D20*
G04 #@! TO.C,REF\u002A\u002A*
X133500004Y133500005D03*
G04 #@! TD*
D16*
G04 #@! TO.C,D6*
X74296252Y75651256D03*
X74296252Y74151256D03*
D17*
X79496252Y74151256D03*
D16*
X79496252Y75651256D03*
G04 #@! TD*
D18*
G04 #@! TO.C,D6*
X61703752Y60348749D03*
X61703752Y61848749D03*
D19*
X56503752Y61848749D03*
D18*
X56503752Y60348749D03*
G04 #@! TD*
G04 #@! TO.C,D6*
X123703752Y60348749D03*
X123703752Y61848749D03*
D19*
X118503752Y61848749D03*
D18*
X118503752Y60348749D03*
G04 #@! TD*
D16*
G04 #@! TO.C,D6*
X12296252Y75651256D03*
X12296252Y74151256D03*
D17*
X17496252Y74151256D03*
D16*
X17496252Y75651256D03*
G04 #@! TD*
G04 #@! TO.C,D2*
X93346252Y113751256D03*
X93346252Y112251256D03*
D17*
X98546252Y112251256D03*
D16*
X98546252Y113751256D03*
G04 #@! TD*
D18*
G04 #@! TO.C,D2*
X104653752Y22248749D03*
X104653752Y23748749D03*
D19*
X99453752Y23748749D03*
D18*
X99453752Y22248749D03*
G04 #@! TD*
D16*
G04 #@! TO.C,D2*
X31346252Y113751256D03*
X31346252Y112251256D03*
D17*
X36546252Y112251256D03*
D16*
X36546252Y113751256D03*
G04 #@! TD*
D18*
G04 #@! TO.C,D2*
X42653752Y22248749D03*
X42653752Y23748749D03*
D19*
X37453752Y23748749D03*
D18*
X37453752Y22248749D03*
G04 #@! TD*
D11*
G04 #@! TO.C,MX7*
X64183752Y56018750D03*
D12*
X62913752Y53478750D03*
D13*
X59103752Y56018750D03*
D12*
X56563752Y50938750D03*
D11*
X54023752Y56018750D03*
D15*
X66188752Y53478750D03*
X53261752Y50938750D03*
G04 #@! TD*
D11*
G04 #@! TO.C,MX7*
X126183752Y56018750D03*
D12*
X124913752Y53478750D03*
D13*
X121103752Y56018750D03*
D12*
X118563752Y50938750D03*
D11*
X116023752Y56018750D03*
D15*
X128188752Y53478750D03*
X115261752Y50938750D03*
G04 #@! TD*
D11*
G04 #@! TO.C,MX7*
X71816252Y79981255D03*
D12*
X73086252Y82521255D03*
D13*
X76896252Y79981255D03*
D12*
X79436252Y85061255D03*
D11*
X81976252Y79981255D03*
D14*
X69811252Y82521255D03*
X82738252Y85061255D03*
G04 #@! TD*
D11*
G04 #@! TO.C,MX7*
X9816252Y79981255D03*
D12*
X11086252Y82521255D03*
D13*
X14896252Y79981255D03*
D12*
X17436252Y85061255D03*
D11*
X19976252Y79981255D03*
D14*
X7811252Y82521255D03*
X20738252Y85061255D03*
G04 #@! TD*
D20*
G04 #@! TO.C,REF\u002A\u002A*
X2500000Y133500005D03*
G04 #@! TD*
D16*
G04 #@! TO.C,D1*
X12296252Y113751256D03*
X12296252Y112251256D03*
D17*
X17496252Y112251256D03*
D16*
X17496252Y113751256D03*
G04 #@! TD*
D18*
G04 #@! TO.C,D1*
X61703752Y22248749D03*
X61703752Y23748749D03*
D19*
X56503752Y23748749D03*
D18*
X56503752Y22248749D03*
G04 #@! TD*
D16*
G04 #@! TO.C,D1*
X74296252Y113751256D03*
X74296252Y112251256D03*
D17*
X79496252Y112251256D03*
D16*
X79496252Y113751256D03*
G04 #@! TD*
D18*
G04 #@! TO.C,D1*
X123703752Y22248749D03*
X123703752Y23748749D03*
D19*
X118503752Y23748749D03*
D18*
X118503752Y22248749D03*
G04 #@! TD*
D11*
G04 #@! TO.C,MX4*
X9816252Y99031255D03*
D12*
X11086252Y101571255D03*
D13*
X14896252Y99031255D03*
D12*
X17436252Y104111255D03*
D11*
X19976252Y99031255D03*
D14*
X7811252Y101571255D03*
X20738252Y104111255D03*
G04 #@! TD*
D11*
G04 #@! TO.C,MX4*
X64183752Y36968750D03*
D12*
X62913752Y34428750D03*
D13*
X59103752Y36968750D03*
D12*
X56563752Y31888750D03*
D11*
X54023752Y36968750D03*
D15*
X66188752Y34428750D03*
X53261752Y31888750D03*
G04 #@! TD*
D11*
G04 #@! TO.C,MX4*
X71816252Y99031255D03*
D12*
X73086252Y101571255D03*
D13*
X76896252Y99031255D03*
D12*
X79436252Y104111255D03*
D11*
X81976252Y99031255D03*
D14*
X69811252Y101571255D03*
X82738252Y104111255D03*
G04 #@! TD*
D11*
G04 #@! TO.C,MX4*
X126183752Y36968750D03*
D12*
X124913752Y34428750D03*
D13*
X121103752Y36968750D03*
D12*
X118563752Y31888750D03*
D11*
X116023752Y36968750D03*
D15*
X128188752Y34428750D03*
X115261752Y31888750D03*
G04 #@! TD*
D11*
G04 #@! TO.C,MX5*
X90870773Y99040776D03*
D12*
X92140773Y101580776D03*
D13*
X95950773Y99040776D03*
D12*
X98490773Y104120776D03*
D11*
X101030773Y99040776D03*
D14*
X88865773Y101580776D03*
X101792773Y104120776D03*
G04 #@! TD*
D11*
G04 #@! TO.C,MX5*
X45129231Y36959229D03*
D12*
X43859231Y34419229D03*
D13*
X40049231Y36959229D03*
D12*
X37509231Y31879229D03*
D11*
X34969231Y36959229D03*
D15*
X47134231Y34419229D03*
X34207231Y31879229D03*
G04 #@! TD*
D11*
G04 #@! TO.C,MX5*
X107129231Y36959229D03*
D12*
X105859231Y34419229D03*
D13*
X102049231Y36959229D03*
D12*
X99509231Y31879229D03*
D11*
X96969231Y36959229D03*
D15*
X109134231Y34419229D03*
X96207231Y31879229D03*
G04 #@! TD*
D11*
G04 #@! TO.C,MX5*
X28870773Y99040776D03*
D12*
X30140773Y101580776D03*
D13*
X33950773Y99040776D03*
D12*
X36490773Y104120776D03*
D11*
X39030773Y99040776D03*
D14*
X26865773Y101580776D03*
X39792773Y104120776D03*
G04 #@! TD*
D26*
G04 #@! TO.C,C13*
X61709231Y21389229D03*
X62349231Y21389229D03*
G04 #@! TD*
D27*
G04 #@! TO.C,C13*
X12290773Y114610776D03*
X11650773Y114610776D03*
G04 #@! TD*
G04 #@! TO.C,C13*
X74290773Y114610776D03*
X73650773Y114610776D03*
G04 #@! TD*
D26*
G04 #@! TO.C,C13*
X123709231Y21389229D03*
X124349231Y21389229D03*
G04 #@! TD*
D28*
G04 #@! TO.C,RN1*
X124690773Y119270776D03*
D29*
X124690773Y118470776D03*
X124690773Y117670776D03*
D30*
X124690773Y116870776D03*
X122890773Y116870776D03*
D29*
X122890773Y117670776D03*
X122890773Y118470776D03*
D30*
X122890773Y119270776D03*
G04 #@! TD*
D28*
G04 #@! TO.C,RN1*
X62690773Y119270776D03*
D29*
X62690773Y118470776D03*
X62690773Y117670776D03*
D30*
X62690773Y116870776D03*
X60890773Y116870776D03*
D29*
X60890773Y117670776D03*
X60890773Y118470776D03*
D30*
X60890773Y119270776D03*
G04 #@! TD*
D31*
G04 #@! TO.C,RN1*
X11309231Y16729229D03*
D32*
X11309231Y17529229D03*
X11309231Y18329229D03*
D33*
X11309231Y19129229D03*
X13109231Y19129229D03*
D32*
X13109231Y18329229D03*
X13109231Y17529229D03*
D33*
X13109231Y16729229D03*
G04 #@! TD*
D31*
G04 #@! TO.C,RN1*
X73309231Y16729229D03*
D32*
X73309231Y17529229D03*
X73309231Y18329229D03*
D33*
X73309231Y19129229D03*
X75109231Y19129229D03*
D32*
X75109231Y18329229D03*
X75109231Y17529229D03*
D33*
X75109231Y16729229D03*
G04 #@! TD*
D34*
G04 #@! TO.C,U6*
X49358273Y90740776D03*
D35*
X49358273Y90340776D03*
X49358273Y89940776D03*
X49358273Y89540776D03*
X49358273Y89140776D03*
X49358273Y88740776D03*
X49358273Y88340776D03*
X49358273Y87940776D03*
X49358273Y87540776D03*
X49358273Y87140776D03*
X49358273Y86740776D03*
X49358273Y86340776D03*
X49358273Y85940776D03*
X49358273Y85540776D03*
D36*
X48520773Y84703276D03*
X48120773Y84703276D03*
X47720773Y84703276D03*
X47320773Y84703276D03*
X46920773Y84703276D03*
X46520773Y84703276D03*
X46120773Y84703276D03*
X45720773Y84703276D03*
X45320773Y84703276D03*
X44920773Y84703276D03*
X44520773Y84703276D03*
X44120773Y84703276D03*
X43720773Y84703276D03*
X43320773Y84703276D03*
D35*
X42483273Y85540776D03*
X42483273Y85940776D03*
X42483273Y86340776D03*
X42483273Y86740776D03*
X42483273Y87140776D03*
X42483273Y87540776D03*
X42483273Y87940776D03*
X42483273Y88340776D03*
X42483273Y88740776D03*
X42483273Y89140776D03*
X42483273Y89540776D03*
X42483273Y89940776D03*
X42483273Y90340776D03*
X42483273Y90740776D03*
D36*
X43320773Y91578276D03*
X43720773Y91578276D03*
X44120773Y91578276D03*
X44520773Y91578276D03*
X44920773Y91578276D03*
X45320773Y91578276D03*
X45720773Y91578276D03*
X46120773Y91578276D03*
X46520773Y91578276D03*
X46920773Y91578276D03*
X47320773Y91578276D03*
X47720773Y91578276D03*
X48120773Y91578276D03*
X48520773Y91578276D03*
D37*
X45920773Y88140776D03*
G04 #@! TD*
D38*
G04 #@! TO.C,U6*
X86641731Y45259229D03*
D39*
X86641731Y45659229D03*
X86641731Y46059229D03*
X86641731Y46459229D03*
X86641731Y46859229D03*
X86641731Y47259229D03*
X86641731Y47659229D03*
X86641731Y48059229D03*
X86641731Y48459229D03*
X86641731Y48859229D03*
X86641731Y49259229D03*
X86641731Y49659229D03*
X86641731Y50059229D03*
X86641731Y50459229D03*
D40*
X87479231Y51296729D03*
X87879231Y51296729D03*
X88279231Y51296729D03*
X88679231Y51296729D03*
X89079231Y51296729D03*
X89479231Y51296729D03*
X89879231Y51296729D03*
X90279231Y51296729D03*
X90679231Y51296729D03*
X91079231Y51296729D03*
X91479231Y51296729D03*
X91879231Y51296729D03*
X92279231Y51296729D03*
X92679231Y51296729D03*
D39*
X93516731Y50459229D03*
X93516731Y50059229D03*
X93516731Y49659229D03*
X93516731Y49259229D03*
X93516731Y48859229D03*
X93516731Y48459229D03*
X93516731Y48059229D03*
X93516731Y47659229D03*
X93516731Y47259229D03*
X93516731Y46859229D03*
X93516731Y46459229D03*
X93516731Y46059229D03*
X93516731Y45659229D03*
X93516731Y45259229D03*
D40*
X92679231Y44421729D03*
X92279231Y44421729D03*
X91879231Y44421729D03*
X91479231Y44421729D03*
X91079231Y44421729D03*
X90679231Y44421729D03*
X90279231Y44421729D03*
X89879231Y44421729D03*
X89479231Y44421729D03*
X89079231Y44421729D03*
X88679231Y44421729D03*
X88279231Y44421729D03*
X87879231Y44421729D03*
X87479231Y44421729D03*
D41*
X90079231Y47859229D03*
G04 #@! TD*
D34*
G04 #@! TO.C,U6*
X111358273Y90740776D03*
D35*
X111358273Y90340776D03*
X111358273Y89940776D03*
X111358273Y89540776D03*
X111358273Y89140776D03*
X111358273Y88740776D03*
X111358273Y88340776D03*
X111358273Y87940776D03*
X111358273Y87540776D03*
X111358273Y87140776D03*
X111358273Y86740776D03*
X111358273Y86340776D03*
X111358273Y85940776D03*
X111358273Y85540776D03*
D36*
X110520773Y84703276D03*
X110120773Y84703276D03*
X109720773Y84703276D03*
X109320773Y84703276D03*
X108920773Y84703276D03*
X108520773Y84703276D03*
X108120773Y84703276D03*
X107720773Y84703276D03*
X107320773Y84703276D03*
X106920773Y84703276D03*
X106520773Y84703276D03*
X106120773Y84703276D03*
X105720773Y84703276D03*
X105320773Y84703276D03*
D35*
X104483273Y85540776D03*
X104483273Y85940776D03*
X104483273Y86340776D03*
X104483273Y86740776D03*
X104483273Y87140776D03*
X104483273Y87540776D03*
X104483273Y87940776D03*
X104483273Y88340776D03*
X104483273Y88740776D03*
X104483273Y89140776D03*
X104483273Y89540776D03*
X104483273Y89940776D03*
X104483273Y90340776D03*
X104483273Y90740776D03*
D36*
X105320773Y91578276D03*
X105720773Y91578276D03*
X106120773Y91578276D03*
X106520773Y91578276D03*
X106920773Y91578276D03*
X107320773Y91578276D03*
X107720773Y91578276D03*
X108120773Y91578276D03*
X108520773Y91578276D03*
X108920773Y91578276D03*
X109320773Y91578276D03*
X109720773Y91578276D03*
X110120773Y91578276D03*
X110520773Y91578276D03*
D37*
X107920773Y88140776D03*
G04 #@! TD*
D38*
G04 #@! TO.C,U6*
X24641731Y45259229D03*
D39*
X24641731Y45659229D03*
X24641731Y46059229D03*
X24641731Y46459229D03*
X24641731Y46859229D03*
X24641731Y47259229D03*
X24641731Y47659229D03*
X24641731Y48059229D03*
X24641731Y48459229D03*
X24641731Y48859229D03*
X24641731Y49259229D03*
X24641731Y49659229D03*
X24641731Y50059229D03*
X24641731Y50459229D03*
D40*
X25479231Y51296729D03*
X25879231Y51296729D03*
X26279231Y51296729D03*
X26679231Y51296729D03*
X27079231Y51296729D03*
X27479231Y51296729D03*
X27879231Y51296729D03*
X28279231Y51296729D03*
X28679231Y51296729D03*
X29079231Y51296729D03*
X29479231Y51296729D03*
X29879231Y51296729D03*
X30279231Y51296729D03*
X30679231Y51296729D03*
D39*
X31516731Y50459229D03*
X31516731Y50059229D03*
X31516731Y49659229D03*
X31516731Y49259229D03*
X31516731Y48859229D03*
X31516731Y48459229D03*
X31516731Y48059229D03*
X31516731Y47659229D03*
X31516731Y47259229D03*
X31516731Y46859229D03*
X31516731Y46459229D03*
X31516731Y46059229D03*
X31516731Y45659229D03*
X31516731Y45259229D03*
D40*
X30679231Y44421729D03*
X30279231Y44421729D03*
X29879231Y44421729D03*
X29479231Y44421729D03*
X29079231Y44421729D03*
X28679231Y44421729D03*
X28279231Y44421729D03*
X27879231Y44421729D03*
X27479231Y44421729D03*
X27079231Y44421729D03*
X26679231Y44421729D03*
X26279231Y44421729D03*
X25879231Y44421729D03*
X25479231Y44421729D03*
D41*
X28079231Y47859229D03*
G04 #@! TD*
D27*
G04 #@! TO.C,C3*
X32960773Y126770776D03*
X32320773Y126770776D03*
G04 #@! TD*
G04 #@! TO.C,C3*
X94960773Y126770776D03*
X94320773Y126770776D03*
G04 #@! TD*
D26*
G04 #@! TO.C,C3*
X41039231Y9229229D03*
X41679231Y9229229D03*
G04 #@! TD*
G04 #@! TO.C,C3*
X103039231Y9229229D03*
X103679231Y9229229D03*
G04 #@! TD*
D42*
G04 #@! TO.C,D9*
X123125773Y127820776D03*
D43*
X123125773Y128920776D03*
X124955773Y128920776D03*
X124955773Y127820776D03*
G04 #@! TD*
D44*
G04 #@! TO.C,D9*
X74874231Y8179229D03*
D45*
X74874231Y7079229D03*
X73044231Y7079229D03*
X73044231Y8179229D03*
G04 #@! TD*
D42*
G04 #@! TO.C,D9*
X61125773Y127820776D03*
D43*
X61125773Y128920776D03*
X62955773Y128920776D03*
X62955773Y127820776D03*
G04 #@! TD*
D44*
G04 #@! TO.C,D9*
X12874231Y8179229D03*
D45*
X12874231Y7079229D03*
X11044231Y7079229D03*
X11044231Y8179229D03*
G04 #@! TD*
D42*
G04 #@! TO.C,D13*
X11125773Y127820776D03*
D43*
X11125773Y128920776D03*
X12955773Y128920776D03*
X12955773Y127820776D03*
G04 #@! TD*
D44*
G04 #@! TO.C,D13*
X124874231Y8179229D03*
D45*
X124874231Y7079229D03*
X123044231Y7079229D03*
X123044231Y8179229D03*
G04 #@! TD*
D42*
G04 #@! TO.C,D13*
X73125773Y127820776D03*
D43*
X73125773Y128920776D03*
X74955773Y128920776D03*
X74955773Y127820776D03*
G04 #@! TD*
D44*
G04 #@! TO.C,D13*
X62874231Y8179229D03*
D45*
X62874231Y7079229D03*
X61044231Y7079229D03*
X61044231Y8179229D03*
G04 #@! TD*
D42*
G04 #@! TO.C,D30*
X51054231Y65819229D03*
D43*
X51054231Y66919229D03*
X52884231Y66919229D03*
X52884231Y65819229D03*
G04 #@! TD*
D42*
G04 #@! TO.C,D30*
X113054231Y65819229D03*
D43*
X113054231Y66919229D03*
X114884231Y66919229D03*
X114884231Y65819229D03*
G04 #@! TD*
D44*
G04 #@! TO.C,D30*
X22945773Y70180776D03*
D45*
X22945773Y69080776D03*
X21115773Y69080776D03*
X21115773Y70180776D03*
G04 #@! TD*
D44*
G04 #@! TO.C,D30*
X84945773Y70180776D03*
D45*
X84945773Y69080776D03*
X83115773Y69080776D03*
X83115773Y70180776D03*
G04 #@! TD*
D46*
G04 #@! TO.C,FB1*
X90969231Y10719229D03*
X90969231Y9699229D03*
G04 #@! TD*
D47*
G04 #@! TO.C,FB1*
X45030773Y125280776D03*
X45030773Y126300776D03*
G04 #@! TD*
G04 #@! TO.C,FB1*
X107030773Y125280776D03*
X107030773Y126300776D03*
G04 #@! TD*
D46*
G04 #@! TO.C,FB1*
X28969231Y10719229D03*
X28969231Y9699229D03*
G04 #@! TD*
D48*
G04 #@! TO.C,U3*
X43190773Y114725776D03*
D49*
X44140773Y114725776D03*
X45090773Y114725776D03*
X45090773Y112215776D03*
X44140773Y112215776D03*
X43190773Y112215776D03*
G04 #@! TD*
D48*
G04 #@! TO.C,U3*
X105190773Y114725776D03*
D49*
X106140773Y114725776D03*
X107090773Y114725776D03*
X107090773Y112215776D03*
X106140773Y112215776D03*
X105190773Y112215776D03*
G04 #@! TD*
D50*
G04 #@! TO.C,U3*
X30809231Y21274229D03*
D51*
X29859231Y21274229D03*
X28909231Y21274229D03*
X28909231Y23784229D03*
X29859231Y23784229D03*
X30809231Y23784229D03*
G04 #@! TD*
D50*
G04 #@! TO.C,U3*
X92809231Y21274229D03*
D51*
X91859231Y21274229D03*
X90909231Y21274229D03*
X90909231Y23784229D03*
X91859231Y23784229D03*
X92809231Y23784229D03*
G04 #@! TD*
D27*
G04 #@! TO.C,C5*
X12970773Y126770776D03*
X12330773Y126770776D03*
G04 #@! TD*
G04 #@! TO.C,C5*
X74970773Y126770776D03*
X74330773Y126770776D03*
G04 #@! TD*
D26*
G04 #@! TO.C,C5*
X61029231Y9229229D03*
X61669231Y9229229D03*
G04 #@! TD*
G04 #@! TO.C,C5*
X123029231Y9229229D03*
X123669231Y9229229D03*
G04 #@! TD*
D52*
G04 #@! TO.C,D20*
X70059231Y37214229D03*
D53*
X68959231Y37214229D03*
X68959231Y39044229D03*
X70059231Y39044229D03*
G04 #@! TD*
D54*
G04 #@! TO.C,D20*
X65940773Y98785776D03*
D55*
X67040773Y98785776D03*
X67040773Y96955776D03*
X65940773Y96955776D03*
G04 #@! TD*
D54*
G04 #@! TO.C,D20*
X127940773Y98785776D03*
D55*
X129040773Y98785776D03*
X129040773Y96955776D03*
X127940773Y96955776D03*
G04 #@! TD*
D52*
G04 #@! TO.C,D20*
X8059231Y37214229D03*
D53*
X6959231Y37214229D03*
X6959231Y39044229D03*
X8059231Y39044229D03*
G04 #@! TD*
D27*
G04 #@! TO.C,C4*
X17960773Y126770776D03*
X17320773Y126770776D03*
G04 #@! TD*
G04 #@! TO.C,C4*
X79960773Y126770776D03*
X79320773Y126770776D03*
G04 #@! TD*
D26*
G04 #@! TO.C,C4*
X56039231Y9229229D03*
X56679231Y9229229D03*
G04 #@! TD*
G04 #@! TO.C,C4*
X118039231Y9229229D03*
X118679231Y9229229D03*
G04 #@! TD*
D20*
G04 #@! TO.C,REF\u002A\u002A*
X131000004Y132150005D03*
G04 #@! TD*
D42*
G04 #@! TO.C,D26*
X73054231Y65819229D03*
D43*
X73054231Y66919229D03*
X74884231Y66919229D03*
X74884231Y65819229D03*
G04 #@! TD*
D44*
G04 #@! TO.C,D26*
X62945773Y70180776D03*
D45*
X62945773Y69080776D03*
X61115773Y69080776D03*
X61115773Y70180776D03*
G04 #@! TD*
D44*
G04 #@! TO.C,D26*
X124945773Y70180776D03*
D45*
X124945773Y69080776D03*
X123115773Y69080776D03*
X123115773Y70180776D03*
G04 #@! TD*
D42*
G04 #@! TO.C,D26*
X11054231Y65819229D03*
D43*
X11054231Y66919229D03*
X12884231Y66919229D03*
X12884231Y65819229D03*
G04 #@! TD*
D56*
G04 #@! TO.C,F1*
X44993273Y120400776D03*
X46568273Y120400776D03*
G04 #@! TD*
G04 #@! TO.C,F1*
X106993273Y120400776D03*
X108568273Y120400776D03*
G04 #@! TD*
D57*
G04 #@! TO.C,F1*
X29006731Y15599229D03*
X27431731Y15599229D03*
G04 #@! TD*
G04 #@! TO.C,F1*
X91006731Y15599229D03*
X89431731Y15599229D03*
G04 #@! TD*
D58*
G04 #@! TO.C,C14*
X64859231Y19469229D03*
X64859231Y20109229D03*
G04 #@! TD*
G04 #@! TO.C,C14*
X126859231Y19469229D03*
X126859231Y20109229D03*
G04 #@! TD*
D59*
G04 #@! TO.C,C14*
X9140773Y116530776D03*
X9140773Y115890776D03*
G04 #@! TD*
G04 #@! TO.C,C14*
X71140773Y116530776D03*
X71140773Y115890776D03*
G04 #@! TD*
D58*
G04 #@! TO.C,C27*
X42615773Y92845776D03*
X42615773Y93485776D03*
G04 #@! TD*
G04 #@! TO.C,C27*
X104615773Y92845776D03*
X104615773Y93485776D03*
G04 #@! TD*
D59*
G04 #@! TO.C,C27*
X31384231Y43154229D03*
X31384231Y42514229D03*
G04 #@! TD*
G04 #@! TO.C,C27*
X93384231Y43154229D03*
X93384231Y42514229D03*
G04 #@! TD*
D52*
G04 #@! TO.C,D19*
X8090773Y106785776D03*
D53*
X6990773Y106785776D03*
X6990773Y108615776D03*
X8090773Y108615776D03*
G04 #@! TD*
D52*
G04 #@! TO.C,D19*
X70090773Y106785776D03*
D53*
X68990773Y106785776D03*
X68990773Y108615776D03*
X70090773Y108615776D03*
G04 #@! TD*
D54*
G04 #@! TO.C,D19*
X65909231Y29214229D03*
D55*
X67009231Y29214229D03*
X67009231Y27384229D03*
X65909231Y27384229D03*
G04 #@! TD*
D54*
G04 #@! TO.C,D19*
X127909231Y29214229D03*
D55*
X129009231Y29214229D03*
X129009231Y27384229D03*
X127909231Y27384229D03*
G04 #@! TD*
D59*
G04 #@! TO.C,C19*
X64890773Y96960776D03*
X64890773Y96320776D03*
G04 #@! TD*
G04 #@! TO.C,C19*
X126890773Y96960776D03*
X126890773Y96320776D03*
G04 #@! TD*
D58*
G04 #@! TO.C,C19*
X9109231Y39039229D03*
X9109231Y39679229D03*
G04 #@! TD*
G04 #@! TO.C,C19*
X71109231Y39039229D03*
X71109231Y39679229D03*
G04 #@! TD*
G04 #@! TO.C,R7*
X53800773Y94500776D03*
X53800773Y95140776D03*
G04 #@! TD*
G04 #@! TO.C,R7*
X115800773Y94500776D03*
X115800773Y95140776D03*
G04 #@! TD*
D59*
G04 #@! TO.C,R7*
X20199231Y41499229D03*
X20199231Y40859229D03*
G04 #@! TD*
G04 #@! TO.C,R7*
X82199231Y41499229D03*
X82199231Y40859229D03*
G04 #@! TD*
D60*
G04 #@! TO.C,C11*
X47560773Y116045776D03*
X48520773Y116045776D03*
G04 #@! TD*
G04 #@! TO.C,C11*
X109560773Y116045776D03*
X110520773Y116045776D03*
G04 #@! TD*
D61*
G04 #@! TO.C,C11*
X26439231Y19954229D03*
X25479231Y19954229D03*
G04 #@! TD*
G04 #@! TO.C,C11*
X88439231Y19954229D03*
X87479231Y19954229D03*
G04 #@! TD*
D62*
G04 #@! TO.C,U5*
X114957273Y95138776D03*
D63*
X114957273Y94338776D03*
X114957273Y93538776D03*
X114957273Y92738776D03*
X112357273Y92738776D03*
X112357273Y93538776D03*
X112357273Y94338776D03*
X112357273Y95138776D03*
D64*
X113657273Y94740776D03*
X113657273Y93140776D03*
G04 #@! TD*
D65*
G04 #@! TO.C,U5*
X21042731Y40861229D03*
D66*
X21042731Y41661229D03*
X21042731Y42461229D03*
X21042731Y43261229D03*
X23642731Y43261229D03*
X23642731Y42461229D03*
X23642731Y41661229D03*
X23642731Y40861229D03*
D67*
X22342731Y41259229D03*
X22342731Y42859229D03*
G04 #@! TD*
D65*
G04 #@! TO.C,U5*
X83042731Y40861229D03*
D66*
X83042731Y41661229D03*
X83042731Y42461229D03*
X83042731Y43261229D03*
X85642731Y43261229D03*
X85642731Y42461229D03*
X85642731Y41661229D03*
X85642731Y40861229D03*
D67*
X84342731Y41259229D03*
X84342731Y42859229D03*
G04 #@! TD*
D62*
G04 #@! TO.C,U5*
X52957273Y95138776D03*
D63*
X52957273Y94338776D03*
X52957273Y93538776D03*
X52957273Y92738776D03*
X50357273Y92738776D03*
X50357273Y93538776D03*
X50357273Y94338776D03*
X50357273Y95138776D03*
D64*
X51657273Y94740776D03*
X51657273Y93140776D03*
G04 #@! TD*
D54*
G04 #@! TO.C,D24*
X65940773Y74870776D03*
D55*
X67040773Y74870776D03*
X67040773Y73040776D03*
X65940773Y73040776D03*
G04 #@! TD*
D54*
G04 #@! TO.C,D24*
X127940773Y74870776D03*
D55*
X129040773Y74870776D03*
X129040773Y73040776D03*
X127940773Y73040776D03*
G04 #@! TD*
D52*
G04 #@! TO.C,D24*
X8059231Y61129229D03*
D53*
X6959231Y61129229D03*
X6959231Y62959229D03*
X8059231Y62959229D03*
G04 #@! TD*
D52*
G04 #@! TO.C,D24*
X70059231Y61129229D03*
D53*
X68959231Y61129229D03*
X68959231Y62959229D03*
X70059231Y62959229D03*
G04 #@! TD*
D59*
G04 #@! TO.C,C18*
X9140773Y108610776D03*
X9140773Y107970776D03*
G04 #@! TD*
G04 #@! TO.C,C18*
X71140773Y108610776D03*
X71140773Y107970776D03*
G04 #@! TD*
D58*
G04 #@! TO.C,C18*
X64859231Y27389229D03*
X64859231Y28029229D03*
G04 #@! TD*
G04 #@! TO.C,C18*
X126859231Y27389229D03*
X126859231Y28029229D03*
G04 #@! TD*
G04 #@! TO.C,C21*
X46215773Y92850776D03*
X46215773Y93490776D03*
G04 #@! TD*
G04 #@! TO.C,C21*
X108215773Y92850776D03*
X108215773Y93490776D03*
G04 #@! TD*
D59*
G04 #@! TO.C,C21*
X27784231Y43149229D03*
X27784231Y42509229D03*
G04 #@! TD*
G04 #@! TO.C,C21*
X89784231Y43149229D03*
X89784231Y42509229D03*
G04 #@! TD*
D54*
G04 #@! TO.C,D22*
X65940773Y89700776D03*
D55*
X67040773Y89700776D03*
X67040773Y87870776D03*
X65940773Y87870776D03*
G04 #@! TD*
D54*
G04 #@! TO.C,D22*
X127940773Y89700776D03*
D55*
X129040773Y89700776D03*
X129040773Y87870776D03*
X127940773Y87870776D03*
G04 #@! TD*
D52*
G04 #@! TO.C,D22*
X8059231Y46299229D03*
D53*
X6959231Y46299229D03*
X6959231Y48129229D03*
X8059231Y48129229D03*
G04 #@! TD*
D52*
G04 #@! TO.C,D22*
X70059231Y46299229D03*
D53*
X68959231Y46299229D03*
X68959231Y48129229D03*
X70059231Y48129229D03*
G04 #@! TD*
D27*
G04 #@! TO.C,C35*
X41185773Y87145776D03*
X40545773Y87145776D03*
G04 #@! TD*
G04 #@! TO.C,C35*
X103185773Y87145776D03*
X102545773Y87145776D03*
G04 #@! TD*
D26*
G04 #@! TO.C,C35*
X32814231Y48854229D03*
X33454231Y48854229D03*
G04 #@! TD*
G04 #@! TO.C,C35*
X94814231Y48854229D03*
X95454231Y48854229D03*
G04 #@! TD*
D59*
G04 #@! TO.C,R3*
X39867053Y113816209D03*
X39867053Y113176209D03*
G04 #@! TD*
G04 #@! TO.C,R3*
X101867053Y113816209D03*
X101867053Y113176209D03*
G04 #@! TD*
D58*
G04 #@! TO.C,R3*
X34132951Y22183796D03*
X34132951Y22823796D03*
G04 #@! TD*
G04 #@! TO.C,R3*
X96132951Y22183796D03*
X96132951Y22823796D03*
G04 #@! TD*
D59*
G04 #@! TO.C,C16*
X64890773Y106860776D03*
X64890773Y106220776D03*
G04 #@! TD*
G04 #@! TO.C,C16*
X126890773Y106860776D03*
X126890773Y106220776D03*
G04 #@! TD*
D58*
G04 #@! TO.C,C16*
X9109231Y29139229D03*
X9109231Y29779229D03*
G04 #@! TD*
G04 #@! TO.C,C16*
X71109231Y29139229D03*
X71109231Y29779229D03*
G04 #@! TD*
D52*
G04 #@! TO.C,D15*
X8090773Y122955776D03*
D53*
X6990773Y122955776D03*
X6990773Y124785776D03*
X8090773Y124785776D03*
G04 #@! TD*
D52*
G04 #@! TO.C,D15*
X70090773Y122955776D03*
D53*
X68990773Y122955776D03*
X68990773Y124785776D03*
X70090773Y124785776D03*
G04 #@! TD*
D54*
G04 #@! TO.C,D15*
X65909231Y13044229D03*
D55*
X67009231Y13044229D03*
X67009231Y11214229D03*
X65909231Y11214229D03*
G04 #@! TD*
D54*
G04 #@! TO.C,D15*
X127909231Y13044229D03*
D55*
X129009231Y13044229D03*
X129009231Y11214229D03*
X127909231Y11214229D03*
G04 #@! TD*
D27*
G04 #@! TO.C,C20*
X118490773Y95580776D03*
X117850773Y95580776D03*
G04 #@! TD*
D26*
G04 #@! TO.C,C20*
X17509231Y40419229D03*
X18149231Y40419229D03*
G04 #@! TD*
G04 #@! TO.C,C20*
X79509231Y40419229D03*
X80149231Y40419229D03*
G04 #@! TD*
D27*
G04 #@! TO.C,C20*
X56490773Y95580776D03*
X55850773Y95580776D03*
G04 #@! TD*
D52*
G04 #@! TO.C,D25*
X8090773Y72955776D03*
D53*
X6990773Y72955776D03*
X6990773Y74785776D03*
X8090773Y74785776D03*
G04 #@! TD*
D52*
G04 #@! TO.C,D25*
X70090773Y72955776D03*
D53*
X68990773Y72955776D03*
X68990773Y74785776D03*
X70090773Y74785776D03*
G04 #@! TD*
D54*
G04 #@! TO.C,D25*
X65909231Y63044229D03*
D55*
X67009231Y63044229D03*
X67009231Y61214229D03*
X65909231Y61214229D03*
G04 #@! TD*
D54*
G04 #@! TO.C,D25*
X127909231Y63044229D03*
D55*
X129009231Y63044229D03*
X129009231Y61214229D03*
X127909231Y61214229D03*
G04 #@! TD*
D54*
G04 #@! TO.C,D18*
X65940773Y108700776D03*
D55*
X67040773Y108700776D03*
X67040773Y106870776D03*
X65940773Y106870776D03*
G04 #@! TD*
D54*
G04 #@! TO.C,D18*
X127940773Y108700776D03*
D55*
X129040773Y108700776D03*
X129040773Y106870776D03*
X127940773Y106870776D03*
G04 #@! TD*
D52*
G04 #@! TO.C,D18*
X8059231Y27299229D03*
D53*
X6959231Y27299229D03*
X6959231Y29129229D03*
X8059231Y29129229D03*
G04 #@! TD*
D52*
G04 #@! TO.C,D18*
X70059231Y27299229D03*
D53*
X68959231Y27299229D03*
X68959231Y29129229D03*
X70059231Y29129229D03*
G04 #@! TD*
D59*
G04 #@! TO.C,R6*
X53810773Y93395776D03*
X53810773Y92755776D03*
G04 #@! TD*
G04 #@! TO.C,R6*
X115810773Y93395776D03*
X115810773Y92755776D03*
G04 #@! TD*
D58*
G04 #@! TO.C,R6*
X20189231Y42604229D03*
X20189231Y43244229D03*
G04 #@! TD*
G04 #@! TO.C,R6*
X82189231Y42604229D03*
X82189231Y43244229D03*
G04 #@! TD*
D27*
G04 #@! TO.C,C28*
X31350773Y95560776D03*
X30710773Y95560776D03*
G04 #@! TD*
G04 #@! TO.C,C28*
X93350773Y95560776D03*
X92710773Y95560776D03*
G04 #@! TD*
D26*
G04 #@! TO.C,C28*
X42649231Y40439229D03*
X43289231Y40439229D03*
G04 #@! TD*
G04 #@! TO.C,C28*
X104649231Y40439229D03*
X105289231Y40439229D03*
G04 #@! TD*
D44*
G04 #@! TO.C,D27*
X52945773Y70180776D03*
D45*
X52945773Y69080776D03*
X51115773Y69080776D03*
X51115773Y70180776D03*
G04 #@! TD*
D44*
G04 #@! TO.C,D27*
X114945773Y70180776D03*
D45*
X114945773Y69080776D03*
X113115773Y69080776D03*
X113115773Y70180776D03*
G04 #@! TD*
D42*
G04 #@! TO.C,D27*
X21054231Y65819229D03*
D43*
X21054231Y66919229D03*
X22884231Y66919229D03*
X22884231Y65819229D03*
G04 #@! TD*
D42*
G04 #@! TO.C,D27*
X83054231Y65819229D03*
D43*
X83054231Y66919229D03*
X84884231Y66919229D03*
X84884231Y65819229D03*
G04 #@! TD*
D44*
G04 #@! TO.C,D11*
X104874231Y8179229D03*
D45*
X104874231Y7079229D03*
X103044231Y7079229D03*
X103044231Y8179229D03*
G04 #@! TD*
D42*
G04 #@! TO.C,D11*
X31125773Y127820776D03*
D43*
X31125773Y128920776D03*
X32955773Y128920776D03*
X32955773Y127820776D03*
G04 #@! TD*
D42*
G04 #@! TO.C,D11*
X93125773Y127820776D03*
D43*
X93125773Y128920776D03*
X94955773Y128920776D03*
X94955773Y127820776D03*
G04 #@! TD*
D44*
G04 #@! TO.C,D11*
X42874231Y8179229D03*
D45*
X42874231Y7079229D03*
X41044231Y7079229D03*
X41044231Y8179229D03*
G04 #@! TD*
D59*
G04 #@! TO.C,C37*
X47990773Y81165776D03*
X47990773Y80525776D03*
G04 #@! TD*
G04 #@! TO.C,C37*
X109990773Y81165776D03*
X109990773Y80525776D03*
G04 #@! TD*
D58*
G04 #@! TO.C,C37*
X26009231Y54834229D03*
X26009231Y55474229D03*
G04 #@! TD*
G04 #@! TO.C,C37*
X88009231Y54834229D03*
X88009231Y55474229D03*
G04 #@! TD*
D44*
G04 #@! TO.C,D31*
X12945773Y70180776D03*
D45*
X12945773Y69080776D03*
X11115773Y69080776D03*
X11115773Y70180776D03*
G04 #@! TD*
D44*
G04 #@! TO.C,D31*
X74945773Y70180776D03*
D45*
X74945773Y69080776D03*
X73115773Y69080776D03*
X73115773Y70180776D03*
G04 #@! TD*
D42*
G04 #@! TO.C,D31*
X61054231Y65819229D03*
D43*
X61054231Y66919229D03*
X62884231Y66919229D03*
X62884231Y65819229D03*
G04 #@! TD*
D42*
G04 #@! TO.C,D31*
X123054231Y65819229D03*
D43*
X123054231Y66919229D03*
X124884231Y66919229D03*
X124884231Y65819229D03*
G04 #@! TD*
D58*
G04 #@! TO.C,R4*
X45070773Y110290776D03*
X45070773Y110930776D03*
G04 #@! TD*
G04 #@! TO.C,R4*
X107070773Y110290776D03*
X107070773Y110930776D03*
G04 #@! TD*
D59*
G04 #@! TO.C,R4*
X28929231Y25709229D03*
X28929231Y25069229D03*
G04 #@! TD*
G04 #@! TO.C,R4*
X90929231Y25709229D03*
X90929231Y25069229D03*
G04 #@! TD*
D47*
G04 #@! TO.C,FB2*
X88459231Y17909229D03*
X88459231Y18929229D03*
G04 #@! TD*
D46*
G04 #@! TO.C,FB2*
X47540773Y118090776D03*
X47540773Y117070776D03*
G04 #@! TD*
G04 #@! TO.C,FB2*
X109540773Y118090776D03*
X109540773Y117070776D03*
G04 #@! TD*
D47*
G04 #@! TO.C,FB2*
X26459231Y17909229D03*
X26459231Y18929229D03*
G04 #@! TD*
D68*
G04 #@! TO.C,U4*
X41840773Y112745776D03*
D69*
X41340773Y112745776D03*
X40840773Y112745776D03*
X40840773Y114245776D03*
X41340773Y114245776D03*
X41840773Y114245776D03*
G04 #@! TD*
D68*
G04 #@! TO.C,U4*
X103840773Y112745776D03*
D69*
X103340773Y112745776D03*
X102840773Y112745776D03*
X102840773Y114245776D03*
X103340773Y114245776D03*
X103840773Y114245776D03*
G04 #@! TD*
D70*
G04 #@! TO.C,U4*
X32159231Y23254229D03*
D71*
X32659231Y23254229D03*
X33159231Y23254229D03*
X33159231Y21754229D03*
X32659231Y21754229D03*
X32159231Y21754229D03*
G04 #@! TD*
D70*
G04 #@! TO.C,U4*
X94159231Y23254229D03*
D71*
X94659231Y23254229D03*
X95159231Y23254229D03*
X95159231Y21754229D03*
X94659231Y21754229D03*
X94159231Y21754229D03*
G04 #@! TD*
D27*
G04 #@! TO.C,C43*
X12290773Y76550776D03*
X11650773Y76550776D03*
G04 #@! TD*
G04 #@! TO.C,C43*
X74290773Y76550776D03*
X73650773Y76550776D03*
G04 #@! TD*
D26*
G04 #@! TO.C,C43*
X61709231Y59449229D03*
X62349231Y59449229D03*
G04 #@! TD*
G04 #@! TO.C,C43*
X123709231Y59449229D03*
X124349231Y59449229D03*
G04 #@! TD*
D59*
G04 #@! TO.C,C24*
X49470773Y95140776D03*
X49470773Y94500776D03*
G04 #@! TD*
G04 #@! TO.C,C24*
X111470773Y95140776D03*
X111470773Y94500776D03*
G04 #@! TD*
D58*
G04 #@! TO.C,C24*
X24529231Y40859229D03*
X24529231Y41499229D03*
G04 #@! TD*
G04 #@! TO.C,C24*
X86529231Y40859229D03*
X86529231Y41499229D03*
G04 #@! TD*
D59*
G04 #@! TO.C,C38*
X45515773Y83590776D03*
X45515773Y82950776D03*
G04 #@! TD*
G04 #@! TO.C,C38*
X107515773Y83590776D03*
X107515773Y82950776D03*
G04 #@! TD*
D58*
G04 #@! TO.C,C38*
X90484231Y52409229D03*
X90484231Y53049229D03*
G04 #@! TD*
G04 #@! TO.C,C38*
X28484231Y52409229D03*
X28484231Y53049229D03*
G04 #@! TD*
D27*
G04 #@! TO.C,C29*
X12290773Y95580776D03*
X11650773Y95580776D03*
G04 #@! TD*
G04 #@! TO.C,C29*
X74290773Y95580776D03*
X73650773Y95580776D03*
G04 #@! TD*
D26*
G04 #@! TO.C,C29*
X61709231Y40419229D03*
X62349231Y40419229D03*
G04 #@! TD*
G04 #@! TO.C,C29*
X123709231Y40419229D03*
X124349231Y40419229D03*
G04 #@! TD*
D59*
G04 #@! TO.C,C44*
X9140773Y74780776D03*
X9140773Y74140776D03*
G04 #@! TD*
G04 #@! TO.C,C44*
X71140773Y74780776D03*
X71140773Y74140776D03*
G04 #@! TD*
D58*
G04 #@! TO.C,C44*
X64859231Y61219229D03*
X64859231Y61859229D03*
G04 #@! TD*
G04 #@! TO.C,C44*
X126859231Y61219229D03*
X126859231Y61859229D03*
G04 #@! TD*
D42*
G04 #@! TO.C,D10*
X41125773Y127820776D03*
D43*
X41125773Y128920776D03*
X42955773Y128920776D03*
X42955773Y127820776D03*
G04 #@! TD*
D42*
G04 #@! TO.C,D10*
X103125773Y127820776D03*
D43*
X103125773Y128920776D03*
X104955773Y128920776D03*
X104955773Y127820776D03*
G04 #@! TD*
D44*
G04 #@! TO.C,D10*
X32874231Y8179229D03*
D45*
X32874231Y7079229D03*
X31044231Y7079229D03*
X31044231Y8179229D03*
G04 #@! TD*
D44*
G04 #@! TO.C,D10*
X94874231Y8179229D03*
D45*
X94874231Y7079229D03*
X93044231Y7079229D03*
X93044231Y8179229D03*
G04 #@! TD*
D59*
G04 #@! TO.C,C15*
X64940773Y111540776D03*
X64940773Y110900776D03*
G04 #@! TD*
G04 #@! TO.C,C15*
X126940773Y111540776D03*
X126940773Y110900776D03*
G04 #@! TD*
D58*
G04 #@! TO.C,C15*
X9059231Y24459229D03*
X9059231Y25099229D03*
G04 #@! TD*
G04 #@! TO.C,C15*
X71059231Y24459229D03*
X71059231Y25099229D03*
G04 #@! TD*
D72*
G04 #@! TO.C,U1*
X49758273Y117370776D03*
D73*
X49220773Y117295776D03*
D74*
X48683273Y117370776D03*
X48683273Y119070776D03*
D73*
X49220773Y119145776D03*
D74*
X49758273Y119070776D03*
G04 #@! TD*
D72*
G04 #@! TO.C,U1*
X111758273Y117370776D03*
D73*
X111220773Y117295776D03*
D74*
X110683273Y117370776D03*
X110683273Y119070776D03*
D73*
X111220773Y119145776D03*
D74*
X111758273Y119070776D03*
G04 #@! TD*
D75*
G04 #@! TO.C,U1*
X24241731Y18629229D03*
D76*
X24779231Y18704229D03*
D77*
X25316731Y18629229D03*
X25316731Y16929229D03*
D76*
X24779231Y16854229D03*
D77*
X24241731Y16929229D03*
G04 #@! TD*
D75*
G04 #@! TO.C,U1*
X86241731Y18629229D03*
D76*
X86779231Y18704229D03*
D77*
X87316731Y18629229D03*
X87316731Y16929229D03*
D76*
X86779231Y16854229D03*
D77*
X86241731Y16929229D03*
G04 #@! TD*
D59*
G04 #@! TO.C,C6*
X9160773Y124780776D03*
X9160773Y124140776D03*
G04 #@! TD*
G04 #@! TO.C,C6*
X71160773Y124780776D03*
X71160773Y124140776D03*
G04 #@! TD*
D58*
G04 #@! TO.C,C6*
X64839231Y11219229D03*
X64839231Y11859229D03*
G04 #@! TD*
G04 #@! TO.C,C6*
X126839231Y11219229D03*
X126839231Y11859229D03*
G04 #@! TD*
D59*
G04 #@! TO.C,C39*
X44915773Y83590776D03*
X44915773Y82950776D03*
G04 #@! TD*
G04 #@! TO.C,C39*
X106915773Y83590776D03*
X106915773Y82950776D03*
G04 #@! TD*
D58*
G04 #@! TO.C,C39*
X29084231Y52409229D03*
X29084231Y53049229D03*
G04 #@! TD*
G04 #@! TO.C,C39*
X91084231Y52409229D03*
X91084231Y53049229D03*
G04 #@! TD*
G04 #@! TO.C,R2*
X47750773Y120100776D03*
X47750773Y120740776D03*
G04 #@! TD*
G04 #@! TO.C,R2*
X109750773Y120100776D03*
X109750773Y120740776D03*
G04 #@! TD*
D59*
G04 #@! TO.C,R2*
X26249231Y15899229D03*
X26249231Y15259229D03*
G04 #@! TD*
G04 #@! TO.C,R2*
X88249231Y15899229D03*
X88249231Y15259229D03*
G04 #@! TD*
D27*
G04 #@! TO.C,C12*
X31340773Y114600776D03*
X30700773Y114600776D03*
G04 #@! TD*
G04 #@! TO.C,C12*
X93340773Y114600776D03*
X92700773Y114600776D03*
G04 #@! TD*
D26*
G04 #@! TO.C,C12*
X42659231Y21399229D03*
X43299231Y21399229D03*
G04 #@! TD*
G04 #@! TO.C,C12*
X104659231Y21399229D03*
X105299231Y21399229D03*
G04 #@! TD*
D52*
G04 #@! TO.C,D17*
X8090773Y114705776D03*
D53*
X6990773Y114705776D03*
X6990773Y116535776D03*
X8090773Y116535776D03*
G04 #@! TD*
D52*
G04 #@! TO.C,D17*
X70090773Y114705776D03*
D53*
X68990773Y114705776D03*
X68990773Y116535776D03*
X70090773Y116535776D03*
G04 #@! TD*
D54*
G04 #@! TO.C,D17*
X65909231Y21294229D03*
D55*
X67009231Y21294229D03*
X67009231Y19464229D03*
X65909231Y19464229D03*
G04 #@! TD*
D54*
G04 #@! TO.C,D17*
X127909231Y21294229D03*
D55*
X129009231Y21294229D03*
X129009231Y19464229D03*
X127909231Y19464229D03*
G04 #@! TD*
D42*
G04 #@! TO.C,D12*
X16125773Y127820776D03*
D43*
X16125773Y128920776D03*
X17955773Y128920776D03*
X17955773Y127820776D03*
G04 #@! TD*
D42*
G04 #@! TO.C,D12*
X78125773Y127820776D03*
D43*
X78125773Y128920776D03*
X79955773Y128920776D03*
X79955773Y127820776D03*
G04 #@! TD*
D44*
G04 #@! TO.C,D12*
X57874231Y8179229D03*
D45*
X57874231Y7079229D03*
X56044231Y7079229D03*
X56044231Y8179229D03*
G04 #@! TD*
D44*
G04 #@! TO.C,D12*
X119874231Y8179229D03*
D45*
X119874231Y7079229D03*
X118044231Y7079229D03*
X118044231Y8179229D03*
G04 #@! TD*
D78*
G04 #@! TO.C,J1*
X47410773Y122600776D03*
X48210773Y122600776D03*
D79*
X49360773Y122600776D03*
X50360773Y122600776D03*
X50860773Y122600776D03*
X51860773Y122600776D03*
D78*
X53010773Y122600776D03*
X53810773Y122600776D03*
X53810773Y122600776D03*
X53010773Y122600776D03*
D79*
X52360773Y122600776D03*
X51360773Y122600776D03*
X49860773Y122600776D03*
X48860773Y122600776D03*
D78*
X48210773Y122600776D03*
X47410773Y122600776D03*
D80*
X45035772Y123900775D03*
X56185772Y123900775D03*
D81*
X56185772Y127900775D03*
X45035772Y127900775D03*
G04 #@! TD*
D78*
G04 #@! TO.C,J1*
X109410773Y122600776D03*
X110210773Y122600776D03*
D79*
X111360773Y122600776D03*
X112360773Y122600776D03*
X112860773Y122600776D03*
X113860773Y122600776D03*
D78*
X115010773Y122600776D03*
X115810773Y122600776D03*
X115810773Y122600776D03*
X115010773Y122600776D03*
D79*
X114360773Y122600776D03*
X113360773Y122600776D03*
X111860773Y122600776D03*
X110860773Y122600776D03*
D78*
X110210773Y122600776D03*
X109410773Y122600776D03*
D80*
X107035772Y123900775D03*
X118185772Y123900775D03*
D81*
X118185772Y127900775D03*
X107035772Y127900775D03*
G04 #@! TD*
D82*
G04 #@! TO.C,J1*
X26589231Y13399229D03*
X25789231Y13399229D03*
D83*
X24639231Y13399229D03*
X23639231Y13399229D03*
X23139231Y13399229D03*
X22139231Y13399229D03*
D82*
X20989231Y13399229D03*
X20189231Y13399229D03*
X20189231Y13399229D03*
X20989231Y13399229D03*
D83*
X21639231Y13399229D03*
X22639231Y13399229D03*
X24139231Y13399229D03*
X25139231Y13399229D03*
D82*
X25789231Y13399229D03*
X26589231Y13399229D03*
D80*
X28964230Y12099228D03*
X17814230Y12099228D03*
D81*
X17814230Y8099228D03*
X28964230Y8099228D03*
G04 #@! TD*
D82*
G04 #@! TO.C,J1*
X88589231Y13399229D03*
X87789231Y13399229D03*
D83*
X86639231Y13399229D03*
X85639231Y13399229D03*
X85139231Y13399229D03*
X84139231Y13399229D03*
D82*
X82989231Y13399229D03*
X82189231Y13399229D03*
X82189231Y13399229D03*
X82989231Y13399229D03*
D83*
X83639231Y13399229D03*
X84639231Y13399229D03*
X86139231Y13399229D03*
X87139231Y13399229D03*
D82*
X87789231Y13399229D03*
X88589231Y13399229D03*
D80*
X90964230Y12099228D03*
X79814230Y12099228D03*
D81*
X79814230Y8099228D03*
X90964230Y8099228D03*
G04 #@! TD*
D27*
G04 #@! TO.C,C49*
X31110773Y71230776D03*
X30470773Y71230776D03*
G04 #@! TD*
G04 #@! TO.C,C49*
X93110773Y71230776D03*
X92470773Y71230776D03*
G04 #@! TD*
D26*
G04 #@! TO.C,C49*
X42889231Y64769229D03*
X43529231Y64769229D03*
G04 #@! TD*
G04 #@! TO.C,C49*
X104889231Y64769229D03*
X105529231Y64769229D03*
G04 #@! TD*
D54*
G04 #@! TO.C,D16*
X65990773Y113370776D03*
D55*
X67090773Y113370776D03*
X67090773Y111540776D03*
X65990773Y111540776D03*
G04 #@! TD*
D54*
G04 #@! TO.C,D16*
X127990773Y113370776D03*
D55*
X129090773Y113370776D03*
X129090773Y111540776D03*
X127990773Y111540776D03*
G04 #@! TD*
D52*
G04 #@! TO.C,D16*
X8009231Y22629229D03*
D53*
X6909231Y22629229D03*
X6909231Y24459229D03*
X8009231Y24459229D03*
G04 #@! TD*
D52*
G04 #@! TO.C,D16*
X70009231Y22629229D03*
D53*
X68909231Y22629229D03*
X68909231Y24459229D03*
X70009231Y24459229D03*
G04 #@! TD*
D26*
G04 #@! TO.C,C32*
X50700773Y87145776D03*
X51340773Y87145776D03*
G04 #@! TD*
G04 #@! TO.C,C32*
X112700773Y87145776D03*
X113340773Y87145776D03*
G04 #@! TD*
D27*
G04 #@! TO.C,C32*
X23299231Y48854229D03*
X22659231Y48854229D03*
G04 #@! TD*
G04 #@! TO.C,C32*
X85299231Y48854229D03*
X84659231Y48854229D03*
G04 #@! TD*
G04 #@! TO.C,C46*
X61130773Y71230776D03*
X60490773Y71230776D03*
G04 #@! TD*
G04 #@! TO.C,C46*
X123130773Y71230776D03*
X122490773Y71230776D03*
G04 #@! TD*
D26*
G04 #@! TO.C,C46*
X12869231Y64769229D03*
X13509231Y64769229D03*
G04 #@! TD*
G04 #@! TO.C,C46*
X74869231Y64769229D03*
X75509231Y64769229D03*
G04 #@! TD*
D27*
G04 #@! TO.C,C34*
X41185773Y90745776D03*
X40545773Y90745776D03*
G04 #@! TD*
G04 #@! TO.C,C34*
X103185773Y90745776D03*
X102545773Y90745776D03*
G04 #@! TD*
D26*
G04 #@! TO.C,C34*
X32814231Y45254229D03*
X33454231Y45254229D03*
G04 #@! TD*
G04 #@! TO.C,C34*
X94814231Y45254229D03*
X95454231Y45254229D03*
G04 #@! TD*
D44*
G04 #@! TO.C,D28*
X42945773Y70180776D03*
D45*
X42945773Y69080776D03*
X41115773Y69080776D03*
X41115773Y70180776D03*
G04 #@! TD*
D44*
G04 #@! TO.C,D28*
X104945773Y70180776D03*
D45*
X104945773Y69080776D03*
X103115773Y69080776D03*
X103115773Y70180776D03*
G04 #@! TD*
D42*
G04 #@! TO.C,D28*
X31054231Y65819229D03*
D43*
X31054231Y66919229D03*
X32884231Y66919229D03*
X32884231Y65819229D03*
G04 #@! TD*
D42*
G04 #@! TO.C,D28*
X93054231Y65819229D03*
D43*
X93054231Y66919229D03*
X94884231Y66919229D03*
X94884231Y65819229D03*
G04 #@! TD*
D59*
G04 #@! TO.C,R8*
X45015773Y93495776D03*
X45015773Y92855776D03*
G04 #@! TD*
G04 #@! TO.C,R8*
X107015773Y93495776D03*
X107015773Y92855776D03*
G04 #@! TD*
D58*
G04 #@! TO.C,R8*
X28984231Y42504229D03*
X28984231Y43144229D03*
G04 #@! TD*
G04 #@! TO.C,R8*
X90984231Y42504229D03*
X90984231Y43144229D03*
G04 #@! TD*
D54*
G04 #@! TO.C,D14*
X65940773Y124870776D03*
D55*
X67040773Y124870776D03*
X67040773Y123040776D03*
X65940773Y123040776D03*
G04 #@! TD*
D54*
G04 #@! TO.C,D14*
X127940773Y124870776D03*
D55*
X129040773Y124870776D03*
X129040773Y123040776D03*
X127940773Y123040776D03*
G04 #@! TD*
D52*
G04 #@! TO.C,D14*
X8059231Y11129229D03*
D53*
X6959231Y11129229D03*
X6959231Y12959229D03*
X8059231Y12959229D03*
G04 #@! TD*
D52*
G04 #@! TO.C,D14*
X70059231Y11129229D03*
D53*
X68959231Y11129229D03*
X68959231Y12959229D03*
X70059231Y12959229D03*
G04 #@! TD*
D59*
G04 #@! TO.C,C36*
X9140773Y89610776D03*
X9140773Y88970776D03*
G04 #@! TD*
G04 #@! TO.C,C36*
X71140773Y89610776D03*
X71140773Y88970776D03*
G04 #@! TD*
D58*
G04 #@! TO.C,C36*
X64859231Y46389229D03*
X64859231Y47029229D03*
G04 #@! TD*
G04 #@! TO.C,C36*
X126859231Y46389229D03*
X126859231Y47029229D03*
G04 #@! TD*
D59*
G04 #@! TO.C,C30*
X9140773Y97670776D03*
X9140773Y97030776D03*
G04 #@! TD*
G04 #@! TO.C,C30*
X71140773Y97670776D03*
X71140773Y97030776D03*
G04 #@! TD*
D58*
G04 #@! TO.C,C30*
X64859231Y38329229D03*
X64859231Y38969229D03*
G04 #@! TD*
G04 #@! TO.C,C30*
X126859231Y38329229D03*
X126859231Y38969229D03*
G04 #@! TD*
D27*
G04 #@! TO.C,C50*
X21110773Y71230776D03*
X20470773Y71230776D03*
G04 #@! TD*
G04 #@! TO.C,C50*
X83110773Y71230776D03*
X82470773Y71230776D03*
G04 #@! TD*
D26*
G04 #@! TO.C,C50*
X52889231Y64769229D03*
X53529231Y64769229D03*
G04 #@! TD*
G04 #@! TO.C,C50*
X114889231Y64769229D03*
X115529231Y64769229D03*
G04 #@! TD*
D44*
G04 #@! TO.C,D29*
X32945773Y70180776D03*
D45*
X32945773Y69080776D03*
X31115773Y69080776D03*
X31115773Y70180776D03*
G04 #@! TD*
D44*
G04 #@! TO.C,D29*
X94945773Y70180776D03*
D45*
X94945773Y69080776D03*
X93115773Y69080776D03*
X93115773Y70180776D03*
G04 #@! TD*
D42*
G04 #@! TO.C,D29*
X41054231Y65819229D03*
D43*
X41054231Y66919229D03*
X42884231Y66919229D03*
X42884231Y65819229D03*
G04 #@! TD*
D42*
G04 #@! TO.C,D29*
X103054231Y65819229D03*
D43*
X103054231Y66919229D03*
X104884231Y66919229D03*
X104884231Y65819229D03*
G04 #@! TD*
D59*
G04 #@! TO.C,C22*
X43815773Y93490776D03*
X43815773Y92850776D03*
G04 #@! TD*
G04 #@! TO.C,C22*
X105815773Y93490776D03*
X105815773Y92850776D03*
G04 #@! TD*
D58*
G04 #@! TO.C,C22*
X30184231Y42509229D03*
X30184231Y43149229D03*
G04 #@! TD*
G04 #@! TO.C,C22*
X92184231Y42509229D03*
X92184231Y43149229D03*
G04 #@! TD*
D27*
G04 #@! TO.C,C47*
X51120773Y71230776D03*
X50480773Y71230776D03*
G04 #@! TD*
G04 #@! TO.C,C47*
X113120773Y71230776D03*
X112480773Y71230776D03*
G04 #@! TD*
D26*
G04 #@! TO.C,C47*
X22879231Y64769229D03*
X23519231Y64769229D03*
G04 #@! TD*
G04 #@! TO.C,C47*
X84879231Y64769229D03*
X85519231Y64769229D03*
G04 #@! TD*
D58*
G04 #@! TO.C,C31*
X9109231Y48139229D03*
X9109231Y48779229D03*
G04 #@! TD*
G04 #@! TO.C,C31*
X71109231Y48139229D03*
X71109231Y48779229D03*
G04 #@! TD*
D59*
G04 #@! TO.C,C31*
X64890773Y87860776D03*
X64890773Y87220776D03*
G04 #@! TD*
G04 #@! TO.C,C31*
X126890773Y87860776D03*
X126890773Y87220776D03*
G04 #@! TD*
D26*
G04 #@! TO.C,C8*
X63720773Y117670776D03*
X64360773Y117670776D03*
G04 #@! TD*
G04 #@! TO.C,C8*
X125720773Y117670776D03*
X126360773Y117670776D03*
G04 #@! TD*
D27*
G04 #@! TO.C,C8*
X10279231Y18329229D03*
X9639231Y18329229D03*
G04 #@! TD*
G04 #@! TO.C,C8*
X72279231Y18329229D03*
X71639231Y18329229D03*
G04 #@! TD*
D84*
G04 #@! TO.C,U2*
X46610773Y114628276D03*
D85*
X47560773Y114628276D03*
X48510773Y114628276D03*
X48510773Y112353276D03*
X46610773Y112353276D03*
G04 #@! TD*
D84*
G04 #@! TO.C,U2*
X108610773Y114628276D03*
D85*
X109560773Y114628276D03*
X110510773Y114628276D03*
X110510773Y112353276D03*
X108610773Y112353276D03*
G04 #@! TD*
D86*
G04 #@! TO.C,U2*
X27389231Y21371729D03*
D87*
X26439231Y21371729D03*
X25489231Y21371729D03*
X25489231Y23646729D03*
X27389231Y23646729D03*
G04 #@! TD*
D86*
G04 #@! TO.C,U2*
X89389231Y21371729D03*
D87*
X88439231Y21371729D03*
X87489231Y21371729D03*
X87489231Y23646729D03*
X89389231Y23646729D03*
G04 #@! TD*
D58*
G04 #@! TO.C,R10*
X46115773Y82950776D03*
X46115773Y83590776D03*
G04 #@! TD*
G04 #@! TO.C,R10*
X108115773Y82950776D03*
X108115773Y83590776D03*
G04 #@! TD*
D59*
G04 #@! TO.C,R10*
X27884231Y53049229D03*
X27884231Y52409229D03*
G04 #@! TD*
G04 #@! TO.C,R10*
X89884231Y53049229D03*
X89884231Y52409229D03*
G04 #@! TD*
D27*
G04 #@! TO.C,C1*
X62960773Y126770776D03*
X62320773Y126770776D03*
G04 #@! TD*
G04 #@! TO.C,C1*
X124960773Y126770776D03*
X124320773Y126770776D03*
G04 #@! TD*
D26*
G04 #@! TO.C,C1*
X11039231Y9229229D03*
X11679231Y9229229D03*
G04 #@! TD*
G04 #@! TO.C,C1*
X73039231Y9229229D03*
X73679231Y9229229D03*
G04 #@! TD*
G04 #@! TO.C,C7*
X63720773Y118470776D03*
X64360773Y118470776D03*
G04 #@! TD*
G04 #@! TO.C,C7*
X125720773Y118470776D03*
X126360773Y118470776D03*
G04 #@! TD*
D27*
G04 #@! TO.C,C7*
X10279231Y17529229D03*
X9639231Y17529229D03*
G04 #@! TD*
G04 #@! TO.C,C7*
X72279231Y17529229D03*
X71639231Y17529229D03*
G04 #@! TD*
G04 #@! TO.C,C42*
X31340773Y76540776D03*
X30700773Y76540776D03*
G04 #@! TD*
G04 #@! TO.C,C42*
X93340773Y76540776D03*
X92700773Y76540776D03*
G04 #@! TD*
D26*
G04 #@! TO.C,C42*
X42659231Y59459229D03*
X43299231Y59459229D03*
G04 #@! TD*
G04 #@! TO.C,C42*
X104659231Y59459229D03*
X105299231Y59459229D03*
G04 #@! TD*
D27*
G04 #@! TO.C,C48*
X41130773Y71230776D03*
X40490773Y71230776D03*
G04 #@! TD*
G04 #@! TO.C,C48*
X103130773Y71230776D03*
X102490773Y71230776D03*
G04 #@! TD*
D26*
G04 #@! TO.C,C48*
X32869231Y64769229D03*
X33509231Y64769229D03*
G04 #@! TD*
G04 #@! TO.C,C48*
X94869231Y64769229D03*
X95509231Y64769229D03*
G04 #@! TD*
D58*
G04 #@! TO.C,C40*
X43865773Y80525776D03*
X43865773Y81165776D03*
G04 #@! TD*
G04 #@! TO.C,C40*
X105865773Y80525776D03*
X105865773Y81165776D03*
G04 #@! TD*
D59*
G04 #@! TO.C,C40*
X30134231Y55474229D03*
X30134231Y54834229D03*
G04 #@! TD*
G04 #@! TO.C,C40*
X92134231Y55474229D03*
X92134231Y54834229D03*
G04 #@! TD*
D88*
G04 #@! TO.C,Y1*
X45040773Y81570776D03*
D89*
X46790773Y81570776D03*
X46790773Y80170776D03*
X45040773Y80170776D03*
G04 #@! TD*
D88*
G04 #@! TO.C,Y1*
X107040773Y81570776D03*
D89*
X108790773Y81570776D03*
X108790773Y80170776D03*
X107040773Y80170776D03*
G04 #@! TD*
D90*
G04 #@! TO.C,Y1*
X28959231Y54429229D03*
D91*
X27209231Y54429229D03*
X27209231Y55829229D03*
X28959231Y55829229D03*
G04 #@! TD*
D90*
G04 #@! TO.C,Y1*
X90959231Y54429229D03*
D91*
X89209231Y54429229D03*
X89209231Y55829229D03*
X90959231Y55829229D03*
G04 #@! TD*
D60*
G04 #@! TO.C,C17*
X46620773Y110880776D03*
X47580773Y110880776D03*
G04 #@! TD*
G04 #@! TO.C,C17*
X108620773Y110880776D03*
X109580773Y110880776D03*
G04 #@! TD*
D61*
G04 #@! TO.C,C17*
X27379231Y25119229D03*
X26419231Y25119229D03*
G04 #@! TD*
G04 #@! TO.C,C17*
X89379231Y25119229D03*
X88419231Y25119229D03*
G04 #@! TD*
D92*
G04 #@! TO.C,J2*
X21690773Y125995776D03*
X22190773Y125995776D03*
X22690773Y125995776D03*
X23190773Y125995776D03*
X23690773Y125995776D03*
X24190773Y125995776D03*
X24690773Y125995776D03*
X25190773Y125995776D03*
X25690773Y125995776D03*
X26190773Y125995776D03*
X26690773Y125995776D03*
X27190773Y125995776D03*
D93*
X28840773Y128345776D03*
X20040773Y128345776D03*
G04 #@! TD*
D92*
G04 #@! TO.C,J2*
X83690773Y125995776D03*
X84190773Y125995776D03*
X84690773Y125995776D03*
X85190773Y125995776D03*
X85690773Y125995776D03*
X86190773Y125995776D03*
X86690773Y125995776D03*
X87190773Y125995776D03*
X87690773Y125995776D03*
X88190773Y125995776D03*
X88690773Y125995776D03*
X89190773Y125995776D03*
D93*
X90840773Y128345776D03*
X82040773Y128345776D03*
G04 #@! TD*
D94*
G04 #@! TO.C,J2*
X52309231Y10004229D03*
X51809231Y10004229D03*
X51309231Y10004229D03*
X50809231Y10004229D03*
X50309231Y10004229D03*
X49809231Y10004229D03*
X49309231Y10004229D03*
X48809231Y10004229D03*
X48309231Y10004229D03*
X47809231Y10004229D03*
X47309231Y10004229D03*
X46809231Y10004229D03*
D95*
X45159231Y7654229D03*
X53959231Y7654229D03*
G04 #@! TD*
D94*
G04 #@! TO.C,J2*
X114309231Y10004229D03*
X113809231Y10004229D03*
X113309231Y10004229D03*
X112809231Y10004229D03*
X112309231Y10004229D03*
X111809231Y10004229D03*
X111309231Y10004229D03*
X110809231Y10004229D03*
X110309231Y10004229D03*
X109809231Y10004229D03*
X109309231Y10004229D03*
X108809231Y10004229D03*
D95*
X107159231Y7654229D03*
X115959231Y7654229D03*
G04 #@! TD*
D27*
G04 #@! TO.C,C2*
X42960773Y126770776D03*
X42320773Y126770776D03*
G04 #@! TD*
G04 #@! TO.C,C2*
X104960773Y126770776D03*
X104320773Y126770776D03*
G04 #@! TD*
D26*
G04 #@! TO.C,C2*
X31039231Y9229229D03*
X31679231Y9229229D03*
G04 #@! TD*
G04 #@! TO.C,C2*
X93039231Y9229229D03*
X93679231Y9229229D03*
G04 #@! TD*
D20*
G04 #@! TO.C,REF\u002A\u002A*
X5000000Y132150005D03*
G04 #@! TD*
D59*
G04 #@! TO.C,R9*
X44415773Y93490776D03*
X44415773Y92850776D03*
G04 #@! TD*
G04 #@! TO.C,R9*
X106415773Y93490776D03*
X106415773Y92850776D03*
G04 #@! TD*
D58*
G04 #@! TO.C,R9*
X29584231Y42509229D03*
X29584231Y43149229D03*
G04 #@! TD*
G04 #@! TO.C,R9*
X91584231Y42509229D03*
X91584231Y43149229D03*
G04 #@! TD*
D59*
G04 #@! TO.C,C26*
X43215773Y93490776D03*
X43215773Y92850776D03*
G04 #@! TD*
G04 #@! TO.C,C26*
X105215773Y93490776D03*
X105215773Y92850776D03*
G04 #@! TD*
D58*
G04 #@! TO.C,C26*
X30784231Y42509229D03*
X30784231Y43149229D03*
G04 #@! TD*
G04 #@! TO.C,C26*
X92784231Y42509229D03*
X92784231Y43149229D03*
G04 #@! TD*
D52*
G04 #@! TO.C,D23*
X8090773Y87785776D03*
D53*
X6990773Y87785776D03*
X6990773Y89615776D03*
X8090773Y89615776D03*
G04 #@! TD*
D52*
G04 #@! TO.C,D23*
X70090773Y87785776D03*
D53*
X68990773Y87785776D03*
X68990773Y89615776D03*
X70090773Y89615776D03*
G04 #@! TD*
D54*
G04 #@! TO.C,D23*
X65909231Y48214229D03*
D55*
X67009231Y48214229D03*
X67009231Y46384229D03*
X65909231Y46384229D03*
G04 #@! TD*
D54*
G04 #@! TO.C,D23*
X127909231Y48214229D03*
D55*
X129009231Y48214229D03*
X129009231Y46384229D03*
X127909231Y46384229D03*
G04 #@! TD*
D61*
G04 #@! TO.C,C10*
X47570773Y119060776D03*
X46610773Y119060776D03*
G04 #@! TD*
G04 #@! TO.C,C10*
X109570773Y119060776D03*
X108610773Y119060776D03*
G04 #@! TD*
D60*
G04 #@! TO.C,C10*
X26429231Y16939229D03*
X27389231Y16939229D03*
G04 #@! TD*
G04 #@! TO.C,C10*
X88429231Y16939229D03*
X89389231Y16939229D03*
G04 #@! TD*
D58*
G04 #@! TO.C,C23*
X45615773Y92850776D03*
X45615773Y93490776D03*
G04 #@! TD*
G04 #@! TO.C,C23*
X107615773Y92850776D03*
X107615773Y93490776D03*
G04 #@! TD*
D59*
G04 #@! TO.C,C23*
X28384231Y43149229D03*
X28384231Y42509229D03*
G04 #@! TD*
G04 #@! TO.C,C23*
X90384231Y43149229D03*
X90384231Y42509229D03*
G04 #@! TD*
G04 #@! TO.C,C45*
X64890773Y73020776D03*
X64890773Y72380776D03*
G04 #@! TD*
G04 #@! TO.C,C45*
X126890773Y73020776D03*
X126890773Y72380776D03*
G04 #@! TD*
D58*
G04 #@! TO.C,C45*
X9109231Y62979229D03*
X9109231Y63619229D03*
G04 #@! TD*
G04 #@! TO.C,C45*
X71109231Y62979229D03*
X71109231Y63619229D03*
G04 #@! TD*
D96*
G04 #@! TO.C,J3*
X47815773Y72992776D03*
X46799773Y78072776D03*
X48831773Y78072776D03*
D97*
X47180773Y74262776D03*
X48450773Y74262776D03*
X47180773Y75532776D03*
X48450773Y75532776D03*
X47180773Y76802776D03*
X48450773Y76802776D03*
G04 #@! TD*
D96*
G04 #@! TO.C,J3*
X109815773Y72992776D03*
X108799773Y78072776D03*
X110831773Y78072776D03*
D97*
X109180773Y74262776D03*
X110450773Y74262776D03*
X109180773Y75532776D03*
X110450773Y75532776D03*
X109180773Y76802776D03*
X110450773Y76802776D03*
G04 #@! TD*
D96*
G04 #@! TO.C,J3*
X26184231Y63007229D03*
X27200231Y57927229D03*
X25168231Y57927229D03*
D97*
X26819231Y61737229D03*
X25549231Y61737229D03*
X26819231Y60467229D03*
X25549231Y60467229D03*
X26819231Y59197229D03*
X25549231Y59197229D03*
G04 #@! TD*
D96*
G04 #@! TO.C,J3*
X88184231Y63007229D03*
X89200231Y57927229D03*
X87168231Y57927229D03*
D97*
X88819231Y61737229D03*
X87549231Y61737229D03*
X88819231Y60467229D03*
X87549231Y60467229D03*
X88819231Y59197229D03*
X87549231Y59197229D03*
G04 #@! TD*
D27*
G04 #@! TO.C,C51*
X11120773Y71230776D03*
X10480773Y71230776D03*
G04 #@! TD*
G04 #@! TO.C,C51*
X73120773Y71230776D03*
X72480773Y71230776D03*
G04 #@! TD*
D26*
G04 #@! TO.C,C51*
X62879231Y64769229D03*
X63519231Y64769229D03*
G04 #@! TD*
G04 #@! TO.C,C51*
X124879231Y64769229D03*
X125519231Y64769229D03*
G04 #@! TD*
D59*
G04 #@! TO.C,C9*
X64890773Y123040776D03*
X64890773Y122400776D03*
G04 #@! TD*
G04 #@! TO.C,C9*
X126890773Y123040776D03*
X126890773Y122400776D03*
G04 #@! TD*
D58*
G04 #@! TO.C,C9*
X9109231Y12959229D03*
X9109231Y13599229D03*
G04 #@! TD*
G04 #@! TO.C,C9*
X71109231Y12959229D03*
X71109231Y13599229D03*
G04 #@! TD*
D20*
G04 #@! TO.C,REF\u002A\u002A*
X5000000Y3850000D03*
G04 #@! TD*
D26*
G04 #@! TO.C,C33*
X50695773Y90745776D03*
X51335773Y90745776D03*
G04 #@! TD*
G04 #@! TO.C,C33*
X112695773Y90745776D03*
X113335773Y90745776D03*
G04 #@! TD*
D27*
G04 #@! TO.C,C33*
X23304231Y45254229D03*
X22664231Y45254229D03*
G04 #@! TD*
G04 #@! TO.C,C33*
X85304231Y45254229D03*
X84664231Y45254229D03*
G04 #@! TD*
D58*
G04 #@! TO.C,R1*
X53490773Y120105776D03*
X53490773Y120745776D03*
G04 #@! TD*
G04 #@! TO.C,R1*
X115490773Y120105776D03*
X115490773Y120745776D03*
G04 #@! TD*
D59*
G04 #@! TO.C,R1*
X20509231Y15894229D03*
X20509231Y15254229D03*
G04 #@! TD*
G04 #@! TO.C,R1*
X82509231Y15894229D03*
X82509231Y15254229D03*
G04 #@! TD*
D58*
G04 #@! TO.C,C25*
X46815773Y92850776D03*
X46815773Y93490776D03*
G04 #@! TD*
G04 #@! TO.C,C25*
X108815773Y92850776D03*
X108815773Y93490776D03*
G04 #@! TD*
D59*
G04 #@! TO.C,C25*
X27184231Y43149229D03*
X27184231Y42509229D03*
G04 #@! TD*
G04 #@! TO.C,C25*
X89184231Y43149229D03*
X89184231Y42509229D03*
G04 #@! TD*
D52*
G04 #@! TO.C,D21*
X8090773Y96870776D03*
D53*
X6990773Y96870776D03*
X6990773Y98700776D03*
X8090773Y98700776D03*
G04 #@! TD*
D52*
G04 #@! TO.C,D21*
X70090773Y96870776D03*
D53*
X68990773Y96870776D03*
X68990773Y98700776D03*
X70090773Y98700776D03*
G04 #@! TD*
D54*
G04 #@! TO.C,D21*
X65909231Y39129229D03*
D55*
X67009231Y39129229D03*
X67009231Y37299229D03*
X65909231Y37299229D03*
G04 #@! TD*
D54*
G04 #@! TO.C,D21*
X127909231Y39129229D03*
D55*
X129009231Y39129229D03*
X129009231Y37299229D03*
X127909231Y37299229D03*
G04 #@! TD*
D59*
G04 #@! TO.C,R5*
X44120773Y110935776D03*
X44120773Y110295776D03*
G04 #@! TD*
G04 #@! TO.C,R5*
X106120773Y110935776D03*
X106120773Y110295776D03*
G04 #@! TD*
D58*
G04 #@! TO.C,R5*
X29879231Y25064229D03*
X29879231Y25704229D03*
G04 #@! TD*
G04 #@! TO.C,R5*
X91879231Y25064229D03*
X91879231Y25704229D03*
G04 #@! TD*
D27*
G04 #@! TO.C,C41*
X56510773Y76520776D03*
X55870773Y76520776D03*
G04 #@! TD*
G04 #@! TO.C,C41*
X118510773Y76520776D03*
X117870773Y76520776D03*
G04 #@! TD*
D26*
G04 #@! TO.C,C41*
X17489231Y59479229D03*
X18129231Y59479229D03*
G04 #@! TD*
G04 #@! TO.C,C41*
X79489231Y59479229D03*
X80129231Y59479229D03*
G04 #@! TD*
M02*
