M48
; DRILL file {KiCad 7.0.0-da2b9df05c~165~ubuntu22.04.1} date Wed Apr 26 22:06:21 2023
; FORMAT={-:-/ absolute / metric / decimal}
; #@! TF.CreationDate,2023-04-26T22:06:21+00:00
; #@! TF.GenerationSoftware,Kicad,Pcbnew,7.0.0-da2b9df05c~165~ubuntu22.04.1
; #@! TF.FileFunction,MixedPlating,1,4
FMAT,2
METRIC
; #@! TA.AperFunction,Plated,PTH,ViaDrill
T1C0.150
; #@! TA.AperFunction,Plated,PTH,ViaDrill
T2C0.300
; #@! TA.AperFunction,Plated,PTH,ComponentDrill
T3C0.350
; #@! TA.AperFunction,Plated,PTH,ViaDrill
T4C0.400
; #@! TA.AperFunction,Plated,PTH,ComponentDrill
T5C0.600
; #@! TA.AperFunction,Plated,PTH,ComponentDrill
T6C1.000
; #@! TA.AperFunction,Plated,PTH,ComponentDrill
T7C1.500
; #@! TA.AperFunction,NonPlated,NPTH,ComponentDrill
T8C1.067
; #@! TA.AperFunction,NonPlated,NPTH,ComponentDrill
T9C1.750
; #@! TA.AperFunction,NonPlated,NPTH,ComponentDrill
T10C2.000
; #@! TA.AperFunction,NonPlated,NPTH,ComponentDrill
T11C3.000
; #@! TA.AperFunction,NonPlated,NPTH,ComponentDrill
T12C4.000
%
G90
G05
T1
X9.062Y31.889
X9.062Y50.939
X9.454Y24.459
X9.474Y48.129
X9.494Y12.959
X9.504Y62.979
X9.504Y39.039
X9.504Y29.139
X9.536Y116.531
X9.536Y97.671
X9.546Y124.781
X9.546Y108.611
X9.546Y89.611
X9.546Y74.781
X10.279Y18.839
X10.279Y17.009
X11.039Y9.644
X11.121Y71.693
X11.959Y8.129
X12.289Y42.064
X12.301Y113.017
X12.301Y93.967
X12.869Y64.384
X12.971Y126.376
X17.491Y93.936
X17.501Y113.011
X17.501Y74.886
X17.509Y61.083
X17.961Y126.386
X20.189Y43.239
X20.199Y41.499
X21.111Y71.616
X21.691Y42.461
X21.699Y40.859
X21.709Y41.669
X22.691Y128.121
X22.719Y45.829
X22.879Y64.364
X22.989Y43.259
X22.999Y42.469
X22.999Y41.679
X23.191Y127.631
X23.299Y48.854
X23.304Y45.254
X23.636Y14.082
X23.701Y128.121
X23.759Y45.849
X24.191Y127.631
X24.219Y16.429
X24.229Y59.189
X24.237Y61.739
X24.237Y60.469
X24.529Y40.859
X24.691Y128.091
X24.959Y50.884
X25.191Y127.611
X25.404Y45.254
X25.409Y46.399
X25.417Y45.825
X25.589Y48.789
X25.599Y50.519
X25.691Y128.071
X25.855Y49.275
X26.119Y49.809
X26.191Y127.621
X26.389Y50.539
X26.659Y45.604
X26.984Y52.154
X27.103Y45.168
X27.184Y43.154
X27.484Y45.604
X27.784Y43.154
X28.131Y61.739
X28.131Y60.469
X28.384Y43.154
X28.484Y52.404
X28.809Y22.574
X28.934Y50.429
X29.084Y52.404
X29.483Y50.429
X30.033Y50.417
X30.184Y43.154
X30.319Y48.579
X30.659Y49.509
X30.669Y50.06
X30.784Y43.154
X31.039Y9.614
X31.111Y71.636
X31.341Y74.917
X31.351Y113.001
X31.351Y93.976
X31.384Y43.154
X31.709Y7.129
X32.814Y48.854
X32.814Y45.254
X32.869Y64.364
X32.961Y126.366
X34.323Y23.014
X34.629Y47.684
X35.289Y47.685
X35.798Y47.385
X36.543Y112.986
X36.551Y74.886
X36.561Y93.945
X37.439Y42.055
X37.449Y61.114
X37.457Y23.014
X38.202Y88.615
X38.711Y88.315
X39.371Y88.316
X39.677Y112.986
X41.039Y9.634
X41.131Y71.636
X41.186Y90.746
X41.186Y87.146
X42.291Y128.871
X42.616Y92.846
X42.649Y42.024
X42.649Y22.999
X42.659Y61.083
X42.889Y64.364
X42.961Y126.386
X43.216Y92.846
X43.331Y85.94
X43.341Y86.491
X43.681Y87.421
X43.816Y92.846
X43.967Y85.583
X44.517Y85.571
X44.916Y83.596
X45.066Y85.571
X45.191Y113.426
X45.516Y83.596
X45.616Y92.846
X45.869Y75.531
X45.869Y74.261
X46.216Y92.846
X46.516Y90.396
X46.816Y92.846
X46.897Y90.832
X47.016Y83.846
X47.341Y90.396
X47.611Y85.461
X47.809Y8.379
X47.881Y86.191
X48.145Y86.725
X48.309Y7.929
X48.401Y85.481
X48.411Y87.211
X48.583Y90.175
X48.591Y89.601
X48.596Y90.746
X48.809Y8.389
X49.041Y85.116
X49.309Y7.909
X49.471Y95.141
X49.763Y75.531
X49.763Y74.261
X49.771Y76.811
X49.781Y119.571
X49.809Y8.369
X50.241Y90.151
X50.299Y7.879
X50.364Y121.918
X50.696Y90.746
X50.701Y87.146
X50.809Y8.369
X51.001Y94.321
X51.001Y93.531
X51.011Y92.741
X51.121Y71.636
X51.281Y90.171
X51.309Y7.879
X52.291Y94.331
X52.301Y95.141
X52.309Y93.539
X52.889Y64.384
X53.801Y94.501
X53.811Y92.761
X56.039Y9.614
X56.491Y74.917
X56.499Y61.114
X56.499Y22.989
X56.509Y42.064
X61.029Y9.624
X61.131Y71.616
X61.699Y42.033
X61.699Y22.983
X61.711Y93.936
X62.041Y127.871
X62.879Y64.307
X62.961Y126.356
X63.721Y118.991
X63.721Y117.161
X64.454Y61.219
X64.454Y46.389
X64.454Y27.389
X64.454Y11.219
X64.464Y38.329
X64.464Y19.469
X64.496Y106.861
X64.496Y96.961
X64.496Y73.021
X64.506Y123.041
X64.526Y87.871
X64.546Y111.541
X64.938Y85.061
X64.938Y104.111
X71.062Y31.889
X71.062Y50.939
X71.454Y24.459
X71.474Y48.129
X71.494Y12.959
X71.504Y62.979
X71.504Y39.039
X71.504Y29.139
X71.536Y116.531
X71.536Y97.671
X71.546Y124.781
X71.546Y108.611
X71.546Y89.611
X71.546Y74.781
X72.279Y18.839
X72.279Y17.009
X73.039Y9.644
X73.121Y71.693
X73.959Y8.129
X74.289Y42.064
X74.301Y113.017
X74.301Y93.967
X74.869Y64.384
X74.971Y126.376
X79.491Y93.936
X79.501Y113.011
X79.501Y74.886
X79.509Y61.083
X79.961Y126.386
X82.189Y43.239
X82.199Y41.499
X83.111Y71.616
X83.691Y42.461
X83.699Y40.859
X83.709Y41.669
X84.691Y128.121
X84.719Y45.829
X84.879Y64.364
X84.989Y43.259
X84.999Y42.469
X84.999Y41.679
X85.191Y127.631
X85.299Y48.854
X85.304Y45.254
X85.636Y14.082
X85.701Y128.121
X85.759Y45.849
X86.191Y127.631
X86.219Y16.429
X86.229Y59.189
X86.237Y61.739
X86.237Y60.469
X86.529Y40.859
X86.691Y128.091
X86.959Y50.884
X87.191Y127.611
X87.404Y45.254
X87.409Y46.399
X87.417Y45.825
X87.589Y48.789
X87.599Y50.519
X87.691Y128.071
X87.855Y49.275
X88.119Y49.809
X88.191Y127.621
X88.389Y50.539
X88.659Y45.604
X88.984Y52.154
X89.103Y45.168
X89.184Y43.154
X89.484Y45.604
X89.784Y43.154
X90.131Y61.739
X90.131Y60.469
X90.384Y43.154
X90.484Y52.404
X90.809Y22.574
X90.934Y50.429
X91.084Y52.404
X91.483Y50.429
X92.033Y50.417
X92.184Y43.154
X92.319Y48.579
X92.659Y49.509
X92.669Y50.06
X92.784Y43.154
X93.039Y9.614
X93.111Y71.636
X93.341Y74.917
X93.351Y113.001
X93.351Y93.976
X93.384Y43.154
X93.709Y7.129
X94.814Y48.854
X94.814Y45.254
X94.869Y64.364
X94.961Y126.366
X96.323Y23.014
X96.629Y47.684
X97.289Y47.685
X97.798Y47.385
X98.543Y112.986
X98.551Y74.886
X98.561Y93.945
X99.439Y42.055
X99.449Y61.114
X99.457Y23.014
X100.202Y88.615
X100.711Y88.315
X101.371Y88.316
X101.677Y112.986
X103.039Y9.634
X103.131Y71.636
X103.186Y90.746
X103.186Y87.146
X104.291Y128.871
X104.616Y92.846
X104.649Y42.024
X104.649Y22.999
X104.659Y61.083
X104.889Y64.364
X104.961Y126.386
X105.216Y92.846
X105.331Y85.94
X105.341Y86.491
X105.681Y87.421
X105.816Y92.846
X105.967Y85.583
X106.517Y85.571
X106.916Y83.596
X107.066Y85.571
X107.191Y113.426
X107.516Y83.596
X107.616Y92.846
X107.869Y75.531
X107.869Y74.261
X108.216Y92.846
X108.516Y90.396
X108.816Y92.846
X108.897Y90.832
X109.016Y83.846
X109.341Y90.396
X109.611Y85.461
X109.809Y8.379
X109.881Y86.191
X110.145Y86.725
X110.309Y7.929
X110.401Y85.481
X110.411Y87.211
X110.583Y90.175
X110.591Y89.601
X110.596Y90.746
X110.809Y8.389
X111.041Y85.116
X111.309Y7.909
X111.471Y95.141
X111.763Y75.531
X111.763Y74.261
X111.771Y76.811
X111.781Y119.571
X111.809Y8.369
X112.241Y90.151
X112.299Y7.879
X112.364Y121.918
X112.696Y90.746
X112.701Y87.146
X112.809Y8.369
X113.001Y94.321
X113.001Y93.531
X113.011Y92.741
X113.121Y71.636
X113.281Y90.171
X113.309Y7.879
X114.291Y94.331
X114.301Y95.141
X114.309Y93.539
X114.889Y64.384
X115.801Y94.501
X115.811Y92.761
X118.039Y9.614
X118.491Y74.917
X118.499Y61.114
X118.499Y22.989
X118.509Y42.064
X123.029Y9.624
X123.131Y71.616
X123.699Y42.033
X123.699Y22.983
X123.711Y93.936
X124.041Y127.871
X124.879Y64.307
X124.961Y126.356
X125.721Y118.991
X125.721Y117.161
X126.454Y61.219
X126.454Y46.389
X126.454Y27.389
X126.454Y11.219
X126.464Y38.329
X126.464Y19.469
X126.496Y106.861
X126.496Y96.961
X126.496Y73.021
X126.506Y123.041
X126.526Y87.871
X126.546Y111.541
X126.938Y85.061
X126.938Y104.111
T2
X6.911Y97.781
X6.993Y118.076
X9.687Y59.284
X10.133Y86.266
X10.213Y76.766
X10.233Y92.586
X10.253Y105.416
X11.237Y25.814
X11.297Y13.074
X11.307Y38.594
X11.783Y116.506
X12.281Y77.021
X12.291Y96.041
X12.296Y115.071
X13.109Y19.754
X13.109Y16.104
X14.437Y44.764
X14.993Y126.046
X16.007Y49.694
X16.057Y14.564
X16.097Y8.354
X16.593Y108.506
X17.489Y59.039
X17.504Y39.884
X17.587Y19.484
X17.637Y29.094
X18.173Y87.786
X18.203Y78.386
X20.847Y57.704
X21.363Y94.236
X22.467Y24.294
X22.843Y83.076
X23.977Y38.614
X25.109Y15.329
X25.567Y30.614
X25.647Y52.894
X27.227Y35.354
X27.713Y94.306
X29.263Y86.246
X29.273Y111.606
X30.407Y32.304
X30.893Y78.276
X31.341Y115.051
X31.351Y96.011
X31.351Y77.011
X31.937Y62.424
X31.987Y17.864
X32.563Y105.316
X32.659Y21.054
X33.547Y54.624
X35.117Y40.184
X36.757Y9.944
X37.243Y126.056
X38.883Y95.816
X40.453Y81.376
X41.341Y114.946
X41.437Y30.684
X42.013Y118.136
X42.063Y73.576
X42.649Y58.989
X42.649Y39.989
X42.659Y20.949
X43.107Y57.724
X43.593Y103.696
X44.727Y24.394
X44.737Y49.754
X46.287Y41.694
X46.773Y100.646
X48.353Y83.106
X48.433Y105.386
X48.891Y120.671
X50.023Y97.386
X51.157Y52.924
X51.533Y111.706
X52.637Y41.764
X53.153Y78.296
X55.797Y57.614
X55.827Y48.214
X56.363Y106.906
X56.413Y116.516
X56.496Y96.116
X56.511Y76.961
X57.407Y27.494
X57.903Y127.646
X57.943Y121.436
X57.993Y86.306
X59.007Y9.954
X59.563Y91.236
X60.891Y119.896
X60.891Y116.246
X61.704Y20.929
X61.709Y39.959
X61.719Y58.979
X62.217Y19.494
X62.693Y97.406
X62.703Y122.926
X62.763Y110.186
X63.747Y30.584
X63.767Y43.414
X63.787Y59.234
X63.867Y49.734
X64.313Y76.716
X67.007Y17.924
X67.089Y38.219
X68.911Y97.781
X68.993Y118.076
X71.687Y59.284
X72.133Y86.266
X72.213Y76.766
X72.233Y92.586
X72.253Y105.416
X73.237Y25.814
X73.297Y13.074
X73.307Y38.594
X73.783Y116.506
X74.281Y77.021
X74.291Y96.041
X74.296Y115.071
X75.109Y19.754
X75.109Y16.104
X76.437Y44.764
X76.993Y126.046
X78.007Y49.694
X78.057Y14.564
X78.097Y8.354
X78.593Y108.506
X79.489Y59.039
X79.504Y39.884
X79.587Y19.484
X79.637Y29.094
X80.173Y87.786
X80.203Y78.386
X82.847Y57.704
X83.363Y94.236
X84.467Y24.294
X84.843Y83.076
X85.977Y38.614
X87.109Y15.329
X87.567Y30.614
X87.647Y52.894
X89.227Y35.354
X89.713Y94.306
X91.263Y86.246
X91.273Y111.606
X92.407Y32.304
X92.893Y78.276
X93.341Y115.051
X93.351Y96.011
X93.351Y77.011
X93.937Y62.424
X93.987Y17.864
X94.563Y105.316
X94.659Y21.054
X95.547Y54.624
X97.117Y40.184
X98.757Y9.944
X99.243Y126.056
X100.883Y95.816
X102.453Y81.376
X103.341Y114.946
X103.437Y30.684
X104.013Y118.136
X104.063Y73.576
X104.649Y58.989
X104.649Y39.989
X104.659Y20.949
X105.107Y57.724
X105.593Y103.696
X106.727Y24.394
X106.737Y49.754
X108.287Y41.694
X108.773Y100.646
X110.353Y83.106
X110.433Y105.386
X110.891Y120.671
X112.023Y97.386
X113.157Y52.924
X113.533Y111.706
X114.637Y41.764
X115.153Y78.296
X117.797Y57.614
X117.827Y48.214
X118.363Y106.906
X118.413Y116.516
X118.496Y96.116
X118.511Y76.961
X119.407Y27.494
X119.903Y127.646
X119.943Y121.436
X119.993Y86.306
X121.007Y9.954
X121.563Y91.236
X122.891Y119.896
X122.891Y116.246
X123.704Y20.929
X123.709Y39.959
X123.719Y58.979
X124.217Y19.494
X124.693Y97.406
X124.703Y122.926
X124.763Y110.186
X125.747Y30.584
X125.767Y43.414
X125.787Y59.234
X125.867Y49.734
X126.313Y76.716
X129.007Y17.924
X129.089Y38.219
T3
X26.804Y49.134
X26.804Y47.859
X26.804Y46.584
X28.079Y49.134
X28.079Y47.859
X28.079Y46.584
X29.354Y49.134
X29.354Y47.859
X29.354Y46.584
X44.646Y89.416
X44.646Y88.141
X44.646Y86.866
X45.921Y89.416
X45.921Y88.141
X45.921Y86.866
X47.196Y89.416
X47.196Y88.141
X47.196Y86.866
X88.804Y49.134
X88.804Y47.859
X88.804Y46.584
X90.079Y49.134
X90.079Y47.859
X90.079Y46.584
X91.354Y49.134
X91.354Y47.859
X91.354Y46.584
X106.646Y89.416
X106.646Y88.141
X106.646Y86.866
X107.921Y89.416
X107.921Y88.141
X107.921Y86.866
X109.196Y89.416
X109.196Y88.141
X109.196Y86.866
T4
X19.334Y13.404
X20.334Y14.529
X20.991Y125.996
X26.259Y14.53
X26.439Y22.509
X27.359Y25.954
X27.409Y13.404
X27.891Y125.996
X28.369Y15.579
X29.859Y22.529
X30.269Y10.269
X30.809Y24.829
X32.959Y44.329
X41.041Y91.671
X43.191Y111.171
X43.731Y125.731
X44.141Y113.471
X45.631Y120.421
X46.109Y10.004
X46.591Y122.596
X46.641Y110.046
X47.561Y113.491
X47.741Y121.47
X53.009Y10.004
X53.666Y121.471
X54.666Y122.596
X81.334Y13.404
X82.334Y14.529
X82.991Y125.996
X88.259Y14.53
X88.439Y22.509
X89.359Y25.954
X89.409Y13.404
X89.891Y125.996
X90.369Y15.579
X91.859Y22.529
X92.269Y10.269
X92.809Y24.829
X94.959Y44.329
X103.041Y91.671
X105.191Y111.171
X105.731Y125.731
X106.141Y113.471
X107.631Y120.421
X108.109Y10.004
X108.591Y122.596
X108.641Y110.046
X109.561Y113.491
X109.741Y121.47
X115.009Y10.004
X115.666Y121.471
X116.666Y122.596
T6
X7.654Y20.419
X7.654Y17.919
X7.654Y15.419
X22.154Y20.419
X22.154Y15.419
X51.846Y120.581
X51.846Y115.581
X66.346Y120.581
X66.346Y118.081
X66.346Y115.581
X69.654Y20.419
X69.654Y17.919
X69.654Y15.419
X84.154Y20.419
X84.154Y15.419
X113.846Y120.581
X113.846Y115.581
X128.346Y120.581
X128.346Y118.081
X128.346Y115.581
T8
X25.168Y57.927
X26.184Y63.007
X27.2Y57.927
X46.8Y78.073
X47.816Y72.993
X48.832Y78.073
X87.168Y57.927
X88.184Y63.007
X89.2Y57.927
X108.8Y78.073
X109.816Y72.993
X110.832Y78.073
T9
X9.816Y118.081
X9.816Y99.031
X9.816Y79.981
X9.824Y56.019
X9.824Y36.969
X19.976Y118.081
X19.976Y99.031
X19.976Y79.981
X19.984Y56.019
X19.984Y36.969
X28.866Y118.081
X28.866Y79.981
X28.871Y99.041
X34.969Y36.959
X34.974Y56.019
X34.974Y17.919
X39.026Y118.081
X39.026Y79.981
X39.031Y99.041
X45.129Y36.959
X45.134Y56.019
X45.134Y17.919
X54.016Y99.031
X54.016Y79.981
X54.024Y56.019
X54.024Y36.969
X54.024Y17.919
X64.176Y99.031
X64.176Y79.981
X64.184Y56.019
X64.184Y36.969
X64.184Y17.919
X71.816Y118.081
X71.816Y99.031
X71.816Y79.981
X71.824Y56.019
X71.824Y36.969
X81.976Y118.081
X81.976Y99.031
X81.976Y79.981
X81.984Y56.019
X81.984Y36.969
X90.866Y118.081
X90.866Y79.981
X90.871Y99.041
X96.969Y36.959
X96.974Y56.019
X96.974Y17.919
X101.026Y118.081
X101.026Y79.981
X101.031Y99.041
X107.129Y36.959
X107.134Y56.019
X107.134Y17.919
X116.016Y99.031
X116.016Y79.981
X116.024Y56.019
X116.024Y36.969
X116.024Y17.919
X126.176Y99.031
X126.176Y79.981
X126.184Y56.019
X126.184Y36.969
X126.184Y17.919
T10
X2.5Y133.5
X2.5Y2.5
X133.5Y133.5
T11
X11.086Y120.621
X11.086Y101.571
X11.086Y82.521
X12.364Y50.939
X12.364Y31.889
X17.436Y123.161
X17.436Y104.111
X17.436Y85.061
X18.714Y53.479
X18.714Y34.429
X30.136Y120.621
X30.136Y82.521
X30.141Y101.581
X36.486Y123.161
X36.486Y85.061
X36.491Y104.121
X37.509Y31.879
X37.514Y50.939
X37.514Y12.839
X43.859Y34.419
X43.864Y53.479
X43.864Y15.379
X55.286Y101.571
X55.286Y82.521
X56.564Y50.939
X56.564Y31.889
X56.564Y12.839
X61.636Y104.111
X61.636Y85.061
X62.914Y53.479
X62.914Y34.429
X62.914Y15.379
X73.086Y120.621
X73.086Y101.571
X73.086Y82.521
X74.364Y50.939
X74.364Y31.889
X79.436Y123.161
X79.436Y104.111
X79.436Y85.061
X80.714Y53.479
X80.714Y34.429
X92.136Y120.621
X92.136Y82.521
X92.141Y101.581
X98.486Y123.161
X98.486Y85.061
X98.491Y104.121
X99.509Y31.879
X99.514Y50.939
X99.514Y12.839
X105.859Y34.419
X105.864Y53.479
X105.864Y15.379
X117.286Y101.571
X117.286Y82.521
X118.564Y50.939
X118.564Y31.889
X118.564Y12.839
X123.636Y104.111
X123.636Y85.061
X124.914Y53.479
X124.914Y34.429
X124.914Y15.379
T12
X14.896Y118.081
X14.896Y99.031
X14.896Y79.981
X14.904Y56.019
X14.904Y36.969
X33.946Y118.081
X33.946Y79.981
X33.951Y99.041
X40.049Y36.959
X40.054Y56.019
X40.054Y17.919
X59.096Y99.031
X59.096Y79.981
X59.104Y56.019
X59.104Y36.969
X59.104Y17.919
X76.896Y118.081
X76.896Y99.031
X76.896Y79.981
X76.904Y56.019
X76.904Y36.969
X95.946Y118.081
X95.946Y79.981
X95.951Y99.041
X102.049Y36.959
X102.054Y56.019
X102.054Y17.919
X121.096Y99.031
X121.096Y79.981
X121.104Y56.019
X121.104Y36.969
X121.104Y17.919
T5
X17.814Y11.749G85X17.814Y12.449
G05
X17.814Y7.549G85X17.814Y8.649
G05
X28.964Y11.749G85X28.964Y12.449
G05
X28.964Y7.549G85X28.964Y8.649
G05
X45.036Y128.451G85X45.036Y127.351
G05
X45.036Y124.251G85X45.036Y123.551
G05
X56.186Y128.451G85X56.186Y127.351
G05
X56.186Y124.251G85X56.186Y123.551
G05
X79.814Y11.749G85X79.814Y12.449
G05
X79.814Y7.549G85X79.814Y8.649
G05
X90.964Y11.749G85X90.964Y12.449
G05
X90.964Y7.549G85X90.964Y8.649
G05
X107.036Y128.451G85X107.036Y127.351
G05
X107.036Y124.251G85X107.036Y123.551
G05
X118.186Y128.451G85X118.186Y127.351
G05
X118.186Y124.251G85X118.186Y123.551
G05
T7
X14.504Y23.519G85X15.804Y23.519
G05
X14.504Y12.319G85X15.804Y12.319
G05
X59.496Y123.681G85X58.196Y123.681
G05
X59.496Y112.481G85X58.196Y112.481
G05
X76.504Y23.519G85X77.804Y23.519
G05
X76.504Y12.319G85X77.804Y12.319
G05
X121.496Y123.681G85X120.196Y123.681
G05
X121.496Y112.481G85X120.196Y112.481
G05
T0
M30
