G04 #@! TF.GenerationSoftware,KiCad,Pcbnew,7.0.0-da2b9df05c~165~ubuntu22.04.1*
G04 #@! TF.CreationDate,2023-04-26T22:06:21+00:00*
G04 #@! TF.ProjectId,pcb-panel,7063622d-7061-46e6-956c-2e6b69636164,5.0*
G04 #@! TF.SameCoordinates,Original*
G04 #@! TF.FileFunction,Other,Comment*
%FSLAX46Y46*%
G04 Gerber Fmt 4.6, Leading zero omitted, Abs format (unit mm)*
G04 Created by KiCad (PCBNEW 7.0.0-da2b9df05c~165~ubuntu22.04.1) date 2023-04-26 22:06:21*
%MOMM*%
%LPD*%
G01*
G04 APERTURE LIST*
%ADD10C,0.400000*%
G04 APERTURE END LIST*
D10*
X-3000000Y130000004D02*
X139000004Y130000004D01*
X6000002Y139000005D02*
X6000002Y-3000000D01*
X-3000000Y6000004D02*
X139000004Y6000004D01*
X-3000000Y68000004D02*
X139000004Y68000004D01*
X130000002Y139000005D02*
X130000002Y-3000000D01*
X4734763Y142190482D02*
X6734763Y142857148D01*
X6734763Y142857148D02*
X4734763Y143523815D01*
X5972859Y144190482D02*
X5972859Y145714291D01*
X6544287Y147809529D02*
X6639525Y147714291D01*
X6639525Y147714291D02*
X6734763Y147428577D01*
X6734763Y147428577D02*
X6734763Y147238101D01*
X6734763Y147238101D02*
X6639525Y146952386D01*
X6639525Y146952386D02*
X6449049Y146761910D01*
X6449049Y146761910D02*
X6258573Y146666672D01*
X6258573Y146666672D02*
X5877621Y146571434D01*
X5877621Y146571434D02*
X5591906Y146571434D01*
X5591906Y146571434D02*
X5210954Y146666672D01*
X5210954Y146666672D02*
X5020478Y146761910D01*
X5020478Y146761910D02*
X4830002Y146952386D01*
X4830002Y146952386D02*
X4734763Y147238101D01*
X4734763Y147238101D02*
X4734763Y147428577D01*
X4734763Y147428577D02*
X4830002Y147714291D01*
X4830002Y147714291D02*
X4925240Y147809529D01*
X4734763Y148666672D02*
X6353811Y148666672D01*
X6353811Y148666672D02*
X6544287Y148761910D01*
X6544287Y148761910D02*
X6639525Y148857148D01*
X6639525Y148857148D02*
X6734763Y149047624D01*
X6734763Y149047624D02*
X6734763Y149428577D01*
X6734763Y149428577D02*
X6639525Y149619053D01*
X6639525Y149619053D02*
X6544287Y149714291D01*
X6544287Y149714291D02*
X6353811Y149809529D01*
X6353811Y149809529D02*
X4734763Y149809529D01*
X4734763Y150476196D02*
X4734763Y151619053D01*
X6734763Y151047624D02*
X4734763Y151047624D01*
X128734763Y142190482D02*
X130734763Y142857148D01*
X130734763Y142857148D02*
X128734763Y143523815D01*
X129972859Y144190482D02*
X129972859Y145714291D01*
X130544287Y147809529D02*
X130639525Y147714291D01*
X130639525Y147714291D02*
X130734763Y147428577D01*
X130734763Y147428577D02*
X130734763Y147238101D01*
X130734763Y147238101D02*
X130639525Y146952386D01*
X130639525Y146952386D02*
X130449049Y146761910D01*
X130449049Y146761910D02*
X130258573Y146666672D01*
X130258573Y146666672D02*
X129877621Y146571434D01*
X129877621Y146571434D02*
X129591906Y146571434D01*
X129591906Y146571434D02*
X129210954Y146666672D01*
X129210954Y146666672D02*
X129020478Y146761910D01*
X129020478Y146761910D02*
X128830002Y146952386D01*
X128830002Y146952386D02*
X128734763Y147238101D01*
X128734763Y147238101D02*
X128734763Y147428577D01*
X128734763Y147428577D02*
X128830002Y147714291D01*
X128830002Y147714291D02*
X128925240Y147809529D01*
X128734763Y148666672D02*
X130353811Y148666672D01*
X130353811Y148666672D02*
X130544287Y148761910D01*
X130544287Y148761910D02*
X130639525Y148857148D01*
X130639525Y148857148D02*
X130734763Y149047624D01*
X130734763Y149047624D02*
X130734763Y149428577D01*
X130734763Y149428577D02*
X130639525Y149619053D01*
X130639525Y149619053D02*
X130544287Y149714291D01*
X130544287Y149714291D02*
X130353811Y149809529D01*
X130353811Y149809529D02*
X128734763Y149809529D01*
X128734763Y150476196D02*
X128734763Y151619053D01*
X130734763Y151047624D02*
X128734763Y151047624D01*
X142190480Y69265243D02*
X142857146Y67265243D01*
X142857146Y67265243D02*
X143523813Y69265243D01*
X144190480Y68027147D02*
X145714290Y68027147D01*
X147809527Y67455719D02*
X147714289Y67360481D01*
X147714289Y67360481D02*
X147428575Y67265243D01*
X147428575Y67265243D02*
X147238099Y67265243D01*
X147238099Y67265243D02*
X146952384Y67360481D01*
X146952384Y67360481D02*
X146761908Y67550957D01*
X146761908Y67550957D02*
X146666670Y67741433D01*
X146666670Y67741433D02*
X146571432Y68122385D01*
X146571432Y68122385D02*
X146571432Y68408100D01*
X146571432Y68408100D02*
X146666670Y68789052D01*
X146666670Y68789052D02*
X146761908Y68979528D01*
X146761908Y68979528D02*
X146952384Y69170004D01*
X146952384Y69170004D02*
X147238099Y69265243D01*
X147238099Y69265243D02*
X147428575Y69265243D01*
X147428575Y69265243D02*
X147714289Y69170004D01*
X147714289Y69170004D02*
X147809527Y69074766D01*
X148666670Y69265243D02*
X148666670Y67646195D01*
X148666670Y67646195D02*
X148761908Y67455719D01*
X148761908Y67455719D02*
X148857146Y67360481D01*
X148857146Y67360481D02*
X149047622Y67265243D01*
X149047622Y67265243D02*
X149428575Y67265243D01*
X149428575Y67265243D02*
X149619051Y67360481D01*
X149619051Y67360481D02*
X149714289Y67455719D01*
X149714289Y67455719D02*
X149809527Y67646195D01*
X149809527Y67646195D02*
X149809527Y69265243D01*
X150476194Y69265243D02*
X151619051Y69265243D01*
X151047622Y67265243D02*
X151047622Y69265243D01*
X142190480Y131265243D02*
X142857146Y129265243D01*
X142857146Y129265243D02*
X143523813Y131265243D01*
X144190480Y130027147D02*
X145714290Y130027147D01*
X147809527Y129455719D02*
X147714289Y129360481D01*
X147714289Y129360481D02*
X147428575Y129265243D01*
X147428575Y129265243D02*
X147238099Y129265243D01*
X147238099Y129265243D02*
X146952384Y129360481D01*
X146952384Y129360481D02*
X146761908Y129550957D01*
X146761908Y129550957D02*
X146666670Y129741433D01*
X146666670Y129741433D02*
X146571432Y130122385D01*
X146571432Y130122385D02*
X146571432Y130408100D01*
X146571432Y130408100D02*
X146666670Y130789052D01*
X146666670Y130789052D02*
X146761908Y130979528D01*
X146761908Y130979528D02*
X146952384Y131170004D01*
X146952384Y131170004D02*
X147238099Y131265243D01*
X147238099Y131265243D02*
X147428575Y131265243D01*
X147428575Y131265243D02*
X147714289Y131170004D01*
X147714289Y131170004D02*
X147809527Y131074766D01*
X148666670Y131265243D02*
X148666670Y129646195D01*
X148666670Y129646195D02*
X148761908Y129455719D01*
X148761908Y129455719D02*
X148857146Y129360481D01*
X148857146Y129360481D02*
X149047622Y129265243D01*
X149047622Y129265243D02*
X149428575Y129265243D01*
X149428575Y129265243D02*
X149619051Y129360481D01*
X149619051Y129360481D02*
X149714289Y129455719D01*
X149714289Y129455719D02*
X149809527Y129646195D01*
X149809527Y129646195D02*
X149809527Y131265243D01*
X150476194Y131265243D02*
X151619051Y131265243D01*
X151047622Y129265243D02*
X151047622Y131265243D01*
X142190480Y7265243D02*
X142857146Y5265243D01*
X142857146Y5265243D02*
X143523813Y7265243D01*
X144190480Y6027147D02*
X145714290Y6027147D01*
X147809527Y5455719D02*
X147714289Y5360481D01*
X147714289Y5360481D02*
X147428575Y5265243D01*
X147428575Y5265243D02*
X147238099Y5265243D01*
X147238099Y5265243D02*
X146952384Y5360481D01*
X146952384Y5360481D02*
X146761908Y5550957D01*
X146761908Y5550957D02*
X146666670Y5741433D01*
X146666670Y5741433D02*
X146571432Y6122385D01*
X146571432Y6122385D02*
X146571432Y6408100D01*
X146571432Y6408100D02*
X146666670Y6789052D01*
X146666670Y6789052D02*
X146761908Y6979528D01*
X146761908Y6979528D02*
X146952384Y7170004D01*
X146952384Y7170004D02*
X147238099Y7265243D01*
X147238099Y7265243D02*
X147428575Y7265243D01*
X147428575Y7265243D02*
X147714289Y7170004D01*
X147714289Y7170004D02*
X147809527Y7074766D01*
X148666670Y7265243D02*
X148666670Y5646195D01*
X148666670Y5646195D02*
X148761908Y5455719D01*
X148761908Y5455719D02*
X148857146Y5360481D01*
X148857146Y5360481D02*
X149047622Y5265243D01*
X149047622Y5265243D02*
X149428575Y5265243D01*
X149428575Y5265243D02*
X149619051Y5360481D01*
X149619051Y5360481D02*
X149714289Y5455719D01*
X149714289Y5455719D02*
X149809527Y5646195D01*
X149809527Y5646195D02*
X149809527Y7265243D01*
X150476194Y7265243D02*
X151619051Y7265243D01*
X151047622Y5265243D02*
X151047622Y7265243D01*
M02*
