G04 #@! TF.GenerationSoftware,KiCad,Pcbnew,7.0.0-da2b9df05c~165~ubuntu22.04.1*
G04 #@! TF.CreationDate,2023-04-27T22:34:57+00:00*
G04 #@! TF.ProjectId,pcb-panel,7063622d-7061-46e6-956c-2e6b69636164,5.0*
G04 #@! TF.SameCoordinates,Original*
G04 #@! TF.FileFunction,Soldermask,Top*
G04 #@! TF.FilePolarity,Negative*
%FSLAX46Y46*%
G04 Gerber Fmt 4.6, Leading zero omitted, Abs format (unit mm)*
G04 Created by KiCad (PCBNEW 7.0.0-da2b9df05c~165~ubuntu22.04.1) date 2023-04-27 22:34:57*
%MOMM*%
%LPD*%
G01*
G04 APERTURE LIST*
G04 Aperture macros list*
%AMRoundRect*
0 Rectangle with rounded corners*
0 $1 Rounding radius*
0 $2 $3 $4 $5 $6 $7 $8 $9 X,Y pos of 4 corners*
0 Add a 4 corners polygon primitive as box body*
4,1,4,$2,$3,$4,$5,$6,$7,$8,$9,$2,$3,0*
0 Add four circle primitives for the rounded corners*
1,1,$1+$1,$2,$3*
1,1,$1+$1,$4,$5*
1,1,$1+$1,$6,$7*
1,1,$1+$1,$8,$9*
0 Add four rect primitives between the rounded corners*
20,1,$1+$1,$2,$3,$4,$5,0*
20,1,$1+$1,$4,$5,$6,$7,0*
20,1,$1+$1,$6,$7,$8,$9,0*
20,1,$1+$1,$8,$9,$2,$3,0*%
G04 Aperture macros list end*
%ADD10C,3.750000*%
%ADD11C,2.000000*%
%ADD12RoundRect,0.050000X-1.000000X-1.000000X1.000000X-1.000000X1.000000X1.000000X-1.000000X1.000000X0*%
%ADD13C,2.100000*%
%ADD14RoundRect,0.050000X-1.600000X-1.000000X1.600000X-1.000000X1.600000X1.000000X-1.600000X1.000000X0*%
%ADD15RoundRect,0.050000X1.000000X1.000000X-1.000000X1.000000X-1.000000X-1.000000X1.000000X-1.000000X0*%
%ADD16RoundRect,0.050000X1.600000X1.000000X-1.600000X1.000000X-1.600000X-1.000000X1.600000X-1.000000X0*%
%ADD17C,1.850000*%
%ADD18C,3.100000*%
%ADD19C,4.100000*%
%ADD20O,1.100000X1.800000*%
%ADD21O,1.100000X2.200000*%
%ADD22C,1.167000*%
G04 APERTURE END LIST*
G04 #@! TO.C,G\u002A\u002A\u002A*
D10*
X26247777Y79915776D02*
G75*
G03*
X26247777Y79915776I-1875000J0D01*
G01*
X89247777Y79915776D02*
G75*
G03*
X89247777Y79915776I-1875000J0D01*
G01*
X51502227Y61084229D02*
G75*
G03*
X51502227Y61084229I-1875000J0D01*
G01*
X114502227Y61084229D02*
G75*
G03*
X114502227Y61084229I-1875000J0D01*
G01*
G04 #@! TD*
D11*
G04 #@! TO.C,REF\u002A\u002A*
X134500004Y138500005D03*
G04 #@! TD*
G04 #@! TO.C,REF\u002A\u002A*
X5000000Y3850000D03*
G04 #@! TD*
G04 #@! TO.C,REF\u002A\u002A*
X5000000Y137150005D03*
G04 #@! TD*
G04 #@! TO.C,REF\u002A\u002A*
X2500000Y2500000D03*
G04 #@! TD*
D12*
G04 #@! TO.C,MX3*
X70653752Y20418750D03*
D13*
X70653752Y15418750D03*
X70653752Y17918750D03*
D14*
X78153752Y23518750D03*
X78153752Y12318750D03*
D13*
X85153752Y15418750D03*
X85153752Y20418750D03*
G04 #@! TD*
D15*
G04 #@! TO.C,MX3*
X66346252Y120581255D03*
D13*
X66346252Y125581255D03*
X66346252Y123081255D03*
D16*
X58846252Y117481255D03*
X58846252Y128681255D03*
D13*
X51846252Y125581255D03*
X51846252Y120581255D03*
G04 #@! TD*
D15*
G04 #@! TO.C,MX3*
X129346252Y120581255D03*
D13*
X129346252Y125581255D03*
X129346252Y123081255D03*
D16*
X121846252Y117481255D03*
X121846252Y128681255D03*
D13*
X114846252Y125581255D03*
X114846252Y120581255D03*
G04 #@! TD*
D12*
G04 #@! TO.C,MX3*
X7653752Y20418750D03*
D13*
X7653752Y15418750D03*
X7653752Y17918750D03*
D14*
X15153752Y23518750D03*
X15153752Y12318750D03*
D13*
X22153752Y15418750D03*
X22153752Y20418750D03*
G04 #@! TD*
D11*
G04 #@! TO.C,REF\u002A\u002A*
X132000004Y137150005D03*
G04 #@! TD*
G04 #@! TO.C,REF\u002A\u002A*
X2500000Y138500005D03*
G04 #@! TD*
D17*
G04 #@! TO.C,MX8*
X102026252Y84981255D03*
D18*
X99486252Y90061255D03*
D19*
X96946252Y84981255D03*
D18*
X93136252Y87521255D03*
D17*
X91866252Y84981255D03*
G04 #@! TD*
G04 #@! TO.C,MX8*
X34973752Y56018750D03*
D18*
X37513752Y50938750D03*
D19*
X40053752Y56018750D03*
D18*
X43863752Y53478750D03*
D17*
X45133752Y56018750D03*
G04 #@! TD*
G04 #@! TO.C,MX8*
X39026252Y84981255D03*
D18*
X36486252Y90061255D03*
D19*
X33946252Y84981255D03*
D18*
X30136252Y87521255D03*
D17*
X28866252Y84981255D03*
G04 #@! TD*
G04 #@! TO.C,MX8*
X97973752Y56018750D03*
D18*
X100513752Y50938750D03*
D19*
X103053752Y56018750D03*
D18*
X106863752Y53478750D03*
D17*
X108133752Y56018750D03*
G04 #@! TD*
G04 #@! TO.C,MX6*
X9823752Y36968750D03*
D18*
X12363752Y31888750D03*
D19*
X14903752Y36968750D03*
D18*
X18713752Y34428750D03*
D17*
X19983752Y36968750D03*
G04 #@! TD*
G04 #@! TO.C,MX6*
X72823752Y36968750D03*
D18*
X75363752Y31888750D03*
D19*
X77903752Y36968750D03*
D18*
X81713752Y34428750D03*
D17*
X82983752Y36968750D03*
G04 #@! TD*
G04 #@! TO.C,MX6*
X64176252Y104031255D03*
D18*
X61636252Y109111255D03*
D19*
X59096252Y104031255D03*
D18*
X55286252Y106571255D03*
D17*
X54016252Y104031255D03*
G04 #@! TD*
G04 #@! TO.C,MX6*
X127176252Y104031255D03*
D18*
X124636252Y109111255D03*
D19*
X122096252Y104031255D03*
D18*
X118286252Y106571255D03*
D17*
X117016252Y104031255D03*
G04 #@! TD*
G04 #@! TO.C,MX9*
X72823752Y56018750D03*
D18*
X75363752Y50938750D03*
D19*
X77903752Y56018750D03*
D18*
X81713752Y53478750D03*
D17*
X82983752Y56018750D03*
G04 #@! TD*
G04 #@! TO.C,MX9*
X64176252Y84981255D03*
D18*
X61636252Y90061255D03*
D19*
X59096252Y84981255D03*
D18*
X55286252Y87521255D03*
D17*
X54016252Y84981255D03*
G04 #@! TD*
G04 #@! TO.C,MX9*
X127176252Y84981255D03*
D18*
X124636252Y90061255D03*
D19*
X122096252Y84981255D03*
D18*
X118286252Y87521255D03*
D17*
X117016252Y84981255D03*
G04 #@! TD*
G04 #@! TO.C,MX9*
X9823752Y56018750D03*
D18*
X12363752Y50938750D03*
D19*
X14903752Y56018750D03*
D18*
X18713752Y53478750D03*
D17*
X19983752Y56018750D03*
G04 #@! TD*
G04 #@! TO.C,MX1*
X19976252Y123081255D03*
D18*
X17436252Y128161255D03*
D19*
X14896252Y123081255D03*
D18*
X11086252Y125621255D03*
D17*
X9816252Y123081255D03*
G04 #@! TD*
G04 #@! TO.C,MX1*
X82976252Y123081255D03*
D18*
X80436252Y128161255D03*
D19*
X77896252Y123081255D03*
D18*
X74086252Y125621255D03*
D17*
X72816252Y123081255D03*
G04 #@! TD*
G04 #@! TO.C,MX1*
X54023752Y17918750D03*
D18*
X56563752Y12838750D03*
D19*
X59103752Y17918750D03*
D18*
X62913752Y15378750D03*
D17*
X64183752Y17918750D03*
G04 #@! TD*
G04 #@! TO.C,MX1*
X117023752Y17918750D03*
D18*
X119563752Y12838750D03*
D19*
X122103752Y17918750D03*
D18*
X125913752Y15378750D03*
D17*
X127183752Y17918750D03*
G04 #@! TD*
G04 #@! TO.C,MX2*
X39026252Y123081255D03*
D18*
X36486252Y128161255D03*
D19*
X33946252Y123081255D03*
D18*
X30136252Y125621255D03*
D17*
X28866252Y123081255D03*
G04 #@! TD*
G04 #@! TO.C,MX2*
X102026252Y123081255D03*
D18*
X99486252Y128161255D03*
D19*
X96946252Y123081255D03*
D18*
X93136252Y125621255D03*
D17*
X91866252Y123081255D03*
G04 #@! TD*
G04 #@! TO.C,MX2*
X34973752Y17918750D03*
D18*
X37513752Y12838750D03*
D19*
X40053752Y17918750D03*
D18*
X43863752Y15378750D03*
D17*
X45133752Y17918750D03*
G04 #@! TD*
G04 #@! TO.C,MX2*
X97973752Y17918750D03*
D18*
X100513752Y12838750D03*
D19*
X103053752Y17918750D03*
D18*
X106863752Y15378750D03*
D17*
X108133752Y17918750D03*
G04 #@! TD*
D20*
G04 #@! TO.C,J1*
X45035772Y128900775D03*
X56185772Y128900775D03*
D21*
X56185772Y132900775D03*
X45035772Y132900775D03*
G04 #@! TD*
D20*
G04 #@! TO.C,J1*
X108035772Y128900775D03*
X119185772Y128900775D03*
D21*
X119185772Y132900775D03*
X108035772Y132900775D03*
G04 #@! TD*
D20*
G04 #@! TO.C,J1*
X28964230Y12099228D03*
X17814230Y12099228D03*
D21*
X17814230Y8099228D03*
X28964230Y8099228D03*
G04 #@! TD*
D20*
G04 #@! TO.C,J1*
X91964230Y12099228D03*
X80814230Y12099228D03*
D21*
X80814230Y8099228D03*
X91964230Y8099228D03*
G04 #@! TD*
D17*
G04 #@! TO.C,MX7*
X19976252Y84981255D03*
D18*
X17436252Y90061255D03*
D19*
X14896252Y84981255D03*
D18*
X11086252Y87521255D03*
D17*
X9816252Y84981255D03*
G04 #@! TD*
G04 #@! TO.C,MX7*
X82976252Y84981255D03*
D18*
X80436252Y90061255D03*
D19*
X77896252Y84981255D03*
D18*
X74086252Y87521255D03*
D17*
X72816252Y84981255D03*
G04 #@! TD*
G04 #@! TO.C,MX7*
X54023752Y56018750D03*
D18*
X56563752Y50938750D03*
D19*
X59103752Y56018750D03*
D18*
X62913752Y53478750D03*
D17*
X64183752Y56018750D03*
G04 #@! TD*
G04 #@! TO.C,MX7*
X117023752Y56018750D03*
D18*
X119563752Y50938750D03*
D19*
X122103752Y56018750D03*
D18*
X125913752Y53478750D03*
D17*
X127183752Y56018750D03*
G04 #@! TD*
G04 #@! TO.C,MX4*
X19976252Y104031255D03*
D18*
X17436252Y109111255D03*
D19*
X14896252Y104031255D03*
D18*
X11086252Y106571255D03*
D17*
X9816252Y104031255D03*
G04 #@! TD*
G04 #@! TO.C,MX4*
X82976252Y104031255D03*
D18*
X80436252Y109111255D03*
D19*
X77896252Y104031255D03*
D18*
X74086252Y106571255D03*
D17*
X72816252Y104031255D03*
G04 #@! TD*
G04 #@! TO.C,MX4*
X54023752Y36968750D03*
D18*
X56563752Y31888750D03*
D19*
X59103752Y36968750D03*
D18*
X62913752Y34428750D03*
D17*
X64183752Y36968750D03*
G04 #@! TD*
G04 #@! TO.C,MX4*
X117023752Y36968750D03*
D18*
X119563752Y31888750D03*
D19*
X122103752Y36968750D03*
D18*
X125913752Y34428750D03*
D17*
X127183752Y36968750D03*
G04 #@! TD*
D22*
G04 #@! TO.C,J3*
X47815773Y77992776D03*
X46799773Y83072776D03*
X48831773Y83072776D03*
G04 #@! TD*
G04 #@! TO.C,J3*
X110815773Y77992776D03*
X109799773Y83072776D03*
X111831773Y83072776D03*
G04 #@! TD*
G04 #@! TO.C,J3*
X26184231Y63007229D03*
X27200231Y57927229D03*
X25168231Y57927229D03*
G04 #@! TD*
G04 #@! TO.C,J3*
X89184231Y63007229D03*
X90200231Y57927229D03*
X88168231Y57927229D03*
G04 #@! TD*
D17*
G04 #@! TO.C,MX5*
X97969231Y36959229D03*
D18*
X100509231Y31879229D03*
D19*
X103049231Y36959229D03*
D18*
X106859231Y34419229D03*
D17*
X108129231Y36959229D03*
G04 #@! TD*
G04 #@! TO.C,MX5*
X39030773Y104040776D03*
D18*
X36490773Y109120776D03*
D19*
X33950773Y104040776D03*
D18*
X30140773Y106580776D03*
D17*
X28870773Y104040776D03*
G04 #@! TD*
G04 #@! TO.C,MX5*
X102030773Y104040776D03*
D18*
X99490773Y109120776D03*
D19*
X96950773Y104040776D03*
D18*
X93140773Y106580776D03*
D17*
X91870773Y104040776D03*
G04 #@! TD*
G04 #@! TO.C,MX5*
X34969231Y36959229D03*
D18*
X37509231Y31879229D03*
D19*
X40049231Y36959229D03*
D18*
X43859231Y34419229D03*
D17*
X45129231Y36959229D03*
G04 #@! TD*
M02*
