M48
; DRILL file {KiCad (5.99.0-10540-g55c1d814f9)} date Fri May 28 07:35:33 2021
; FORMAT={-:-/ absolute / metric / decimal}
; #@! TF.CreationDate,2021-05-28T07:35:33+02:00
; #@! TF.GenerationSoftware,Kicad,Pcbnew,(5.99.0-10540-g55c1d814f9)
; #@! TF.FileFunction,Plated,1,2,PTH
FMAT,2
METRIC
; #@! TA.AperFunction,Plated,PTH,ViaDrill
T1C0.300
; #@! TA.AperFunction,Plated,PTH,ComponentDrill
T2C0.300
; #@! TA.AperFunction,Plated,PTH,ComponentDrill
T3C0.600
; #@! TA.AperFunction,Plated,PTH,ComponentDrill
T4C1.000
; #@! TA.AperFunction,Plated,PTH,ComponentDrill
T5C1.040
; #@! TA.AperFunction,Plated,PTH,ComponentDrill
T6C1.470
; #@! TA.AperFunction,Plated,PTH,ComponentDrill
T7C2.600
%
G90
G05
T1
X136.56Y-108.16
X137.76Y-77.52
X138.43Y-77.978
X139.81Y-77.91
X140.208Y-91.186
X140.21Y-104.46
X140.93Y-78.614
X142.58Y-77.55
X145.617Y-124.303
X146.812Y-116.332
X149.12Y-115.499
X149.606Y-122.682
X153.162Y-125.984
X153.416Y-89.408
X154.27Y-98.54
X155.194Y-95.25
X155.35Y-126.26
X155.445Y-93.255
X155.83Y-98.47
X156.36Y-91.56
X156.36Y-119.15
X156.56Y-89.408
X157.01Y-127.22
X157.3Y-128.269
X157.46Y-101.17
X157.86Y-86.439
X158.086Y-117.967
X158.55Y-124.87
X158.75Y-91.44
X158.815Y-89.251
X158.815Y-89.251
X158.99Y-87.68
X159.258Y-86.868
X159.38Y-114.67
X159.416Y-88.649
X159.416Y-88.649
X159.473Y-117.757
X160.11Y-114.66
X160.274Y-103.124
X160.88Y-126.92
X160.913Y-93.095
X161.056Y-86.64
X161.17Y-77.55
X161.282Y-80.257
X161.29Y-94.996
X161.76Y-126.239
X161.99Y-92.68
X162.03Y-115.98
X162.48Y-127.72
X162.51Y-89.01
X162.56Y-95.25
X162.6Y-90.235
X162.6Y-91.085
X162.86Y-87.87
X163.311Y-77.91
X163.46Y-127.65
X163.52Y-85.03
X163.597Y-83.977
X164.47Y-127.45
X164.56Y-79.08
X164.61Y-94.59
X164.78Y-107.94
X165.96Y-77.59
X165.96Y-119.54
X166.17Y-124.206
X166.294Y-123.194
X166.624Y-120.142
X166.624Y-121.412
X167.132Y-118.11
X167.132Y-122.174
X168.123Y-95.239
X168.402Y-93.472
X169.5Y-93.46
X170.19Y-118.98
X171.04Y-95.25
X171.054Y-94.531
X172.1Y-91.4
X174.17Y-92.35
X176.08Y-91.39
T2
X156.896Y-94.99
X157.603Y-94.283
X157.603Y-95.697
X158.31Y-93.576
X158.31Y-94.99
X158.31Y-96.404
X158.427Y-121.666
X159.017Y-94.283
X159.017Y-95.697
X159.724Y-94.99
X160.089Y-120.004
X160.089Y-121.666
X160.089Y-123.328
X161.751Y-118.343
X161.751Y-120.004
X161.751Y-121.666
X161.751Y-123.328
X161.751Y-124.989
X163.412Y-120.004
X163.412Y-121.666
X163.412Y-123.328
X165.074Y-121.666
T4
X125.286Y-71.188
X127.826Y-71.188
X130.366Y-71.188
X132.906Y-71.188
X137.922Y-117.348
X137.922Y-119.888
X137.922Y-122.428
X140.462Y-117.348
X140.462Y-119.888
X140.462Y-122.428
X171.528Y-74.526
X171.528Y-89.026
X174.028Y-89.026
X176.528Y-74.526
X176.528Y-89.026
T5
X128.53Y-86.66
X128.53Y-105.71
X128.53Y-124.76
X131.07Y-86.66
X131.07Y-105.71
X131.07Y-124.76
X147.46Y-105.76
X147.58Y-86.66
X147.58Y-124.76
X150.0Y-105.76
X150.12Y-86.66
X150.12Y-124.76
X172.61Y-105.75
X172.73Y-86.65
X172.73Y-124.75
X175.15Y-105.75
X175.27Y-86.65
X175.27Y-124.75
T6
X125.99Y-79.04
X125.99Y-98.09
X125.99Y-117.14
X132.34Y-76.5
X132.34Y-95.55
X132.34Y-114.6
X144.92Y-98.14
X145.04Y-79.04
X145.04Y-117.14
X151.27Y-95.6
X151.39Y-76.5
X151.39Y-114.6
X170.07Y-98.13
X170.19Y-79.03
X170.19Y-117.13
X176.42Y-95.59
X176.54Y-76.49
X176.54Y-114.59
T7
X168.428Y-81.526
X179.628Y-81.526
T3
G00X134.552Y-70.454
M15
G01X134.552Y-71.654
M16
G05
G00X134.552Y-74.654
M15
G01X134.552Y-75.454
M16
G05
G00X145.792Y-70.454
M15
G01X145.792Y-71.654
M16
G05
G00X145.792Y-74.654
M15
G01X145.792Y-75.454
M16
G05
G00X157.942Y-70.462
M15
G01X157.942Y-71.662
M16
G05
G00X157.942Y-74.661
M15
G01X157.942Y-75.462
M16
G05
G00X169.182Y-70.462
M15
G01X169.182Y-71.662
M16
G05
G00X169.182Y-74.661
M15
G01X169.182Y-75.462
M16
G05
T0
M30
