%TF.GenerationSoftware,KiCad,Pcbnew,(5.99.0-10540-g55c1d814f9)*%
%TF.CreationDate,2021-05-28T07:36:21+02:00*%
%TF.ProjectId,1337-v3.0,31333337-2d76-4332-9e30-2e6b69636164,3.0*%
%TF.SameCoordinates,Original*%
%TF.FileFunction,Paste,Bot*%
%TF.FilePolarity,Positive*%
%FSLAX46Y46*%
G04 Gerber Fmt 4.6, Leading zero omitted, Abs format (unit mm)*
G04 Created by KiCad (PCBNEW (5.99.0-10540-g55c1d814f9)) date 2021-05-28 07:36:21*
%MOMM*%
%LPD*%
G01*
G04 APERTURE LIST*
G04 Aperture macros list*
%AMRoundRect*
0 Rectangle with rounded corners*
0 $1 Rounding radius*
0 $2 $3 $4 $5 $6 $7 $8 $9 X,Y pos of 4 corners*
0 Add a 4 corners polygon primitive as box body*
4,1,4,$2,$3,$4,$5,$6,$7,$8,$9,$2,$3,0*
0 Add four circle primitives for the rounded corners*
1,1,$1+$1,$2,$3*
1,1,$1+$1,$4,$5*
1,1,$1+$1,$6,$7*
1,1,$1+$1,$8,$9*
0 Add four rect primitives between the rounded corners*
20,1,$1+$1,$2,$3,$4,$5,0*
20,1,$1+$1,$4,$5,$6,$7,0*
20,1,$1+$1,$6,$7,$8,$9,0*
20,1,$1+$1,$8,$9,$2,$3,0*%
%AMFreePoly0*
4,1,51,0.328940,0.270148,0.332669,0.270806,0.335948,0.268913,0.347022,0.266960,0.363988,0.252723,0.383168,0.241650,0.385799,0.234421,0.391691,0.229478,0.395537,0.207667,0.403112,0.186855,0.403112,-0.116234,0.402193,-0.121446,0.402786,-0.123663,0.401202,-0.127060,0.397971,-0.145390,0.386007,-0.159647,0.378144,-0.176512,0.307524,-0.247133,0.303189,-0.250167,0.302041,-0.252157,
0.298519,-0.253439,0.283273,-0.264114,0.264734,-0.265736,0.247246,-0.272101,-0.247246,-0.272101,-0.252459,-0.271182,-0.254677,-0.271776,-0.258075,-0.270192,-0.276402,-0.266960,-0.290659,-0.254997,-0.307525,-0.247132,-0.378144,-0.176512,-0.381179,-0.172177,-0.383168,-0.171029,-0.384451,-0.167505,-0.395125,-0.152261,-0.396747,-0.133722,-0.403112,-0.116234,-0.403112,0.186855,-0.401159,0.197929,
-0.401817,0.201658,-0.399924,0.204937,-0.397971,0.216011,-0.383735,0.232977,-0.372661,0.252157,-0.365433,0.254788,-0.360489,0.260680,-0.338678,0.264527,-0.317866,0.272101,0.317866,0.272101,0.328940,0.270148,0.328940,0.270148,$1*%
%AMFreePoly1*
4,1,51,0.197929,0.401159,0.201658,0.401817,0.204937,0.399924,0.216011,0.397971,0.232977,0.383735,0.252157,0.372661,0.254788,0.365433,0.260680,0.360489,0.264527,0.338678,0.272101,0.317866,0.272101,-0.317866,0.270148,-0.328940,0.270806,-0.332669,0.268913,-0.335948,0.266960,-0.347022,0.252723,-0.363988,0.241650,-0.383168,0.234421,-0.385799,0.229478,-0.391691,0.207667,-0.395537,
0.186855,-0.403112,-0.116234,-0.403112,-0.121446,-0.402193,-0.123663,-0.402786,-0.127060,-0.401202,-0.145390,-0.397971,-0.159647,-0.386007,-0.176512,-0.378144,-0.247133,-0.307524,-0.250167,-0.303189,-0.252157,-0.302041,-0.253439,-0.298519,-0.264114,-0.283273,-0.265736,-0.264734,-0.272101,-0.247246,-0.272101,0.247246,-0.271182,0.252459,-0.271776,0.254676,-0.270192,0.258073,-0.266960,0.276402,
-0.254997,0.290658,-0.247133,0.307524,-0.176512,0.378144,-0.172177,0.381179,-0.171029,0.383168,-0.167505,0.384451,-0.152261,0.395125,-0.133722,0.396747,-0.116234,0.403112,0.186855,0.403112,0.197929,0.401159,0.197929,0.401159,$1*%
%AMFreePoly2*
4,1,48,0.180784,0.266839,0.197812,0.266839,0.211588,0.256830,0.227782,0.251568,0.237792,0.237792,0.251568,0.227782,0.256830,0.211588,0.266839,0.197812,0.266839,0.180784,0.272100,0.164589,0.272101,-0.075523,0.269420,-0.083774,0.270777,-0.092342,0.259348,-0.114773,0.251568,-0.138717,0.244550,-0.143816,0.240611,-0.151546,0.151545,-0.240611,0.143817,-0.244549,0.138717,-0.251568,
0.114772,-0.259348,0.092342,-0.270777,0.083774,-0.269420,0.075523,-0.272101,-0.164589,-0.272100,-0.180784,-0.266839,-0.197812,-0.266839,-0.211588,-0.256830,-0.227782,-0.251568,-0.237792,-0.237792,-0.251568,-0.227782,-0.256830,-0.211588,-0.266839,-0.197812,-0.266839,-0.180784,-0.272100,-0.164589,-0.272100,0.164589,-0.266839,0.180784,-0.266839,0.197812,-0.256830,0.211588,-0.251568,0.227782,
-0.237792,0.237792,-0.227782,0.251568,-0.211588,0.256830,-0.197812,0.266839,-0.180784,0.266839,-0.164589,0.272100,0.164589,0.272100,0.180784,0.266839,0.180784,0.266839,$1*%
%AMFreePoly3*
4,1,51,0.121446,0.402193,0.123663,0.402786,0.127060,0.401202,0.145390,0.397971,0.159647,0.386007,0.176512,0.378144,0.247132,0.307525,0.250167,0.303189,0.252157,0.302041,0.253441,0.298517,0.264114,0.283273,0.265736,0.264734,0.272101,0.247246,0.272101,-0.247246,0.271182,-0.252459,0.271776,-0.254677,0.270192,-0.258075,0.266960,-0.276402,0.254997,-0.290659,0.247132,-0.307525,
0.176512,-0.378144,0.172177,-0.381179,0.171029,-0.383168,0.167505,-0.384451,0.152261,-0.395125,0.133722,-0.396747,0.116234,-0.403112,-0.186855,-0.403112,-0.197929,-0.401159,-0.201658,-0.401817,-0.204937,-0.399924,-0.216011,-0.397971,-0.232977,-0.383735,-0.252157,-0.372661,-0.254788,-0.365433,-0.260680,-0.360489,-0.264527,-0.338678,-0.272101,-0.317866,-0.272101,0.317866,-0.270148,0.328940,
-0.270806,0.332669,-0.268913,0.335948,-0.266960,0.347022,-0.252723,0.363988,-0.241650,0.383168,-0.234421,0.385799,-0.229478,0.391691,-0.207667,0.395537,-0.186855,0.403112,0.116234,0.403112,0.121446,0.402193,0.121446,0.402193,$1*%
%AMFreePoly4*
4,1,48,0.180784,0.266839,0.197812,0.266839,0.211588,0.256830,0.227782,0.251568,0.237792,0.237792,0.251568,0.227782,0.256830,0.211588,0.266839,0.197812,0.266839,0.180784,0.272100,0.164589,0.272100,-0.164589,0.266839,-0.180784,0.266839,-0.197812,0.256830,-0.211588,0.251568,-0.227782,0.237792,-0.237792,0.227782,-0.251568,0.211588,-0.256830,0.197812,-0.266839,0.180784,-0.266839,
0.164589,-0.272100,-0.075523,-0.272101,-0.083774,-0.269420,-0.092342,-0.270777,-0.114773,-0.259348,-0.138717,-0.251568,-0.143816,-0.244550,-0.151546,-0.240611,-0.240611,-0.151545,-0.244549,-0.143817,-0.251568,-0.138717,-0.259348,-0.114772,-0.270777,-0.092342,-0.269420,-0.083774,-0.272101,-0.075523,-0.272100,0.164589,-0.266839,0.180784,-0.266839,0.197812,-0.256830,0.211588,-0.251568,0.227782,
-0.237792,0.237792,-0.227782,0.251568,-0.211588,0.256830,-0.197812,0.266839,-0.180784,0.266839,-0.164589,0.272100,0.164589,0.272100,0.180784,0.266839,0.180784,0.266839,$1*%
%AMFreePoly5*
4,1,48,0.083774,0.269420,0.092342,0.270777,0.114772,0.259348,0.138717,0.251568,0.143817,0.244549,0.151545,0.240611,0.240611,0.151546,0.244550,0.143816,0.251568,0.138717,0.259348,0.114773,0.270777,0.092342,0.269420,0.083774,0.272101,0.075523,0.272100,-0.164589,0.266839,-0.180784,0.266839,-0.197812,0.256830,-0.211588,0.251568,-0.227782,0.237792,-0.237792,0.227782,-0.251568,
0.211588,-0.256830,0.197812,-0.266839,0.180784,-0.266839,0.164589,-0.272100,-0.164589,-0.272100,-0.180784,-0.266839,-0.197812,-0.266839,-0.211588,-0.256830,-0.227782,-0.251568,-0.237792,-0.237792,-0.251568,-0.227782,-0.256830,-0.211588,-0.266839,-0.197812,-0.266839,-0.180784,-0.272100,-0.164589,-0.272100,0.164589,-0.266839,0.180784,-0.266839,0.197812,-0.256830,0.211588,-0.251568,0.227782,
-0.237792,0.237792,-0.227782,0.251568,-0.211588,0.256830,-0.197812,0.266839,-0.180784,0.266839,-0.164589,0.272100,0.075523,0.272101,0.083774,0.269420,0.083774,0.269420,$1*%
%AMFreePoly6*
4,1,51,0.252459,0.271182,0.254676,0.271776,0.258073,0.270192,0.276402,0.266960,0.290658,0.254997,0.307524,0.247133,0.378144,0.176512,0.381179,0.172177,0.383168,0.171029,0.384451,0.167505,0.395125,0.152261,0.396747,0.133722,0.403112,0.116234,0.403112,-0.186855,0.401159,-0.197929,0.401817,-0.201658,0.399924,-0.204937,0.397971,-0.216011,0.383735,-0.232977,0.372661,-0.252157,
0.365433,-0.254788,0.360489,-0.260680,0.338678,-0.264527,0.317866,-0.272101,-0.317866,-0.272101,-0.328940,-0.270148,-0.332669,-0.270806,-0.335948,-0.268913,-0.347022,-0.266960,-0.363988,-0.252723,-0.383168,-0.241650,-0.385799,-0.234421,-0.391691,-0.229478,-0.395537,-0.207667,-0.403112,-0.186855,-0.403112,0.116234,-0.402193,0.121446,-0.402786,0.123663,-0.401202,0.127060,-0.397971,0.145390,
-0.386007,0.159647,-0.378144,0.176512,-0.307525,0.247132,-0.303189,0.250167,-0.302041,0.252157,-0.298517,0.253441,-0.283273,0.264114,-0.264734,0.265736,-0.247246,0.272101,0.247246,0.272101,0.252459,0.271182,0.252459,0.271182,$1*%
%AMFreePoly7*
4,1,48,0.180784,0.266839,0.197812,0.266839,0.211588,0.256830,0.227782,0.251568,0.237792,0.237792,0.251568,0.227782,0.256830,0.211588,0.266839,0.197812,0.266839,0.180784,0.272100,0.164589,0.272100,-0.164589,0.266839,-0.180784,0.266839,-0.197812,0.256830,-0.211588,0.251568,-0.227782,0.237792,-0.237792,0.227782,-0.251568,0.211588,-0.256830,0.197812,-0.266839,0.180784,-0.266839,
0.164589,-0.272100,-0.164589,-0.272100,-0.180784,-0.266839,-0.197812,-0.266839,-0.211588,-0.256830,-0.227782,-0.251568,-0.237792,-0.237792,-0.251568,-0.227782,-0.256830,-0.211588,-0.266839,-0.197812,-0.266839,-0.180784,-0.272100,-0.164589,-0.272101,0.075523,-0.269420,0.083774,-0.270777,0.092342,-0.259348,0.114772,-0.251568,0.138717,-0.244549,0.143817,-0.240611,0.151545,-0.151546,0.240611,
-0.143816,0.244550,-0.138717,0.251568,-0.114773,0.259348,-0.092342,0.270777,-0.083774,0.269420,-0.075523,0.272101,0.164589,0.272100,0.180784,0.266839,0.180784,0.266839,$1*%
G04 Aperture macros list end*
%ADD10RoundRect,0.225000X0.225000X0.250000X-0.225000X0.250000X-0.225000X-0.250000X0.225000X-0.250000X0*%
%ADD11RoundRect,0.225000X0.250000X-0.225000X0.250000X0.225000X-0.250000X0.225000X-0.250000X-0.225000X0*%
%ADD12RoundRect,0.200000X-0.200000X-0.275000X0.200000X-0.275000X0.200000X0.275000X-0.200000X0.275000X0*%
%ADD13R,0.500000X0.800000*%
%ADD14R,0.400000X0.800000*%
%ADD15RoundRect,0.200000X0.200000X0.275000X-0.200000X0.275000X-0.200000X-0.275000X0.200000X-0.275000X0*%
%ADD16RoundRect,0.225000X-0.225000X-0.250000X0.225000X-0.250000X0.225000X0.250000X-0.225000X0.250000X0*%
%ADD17RoundRect,0.250000X-0.312500X-0.625000X0.312500X-0.625000X0.312500X0.625000X-0.312500X0.625000X0*%
%ADD18RoundRect,0.250000X0.312500X0.625000X-0.312500X0.625000X-0.312500X-0.625000X0.312500X-0.625000X0*%
%ADD19R,1.500000X1.000000*%
%ADD20RoundRect,0.200000X-0.275000X0.200000X-0.275000X-0.200000X0.275000X-0.200000X0.275000X0.200000X0*%
%ADD21RoundRect,0.225000X-0.250000X0.225000X-0.250000X-0.225000X0.250000X-0.225000X0.250000X0.225000X0*%
%ADD22RoundRect,0.150000X0.825000X0.150000X-0.825000X0.150000X-0.825000X-0.150000X0.825000X-0.150000X0*%
%ADD23RoundRect,0.225000X-0.017678X0.335876X-0.335876X0.017678X0.017678X-0.335876X0.335876X-0.017678X0*%
%ADD24RoundRect,0.243750X-0.456250X0.243750X-0.456250X-0.243750X0.456250X-0.243750X0.456250X0.243750X0*%
%ADD25RoundRect,0.150000X-0.150000X0.512500X-0.150000X-0.512500X0.150000X-0.512500X0.150000X0.512500X0*%
%ADD26RoundRect,0.170000X0.330000X-0.255000X0.330000X0.255000X-0.330000X0.255000X-0.330000X-0.255000X0*%
%ADD27R,0.600000X1.150000*%
%ADD28R,0.300000X1.150000*%
%ADD29RoundRect,0.270000X0.063640X0.445477X-0.445477X-0.063640X-0.063640X-0.445477X0.445477X0.063640X0*%
%ADD30RoundRect,0.250000X0.000000X0.358486X-0.358486X0.000000X0.000000X-0.358486X0.358486X0.000000X0*%
%ADD31RoundRect,0.062500X0.291682X0.380070X-0.380070X-0.291682X-0.291682X-0.380070X0.380070X0.291682X0*%
%ADD32RoundRect,0.062500X-0.291682X0.380070X-0.380070X0.291682X0.291682X-0.380070X0.380070X-0.291682X0*%
%ADD33RoundRect,0.170000X0.255000X0.330000X-0.255000X0.330000X-0.255000X-0.330000X0.255000X-0.330000X0*%
%ADD34RoundRect,0.079500X0.079500X0.100500X-0.079500X0.100500X-0.079500X-0.100500X0.079500X-0.100500X0*%
%ADD35R,1.700000X1.000000*%
%ADD36RoundRect,0.170000X-0.330000X0.255000X-0.330000X-0.255000X0.330000X-0.255000X0.330000X0.255000X0*%
%ADD37RoundRect,0.200000X0.275000X-0.200000X0.275000X0.200000X-0.275000X0.200000X-0.275000X-0.200000X0*%
%ADD38RoundRect,0.243750X0.243750X0.456250X-0.243750X0.456250X-0.243750X-0.456250X0.243750X-0.456250X0*%
%ADD39RoundRect,0.225000X0.017678X-0.335876X0.335876X-0.017678X-0.017678X0.335876X-0.335876X0.017678X0*%
%ADD40FreePoly0,225.000000*%
%ADD41FreePoly1,225.000000*%
%ADD42FreePoly2,225.000000*%
%ADD43RoundRect,0.201557X0.000000X0.285043X-0.285043X0.000000X0.000000X-0.285043X0.285043X0.000000X0*%
%ADD44FreePoly3,225.000000*%
%ADD45FreePoly4,225.000000*%
%ADD46FreePoly5,225.000000*%
%ADD47FreePoly6,225.000000*%
%ADD48FreePoly7,225.000000*%
%ADD49RoundRect,0.062500X0.194454X0.282843X-0.282843X-0.194454X-0.194454X-0.282843X0.282843X0.194454X0*%
%ADD50RoundRect,0.062500X-0.194454X0.282843X-0.282843X0.194454X0.194454X-0.282843X0.282843X-0.194454X0*%
G04 APERTURE END LIST*
D10*
%TO.C,C22*%
X170193000Y-86868000D03*
X168643000Y-86868000D03*
%TD*%
D11*
%TO.C,C27*%
X155930000Y-115835000D03*
X155930000Y-114285000D03*
%TD*%
%TO.C,C15*%
X155696000Y-90135000D03*
X155696000Y-88585000D03*
%TD*%
D12*
%TO.C,R7*%
X143002000Y-122428000D03*
X144652000Y-122428000D03*
%TD*%
D13*
%TO.C,RN2*%
X172960000Y-91460000D03*
D14*
X173760000Y-91460000D03*
X174560000Y-91460000D03*
D13*
X175360000Y-91460000D03*
X175360000Y-93260000D03*
D14*
X174560000Y-93260000D03*
X173760000Y-93260000D03*
D13*
X172960000Y-93260000D03*
%TD*%
D15*
%TO.C,R3*%
X167747000Y-78924000D03*
X166097000Y-78924000D03*
%TD*%
D16*
%TO.C,C20*%
X166645000Y-115630000D03*
X168195000Y-115630000D03*
%TD*%
D17*
%TO.C,R20*%
X177353500Y-105664000D03*
X180278500Y-105664000D03*
%TD*%
D18*
%TO.C,R18*%
X131256500Y-108204000D03*
X128331500Y-108204000D03*
%TD*%
D19*
%TO.C,D1*%
X140118000Y-108128000D03*
X140118000Y-111328000D03*
X135218000Y-111328000D03*
X135218000Y-108128000D03*
%TD*%
D11*
%TO.C,C14*%
X152648000Y-90135000D03*
X152648000Y-88585000D03*
%TD*%
D20*
%TO.C,R9*%
X148890000Y-91625000D03*
X148890000Y-93275000D03*
%TD*%
D21*
%TO.C,C2*%
X158130000Y-100315000D03*
X158130000Y-101865000D03*
%TD*%
D11*
%TO.C,C1*%
X157220000Y-90135000D03*
X157220000Y-88585000D03*
%TD*%
D22*
%TO.C,Q1*%
X149033000Y-108839000D03*
X149033000Y-110109000D03*
X149033000Y-111379000D03*
X149033000Y-112649000D03*
X144083000Y-112649000D03*
X144083000Y-111379000D03*
X144083000Y-110109000D03*
X144083000Y-108839000D03*
%TD*%
D23*
%TO.C,C16*%
X163268008Y-96371992D03*
X162171992Y-97468008D03*
%TD*%
D12*
%TO.C,R14*%
X153353000Y-121666000D03*
X155003000Y-121666000D03*
%TD*%
D24*
%TO.C,F2*%
X137312000Y-80504000D03*
X137312000Y-82379000D03*
%TD*%
D18*
%TO.C,R16*%
X149592500Y-89070000D03*
X146667500Y-89070000D03*
%TD*%
D10*
%TO.C,C9*%
X157493000Y-112268000D03*
X155943000Y-112268000D03*
%TD*%
%TO.C,C24*%
X141745000Y-86868000D03*
X140195000Y-86868000D03*
%TD*%
D25*
%TO.C,U2*%
X162732000Y-80344000D03*
X163682000Y-80344000D03*
X164632000Y-80344000D03*
X164632000Y-82619000D03*
X163682000Y-82619000D03*
X162732000Y-82619000D03*
%TD*%
D26*
%TO.C,FB2*%
X154172000Y-90160000D03*
X154172000Y-88560000D03*
%TD*%
D27*
%TO.C,J1*%
X160362000Y-76361500D03*
X161162000Y-76361500D03*
D28*
X162312000Y-76361500D03*
X163312000Y-76361500D03*
X163812000Y-76361500D03*
X164812000Y-76361500D03*
D27*
X165962000Y-76361500D03*
X166762000Y-76361500D03*
X166762000Y-76361500D03*
X165962000Y-76361500D03*
D28*
X165312000Y-76361500D03*
X164312000Y-76361500D03*
X162812000Y-76361500D03*
X161812000Y-76361500D03*
D27*
X161162000Y-76361500D03*
X160362000Y-76361500D03*
%TD*%
D18*
%TO.C,R21*%
X131256500Y-127254000D03*
X128331500Y-127254000D03*
%TD*%
D10*
%TO.C,C21*%
X137597000Y-78984000D03*
X136047000Y-78984000D03*
%TD*%
D18*
%TO.C,R22*%
X150306500Y-127254000D03*
X147381500Y-127254000D03*
%TD*%
D29*
%TO.C,Y1*%
X164698858Y-99733223D03*
X163143223Y-101288858D03*
X161941142Y-100086777D03*
X163496777Y-98531142D03*
%TD*%
D19*
%TO.C,D4*%
X168566000Y-108128000D03*
X168566000Y-111328000D03*
X163666000Y-111328000D03*
X163666000Y-108128000D03*
%TD*%
D21*
%TO.C,C7*%
X159580000Y-126855000D03*
X159580000Y-128405000D03*
%TD*%
D11*
%TO.C,C26*%
X157480000Y-115837000D03*
X157480000Y-114287000D03*
%TD*%
D27*
%TO.C,J3*%
X136972000Y-76354000D03*
X137772000Y-76354000D03*
D28*
X138922000Y-76354000D03*
X139922000Y-76354000D03*
X140422000Y-76354000D03*
X141422000Y-76354000D03*
D27*
X142572000Y-76354000D03*
X143372000Y-76354000D03*
X143372000Y-76354000D03*
X142572000Y-76354000D03*
D28*
X141922000Y-76354000D03*
X140922000Y-76354000D03*
X139422000Y-76354000D03*
X138422000Y-76354000D03*
D27*
X137772000Y-76354000D03*
X136972000Y-76354000D03*
%TD*%
D30*
%TO.C,U3*%
X160919750Y-123327701D03*
X163412301Y-122496850D03*
X162581450Y-120004299D03*
X160088899Y-122496850D03*
X161750600Y-124158551D03*
X162581450Y-123327701D03*
X162581450Y-121666000D03*
X160919750Y-120004299D03*
X161750600Y-122496850D03*
X163412301Y-120835150D03*
X160088899Y-120835150D03*
X160919750Y-121666000D03*
X164243151Y-121666000D03*
X161750600Y-120835150D03*
X159258049Y-121666000D03*
X161750600Y-119173449D03*
D31*
X162342802Y-117538264D03*
X162696355Y-117891818D03*
X163049909Y-118245371D03*
X163403462Y-118598924D03*
X163757015Y-118952478D03*
X164110569Y-119306031D03*
X164464122Y-119659585D03*
X164817676Y-120013138D03*
X165171229Y-120366691D03*
X165524782Y-120720245D03*
X165878336Y-121073798D03*
D32*
X165878336Y-122258202D03*
X165524782Y-122611755D03*
X165171229Y-122965309D03*
X164817676Y-123318862D03*
X164464122Y-123672415D03*
X164110569Y-124025969D03*
X163757015Y-124379522D03*
X163403462Y-124733076D03*
X163049909Y-125086629D03*
X162696355Y-125440182D03*
X162342802Y-125793736D03*
D31*
X161158398Y-125793736D03*
X160804845Y-125440182D03*
X160451291Y-125086629D03*
X160097738Y-124733076D03*
X159744185Y-124379522D03*
X159390631Y-124025969D03*
X159037078Y-123672415D03*
X158683524Y-123318862D03*
X158329971Y-122965309D03*
X157976418Y-122611755D03*
X157622864Y-122258202D03*
D32*
X157622864Y-121073798D03*
X157976418Y-120720245D03*
X158329971Y-120366691D03*
X158683524Y-120013138D03*
X159037078Y-119659585D03*
X159390631Y-119306031D03*
X159744185Y-118952478D03*
X160097738Y-118598924D03*
X160451291Y-118245371D03*
X160804845Y-117891818D03*
X161158398Y-117538264D03*
%TD*%
D10*
%TO.C,C13*%
X155075000Y-99294000D03*
X153525000Y-99294000D03*
%TD*%
%TO.C,C23*%
X141745000Y-105918000D03*
X140195000Y-105918000D03*
%TD*%
D33*
%TO.C,FB1*%
X159310000Y-85060000D03*
X157710000Y-85060000D03*
%TD*%
D21*
%TO.C,C4*%
X168656000Y-94475000D03*
X168656000Y-96025000D03*
%TD*%
D19*
%TO.C,D2*%
X140118000Y-89078000D03*
X140118000Y-92278000D03*
X135218000Y-92278000D03*
X135218000Y-89078000D03*
%TD*%
D25*
%TO.C,U4*%
X139092000Y-80276500D03*
X140042000Y-80276500D03*
X140992000Y-80276500D03*
X140992000Y-82551500D03*
X140042000Y-82551500D03*
X139092000Y-82551500D03*
%TD*%
D21*
%TO.C,C3*%
X170180000Y-94475000D03*
X170180000Y-96025000D03*
%TD*%
D34*
%TO.C,JP1*%
X162345000Y-83970000D03*
X163035000Y-83970000D03*
%TD*%
D17*
%TO.C,R17*%
X177292000Y-86614000D03*
X180217000Y-86614000D03*
%TD*%
D15*
%TO.C,R13*%
X161099000Y-103378000D03*
X159449000Y-103378000D03*
%TD*%
D20*
%TO.C,R11*%
X154190000Y-91615000D03*
X154190000Y-93265000D03*
%TD*%
D35*
%TO.C,SW1*%
X142596000Y-129408000D03*
X136296000Y-129408000D03*
X136296000Y-125608000D03*
X142596000Y-125608000D03*
%TD*%
D17*
%TO.C,R23*%
X177353500Y-124714000D03*
X180278500Y-124714000D03*
%TD*%
D21*
%TO.C,C5*%
X156606000Y-100315000D03*
X156606000Y-101865000D03*
%TD*%
D36*
%TO.C,FB3*%
X137302000Y-83874000D03*
X137302000Y-85474000D03*
%TD*%
D37*
%TO.C,R6*%
X162680000Y-86935000D03*
X162680000Y-85285000D03*
%TD*%
D10*
%TO.C,C6*%
X161197000Y-81524000D03*
X159647000Y-81524000D03*
%TD*%
D38*
%TO.C,F1*%
X161159500Y-83274000D03*
X159284500Y-83274000D03*
%TD*%
D10*
%TO.C,C25*%
X170193000Y-105918000D03*
X168643000Y-105918000D03*
%TD*%
D19*
%TO.C,D3*%
X168566000Y-89078000D03*
X168566000Y-92278000D03*
X163666000Y-92278000D03*
X163666000Y-89078000D03*
%TD*%
D13*
%TO.C,RN1*%
X150340000Y-91560000D03*
D14*
X151140000Y-91560000D03*
X151940000Y-91560000D03*
D13*
X152740000Y-91560000D03*
X152740000Y-93360000D03*
D14*
X151940000Y-93360000D03*
X151140000Y-93360000D03*
D13*
X150340000Y-93360000D03*
%TD*%
D15*
%TO.C,R12*%
X156385000Y-83280000D03*
X154735000Y-83280000D03*
%TD*%
D39*
%TO.C,C19*%
X165471992Y-128098008D03*
X166568008Y-127001992D03*
%TD*%
D23*
%TO.C,C18*%
X168728008Y-124851992D03*
X167631992Y-125948008D03*
%TD*%
D18*
%TO.C,R29*%
X154116500Y-112268000D03*
X151191500Y-112268000D03*
%TD*%
D17*
%TO.C,R19*%
X152207500Y-105664000D03*
X155132500Y-105664000D03*
%TD*%
D37*
%TO.C,R5*%
X164690000Y-86935000D03*
X164690000Y-85285000D03*
%TD*%
D10*
%TO.C,C12*%
X155075000Y-97770000D03*
X153525000Y-97770000D03*
%TD*%
D18*
%TO.C,R15*%
X131256500Y-89154000D03*
X128331500Y-89154000D03*
%TD*%
D15*
%TO.C,R2*%
X161257000Y-78944000D03*
X159607000Y-78944000D03*
%TD*%
D37*
%TO.C,R28*%
X151130000Y-110299000D03*
X151130000Y-108649000D03*
%TD*%
D29*
%TO.C,Y2*%
X170288858Y-128093223D03*
X168733223Y-129648858D03*
X167531142Y-128446777D03*
X169086777Y-126891142D03*
%TD*%
D10*
%TO.C,C10*%
X157493000Y-109220000D03*
X155943000Y-109220000D03*
%TD*%
D34*
%TO.C,JP2*%
X165025000Y-83950000D03*
X164335000Y-83950000D03*
%TD*%
D40*
%TO.C,U1*%
X159609309Y-95582202D03*
D41*
X157010691Y-95582202D03*
D42*
X160201511Y-94990000D03*
D43*
X158310000Y-94282893D03*
D44*
X158902202Y-93690691D03*
D45*
X158310000Y-96881511D03*
D46*
X158310000Y-93098489D03*
D43*
X157602893Y-94990000D03*
X158310000Y-95697107D03*
D47*
X157717798Y-93690691D03*
D40*
X158902202Y-96289309D03*
D41*
X157717798Y-96289309D03*
D47*
X157010691Y-94397798D03*
D44*
X159609309Y-94397798D03*
D48*
X156418489Y-94990000D03*
D43*
X159017107Y-94990000D03*
D49*
X158981751Y-92196928D03*
X159335305Y-92550482D03*
X159688858Y-92904035D03*
X160042412Y-93257588D03*
X160395965Y-93611142D03*
X160749518Y-93964695D03*
X161103072Y-94318249D03*
D50*
X161103072Y-95661751D03*
X160749518Y-96015305D03*
X160395965Y-96368858D03*
X160042412Y-96722412D03*
X159688858Y-97075965D03*
X159335305Y-97429518D03*
X158981751Y-97783072D03*
D49*
X157638249Y-97783072D03*
X157284695Y-97429518D03*
X156931142Y-97075965D03*
X156577588Y-96722412D03*
X156224035Y-96368858D03*
X155870482Y-96015305D03*
X155516928Y-95661751D03*
D50*
X155516928Y-94318249D03*
X155870482Y-93964695D03*
X156224035Y-93611142D03*
X156577588Y-93257588D03*
X156931142Y-92904035D03*
X157284695Y-92550482D03*
X157638249Y-92196928D03*
%TD*%
D39*
%TO.C,C17*%
X160021992Y-99628008D03*
X161118008Y-98531992D03*
%TD*%
D10*
%TO.C,C11*%
X156365000Y-117820000D03*
X154815000Y-117820000D03*
%TD*%
D16*
%TO.C,C8*%
X168389000Y-121666000D03*
X169939000Y-121666000D03*
%TD*%
M02*
