M48
; DRILL file {KiCad (5.99.0-10540-g55c1d814f9)} date Fri May 28 07:35:33 2021
; FORMAT={-:-/ absolute / metric / decimal}
; #@! TF.CreationDate,2021-05-28T07:35:33+02:00
; #@! TF.GenerationSoftware,Kicad,Pcbnew,(5.99.0-10540-g55c1d814f9)
; #@! TF.FileFunction,NonPlated,1,2,NPTH
FMAT,2
METRIC
; #@! TA.AperFunction,NonPlated,NPTH,ComponentDrill
T1C1.750
; #@! TA.AperFunction,NonPlated,NPTH,ComponentDrill
T2C3.988
%
G90
G05
T1
X124.72Y-81.58
X124.72Y-100.63
X124.72Y-119.68
X134.88Y-81.58
X134.88Y-100.63
X134.88Y-119.68
X143.65Y-100.68
X143.77Y-81.58
X143.77Y-119.68
X153.81Y-100.68
X153.93Y-81.58
X153.93Y-119.68
X168.8Y-100.67
X168.92Y-81.57
X168.92Y-119.67
X178.96Y-100.67
X179.08Y-81.57
X179.08Y-119.67
T2
X129.8Y-81.58
X129.8Y-100.63
X129.8Y-119.68
X148.73Y-100.68
X148.85Y-81.58
X148.85Y-119.68
X173.88Y-100.67
X174.0Y-81.57
X174.0Y-119.67
T0
M30
